<svg width="115" height="115" viewBox="0 0 115 115" fill="none" xmlns="http://www.w3.org/2000/svg">
<mask id="mask0_828_1292" style="mask-type:alpha" maskUnits="userSpaceOnUse" x="0" y="0" width="115" height="115">
<ellipse cx="57.5" cy="57.4401" rx="57.5" ry="57.4401" fill="#D9D9D9"/>
</mask>
<g mask="url(#mask0_828_1292)">
<ellipse cx="57.5" cy="57.44" rx="57.5" ry="57.4401" fill="black"/>
<g filter="url(#filter0_f_828_1292)">
<ellipse cx="102.702" cy="102.649" rx="102.702" ry="102.649" transform="matrix(0.866251 -0.499609 0.500391 0.8658 -131.244 85.1464)" fill="#00FFF0"/>
</g>
<g filter="url(#filter1_f_828_1292)">
<path d="M111.664 30.5734C130.474 63.1198 119.311 104.737 86.731 123.527C54.1507 142.318 12.4904 131.167 -6.3199 98.6204C-25.1302 66.074 -13.9673 24.4571 18.613 5.66641C51.1934 -13.1243 92.8537 -1.97304 111.664 30.5734Z" fill="#00F6FF"/>
</g>
<g filter="url(#filter2_f_828_1292)">
<ellipse cx="87.0871" cy="86.8421" rx="87.0871" ry="86.8421" transform="matrix(0.866251 -0.499609 0.500391 0.8658 -0.228516 -9.58551)" fill="#C3A6FF"/>
</g>
</g>
<path d="M49.2985 81.8629C48.0318 81.8629 46.9235 81.5859 46.0329 81.2197C42.3417 79.7353 39.4818 75.7077 38.6407 70.8587C34.237 70.5025 30.9417 68.5926 29.3188 65.4655C27.6365 62.2295 28.0125 58.1722 30.338 54.2832C26.7854 48.9097 28.0521 44.9513 29.1505 43.0513C30.9318 39.9638 34.5636 38.0044 38.3735 38.0044H38.3933C38.0667 35.6096 38.6505 33.3336 40.1052 31.394C42.1933 28.6034 45.548 27.1982 47.9329 27.0497C53.7516 26.6836 56.0079 31.4435 56.3939 33.3039C56.473 33.6799 56.2355 34.0461 55.8595 34.1253C55.4834 34.2044 55.1173 33.9669 55.0381 33.5909C54.7215 32.057 52.8313 28.1383 48.012 28.4351C45.9438 28.5638 43.0344 29.7909 41.2037 32.2253C39.8282 34.0659 39.373 36.2628 39.8974 38.5784C39.9469 38.7961 39.8974 39.0237 39.749 39.1821C39.6006 39.3404 39.3828 39.4294 39.1651 39.4196C35.6026 39.1227 31.9708 40.9039 30.338 43.7342C28.6854 46.604 29.1703 50.2061 31.7235 53.8675C31.8818 54.0951 31.8917 54.4019 31.7432 54.6295C29.4771 58.2118 29.0417 61.9327 30.5458 64.8321C32.0005 67.6426 35.0979 69.3051 39.2641 69.5228C39.5907 69.5426 39.8678 69.79 39.9172 70.1165C40.5704 74.728 43.173 78.5775 46.5475 79.9431C49.3183 81.0614 52.3365 80.4181 55.2954 78.1025C55.6022 77.865 56.0277 77.9145 56.2652 78.2213C56.5027 78.5181 56.4532 78.9536 56.1465 79.1911C53.5735 81.2098 51.2381 81.8728 49.2985 81.8728V81.8629Z" fill="black"/>
<path d="M61.322 81.9025C59.4418 81.9025 57.6803 81.0712 55.2954 79.1811C54.9985 78.9436 54.949 78.5082 55.1865 78.2113C55.424 77.9145 55.8595 77.865 56.1563 78.1025C58.9173 80.2994 60.5897 80.8634 62.7965 80.3389C63.1725 80.2499 63.5387 80.4775 63.6277 80.8535C63.7168 81.2296 63.4892 81.5957 63.1131 81.6848C62.4897 81.8332 61.8959 81.9124 61.322 81.9124V81.9025ZM81.183 65.3467C81.0642 65.3467 80.9554 65.317 80.8465 65.2576C80.5101 65.0696 80.3913 64.654 80.5793 64.3175C82.0835 61.6061 81.1335 57.3904 79.4116 54.6295C79.2632 54.392 79.2731 54.0951 79.4314 53.8675C81.9648 50.1763 82.4398 46.5643 80.7674 43.6747C79.1444 40.8742 75.5621 39.1128 72.0788 39.4096C71.8611 39.4294 71.6434 39.3404 71.4949 39.1721C71.3465 39.0039 71.297 38.7763 71.3366 38.5685C71.8611 36.2331 71.4059 34.0164 70.0106 32.1658C68.1996 29.7513 65.3496 28.544 63.321 28.4153C58.5511 28.1085 56.7105 32.0273 56.3938 33.5612C56.3147 33.9372 55.9485 34.1747 55.5725 34.0955C55.1964 34.0164 54.9589 33.6502 55.0381 33.2742C55.4241 31.4138 57.6605 26.6538 63.41 27.02C65.7553 27.1684 69.0408 28.5539 71.1189 31.3148C72.5835 33.2643 73.1674 35.5502 72.8408 37.9648H72.8507C76.6012 37.9648 80.1736 39.8945 81.945 42.9523C83.0533 44.8623 84.3497 48.8404 80.8069 54.2534C82.5882 57.3607 83.4788 61.9128 81.7768 64.9608C81.6481 65.1884 81.4106 65.317 81.1731 65.317L81.183 65.3467Z" fill="black"/>
<path d="M55.5527 79.5473C55.1668 79.5473 54.86 79.2406 54.86 78.8546L54.8996 33.294C54.8996 32.9081 55.2064 32.6013 55.5923 32.6013C55.9782 32.6013 56.285 32.9081 56.285 33.294L56.2454 78.8546C56.2454 79.2406 55.9387 79.5473 55.5527 79.5473Z" fill="black"/>
<path d="M75.483 87.3057H72.7517C72.2668 87.3057 71.8413 86.9594 71.7522 86.4943L71.2871 84.1687C71.1981 83.7234 70.8814 83.3573 70.446 83.1989C69.2387 82.7734 68.1106 82.1302 67.1012 81.2791C66.7548 80.9724 66.2798 80.8833 65.8543 81.0416L63.598 81.7937C63.1329 81.9422 62.6283 81.7541 62.3809 81.3385L61.0251 78.9932C60.7876 78.538 60.8767 78.0234 61.2329 77.7166L63.0142 76.1531C63.3605 75.8463 63.5189 75.3911 63.4298 74.9557C63.3111 74.3124 63.2616 73.6791 63.2616 73.0062C63.2616 72.3333 63.321 71.7197 63.4298 71.0765C63.5189 70.6312 63.3507 70.1661 63.0142 69.8593C63.0043 69.8494 62.9845 69.8395 62.9746 69.8197L61.2329 68.2957C60.8767 67.989 60.7777 67.4546 61.0152 67.0291L62.3809 64.664C62.6184 64.2483 63.1329 64.0504 63.5882 64.2088L65.8345 64.9608C66.26 65.1093 66.7251 65.0301 67.0715 64.7431C67.0715 64.7431 67.0715 64.7431 67.0814 64.7431C68.0908 63.8921 69.2189 63.239 70.4262 62.8134C70.8616 62.6551 71.1783 62.289 71.2674 61.8436L71.7325 59.5181C71.8215 59.0431 72.247 58.7066 72.7319 58.7066H75.4632C75.9481 58.7066 76.3736 59.053 76.4627 59.5181L76.9278 61.8436C77.0169 62.289 77.3335 62.6551 77.7689 62.8134C78.9762 63.239 80.1044 63.8822 81.1137 64.7332C81.4601 65.04 81.9351 65.1291 82.3606 64.9707L84.6169 64.2187C85.082 64.0603 85.5867 64.2582 85.8341 64.6739L87.1997 67.0291C87.4372 67.4645 87.3481 67.9989 86.9919 68.3056L85.2106 69.8692C84.8742 70.1661 84.7059 70.6411 84.795 71.0666C84.9137 71.7197 84.9632 72.3432 84.9632 73.0161C84.9632 73.689 84.9039 74.3025 84.795 74.9458C84.7059 75.3911 84.8742 75.8562 85.2106 76.163C85.2106 76.163 85.2205 76.1729 85.2304 76.1828L86.9919 77.7265C87.3481 78.0333 87.4471 78.5677 87.2096 78.9932L85.844 81.3583C85.6065 81.7838 85.0919 81.9718 84.6268 81.8135L82.3804 81.0614C81.9549 80.913 81.4898 80.9922 81.1434 81.2791C81.1434 81.2791 81.1434 81.2791 81.1335 81.2791C80.1242 82.1302 78.996 82.7833 77.7887 83.2088C77.3533 83.3672 77.0366 83.7333 76.9476 84.1786L76.4825 86.5042C76.3934 86.9792 75.9679 87.3156 75.483 87.3156V87.3057ZM73.0486 85.9302H75.1762L75.5819 83.9114C75.7601 82.9911 76.4033 82.239 77.3038 81.9125C78.3726 81.5364 79.3424 80.9823 80.2231 80.2401C80.2231 80.2401 80.2231 80.2401 80.233 80.2302C80.9554 79.6166 81.9549 79.4286 82.8356 79.7453L84.795 80.3984L85.8638 78.5578L84.3101 77.1921C84.3101 77.1921 84.2903 77.1723 84.2804 77.1624C83.5877 76.5291 83.2612 75.5791 83.4492 74.6786C83.5481 74.1343 83.5976 73.5801 83.5976 73.0062C83.5976 72.4322 83.5481 71.8682 83.4492 71.3239C83.2612 70.4135 83.5976 69.4536 84.3101 68.8202L85.8736 67.4546L84.8049 65.614L82.8356 66.2671C81.9549 66.5838 80.9554 66.3957 80.233 65.7624C79.3622 65.0301 78.3825 64.466 77.3335 64.0999C76.4231 63.7634 75.7799 63.0114 75.5918 62.091L75.1861 60.0723H73.0585L72.6528 62.091C72.4746 63.0114 71.8314 63.7634 70.9309 64.09C69.8621 64.466 68.8923 65.0202 68.0116 65.7624C68.0116 65.7624 68.0116 65.7624 68.0017 65.7723C67.2793 66.3858 66.2798 66.5739 65.3991 66.2572L63.4397 65.6041L62.3709 67.4447L63.9246 68.8103C63.9246 68.8103 63.9345 68.8202 63.9444 68.8301C64.647 69.4635 64.9637 70.4135 64.7855 71.3239C64.6866 71.8682 64.6371 72.4223 64.6371 72.9963C64.6371 73.5703 64.6866 74.1343 64.7855 74.6786C64.9637 75.589 64.6371 76.5489 63.9246 77.1822L62.3611 78.5479L63.4298 80.3885L65.3991 79.7354C66.2798 79.4187 67.2892 79.6067 68.0017 80.2401C68.8725 80.9724 69.8522 81.5364 70.9012 81.9026C71.8116 82.239 72.4548 82.9812 72.6429 83.9114L73.0486 85.9401V85.9302ZM74.0976 80.9031C69.7533 80.9031 66.2106 77.3604 66.2106 73.0161C66.2106 68.6718 69.7533 65.1291 74.0976 65.1291C78.4418 65.1291 81.9846 68.6718 81.9846 73.0161C81.9846 77.3604 78.4418 80.9031 74.0976 80.9031ZM74.0976 66.5145C70.5153 66.5145 67.596 69.4338 67.596 73.0161C67.596 76.5984 70.5153 79.5177 74.0976 79.5177C77.6799 79.5177 80.5992 76.5984 80.5992 73.0161C80.5992 69.4338 77.6799 66.5145 74.0976 66.5145Z" fill="black"/>
<path d="M52.6532 69.3843C52.5542 69.3843 52.4652 69.3645 52.3662 69.3249C51.911 69.1171 51.4558 68.9093 51.0105 68.7014C50.6641 68.5431 50.5157 68.1275 50.674 67.7811C50.8323 67.4348 51.248 67.2863 51.5943 67.4447C52.0396 67.6525 52.485 67.8603 52.9402 68.0582C53.2865 68.2165 53.4449 68.6223 53.2865 68.9785C53.1678 69.2358 52.9204 69.3843 52.6532 69.3843Z" fill="black"/>
<path d="M48.7147 67.514C48.6157 67.514 48.5069 67.4942 48.4079 67.4447C47.5371 67.0093 46.6761 66.564 45.8449 66.1187C45.5084 65.9405 45.3798 65.515 45.5579 65.1786C45.736 64.8421 46.1615 64.7135 46.498 64.8916C47.3193 65.3369 48.1704 65.7723 49.0313 66.1978C49.3777 66.3661 49.5162 66.7817 49.3381 67.128C49.2194 67.3754 48.972 67.514 48.7147 67.514ZM43.6579 64.8025C43.5391 64.8025 43.4204 64.7728 43.3115 64.7135C42.4506 64.2187 41.6292 63.714 40.8376 63.2093C40.511 63.0015 40.4219 62.5759 40.6198 62.2494C40.8277 61.9228 41.2532 61.8338 41.5797 62.0317C42.3615 62.5265 43.173 63.0213 44.0141 63.5062C44.3407 63.6942 44.4594 64.1197 44.2615 64.4562C44.1329 64.6739 43.9053 64.8025 43.6579 64.8025ZM38.8188 61.7249C38.6803 61.7249 38.5417 61.6853 38.423 61.5963C37.5818 61.0025 36.8 60.4186 36.0875 59.8447C35.7907 59.6072 35.7412 59.1718 35.9787 58.8749C36.2162 58.578 36.6516 58.5285 36.9485 58.766C37.6313 59.3202 38.3933 59.8843 39.2047 60.4582C39.5214 60.6759 39.5907 61.1114 39.373 61.428C39.2344 61.616 39.0266 61.7249 38.8089 61.7249H38.8188Z" fill="black"/>
<path d="M34.3657 58.1129C34.1875 58.1129 34.0193 58.0436 33.8807 57.915C33.5047 57.5389 33.1485 57.1728 32.8219 56.8066C32.5646 56.5196 32.5943 56.0842 32.8813 55.8269C33.1683 55.5696 33.6037 55.5993 33.861 55.8863C34.1677 56.2327 34.4943 56.5691 34.8505 56.9254C35.1276 57.1926 35.1276 57.628 34.8604 57.9051C34.7219 58.0436 34.5438 58.1129 34.3657 58.1129Z" fill="black"/>
<path d="M43.549 39.4096C43.549 39.4096 43.5292 39.4096 43.5193 39.4096C43.0938 39.3899 42.6782 39.3899 42.2527 39.38C41.8667 39.38 41.56 39.0633 41.56 38.6873C41.56 38.3013 41.8667 37.9945 42.2527 37.9945C42.6881 37.9945 43.1235 38.0044 43.5589 38.0242C43.9449 38.0341 44.2417 38.3607 44.2219 38.7466C44.212 39.1227 43.9053 39.4096 43.5292 39.4096H43.549Z" fill="black"/>
<path d="M49.0412 39.9737C49.0412 39.9737 48.9621 39.9737 48.9324 39.9737C48.022 39.8253 47.1116 39.6966 46.2407 39.6076C45.8647 39.568 45.5876 39.2315 45.6272 38.8456C45.6667 38.4695 46.0131 38.1826 46.3891 38.232C47.2897 38.331 48.2298 38.4497 49.1699 38.6081C49.5459 38.6675 49.8032 39.0237 49.7438 39.3997C49.6845 39.7362 49.3975 39.9836 49.061 39.9836L49.0412 39.9737Z" fill="black"/>
<path d="M53.0095 40.7753C52.96 40.7753 52.9006 40.7753 52.8511 40.7555C52.4355 40.6565 52.0199 40.5576 51.6042 40.4685C51.2282 40.3893 50.9907 40.0232 51.0699 39.6471C51.149 39.2711 51.5152 39.0336 51.8912 39.1128C52.3068 39.2018 52.7324 39.3008 53.1579 39.3997C53.5339 39.4888 53.7615 39.8649 53.6725 40.231C53.5933 40.5477 53.3162 40.7654 52.9996 40.7654L53.0095 40.7753Z" fill="black"/>
<path d="M77.8778 52.1259C77.7195 52.1259 77.5611 52.0765 77.4325 51.9676C77.0564 51.6608 76.6804 51.3541 76.2945 51.0473C75.9976 50.8098 75.9382 50.3744 76.1757 50.0775C76.4132 49.7806 76.8486 49.7213 77.1455 49.9588C77.5413 50.2754 77.9273 50.5921 78.3132 50.9088C78.6101 51.1562 78.6497 51.5916 78.4023 51.8884C78.2637 52.0567 78.0658 52.1358 77.8679 52.1358L77.8778 52.1259Z" fill="black"/>
<path d="M74.533 49.5629C74.3945 49.5629 74.2559 49.5233 74.1372 49.4442C73.4049 48.9395 72.6528 48.4546 71.8809 47.9994C71.5544 47.8014 71.4455 47.3759 71.6434 47.0494C71.8413 46.7228 72.2669 46.6139 72.5934 46.8119C73.3851 47.2869 74.1768 47.7915 74.9289 48.3061C75.2455 48.5238 75.3247 48.9593 75.107 49.266C74.9684 49.4639 74.7606 49.5629 74.533 49.5629ZM69.8523 46.7723C69.7434 46.7723 69.6346 46.7525 69.5356 46.6931C68.7637 46.2973 67.9523 45.9014 67.1111 45.5254C66.7648 45.3671 66.6064 44.9613 66.7648 44.6051C66.9231 44.2587 67.3288 44.1004 67.6851 44.2587C68.546 44.6447 69.3872 45.0504 70.1788 45.4561C70.5153 45.6342 70.6538 46.0499 70.4757 46.3863C70.357 46.6238 70.1096 46.7624 69.8622 46.7624L69.8523 46.7723ZM64.8846 44.5259C64.7955 44.5259 64.7163 44.5061 64.6273 44.4764C63.9543 44.2092 63.2616 43.942 62.5293 43.6848L62.0939 43.5264C61.7377 43.3978 61.5496 43.0019 61.6783 42.6358C61.8069 42.2795 62.2028 42.0915 62.5689 42.2202L63.0043 42.3785C63.7465 42.6457 64.459 42.9129 65.1418 43.19C65.4981 43.3285 65.6663 43.7342 65.5278 44.0905C65.4189 44.3577 65.1616 44.5259 64.8846 44.5259Z" fill="black"/>
<path d="M59.7387 42.6753C59.6694 42.6753 59.6001 42.6654 59.521 42.6456C59.0657 42.4971 58.6006 42.3487 58.1157 42.2003C57.7496 42.0914 57.5418 41.7055 57.6506 41.3393C57.7595 40.9732 58.1454 40.7654 58.5116 40.8742C59.0064 41.0226 59.4814 41.1711 59.9465 41.3195C60.3126 41.4383 60.5105 41.8242 60.3918 42.1904C60.2928 42.4872 60.0256 42.6654 59.7288 42.6654L59.7387 42.6753Z" fill="black"/>
<path d="M61.2725 71.502C61.2725 71.502 61.2132 71.502 61.1736 71.502C59.9069 71.3238 59.3725 71.1952 58.4027 70.928C58.0366 70.8291 57.809 70.453 57.9079 70.077C58.0069 69.7108 58.3829 69.4931 58.759 69.5822C59.709 69.8395 60.1741 69.9582 61.3616 70.1166C61.7377 70.166 62.0048 70.5223 61.9554 70.8983C61.9059 71.2447 61.609 71.4921 61.2725 71.4921V71.502Z" fill="black"/>
<defs>
<filter id="filter0_f_828_1292" x="-211.078" y="-97.3496" width="440.331" height="440.117" filterUnits="userSpaceOnUse" color-interpolation-filters="sRGB">
<feFlood flood-opacity="0" result="BackgroundImageFix"/>
<feBlend mode="normal" in="SourceGraphic" in2="BackgroundImageFix" result="shape"/>
<feGaussianBlur stdDeviation="58.7095" result="effect1_foregroundBlur_828_1292"/>
</filter>
<filter id="filter1_f_828_1292" x="-120.527" y="-108.531" width="346.398" height="346.256" filterUnits="userSpaceOnUse" color-interpolation-filters="sRGB">
<feFlood flood-opacity="0" result="BackgroundImageFix"/>
<feBlend mode="normal" in="SourceGraphic" in2="BackgroundImageFix" result="shape"/>
<feGaussianBlur stdDeviation="52.5347" result="effect1_foregroundBlur_828_1292"/>
</filter>
<filter id="filter2_f_828_1292" x="-22.1152" y="-118.498" width="281.562" height="281.181" filterUnits="userSpaceOnUse" color-interpolation-filters="sRGB">
<feFlood flood-opacity="0" result="BackgroundImageFix"/>
<feBlend mode="normal" in="SourceGraphic" in2="BackgroundImageFix" result="shape"/>
<feGaussianBlur stdDeviation="26.8532" result="effect1_foregroundBlur_828_1292"/>
</filter>
</defs>
</svg>
