<?xml version="1.0" encoding="utf-8"?>
<!-- Generator: Adobe Illustrator 27.2.0, SVG Export Plug-In . SVG Version: 6.00 Build 0)  -->
<svg version="1.1" id="ed665e3e-02c1-42dc-995a-cf87b71111d0"
	 xmlns="http://www.w3.org/2000/svg" xmlns:xlink="http://www.w3.org/1999/xlink" x="0px" y="0px" viewBox="0 0 150 28.6"
	 style="enable-background:new 0 0 150 28.6;" xml:space="preserve">
<style type="text/css">
	.st0{fill:#FFFFFF;}
</style>
<g id="f4786b5e-2815-4ab6-ab85-559e54f35b9d">
	<path class="st0" d="M1.6,7H0V5.2h1.6v-2c0-1.8,0.5-3.2,3-3.2c0.5,0,1.1,0.1,1.5,0.2v1.7c-0.5,0-0.9,0-1.3,0C4,1.9,3.9,2.3,3.9,3
		v2.1h2V7h-2v11.5H1.6V7z"/>
	<path class="st0" d="M7.8,18.5H10V0.2H7.8V18.5z"/>
	<path class="st0" d="M12.3,15.9V5h2.3v9.9c0,0.5,0,2,1.7,2c1.2,0,1.8-1.3,1.8-2.5V5h2.2v13.5h-2.1v-1.6l0,0
		c-0.5,1.2-1.7,1.9-2.9,1.9c-1.5,0.1-2.8-1.1-2.8-2.7C12.3,16.1,12.3,15.9,12.3,15.9"/>
	<path class="st0" d="M28.3,10.4v-2c0-1.1-0.6-2-1.8-2s-1.9,0.9-1.9,2v1.9L28.3,10.4L28.3,10.4z M22.4,14.9v-6
		c0-2.6,1.6-4.2,4.3-4.2s3.8,1.7,3.8,4.2v3.2h-5.8v2.6c0,1.3,0.5,2.2,1.9,2.2c0.9,0.1,1.7-0.7,1.8-1.6c0-0.1,0-0.2,0-0.3v-0.9h2.1
		v0.7c0,2.3-1.3,4-3.9,4S22.4,17.5,22.4,14.9z"/>
	<path class="st0" d="M32.6,5h2.2v1.5h0.1c0.5-1.1,1.6-1.9,2.9-1.9c1.5-0.1,2.8,1.1,2.9,2.6c0,0.1,0,0.2,0,0.3v10.9h-2.3V8.6
		c0-0.5-0.1-1.9-1.7-1.9c-1.2,0-1.8,1.3-1.8,2.4v9.4h-2.3C32.6,18.5,32.6,5,32.6,5z"/>
	<path class="st0" d="M43.6,15.8V7h-1.5V5.2l1.5-0.1V1.9l2.3-1.1V5h2.4v1.9h-2.4v8.2c0,0.7,0.1,1.3,1.2,1.3c0.4,0,0.7-0.1,1.1-0.1
		v1.9c-0.6,0.2-1.3,0.3-1.9,0.3C44.2,18.7,43.7,17.6,43.6,15.8"/>
	<path class="st0" d="M50.5,15V8.8c0-2.7,1.7-4,3.9-4c2.1,0,3.6,1,3.6,3.6v1h-1.5V8.6c0-1.3-0.5-2.5-2.2-2.5c-1.3,0-2.3,1-2.3,2.3
		c0,0.1,0,0.1,0,0.1V15c0,1,0.3,2.4,2.3,2.4c1.1,0,2.1-0.9,2.1-2v-1.2H58v1.1c0,2.3-1.5,3.6-3.6,3.6C51.9,18.9,50.5,17.8,50.5,15"/>
	<path class="st0" d="M65.8,14.9V8.5c0-1.5-0.8-2.3-2.3-2.3c-1.5,0-2.2,1.1-2.2,2.5V15c0,1.4,0.7,2.4,2.2,2.4
		C65,17.4,65.8,16.5,65.8,14.9z M59.8,15.1V8.6c0-2.2,1.3-3.9,3.9-3.9c2.5,0,3.8,1.6,3.8,3.6v6.3c0,2.5-1.3,4.2-3.9,4.2
		C61,18.9,59.8,17.6,59.8,15.1z"/>
	<path class="st0" d="M69.2,5h1.6v1.5h0.1c0.5-1.1,1.7-1.9,3-1.9c1.3-0.1,2.5,0.8,2.7,2.1c0.9-1.4,1.8-2.1,3.1-2.1
		c2.3,0,2.7,1.7,2.7,2.9v10.9h-1.6v-10c0-0.6,0.1-2.3-1.9-2.3c-1.4,0-2.2,1.6-2.2,2.9v9.4h-1.6V8.2c0-0.7-0.2-2-1.9-2
		c-1.4,0-2.2,1.6-2.2,2.9v9.4h-1.6L69.2,5z"/>
	<path class="st0" d="M84.1,5h1.6v1.5h0.1c0.5-1.1,1.7-1.9,3-1.9c1.3-0.1,2.5,0.8,2.7,2.1c0.9-1.4,1.7-2.1,3.1-2.1
		c2.3,0,2.8,1.7,2.8,2.9v10.9h-1.6v-10c0-0.6,0.1-2.3-1.9-2.3c-1.3,0-2.2,1.6-2.2,2.9v9.4H90V8.2c0-0.7-0.2-2-1.9-2
		c-1.4,0-2.2,1.6-2.2,2.9v9.4h-1.6L84.1,5z"/>
	<path class="st0" d="M105,10.7V8.5c0-1.3-0.7-2.4-2.2-2.4s-2.3,1.1-2.3,2.5v2.1C100.5,10.7,105,10.7,105,10.7z M98.9,15.1V8.9
		c0-2.6,1.5-4.2,4.1-4.2s3.6,1.7,3.6,4.2V12h-6v2.7c0,1.5,0.5,2.7,2.3,2.7c1.4,0,2.2-0.9,2.2-2.3v-0.9h1.5v0.6
		c0,2.4-1.1,4.2-3.7,4.2S98.9,17.7,98.9,15.1L98.9,15.1z"/>
	<path class="st0" d="M108.5,5h1.6v2.4h0.1c0.7-1.7,1.7-2.6,2.9-2.6c0.3,0,0.5,0,0.8,0.1v1.7c-0.3-0.1-0.7-0.1-1-0.1
		c-1.9,0-2.7,3.1-2.7,4.8v7.2h-1.7C108.5,18.5,108.5,5,108.5,5z"/>
	<path class="st0" d="M115.2,15V8.8c0-2.7,1.7-4,3.9-4c2.1,0,3.6,1,3.6,3.6v1h-1.5V8.6c0-1.3-0.5-2.5-2.1-2.5
		c-1.2,0-2.3,0.9-2.3,2.2c0,0.1,0,0.1,0,0.2V15c0,1,0.3,2.4,2.3,2.4c1.1,0,2.1-0.9,2.1-2v-1.2h1.5v1.1c0,2.3-1.5,3.6-3.6,3.6
		C116.5,18.9,115.2,17.8,115.2,15"/>
	<path class="st0" d="M130.4,10.7V8.5c0-1.3-0.7-2.4-2.2-2.4s-2.3,1.1-2.3,2.5v2.1C125.9,10.7,130.4,10.7,130.4,10.7z M124.4,15.1
		V8.9c0-2.6,1.5-4.2,4.1-4.2c2.6,0,3.6,1.7,3.6,4.2V12h-6v2.7c0,1.5,0.5,2.7,2.3,2.7c1.4,0,2.2-0.9,2.2-2.3v-0.9h1.5v0.6
		c0,2.4-1.1,4.2-3.6,4.2C125.8,18.9,124.4,17.7,124.4,15.1L124.4,15.1z"/>
	<path class="st0" d="M135.1,17.6c-0.3-0.7,0-1.6,0.7-1.9c0.2-0.1,0.4-0.1,0.6-0.1c0.8,0,1.5,0.7,1.5,1.5s-0.7,1.5-1.5,1.5l0,0
		c-0.4,0-0.7-0.1-1.1-0.4C135.3,18,135.2,17.8,135.1,17.6"/>
	<path class="st0" d="M148.5,8h-12.1c-0.8,0-1.5-0.7-1.5-1.5s0.7-1.5,1.5-1.5h12.1c0.8,0,1.5,0.7,1.5,1.5C150.1,7.4,149.4,8,148.5,8
		"/>
	<path class="st0" d="M136.5,10.2h6c0.8,0,1.5,0.7,1.5,1.5s-0.7,1.5-1.5,1.5h-6c-0.8,0-1.5-0.7-1.5-1.5S135.7,10.2,136.5,10.2"/>
	<path class="st0" d="M2.3,21.9c0.3,0,0.7,0.1,1,0.2s0.5,0.3,0.7,0.5c0.2,0.3,0.3,0.5,0.5,0.8c0.2,0.7,0.3,1.4,0.1,2.1
		c-0.1,0.3-0.3,0.6-0.5,0.8c-0.2,0.3-0.5,0.5-0.7,0.5C3,26.9,2.7,27,2.4,27s-0.7-0.1-1-0.2s-0.5-0.3-0.7-0.5s-0.4-0.5-0.5-0.8
		c-0.2-0.7-0.2-1.4,0-2.1c0.1-0.3,0.3-0.5,0.5-0.8c0.2-0.2,0.5-0.4,0.7-0.5C1.7,21.9,2,21.8,2.3,21.9z M2.3,26.3
		c0.4,0.1,0.9-0.1,1.1-0.5c0.3-0.4,0.4-0.9,0.3-1.3c0.1-0.5-0.1-0.9-0.3-1.3c-0.3-0.3-0.7-0.5-1.1-0.5c-0.2,0-0.5,0.1-0.6,0.1
		c-0.2,0.1-0.3,0.2-0.5,0.3c-0.1,0.2-0.2,0.4-0.3,0.6c-0.1,0.3-0.1,0.5-0.1,0.8s0.1,0.5,0.1,0.7C1,25.4,1,25.6,1.2,25.8
		c0.1,0.1,0.3,0.3,0.5,0.3C1.9,26.3,2.1,26.3,2.3,26.3z"/>
	<path class="st0" d="M5.8,26.9V22h0.5c0.1,0,0.1,0,0.2,0.1s0.1,0.1,0.1,0.2V23c0.1-0.3,0.4-0.6,0.7-0.8C7.5,22,7.8,22,8.1,22
		c0.1,0,0.3,0,0.3,0.1l0.3,0.1l-0.1,0.7C8.6,23,8.5,23,8.5,23c-0.1,0-0.1,0-0.2-0.1c-0.2-0.1-0.3-0.1-0.5-0.1
		c-0.3,0-0.5,0.1-0.7,0.3c-0.2,0.2-0.4,0.5-0.5,0.8V27H5.8V26.9z"/>
	<path class="st0" d="M13.1,26.9c-0.1,0-0.2-0.1-0.2-0.2l-0.1-0.5c-0.2,0.3-0.5,0.5-0.7,0.6c-0.3,0.1-0.6,0.2-0.9,0.2
		c-0.3,0-0.5-0.1-0.7-0.2s-0.4-0.3-0.6-0.5c-0.2-0.2-0.3-0.5-0.3-0.8s-0.1-0.7-0.1-1.1s0.1-0.7,0.1-1c0.1-0.3,0.3-0.5,0.4-0.8
		c0.2-0.2,0.4-0.4,0.7-0.5s0.6-0.2,0.9-0.2c0.3,0,0.5,0.1,0.8,0.1c0.2,0.1,0.4,0.3,0.6,0.4v-2.7h0.9v7.2L13.1,26.9L13.1,26.9z
		 M11.4,26.2c0.3,0,0.5-0.1,0.7-0.2c0.3-0.1,0.5-0.3,0.6-0.5v-2.3c-0.1-0.2-0.3-0.3-0.5-0.5c-0.2-0.1-0.4-0.1-0.7-0.1
		c-0.4-0.1-0.9,0.1-1.1,0.5c-0.3,0.4-0.4,0.9-0.3,1.4c0,0.3,0.1,0.5,0.1,0.8c0.1,0.2,0.1,0.4,0.2,0.5c0.1,0.1,0.3,0.3,0.4,0.3
		C11.1,26.3,11.2,26.3,11.4,26.2L11.4,26.2z"/>
	<path class="st0" d="M16.9,21.9c0.3,0,0.5,0.1,0.8,0.1c0.3,0.1,0.5,0.2,0.7,0.4c0.2,0.2,0.3,0.4,0.4,0.7c0.1,0.3,0.1,0.6,0.1,0.9
		c0,0.1,0,0.2-0.1,0.3c-0.1,0.1-0.1,0.1-0.2,0.1h-3.3c0,0.3,0.1,0.5,0.1,0.8c0.1,0.2,0.2,0.4,0.3,0.6c0.1,0.1,0.3,0.3,0.5,0.3
		c0.2,0.1,0.4,0.1,0.7,0.1c0.2,0,0.4,0,0.5-0.1s0.3-0.1,0.4-0.2s0.2-0.1,0.3-0.2c0.1-0.1,0.1-0.1,0.2-0.1s0.1,0.1,0.2,0.1l0.2,0.3
		c-0.1,0.1-0.2,0.3-0.3,0.3c-0.1,0.1-0.3,0.2-0.5,0.2l-0.5,0.2c-0.2,0.1-0.3,0.1-0.5,0.1c-0.3,0-0.7-0.1-0.9-0.2
		c-0.3-0.1-0.5-0.3-0.7-0.5s-0.4-0.5-0.5-0.8s-0.2-0.7-0.2-1.1c0-0.3,0.1-0.7,0.1-0.9c0.1-0.3,0.3-0.5,0.5-0.8
		c0.2-0.2,0.4-0.4,0.7-0.5C16.2,21.9,16.5,21.9,16.9,21.9z M16.9,22.5c-0.3,0-0.7,0.1-1,0.3c-0.3,0.3-0.4,0.6-0.5,1h2.7
		c0-0.2-0.1-0.4-0.1-0.5c0-0.1,0-0.3-0.1-0.5c-0.1-0.1-0.3-0.3-0.4-0.3C17.3,22.6,17.1,22.5,16.9,22.5L16.9,22.5z"/>
	<path class="st0" d="M20,26.9V22h0.5c0.1,0,0.1,0,0.2,0.1s0.1,0.1,0.1,0.2V23c0.1-0.3,0.4-0.6,0.7-0.8C21.7,22,22,22,22.3,22
		c0.1,0,0.3,0,0.3,0.1l0.3,0.1l-0.1,0.7c0,0.1-0.1,0.1-0.1,0.1c-0.1,0-0.1,0-0.2-0.1c-0.4-0.1-0.9,0-1.2,0.2
		c-0.2,0.2-0.4,0.5-0.5,0.8V27L20,26.9z"/>
	<path class="st0" d="M25.7,26.9V22h0.5c0.1,0,0.2,0.1,0.2,0.2l0.1,0.5c0.1-0.2,0.3-0.4,0.6-0.5c0.2-0.1,0.5-0.2,0.7-0.2
		c0.3,0,0.6,0.1,0.8,0.3c0.2,0.2,0.4,0.5,0.5,0.8c0.1-0.2,0.1-0.3,0.3-0.5c0.1-0.1,0.2-0.3,0.3-0.3c0.1-0.1,0.3-0.1,0.5-0.2
		c0.1-0.1,0.3-0.1,0.5-0.1s0.5,0.1,0.7,0.1c0.2,0.1,0.3,0.2,0.5,0.3c0.1,0.2,0.3,0.4,0.3,0.6c0.1,0.3,0.1,0.5,0.1,0.8V27h-0.9v-3.1
		c0-0.3-0.1-0.6-0.3-0.9c-0.2-0.2-0.5-0.3-0.7-0.3c-0.1,0-0.3,0.1-0.4,0.1c-0.1,0.1-0.3,0.1-0.3,0.2c-0.1,0.1-0.2,0.2-0.2,0.3
		c-0.1,0.1-0.1,0.3-0.1,0.5v3.1h-0.8v-3.1c0.1-0.3-0.1-0.6-0.2-0.9c-0.1-0.2-0.4-0.3-0.7-0.3c-0.2,0-0.4,0.1-0.6,0.2
		s-0.3,0.3-0.5,0.5V27L25.7,26.9z"/>
	<path class="st0" d="M37.2,26.9h-0.3c-0.1,0-0.1,0-0.2-0.1c-0.1-0.1-0.1-0.1-0.1-0.2l-0.1-0.5c-0.1,0.1-0.2,0.2-0.3,0.3
		c-0.1,0.1-0.2,0.2-0.3,0.2c-0.1,0.1-0.3,0.1-0.5,0.1c-0.1,0.1-0.3,0.1-0.5,0.1s-0.3-0.1-0.5-0.1c-0.1-0.1-0.3-0.1-0.5-0.2
		c-0.1-0.1-0.3-0.3-0.3-0.4c-0.1-0.2-0.1-0.4-0.1-0.6s0.1-0.4,0.1-0.5c0.1-0.2,0.3-0.3,0.5-0.5c0.3-0.1,0.6-0.3,0.9-0.3
		c0.5-0.1,0.9-0.1,1.4-0.1v-0.3c0.1-0.3-0.1-0.6-0.2-0.9c-0.2-0.2-0.5-0.3-0.7-0.3s-0.3,0.1-0.5,0.1c-0.1,0-0.3,0.1-0.3,0.2L34.6,23
		c-0.1,0.1-0.1,0.1-0.2,0.1s-0.1,0-0.1-0.1h-0.1L34,22.7c0.3-0.3,0.5-0.5,0.9-0.6c0.3-0.1,0.7-0.2,1.1-0.2c0.3,0,0.5,0.1,0.7,0.1
		c0.2,0.1,0.4,0.2,0.5,0.3c0.1,0.2,0.3,0.4,0.3,0.6c0.1,0.3,0.1,0.5,0.1,0.8L37.2,26.9z M35,26.3c0.1,0,0.3,0,0.4-0.1
		c0.1-0.1,0.2-0.1,0.3-0.1c0.1-0.1,0.2-0.1,0.3-0.2s0.2-0.2,0.3-0.3v-1c-0.3,0-0.7,0-1,0.1c-0.2,0.1-0.5,0.1-0.7,0.2
		c-0.1,0.1-0.3,0.1-0.3,0.3c-0.1,0.1-0.1,0.2-0.1,0.3c0,0.1,0,0.2,0.1,0.3c0,0.1,0.1,0.2,0.2,0.2l0.3,0.1
		C34.8,26.3,34.8,26.3,35,26.3z"/>
	<path class="st0" d="M38.5,26.9V22H39c0.1,0,0.2,0.1,0.2,0.2l0.1,0.5c0.2-0.2,0.5-0.4,0.7-0.5c0.3-0.1,0.6-0.2,0.9-0.2
		c0.3,0,0.5,0.1,0.7,0.1c0.2,0.1,0.3,0.2,0.5,0.3c0.1,0.2,0.3,0.4,0.3,0.6c0.1,0.3,0.1,0.5,0.1,0.8V27h-0.9v-3.1
		c0-0.3-0.1-0.6-0.3-0.9c-0.2-0.2-0.5-0.3-0.8-0.3s-0.5,0.1-0.7,0.2s-0.4,0.3-0.6,0.5V27L38.5,26.9z"/>
	<path class="st0" d="M47.4,26.9H47c-0.1,0-0.1,0-0.2-0.1c-0.1-0.1-0.1-0.1-0.1-0.2l-0.1-0.5c-0.1,0.1-0.2,0.2-0.3,0.3
		c-0.1,0.1-0.2,0.2-0.4,0.2c-0.1,0.1-0.3,0.1-0.5,0.1c-0.1,0.1-0.3,0.1-0.5,0.1s-0.4-0.1-0.5-0.1c-0.1-0.1-0.3-0.1-0.5-0.2
		c-0.1-0.1-0.3-0.3-0.3-0.4c-0.1-0.2-0.1-0.4-0.1-0.6s0.1-0.4,0.1-0.5c0.1-0.2,0.3-0.3,0.5-0.5c0.3-0.1,0.6-0.3,0.9-0.3
		c0.5-0.1,0.9-0.1,1.4-0.1v-0.3c0.1-0.3-0.1-0.6-0.2-0.9c-0.2-0.2-0.5-0.3-0.7-0.3s-0.4,0.1-0.5,0.1c-0.1,0.1-0.3,0.1-0.3,0.2
		L44.5,23c-0.1,0.1-0.1,0.1-0.2,0.1c-0.1,0-0.1,0-0.1-0.1h-0.1L44,22.7c0.3-0.3,0.5-0.5,0.9-0.6c0.3-0.1,0.7-0.2,1.1-0.2
		c0.3,0,0.5,0.1,0.7,0.1c0.2,0.1,0.4,0.2,0.5,0.3c0.1,0.2,0.3,0.4,0.3,0.6c0.1,0.3,0.1,0.5,0.1,0.8L47.4,26.9z M45.2,26.3
		c0.1,0,0.3,0,0.4-0.1c0.1-0.1,0.2-0.1,0.3-0.1c0.1-0.1,0.2-0.1,0.3-0.2s0.2-0.2,0.3-0.3v-1c-0.3,0-0.7,0-1,0.1
		c-0.2,0.1-0.5,0.1-0.7,0.2c-0.1,0.1-0.3,0.1-0.3,0.3c-0.1,0.1-0.1,0.2-0.1,0.3c0,0.1,0,0.2,0.1,0.3c0,0.1,0.1,0.2,0.2,0.2
		c0.1,0.1,0.2,0.1,0.3,0.1C45,26.3,45.1,26.3,45.2,26.3z"/>
	<path class="st0" d="M50.4,21.9c0.2,0,0.4,0.1,0.6,0.1c0.2,0,0.3,0.1,0.5,0.2h1.3v0.3c0,0.1-0.1,0.2-0.2,0.2l-0.5,0.1
		c0.1,0.2,0.2,0.5,0.2,0.7c0,0.4-0.2,0.9-0.5,1.1c-0.2,0.1-0.4,0.3-0.6,0.3C50.9,25,50.7,25,50.5,25s-0.5,0-0.7-0.1
		c-0.1,0.1-0.2,0.1-0.2,0.2c-0.1,0.1-0.1,0.1-0.1,0.2s0.1,0.2,0.1,0.3c0.1,0.1,0.2,0.1,0.3,0.1c0.2,0.1,0.3,0.1,0.5,0.1H51
		c0.2,0,0.4,0,0.6,0.1c0.2,0.1,0.4,0.1,0.6,0.2c0.3,0.2,0.5,0.5,0.5,0.9c0,0.2-0.1,0.5-0.1,0.6c-0.1,0.2-0.3,0.4-0.5,0.5
		s-0.5,0.3-0.7,0.3c-0.3,0.1-0.6,0.1-0.9,0.1s-0.7-0.1-0.9-0.1c-0.3-0.1-0.5-0.1-0.7-0.3c-0.2-0.1-0.3-0.2-0.4-0.4
		c-0.1-0.1-0.1-0.3-0.1-0.5c0-0.3,0.1-0.5,0.2-0.7c0.2-0.2,0.4-0.3,0.6-0.4c-0.1-0.1-0.3-0.1-0.3-0.3c-0.1-0.1-0.1-0.3-0.1-0.5
		c0-0.1,0-0.1,0.1-0.2s0.1-0.2,0.1-0.2c0.1,0,0.1-0.1,0.2-0.2c0.1-0.1,0.2-0.1,0.3-0.2c-0.2-0.1-0.4-0.3-0.6-0.5
		c-0.1-0.2-0.3-0.5-0.2-0.8c0-0.2,0.1-0.5,0.1-0.7c0.1-0.2,0.2-0.3,0.3-0.5c0.2-0.1,0.4-0.3,0.6-0.3C49.8,21.9,50.1,21.8,50.4,21.9z
		 M51.9,27.1c0-0.1-0.1-0.2-0.1-0.3c-0.1-0.1-0.2-0.1-0.3-0.2s-0.3-0.1-0.4-0.1c-0.2,0-0.3-0.1-0.5-0.1h-0.5c-0.2,0-0.3,0-0.5-0.1
		c-0.2,0.1-0.3,0.2-0.5,0.3C49,26.9,49,27,49,27.2c0,0.1,0.1,0.2,0.1,0.3c0.1,0.1,0.1,0.2,0.3,0.2c0.1,0.1,0.3,0.1,0.5,0.2
		c0.4,0.1,0.9,0.1,1.3,0c0.1-0.1,0.3-0.1,0.5-0.2c0.1-0.1,0.2-0.1,0.3-0.3C51.9,27.4,51.9,27.3,51.9,27.1z M50.4,24.5
		c0.1,0,0.3-0.1,0.5-0.1c0.1,0,0.2-0.1,0.3-0.2s0.1-0.2,0.2-0.3c0.1-0.1,0.1-0.3,0.1-0.4c0-0.3-0.1-0.5-0.3-0.7
		c-0.5-0.4-1.1-0.4-1.6,0c-0.2,0.2-0.3,0.4-0.3,0.7c0,0.1,0,0.3,0.1,0.4s0.1,0.2,0.2,0.3c0.1,0.1,0.2,0.1,0.3,0.2
		S50.2,24.5,50.4,24.5L50.4,24.5z"/>
	<path class="st0" d="M55.5,21.9c0.3,0,0.5,0.1,0.8,0.1c0.3,0.1,0.5,0.2,0.6,0.4c0.2,0.2,0.3,0.4,0.4,0.7c0.1,0.3,0.1,0.6,0.1,0.9
		c0,0.1,0,0.2-0.1,0.3c-0.1,0.1-0.1,0.1-0.2,0.1H54c0,0.3,0.1,0.5,0.1,0.8c0.1,0.2,0.2,0.4,0.3,0.6c0.1,0.1,0.3,0.3,0.5,0.3
		c0.2,0.1,0.5,0.1,0.7,0.1s0.4,0,0.5-0.1s0.3-0.1,0.4-0.2c0.1-0.1,0.2-0.1,0.3-0.2s0.1-0.1,0.2-0.1s0.1,0.1,0.2,0.1l0.2,0.3
		c-0.1,0.1-0.2,0.3-0.3,0.3c-0.1,0.1-0.3,0.2-0.5,0.2l-0.5,0.2c-0.1,0-0.3,0.1-0.5,0c-0.3,0-0.7-0.1-0.9-0.2
		c-0.3-0.1-0.5-0.3-0.7-0.5s-0.4-0.5-0.5-0.8s-0.2-0.7-0.2-1.1c0-0.3,0.1-0.7,0.1-0.9c0.1-0.3,0.3-0.5,0.5-0.8
		c0.2-0.2,0.5-0.4,0.7-0.5C54.9,21.9,55.2,21.9,55.5,21.9z M55.5,22.5c-0.3,0-0.7,0.1-1,0.3c-0.3,0.3-0.4,0.6-0.5,1h2.7
		c0-0.2-0.1-0.4-0.1-0.5c-0.1-0.1-0.1-0.3-0.2-0.5c-0.1-0.1-0.3-0.3-0.4-0.3C55.9,22.6,55.7,22.5,55.5,22.5L55.5,22.5z"/>
	<path class="st0" d="M58.6,26.9V22h0.5c0.1,0,0.2,0.1,0.2,0.2l0.1,0.5c0.1-0.2,0.3-0.4,0.6-0.5c0.2-0.1,0.5-0.2,0.8-0.2
		s0.6,0.1,0.8,0.3c0.2,0.2,0.4,0.5,0.5,0.8c0.1-0.2,0.1-0.3,0.3-0.5c0.1-0.1,0.2-0.3,0.4-0.3c0.1-0.1,0.3-0.1,0.5-0.2
		c0.1-0.1,0.3-0.1,0.5-0.1s0.5,0.1,0.7,0.1c0.2,0.1,0.4,0.2,0.5,0.3c0.1,0.2,0.3,0.4,0.3,0.6c0.1,0.3,0.1,0.5,0.1,0.8V27h-1v-3.1
		c0-0.3-0.1-0.6-0.3-0.9c-0.2-0.2-0.5-0.3-0.7-0.3c-0.1,0-0.3,0.1-0.4,0.1c-0.1,0.1-0.3,0.1-0.3,0.2c-0.1,0.1-0.2,0.2-0.2,0.3
		c-0.1,0.2-0.1,0.4-0.1,0.5v3.1h-0.9v-3.1c0.1-0.3,0-0.6-0.2-0.9c-0.1-0.2-0.4-0.3-0.7-0.3c-0.2,0-0.4,0.1-0.6,0.2
		c-0.2,0.1-0.3,0.3-0.5,0.5V27L58.6,26.9z"/>
	<path class="st0" d="M68.5,21.9c0.3,0,0.5,0.1,0.8,0.1c0.3,0.1,0.5,0.2,0.7,0.4c0.2,0.2,0.3,0.4,0.4,0.7c0.1,0.3,0.1,0.6,0.1,0.9
		c0,0.1,0,0.2-0.1,0.3c-0.1,0.1-0.1,0.1-0.2,0.1h-3.3c0,0.3,0.1,0.5,0.1,0.8c0.1,0.2,0.2,0.4,0.3,0.6c0.1,0.1,0.3,0.3,0.5,0.3
		c0.2,0.1,0.5,0.1,0.7,0.1s0.4,0,0.5-0.1s0.3-0.1,0.4-0.2s0.2-0.1,0.3-0.2c0.1-0.1,0.2-0.1,0.3-0.1c0,0,0.1,0,0.1,0.1l0.2,0.3
		c-0.1,0.1-0.2,0.3-0.3,0.3c-0.1,0.1-0.3,0.1-0.5,0.2L69,26.7c-0.2,0.1-0.3,0.1-0.5,0.1c-0.3,0-0.7-0.1-0.9-0.2
		c-0.3-0.1-0.5-0.3-0.8-0.5c-0.2-0.2-0.4-0.5-0.5-0.8s-0.2-0.7-0.2-1.1c0-0.3,0.1-0.7,0.2-0.9c0.1-0.3,0.3-0.5,0.5-0.8
		c0.2-0.2,0.5-0.4,0.7-0.5C67.9,22,68.2,21.9,68.5,21.9z M68.5,22.5c-0.3,0-0.7,0.1-1,0.3c-0.3,0.3-0.4,0.6-0.5,1h2.7
		c0-0.2-0.1-0.4-0.1-0.5c-0.1-0.1-0.1-0.3-0.2-0.5c-0.1-0.1-0.3-0.3-0.4-0.3C68.9,22.6,68.7,22.5,68.5,22.5z"/>
	<path class="st0" d="M71.6,26.9V22h0.5c0.1,0,0.2,0.1,0.2,0.2l0.1,0.5c0.2-0.2,0.5-0.4,0.7-0.5C73.4,22,73.7,22,74,22
		s0.5,0.1,0.7,0.1c0.2,0.1,0.3,0.2,0.5,0.3c0.1,0.2,0.3,0.4,0.3,0.6c0.1,0.3,0.1,0.5,0.1,0.8V27h-0.9v-3.1c0-0.3-0.1-0.6-0.3-0.9
		c-0.2-0.2-0.5-0.3-0.8-0.3s-0.5,0.1-0.7,0.1c-0.3,0.1-0.5,0.3-0.7,0.5v3.6L71.6,26.9z"/>
	<path class="st0" d="M78.4,27c-0.3,0.1-0.7-0.1-0.9-0.3c-0.2-0.3-0.3-0.6-0.3-0.9v-3h-0.6c-0.1,0-0.1,0-0.1-0.1
		c-0.1-0.1-0.1-0.1-0.1-0.1v-0.3l0.8-0.1l0.2-1.5c0-0.1,0.1-0.1,0.1-0.1c0.1,0,0.1-0.1,0.1-0.1H78v1.7h1.4v0.7H78v2.9
		c0,0.1,0.1,0.3,0.1,0.5c0.1,0.1,0.3,0.1,0.4,0.1s0.2,0,0.2-0.1c0.1,0,0.1-0.1,0.1-0.1l0.1-0.1C79,26.1,79,26,79,26l0.1,0.1l0.3,0.4
		c-0.1,0.1-0.3,0.3-0.5,0.3C78.9,26.9,78.7,27,78.4,27z"/>
	<path class="st0" d="M80.3,26.3c0-0.1,0-0.1,0.1-0.2s0.1-0.1,0.1-0.2c0.1-0.1,0.1-0.1,0.2-0.1c0.1-0.1,0.1-0.1,0.2-0.1
		s0.2,0,0.2,0.1c0.1,0,0.1,0.1,0.2,0.1c0.1,0.1,0.1,0.1,0.1,0.2c0.1,0.1,0.1,0.3,0,0.5c0,0.1-0.1,0.1-0.1,0.2
		c-0.1,0.1-0.1,0.1-0.2,0.1C81,27,80.9,27,80.9,27c-0.1,0-0.1,0-0.2-0.1s-0.1-0.1-0.2-0.1c-0.1-0.1-0.1-0.1-0.1-0.2
		C80.3,26.5,80.3,26.4,80.3,26.3z"/>
	<path class="st0" d="M88,26.9h-0.4c-0.1,0-0.1,0-0.2-0.1s-0.1-0.1-0.1-0.2l-0.1-0.5c-0.1,0.1-0.3,0.2-0.3,0.3
		c-0.1,0.1-0.3,0.2-0.4,0.2c-0.1,0.1-0.3,0.1-0.5,0.1c-0.1,0.1-0.3,0.1-0.5,0.1s-0.3-0.1-0.5-0.1c-0.1-0.1-0.3-0.1-0.4-0.2
		s-0.3-0.3-0.3-0.4c-0.1-0.2-0.1-0.4-0.1-0.6s0.1-0.4,0.2-0.5c0.1-0.2,0.3-0.3,0.5-0.5c0.3-0.1,0.6-0.3,0.9-0.3
		c0.5-0.1,0.9-0.1,1.4-0.1v-0.3c0.1-0.3-0.1-0.6-0.2-0.9c-0.2-0.2-0.5-0.3-0.7-0.3s-0.4,0.1-0.5,0.1c-0.1,0.1-0.3,0.1-0.3,0.2
		c-0.1,0.1-0.2,0.1-0.3,0.2s-0.1,0.1-0.2,0.1s-0.1,0-0.1-0.1L84.8,23l-0.2-0.3c0.3-0.3,0.5-0.5,0.9-0.6c0.3-0.1,0.7-0.2,1.1-0.2
		c0.3,0,0.5,0.1,0.7,0.1c0.2,0.1,0.4,0.2,0.5,0.3c0.1,0.2,0.3,0.4,0.3,0.6c0.1,0.3,0.1,0.5,0.1,0.8L88,26.9z M85.7,26.3
		c0.1,0,0.3,0,0.4-0.1s0.2-0.1,0.3-0.1c0.1-0.1,0.2-0.1,0.3-0.2c0.1-0.1,0.2-0.2,0.3-0.3v-1c-0.3,0-0.7,0-1,0.1
		c-0.2,0.1-0.5,0.1-0.7,0.2C85.2,25,85,25,85,25.2c-0.1,0.1-0.1,0.2-0.1,0.3c0,0.1,0,0.2,0.1,0.3c0,0.1,0.1,0.2,0.2,0.2
		c0.1,0.1,0.2,0.1,0.3,0.1C85.5,26.3,85.6,26.3,85.7,26.3L85.7,26.3z"/>
	<path class="st0" d="M92.7,22.8C92.7,22.9,92.6,22.9,92.7,22.8c-0.1,0.1-0.1,0.1-0.1,0.1c-0.1,0-0.1-0.1-0.2-0.1
		c-0.1-0.1-0.1-0.1-0.2-0.1c-0.1-0.1-0.2-0.1-0.3-0.1c-0.3-0.1-0.7-0.1-1.1,0.1c-0.2,0.1-0.3,0.2-0.5,0.3c-0.1,0.2-0.2,0.4-0.3,0.6
		c-0.1,0.3-0.1,0.5-0.1,0.8S90,25,90,25.3c0.1,0.2,0.1,0.4,0.3,0.6c0.1,0.1,0.3,0.3,0.5,0.3c0.2,0.1,0.4,0.1,0.6,0.1s0.3,0,0.5-0.1
		c0.1-0.1,0.3-0.1,0.3-0.2c0.1-0.1,0.1-0.1,0.2-0.2s0.1-0.1,0.2-0.1s0.1,0.1,0.2,0.1l0.2,0.3c-0.2,0.3-0.5,0.5-0.8,0.6
		s-0.7,0.2-1,0.2s-0.6-0.1-0.9-0.2s-0.5-0.3-0.7-0.5c-0.2-0.3-0.3-0.5-0.5-0.8c-0.1-0.3-0.1-0.7-0.1-1s0.1-0.7,0.1-1
		c0.1-0.3,0.3-0.5,0.5-0.8c0.2-0.2,0.5-0.4,0.7-0.5c0.3-0.1,0.7-0.2,1-0.2s0.6,0.1,0.9,0.2s0.5,0.3,0.7,0.5L92.7,22.8z"/>
	<path class="st0" d="M97.1,22.8C97.1,22.9,97,22.9,97.1,22.8C97,22.9,97,22.9,97,22.9c-0.1,0-0.1-0.1-0.2-0.1
		c-0.1-0.1-0.1-0.1-0.2-0.1l-0.3-0.1c-0.3-0.1-0.7-0.1-1.1,0.1c-0.2,0.1-0.3,0.2-0.5,0.3c-0.1,0.2-0.2,0.4-0.3,0.6
		c-0.1,0.3-0.1,0.5-0.1,0.8s0.1,0.5,0.1,0.8c0.1,0.2,0.1,0.4,0.3,0.6c0.1,0.1,0.3,0.3,0.5,0.3c0.2,0.1,0.4,0.1,0.6,0.1
		s0.3,0,0.5-0.1c0.1-0.1,0.3-0.1,0.4-0.2s0.1-0.1,0.2-0.2s0.1-0.1,0.2-0.1s0.1,0.1,0.2,0.1l0.2,0.3c-0.2,0.3-0.5,0.5-0.8,0.6
		s-0.7,0.2-1,0.2s-0.6-0.1-0.9-0.2s-0.5-0.3-0.7-0.5c-0.2-0.3-0.3-0.5-0.5-0.8c-0.1-0.3-0.2-0.7-0.2-1.1s0.1-0.7,0.1-1
		c0.1-0.3,0.3-0.5,0.5-0.8c0.2-0.2,0.5-0.4,0.7-0.5c0.3-0.1,0.7-0.2,1-0.2s0.6,0.1,0.9,0.2s0.5,0.3,0.7,0.5L97.1,22.8z"/>
	<path class="st0" d="M100.2,21.9c0.3,0,0.5,0.1,0.8,0.1c0.3,0.1,0.5,0.2,0.6,0.4c0.2,0.2,0.3,0.4,0.4,0.7c0.1,0.3,0.1,0.6,0.1,0.9
		c0,0.1,0,0.2-0.1,0.3c-0.1,0.1-0.1,0.1-0.2,0.1h-3.2c0,0.3,0.1,0.5,0.1,0.8c0.1,0.2,0.1,0.4,0.3,0.6c0.1,0.1,0.3,0.3,0.5,0.3
		c0.2,0.1,0.4,0.1,0.6,0.1s0.4,0,0.5-0.1s0.3-0.1,0.4-0.2s0.2-0.1,0.3-0.2c0.1-0.1,0.1-0.1,0.2-0.1s0.1,0.1,0.2,0.1l0.2,0.3
		c-0.1,0.1-0.2,0.3-0.3,0.3c-0.3,0.2-0.7,0.3-1,0.3c-0.2,0.1-0.3,0.1-0.5,0.1c-0.3,0-0.7-0.1-0.9-0.2c-0.3-0.1-0.5-0.3-0.7-0.5
		c-0.2-0.3-0.4-0.5-0.5-0.8s-0.2-0.7-0.2-1.1c0-0.3,0.1-0.7,0.2-0.9c0.1-0.3,0.3-0.5,0.5-0.8c0.2-0.2,0.5-0.4,0.7-0.5
		C99.5,22,99.9,21.9,100.2,21.9z M100.2,22.5c-0.4,0-0.7,0.1-1,0.3c-0.3,0.3-0.4,0.6-0.5,1h2.7c0-0.2-0.1-0.4-0.1-0.5
		c-0.1-0.1-0.1-0.3-0.2-0.5c-0.1-0.1-0.3-0.3-0.4-0.3C100.6,22.6,100.4,22.5,100.2,22.5L100.2,22.5z"/>
	<path class="st0" d="M104.2,19.8V27h-0.9v-7.2H104.2z"/>
	<path class="st0" d="M107.7,21.9c0.3,0,0.5,0.1,0.8,0.1c0.3,0.1,0.5,0.2,0.7,0.4c0.2,0.2,0.3,0.4,0.4,0.7c0.1,0.3,0.1,0.6,0.1,0.9
		c0,0.1,0,0.2-0.1,0.3c-0.1,0.1-0.1,0.1-0.2,0.1h-3.3c0,0.3,0.1,0.5,0.1,0.8c0.1,0.2,0.1,0.4,0.3,0.6c0.1,0.1,0.3,0.3,0.5,0.3
		s0.4,0.1,0.6,0.1s0.4,0,0.5-0.1s0.3-0.1,0.4-0.2s0.2-0.1,0.3-0.2c0.1-0.1,0.1-0.1,0.2-0.1s0.1,0.1,0.2,0.1l0.2,0.3
		c-0.1,0.1-0.3,0.3-0.4,0.3c-0.1,0.1-0.3,0.2-0.5,0.2l-0.5,0.1c-0.2,0.1-0.3,0.1-0.5,0.1c-0.3,0-0.7-0.1-0.9-0.2
		c-0.3-0.1-0.5-0.3-0.7-0.5c-0.2-0.3-0.3-0.5-0.5-0.8c-0.1-0.3-0.2-0.7-0.2-1.1c0-0.3,0.1-0.7,0.1-0.9c0.1-0.3,0.3-0.5,0.5-0.8
		c0.2-0.2,0.5-0.4,0.7-0.5C107,22,107.3,21.9,107.7,21.9z M107.7,22.5c-0.4,0-0.7,0.1-1,0.3c-0.3,0.3-0.4,0.6-0.5,1h2.7
		c0-0.2-0.1-0.4-0.1-0.5c-0.1-0.1-0.1-0.3-0.2-0.5c-0.1-0.1-0.3-0.3-0.4-0.3C108,22.6,107.8,22.5,107.7,22.5L107.7,22.5z"/>
	<path class="st0" d="M110.7,26.9V22h0.5c0.1,0,0.1,0,0.2,0.1s0.1,0.1,0.1,0.2l0.1,0.8c0.1-0.3,0.3-0.6,0.6-0.8
		c0.3-0.2,0.5-0.3,0.9-0.3c0.1,0,0.3,0,0.3,0.1l0.3,0.1l-0.1,0.7c0,0.1-0.1,0.1-0.1,0.1c-0.1,0-0.2-0.1-0.3-0.1
		c-0.1-0.1-0.3-0.1-0.4-0.1c-0.3,0-0.5,0.1-0.8,0.3c-0.2,0.2-0.4,0.5-0.5,0.8V27L110.7,26.9L110.7,26.9z"/>
	<path class="st0" d="M118,26.9h-0.3c-0.1,0-0.1,0-0.2-0.1s-0.1-0.1-0.1-0.2l-0.1-0.5c-0.1,0.1-0.2,0.2-0.4,0.3
		c-0.1,0.1-0.3,0.2-0.4,0.2c-0.1,0.1-0.3,0.1-0.4,0.1c-0.1,0.1-0.3,0.1-0.5,0.1s-0.3-0.1-0.5-0.1c-0.1-0.1-0.3-0.1-0.4-0.2
		s-0.3-0.3-0.3-0.4c-0.1-0.2-0.1-0.4-0.1-0.6s0.1-0.4,0.2-0.5c0.1-0.2,0.3-0.3,0.5-0.5c0.3-0.1,0.6-0.3,0.9-0.3
		c0.5-0.1,0.9-0.1,1.4-0.1v-0.3c0.1-0.3-0.1-0.6-0.2-0.9c-0.2-0.2-0.5-0.3-0.7-0.3s-0.4,0.1-0.5,0.1c-0.1,0.1-0.3,0.1-0.3,0.2
		l-0.3,0.2c-0.1,0.1-0.1,0.1-0.2,0.1s-0.1,0-0.1-0.1c-0.1-0.1-0.1-0.1-0.1-0.1l-0.1-0.3c0.3-0.3,0.5-0.5,0.9-0.6
		c0.3-0.1,0.7-0.2,1.1-0.2c0.3,0,0.5,0.1,0.7,0.1c0.2,0.1,0.4,0.2,0.5,0.3c0.1,0.2,0.3,0.4,0.3,0.6c0.1,0.3,0.1,0.5,0.1,0.8v3.1
		L118,26.9z M115.8,26.3c0.1,0,0.3,0,0.4-0.1s0.2-0.1,0.4-0.1c0.1-0.1,0.2-0.1,0.3-0.2l0.3-0.3v-1c-0.3,0-0.7,0-1,0.1
		c-0.2,0.1-0.5,0.1-0.7,0.2c-0.1,0.1-0.3,0.1-0.4,0.3c-0.1,0.1-0.1,0.2-0.1,0.3c0,0.1,0,0.2,0.1,0.3c0.1,0.1,0.1,0.2,0.2,0.2
		c0.1,0.1,0.2,0.1,0.3,0.1C115.6,26.3,115.7,26.3,115.8,26.3L115.8,26.3z"/>
	<path class="st0" d="M120.8,27c-0.3,0-0.7-0.1-0.9-0.3s-0.3-0.6-0.3-0.9v-3H119c-0.1,0-0.1,0-0.1-0.1s-0.1-0.1-0.1-0.1v-0.3
		l0.8-0.1l0.2-1.5c0-0.1,0.1-0.1,0.1-0.1c0.1,0,0.1-0.1,0.1-0.1h0.5v1.7h1.4v0.7h-1.4v2.9c0,0.1,0.1,0.3,0.1,0.5
		c0.1,0.1,0.3,0.1,0.4,0.1s0.1,0,0.2-0.1c0.1,0,0.1-0.1,0.2-0.1l0.1-0.1c0.1,0,0.1-0.1,0.1-0.1l0.1,0.1l0.2,0.4
		c-0.1,0.1-0.3,0.3-0.5,0.3C121.3,26.9,121.1,27,120.8,27z"/>
	<path class="st0" d="M124.9,21.9c0.3,0,0.5,0.1,0.8,0.1c0.3,0.1,0.5,0.2,0.6,0.4c0.2,0.2,0.3,0.4,0.4,0.7c0.1,0.3,0.1,0.6,0.1,0.9
		c0,0.1,0,0.2-0.1,0.3c-0.1,0.1-0.1,0.1-0.2,0.1h-3.3c0,0.3,0.1,0.5,0.1,0.8c0.1,0.2,0.2,0.4,0.3,0.6c0.1,0.1,0.3,0.3,0.5,0.3
		c0.2,0.1,0.5,0.1,0.7,0.1s0.4,0,0.5-0.1s0.3-0.1,0.4-0.2s0.2-0.1,0.3-0.2c0.1-0.1,0.1-0.1,0.2-0.1s0.1,0.1,0.2,0.1l0.2,0.3
		c-0.1,0.1-0.2,0.3-0.3,0.3c-0.1,0.1-0.3,0.1-0.5,0.2l-0.5,0.1c-0.2,0.1-0.3,0.1-0.5,0.1c-0.3,0-0.7-0.1-0.9-0.2
		c-0.3-0.1-0.5-0.3-0.7-0.5c-0.2-0.3-0.4-0.5-0.5-0.8s-0.2-0.7-0.2-1.1c0-0.3,0.1-0.7,0.2-0.9c0.1-0.3,0.3-0.5,0.5-0.8
		c0.2-0.2,0.5-0.4,0.7-0.5C124.1,22,124.5,21.9,124.9,21.9z M124.9,22.5c-0.4,0-0.7,0.1-1,0.3c-0.3,0.3-0.4,0.6-0.5,1h2.7
		c0-0.2-0.1-0.4-0.1-0.5c-0.1-0.1-0.1-0.3-0.2-0.5c-0.1-0.1-0.3-0.3-0.4-0.3C125.2,22.6,125,22.5,124.9,22.5L124.9,22.5z"/>
	<path class="st0" d="M131.4,26.9c-0.1,0-0.2-0.1-0.2-0.2l-0.1-0.6c-0.2,0.3-0.5,0.5-0.7,0.6c-0.3,0.1-0.6,0.2-0.9,0.2
		c-0.3,0-0.5-0.1-0.8-0.2s-0.5-0.3-0.6-0.5c-0.2-0.2-0.3-0.5-0.3-0.8c-0.1-0.3-0.1-0.7-0.1-1.1s0.1-0.7,0.1-1
		c0.1-0.3,0.2-0.6,0.4-0.8c0.2-0.2,0.4-0.4,0.7-0.5s0.6-0.2,0.9-0.2c0.3,0,0.5,0.1,0.8,0.1c0.2,0.1,0.4,0.2,0.5,0.4v-2.7h0.9v7.2
		L131.4,26.9L131.4,26.9z M129.7,26.2c0.3,0,0.5-0.1,0.7-0.2s0.4-0.3,0.6-0.5v-2.3c-0.1-0.2-0.3-0.3-0.5-0.5
		c-0.2-0.1-0.4-0.1-0.6-0.1c-0.4,0-0.8,0.1-1.1,0.5s-0.4,0.9-0.3,1.4c0,0.3,0.1,0.5,0.1,0.8c0.1,0.2,0.1,0.4,0.2,0.5
		c0.1,0.1,0.3,0.3,0.4,0.3C129.4,26.2,129.6,26.3,129.7,26.2L129.7,26.2z"/>
	<path class="st0" d="M133,26.3c0-0.1,0-0.1,0.1-0.2s0.1-0.1,0.1-0.2c0.1-0.1,0.1-0.1,0.2-0.1c0.1-0.1,0.1-0.1,0.2-0.1
		c0.1,0,0.1,0,0.2,0.1c0.1,0.1,0.1,0.1,0.2,0.1c0.1,0.1,0.1,0.1,0.1,0.2c0.1,0.1,0.1,0.3,0,0.5c0,0.1-0.1,0.1-0.1,0.2
		c-0.1,0.1-0.1,0.1-0.2,0.1c-0.1,0.1-0.1,0.1-0.2,0.1c-0.1,0-0.2,0-0.2-0.1c-0.1-0.1-0.1-0.1-0.2-0.1c-0.1-0.1-0.1-0.1-0.1-0.2
		C133,26.5,133,26.4,133,26.3z"/>
</g>
</svg>
