<?xml version="1.0" encoding="UTF-8"?>
<svg id="Layer_1" data-name="Layer 1" xmlns="http://www.w3.org/2000/svg" viewBox="0 0 80 80">
  <path d="m64.5,63.68c-.27,0-.52-.15-.64-.41L40.33,10.96l-23.52,52.31c-.16.35-.57.51-.93.35-.35-.16-.51-.57-.35-.93L39.69,8.96c.23-.5,1.05-.5,1.28,0l24.17,53.73c.16.35,0,.77-.35.93-.09.04-.19.06-.29.06Z"/>
  <path d="m40.34,71.45c-.39,0-.73-.31-.73-.7s.28-.7.67-.7h.07c1.04,0,2.07-.02,3.08-.06.39-.02.71.29.73.67.01.39-.29.71-.67.73-1.03.04-2.07.06-3.13.06Zm-3.18-.06s-.02,0-.03,0c-1.07-.04-2.11-.1-3.13-.18-.38-.03-.67-.37-.64-.75.03-.38.35-.65.75-.64,1,.08,2.03.14,3.07.18.39.01.69.34.67.73-.01.38-.32.67-.7.67Zm9.38-.18c-.36,0-.67-.28-.7-.65-.03-.39.26-.72.64-.75,1.04-.08,2.07-.18,3.06-.31.39-.04.73.23.78.61.05.38-.23.73-.61.78-1.02.12-2.07.23-3.12.31-.02,0-.04,0-.06,0Zm-15.58-.32s-.06,0-.09,0c-1.07-.13-2.12-.29-3.11-.46-.38-.07-.63-.43-.57-.81.07-.38.44-.63.81-.57.97.17,1.99.32,3.04.45.38.05.66.4.61.78-.04.35-.34.61-.69.61Zm21.75-.45c-.33,0-.63-.24-.69-.58-.07-.38.19-.74.57-.81,1.04-.18,2.05-.39,3-.62.36-.09.75.14.84.51.09.38-.14.75-.51.84-.98.24-2.02.45-3.09.64-.04,0-.08.01-.12.01Zm-27.86-.65c-.06,0-.11,0-.17-.02-1.09-.27-2.12-.57-3.05-.89-.37-.13-.56-.53-.43-.89s.53-.56.89-.43c.88.31,1.87.59,2.92.85.38.09.61.47.51.85-.08.32-.36.53-.68.53Zm33.89-.85c-.29,0-.56-.18-.66-.47-.13-.37.07-.76.43-.89,1.06-.36,1.98-.76,2.75-1.18.34-.19.76-.06.95.28.18.34.06.76-.28.95-.83.45-1.83.88-2.96,1.27-.08.03-.15.04-.23.04Zm-39.72-1.25c-.11,0-.23-.03-.34-.09-1.22-.67-2.1-1.4-2.62-2.17-.22-.32-.13-.75.19-.97.32-.22.76-.13.97.19.4.59,1.12,1.17,2.14,1.73.34.19.46.61.28.95-.13.23-.37.36-.61.36Zm44.98-1.89c-.14,0-.28-.04-.4-.13-.32-.22-.39-.66-.17-.98.25-.35.38-.7.38-1.04,0-.33-.12-.68-.36-1.02-.22-.32-.14-.75.18-.97.32-.22.75-.14.97.18.41.58.61,1.2.61,1.82,0,.64-.21,1.26-.63,1.85-.14.19-.35.3-.57.3Zm-47.3-2.93c-.14,0-.29-.04-.41-.13-.31-.23-.38-.66-.16-.98.54-.75,1.44-1.47,2.65-2.12.34-.18.76-.05.95.28.18.34.06.76-.28.95-1.02.55-1.75,1.13-2.18,1.71-.14.19-.35.29-.57.29Zm44.93-1.88c-.11,0-.23-.03-.33-.09-.77-.42-1.69-.81-2.75-1.18-.37-.13-.56-.53-.43-.89.13-.37.53-.56.89-.43,1.13.39,2.12.82,2.96,1.27.34.18.46.61.28.95-.13.23-.37.37-.62.37Zm-39.66-1.25c-.29,0-.56-.18-.66-.47-.12-.37.07-.76.44-.89.93-.32,1.96-.62,3.05-.88.38-.09.75.14.85.52.09.38-.14.75-.52.85-1.05.25-2.03.54-2.92.84-.08.03-.15.04-.23.04Zm33.83-.85c-.06,0-.11,0-.17-.02-.94-.23-1.95-.44-3-.62-.38-.07-.64-.43-.57-.81.07-.38.43-.64.81-.57,1.08.19,2.12.41,3.09.64.38.09.61.47.51.85-.08.32-.36.53-.68.53Zm-27.8-.65c-.33,0-.63-.24-.69-.58-.07-.38.19-.74.57-.81.98-.17,2.03-.33,3.11-.46.39-.04.73.23.78.61.05.38-.23.73-.61.78-1.06.13-2.08.28-3.04.45-.04,0-.08.01-.12.01Zm21.68-.45s-.06,0-.09,0c-.99-.12-2.02-.22-3.06-.31-.39-.03-.67-.37-.64-.75.03-.38.38-.66.75-.64,1.06.08,2.12.19,3.12.31.38.05.66.4.61.78-.04.35-.34.61-.69.61Zm-15.51-.31c-.36,0-.67-.28-.7-.65-.03-.39.26-.72.64-.75,1.02-.08,2.06-.14,3.13-.18.42-.03.71.29.72.67.01.39-.29.71-.67.72-1.05.04-2.07.1-3.07.18-.02,0-.04,0-.06,0Zm9.32-.17s-.02,0-.03,0c-1.01-.04-2.04-.06-3.08-.06-.39,0-.7-.31-.7-.7s.31-.7.7-.7c1.06,0,2.11.02,3.13.06.39.01.69.34.67.73-.01.38-.32.67-.7.67Z"/>
  <path d="m23.2,50.04h-12.09c-.39,0-.7-.31-.7-.7s.31-.7.7-.7h12.09c.39,0,.7.31.7.7s-.31.7-.7.7Z"/>
  <path d="m32.2,27.68H11.11c-.39,0-.7-.31-.7-.7s.31-.7.7-.7h21.1c.39,0,.7.31.7.7s-.31.7-.7.7Z"/>
  <path d="m11.11,31.12c-.39,0-.7-.31-.7-.7v-6.8c0-.39.31-.7.7-.7s.7.31.7.7v6.8c0,.39-.31.7-.7.7Z"/>
  <path d="m11.11,53.44c-.39,0-.7-.31-.7-.7v-6.8c0-.39.31-.7.7-.7s.7.31.7.7v6.8c0,.39-.31.7-.7.7Z"/>
  <path d="m68.89,50.04h-12.09c-.39,0-.7-.31-.7-.7s.31-.7.7-.7h12.09c.39,0,.7.31.7.7s-.31.7-.7.7Z"/>
  <path d="m68.89,27.68h-21.1c-.39,0-.7-.31-.7-.7s.31-.7.7-.7h21.1c.39,0,.7.31.7.7s-.31.7-.7.7Z"/>
  <path d="m68.89,31.12c-.39,0-.7-.31-.7-.7v-6.8c0-.39.31-.7.7-.7s.7.31.7.7v6.8c0,.39-.31.7-.7.7Z"/>
  <path d="m68.89,53.44c-.39,0-.7-.31-.7-.7v-6.8c0-.39.31-.7.7-.7s.7.31.7.7v6.8c0,.39-.31.7-.7.7Z"/>
  <path d="m58.42,50.16H22.26c-.29,0-.55-.18-.66-.46-.1-.27-.02-.58.2-.77l17.58-15.24-7.23-6.34c-.22-.19-.3-.5-.19-.77.1-.27.36-.45.66-.45h15.76c.29,0,.55.18.66.46.1.27.02.58-.2.77l-7.32,6.35,17.37,15.24c.22.19.3.5.19.77-.1.27-.36.45-.66.45Zm-34.28-1.4h32.42l-16.12-14.14-16.3,14.14Zm10.33-21.24l5.98,5.25,6.05-5.25h-12.03Z"/>
</svg>