<svg width="100" height="100" viewBox="0 0 100 100" fill="none" xmlns="http://www.w3.org/2000/svg">
<g clip-path="url(#clip0_43203_31799)">
<mask id="mask0_43203_31799" style="mask-type:alpha" maskUnits="userSpaceOnUse" x="0" y="0" width="100" height="100">
<path d="M50 100C77.6142 100 100 77.6142 100 50C100 22.3858 77.6142 0 50 0C22.3858 0 0 22.3858 0 50C0 77.6142 22.3858 100 50 100Z" fill="#D9D9D9"/>
</mask>
<g mask="url(#mask0_43203_31799)">
<g filter="url(#filter0_f_43203_31799)">
<path d="M27.3941 243.76C60.9534 224.384 72.4517 181.472 53.0762 147.913C33.7008 114.353 -9.21136 102.855 -42.7707 122.231C-76.33 141.606 -87.8282 184.518 -68.4528 218.077C-49.0773 251.637 -6.16517 263.135 27.3941 243.76Z" fill="#00FFD3"/>
</g>
<g filter="url(#filter1_f_43203_31799)">
<path d="M178.328 12.3851C232.381 106.006 200.304 225.719 106.682 279.771C13.0611 333.824 -106.652 301.747 -160.704 208.126C-214.756 114.504 -182.679 -5.20858 -89.058 -59.2608C4.56317 -113.313 124.276 -81.2361 178.328 12.3851Z" fill="#00F6FF"/>
</g>
<g filter="url(#filter2_f_43203_31799)">
<path d="M142.4 84.6802C178.63 63.7631 191.082 17.5039 170.212 -18.6425C149.343 -54.789 103.056 -67.1348 66.8261 -46.2176C30.5965 -25.3004 18.1444 20.9587 39.0136 57.1052C59.8827 93.2516 106.17 105.597 142.4 84.6802Z" fill="#C3A6FF"/>
</g>
<g filter="url(#filter3_f_43203_31799)">
<path d="M155.928 256.453C190.636 236.414 202.528 192.033 182.489 157.324C162.45 122.616 118.069 110.724 83.3604 130.763C48.652 150.802 36.76 195.183 56.7989 229.892C76.8378 264.6 121.219 276.492 155.928 256.453Z" fill="#00FFD3"/>
</g>
</g>
<g clip-path="url(#clip1_43203_31799)">
<g clip-path="url(#clip2_43203_31799)">
<path d="M60.34 48.5499C55.67 48.5499 52.09 47.2699 49.69 44.7499C46.4 41.2799 46.59 36.7699 46.6 36.5699V24.4299C46.6 24.0999 46.87 23.8299 47.2 23.8299H54.24C54.57 23.8299 54.84 24.0999 54.84 24.4299C54.84 24.7599 54.57 25.0299 54.24 25.0299H47.8V36.6099C47.8 36.6799 47.63 40.8499 50.57 43.9399C52.73 46.2099 56.02 47.3599 60.34 47.3599C63.49 47.3599 66.02 46.4199 67.87 44.5599C71.25 41.1499 71.24 35.7399 71.24 35.6799V25.0199H64.9C64.57 25.0199 64.3 24.7499 64.3 24.4199C64.3 24.0899 64.57 23.8199 64.9 23.8199H71.84C72.17 23.8199 72.44 24.0899 72.44 24.4199V35.6599C72.44 35.8999 72.46 41.6099 68.73 45.3799C66.65 47.4799 63.83 48.5499 60.35 48.5499H60.34Z" fill="black"/>
<path d="M60.27 50.05C59.94 50.05 59.67 49.78 59.67 49.45V47.95C59.67 47.62 59.94 47.35 60.27 47.35C60.6 47.35 60.87 47.62 60.87 47.95V49.45C60.87 49.78 60.6 50.05 60.27 50.05Z" fill="black"/>
<path d="M49.18 76.17C48.39 76.17 47.61 76.13 46.89 76.06C46.56 76.03 46.32 75.73 46.35 75.4C46.38 75.07 46.68 74.83 47.01 74.86C47.9 74.95 48.85 74.98 49.85 74.96C50.22 74.94 50.46 75.21 50.47 75.54C50.47 75.87 50.22 76.15 49.89 76.16C49.65 76.16 49.42 76.16 49.19 76.16L49.18 76.17ZM52.74 75.79C52.47 75.79 52.23 75.61 52.16 75.34C52.08 75.02 52.27 74.69 52.6 74.61C53.52 74.38 54.37 74.03 55.12 73.57C55.4 73.4 55.77 73.49 55.94 73.77C56.11 74.05 56.02 74.42 55.74 74.59C54.89 75.11 53.93 75.5 52.89 75.76C52.84 75.77 52.79 75.78 52.74 75.78V75.79ZM44.09 75.52C44.03 75.52 43.98 75.52 43.92 75.49C42.89 75.18 41.94 74.76 41.12 74.25C40.84 74.07 40.75 73.7 40.93 73.42C41.1 73.14 41.48 73.05 41.76 73.23C42.49 73.69 43.34 74.06 44.27 74.34C44.59 74.43 44.77 74.77 44.67 75.09C44.59 75.35 44.35 75.52 44.09 75.52ZM57.62 72.8C57.48 72.8 57.35 72.75 57.24 72.66C56.99 72.45 56.95 72.07 57.16 71.82C57.72 71.15 58.2 70.36 58.59 69.49C58.72 69.19 59.08 69.05 59.38 69.18C59.68 69.31 59.82 69.67 59.69 69.97C59.26 70.95 58.72 71.83 58.08 72.59C57.96 72.73 57.79 72.8 57.62 72.8ZM39.27 72.42C39.09 72.42 38.92 72.34 38.8 72.19C38.18 71.4 37.67 70.49 37.31 69.48C37.2 69.17 37.36 68.82 37.67 68.71C37.98 68.59 38.33 68.76 38.44 69.07C38.76 69.96 39.2 70.76 39.75 71.44C39.96 71.7 39.91 72.08 39.65 72.28C39.54 72.37 39.41 72.41 39.28 72.41L39.27 72.42ZM60 67.54C60 67.54 59.92 67.54 59.88 67.53C59.55 67.47 59.34 67.15 59.41 66.82C59.65 65.62 59.67 64.69 59.67 64.35V64.03C59.67 63.7 59.94 63.43 60.27 63.43C60.6 63.43 60.87 63.7 60.87 64.03V64.35C60.87 64.73 60.84 65.76 60.59 67.06C60.53 67.35 60.28 67.54 60 67.54ZM60.27 61.72C59.94 61.72 59.67 61.45 59.67 61.12V58.2C59.67 57.87 59.94 57.6 60.27 57.6C60.6 57.6 60.87 57.87 60.87 58.2V61.12C60.87 61.45 60.6 61.72 60.27 61.72ZM60.27 55.89C59.94 55.89 59.67 55.62 59.67 55.29V52.37C59.67 52.04 59.94 51.77 60.27 51.77C60.6 51.77 60.87 52.04 60.87 52.37V55.29C60.87 55.62 60.6 55.89 60.27 55.89Z" fill="black"/>
<path d="M37.21 66.9999C36.91 66.9999 36.65 66.7699 36.61 66.4699C36.56 65.9799 36.52 65.4599 36.51 64.9199C36.51 64.5899 36.77 64.3099 37.1 64.3099C37.42 64.3299 37.71 64.5699 37.71 64.8999C37.72 65.3899 37.75 65.8699 37.8 66.3399C37.84 66.6699 37.6 66.9599 37.27 66.9999C37.25 66.9999 37.23 66.9999 37.2 66.9999H37.21Z" fill="black"/>
<path d="M37.12 64.97C31.85 64.97 27.56 60.68 27.56 55.41C27.56 50.14 31.85 45.85 37.12 45.85C42.39 45.85 46.68 50.14 46.68 55.41C46.68 60.68 42.39 64.97 37.12 64.97ZM37.12 47.05C32.51 47.05 28.76 50.8 28.76 55.41C28.76 60.02 32.51 63.77 37.12 63.77C41.73 63.77 45.48 60.02 45.48 55.41C45.48 50.8 41.73 47.05 37.12 47.05Z" fill="black"/>
<path d="M38.8 34.55H29.84C29.51 34.55 29.24 34.28 29.24 33.95C29.24 33.62 29.51 33.35 29.84 33.35H38.8C39.13 33.35 39.4 33.62 39.4 33.95C39.4 34.28 39.13 34.55 38.8 34.55Z" fill="black"/>
<path d="M34.32 39.03C33.99 39.03 33.72 38.76 33.72 38.43V29.47C33.72 29.14 33.99 28.87 34.32 28.87C34.65 28.87 34.92 29.14 34.92 29.47V38.43C34.92 38.76 34.65 39.03 34.32 39.03Z" fill="black"/>
</g>
</g>
</g>
<defs>
<filter id="filter0_f_43203_31799" x="-282.293" y="-91.6094" width="549.209" height="549.209" filterUnits="userSpaceOnUse" color-interpolation-filters="sRGB">
<feFlood flood-opacity="0" result="BackgroundImageFix"/>
<feBlend mode="normal" in="SourceGraphic" in2="BackgroundImageFix" result="shape"/>
<feGaussianBlur stdDeviation="102.214" result="effect1_foregroundBlur_43203_31799"/>
</filter>
<filter id="filter1_f_43203_31799" x="-369.886" y="-268.443" width="757.396" height="757.396" filterUnits="userSpaceOnUse" color-interpolation-filters="sRGB">
<feFlood flood-opacity="0" result="BackgroundImageFix"/>
<feBlend mode="normal" in="SourceGraphic" in2="BackgroundImageFix" result="shape"/>
<feGaussianBlur stdDeviation="91.4625" result="effect1_foregroundBlur_43203_31799"/>
</filter>
<filter id="filter2_f_43203_31799" x="-64.6072" y="-149.902" width="338.44" height="338.266" filterUnits="userSpaceOnUse" color-interpolation-filters="sRGB">
<feFlood flood-opacity="0" result="BackgroundImageFix"/>
<feBlend mode="normal" in="SourceGraphic" in2="BackgroundImageFix" result="shape"/>
<feGaussianBlur stdDeviation="46.7516" result="effect1_foregroundBlur_43203_31799"/>
</filter>
<filter id="filter3_f_43203_31799" x="-105.758" y="-31.794" width="450.804" height="450.804" filterUnits="userSpaceOnUse" color-interpolation-filters="sRGB">
<feFlood flood-opacity="0" result="BackgroundImageFix"/>
<feBlend mode="normal" in="SourceGraphic" in2="BackgroundImageFix" result="shape"/>
<feGaussianBlur stdDeviation="76.4113" result="effect1_foregroundBlur_43203_31799"/>
</filter>
<clipPath id="clip0_43203_31799">
<rect width="100" height="100" fill="white"/>
</clipPath>
<clipPath id="clip1_43203_31799">
<rect width="60" height="60" fill="white" transform="translate(20 20)"/>
</clipPath>
<clipPath id="clip2_43203_31799">
<rect width="60" height="60" fill="white" transform="translate(20 20)"/>
</clipPath>
</defs>
</svg>
