<svg width="100" height="100" viewBox="0 0 100 100" fill="none" xmlns="http://www.w3.org/2000/svg">
<g clip-path="url(#clip0_43212_24489)">
<mask id="mask0_43212_24489" style="mask-type:alpha" maskUnits="userSpaceOnUse" x="0" y="0" width="100" height="100">
<path d="M50 100C77.6142 100 100 77.6142 100 50C100 22.3858 77.6142 0 50 0C22.3858 0 0 22.3858 0 50C0 77.6142 22.3858 100 50 100Z" fill="#D9D9D9"/>
</mask>
<g mask="url(#mask0_43212_24489)">
<g filter="url(#filter0_f_43212_24489)">
<path d="M27.3941 243.76C60.9534 224.384 72.4517 181.472 53.0762 147.913C33.7007 114.353 -9.21139 102.855 -42.7707 122.231C-76.33 141.606 -87.8283 184.518 -68.4528 218.077C-49.0773 251.637 -6.1652 263.135 27.3941 243.76Z" fill="#00FFD3"/>
</g>
<g filter="url(#filter1_f_43212_24489)">
<path d="M178.328 12.3851C232.381 106.006 200.304 225.719 106.682 279.771C13.0611 333.824 -106.652 301.747 -160.704 208.126C-214.756 114.504 -182.679 -5.20858 -89.058 -59.2608C4.56315 -113.313 124.276 -81.2361 178.328 12.3851Z" fill="#00F6FF"/>
</g>
<g filter="url(#filter2_f_43212_24489)">
<path d="M142.4 84.6802C178.63 63.7631 191.082 17.5039 170.212 -18.6425C149.343 -54.789 103.056 -67.1348 66.826 -46.2176C30.5965 -25.3004 18.1444 20.9587 39.0136 57.1052C59.8827 93.2516 106.17 105.597 142.4 84.6802Z" fill="#C3A6FF"/>
</g>
<g filter="url(#filter3_f_43212_24489)">
<path d="M155.928 256.453C190.636 236.414 202.528 192.033 182.489 157.324C162.45 122.616 118.069 110.724 83.3604 130.763C48.6519 150.802 36.76 195.183 56.7989 229.892C76.8378 264.6 121.219 276.492 155.928 256.453Z" fill="#00FFD3"/>
</g>
</g>
<g clip-path="url(#clip1_43212_24489)">
<g clip-path="url(#clip2_43212_24489)">
<path d="M37.89 31.33C37.89 31.33 37.86 31.33 37.85 31.33C37.46 31.3 37.08 31.3 36.72 31.32C36.37 31.35 36.11 31.08 36.09 30.75C36.07 30.42 36.33 30.14 36.66 30.12C37.05 30.1 37.48 30.11 37.92 30.14C38.25 30.16 38.5 30.45 38.48 30.78C38.46 31.1 38.2 31.34 37.88 31.34L37.89 31.33Z" fill="black"/>
<path d="M67.7 50.89C67.5 50.89 67.3 50.79 67.19 50.61C66.82 50.02 66.4 49.4 65.92 48.78C65.72 48.52 65.77 48.14 66.04 47.94C66.3 47.74 66.68 47.79 66.88 48.06C67.38 48.71 67.82 49.36 68.21 49.98C68.38 50.26 68.3 50.63 68.02 50.81C67.92 50.87 67.81 50.9 67.7 50.9V50.89ZM64.95 47.24C64.78 47.24 64.62 47.17 64.5 47.03C64.02 46.48 63.51 45.93 62.97 45.38C62.74 45.14 62.74 44.76 62.97 44.53C63.21 44.3 63.59 44.3 63.82 44.53C64.38 45.1 64.9 45.67 65.4 46.23C65.62 46.48 65.59 46.86 65.34 47.08C65.23 47.18 65.09 47.23 64.95 47.23V47.24ZM61.76 43.97C61.61 43.97 61.47 43.92 61.35 43.81C60.81 43.31 60.25 42.81 59.66 42.31C59.41 42.1 59.38 41.72 59.59 41.46C59.81 41.21 60.18 41.18 60.44 41.39C61.04 41.9 61.61 42.41 62.17 42.93C62.41 43.16 62.43 43.53 62.2 43.78C62.08 43.91 61.92 43.97 61.76 43.97ZM58.29 41.01C58.16 41.01 58.03 40.97 57.92 40.88C57.34 40.42 56.73 39.97 56.11 39.52C55.84 39.33 55.78 38.95 55.98 38.68C56.17 38.41 56.55 38.35 56.82 38.55C57.45 39.01 58.07 39.47 58.66 39.94C58.92 40.14 58.97 40.52 58.76 40.78C58.64 40.93 58.47 41.01 58.29 41.01ZM54.59 38.32C54.48 38.32 54.36 38.29 54.26 38.22C53.62 37.79 52.99 37.39 52.36 36.99C52.08 36.82 51.99 36.45 52.16 36.16C52.33 35.88 52.7 35.79 52.99 35.97C53.63 36.37 54.28 36.78 54.93 37.22C55.21 37.4 55.28 37.78 55.09 38.05C54.97 38.22 54.78 38.32 54.59 38.32ZM50.7 35.92C50.6 35.92 50.5 35.9 50.41 35.84C49.74 35.46 49.08 35.11 48.42 34.77C48.13 34.62 48.01 34.26 48.16 33.96C48.31 33.66 48.67 33.55 48.97 33.7C49.64 34.04 50.32 34.41 51.01 34.79C51.3 34.95 51.4 35.32 51.24 35.61C51.13 35.81 50.93 35.92 50.72 35.92H50.7ZM46.63 33.85C46.55 33.85 46.46 33.83 46.38 33.8C45.67 33.48 44.98 33.19 44.3 32.93C43.99 32.81 43.84 32.46 43.95 32.16C44.07 31.85 44.42 31.7 44.73 31.81C45.43 32.08 46.14 32.38 46.87 32.7C47.17 32.84 47.31 33.19 47.17 33.49C47.07 33.71 46.85 33.84 46.62 33.84L46.63 33.85ZM42.36 32.22C42.3 32.22 42.24 32.22 42.18 32.19C41.43 31.96 40.7 31.77 40.02 31.63C39.69 31.56 39.49 31.25 39.55 30.92C39.62 30.59 39.94 30.39 40.26 30.45C40.98 30.6 41.74 30.8 42.53 31.04C42.85 31.14 43.03 31.47 42.93 31.79C42.85 32.05 42.61 32.21 42.36 32.21V32.22Z" fill="black"/>
<path d="M69.21 54.03C68.96 54.03 68.72 53.87 68.64 53.61C68.53 53.27 68.4 52.92 68.24 52.55C68.11 52.25 68.24 51.89 68.55 51.76C68.85 51.63 69.21 51.76 69.34 52.07C69.52 52.47 69.67 52.87 69.79 53.25C69.89 53.57 69.71 53.9 69.4 54C69.34 54.02 69.28 54.03 69.22 54.03H69.21Z" fill="black"/>
<path d="M33.23 37.4901C32.99 37.4901 32.77 37.3501 32.67 37.1201C32.5 36.7101 32.36 36.3001 32.26 35.9201C32.17 35.6001 32.36 35.2701 32.68 35.1801C33 35.0901 33.33 35.2801 33.42 35.6001C33.51 35.9401 33.63 36.3001 33.78 36.6601C33.9 36.9701 33.76 37.3201 33.45 37.4401C33.38 37.4701 33.3 37.4801 33.22 37.4801L33.23 37.4901Z" fill="black"/>
<path d="M40.92 47.2501C40.78 47.2501 40.63 47.2001 40.52 47.1001C39.99 46.6201 39.47 46.1301 38.98 45.6501C38.74 45.4201 38.74 45.0401 38.98 44.8001C39.21 44.5601 39.59 44.5601 39.83 44.8001C40.31 45.2701 40.81 45.7401 41.33 46.2101C41.58 46.4301 41.59 46.8101 41.37 47.0601C41.25 47.1901 41.09 47.2601 40.92 47.2601V47.2501ZM37.95 44.3201C37.79 44.3201 37.63 44.2601 37.51 44.1301C37.01 43.5901 36.55 43.0601 36.11 42.5401C35.9 42.2801 35.94 41.9101 36.19 41.7001C36.44 41.4901 36.82 41.5201 37.03 41.7801C37.45 42.2901 37.9 42.8001 38.38 43.3201C38.61 43.5601 38.59 43.9401 38.35 44.1701C38.23 44.2801 38.09 44.3301 37.94 44.3301L37.95 44.3201ZM35.3 41.1001C35.11 41.1001 34.93 41.0101 34.81 40.8501C34.37 40.2401 33.98 39.6401 33.64 39.0601C33.47 38.7701 33.57 38.4101 33.86 38.2401C34.15 38.0701 34.51 38.1701 34.68 38.4601C35 39.0101 35.37 39.5801 35.79 40.1601C35.98 40.4301 35.92 40.8001 35.65 41.0001C35.54 41.0801 35.42 41.1101 35.3 41.1101V41.1001Z" fill="black"/>
<path d="M43.42 49.3801C43.29 49.3801 43.16 49.3401 43.04 49.2501C42.72 48.9901 42.41 48.7401 42.1 48.4801C41.85 48.2701 41.81 47.8901 42.02 47.6301C42.23 47.3801 42.61 47.3401 42.86 47.5501C43.16 47.8001 43.47 48.0501 43.78 48.3001C44.04 48.5101 44.08 48.8901 43.87 49.1401C43.75 49.2901 43.58 49.3601 43.4 49.3601L43.42 49.3801Z" fill="black"/>
<path d="M64.96 59.33C64.64 59.33 64.37 59.08 64.36 58.75C64.35 58.42 64.61 58.14 64.94 58.13C65.33 58.11 65.7 58.07 66.04 58.01C66.36 57.95 66.68 58.16 66.74 58.48C66.8 58.81 66.59 59.12 66.27 59.18C65.87 59.26 65.44 59.31 64.99 59.32H64.97L64.96 59.33Z" fill="black"/>
<path d="M62.18 59.1101C62.18 59.1101 62.11 59.1101 62.07 59.1101C61.2 58.9501 60.26 58.7201 59.29 58.4201C58.97 58.3201 58.8 57.9901 58.9 57.6701C59 57.3501 59.33 57.1701 59.65 57.2801C60.57 57.5701 61.46 57.7901 62.28 57.9401C62.61 58.0001 62.82 58.3101 62.77 58.6401C62.72 58.9301 62.47 59.1301 62.18 59.1301V59.1101ZM56.85 57.4901C56.77 57.4901 56.7 57.4801 56.62 57.4501C55.78 57.1101 54.91 56.7201 54.04 56.2901C53.74 56.1401 53.62 55.7901 53.76 55.4901C53.91 55.1901 54.27 55.0701 54.56 55.2101C55.41 55.6301 56.26 56.0101 57.07 56.3401C57.38 56.4701 57.52 56.8201 57.4 57.1201C57.31 57.3501 57.08 57.4901 56.84 57.4901H56.85Z" fill="black"/>
<path d="M51.82 55.04C51.72 55.04 51.62 55.02 51.53 54.96C51.18 54.76 50.83 54.56 50.47 54.36C50.18 54.19 50.09 53.82 50.26 53.54C50.43 53.26 50.8 53.16 51.08 53.33C51.43 53.53 51.77 53.73 52.11 53.92C52.4 54.08 52.5 54.45 52.34 54.74C52.23 54.94 52.03 55.05 51.82 55.05V55.04Z" fill="black"/>
<path d="M38.63 76.94C38.56 76.94 38.48 76.94 38.41 76.94C35.35 76.83 34.21 76.44 31.95 75.66C31.54 75.52 31.09 75.36 30.58 75.19C27.91 74.29 26.6 72.32 26.99 69.78C27.14 68.81 27.28 67.84 27.42 66.87C27.72 64.7 28.04 62.46 28.56 60.3C28.85 59.12 29.73 55.52 32.59 55.74C32.94 55.76 33.26 55.82 33.55 55.92C34.12 55.23 34.97 54.82 35.88 54.82C36.45 54.82 37 54.98 37.47 55.27C38.49 54.24 40.26 54.11 41.41 54.97L46.28 47.48C46.66 46.9 48.02 45 49.64 44.81C50.3 44.73 50.91 44.95 51.43 45.43C52.56 46.5 52.01 48.01 51.77 48.65C51.03 50.68 49.98 52.56 48.96 54.38C47.73 56.57 46.46 58.84 45.78 61.33C45.52 62.28 45.55 63.14 45.87 63.68C46.08 64.04 46.41 64.27 46.87 64.39C48.03 64.68 49.31 64.16 50.29 63.68L50.6 63.52C51.77 62.92 53.71 61.92 54.92 63.22L54.97 63.27C55.59 63.96 55.41 64.97 55.39 65.09C55.19 66.14 54.55 67.04 54.19 67.48C53.18 68.72 51.93 69.62 50.72 70.48L50.05 70.97C48.49 72.09 46.84 73.28 45.13 74.35L44.92 74.48C43.09 75.63 41.03 76.94 38.65 76.94H38.63ZM32.36 56.94C31.18 56.94 30.31 58.14 29.71 60.59C29.2 62.69 28.9 64.9 28.6 67.05C28.46 68.03 28.33 69.01 28.17 69.98C27.79 72.45 29.47 73.56 30.95 74.06C31.46 74.23 31.92 74.39 32.33 74.53C34.55 75.29 35.57 75.64 38.45 75.74C40.57 75.81 42.44 74.62 44.25 73.47L44.46 73.34C46.14 72.29 47.78 71.11 49.31 70L49.99 69.51C51.19 68.65 52.32 67.84 53.23 66.73C53.73 66.12 54.07 65.44 54.19 64.86C54.23 64.64 54.22 64.25 54.08 64.1L54.47 63.64L54.03 64.04C53.44 63.4 52.06 64.12 51.14 64.59L50.82 64.75C49.65 65.33 48.11 65.93 46.57 65.55C45.78 65.35 45.19 64.92 44.82 64.28C44.17 63.16 44.41 61.75 44.61 61.01C45.33 58.38 46.64 56.05 47.9 53.79C48.9 52.01 49.92 50.17 50.63 48.24C51 47.22 50.99 46.68 50.59 46.31C50.33 46.07 50.07 45.97 49.76 46.01C48.94 46.11 47.91 47.15 47.26 48.15L42 56.25C41.89 56.41 41.72 56.51 41.52 56.52C41.31 56.52 41.14 56.44 41.02 56.29C40.27 55.34 38.7 55.42 38.04 56.45C37.94 56.6 37.78 56.7 37.6 56.72C37.42 56.74 37.24 56.68 37.11 56.55C36.78 56.22 36.32 56.04 35.85 56.04C35.18 56.04 34.59 56.39 34.25 56.99C34.17 57.13 34.04 57.23 33.88 57.27C33.72 57.31 33.56 57.29 33.42 57.21C33.17 57.06 32.87 56.98 32.47 56.96C32.42 56.96 32.38 56.96 32.33 56.96L32.36 56.94Z" fill="black"/>
<path d="M57.33 67.0101C57.08 67.0101 56.84 66.8501 56.76 66.5901C56.66 66.2701 56.83 65.9401 57.15 65.8301C65.97 62.9801 71.89 54.8301 71.89 45.5601C71.89 33.8101 62.32 24.2601 50.56 24.2601C38.8 24.2601 29.22 33.8201 29.22 45.5701C29.22 48.3901 29.76 51.1301 30.84 53.7101C30.97 54.0201 30.82 54.3701 30.51 54.4901C30.21 54.6201 29.85 54.4701 29.73 54.1701C28.6 51.4401 28.02 48.5401 28.02 45.5701C28.02 33.1601 38.13 23.0601 50.55 23.0601C62.97 23.0601 73.08 33.1601 73.08 45.5601C73.08 55.3601 66.82 63.9601 57.51 66.9701C57.45 66.9901 57.39 67.0001 57.33 67.0001V67.0101Z" fill="black"/>
</g>
</g>
</g>
<defs>
<filter id="filter0_f_43212_24489" x="-282.293" y="-91.6094" width="549.209" height="549.209" filterUnits="userSpaceOnUse" color-interpolation-filters="sRGB">
<feFlood flood-opacity="0" result="BackgroundImageFix"/>
<feBlend mode="normal" in="SourceGraphic" in2="BackgroundImageFix" result="shape"/>
<feGaussianBlur stdDeviation="102.214" result="effect1_foregroundBlur_43212_24489"/>
</filter>
<filter id="filter1_f_43212_24489" x="-369.886" y="-268.443" width="757.396" height="757.396" filterUnits="userSpaceOnUse" color-interpolation-filters="sRGB">
<feFlood flood-opacity="0" result="BackgroundImageFix"/>
<feBlend mode="normal" in="SourceGraphic" in2="BackgroundImageFix" result="shape"/>
<feGaussianBlur stdDeviation="91.4625" result="effect1_foregroundBlur_43212_24489"/>
</filter>
<filter id="filter2_f_43212_24489" x="-64.6072" y="-149.902" width="338.44" height="338.266" filterUnits="userSpaceOnUse" color-interpolation-filters="sRGB">
<feFlood flood-opacity="0" result="BackgroundImageFix"/>
<feBlend mode="normal" in="SourceGraphic" in2="BackgroundImageFix" result="shape"/>
<feGaussianBlur stdDeviation="46.7516" result="effect1_foregroundBlur_43212_24489"/>
</filter>
<filter id="filter3_f_43212_24489" x="-105.758" y="-31.794" width="450.804" height="450.804" filterUnits="userSpaceOnUse" color-interpolation-filters="sRGB">
<feFlood flood-opacity="0" result="BackgroundImageFix"/>
<feBlend mode="normal" in="SourceGraphic" in2="BackgroundImageFix" result="shape"/>
<feGaussianBlur stdDeviation="76.4113" result="effect1_foregroundBlur_43212_24489"/>
</filter>
<clipPath id="clip0_43212_24489">
<rect width="100" height="100" fill="white"/>
</clipPath>
<clipPath id="clip1_43212_24489">
<rect width="60" height="60" fill="white" transform="translate(20 20)"/>
</clipPath>
<clipPath id="clip2_43212_24489">
<rect width="60" height="60" fill="white" transform="translate(20 20)"/>
</clipPath>
</defs>
</svg>
