<?xml version="1.0" encoding="UTF-8"?>
<svg id="figma_components" data-name="figma components" xmlns="http://www.w3.org/2000/svg" viewBox="0 0 80 80">
  <path d="m69.53,56.22H10.47c-3.05,0-5.53-2.48-5.53-5.53v-30.35c0-3.05,2.48-5.53,5.53-5.53h59.05c3.05,0,5.53,2.48,5.53,5.53v30.35c0,3.05-2.48,5.53-5.53,5.53ZM10.47,16.21c-2.28,0-4.13,1.85-4.13,4.13v30.35c0,2.28,1.85,4.13,4.13,4.13h59.05c2.28,0,4.13-1.85,4.13-4.13v-30.35c0-2.28-1.85-4.13-4.13-4.13H10.47Z"/>
  <path d="m49.11,65.19h-16.97c-.39,0-.7-.31-.7-.7s.31-.7.7-.7h16.97c.39,0,.7.31.7.7s-.31.7-.7.7Z"/>
  <path d="m40.55,64.36c-.39,0-.7-.31-.7-.7v-7.45c0-.39.31-.7.7-.7s.7.31.7.7v7.45c0,.39-.31.7-.7.7Z"/>
  <path d="m38.76,39.32c-.12,0-.24-.03-.35-.09-.22-.12-.35-.36-.35-.61v-6.21c0-.25.13-.48.35-.61.22-.12.48-.12.7,0l5.38,3.11c.22.12.35.36.35.61s-.13.48-.35.61l-5.38,3.11c-.11.06-.23.09-.35.09Zm.7-5.7v3.79l3.28-1.89-3.28-1.89Z"/>
  <path d="m40.14,49.6c-7.99,0-14.5-6.5-14.5-14.5s6.5-14.5,14.5-14.5,14.5,6.5,14.5,14.5-6.5,14.5-14.5,14.5Zm0-27.6c-7.22,0-13.1,5.88-13.1,13.1s5.88,13.1,13.1,13.1,13.1-5.88,13.1-13.1-5.88-13.1-13.1-13.1Z"/>
  <g>
    <g>
      <path d="m28.94,31.93c-.22,0-.44-.1-.57-.3-.22-.32-.15-.75.17-.98.43-.31.92-.6,1.45-.87.34-.17.77-.04.94.3.18.34.04.77-.3.94-.47.24-.9.5-1.29.77-.12.09-.26.13-.4.13Z"/>
      <path d="m32.94,30.05c-.3,0-.58-.19-.67-.5-.11-.37.09-.76.46-.87.9-.28,1.86-.5,2.85-.67.38-.06.74.19.81.57.06.38-.19.74-.57.81-.94.16-1.84.37-2.68.63-.07.02-.14.03-.21.03Zm14.04-.1c-.06,0-.13,0-.19-.03-.85-.24-1.76-.44-2.69-.58-.38-.06-.64-.42-.59-.8s.42-.65.8-.58c.99.15,1.95.36,2.86.62.37.11.59.49.48.87-.09.31-.37.51-.67.51Zm-8.45-.86c-.37,0-.68-.29-.7-.66-.02-.39.27-.72.66-.74.96-.05,1.96-.06,2.91-.02.39.02.69.34.67.73-.02.39-.36.7-.73.67-.91-.04-1.86-.04-2.77.02-.01,0-.03,0-.04,0Z"/>
      <path d="m51.05,31.74c-.13,0-.27-.04-.38-.12-.4-.26-.84-.51-1.31-.74-.35-.17-.5-.59-.33-.93.17-.35.59-.5.93-.33.53.25,1.03.53,1.48.83.32.21.41.65.2.97-.13.21-.36.32-.59.32Z"/>
    </g>
    <g>
      <path d="m30.3,40.52c-.11,0-.23-.03-.34-.09-.52-.28-1-.58-1.43-.89-.32-.22-.39-.66-.17-.98.22-.32.66-.39.98-.17.39.27.82.54,1.29.8.34.19.46.61.28.95-.13.23-.37.36-.61.36Z"/>
      <path d="m40.14,42.91c-.56,0-1.12-.02-1.67-.06-.39-.03-.68-.36-.65-.75s.37-.66.75-.65c.91.07,1.86.08,2.78.02.4,0,.72.27.74.66s-.27.72-.66.74c-.43.02-.86.04-1.29.04Zm4.1-.39c-.33,0-.62-.23-.69-.57-.07-.38.18-.75.55-.82.92-.18,1.82-.41,2.68-.7.37-.12.76.07.89.44.12.37-.07.76-.44.89-.92.31-1.89.56-2.87.75-.04,0-.09.01-.13.01Zm-8.56-.07s-.09,0-.14-.01c-.97-.2-1.94-.47-2.85-.8-.36-.13-.56-.53-.43-.89.13-.37.53-.56.89-.43.86.31,1.76.56,2.67.75.38.08.62.45.54.83-.07.33-.36.56-.69.56Z"/>
      <path d="m49.67,40.67c-.25,0-.5-.14-.62-.38-.18-.34-.04-.77.3-.94.47-.24.92-.5,1.32-.77.32-.21.76-.12.97.2.21.32.12.76-.2.97-.44.29-.93.58-1.45.84-.1.05-.21.08-.32.08Z"/>
    </g>
  </g>
</svg>