<?xml version="1.0" encoding="UTF-8"?>
<svg id="Layer_1" data-name="Layer 1" xmlns="http://www.w3.org/2000/svg" viewBox="0 0 80 80">
  <path d="m69.93,63.99H10.07c-2.75,0-4.99-2.24-4.99-5v-2.69c0-.39.31-.7.7-.7h68.45c.39,0,.7.31.7.7v2.69c0,2.76-2.24,5-4.99,5Zm-63.46-6.99v1.99c0,1.99,1.61,3.6,3.59,3.6h59.86c1.98,0,3.59-1.62,3.59-3.6v-1.99H6.48Z"/>
  <path d="m70.19,57.01H9.81c-.39,0-.7-.31-.7-.7V20.11c0-2.26,1.84-4.11,4.1-4.11h53.59c2.26,0,4.1,1.84,4.1,4.11v36.2c0,.39-.31.7-.7.7Zm-59.69-1.4h58.99V20.11c0-1.49-1.21-2.71-2.7-2.71H13.21c-1.49,0-2.7,1.21-2.7,2.71v35.5Z"/>
  <path d="m21.82,52.61c-1.76,0-3.31-1.28-3.6-3.07-.32-1.99,1.04-3.86,3.02-4.18h0c1.99-.31,3.86,1.04,4.18,3.02.32,1.99-1.04,3.86-3.02,4.18-.2.03-.39.05-.58.05Zm-.35-5.86h0c-1.22.2-2.06,1.35-1.86,2.57.2,1.22,1.35,2.06,2.57,1.86,1.22-.2,2.06-1.35,1.86-2.57s-1.35-2.06-2.57-1.86Z"/>
  <path d="m58.53,38.89c-1.77,0-3.33-1.33-3.63-3.18-.33-2.04,1.02-3.97,3-4.29,1.98-.32,3.87,1.09,4.2,3.13h0c.33,2.05-1.02,3.97-3,4.29-.19.03-.38.04-.56.04Zm-.07-6.11c-.11,0-.23,0-.34.03-1.22.2-2.05,1.4-1.84,2.68.21,1.28,1.36,2.17,2.59,1.97,1.22-.2,2.05-1.4,1.84-2.68-.19-1.16-1.16-2-2.25-2Z"/>
  <path d="m28.88,37.43c-1.81,0-3.41-1.32-3.71-3.16-.33-2.05,1.07-3.98,3.11-4.31,2.05-.33,3.98,1.07,4.31,3.11.33,2.05-1.07,3.98-3.11,4.31-.2.03-.4.05-.6.05Zm0-6.12c-.12,0-.25,0-.37.03-1.28.21-2.16,1.42-1.95,2.7.21,1.28,1.41,2.17,2.7,1.95,1.28-.21,2.16-1.42,1.95-2.7-.19-1.16-1.19-1.98-2.33-1.98Z"/>
  <path d="m41.1,45.48c-.78,0-1.53-.24-2.17-.69-.81-.57-1.34-1.41-1.49-2.37-.32-1.99,1.09-3.87,3.13-4.2,2.06-.32,3.97,1.02,4.29,3,.32,1.99-1.09,3.87-3.13,4.2-.21.03-.42.05-.62.05Zm.08-5.9c-.13,0-.26,0-.39.03-1.28.21-2.17,1.37-1.97,2.59.09.58.42,1.1.92,1.45.51.36,1.14.5,1.77.4,1.28-.21,2.17-1.37,1.97-2.59-.18-1.1-1.16-1.88-2.29-1.88Z"/>
  <path d="m47.51,29.57c-1.76,0-3.31-1.28-3.6-3.07-.32-1.99,1.04-3.86,3.02-4.18h0c1.99-.32,3.86,1.04,4.18,3.02.32,1.99-1.04,3.86-3.02,4.18-.2.03-.39.05-.58.05Zm-.35-5.86h0c-1.22.2-2.06,1.35-1.86,2.57.2,1.22,1.35,2.06,2.57,1.86.59-.09,1.11-.42,1.46-.9.35-.49.49-1.08.4-1.67-.09-.59-.42-1.11-.9-1.46-.49-.35-1.08-.49-1.67-.4Z"/>
  <g>
    <path d="m23.5,46.43c-.1,0-.2-.02-.3-.07-.35-.16-.5-.58-.34-.93l.63-1.36c.17-.35.58-.5.93-.34.35.16.5.58.34.93l-.63,1.36c-.12.25-.37.4-.63.4Z"/>
    <path d="m25.1,43c-.1,0-.2-.02-.3-.07-.35-.16-.5-.58-.34-.93l.97-2.07c.17-.35.58-.5.93-.34.35.16.5.58.34.93l-.97,2.07c-.12.25-.37.4-.63.4Z"/>
    <path d="m27.04,38.85c-.1,0-.2-.02-.3-.07-.35-.16-.5-.58-.34-.93l.63-1.36c.16-.35.58-.5.93-.34.35.16.5.58.34.93l-.63,1.36c-.12.25-.37.4-.63.4Z"/>
  </g>
  <g>
    <path d="m33.92,37.72c-.14,0-.28-.04-.41-.13l-2.04-1.45c-.31-.22-.39-.66-.16-.98.23-.31.66-.39.98-.16l2.04,1.45c.31.22.39.66.16.98-.14.19-.35.29-.57.29Z"/>
    <path d="m38.07,40.68c-.14,0-.28-.04-.41-.13l-2.04-1.45c-.31-.22-.39-.66-.16-.98.22-.31.66-.39.98-.16l2.04,1.45c.31.22.39.66.16.98-.14.19-.35.29-.57.29Z"/>
  </g>
  <g>
    <path d="m42.94,39.51c-.07,0-.15-.01-.22-.04-.37-.12-.57-.52-.45-.88l.47-1.42c.12-.37.52-.56.88-.45.37.12.57.52.45.88l-.47,1.42c-.1.29-.37.48-.67.48Z"/>
    <path d="m44.17,35.79c-.07,0-.15-.01-.22-.04-.37-.12-.57-.52-.45-.88l.75-2.29c.12-.37.52-.57.88-.45.37.12.57.52.45.88l-.75,2.29c-.1.29-.37.48-.67.48Z"/>
    <path d="m45.67,31.21c-.07,0-.15-.01-.22-.04-.37-.12-.57-.52-.45-.88l.47-1.42c.12-.37.52-.56.88-.45.37.12.57.52.45.88l-.47,1.42c-.1.29-.37.48-.67.48Z"/>
  </g>
  <g>
    <path d="m52.19,30.07c-.16,0-.32-.06-.46-.17l-1.9-1.63c-.29-.25-.33-.69-.08-.99.25-.29.69-.33.99-.08l1.9,1.63c.29.25.33.69.08.99-.14.16-.33.24-.53.24Z"/>
    <path d="m56.07,33.4c-.16,0-.32-.06-.46-.17l-1.9-1.63c-.29-.25-.33-.69-.08-.99.25-.29.7-.33.99-.08l1.9,1.63c.29.25.33.69.08.99-.14.16-.33.24-.53.24Z"/>
  </g>
</svg>