<svg width="130" height="130" viewBox="0 0 130 130" fill="none" xmlns="http://www.w3.org/2000/svg">
<path d="M46.3667 92.6771H32.7773C23.803 92.6771 16.536 85.3841 16.575 76.4054C16.614 68.0074 23.2223 60.9137 31.5943 60.3287C33.7697 60.1727 35.8843 60.4457 37.817 61.0871C38.701 47.8184 49.7467 37.3274 63.2407 37.3274C74.7067 37.3274 84.396 44.8934 87.594 55.3021C89.583 54.5784 91.7193 54.1797 93.9467 54.1624C104.26 54.0497 112.957 62.2787 113.395 72.5877C113.858 83.6031 105.066 92.6814 94.1503 92.6814H73.2247V80.7257C73.2247 79.8807 73.9093 79.2004 74.75 79.2004H78.793C80.0367 79.2004 80.7257 77.7574 79.9413 76.7911L66.1397 59.7091C65.546 58.9767 64.4323 58.9767 63.8387 59.7091L50.0413 76.7911C49.2613 77.7574 49.9503 79.2004 51.1897 79.2004H55.2327C56.0777 79.2004 56.758 79.8851 56.758 80.7257V92.6034" stroke="#FEC010" stroke-width="3" stroke-linecap="round" stroke-linejoin="round"/>
</svg>
