<svg width="130" height="130" viewBox="0 0 130 130" fill="none" xmlns="http://www.w3.org/2000/svg">
<path d="M66.6105 75.0579C70.4418 84.1137 79.4116 90.4734 89.8649 90.4734C103.801 90.4734 115.102 79.173 115.102 65.2367C115.102 51.3004 103.801 40 89.8649 40C77.1756 40 66.675 49.3654 64.8948 61.5602H82.3743V56.9162L92.9609 65.2367L82.3743 73.5529V68.9089H49.1138C43.0852 69.1669 41.1674 61.5602 41.1674 61.5602C39.5506 55.7122 34.1842 51.4036 27.8331 51.4036C20.2049 51.4036 14 57.6085 14 65.2367C14 72.8649 20.2049 79.0655 27.8331 79.0655C33.2124 79.0655 37.8865 75.9738 40.1741 71.4717" stroke="#FEC010" stroke-width="3" stroke-linecap="round" stroke-linejoin="round"/>
</svg>
