<svg width="130" height="130" viewBox="0 0 130 130" fill="none" xmlns="http://www.w3.org/2000/svg">
<path d="M65.6544 43.5457C76.9904 43.5457 86.1684 53.196 86.1684 65C86.1684 76.804 76.986 86.4543 65.6544 86.4543C54.3227 86.4543 45.1404 76.804 45.1404 65C45.1404 62.0967 45.7037 59.3797 46.6397 56.849" stroke="#FEC010" stroke-width="3" stroke-linecap="round" stroke-linejoin="round"/>
<path d="M89.5439 48.0436C104.628 54.2273 114.088 65 114.088 65" stroke="#FEC010" stroke-width="3" stroke-linecap="round" stroke-linejoin="round"/>
<path d="M15.912 65C15.912 65 31.4643 86.4543 65.6543 86.4543C99.8443 86.4543 114.088 65 114.088 65" stroke="#FEC010" stroke-width="3" stroke-linecap="round" stroke-linejoin="round"/>
<path d="M65.6543 43.5457C39.143 43.5457 15.912 65 15.912 65" stroke="#FEC010" stroke-width="3" stroke-linecap="round" stroke-linejoin="round"/>
<path d="M62.3827 56.732C63.3923 56.329 64.4973 56.108 65.6543 56.108C70.5683 56.108 74.5507 60.0903 74.5507 65C74.5507 69.9096 70.5683 73.8963 65.6543 73.8963C60.7403 73.8963 56.7623 69.914 56.7623 65C56.7623 64.8873 56.7623 64.7746 56.771 64.662" stroke="#FEC010" stroke-width="3" stroke-linecap="round" stroke-linejoin="round"/>
</svg>
