<svg width="130" height="130" viewBox="0 0 130 130" fill="none" xmlns="http://www.w3.org/2000/svg">
<path d="M49.2311 85.878L51.3674 95.16H62.6774L65.3077 83.7634C66.8244 83.291 68.3107 82.6714 69.7451 81.9347L79.6901 88.153L87.6981 80.158L81.4841 70.2304C82.2337 68.8004 82.8491 67.3184 83.3214 65.7974" stroke="#FEC010" stroke-width="3" stroke-linecap="round" stroke-linejoin="round"/>
<path d="M52.0651 64.1333C51.7574 63.9037 51.4627 63.648 51.1811 63.3663C47.9267 60.112 47.9267 54.8383 51.1811 51.5883C54.4354 48.334 59.7091 48.334 62.9634 51.5883C66.8547 55.4797 65.5677 61.23 61.6677 64.506C59.3797 66.43 57.1437 68.419 54.8817 70.3733C48.9884 75.4693 43.0951 80.5653 37.2017 85.6613C36.2657 86.4717 35.3297 87.282 34.3937 88.0923L26.3944 80.093L32.6171 70.1523C31.8587 68.7223 31.2521 67.236 30.7797 65.715L19.3831 63.0847V51.7747L30.8231 49.1443C31.2954 47.6147 31.9064 46.1327 32.6561 44.6983L26.4594 34.7967L34.4674 26.7887L44.3994 32.994C45.8251 32.2573 47.3114 31.655 48.8367 31.174L51.4627 19.7773H62.7771L65.4117 31.1957C66.9371 31.681 68.4234 32.305 69.8577 33.0503L79.7681 26.845L87.7631 34.84L81.5491 44.7937C82.2857 46.2237 82.8967 47.7143 83.3647 49.2223L94.7701 51.8527V63.1627L90.4194 64.1593" stroke="#FEC010" stroke-width="3" stroke-linecap="round" stroke-linejoin="round"/>
<path d="M65.7366 100.321H65.7323L69.0473 95.0213M82.1296 110.218H89.5613L91.0476 103.753" stroke="#FEC010" stroke-width="3" stroke-linecap="round" stroke-linejoin="round"/>
<path d="M90.4108 64.168L91.3425 68.224C91.4335 68.25 91.5245 68.2803 91.6112 68.3106C91.7975 68.3713 91.9838 68.432 92.1658 68.5056C92.3912 68.588 92.6078 68.6703 92.8245 68.7656C93.3098 68.9736 93.7908 69.1903 94.2545 69.4373C94.2545 69.4373 94.2545 69.446 94.2675 69.446L100.767 65.3726L106.015 70.629L101.942 77.1506C101.998 77.2676 102.054 77.3846 102.115 77.5016C102.124 77.5016 102.128 77.5146 102.124 77.519C102.219 77.7183 102.31 77.9176 102.401 78.117C102.527 78.3943 102.648 78.676 102.752 78.962C102.847 79.2046 102.938 79.4473 103.021 79.6986C103.06 79.82 103.099 79.9456 103.138 80.067C103.138 80.067 103.138 80.067 103.138 80.0756L110.621 81.796V89.219L108.294 89.7563L103.107 90.9523C103.073 91.065 103.034 91.1776 102.995 91.2946C102.96 91.4333 102.908 91.5676 102.86 91.6976C102.769 91.949 102.674 92.2003 102.566 92.443C102.453 92.7246 102.327 93.002 102.189 93.2793C102.098 93.4743 102.002 93.6693 101.903 93.86L105.98 100.377L100.724 105.629L94.1938 101.539C93.9641 101.66 93.7258 101.777 93.4875 101.89C93.2535 101.998 93.0108 102.111 92.7725 102.21C92.7725 102.21 92.7696 102.21 92.7638 102.21C92.5255 102.306 92.2828 102.401 92.0315 102.492C91.7888 102.583 91.5418 102.661 91.2905 102.743L91.0565 103.766L89.5615 110.223L82.1341 110.231L80.7302 104.134L80.4052 102.726C79.3998 102.401 78.4205 101.998 77.4975 101.517L71.0192 105.56L70.9845 105.582L65.7368 100.334L69.8188 93.808" stroke="#FEC010" stroke-width="3" stroke-linecap="round" stroke-linejoin="round"/>
<path d="M102.193 93.2663C102.106 93.4613 102.007 93.6563 101.903 93.847" stroke="#FEC010" stroke-width="3" stroke-linecap="round" stroke-linejoin="round"/>
<path d="M102.999 91.2816C103.042 91.1689 103.077 91.0606 103.116 90.948L108.299 89.7433" stroke="#FEC010" stroke-width="3" stroke-linecap="round" stroke-linejoin="round"/>
<path d="M103.138 80.0583C103.103 79.9326 103.06 79.8113 103.012 79.69C102.934 79.443 102.843 79.196 102.748 78.9533" stroke="#FEC010" stroke-width="3" stroke-linecap="round" stroke-linejoin="round"/>
<path d="M102.397 78.1083C102.319 77.909 102.223 77.7096 102.119 77.5146" stroke="#FEC010" stroke-width="3" stroke-linecap="round" stroke-linejoin="round"/>
<path d="M102.111 77.4973C102.059 77.376 101.998 77.2633 101.942 77.1463" stroke="#FEC010" stroke-width="3" stroke-linecap="round" stroke-linejoin="round"/>
<path d="M94.2543 69.433L100.763 65.364L100.767 65.3683" stroke="#FEC010" stroke-width="3" stroke-linecap="round" stroke-linejoin="round"/>
<path d="M90.4149 64.168L91.3509 68.2196C91.4419 68.2456 91.5286 68.276 91.6109 68.3106" stroke="#FEC010" stroke-width="3" stroke-linecap="round" stroke-linejoin="round"/>
</svg>
