<?xml version="1.0" encoding="utf-8"?>
<!-- Generator: Adobe Illustrator 27.3.1, SVG Export Plug-In . SVG Version: 6.00 Build 0)  -->
<svg version="1.1" id="Layer_1" xmlns="http://www.w3.org/2000/svg" xmlns:xlink="http://www.w3.org/1999/xlink" x="0px" y="0px"
	 viewBox="0 0 150 39.5" style="enable-background:new 0 0 150 39.5;" xml:space="preserve">
<style type="text/css">
	.st0{fill:#FA0C00;}
</style>
<g>
	<path class="st0" d="M16.5,0H0v39.5L16.5,0z"/>
	<path class="st0" d="M28.2,0h16.5v39.5L28.2,0z"/>
	<path class="st0" d="M22.3,14.6l10.5,25H26l-3.1-7.9h-7.7L22.3,14.6z"/>
</g>
<g>
	<path class="st0" d="M71.6,25.1l1.9,5.6c0.1,0.1,0.2,0.2,0.3,0.2h3.7c0.2,0,0.2-0.1,0.2-0.3L70.1,9.1c0-0.2-0.1-0.2-0.2-0.2h-4.7
		C65.1,8.9,65,9,65,9.2c-0.1,1.1-0.2,1.5-0.3,1.8l-6.9,19.6c0,0.2,0,0.3,0.2,0.3h3.3c0.2,0,0.3-0.1,0.4-0.3l1.8-5.5H71.6z
		 M64.7,21.5c1-3.1,2.3-7,2.9-9.2h0c0.7,2.3,2.2,7,2.9,9.2H64.7z"/>
	<path class="st0" d="M87.8,31.3c2,0,4.2-0.4,6.3-1.3c0.2-0.1,0.2-0.1,0.2-0.3c-0.1-0.6-0.1-1.5-0.1-2.1V7.3c0-0.1,0-0.2-0.2-0.2
		h-3.6c-0.1,0-0.2,0.1-0.2,0.2v6.9c-0.6-0.1-1-0.1-1.4-0.1c-5.9,0-9.5,3.9-9.5,8.7C79.2,28.4,82.9,31.3,87.8,31.3z M90.2,27.5
		c-0.6,0.2-1.3,0.3-1.9,0.3c-2.7,0-4.9-1.5-4.9-5.2c0-3.2,2.3-5.2,5.2-5.2c0.6,0,1.1,0.1,1.6,0.2V27.5z"/>
	<path class="st0" d="M106,14.1c-5,0-8.1,3.9-8.1,8.6c0,4.3,2.5,8.6,8.1,8.6c4.7,0,8-3.5,8-8.7C113.9,18,111.1,14.1,106,14.1z
		 M105.8,17.5c2.8,0,4,2.4,4,5.2c0,3.4-1.8,5.2-3.8,5.2c-2.6,0-4.1-2.1-4.1-5.2C101.9,19.4,103.5,17.5,105.8,17.5z"/>
	<path class="st0" d="M117.7,7.1c-0.1,0-0.2,0.1-0.2,0.2v22.9c0,0.1,0.1,0.3,0.2,0.3c1.6,0.5,3.3,0.7,5,0.7c5,0,9.8-3.1,9.8-9.3
		c0-4.5-3.1-7.9-7.9-7.9c-1.1,0-2.1,0.2-3,0.5l0-7.2c0-0.2-0.1-0.3-0.3-0.3H117.7z M128.4,22.4c0,3.7-2.5,5.5-5.3,5.5
		c-0.6,0-1.1,0-1.5-0.2v-9.8c0.5-0.2,1.2-0.4,2.3-0.4C126.6,17.5,128.4,19.2,128.4,22.4z"/>
	<path class="st0" d="M146.1,23.6c1.6,0,3,0,3.4-0.1c0.2,0,0.2-0.1,0.3-0.2c0.1-0.4,0.1-1.1,0.1-2.1c0-3.2-1.9-7.1-6.9-7.1
		c-5.1,0-7.9,4.1-7.9,8.8c0,4.1,2.2,8.4,8.3,8.4c2.3,0,3.8-0.4,5-1c0.1-0.1,0.2-0.2,0.2-0.4v-2.8c0-0.2-0.1-0.2-0.2-0.1
		c-1.3,0.5-2.6,0.8-4.2,0.8c-3.4,0-5-1.9-5.1-4.2H146.1z M139.3,20.7c0.3-1.6,1.3-3.4,3.6-3.4c2.6,0,3.2,2.1,3.2,3.1
		c0,0,0,0.2,0,0.3c-0.1,0-0.6,0-1.8,0H139.3z"/>
</g>
</svg>
