<svg width="126" height="81" viewBox="0 0 126 81" fill="none" xmlns="http://www.w3.org/2000/svg">
<g clip-path="url(#clip0_1131_113)">
<path d="M32.6544 43.6088C31.9023 43.4082 31.1312 43.1885 30.3505 42.9593C29.1891 42.606 27.7705 41.5745 27.4945 38.8238C30.9217 36.9137 33.3113 32.5012 33.3113 27.4202C33.3113 20.515 28.3703 15.7683 22.9533 15.7683C17.5363 15.7683 12.6144 20.5437 12.6144 27.4202C12.6144 32.5012 14.9944 36.885 18.4217 38.8238C18.1647 41.5745 16.7461 42.6442 15.5656 42.9593C10.6437 44.4588 6.14062 44.8695 3.68441 48.5083C2.4563 50.3325 1.78037 55.1938 1.39956 60.7237C1.37743 61.0808 1.42852 61.4386 1.54967 61.7751C1.67082 62.1116 1.85945 62.4196 2.10392 62.6801C2.34838 62.9405 2.64349 63.1479 2.971 63.2895C3.29852 63.431 3.65148 63.5037 4.0081 63.503H41.2226" stroke="#FFC000" stroke-width="3" stroke-linecap="round" stroke-linejoin="round"/>
<path d="M79.0369 63.4744H88.4524C88.8086 63.4737 89.1609 63.4001 89.4878 63.2581C89.8146 63.1161 90.1092 62.9086 90.3534 62.6484C90.5975 62.3883 90.7862 62.0808 90.9079 61.745C91.0296 61.4091 91.0816 61.0519 91.0609 60.6951C90.9847 59.4631 90.899 58.2597 90.7943 57.0945" stroke="#FFC000" stroke-width="3" stroke-linecap="round" stroke-linejoin="round"/>
<path d="M35.301 56.0725C35.8151 50.5044 36.6529 45.9296 37.9572 43.9908C41.156 39.2154 47.0014 38.7188 53.4085 36.7704C54.9222 36.312 56.7691 34.9749 57.1023 31.4029C52.6469 28.872 49.5528 23.1893 49.5528 16.5706C49.5528 7.60241 55.9694 1.43262 63.0048 1.43262C70.0403 1.43262 76.4474 7.60241 76.4474 16.5706C76.4474 23.1893 73.3533 28.872 68.8979 31.4029C69.2311 34.9749 71.078 36.312 72.5917 36.7704C78.9988 38.6806 84.8442 39.2632 88.043 43.9908C89.4234 46.0442 90.2802 51.0584 90.7943 57.0944" stroke="#FFC000" stroke-width="3" stroke-linecap="round" stroke-linejoin="round"/>
<path d="M88.5759 44.9842C90.6704 44.1915 93.098 43.7044 95.6495 42.9307C96.8109 42.5774 98.2294 41.5459 98.5055 38.8048C95.0782 36.8947 92.6887 32.4727 92.6887 27.3917C92.6887 20.4865 97.6296 15.7397 103.047 15.7397C108.464 15.7397 113.395 20.5151 113.395 27.3917C113.395 32.4727 111.006 36.8565 107.578 38.8048C107.835 41.5459 109.254 42.5774 110.434 42.9307C115.366 44.4302 119.859 44.8409 122.316 48.4798C123.544 50.3039 124.22 55.1653 124.6 60.6952C124.622 61.0527 124.571 61.411 124.45 61.748C124.329 62.085 124.141 62.3935 123.897 62.6548C123.652 62.916 123.357 63.1243 123.03 63.2669C122.702 63.4095 122.349 63.4834 121.992 63.484H100.571" stroke="#FFC000" stroke-width="3" stroke-linecap="round" stroke-linejoin="round"/>
<path d="M73.3819 68.9661L76.0285 73.197M66.9843 74.5342C66.8292 74.5982 66.6702 74.6525 66.5083 74.6965L66.9843 74.5342Z" stroke="#FFC000" stroke-width="3" stroke-linecap="round" stroke-linejoin="round"/>
<path d="M79.0367 61.0867L74.1909 59.9597" stroke="#FFC000" stroke-width="3" stroke-linecap="round" stroke-linejoin="round"/>
<path d="M72.6487 50.4185H72.6582L76.0474 53.8185V53.8281" stroke="#FFC000" stroke-width="3" stroke-linecap="round" stroke-linejoin="round"/>
<path d="M65.4228 47.4004V47.3909H60.6151V47.4004L59.4917 52.2618" stroke="#FFC000" stroke-width="3" stroke-linecap="round" stroke-linejoin="round"/>
<path d="M53.3799 50.3899L57.6069 53.0354C57.9156 52.8738 58.2335 52.7303 58.5589 52.6057" stroke="#FFC000" stroke-width="3" stroke-linecap="round" stroke-linejoin="round"/>
<path d="M52.6086 58.0305L52.5229 58.212" stroke="#FFC000" stroke-width="3" stroke-linecap="round" stroke-linejoin="round"/>
<path d="M60.6153 79.5674H65.3754L66.3274 75.3651M49.9907 73.1302L52.1328 69.6824L49.9907 73.1302Z" stroke="#FFC000" stroke-width="3" stroke-linecap="round" stroke-linejoin="round"/>
<path d="M73.5722 68.5459C73.5151 68.6701 73.4485 68.8038 73.3818 68.9279" stroke="#FFC000" stroke-width="3" stroke-linecap="round" stroke-linejoin="round"/>
<path d="M74.1909 59.9597L74.1052 59.7209" stroke="#FFC000" stroke-width="3" stroke-linecap="round" stroke-linejoin="round"/>
<path d="M73.7055 58.699C73.6551 58.5641 73.5947 58.4332 73.5247 58.3074" stroke="#FFC000" stroke-width="3" stroke-linecap="round" stroke-linejoin="round"/>
<path d="M68.4409 53.0545L72.6488 50.4089V50.4185" stroke="#FFC000" stroke-width="3" stroke-linecap="round" stroke-linejoin="round"/>
<path d="M65.4229 47.4004H65.4324L66.5462 52.2713" stroke="#FFC000" stroke-width="3" stroke-linecap="round" stroke-linejoin="round"/>
<path d="M52.6087 58.0303L51.4663 56.187" stroke="#FFC000" stroke-width="3" stroke-linecap="round" stroke-linejoin="round"/>
<path d="M52.0852 59.1956C51.99 59.4343 51.9043 59.6826 51.8281 59.9214" stroke="#FFC000" stroke-width="3" stroke-linecap="round" stroke-linejoin="round"/>
<path d="M74.1338 67.142C74.1379 67.1801 74.1379 67.2185 74.1338 67.2566C74.1106 67.3485 74.0787 67.4381 74.0386 67.524C73.9815 67.6864 73.9244 67.8487 73.8577 68.0015C73.7911 68.1543 73.6959 68.3645 73.6102 68.5459C73.5245 68.7274 73.4865 68.7943 73.4198 68.9184L76.0664 73.159L72.6582 76.5781L68.4312 73.9135L67.9743 74.1427C67.8314 74.2191 67.6696 74.2859 67.5173 74.3528L67.0508 74.5343L66.5748 74.6871L66.4225 75.3461L65.4704 79.5389H60.7103L59.7583 75.5753L59.5489 74.6202C58.8925 74.4157 58.2554 74.1536 57.6448 73.837L53.4464 76.4635L49.9906 73.1303L52.6372 68.8898C52.3169 68.2795 52.0555 67.6398 51.8565 66.9796L47.0203 65.8622V61.039L51.8851 59.9121C51.9613 59.6733 52.0374 59.425 52.1326 59.1862C52.2278 58.9474 52.323 58.7087 52.4277 58.4794L52.5705 58.2025L52.6562 58.021L51.5138 56.1872L49.9906 53.7996L53.3893 50.3899L57.6067 53.0451C57.9114 52.8827 58.216 52.7394 58.5588 52.6057C58.9015 52.472 59.1966 52.3574 59.5108 52.2523L60.6151 47.4292H65.3752L66.4986 52.3001L66.67 52.3574C66.7938 52.3887 66.9148 52.4302 67.0318 52.4815L67.4602 52.6439C67.7743 52.7872 68.079 52.9209 68.4122 53.0832L72.6201 50.4472L76.0188 53.8569L73.3817 58.0974C73.4205 58.1719 73.4555 58.2485 73.4865 58.3266V58.3266C73.5531 58.4508 73.6102 58.5845 73.6673 58.7182C73.7549 58.8946 73.8312 59.0765 73.8958 59.2626L74.0672 59.7401C74.0672 59.8165 74.0672 59.9025 74.1434 59.9789L78.9891 61.0868V63.484" stroke="#FFC000" stroke-width="3" stroke-linecap="round" stroke-linejoin="round"/>
</g>
<defs>
<clipPath id="clip0_1131_113">
<rect width="126" height="81" fill="white"/>
</clipPath>
</defs>
</svg>
