<svg width="69" height="98" viewBox="0 0 69 98" fill="none" xmlns="http://www.w3.org/2000/svg">
<g clip-path="url(#clip0_1131_233)">
<path d="M16.3922 5.55577H22.6362C22.6004 4.96121 22.6863 4.36561 22.8886 3.80558C23.0909 3.24555 23.4053 2.73295 23.8125 2.29928C24.2196 1.8656 24.711 1.52004 25.2563 1.28383C25.8016 1.04763 26.3893 0.925781 26.9833 0.925781C27.5773 0.925781 28.165 1.04763 28.7103 1.28383C29.2556 1.52004 29.7469 1.8656 30.1541 2.29928C30.5612 2.73295 30.8756 3.24555 31.0779 3.80558C31.2802 4.36561 31.3661 4.96121 31.3304 5.55577H37.5586L41.1943 15.0665H12.7407L14.6297 10.0892H1.98364C1.75515 10.0892 1.53601 10.1802 1.37445 10.3422C1.21289 10.5043 1.1221 10.724 1.1221 10.9531V80.6984C1.12106 80.8281 1.14563 80.9567 1.19442 81.0769C1.2432 81.197 1.31523 81.3063 1.40634 81.3984C1.49745 81.4905 1.60588 81.5636 1.72531 81.6135C1.84473 81.6634 1.97279 81.6891 2.10216 81.6891H31.2039" stroke="#FFC000" stroke-width="3" stroke-linecap="round" stroke-linejoin="round"/>
<path d="M45.2095 10.1211H51.8091C51.9378 10.1211 52.0653 10.1465 52.1842 10.1959C52.3031 10.2453 52.4111 10.3177 52.5021 10.4089C52.5931 10.5002 52.6653 10.6085 52.7146 10.7278C52.7638 10.847 52.7892 10.9748 52.7892 11.1039V66.694" stroke="#FFC000" stroke-width="3" stroke-linecap="round" stroke-linejoin="round"/>
<path d="M48.1496 80.849L52.6153 86.0562L64.6765 73.2722C64.7089 73.2295 64.7507 73.1948 64.7987 73.171C64.8467 73.1472 64.8995 73.1348 64.9531 73.1348C65.0066 73.1348 65.0595 73.1472 65.1075 73.171C65.1554 73.1948 65.1972 73.2295 65.2297 73.2722C66.5421 75.2189 67.3821 77.4467 67.6822 79.7772C67.9824 82.1078 67.7344 84.4764 66.9582 86.6936C66.182 88.9109 64.8991 90.9152 63.2122 92.5463C61.5252 94.1773 59.481 95.3899 57.243 96.0869C55.0051 96.7839 52.6355 96.946 50.3239 96.5603C48.0122 96.1746 45.8227 95.2518 43.9304 93.8657C42.0381 92.4795 40.4956 90.6685 39.4262 88.5776C38.3568 86.4866 37.7903 84.1737 37.772 81.8239V81.7129C37.7842 77.7421 39.3552 73.9357 42.1449 71.1175C44.9346 68.2993 48.7188 66.6959 52.6785 66.6543H52.7892" stroke="#FFC000" stroke-width="3" stroke-linecap="round" stroke-linejoin="round"/>
</g>
<defs>
<clipPath id="clip0_1131_233">
<rect width="69" height="98" fill="white"/>
</clipPath>
</defs>
</svg>
