<svg width="101" height="100" viewBox="0 0 101 100" fill="none" xmlns="http://www.w3.org/2000/svg">
<g clip-path="url(#clip0_0_2619)">
<mask id="mask0_0_2619" style="mask-type:alpha" maskUnits="userSpaceOnUse" x="0" y="0" width="101" height="100">
<circle cx="50.5" cy="50" r="50" fill="#D9D9D9"/>
</mask>
<g mask="url(#mask0_0_2619)">
<g filter="url(#filter0_f_0_2619)">
<ellipse cx="23.4973" cy="-41.3042" rx="221.406" ry="192.228" transform="rotate(-30 23.4973 -41.3042)" fill="#FF7701"/>
</g>
<g filter="url(#filter1_f_0_2619)">
<ellipse cx="101.554" cy="152.398" rx="110.781" ry="116.473" transform="rotate(-30 101.554 152.398)" fill="#FF4B9B"/>
</g>
</g>
<g clip-path="url(#clip1_0_2619)">
<path d="M47.0963 32.8486L43.6949 29.4472C43.1377 28.89 42.3892 28.5823 41.6158 28.5823H30.2889C29.2576 28.5823 28.2846 29.1395 27.7524 30.0294L25.9893 33.015C25.7149 33.464 25.5735 33.988 25.5735 34.5119V69.4657C25.5735 71.0957 26.8958 72.418 28.5258 72.418H72.5944C74.2244 72.418 75.5467 71.0957 75.5467 69.4657V36.6575C75.5467 35.0275 74.2244 33.7052 72.5944 33.7052H49.1671C48.3937 33.7052 47.6369 33.3975 47.088 32.8403V32.8569L47.0963 32.8486Z" stroke="black" stroke-width="1.4" stroke-linecap="round" stroke-linejoin="round"/>
<path d="M37.6159 46.845C39.3956 46.845 40.8427 45.398 40.8427 43.6183C40.8427 41.8386 39.3956 40.3915 37.6159 40.3915C35.8362 40.3915 34.3892 41.8386 34.3892 43.6183C34.3892 45.398 35.8362 46.845 37.6159 46.845Z" stroke="black" stroke-width="1.4" stroke-linecap="round" stroke-linejoin="round"/>
<path d="M32.8504 62.7377V56.5336L32.867 54.5626C33.025 52.9326 33.6654 50.2049 37.6406 50.2049C41.6159 50.2049 42.2646 52.9409 42.4143 54.5626L42.4309 56.5336V62.7377" stroke="black" stroke-width="1.4" stroke-linecap="round" stroke-linejoin="round"/>
<path d="M42.4397 62.6793C42.4397 64.0765 40.2941 65.2158 37.6495 65.2158C35.0049 65.2158 32.8593 64.0848 32.8593 62.6793" stroke="black" stroke-width="1.4" stroke-linecap="round" stroke-linejoin="round"/>
<path d="M52.835 46.2961H54.4983" stroke="black" stroke-width="1.4" stroke-linecap="round" stroke-linejoin="round"/>
<path d="M57.2541 46.2961H62.5184" stroke="black" stroke-width="1.4" stroke-linecap="round" stroke-linejoin="round"/>
<path d="M65.0267 46.2961H66.69" stroke="black" stroke-width="1.4" stroke-linecap="round" stroke-linejoin="round"/>
<path d="M52.835 53.1154H54.4983" stroke="black" stroke-width="1.4" stroke-linecap="round" stroke-linejoin="round"/>
<path d="M57.2541 53.1154H62.5184" stroke="black" stroke-width="1.4" stroke-linecap="round" stroke-linejoin="round"/>
<path d="M65.0267 53.1154H66.69" stroke="black" stroke-width="1.4" stroke-linecap="round" stroke-linejoin="round"/>
<path d="M52.835 59.9269H54.4983" stroke="black" stroke-width="1.4" stroke-linecap="round" stroke-linejoin="round"/>
<path d="M57.2541 59.9269H62.5184" stroke="black" stroke-width="1.4" stroke-linecap="round" stroke-linejoin="round"/>
<path d="M65.0267 59.9269H66.69" stroke="black" stroke-width="1.4" stroke-linecap="round" stroke-linejoin="round"/>
</g>
</g>
<defs>
<filter id="filter0_f_0_2619" x="-373.958" y="-424.173" width="794.911" height="765.737" filterUnits="userSpaceOnUse" color-interpolation-filters="sRGB">
<feFlood flood-opacity="0" result="BackgroundImageFix"/>
<feBlend mode="normal" in="SourceGraphic" in2="BackgroundImageFix" result="shape"/>
<feGaussianBlur stdDeviation="91.4625" result="effect1_foregroundBlur_0_2619"/>
</filter>
<filter id="filter1_f_0_2619" x="-90.6935" y="-42.6992" width="384.495" height="390.195" filterUnits="userSpaceOnUse" color-interpolation-filters="sRGB">
<feFlood flood-opacity="0" result="BackgroundImageFix"/>
<feBlend mode="normal" in="SourceGraphic" in2="BackgroundImageFix" result="shape"/>
<feGaussianBlur stdDeviation="40" result="effect1_foregroundBlur_0_2619"/>
</filter>
<clipPath id="clip0_0_2619">
<rect width="100" height="100" fill="white" transform="translate(0.5)"/>
</clipPath>
<clipPath id="clip1_0_2619">
<rect width="51.1292" height="45" fill="white" transform="translate(25 28)"/>
</clipPath>
</defs>
</svg>
