<svg width="101" height="100" viewBox="0 0 101 100" fill="none" xmlns="http://www.w3.org/2000/svg">
<g clip-path="url(#clip0_0_2641)">
<mask id="mask0_0_2641" style="mask-type:alpha" maskUnits="userSpaceOnUse" x="0" y="0" width="101" height="100">
<circle cx="50.5" cy="50" r="50" fill="#D9D9D9"/>
</mask>
<g mask="url(#mask0_0_2641)">
<g filter="url(#filter0_f_0_2641)">
<ellipse cx="39.6698" cy="127.118" rx="286.27" ry="286.27" transform="rotate(-30 39.6698 127.118)" fill="#AC8EFF"/>
</g>
<g filter="url(#filter1_f_0_2641)">
<ellipse cx="189.894" cy="45.2959" rx="128.81" ry="128.514" transform="rotate(-30 189.894 45.2959)" fill="#39C4FF"/>
</g>
</g>
<g clip-path="url(#clip1_0_2641)">
<path d="M52.1397 63.187C59.1456 62.2808 64.0903 55.8669 63.1841 48.8611C62.278 41.8553 55.864 36.9105 48.8582 37.8167C41.8524 38.7228 36.9076 45.1368 37.8138 52.1426C38.72 59.1484 45.1339 64.0932 52.1397 63.187Z" stroke="black" stroke-width="1.16327" stroke-linecap="round" stroke-linejoin="round" stroke-dasharray="2.33 2.33"/>
<path d="M60.7647 40.2278L65.703 35.2895" stroke="black" stroke-width="1.16327" stroke-linecap="round" stroke-linejoin="round"/>
<path d="M68.5107 36.4536C70.6945 36.4536 72.4674 34.6807 72.4674 32.4969C72.4674 30.3131 70.6945 28.5402 68.5107 28.5402C66.3269 28.5402 64.554 30.3131 64.554 32.4969C64.554 34.6807 66.3269 36.4536 68.5107 36.4536Z" stroke="black" stroke-width="1.16327" stroke-linecap="round" stroke-linejoin="round"/>
<path d="M60.5667 60.5666L65.7028 65.7028" stroke="black" stroke-width="1.16327" stroke-linecap="round" stroke-linejoin="round"/>
<path d="M68.5107 72.4674C70.6945 72.4674 72.4674 70.6945 72.4674 68.5107C72.4674 66.3269 70.6945 64.554 68.5107 64.554C66.3269 64.554 64.554 66.3269 64.554 68.5107C64.554 70.6945 66.3269 72.4674 68.5107 72.4674Z" stroke="black" stroke-width="1.16327" stroke-linecap="round" stroke-linejoin="round"/>
<path d="M40.3343 60.658L35.2895 65.7028" stroke="black" stroke-width="1.16327" stroke-linecap="round" stroke-linejoin="round"/>
<path d="M32.4895 72.4674C34.6733 72.4674 36.4462 70.6945 36.4462 68.5107C36.4462 66.3269 34.6733 64.554 32.4895 64.554C30.3057 64.554 28.5328 66.3269 28.5328 68.5107C28.5328 70.6945 30.3057 72.4674 32.4895 72.4674Z" stroke="black" stroke-width="1.16327" stroke-linecap="round" stroke-linejoin="round"/>
<path d="M40.1211 40.1211L35.2817 35.2817" stroke="black" stroke-width="1.16327" stroke-linecap="round" stroke-linejoin="round"/>
<path d="M32.4895 36.4538C34.6733 36.4538 36.4462 34.6809 36.4462 32.4971C36.4462 30.3133 34.6809 28.5328 32.4895 28.5328C30.2981 28.5328 28.5328 30.3057 28.5328 32.4895C28.5328 34.6733 30.3057 36.4462 32.4895 36.4462V36.4538Z" stroke="black" stroke-width="1.16327" stroke-linecap="round" stroke-linejoin="round"/>
<path d="M44.2378 44.2301C44.2758 44.1921 44.3291 44.1693 44.3824 44.1693H58.2689C58.4439 44.1693 58.5428 44.3747 58.4287 44.5041L56.5949 46.7868C56.5569 46.8324 56.496 46.8629 56.4351 46.8629H41.9931C41.8029 46.8629 41.7116 46.6346 41.8485 46.5052L44.2378 44.2225V44.2301Z" stroke="black" stroke-width="1.16327" stroke-linecap="round" stroke-linejoin="round"/>
<path d="M44.2378 49.4194C44.2758 49.3813 44.3291 49.3585 44.3824 49.3585H58.2689C58.4439 49.3585 58.5428 49.564 58.4287 49.6933L56.5949 51.976C56.5569 52.0217 56.496 52.0521 56.4351 52.0521H41.9931C41.8029 52.0521 41.7116 51.8238 41.8485 51.6945L44.2378 49.4118V49.4194Z" stroke="black" stroke-width="1.16327" stroke-linecap="round" stroke-linejoin="round"/>
<path d="M44.2376 54.6014C44.2376 54.6014 44.3213 54.5481 44.3746 54.5481H58.2383C58.4133 54.5481 58.5122 54.7612 58.3981 54.8905L56.5947 56.9678C56.5567 57.0135 56.4958 57.0363 56.435 57.0363H42.0158C41.8255 57.0363 41.7342 56.8004 41.8788 56.6711L44.2376 54.5938V54.6014Z" stroke="black" stroke-width="1.16327" stroke-linecap="round" stroke-linejoin="round"/>
</g>
</g>
<defs>
<filter id="filter0_f_0_2641" x="-429.573" y="-342.125" width="938.486" height="938.486" filterUnits="userSpaceOnUse" color-interpolation-filters="sRGB">
<feFlood flood-opacity="0" result="BackgroundImageFix"/>
<feBlend mode="normal" in="SourceGraphic" in2="BackgroundImageFix" result="shape"/>
<feGaussianBlur stdDeviation="91.4625" result="effect1_foregroundBlur_0_2641"/>
</filter>
<filter id="filter1_f_0_2641" x="-32.3669" y="-176.817" width="444.521" height="444.225" filterUnits="userSpaceOnUse" color-interpolation-filters="sRGB">
<feFlood flood-opacity="0" result="BackgroundImageFix"/>
<feBlend mode="normal" in="SourceGraphic" in2="BackgroundImageFix" result="shape"/>
<feGaussianBlur stdDeviation="46.7516" result="effect1_foregroundBlur_0_2641"/>
</filter>
<clipPath id="clip0_0_2641">
<rect width="100" height="100" fill="white" transform="translate(0.5)"/>
</clipPath>
<clipPath id="clip1_0_2641">
<rect width="45" height="45" fill="white" transform="translate(28 28)"/>
</clipPath>
</defs>
</svg>
