<svg width="94" height="49" viewBox="0 0 94 49" fill="none" xmlns="http://www.w3.org/2000/svg">
<path d="M48.8335 33.2562C52.2441 41.33 60.229 47 69.5344 47C81.9405 47 92 36.925 92 24.5C92 12.075 81.9405 2 69.5344 2C58.2385 2 48.891 10.3498 47.3062 21.2222H62.8664V17.0818L72.2905 24.5L62.8664 31.9144V27.774H33.2581C27.8915 28.004 26.1842 21.2222 26.1842 21.2222C24.745 16.0083 19.9678 12.167 14.3141 12.167C7.52356 12.167 2 17.699 2 24.5C2 31.301 7.52356 36.8292 14.3141 36.8292C19.1028 36.8292 23.2636 34.0728 25.3 30.0589" stroke="#FEC010" stroke-width="3" stroke-linecap="round" stroke-linejoin="round"/>
</svg>
