<svg width="89" height="90" viewBox="0 0 89 90" fill="none" xmlns="http://www.w3.org/2000/svg">
<path d="M21.4516 80.2061C28.0902 84.5043 36.0038 86.9995 44.5001 86.9995C52.9965 86.9995 60.4638 84.6455 66.9841 80.5703C68.3819 79.6961 69.1924 78.1298 69.115 76.4769C68.7598 68.9186 67.9721 61.9111 66.3512 59.5298C63.56 55.4136 58.4604 54.9446 52.869 53.2508C51.5486 52.8502 49.9367 51.6845 49.6453 48.5792C53.5338 46.38 56.2384 41.4306 56.2384 35.6799C56.2384 27.8756 51.2663 23.0537 45.1285 23.0537C44.919 23.0537 44.7096 23.0583 44.5001 23.0719C44.2907 23.0583 44.0812 23.0537 43.8718 23.0537C37.734 23.0537 32.7619 27.8756 32.7619 35.6799C32.7619 41.4306 35.4665 46.38 39.355 48.5792C39.0636 51.6845 37.4517 52.8502 36.1313 53.2508C30.5399 54.9446 25.4402 55.4136 22.6491 59.5298C21.5654 61.1234 20.8551 64.7933 20.3952 69.3101C20.3861 69.4012 20.377 69.4923 20.3679 69.5788" stroke="#FEC010" stroke-width="3" stroke-linecap="round" stroke-linejoin="round"/>
<path d="M11.9215 71.7876L11.8988 71.7648C5.72 64.3886 2 54.8814 2 44.5C2 21.028 21.028 2 44.5 2C67.972 2 87 21.028 87 44.5C87 55.1136 83.1115 64.8211 76.6732 72.2657" stroke="#FEC010" stroke-width="3" stroke-linecap="round" stroke-linejoin="round"/>
<path d="M29.5199 77.3286L21.447 80.2017L24.8301 88.0697" stroke="#FEC010" stroke-width="3" stroke-linecap="round" stroke-linejoin="round"/>
<path d="M75.2706 63.8376L76.6776 72.2885L85.0237 70.3442" stroke="#FEC010" stroke-width="3" stroke-linecap="round" stroke-linejoin="round"/>
<path d="M20.3952 69.3103C20.0127 74.0867 15.6826 75.5483 11.8988 71.7645" stroke="#FEC010" stroke-width="3" stroke-linecap="round" stroke-linejoin="round"/>
</svg>
