<svg width="84" height="78" viewBox="0 0 84 78" fill="none" xmlns="http://www.w3.org/2000/svg">
<path d="M51.2365 51.0061C39.9792 62.2107 21.7049 62.2107 10.4442 51.0061C-0.816443 39.8015 -0.813041 21.6127 10.4442 10.4047C21.7015 -0.803262 39.9758 -0.799876 51.2365 10.4047C58.8695 18.002 61.3367 28.8239 58.6381 38.4941C52.9891 31.9739 40.2991 26.8796 40.2991 26.8796C40.7415 28.0685 41.007 29.3421 41.007 30.7037C41.007 36.245 36.6783 40.7736 31.3321 40.7736C25.9859 40.7736 21.6573 36.245 21.6573 30.7037C21.6573 25.1624 24.1891 20.6914 31.3321 20.6338C43.8349 20.6338 54.7893 29.6876 54.7893 29.6876C54.7893 29.6876 47.4557 40.7736 31.3321 40.7736C14.9873 40.7736 8.49088 30.7037 8.49088 30.7037C8.49088 30.7037 11.9654 26.8763 19.0437 23.4214" stroke="#FEC010" stroke-width="3" stroke-miterlimit="10" stroke-linecap="round" stroke-linejoin="round"/>
<path d="M58.0969 57.9124L75.9084 75.6405L81.9998 69.5776L63.341 51.006C60.0264 47.707 54.5509 47.707 51.2363 51.006" stroke="#FEC010" stroke-width="3" stroke-miterlimit="10" stroke-linecap="round" stroke-linejoin="round"/>
</svg>
