<svg width="84" height="79" viewBox="0 0 84 79" fill="none" xmlns="http://www.w3.org/2000/svg">
<path d="M46.9003 70.1154H68.6755C70.0296 70.1154 71.1308 71.2219 71.1308 72.5824V74.5946C71.1308 75.9552 70.0296 77.0617 68.6755 77.0617H15.3204C13.9664 77.0617 12.8652 75.9552 12.8652 74.5946V72.5824C12.8652 71.2219 13.9664 70.1154 15.3204 70.1154H32.5113C41.1823 70.1154 41.8144 64.587 46.2559 64.587H49.9633C51.2399 64.587 52.1861 63.3944 51.9006 62.1404L51.2562 59.3208C50.9707 58.0709 51.9169 56.8742 53.1935 56.8742H80.0097C81.1068 56.8742 82 55.9808 82 54.8743V3.9999C82 2.8975 81.1109 2 80.0097 2H46.468V16.7492C46.468 19.5196 45.6482 22.2285 44.1147 24.5316L39.9669 30.7526L40.3584 36.6581L45.9174 34.9041L61.6197 11.7864L55.6447 7.68414L49.8573 16.1796L50.1346 16.3558C55.9424 19.5278 59.8129 25.8307 59.4989 33.0107C59.0951 42.2561 51.6355 49.7721 42.4344 50.1984C32.1484 50.6737 23.6569 42.4324 23.6569 32.2034C23.6569 24.3513 28.6572 17.6713 35.6314 15.2042C36.7612 14.8067 37.5034 13.7207 37.5034 12.52V2H3.99031C2.89319 2 2 2.8934 2 3.9999V54.8825C2 55.9849 2.88912 56.8824 3.99031 56.8824H30.8025C32.079 56.8824 33.0252 58.075 32.7397 59.329L32.0953 62.1486C31.8098 63.3985 32.7561 64.5952 34.0326 64.5952H37.7849" stroke="#FEC010" stroke-width="3" stroke-linecap="round" stroke-linejoin="round"/>
</svg>
