<svg width="69" height="89" viewBox="0 0 69 89" fill="none" xmlns="http://www.w3.org/2000/svg">
<path d="M22.1644 26.0353C21.8576 26.6172 21.6025 27.2349 21.3993 27.8725L16.6687 28.9605V33.6472L21.3913 34.7352C21.5905 35.3729 21.8456 35.9866 22.1485 36.5724M22.1485 36.5724L19.57 40.6893L22.8858 44.005L26.9946 41.4345C27.5725 41.7374 28.1902 41.9964 28.8239 42.1997L29.9198 46.9342H34.6026L35.6866 42.2156C36.3282 42.0124 36.9459 41.7613 37.5317 41.4544L41.6446 44.0289L44.9604 40.7132L42.3938 36.6083C42.6967 36.0225 42.9557 35.4127 43.159 34.7791L47.8856 33.6871V28.9964L43.1709 27.9124C42.9717 27.2707 42.7166 26.661 42.4058 26.0752L44.9843 21.9583L41.6725 18.6426L37.5676 21.2091C36.9818 20.9022 36.368 20.6432 35.7304 20.4479L34.6384 15.7134H29.9517L28.8637 20.432C28.2301 20.6312 27.6123 20.8863 27.0265 21.1932L22.9097 18.6147" stroke="#FEC010" stroke-width="3" stroke-linecap="round" stroke-linejoin="round"/>
<path d="M31.0078 28.1152C31.3984 27.9558 31.8248 27.8721 32.2751 27.8721C34.1801 27.8721 35.7264 29.4144 35.7264 31.3194C35.7264 33.2243 34.1801 34.7706 32.2751 34.7706C30.3702 34.7706 28.9474 33.3479 28.8358 31.5425" stroke="#FEC010" stroke-width="3" stroke-linecap="round" stroke-linejoin="round"/>
<path d="M22.9097 18.6183C18.1472 24.951 12.0497 20.5153 11.2726 19.5031C9.39949 17.0561 9.86976 13.4215 11.5555 10.843C16.4096 3.41042 26.07 1.46161 34.2917 2.11918C48.7344 3.27093 55.6808 13.4414 56.8126 15.8326C57.7412 17.7894 60.1045 21.7747 60.511 28.4062C60.8059 33.1567 61.9576 37.8195 64.014 42.1117C65.3411 44.8775 66.4809 47.3284 66.5806 47.7867C66.8316 48.9186 66.202 50.5565 62.5554 50.6801C58.9089 50.8036 60.1324 53.406 59.8733 56.5504C59.6342 59.4437 56.0434 59.0811 56.0434 59.0811C56.0434 59.0811 59.8215 59.384 59.2118 61.823C57.7412 67.7332 62.2884 71.9656 54.7203 72.6909C47.766 73.3564 41.9634 71.312 40.5805 72.4478C39.1976 73.5796 37.5596 81.6299 38.3168 85.1529C39.0701 88.6759 13.5362 88.0462 14.0344 75.3411C14.1579 72.2525 16.4654 69.8932 16.4933 66.7368C16.5491 60.9382 12.508 56.6979 11.4559 51.2021C11.4479 51.1663 11.2925 50.5804 11.1092 49.8989C10.8222 48.8468 9.75817 48.2211 8.69409 48.4603C6.49022 48.9584 2.97917 48.7193 2.14226 42.5381C1.42092 37.1858 3.58095 35.8866 5.50984 35.7352C6.73731 35.6395 7.57024 34.42 7.27134 33.2244C6.64964 30.7297 6.03191 26.9596 6.6855 23.3608" stroke="#FEC010" stroke-width="3" stroke-linecap="round" stroke-linejoin="round"/>
</svg>
