<svg width="84" height="84" viewBox="0 0 84 84" fill="none" xmlns="http://www.w3.org/2000/svg">
<path d="M41.9982 2C64.0537 2 81.9965 19.9428 82 41.9982C82 64.0572 64.0572 82 41.9982 82C19.9428 82 2 64.0572 2 41.9982C1.9965 24.4303 13.3815 9.46858 29.1629 4.11236C30.5081 3.65696 31.9549 4.44515 32.3192 5.81836L33.7555 11.2131C34.0883 12.4602 33.3947 13.7423 32.1756 14.1732C20.717 18.2298 12.4882 29.1699 12.4882 42.0018C12.4882 58.6589 26.364 72.1388 43.1648 71.4872C58.4452 70.8917 70.8427 58.5328 71.4767 43.2524C72.1318 27.4674 60.3124 14.2468 45.0845 12.6564C43.5851 12.4988 42.289 13.6968 42.289 15.2031V20.2791C42.289 21.5753 43.2594 22.6647 44.545 22.8153C54.1505 23.9328 61.605 32.0985 61.605 42.0018C61.605 52.7667 52.7983 61.4789 41.9947 61.3178C31.7482 61.1671 23.3128 52.8823 22.98 42.6393C22.6927 33.7485 28.4168 26.1503 36.3968 23.6" stroke="#FEC010" stroke-width="3" stroke-linecap="round" stroke-linejoin="round"/>
</svg>
