<svg width="94" height="54" viewBox="0 0 94 54" fill="none" xmlns="http://www.w3.org/2000/svg">
<path d="M69.6069 2.42772C69.8046 2.41491 70.0024 2.41064 70.2001 2.41064C75.9941 2.41064 80.6878 6.93065 80.6878 14.2463C80.6878 19.637 78.1347 24.2765 74.464 26.3381C74.739 29.249 76.2606 30.3416 77.5071 30.7172C82.7854 32.305 87.5995 32.7446 90.2343 36.603C91.2831 38.1353 91.9622 41.7035 92.392 46.0784C92.7316 49.5143 90.0108 52.4935 86.5335 52.4935H12.4357" stroke="#FEC010" stroke-width="3" stroke-linecap="round" stroke-linejoin="round"/>
<path d="M25.6614 2.42772C25.8591 2.41491 26.0568 2.41064 26.2545 2.41064C27.8879 2.41064 29.431 2.76917 30.8064 3.44781C34.3181 5.17643 36.7423 8.99218 36.7423 14.2463C36.7423 19.5004 34.1891 24.2765 30.5184 26.3381C30.7935 29.249 32.3151 30.3416 33.5616 30.7172C38.8399 32.305 43.6539 32.7446 46.2888 36.603C46.8303 37.3969 47.2731 38.7329 47.6341 40.4487C47.9952 38.7329 48.4379 37.3969 48.9795 36.603C51.6143 32.7446 56.4284 32.305 61.7066 30.7172C62.9531 30.3416 64.4747 29.249 64.7498 26.3381C61.0791 24.2765 58.5259 19.637 58.5259 14.2463C58.5259 8.8556 60.9501 5.17643 64.4618 3.44781C65.8373 2.76917 67.3804 2.41064 69.0137 2.41064C69.2114 2.41064 69.4091 2.41064 69.6069 2.42772" stroke="#FEC010" stroke-width="3" stroke-linecap="round" stroke-linejoin="round"/>
<path d="M2.42065 52.4935C2.75592 45.4083 3.49952 38.8396 5.0297 36.603C7.66454 32.7446 12.4786 32.305 17.7569 30.7172C19.0034 30.3416 20.525 29.249 20.8 26.3381C17.1293 24.2765 14.5762 19.637 14.5762 14.2463C14.5762 6.93065 19.2699 2.41064 25.0639 2.41064C25.2616 2.41064 25.4594 2.41491 25.6571 2.42772" stroke="#FEC010" stroke-width="3" stroke-linecap="round" stroke-linejoin="round"/>
</svg>
