<?xml version="1.0" encoding="UTF-8"?>
<svg id="Layer_1" data-name="Layer 1" xmlns="http://www.w3.org/2000/svg" viewBox="0 0 80 80">
  <path d="m40,54.29c-8.02,0-14.55-6.47-14.55-14.42s6.53-14.42,14.55-14.42,14.55,6.47,14.55,14.42-6.53,14.42-14.55,14.42Zm0-27.43c-7.25,0-13.15,5.84-13.15,13.02s5.9,13.02,13.15,13.02,13.15-5.84,13.15-13.02-5.9-13.02-13.15-13.02Z"/>
  <g>
    <path d="m28.33,36.88c-.2,0-.41-.09-.55-.26-.24-.3-.19-.74.11-.98.42-.34.9-.66,1.42-.96.34-.19.76-.07.96.26.19.34.07.76-.26.96-.46.26-.87.54-1.23.83-.13.1-.28.15-.44.15Z"/>
    <path d="m32.4,34.78c-.29,0-.57-.19-.66-.48-.12-.37.08-.76.44-.88.94-.31,1.95-.57,3.01-.76.38-.07.75.18.81.56.07.38-.18.74-.56.81-.99.18-1.94.42-2.82.71-.07.02-.15.04-.22.04Zm14.82-.16c-.07,0-.14,0-.2-.03-.89-.27-1.85-.49-2.84-.65-.38-.06-.64-.42-.58-.8.06-.38.43-.64.8-.58,1.05.17,2.07.4,3.02.69.37.11.58.5.47.87-.09.3-.37.5-.67.5Zm-8.93-.94c-.37,0-.67-.29-.7-.66-.03-.39.27-.72.65-.74.57-.04,1.14-.06,1.73-.06,0,0,.1,0,.1,0,.42,0,.84,0,1.25.03.39.02.69.34.67.73-.02.38-.33.67-.7.67-.01,0-.02,0-.03,0-.39-.02-.79-.03-1.19-.03-.65,0-1.2.02-1.74.06-.02,0-.03,0-.05,0Z"/>
    <path d="m51.38,36.59c-.14,0-.29-.04-.41-.14-.38-.28-.81-.54-1.27-.79-.34-.18-.47-.6-.29-.95.18-.34.6-.47.95-.29.53.28,1.02.58,1.45.9.31.23.38.67.15.98-.14.19-.35.29-.57.29Z"/>
  </g>
  <g>
    <path d="m29.65,45.17c-.12,0-.24-.03-.35-.09-.52-.3-1-.62-1.42-.96-.3-.24-.35-.68-.11-.98.24-.3.68-.35.98-.11.36.29.78.57,1.23.83.34.19.45.62.26.96-.13.23-.37.35-.61.35Z"/>
    <path d="m40.07,47.53c-.68,0-1.26-.02-1.82-.06-.39-.02-.68-.36-.65-.74.02-.39.37-.67.74-.65.54.03,1.08.05,1.64.05.49,0,.9,0,1.29-.03.33-.03.71.28.73.67.02.39-.28.71-.67.73-.41.02-.83.03-1.26.03Zm4.21-.33c-.34,0-.63-.25-.69-.59-.06-.38.2-.74.58-.8.99-.16,1.94-.38,2.84-.65.37-.11.76.1.87.47s-.1.76-.47.87c-.95.29-1.97.52-3.02.69-.04,0-.07,0-.11,0Zm-8.98-.09s-.08,0-.13-.01c-1.06-.19-2.07-.45-3.01-.76-.37-.12-.57-.52-.44-.88.12-.37.52-.57.88-.44.88.29,1.83.53,2.82.71.38.07.63.43.56.81-.06.34-.36.57-.69.57Z"/>
    <path d="m50.02,45.41c-.25,0-.5-.14-.62-.37-.18-.34-.05-.77.29-.95.47-.25.89-.51,1.27-.79.31-.23.75-.16.98.15.23.31.16.75-.15.98-.43.32-.92.62-1.45.89-.1.05-.21.08-.32.08Z"/>
  </g>
  <path d="m40.01,43.88c-2.22,0-4.03-1.81-4.03-4.03s1.81-4.03,4.03-4.03,4.03,1.81,4.03,4.03-1.81,4.03-4.03,4.03Zm0-6.65c-1.45,0-2.63,1.18-2.63,2.63s1.18,2.63,2.63,2.63,2.63-1.18,2.63-2.63-1.18-2.63-2.63-2.63Z"/>
  <path d="m40.07,61.88c-3.33,0-6.73-1.11-10.61-3.34-7.59-4.35-19.94-12.47-26.98-17.73-.18-.13-.28-.34-.28-.56,0-.22.11-.43.29-.56,8.78-6.4,26.56-18.08,29.46-19.59,4.46-2.77,12.31-2.58,16.8.42,1.12.74,2.98,1.98,5.28,3.5,6.7,4.44,16.81,11.14,23.46,15.66.19.13.31.35.31.59,0,.23-.12.45-.32.58l-27.17,17.68c-3.62,2.24-6.9,3.36-10.24,3.36ZM4.08,40.26c7.1,5.23,18.79,12.89,26.08,17.07,7.25,4.16,12.69,4.16,19.4.01l26.27-17.1c-6.63-4.49-16.17-10.81-22.58-15.06-2.3-1.53-4.17-2.76-5.28-3.51-4.03-2.69-11.33-2.87-15.31-.38-.02,0-.03.02-.05.03-2.71,1.4-19.53,12.44-28.53,18.94Zm28.21-19.56h0,0Z"/>
</svg>