<?xml version="1.0" encoding="UTF-8"?>
<svg id="Layer_1" data-name="Layer 1" xmlns="http://www.w3.org/2000/svg" viewBox="0 0 80 80">
  <g>
    <path d="m16.82,38.04c-.33,0-.63-.24-.69-.58-.06-.38.19-.74.57-.81l1.14-.19c.15-.03.3-.05.46-.07.38-.05.74.21.79.59.06.38-.21.74-.59.79-.14.02-.28.04-.42.07l-1.14.19s-.08,0-.12,0Z"/>
    <path d="m42.4,53.17c-.7,0-1.39-.1-2.05-.3-.37-.11-.58-.5-.47-.87.11-.37.5-.58.87-.47.91.27,1.9.31,2.83.12.38-.09.75.16.83.54.08.38-.16.75-.54.83-.48.1-.98.15-1.48.15Zm4.17-1.57c-.19,0-.38-.08-.52-.23-.26-.29-.24-.73.05-.99.56-.51,1.01-1.13,1.33-1.85l.25-.57c.16-.35.57-.51.92-.36.35.16.51.57.36.92l-.25.57c-.4.9-.96,1.68-1.67,2.32-.13.12-.3.18-.47.18Zm-8.72-.38c-.19,0-.38-.08-.51-.22-.5-.54-.92-1.17-1.23-1.87l-.49-1.09c-.16-.35,0-.77.35-.93.35-.16.77,0,.93.35l.49,1.09c.25.56.58,1.06.98,1.49.26.28.25.73-.04.99-.13.12-.31.19-.48.19Zm11.77-5.23c-.09,0-.19-.02-.28-.06-.35-.16-.51-.57-.36-.92l1.3-2.94c.16-.35.57-.51.92-.36.35.16.51.57.36.92l-1.3,2.94c-.12.26-.37.42-.64.42Zm-14.78-.43c-.24,0-.47-.12-.6-.34-.52-.88-1.14-1.71-1.82-2.47-.26-.29-.24-.73.05-.99.29-.26.73-.24.99.05.75.83,1.42,1.73,1.99,2.69.2.33.09.76-.24.96-.11.07-.24.1-.36.1Zm-4.29-4.73c-.14,0-.29-.04-.42-.14-.82-.61-1.71-1.14-2.64-1.58-.35-.17-.5-.58-.33-.93s.58-.5.93-.33c1.01.48,1.98,1.05,2.87,1.72.31.23.38.67.15.98-.14.19-.35.28-.56.28Zm21.67-.72c-.09,0-.19-.02-.28-.06-.35-.16-.51-.57-.36-.92l.1-.22c.43-.98,1.02-1.88,1.75-2.66.26-.29.71-.3.99-.04.28.26.3.71.04.99-.62.67-1.13,1.44-1.5,2.28l-.1.22c-.12.26-.37.42-.64.42Zm-27.44-2.01c-.06,0-.11,0-.17-.02-1-.25-2.02-.4-3.04-.45-.39-.02-.68-.35-.66-.73.02-.39.34-.71.73-.66,1.11.06,2.23.22,3.31.5.38.09.6.47.51.85-.08.32-.37.53-.68.53Zm31.72-2.62c-.25,0-.5-.14-.62-.38-.18-.34-.04-.77.31-.94.75-.38,1.55-.67,2.38-.85l.84-.18c.38-.08.75.16.83.53.08.38-.16.75-.53.83l-.84.18c-.71.16-1.4.4-2.04.73-.1.05-.21.08-.32.08Zm6.19-1.66c-.32,0-.61-.22-.68-.55-.08-.38.16-.75.53-.83l3.14-.69c.38-.09.75.16.83.53.08.38-.16.75-.53.83l-3.14.69c-.05.01-.1.02-.15.02Z"/>
    <path d="m69,32.44c-.32,0-.61-.22-.68-.55-.08-.38.16-.75.53-.83l1.56-.34c.38-.09.75.16.83.53.08.38-.16.75-.53.83l-1.56.34c-.05.01-.1.02-.15.02Z"/>
  </g>
  <path d="m17.87,47.2c-.33,0-.62-.23-.69-.56-.08-.38.17-.75.55-.82l2.95-.58c4.62-.91,8.29-4.26,9.56-8.74l5.15-18.03c.72-2.53,2.9-4.21,5.56-4.28,2.64-.08,4.94,1.49,5.79,3.99l6.37,18.55c.52,1.51,1.9,2.6,3.51,2.77l14,1.48c.38.04.66.39.62.77-.04.38-.39.67-.77.62l-14.01-1.48c-2.15-.23-3.99-1.69-4.69-3.71l-6.37-18.55c-.65-1.9-2.38-3.07-4.43-3.04-2.04.05-3.71,1.33-4.26,3.26l-5.15,18.03c-1.42,4.99-5.5,8.71-10.64,9.73l-2.94.58s-.09.01-.14.01Z"/>
  <path d="m24.43,60.55c-2.91,0-5.54-1.42-7.15-3.88-.21-.32-.12-.76.21-.97.32-.21.76-.12.97.21,1.44,2.22,3.89,3.42,6.55,3.22,2.65-.2,4.87-1.75,5.96-4.14l8.63-19c.69-1.52,2.17-2.47,3.86-2.48h.01c1.68,0,3.15.94,3.85,2.45l7.79,16.8c1.2,2.58,3.73,4.22,6.61,4.27,2.86.05,5.47-1.51,6.76-4.06l1.46-2.89c.17-.35.6-.48.94-.31.35.17.48.59.31.94l-1.46,2.89c-1.51,2.99-4.52,4.83-7.88,4.83-.05,0-.1,0-.15,0-3.42-.06-6.43-2-7.85-5.08l-7.79-16.8c-.48-1.03-1.44-1.64-2.58-1.64h-.01c-1.13,0-2.12.64-2.59,1.66l-8.63,19c-1.3,2.87-3.97,4.72-7.13,4.96-.23.02-.46.03-.68.03Z"/>
  <path d="m73.46,69.5H6.54c-.39,0-.7-.31-.7-.7V11.2c0-.39.31-.7.7-.7s.7.31.7.7v56.9h66.21c.39,0,.7.31.7.7s-.31.7-.7.7Z"/>
</svg>