<?xml version="1.0" encoding="UTF-8"?>
<svg id="Layer_1" data-name="Layer 1" xmlns="http://www.w3.org/2000/svg" viewBox="0 0 80 80">
  <g>
    <path d="m66.46,37.24c-.24,0-.48-.13-.61-.35l-.79-1.39c-.19-.34-.08-.76.26-.96.34-.19.76-.07.96.26l.79,1.39c.19.34.08.76-.26.96-.11.06-.23.09-.35.09Z"/>
    <path d="m63.97,32.87c-.24,0-.48-.13-.61-.35l-1.7-2.97c-.19-.34-.08-.76.26-.96.34-.19.76-.08.96.26l1.7,2.97c.19.34.08.76-.26.96-.11.06-.23.09-.35.09Zm-3.4-5.95c-.24,0-.48-.13-.61-.35l-1.7-2.97c-.19-.34-.08-.76.26-.96.34-.19.76-.07.96.26l1.7,2.97c.19.34.08.76-.26.96-.11.06-.23.09-.35.09Z"/>
    <path d="m57.18,20.98c-.24,0-.48-.13-.61-.35l-.79-1.39c-.19-.34-.08-.76.26-.96.34-.19.76-.07.96.26l.79,1.39c.19.34.08.76-.26.96-.11.06-.23.09-.35.09Z"/>
  </g>
  <path d="m54.33,19.91c-2.56,0-4.64-2.08-4.64-4.64s2.08-4.64,4.64-4.64,4.64,2.08,4.64,4.64c0,1.6-.84,3.1-2.21,3.94-.03.03-.07.05-.11.08-.69.4-1.5.62-2.32.62Zm0-7.88c-1.79,0-3.24,1.45-3.24,3.24s1.45,3.24,3.24,3.24c.55,0,1.06-.13,1.52-.38.03-.02.06-.05.1-.07,1.01-.58,1.62-1.63,1.62-2.8,0-1.79-1.45-3.24-3.24-3.24Z"/>
  <path d="m25.82,19.91c-2.47,0-4.48-1.94-4.48-4.32s2.01-4.32,4.48-4.32,4.48,1.94,4.48,4.32-2.01,4.32-4.48,4.32Zm0-7.25c-1.7,0-3.08,1.31-3.08,2.92s1.38,2.92,3.08,2.92,3.08-1.31,3.08-2.92-1.38-2.92-3.08-2.92Z"/>
  <path d="m54.33,69.37c-2.56,0-4.64-2.08-4.64-4.64s2.08-4.64,4.64-4.64,4.64,2.08,4.64,4.64-2.08,4.64-4.64,4.64Zm0-7.88c-1.79,0-3.24,1.45-3.24,3.24s1.45,3.24,3.24,3.24,3.24-1.45,3.24-3.24-1.45-3.24-3.24-3.24Z"/>
  <path d="m25.82,69.37c-2.47,0-4.48-2.08-4.48-4.64s2.01-4.64,4.48-4.64,4.48,2.08,4.48,4.64-2.01,4.64-4.48,4.64Zm0-7.88c-1.7,0-3.08,1.45-3.08,3.24s1.38,3.24,3.08,3.24,3.08-1.45,3.08-3.24-1.38-3.24-3.08-3.24Z"/>
  <path d="m11.65,44.8c-2.47,0-4.48-2.08-4.48-4.64s2.01-4.64,4.48-4.64,4.48,2.08,4.48,4.64-2.01,4.64-4.48,4.64Zm0-7.88c-1.7,0-3.08,1.45-3.08,3.24s1.38,3.24,3.08,3.24,3.08-1.45,3.08-3.24-1.38-3.24-3.08-3.24Z"/>
  <path d="m68.35,44.8c-2.47,0-4.48-2.08-4.48-4.64s2.01-4.64,4.48-4.64,4.48,2.08,4.48,4.64-2.01,4.64-4.48,4.64Zm0-7.88c-1.7,0-3.08,1.45-3.08,3.24s1.38,3.24,3.08,3.24,3.08-1.45,3.08-3.24-1.38-3.24-3.08-3.24Z"/>
  <g>
    <path d="m31.2,65.59h-1.6c-.39,0-.7-.31-.7-.7s.31-.7.7-.7h1.6c.39,0,.7.31.7.7s-.31.7-.7.7Z"/>
    <path d="m45.28,65.59h-3.52c-.39,0-.7-.31-.7-.7s.31-.7.7-.7h3.52c.39,0,.7.31.7.7s-.31.7-.7.7Zm-7.04,0h-3.52c-.39,0-.7-.31-.7-.7s.31-.7.7-.7h3.52c.39,0,.7.31.7.7s-.31.7-.7.7Z"/>
    <path d="m50.4,65.59h-1.6c-.39,0-.7-.31-.7-.7s.31-.7.7-.7h1.6c.39,0,.7.31.7.7s-.31.7-.7.7Z"/>
  </g>
  <g>
    <path d="m14.36,45.65c-.24,0-.47-.12-.6-.34l-.82-1.38c-.2-.33-.09-.76.25-.96.33-.2.76-.09.96.25l.82,1.38c.2.33.09.76-.25.96-.11.07-.24.1-.36.1Z"/>
    <path d="m21.37,57.47c-.24,0-.47-.12-.6-.34l-1.75-2.96c-.2-.33-.09-.76.25-.96.33-.2.76-.08.96.25l1.75,2.96c.2.33.09.76-.25.96-.11.07-.24.1-.36.1Zm-3.5-5.91c-.24,0-.47-.12-.6-.34l-1.75-2.96c-.2-.33-.09-.76.25-.96.33-.2.76-.09.96.25l1.75,2.96c.2.33.09.76-.25.96-.11.07-.24.1-.36.1Z"/>
    <path d="m23.94,61.81c-.24,0-.47-.12-.6-.34l-.82-1.38c-.2-.33-.09-.76.25-.96.33-.2.76-.08.96.25l.82,1.38c.2.33.09.76-.25.96-.11.07-.23.1-.36.1Z"/>
  </g>
  <g>
    <path d="m23.12,20.97c-.12,0-.24-.03-.35-.1-.33-.2-.44-.63-.25-.96l.81-1.38c.2-.33.62-.45.96-.25.33.2.44.63.25.96l-.81,1.38c-.13.22-.36.34-.6.34Z"/>
    <path d="m16.1,32.88c-.12,0-.24-.03-.35-.1-.33-.2-.44-.63-.25-.96l1.75-2.98c.2-.33.62-.44.96-.25.33.2.44.63.25.96l-1.75,2.98c-.13.22-.36.34-.6.34Zm3.51-5.95c-.12,0-.24-.03-.35-.1-.33-.2-.44-.63-.25-.96l1.75-2.98c.2-.33.62-.44.96-.25.33.2.44.63.25.96l-1.75,2.98c-.13.22-.36.34-.6.34Z"/>
    <path d="m13.54,37.24c-.12,0-.24-.03-.35-.1-.33-.2-.44-.63-.25-.96l.81-1.38c.2-.33.62-.44.96-.25.33.2.44.63.25.96l-.81,1.38c-.13.22-.36.34-.6.34Z"/>
  </g>
  <g>
    <path d="m50.4,16.44h-1.6c-.39,0-.7-.31-.7-.7s.31-.7.7-.7h1.6c.39,0,.7.31.7.7s-.31.7-.7.7Z"/>
    <path d="m45.28,16.44h-3.52c-.39,0-.7-.31-.7-.7s.31-.7.7-.7h3.52c.39,0,.7.31.7.7s-.31.7-.7.7Zm-7.04,0h-3.52c-.39,0-.7-.31-.7-.7s.31-.7.7-.7h3.52c.39,0,.7.31.7.7s-.31.7-.7.7Z"/>
    <path d="m31.2,16.44h-1.6c-.39,0-.7-.31-.7-.7s.31-.7.7-.7h1.6c.39,0,.7.31.7.7s-.31.7-.7.7Z"/>
  </g>
  <path d="m39.84,43.53c-1.69,0-3.06-1.44-3.06-3.22s1.37-3.22,3.06-3.22,3.06,1.45,3.06,3.22-1.37,3.22-3.06,3.22Zm0-5.04c-.92,0-1.66.82-1.66,1.82s.75,1.82,1.66,1.82,1.66-.82,1.66-1.82-.75-1.82-1.66-1.82Z"/>
  <path d="m34.96,47.32c-.15,0-.3-.05-.42-.14-2.14-1.64-3.42-4.25-3.42-6.97s1.13-5.04,3.1-6.72c.3-.25.74-.21.99.08.25.29.21.74-.08.99-1.66,1.41-2.61,3.47-2.61,5.65s1.08,4.48,2.88,5.86c.31.23.37.67.13.98-.14.18-.35.27-.56.27Z"/>
  <path d="m45.04,47.32c-.22,0-.43-.1-.57-.29-.23-.31-.15-.75.16-.98,2.02-1.45,3.17-3.65,3.17-6.05s-1.19-4.62-3.17-6.05c-.31-.23-.39-.66-.16-.98.22-.31.66-.39.98-.16,2.35,1.69,3.76,4.37,3.76,7.18s-1.37,5.47-3.76,7.18c-.12.09-.27.13-.41.13Z"/>
  <path d="m31.11,51.1c-.17,0-.34-.06-.47-.18-2.91-2.65-4.57-6.5-4.57-10.57s1.69-7.99,4.64-10.63c.29-.25.73-.23.99.05.26.29.23.73-.05.99-2.65,2.38-4.18,5.88-4.18,9.59s1.5,7.15,4.12,9.53c.29.26.31.7.05.99-.14.15-.33.23-.52.23Z"/>
  <path d="m48.51,51.1c-.19,0-.38-.08-.52-.23-.26-.29-.23-.73.05-.99,2.66-2.38,4.18-5.87,4.18-9.57s-1.51-7.16-4.16-9.55c-.29-.26-.31-.7-.05-.99.26-.29.7-.31.99-.05,2.93,2.66,4.62,6.51,4.62,10.59s-1.69,7.97-4.64,10.61c-.13.12-.3.18-.47.18Z"/>
  <g>
    <path d="m56.02,61.81c-.12,0-.24-.03-.36-.1-.33-.2-.44-.63-.24-.96l.82-1.38c.2-.33.62-.45.96-.24.33.2.44.63.24.96l-.82,1.38c-.13.22-.36.34-.6.34Z"/>
    <path d="m58.58,57.47c-.12,0-.24-.03-.36-.1-.33-.2-.44-.63-.25-.96l1.75-2.96c.2-.33.63-.44.96-.25.33.2.44.63.25.96l-1.75,2.96c-.13.22-.36.34-.6.34Zm3.51-5.91c-.12,0-.24-.03-.36-.1-.33-.2-.44-.63-.25-.96l1.75-2.96c.2-.33.63-.44.96-.25.33.2.44.63.25.96l-1.75,2.96c-.13.22-.36.34-.6.34Z"/>
    <path d="m65.6,45.65c-.12,0-.24-.03-.36-.1-.33-.2-.44-.63-.25-.96l.82-1.38c.2-.33.63-.44.96-.25.33.2.44.63.25.96l-.82,1.38c-.13.22-.36.34-.6.34Z"/>
  </g>
</svg>