<?xml version="1.0" encoding="UTF-8"?>
<svg id="Layer_1" data-name="Layer 1" xmlns="http://www.w3.org/2000/svg" viewBox="0 0 80 80">
  <path d="m37.63,54.35c-.18,0-.36-.07-.49-.2-.13-.13-.21-.31-.21-.5v-13.8c-2.54-1.18-4.29-3.75-4.39-6.55-.13-3.26,1.81-6.22,4.83-7.36.22-.08.46-.05.65.08.19.13.3.35.3.58v5.74l3.39-.03-.04-5.7c0-.23.11-.45.3-.58.19-.13.43-.16.65-.08,2.89,1.1,4.84,3.94,4.84,7.06s-1.71,5.66-4.39,6.88v13.62s0,.08,0,.12c0,.39-.3.7-.68.7l-4.77.03h0Zm-.71-26.65c-1.9,1.13-3.07,3.24-2.98,5.54.09,2.41,1.67,4.62,3.94,5.49.27.1.45.36.45.65v13.55l3.34-.02v-13.51c0-.29.18-.55.45-.65,2.39-.91,3.94-3.17,3.94-5.76,0-2.18-1.17-4.2-2.99-5.29v4.62c0,.75-.61,1.37-1.36,1.37h-3.43c-.75,0-1.36-.61-1.36-1.37v-4.62Z"/>
  <path d="m52.94,75.16h-3.18c-.39,0-.7-.31-.7-.7s.31-.7.7-.7h3.18c.39,0,.7.31.7.7s-.31.7-.7.7Zm-6.35,0h-3.18c-.39,0-.7-.31-.7-.7s.31-.7.7-.7h3.18c.39,0,.7.31.7.7s-.31.7-.7.7Zm-6.35,0h-3.18c-.39,0-.7-.31-.7-.7s.31-.7.7-.7h3.18c.39,0,.7.31.7.7s-.31.7-.7.7Zm-6.35,0h-3.18c-.39,0-.7-.31-.7-.7s.31-.7.7-.7h3.18c.39,0,.7.31.7.7s-.31.7-.7.7Zm-6.35,0h-3.18c-.39,0-.7-.31-.7-.7s.31-.7.7-.7h3.18c.39,0,.7.31.7.7s-.31.7-.7.7Zm28.58,0c-.38,0-.7-.31-.7-.7,0-.39.31-.7.7-.7.85,0,1.64-.43,2.11-1.14.21-.32.65-.41.97-.19.32.21.41.65.19.97-.73,1.09-1.95,1.75-3.26,1.76h0Zm-34.62-1.08c-.19,0-.38-.08-.52-.23-.65-.72-1.01-1.66-1.01-2.64v-.8c0-.39.31-.7.7-.7s.7.31.7.7v.8c0,.63.23,1.24.65,1.7.26.29.24.73-.05.99-.13.12-.3.18-.47.18Zm37.86-3.43c-.39,0-.7-.31-.7-.7v-3.18c0-.39.31-.7.7-.7s.7.31.7.7v3.18c0,.39-.31.7-.7.7Zm-38.69-2.71c-.39,0-.7-.31-.7-.7v-3.18c0-.39.31-.7.7-.7s.7.31.7.7v3.18c0,.39-.31.7-.7.7Zm38.69-3.64c-.39,0-.7-.31-.7-.7v-3.18c0-.39.31-.7.7-.7s.7.31.7.7v3.18c0,.39-.31.7-.7.7Zm-38.69-2.71c-.39,0-.7-.31-.7-.7v-3.18c0-.39.31-.7.7-.7s.7.31.7.7v3.18c0,.39-.31.7-.7.7Zm38.69-3.64c-.39,0-.7-.31-.7-.7v-3.18c0-.39.31-.7.7-.7s.7.31.7.7v3.18c0,.39-.31.7-.7.7Zm-38.69-2.71c-.39,0-.7-.31-.7-.7v-3.18c0-.39.31-.7.7-.7s.7.31.7.7v3.18c0,.39-.31.7-.7.7Zm38.69-3.64c-.39,0-.7-.31-.7-.7v-3.18c0-.39.31-.7.7-.7s.7.31.7.7v3.18c0,.39-.31.7-.7.7Zm-38.69-2.71c-.39,0-.7-.31-.7-.7v-3.18c0-.39.31-.7.7-.7s.7.31.7.7v3.18c0,.39-.31.7-.7.7Zm38.69-3.64c-.39,0-.7-.31-.7-.7v-3.18c0-.39.31-.7.7-.7s.7.31.7.7v3.18c0,.39-.31.7-.7.7Zm-38.69-2.71c-.39,0-.7-.31-.7-.7v-3.18c0-.39.31-.7.7-.7s.7.31.7.7v3.18c0,.39-.31.7-.7.7Zm38.69-3.64c-.39,0-.7-.31-.7-.7v-3.18c0-.39.31-.7.7-.7s.7.31.7.7v3.18c0,.39-.31.7-.7.7Zm-38.69-2.71c-.39,0-.7-.31-.7-.7v-3.18c0-.39.31-.7.7-.7s.7.31.7.7v3.18c0,.39-.31.7-.7.7Zm38.69-3.64c-.39,0-.7-.31-.7-.7v-3.18c0-.39.31-.7.7-.7s.7.31.7.7v3.18c0,.39-.31.7-.7.7Zm-38.69-2.71c-.39,0-.7-.31-.7-.7v-3.18c0-.39.31-.7.7-.7s.7.31.7.7v3.18c0,.39-.31.7-.7.7Zm38.69-3.64c-.39,0-.7-.31-.7-.7v-3.18c0-.39.31-.7.7-.7s.7.31.7.7v3.18c0,.39-.31.7-.7.7Zm-38.69-2.71c-.39,0-.7-.31-.7-.7v-3.18c0-.39.31-.7.7-.7s.7.31.7.7v3.18c0,.39-.31.7-.7.7Zm38.69-3.64c-.39,0-.7-.31-.7-.7v-3.18c0-.39.31-.7.7-.7s.7.31.7.7v3.18c0,.39-.31.7-.7.7Zm-38.69-2.71c-.39,0-.7-.31-.7-.7v-3.18c0-.39.31-.7.7-.7s.7.31.7.7v3.18c0,.39-.31.7-.7.7Zm38.69-3.64c-.39,0-.7-.31-.7-.7v-3.18c0-.39.31-.7.7-.7s.7.31.7.7v3.18c0,.39-.31.7-.7.7Zm-38.69-2.71c-.39,0-.7-.31-.7-.7v-1.28c0-.78.23-1.53.65-2.17.21-.32.65-.41.97-.2.32.21.41.65.2.97-.27.42-.42.9-.42,1.4v1.28c0,.39-.31.7-.7.7Zm37.87-3.44c-.19,0-.38-.08-.52-.24-.49-.55-1.18-.86-1.91-.86h-.43c-.39,0-.7-.31-.7-.7s.31-.7.7-.7h.43c1.13,0,2.21.49,2.96,1.33.26.29.23.73-.06.99-.13.12-.3.18-.46.18Zm-6.04-1.09h-3.18c-.39,0-.7-.31-.7-.7s.31-.7.7-.7h3.18c.39,0,.7.31.7.7s-.31.7-.7.7Zm-6.35,0h-3.18c-.39,0-.7-.31-.7-.7s.31-.7.7-.7h3.18c.39,0,.7.31.7.7s-.31.7-.7.7Zm-6.35,0h-3.18c-.39,0-.7-.31-.7-.7s.31-.7.7-.7h3.18c.39,0,.7.31.7.7s-.31.7-.7.7Zm-6.35,0h-3.18c-.39,0-.7-.31-.7-.7s.31-.7.7-.7h3.18c.39,0,.7.31.7.7s-.31.7-.7.7Zm-6.35,0h-3.18c-.39,0-.72-.31-.72-.7s.29-.7.68-.7h3.21c.39,0,.7.31.7.7s-.31.7-.7.7Z"/>
  <path d="m43.09,69.31h-6.18c-.39,0-.7-.31-.7-.7s.31-.7.7-.7h6.18c.39,0,.7.31.7.7s-.31.7-.7.7Z"/>
</svg>