<?xml version="1.0" encoding="UTF-8"?>
<svg id="Layer_1" data-name="Layer 1" xmlns="http://www.w3.org/2000/svg" viewBox="0 0 80 80">
  <path d="m45.67,35.59c-.39,0-.7-.31-.7-.7l-.02-9.22c-.17-1.78-.85-4.23-4.7-4.23s-4.52,2.45-4.7,4.29l-.02,2.16v7c0,.39-.31.7-.7.7s-.7-.31-.7-.7l.02-9.24c.44-4.65,3.56-5.62,6.1-5.62s5.65.96,6.09,5.56l.02,2.29v7.01c0,.39-.31.7-.7.7Z"/>
  <path d="m40.26,38.39c-3.43,0-6.11-1.56-6.11-3.56,0-.39.31-.7.7-.7s.7.31.7.7c0,1.02,1.94,2.16,4.71,2.16s4.71-1.14,4.71-2.16c0-.39.31-.7.7-.7s.7.31.7.7c0,2-2.69,3.56-6.11,3.56Z"/>
  <path d="m40.22,17.65c-2.4,0-4.35-1.95-4.35-4.34s1.95-4.35,4.35-4.35,4.34,1.95,4.34,4.35-1.95,4.34-4.34,4.34Zm0-7.29c-1.62,0-2.95,1.32-2.95,2.95s1.32,2.94,2.95,2.94,2.94-1.32,2.94-2.94-1.32-2.95-2.94-2.95Z"/>
  <path d="m24.79,68.24c-.39,0-.7-.31-.7-.7l-.02-9.22c-.17-1.78-.85-4.23-4.7-4.23s-4.52,2.45-4.7,4.29v9.16c-.01.39-.33.7-.71.7s-.7-.31-.7-.7l.02-9.24c.44-4.65,3.56-5.62,6.1-5.62s5.66.96,6.09,5.56l.02,2.29v7.01c0,.39-.31.7-.7.7Z"/>
  <path d="m19.38,71.05c-3.43,0-6.11-1.56-6.11-3.56,0-.39.31-.7.7-.7s.7.31.7.7c0,1.02,1.94,2.16,4.71,2.16s4.71-1.14,4.71-2.16c0-.39.31-.7.7-.7s.7.31.7.7c0,2-2.69,3.56-6.11,3.56Z"/>
  <path d="m19.34,50.3c-2.4,0-4.34-1.95-4.34-4.34s1.95-4.35,4.34-4.35,4.35,1.95,4.35,4.35-1.95,4.34-4.35,4.34Zm0-7.29c-1.62,0-2.94,1.32-2.94,2.95s1.32,2.94,2.94,2.94,2.95-1.32,2.95-2.94-1.32-2.95-2.95-2.95Z"/>
  <path d="m66.04,68.24c-.39,0-.7-.31-.7-.7l-.02-9.22c-.17-1.78-.85-4.23-4.7-4.23s-4.52,2.45-4.7,4.29l-.02,2.17v7c0,.39-.31.7-.7.7s-.7-.31-.7-.7l.02-9.24c.44-4.65,3.56-5.62,6.1-5.62s5.65.96,6.09,5.56l.02,2.29v7.01c0,.39-.31.7-.7.7Z"/>
  <path d="m60.62,71.05c-3.43,0-6.11-1.56-6.11-3.56,0-.39.31-.7.7-.7s.7.31.7.7c0,1.02,1.94,2.16,4.71,2.16s4.71-1.14,4.71-2.16c0-.39.31-.7.7-.7s.7.31.7.7c0,2-2.69,3.56-6.11,3.56Z"/>
  <path d="m60.59,50.3c-2.4,0-4.35-1.95-4.35-4.34s1.95-4.35,4.35-4.35,4.34,1.95,4.34,4.35-1.95,4.34-4.34,4.34Zm0-7.29c-1.62,0-2.95,1.32-2.95,2.95s1.32,2.94,2.95,2.94,2.94-1.32,2.94-2.94-1.32-2.95-2.94-2.95Z"/>
  <g>
    <path d="m19.1,38.57s-.01,0-.02,0c-.39-.01-.69-.33-.68-.72.02-.51.07-1.07.16-1.67.06-.38.41-.64.8-.59.38.06.64.42.59.8-.08.54-.13,1.05-.15,1.51-.01.38-.32.68-.7.68Z"/>
    <path d="m19.86,34.32c-.07,0-.13,0-.2-.03-.37-.11-.58-.5-.47-.87.27-.89.6-1.78.98-2.65.16-.35.57-.51.92-.36.35.16.51.57.36.92-.36.81-.67,1.65-.92,2.49-.09.3-.37.5-.67.5Zm2.21-5c-.12,0-.25-.03-.36-.1-.33-.2-.44-.63-.24-.96.48-.81,1.02-1.59,1.59-2.33.24-.3.67-.36.98-.12.31.24.36.68.12.98-.54.69-1.04,1.43-1.49,2.19-.13.22-.36.34-.6.34Zm3.35-4.32c-.18,0-.36-.07-.5-.21-.27-.27-.27-.72,0-.99.66-.66,1.38-1.29,2.12-1.87.3-.24.75-.18.98.12.24.31.18.75-.12.98-.7.54-1.36,1.13-1.99,1.75-.14.14-.32.21-.5.21Z"/>
    <path d="m29.75,21.64c-.24,0-.47-.12-.6-.34-.2-.33-.09-.76.24-.96.46-.28.95-.54,1.45-.79.34-.17.77-.04.94.31s.04.77-.31.94c-.47.24-.92.49-1.36.75-.11.07-.24.1-.36.1Z"/>
  </g>
  <g>
    <path d="m61.16,38.57c-.38,0-.69-.3-.7-.68-.02-.46-.07-.97-.15-1.51-.06-.38.2-.74.58-.8.39-.06.74.2.8.58.09.59.15,1.15.16,1.67.01.39-.29.71-.68.72,0,0-.02,0-.02,0Z"/>
    <path d="m60.39,34.32c-.3,0-.58-.2-.67-.5-.25-.84-.56-1.67-.92-2.49-.16-.35,0-.77.36-.92.35-.15.77,0,.92.36.38.86.71,1.75.98,2.65.11.37-.1.76-.47.87-.07.02-.14.03-.2.03Zm-2.21-5c-.24,0-.47-.12-.6-.34-.45-.76-.96-1.5-1.49-2.19-.24-.31-.18-.75.12-.98.31-.24.74-.18.98.12.57.74,1.11,1.52,1.59,2.33.2.33.09.76-.24.96-.11.07-.24.1-.36.1Zm-3.35-4.32c-.18,0-.36-.07-.5-.21-.62-.62-1.29-1.21-1.99-1.75-.31-.24-.36-.68-.12-.98.24-.3.68-.36.98-.12.74.58,1.46,1.2,2.12,1.87.27.27.27.72,0,.99-.14.14-.32.21-.5.21Z"/>
    <path d="m50.51,21.64c-.12,0-.25-.03-.36-.1-.44-.26-.89-.51-1.36-.75-.35-.17-.48-.6-.31-.94s.59-.48.94-.31c.5.25.98.52,1.45.79.33.2.44.63.24.96-.13.22-.36.34-.6.34Z"/>
  </g>
  <g>
    <path d="m29.49,51.1c-.1,0-.2-.02-.29-.06-.53-.24-1.03-.5-1.48-.76-.33-.19-.45-.62-.25-.96.19-.33.62-.45.96-.25.41.24.87.48,1.36.7.35.16.51.58.34.93-.12.26-.37.41-.64.41Z"/>
    <path d="m40.5,53.44c-.64,0-1.26-.02-1.87-.06-.39-.03-.68-.36-.65-.75.03-.39.36-.69.75-.65.99.07,2.02.08,3.08.03.38,0,.71.28.74.66.02.39-.28.71-.66.74-.46.02-.92.04-1.38.04Zm4.49-.4c-.33,0-.63-.24-.69-.58-.07-.38.18-.74.56-.81,1.01-.18,2.02-.43,2.98-.74.36-.12.76.08.88.45.12.37-.08.76-.45.88-1.02.33-2.09.59-3.16.79-.04,0-.08.01-.12.01Zm-9.45-.06s-.09,0-.13-.01c-1.07-.2-2.13-.46-3.15-.77-.37-.11-.58-.5-.46-.87.11-.37.5-.58.87-.46.97.3,1.98.55,3,.74.38.07.63.44.56.82-.06.34-.36.57-.69.57Z"/>
    <path d="m51.02,51.1c-.26,0-.51-.15-.63-.4-.17-.35-.02-.77.33-.93.46-.22.92-.46,1.38-.71.34-.19.76-.07.95.27.19.34.07.76-.27.95-.49.27-.97.52-1.46.75-.1.05-.2.07-.3.07Z"/>
  </g>
</svg>