<svg width="471" height="216" viewBox="0 0 471 216" fill="none" xmlns="http://www.w3.org/2000/svg">
<path d="M293.112 35.5002L287.929 20.5053C286.808 17.2821 285.547 11.5364 285.547 11.5364H285.407C285.407 11.5364 284.146 17.1419 283.026 20.5053L277.842 35.5002H293.112ZM258.09 50.4952H259.491C260.892 50.4952 261.592 50.2149 262.152 48.6733L279.804 0.185059H291.291L308.942 48.6733C309.503 50.2149 310.063 50.4952 311.604 50.4952H313.005V59.8845H306.421C302.218 59.8845 300.677 58.7634 299.416 54.9796L295.774 44.6093H275.601L271.959 54.9796C270.558 58.7634 269.157 59.8845 264.954 59.8845H258.37V50.4952H258.09Z" fill="#262626"/>
<path d="M341.723 51.8962C347.607 51.8962 352.51 47.1315 352.51 38.583C352.51 30.4549 348.167 25.1296 341.863 25.1296C336.26 25.1296 331.076 29.1936 331.076 38.7231C331.216 45.3097 334.719 51.8962 341.723 51.8962ZM320.85 27.9324C320.85 26.6711 320.149 26.1106 319.029 26.1106H315.667V17.0015H325.193C329.115 17.0015 330.516 18.8233 330.516 21.0655V22.7472H330.656C330.656 22.7472 334.298 15.8804 344.245 15.8804C355.872 15.8804 363.297 24.9894 363.297 38.3027C363.297 51.8962 354.892 60.725 343.684 60.725C335.139 60.725 331.356 55.1194 331.356 55.1194H331.216C331.216 55.1194 331.356 56.661 331.356 58.7631V76.5608H320.71V27.9324H320.85Z" fill="#262626"/>
<path d="M393.976 51.8962C399.86 51.8962 404.763 47.1315 404.763 38.583C404.763 30.4549 400.421 25.1296 394.117 25.1296C388.513 25.1296 383.33 29.1936 383.33 38.7231C383.33 45.3097 386.832 51.8962 393.976 51.8962ZM372.963 27.9324C372.963 26.6711 372.263 26.1106 371.142 26.1106H367.78V17.0015H377.306C381.228 17.0015 382.629 18.8233 382.629 21.0655V22.7472H382.769C382.769 22.7472 386.412 15.8804 396.358 15.8804C407.985 15.8804 415.41 24.9894 415.41 38.3027C415.41 51.8962 407.005 60.725 395.798 60.725C387.252 60.725 383.47 55.1194 383.47 55.1194H383.33C383.33 55.1194 383.47 56.661 383.47 58.7631V76.5608H372.823L372.963 27.9324Z" fill="#262626"/>
<path d="M425.356 46.2911C425.356 46.2911 430.82 52.5974 438.104 52.5974C441.326 52.5974 443.848 51.196 443.848 48.3932C443.848 42.3672 421.294 42.3672 421.294 28.4934C421.294 19.9449 428.998 16.021 437.964 16.021C443.708 16.021 452.954 17.983 452.954 24.9899V29.4744H443.568V27.3723C443.568 25.4103 440.486 24.2892 438.244 24.2892C434.462 24.2892 431.8 25.6906 431.8 28.2131C431.8 34.9398 454.635 33.5384 454.635 47.8327C454.635 55.9608 447.49 61.0058 438.104 61.0058C426.337 61.0058 420.313 53.2981 420.313 53.2981L425.356 46.2911Z" fill="#262626"/>
<path d="M265.514 105.149H260.191V96.6009H265.514V95.3397C265.514 81.3257 277.002 79.5039 283.025 79.5039C285.267 79.5039 286.668 79.7842 286.668 79.7842V88.8933C286.668 88.8933 285.687 88.7531 284.426 88.7531C281.344 88.7531 276.161 89.4538 276.161 95.7601V96.7411H285.267V105.29H276.161V139.624H265.514V105.149Z" fill="#262626"/>
<path d="M310.063 131.356C317.068 131.356 322.811 126.03 322.811 118.042C322.811 110.195 317.068 104.729 310.063 104.729C303.199 104.729 297.315 110.195 297.315 118.042C297.455 126.03 303.199 131.356 310.063 131.356ZM310.063 95.6201C323.232 95.6201 333.598 105.009 333.598 118.042C333.598 131.216 323.232 140.465 310.063 140.465C297.035 140.465 286.668 131.216 286.668 118.042C286.668 104.869 297.035 95.6201 310.063 95.6201Z" fill="#262626"/>
<path d="M343.264 107.532C343.264 106.271 342.564 105.71 341.443 105.71H338.081V96.6011H347.887C351.67 96.6011 353.631 98.1426 353.631 101.786V104.309C353.631 105.85 353.491 106.971 353.491 106.971H353.631C355.592 100.805 360.635 95.9004 367.22 95.9004C368.2 95.9004 369.181 96.0405 369.181 96.0405V106.691C369.181 106.691 368.06 106.551 366.519 106.551C362.036 106.551 356.713 109.214 354.892 115.52C354.331 117.622 353.911 120.004 353.911 122.527V139.484H343.264V107.532Z" fill="#262626"/>
<path d="M290.591 154.198C305.16 154.198 312.305 161.766 312.305 161.766L306.141 169.614C306.141 169.614 299.977 164.288 290.871 164.288C280.504 164.288 271.679 172.416 271.679 184.609C271.679 197.642 280.645 205.629 291.291 205.629C300.817 205.629 306.421 199.463 306.421 199.463V194.979C306.421 193.718 305.721 193.157 304.6 193.157H300.958V183.768H310.624C314.686 183.768 316.367 185.449 316.367 189.373V214.879H306.981V212.076C306.981 210.815 307.121 209.553 307.121 209.553H306.981C306.981 209.553 300.537 216 289.47 216C273.78 216 260.472 204.088 260.472 184.749C260.192 167.652 273.22 154.198 290.591 154.198Z" fill="#262626"/>
<path d="M345.225 206.891C352.23 206.891 357.974 201.566 357.974 193.578C357.974 185.73 352.23 180.264 345.225 180.264C338.361 180.264 332.477 185.73 332.477 193.578C332.477 201.566 338.221 206.891 345.225 206.891ZM345.225 171.015C358.394 171.015 368.76 180.404 368.76 193.437C368.76 206.611 358.394 215.86 345.225 215.86C332.197 215.86 321.83 206.611 321.83 193.437C321.69 180.404 332.197 171.015 345.225 171.015Z" fill="#262626"/>
<path d="M395.798 206.891C402.802 206.891 408.546 201.566 408.546 193.578C408.546 185.73 402.802 180.264 395.798 180.264C388.933 180.264 383.05 185.73 383.05 193.578C383.19 201.566 388.933 206.891 395.798 206.891ZM395.798 171.015C408.966 171.015 419.333 180.404 419.333 193.437C419.333 206.611 408.966 215.86 395.798 215.86C382.769 215.86 372.403 206.611 372.403 193.437C372.403 180.404 382.769 171.015 395.798 171.015Z" fill="#262626"/>
<path d="M455.336 193.438C455.336 186.851 451.834 180.265 444.689 180.265C438.805 180.265 433.902 185.029 433.902 193.578C433.902 201.706 438.245 207.031 444.549 207.031C450.012 207.031 455.336 202.967 455.336 193.438ZM442.588 171.015C451.974 171.015 454.916 176.201 454.916 176.201H455.056C455.056 176.201 454.916 175.08 454.916 173.678V166.111C454.916 164.849 454.215 164.289 453.094 164.289H449.732V155.18H459.959C463.881 155.18 465.702 157.001 465.702 160.925V204.088C465.702 205.21 466.403 205.91 467.524 205.91H470.746V214.879H460.939C457.017 214.879 455.616 213.057 455.616 210.535V208.993H455.476C455.476 208.993 451.974 216 442.167 216C430.54 216 423.115 206.891 423.115 193.578C423.115 179.844 431.24 171.015 442.588 171.015Z" fill="#262626"/>
<path d="M91.523 104.869H11.392C5.64829 104.869 0.885254 100.104 0.885254 94.3588V14.0588C0.885254 8.31308 5.64829 3.54834 11.392 3.54834H91.523C97.2667 3.54834 102.03 8.31308 102.03 14.0588V94.2186C102.03 100.104 97.2667 104.869 91.523 104.869Z" fill="#59B246"/>
<path d="M198.972 212.216H118.701C112.957 212.216 108.194 207.451 108.194 201.705V121.405C108.194 115.66 112.957 110.895 118.701 110.895H198.832C204.575 110.895 209.338 115.66 209.338 121.405V201.565C209.478 207.451 204.715 212.216 198.972 212.216Z" fill="#3897C6"/>
<path d="M95.4457 158.122H61.404C57.7617 158.122 54.8198 155.179 54.8198 151.535V117.482C54.8198 113.838 57.7617 110.895 61.404 110.895H95.4457C99.0881 110.895 102.03 113.838 102.03 117.482V151.535C102.03 155.179 99.0881 158.122 95.4457 158.122Z" fill="#C13E3E"/>
<path d="M95.4457 212.216H61.404C57.7617 212.216 54.8198 209.273 54.8198 205.63V171.576C54.8198 167.932 57.7617 164.989 61.404 164.989H95.4457C99.0881 164.989 102.03 167.932 102.03 171.576V205.63C102.03 209.273 99.0881 212.216 95.4457 212.216Z" fill="#F0AD4E"/>
<path d="M41.371 158.122H7.32932C3.68699 158.122 0.745117 155.179 0.745117 151.535V117.482C0.745117 113.838 3.68699 110.895 7.32932 110.895H41.371C45.0134 110.895 47.9552 113.838 47.9552 117.482V151.535C47.9552 155.179 45.0134 158.122 41.371 158.122Z" fill="#3897C6"/>
<path d="M41.371 212.216H7.32932C3.68699 212.216 0.745117 209.273 0.745117 205.63V171.576C0.745117 167.932 3.68699 164.989 7.32932 164.989H41.371C45.0134 164.989 47.9552 167.932 47.9552 171.576V205.63C47.9552 209.273 45.0134 212.216 41.371 212.216Z" fill="#59B246"/>
<path d="M202.894 50.7754H168.852C165.21 50.7754 162.268 47.8324 162.268 44.1888V10.1349C162.268 6.49127 165.21 3.54834 168.852 3.54834H202.894C206.536 3.54834 209.478 6.49127 209.478 10.1349V44.1888C209.478 47.6923 206.536 50.7754 202.894 50.7754Z" fill="#C13E3E"/>
<path d="M202.894 104.869H168.852C165.21 104.869 162.268 101.926 162.268 98.2826V64.2287C162.268 60.585 165.21 57.6421 168.852 57.6421H202.894C206.536 57.6421 209.478 60.585 209.478 64.2287V98.2826C209.478 101.786 206.536 104.869 202.894 104.869Z" fill="#59B246"/>
<path d="M148.82 104.869H114.778C111.136 104.869 108.194 101.926 108.194 98.2826V64.2287C108.194 60.585 111.136 57.6421 114.778 57.6421H148.82C152.462 57.6421 155.404 60.585 155.404 64.2287V98.2826C155.404 101.786 152.462 104.869 148.82 104.869Z" fill="#F0AD4E"/>
<path d="M127.106 24.4291H110.155C109.034 24.4291 108.194 23.5883 108.194 22.4672V5.51029C108.194 4.38918 109.034 3.54834 110.155 3.54834H127.106C128.227 3.54834 129.067 4.38918 129.067 5.51029V22.4672C129.067 23.4482 128.227 24.4291 127.106 24.4291Z" fill="#3897C6"/>
<path d="M154.003 24.4291H137.052C135.931 24.4291 135.091 23.5883 135.091 22.4672V5.51029C135.091 4.38918 135.931 3.54834 137.052 3.54834H154.003C155.124 3.54834 155.964 4.38918 155.964 5.51029V22.4672C155.964 23.4482 155.124 24.4291 154.003 24.4291Z" fill="#F0AD4E"/>
<path d="M127.106 51.3359H110.155C109.034 51.3359 108.194 50.495 108.194 49.3739V32.417C108.194 31.2959 109.034 30.4551 110.155 30.4551H127.106C128.227 30.4551 129.067 31.2959 129.067 32.417V49.3739C129.067 50.3549 128.227 51.3359 127.106 51.3359Z" fill="#C13E3E"/>
<path d="M154.003 51.3359H137.052C135.931 51.3359 135.091 50.495 135.091 49.3739V32.417C135.091 31.2959 135.931 30.4551 137.052 30.4551H154.003C155.124 30.4551 155.964 31.2959 155.964 32.417V49.3739C155.964 50.3549 155.124 51.3359 154.003 51.3359Z" fill="#3897C6"/>
</svg>
