<svg width="24" height="24" viewBox="0 0 24 24" fill="none" xmlns="http://www.w3.org/2000/svg">
<path d="M8.27263 3.06294C7.31502 3.10812 6.66107 3.26095 6.08939 3.48559C5.49772 3.71617 4.99623 4.02559 4.49727 4.52636C3.9983 5.02712 3.69104 5.52897 3.46208 6.12154C3.2405 6.69448 3.09038 7.34897 3.04807 8.30712C3.00577 9.26527 2.99641 9.57325 3.00109 12.0173C3.00577 14.4614 3.01657 14.7677 3.06302 15.7279C3.10874 16.6853 3.26102 17.3391 3.48566 17.9109C3.7166 18.5026 4.02566 19.0039 4.52661 19.5031C5.02755 20.0022 5.52904 20.3087 6.12305 20.5381C6.69545 20.7593 7.35012 20.9101 8.30809 20.9521C9.26606 20.994 9.5744 21.0037 12.0177 20.9991C14.4611 20.9944 14.7687 20.9836 15.7287 20.938C16.6886 20.8925 17.339 20.7391 17.911 20.5156C18.5027 20.2841 19.0043 19.9756 19.5031 19.4744C20.0019 18.9733 20.309 18.4711 20.5378 17.8782C20.7595 17.3058 20.9102 16.6511 20.9518 15.6939C20.9937 14.7332 21.0036 14.4265 20.9989 11.9828C20.9943 9.53905 20.9833 9.23269 20.9377 8.27292C20.8922 7.31315 20.7397 6.66136 20.5153 6.08914C20.284 5.49747 19.9753 4.99652 19.4745 4.49702C18.9737 3.99751 18.4712 3.69061 17.8784 3.46237C17.3057 3.24079 16.6514 3.08976 15.6934 3.04836C14.7354 3.00696 14.4271 2.99634 11.9828 3.00102C9.53858 3.0057 9.23258 3.01614 8.27263 3.06294ZM8.37775 19.333C7.50024 19.2948 7.02378 19.149 6.70625 19.0269C6.28577 18.8649 5.98624 18.6691 5.6698 18.3557C5.35336 18.0423 5.15896 17.7417 4.99479 17.3222C4.87149 17.0046 4.72299 16.5287 4.68195 15.6512C4.63731 14.7028 4.62795 14.418 4.62273 12.0152C4.61751 9.61231 4.62669 9.32791 4.66827 8.37912C4.70571 7.50233 4.85241 7.02533 4.97427 6.70798C5.13628 6.28696 5.3314 5.98798 5.6455 5.67171C5.9596 5.35545 6.25931 5.16069 6.67925 4.99652C6.99641 4.87268 7.47234 4.72544 8.34949 4.68368C9.29864 4.63868 9.58304 4.62968 11.9855 4.62446C14.388 4.61924 14.6731 4.62824 15.6226 4.67C16.4994 4.70816 16.9766 4.85342 17.2936 4.976C17.7143 5.13801 18.0136 5.33259 18.3299 5.64723C18.6461 5.96187 18.8411 6.2605 19.0052 6.68134C19.1293 6.99761 19.2765 7.47335 19.3179 8.35104C19.3631 9.30019 19.3733 9.58477 19.3777 11.9871C19.382 14.3894 19.3735 14.6747 19.3319 15.6231C19.2936 16.5006 19.1482 16.9773 19.0259 17.2952C18.8639 17.7155 18.6686 18.0152 18.3544 18.3312C18.0401 18.6473 17.7407 18.8421 17.3206 19.0063C17.0038 19.1299 16.5273 19.2775 15.6509 19.3193C14.7018 19.3639 14.4174 19.3733 12.014 19.3785C9.61058 19.3837 9.32708 19.374 8.37793 19.333H8.37775ZM15.7148 7.18985C15.7158 7.78632 16.2001 8.26905 16.7966 8.26805C17.3931 8.26706 17.8758 7.78272 17.8748 7.18624C17.8738 6.58977 17.3895 6.10704 16.793 6.10804L16.7927 6.10804C16.1963 6.10923 15.7138 6.59351 15.7148 7.18985ZM7.37892 12.009C7.38396 14.5615 9.45686 16.6259 12.0087 16.621C14.5606 16.6162 16.6265 14.5435 16.6217 11.991C16.6168 9.43861 14.5434 7.37363 11.9911 7.37867C9.43886 7.38371 7.37406 9.45697 7.37892 12.009ZM9.00002 12.0058C8.99674 10.3489 10.3373 9.00306 11.9942 8.99978C13.6511 8.9965 14.9969 10.337 15.0002 11.9939C15.0035 13.6508 13.6629 14.9967 12.006 14.9999C10.3493 15.0034 9.0035 13.6632 9.00002 12.0065L9.00002 12.0058" fill="url(#paint0_linear_20150_47780)"/>
<defs>
<linearGradient id="paint0_linear_20150_47780" x1="-1.35938" y1="0.749984" x2="26.407" y2="12.5452" gradientUnits="userSpaceOnUse">
<stop stop-color="#0078C2"/>
<stop offset="0.442152" stop-color="#0047FF"/>
<stop offset="0.899987" stop-color="#8453D2"/>
</linearGradient>
</defs>
</svg>
