<svg width="24" height="24" viewBox="0 0 24 24" fill="none" xmlns="http://www.w3.org/2000/svg">
<path d="M21 13.6153V20H17.1412V14.0432C17.1412 12.5475 16.584 11.5261 15.1869 11.5261C14.1206 11.5261 13.4872 12.2138 13.2075 12.8796C13.1059 13.1176 13.0797 13.448 13.0797 13.7818V19.9997H9.22063C9.22063 19.9997 9.27243 9.9109 9.22063 8.86657H13.08V10.4442C13.0723 10.4567 13.0613 10.4688 13.0544 10.4807H13.08V10.4442C13.5929 9.68729 14.5074 8.60515 16.5578 8.60515C19.0966 8.60515 21 10.1963 21 13.6153ZM5.18367 3.5C3.86362 3.5 3 4.33121 3 5.4233C3 6.4922 3.83859 7.34742 5.13302 7.34742H5.15805C6.504 7.34742 7.34086 6.4922 7.34086 5.4233C7.31525 4.33121 6.504 3.5 5.18367 3.5ZM3.22936 20H7.08704V8.86657H3.22936V20Z" fill="url(#paint0_linear_20150_47776)"/>
<defs>
<linearGradient id="paint0_linear_20150_47776" x1="-1.35938" y1="1.4375" x2="25.6229" y2="13.9418" gradientUnits="userSpaceOnUse">
<stop stop-color="#0078C2"/>
<stop offset="0.442152" stop-color="#0047FF"/>
<stop offset="0.899987" stop-color="#8453D2"/>
</linearGradient>
</defs>
</svg>
