<svg width="89" height="89" viewBox="0 0 89 89" fill="none" xmlns="http://www.w3.org/2000/svg">
<path d="M17.9956 60.6853V47.4179C17.9956 46.3977 18.829 45.5688 19.8492 45.5688H27.1912C28.2114 45.5688 29.0403 46.3931 29.0403 47.4179V60.6853H36.4824V34.4329C36.4824 33.4127 37.3068 32.5792 38.3316 32.5792H45.6735C46.6937 32.5792 47.5226 33.4127 47.5226 34.4329V60.6853H54.819V21.8942C54.819 20.874 55.6434 20.0451 56.6682 20.0451H64.0101C65.0303 20.0451 65.8638 20.8695 65.8638 21.8942V65.3172C65.8638 66.9751 64.5202 68.3187 62.8623 68.3187H17.2395C10.5079 68.3187 6.7094 64.8846 4.23628 58.4171C2.78338 54.1222 2 49.5266 2 44.7489C2 21.1382 21.1382 2 44.7489 2C68.3597 2 87.4979 21.1382 87.4979 44.7489C87.4979 68.3597 68.3597 87.4979 44.7489 87.4979C33.8863 87.4979 23.9711 83.4489 16.4333 76.7719" stroke="#FEC010" stroke-width="3" stroke-linecap="round" stroke-linejoin="round"/>
</svg>
