<svg width="88" height="89" viewBox="0 0 88 89" fill="none" xmlns="http://www.w3.org/2000/svg">
<path d="M21.2234 79.5549C27.7844 83.8174 35.6055 86.2918 44.0026 86.2918C52.3998 86.2918 59.7798 83.9574 66.2239 79.9162C67.6054 79.0492 68.4065 77.496 68.33 75.8569C67.9789 68.3615 67.2004 61.4125 65.5984 59.051C62.8399 54.9691 57.7998 54.5041 52.2738 52.8244C50.9687 52.427 49.3757 51.2711 49.0877 48.1917C52.9308 46.0108 55.6038 41.1027 55.6038 35.3998C55.6038 27.6606 50.6897 22.8789 44.6237 22.8789C44.4167 22.8789 44.2096 22.8834 44.0026 22.897C43.7956 22.8834 43.5886 22.8789 43.3816 22.8789C37.3156 22.8789 32.4015 27.6606 32.4015 35.3998C32.4015 41.1027 35.0745 46.0108 38.9176 48.1917C38.6296 51.2711 37.0366 52.427 35.7315 52.8244C30.2055 54.5041 25.1654 54.9691 22.4069 59.051C21.3359 60.6313 20.6339 64.2707 20.1793 68.7498C20.1703 68.8401 20.1613 68.9304 20.1523 69.0162" stroke="#FEC010" stroke-width="3" stroke-linecap="round" stroke-linejoin="round"/>
<path d="M11.8056 71.206L11.7831 71.1834C5.67655 63.8686 2 54.4407 2 44.1458C2 20.8694 20.8057 2 44.0035 2C67.2013 2 86.0071 20.8694 86.0071 44.1458C86.0071 54.671 82.164 64.2976 75.8009 71.6801" stroke="#FEC010" stroke-width="3" stroke-linecap="round" stroke-linejoin="round"/>
<path d="M29.1993 76.7012L21.2207 79.5503L24.5642 87.3528" stroke="#FEC010" stroke-width="3" stroke-linecap="round" stroke-linejoin="round"/>
<path d="M74.4141 63.3225L75.8046 71.7029L84.0532 69.7749" stroke="#FEC010" stroke-width="3" stroke-linecap="round" stroke-linejoin="round"/>
<path d="M20.1803 68.75C19.8023 73.4865 15.5228 74.936 11.7832 71.1837" stroke="#FEC010" stroke-width="3" stroke-linecap="round" stroke-linejoin="round"/>
</svg>
