<svg width="118" height="76" viewBox="0 0 118 76" fill="none" xmlns="http://www.w3.org/2000/svg">
<path d="M30.929 40.6948C30.2329 40.5112 29.5222 40.3132 28.8019 40.0958C27.7239 39.7722 26.4089 38.8206 26.1721 36.2847C29.3482 34.4879 31.5575 30.4497 31.5575 25.7547C31.5575 19.3835 26.9794 15.0024 21.9662 15.0024C16.953 15.0024 12.3798 19.3835 12.3798 25.7547C12.3798 30.4497 14.589 34.4879 17.7652 36.2847C17.5283 38.8206 16.2085 39.7722 15.1305 40.0958C10.5621 41.4821 6.39488 41.8637 4.11792 45.2208C2.98186 46.8969 2.34857 51.3552 2.00533 56.4898C1.91348 57.881 3.02054 59.0596 4.41765 59.0596H38.8718" stroke="#FEC010" stroke-width="3" stroke-linecap="round" stroke-linejoin="round"/>
<path d="M73.9062 59.0597H82.6322C84.0293 59.0597 85.1315 57.8811 85.0445 56.49C84.9768 55.3549 84.8946 54.2439 84.8028 53.1667" stroke="#FEC010" stroke-width="3" stroke-linecap="round" stroke-linejoin="round"/>
<path d="M33.3789 52.2247C33.8623 47.0805 34.6358 42.8588 35.8492 41.0764C38.8127 36.7098 44.2271 36.2123 50.1636 34.4154C51.5656 33.9904 53.2769 32.7538 53.5863 29.4595C49.4578 27.1265 46.5862 21.876 46.5862 15.7753C46.5862 7.49619 52.5324 1.80127 59.0491 1.80127C65.5657 1.80127 71.5119 7.49619 71.5119 15.7753C71.5119 21.876 68.6404 27.1265 64.5119 29.4595C64.8213 32.7538 66.5326 33.9904 67.9346 34.4154C73.8711 36.2123 79.2855 36.7098 82.249 41.0764C83.5301 42.9699 84.3277 47.5973 84.8015 53.1666" stroke="#FEC010" stroke-width="3" stroke-linecap="round" stroke-linejoin="round"/>
<path d="M82.7422 41.9893C84.6856 41.2599 86.9384 40.8107 89.2975 40.0958C90.3756 39.7722 91.6905 38.8206 91.9274 36.2847C88.7512 34.4879 86.542 30.4497 86.542 25.7547C86.542 19.3835 91.12 15.0024 96.1332 15.0024C101.146 15.0024 105.72 19.3835 105.72 25.7547C105.72 30.4497 103.51 34.4879 100.334 36.2847C100.571 38.8206 101.891 39.7722 102.969 40.0958C107.537 41.4821 111.705 41.8637 113.982 45.2208C115.118 46.8969 115.751 51.3552 116.094 56.4898C116.186 57.881 115.079 59.0596 113.682 59.0596H93.8611" stroke="#FEC010" stroke-width="3" stroke-linecap="round" stroke-linejoin="round"/>
<path d="M62.7484 69.2613C62.5986 69.3192 62.4487 69.3675 62.2988 69.411M68.6753 64.0784L71.1263 67.9861" stroke="#FEC010" stroke-width="3" stroke-linecap="round" stroke-linejoin="round"/>
<path d="M73.9071 56.8476L69.416 55.814" stroke="#FEC010" stroke-width="3" stroke-linecap="round" stroke-linejoin="round"/>
<path d="M67.9902 47.0034H67.9951L71.1422 50.1479V50.1528" stroke="#FEC010" stroke-width="3" stroke-linecap="round" stroke-linejoin="round"/>
<path d="M61.2993 44.2163H56.8373L55.8027 48.7037" stroke="#FEC010" stroke-width="3" stroke-linecap="round" stroke-linejoin="round"/>
<path d="M50.1367 46.9792L54.0525 49.4234C54.3329 49.2785 54.6181 49.148 54.913 49.0273" stroke="#FEC010" stroke-width="3" stroke-linecap="round" stroke-linejoin="round"/>
<path d="M49.4259 54.0266C49.3969 54.0846 49.3679 54.1377 49.3438 54.1957" stroke="#FEC010" stroke-width="3" stroke-linecap="round" stroke-linejoin="round"/>
<path d="M46.959 67.9669L48.9507 64.7886M56.8065 73.9033H61.2685L62.1629 70.0246" stroke="#FEC010" stroke-width="3" stroke-linecap="round" stroke-linejoin="round"/>
<path d="M68.844 63.7354C68.7908 63.8513 68.7328 63.972 68.6699 64.0831" stroke="#FEC010" stroke-width="3" stroke-linecap="round" stroke-linejoin="round"/>
<path d="M69.4152 55.8137C69.3911 55.7413 69.3669 55.664 69.3379 55.5916" stroke="#FEC010" stroke-width="3" stroke-linecap="round" stroke-linejoin="round"/>
<path d="M68.971 54.6448C68.9227 54.524 68.8647 54.4033 68.8066 54.2874" stroke="#FEC010" stroke-width="3" stroke-linecap="round" stroke-linejoin="round"/>
<path d="M64.0879 49.4427L67.9892 46.9985V47.0034" stroke="#FEC010" stroke-width="3" stroke-linecap="round" stroke-linejoin="round"/>
<path d="M61.293 44.2212H61.2978L62.3372 48.7134" stroke="#FEC010" stroke-width="3" stroke-linecap="round" stroke-linejoin="round"/>
<path d="M49.4249 54.0265L48.3613 52.3311" stroke="#FEC010" stroke-width="3" stroke-linecap="round" stroke-linejoin="round"/>
<path d="M48.9361 55.1086C48.8491 55.3308 48.7717 55.553 48.6992 55.7801" stroke="#FEC010" stroke-width="3" stroke-linecap="round" stroke-linejoin="round"/>
<path d="M44.1992 61.2671C44.1992 61.2671 44.2092 61.2671 44.2143 61.2671" stroke="#FEC010" stroke-width="3" stroke-linecap="round" stroke-linejoin="round"/>
<path d="M69.3657 62.4409C69.356 62.4747 69.3464 62.5133 69.3319 62.5471C69.3077 62.6293 69.2787 62.7065 69.2449 62.7887C69.1917 62.9384 69.1337 63.0881 69.0708 63.233C69.0031 63.4021 68.9258 63.5712 68.8436 63.7354C68.7904 63.8513 68.7324 63.9672 68.6696 64.0832L71.1157 67.9957L67.9638 71.1451L64.0431 68.6864C63.9078 68.7637 63.7627 68.8314 63.6226 68.899C63.4824 68.9666 63.3373 69.0294 63.1923 69.0922H63.1875C63.0473 69.1502 62.8974 69.2081 62.7524 69.2613C62.6073 69.3144 62.4575 69.3627 62.3076 69.411L62.1674 70.0244L61.2682 73.8983H56.811L55.9698 70.2466L55.7765 69.4013C55.1673 69.2081 54.5824 68.9666 54.0264 68.6768L50.1397 71.1016L50.1203 71.1161L46.9683 67.9667L49.4193 64.0542C49.1196 63.4891 48.8827 62.9046 48.6942 62.3056L44.2176 61.2719H44.2031V56.8136L48.7087 55.7799H48.7135C48.786 55.5529 48.8586 55.3307 48.9456 55.1085C49.0278 54.8863 49.1245 54.6689 49.2211 54.4564C49.2646 54.3695 49.3033 54.2873 49.3468 54.2004C49.3758 54.1424 49.4048 54.0893 49.4338 54.0313L48.3703 52.3311L46.9925 50.1236L50.1445 46.9791L54.0651 49.4281C54.3455 49.2831 54.6259 49.1479 54.9208 49.0271C55.2109 48.9064 55.5057 48.7953 55.8103 48.7035L56.84 44.2258H61.2973L62.3366 48.718C62.3898 48.7325 62.443 48.7518 62.4962 48.7711C62.6073 48.8049 62.7185 48.8436 62.8249 48.8871C62.9603 48.9354 63.0908 48.9885 63.2213 49.0416C63.5162 49.1672 63.8014 49.2976 64.0818 49.4474L67.9831 47.0081L71.1351 50.1574L68.6889 54.07C68.7276 54.1424 68.7614 54.2101 68.7904 54.2825C68.7904 54.2825 68.7904 54.2873 68.7904 54.2922C68.8533 54.4081 68.9065 54.5289 68.9596 54.6496C69.037 54.8138 69.1047 54.9829 69.1675 55.1568C69.2255 55.3017 69.2787 55.4466 69.327 55.5963C69.3512 55.6688 69.3754 55.7461 69.3996 55.8185L73.8906 56.8522V59.0645" stroke="#FEC010" stroke-width="3" stroke-linecap="round" stroke-linejoin="round"/>
</svg>
