<svg width="85" height="90" viewBox="0 0 85 90" fill="none" xmlns="http://www.w3.org/2000/svg">
<path d="M53.9134 11.2176H45.0932C43.6593 11.2176 42.5 12.3769 42.5 13.8108V85.6832C42.5 87.117 43.6593 88.2764 45.0932 88.2764H80.4067C81.8406 88.2764 82.9999 87.117 82.9999 85.6832V13.8108C82.9999 12.3769 81.8406 11.2176 80.4067 11.2176H65.4866V3.80255C65.4866 2.80705 64.6795 2 63.684 2H58.4976C57.5021 2 56.695 2.80705 56.695 3.80255V6.53504" stroke="#FEC010" stroke-width="3" stroke-linecap="round" stroke-linejoin="round"/>
<path d="M9.54613 88.2805H4.09751C2.93814 88.2805 2 87.3423 2 86.183V40.0255C2 38.8661 2.93814 37.928 4.09751 37.928H34.8145C35.9739 37.928 36.9121 38.8661 36.9121 40.0255V86.1789C36.9121 87.3382 35.9739 88.2764 34.8145 88.2764H19.6199C18.1738 88.2764 17.0021 87.1047 17.0021 85.6586V82.6475C17.0021 81.2014 18.1738 80.0297 19.6199 80.0297H67.0514C68.4976 80.0297 69.6692 81.2014 69.6692 82.6475V88.2764" stroke="#FEC010" stroke-width="3" stroke-linecap="round" stroke-linejoin="round"/>
<path d="M59.5951 22.3442H51.668V30.2713H59.5951V22.3442Z" stroke="#FEC010" stroke-width="3" stroke-linecap="round" stroke-linejoin="round"/>
<path d="M73.6302 22.3442H65.7031V30.2713H73.6302V22.3442Z" stroke="#FEC010" stroke-width="3" stroke-linecap="round" stroke-linejoin="round"/>
<path d="M59.5951 36.0601H51.668V43.9872H59.5951V36.0601Z" stroke="#FEC010" stroke-width="3" stroke-linecap="round" stroke-linejoin="round"/>
<path d="M73.6302 36.0601H65.7031V43.9872H73.6302V36.0601Z" stroke="#FEC010" stroke-width="3" stroke-linecap="round" stroke-linejoin="round"/>
<path d="M59.5951 49.7795H51.668V57.7066H59.5951V49.7795Z" stroke="#FEC010" stroke-width="3" stroke-linecap="round" stroke-linejoin="round"/>
<path d="M73.6302 49.7795H65.7031V57.7066H73.6302V49.7795Z" stroke="#FEC010" stroke-width="3" stroke-linecap="round" stroke-linejoin="round"/>
</svg>
