<svg width="300" height="300" viewBox="0 0 300 300" fill="none" xmlns="http://www.w3.org/2000/svg">
<path fill-rule="evenodd" clip-rule="evenodd" d="M174.577 140.685C174.577 140.685 175.496 142.06 177.791 142.06C180.391 142.06 184.749 140.378 191.71 132.966C191.71 132.966 184.291 149.854 168.995 158.946L160.581 151.841L160.353 151.688L151.175 161.468C151.175 161.468 130.374 159.633 121.655 147.026C121.655 147.026 123.031 147.561 124.484 147.561C126.243 147.637 128.154 146.949 128.154 144.045V114.321C128.154 112.793 127.084 111.111 124.79 111.111C122.725 111.187 119.741 112.563 115.689 116.69C107.199 125.477 103.758 133.883 103.758 133.883C103.758 133.883 101.311 121.81 114.082 107.139C126.854 92.4669 136.49 87.1179 146.815 84.3672C146.815 84.3672 138.632 89.1809 138.632 96.3645C138.632 98.5037 138.937 99.879 139.396 100.872C140.008 102.096 140.926 102.554 141.767 102.554C142.455 102.554 143.144 102.247 143.679 101.866V140.913C143.679 140.913 143.908 141.525 144.443 142.288C145.285 143.358 146.737 144.658 149.185 144.658C153.238 144.658 158.515 139.996 158.515 139.996V108.361C158.515 105.151 156.144 101.255 153.697 99.9559C153.697 99.9559 158.897 99.6498 161.423 101.636C161.423 101.636 169.988 91.3201 185.741 88.1878C185.741 88.1878 177.329 98.1976 174.652 103.164C174.192 103.241 174.117 112.563 174.192 121.963C174.27 130.979 174.423 140.072 174.574 140.684L174.577 140.685Z" fill="white"/>
<path fill-rule="evenodd" clip-rule="evenodd" d="M192.938 79.784C181.467 68.169 166.171 61.8276 149.959 61.8276C133.746 61.8276 118.449 68.1697 106.978 79.784C95.5058 91.399 89.1586 106.758 89.1586 123.11C89.1586 139.463 95.5058 154.899 106.978 166.436C118.449 178.05 133.745 184.395 149.959 184.395C166.173 184.395 181.467 177.975 192.938 166.436C204.411 154.821 210.76 139.463 210.76 123.11C210.76 106.758 204.41 91.3222 192.938 79.784V79.784ZM86.3281 123.034C86.3281 87.6539 114.778 59 149.959 59C185.139 59 213.513 87.6539 213.436 123.034C213.436 158.414 184.986 187.068 149.883 187.068C114.779 187.068 86.3288 158.414 86.3288 123.034H86.3281Z" fill="white"/>
<path fill-rule="evenodd" clip-rule="evenodd" d="M117.606 227.492H104.223V239.948H117.835V237.12H107.893V234.981H117.071V232.383H107.893V230.243H117.606V227.492Z" fill="white"/>
<path fill-rule="evenodd" clip-rule="evenodd" d="M136.269 227.492H132.674V236.891H132.599L125.486 227.492H119.902V239.948H123.498V230.625H123.574L130.839 239.948H136.269V227.492Z" fill="white"/>
<path fill-rule="evenodd" clip-rule="evenodd" d="M147.435 227.492H146.9C145.753 227.492 144.759 227.492 143.918 227.568C143.077 227.645 142.388 227.723 141.777 227.874C141.164 228.027 140.706 228.255 140.323 228.561C139.941 228.792 139.711 229.174 139.482 229.631C139.329 230.092 139.176 230.624 139.1 231.312C139.023 231.924 139.023 232.688 139.023 233.606V233.912C139.023 234.751 139.023 235.593 139.1 236.203C139.176 236.891 139.253 237.426 139.482 237.885C139.634 238.344 139.94 238.726 140.323 239.032C140.706 239.338 141.164 239.566 141.777 239.719C142.388 239.87 143.077 239.948 143.918 240.025C144.759 240.101 145.753 240.101 146.9 240.101V240.176H147.205C148.2 240.176 149.041 240.176 149.806 240.101C150.571 240.025 151.182 239.948 151.717 239.795C152.254 239.644 152.712 239.489 153.018 239.26C153.4 239.032 153.631 238.726 153.859 238.42C154.088 238.113 154.241 237.732 154.319 237.275C154.395 236.816 154.47 236.281 154.47 235.669V232.918H146.211V235.287H150.952V235.669C150.952 235.822 150.876 236.05 150.876 236.203C150.876 236.432 150.8 236.51 150.723 236.663C150.647 236.816 150.494 236.891 150.341 236.969C150.188 237.044 149.959 237.044 149.652 237.12C149.423 237.12 149.041 237.197 148.658 237.197H145.141C144.682 237.197 144.223 237.12 143.917 237.044C143.611 236.969 143.306 236.891 143.152 236.738C142.923 236.587 142.77 236.356 142.693 236.128C142.616 235.899 142.54 235.593 142.54 235.212C142.464 234.906 142.464 234.447 142.464 233.912V233.681C142.464 233.149 142.54 232.688 142.54 232.306C142.54 231.924 142.616 231.618 142.693 231.39C142.846 231.161 142.999 230.931 143.152 230.78C143.305 230.702 143.611 230.549 143.917 230.473C144.223 230.396 144.682 230.318 145.141 230.318H147.205C147.97 230.318 148.583 230.318 149.041 230.396C149.499 230.396 149.883 230.473 150.112 230.625C150.418 230.702 150.571 230.855 150.647 231.084C150.723 231.237 150.8 231.467 150.8 231.771V231.924H154.319V231.467C154.319 230.931 154.319 230.396 154.241 230.014C154.164 229.555 154.088 229.249 153.859 228.943C153.706 228.717 153.4 228.41 153.094 228.255C152.712 228.029 152.33 227.874 151.793 227.798C151.335 227.723 150.647 227.645 149.959 227.568C149.271 227.492 148.429 227.492 147.435 227.492H147.435Z" fill="white"/>
<path fill-rule="evenodd" clip-rule="evenodd" d="M174.351 239.943H179.782V227.641H176.261V236.887H176.185L169.072 227.641H163.566V239.943H167.083V230.697H167.161L174.351 239.943Z" fill="white"/>
<path fill-rule="evenodd" clip-rule="evenodd" d="M196.149 239.943V237.193H186.283V235.052H195.461V232.454H186.283V230.314H195.918V227.641H182.688V239.943H196.149Z" fill="white"/>
<path fill-rule="evenodd" clip-rule="evenodd" d="M89.8442 212.895V198.836H83.4194V210.833C83.4194 211.598 83.4194 212.208 83.3432 212.745C83.2669 213.279 83.1914 213.738 83.0382 214.12C82.885 214.501 82.6556 214.808 82.35 215.036C82.0436 215.265 81.5855 215.42 81.126 215.571C80.591 215.648 79.979 215.724 79.2907 215.801C78.5263 215.877 77.6849 215.877 76.6903 215.877H76.1553C75.1607 215.877 74.2431 215.877 73.5548 215.801C72.7897 215.801 72.1784 215.724 71.7196 215.571C71.1832 215.42 70.8019 215.265 70.4956 215.036C70.1899 214.808 69.9605 214.501 69.8074 214.12C69.6542 213.738 69.578 213.279 69.5024 212.745C69.4262 212.208 69.4262 211.598 69.4262 210.833V198.836H63V212.895C63 213.966 63.0762 214.882 63.2301 215.723C63.3832 216.564 63.612 217.252 63.9946 217.864C64.3765 218.398 64.9122 218.933 65.5242 219.315C66.1362 219.696 66.9006 220.002 67.8952 220.233C68.8884 220.461 70.0361 220.614 71.3363 220.69C72.7128 220.767 74.2424 220.843 76.0014 220.843H76.8428C78.6018 220.843 80.1315 220.767 81.5079 220.69C82.8081 220.614 83.9552 220.461 84.949 220.233C85.8674 220.002 86.7087 219.696 87.3201 219.315C88.0083 218.933 88.4678 218.476 88.8497 217.864C89.2322 217.252 89.461 216.564 89.6141 215.723C89.7673 214.882 89.8436 213.966 89.8436 212.895H89.8442Z" fill="white"/>
<path fill-rule="evenodd" clip-rule="evenodd" d="M94.125 220.614H100.397V204.337H100.55L113.168 220.614H122.728V198.836H116.457V215.113H116.38L103.837 198.836H94.125V220.614Z" fill="white"/>
<path fill-rule="evenodd" clip-rule="evenodd" d="M144.219 209.761C143.53 209.836 142.612 209.836 141.543 209.836H133.588V203.647H141.619C142.689 203.647 143.53 203.647 144.219 203.725C144.907 203.802 145.366 203.878 145.748 204.106C146.131 204.259 146.36 204.565 146.436 204.947C146.513 205.329 146.59 205.865 146.59 206.475V206.857C146.59 207.469 146.513 208.004 146.436 208.385C146.284 208.767 146.055 209.073 145.748 209.304C145.366 209.532 144.907 209.685 144.219 209.761V209.761ZM146.666 220.612H152.861V217.174C152.861 216.18 152.783 215.417 152.707 214.805C152.632 214.193 152.477 213.658 152.172 213.277C151.866 212.893 151.484 212.664 151.025 212.436C150.49 212.283 149.878 212.13 149.113 211.977V211.824C149.801 211.673 150.413 211.442 150.873 211.136C151.331 210.83 151.713 210.448 152.019 209.991C152.326 209.532 152.554 208.922 152.707 208.31C152.861 207.698 152.938 206.934 152.938 206.094V205.328C152.938 204.106 152.783 203.037 152.554 202.196C152.326 201.355 151.866 200.668 151.178 200.133C150.566 199.674 149.648 199.292 148.502 199.064C147.354 198.833 145.901 198.758 144.142 198.758H127.164V220.536H133.511V214.498H139.936C140.931 214.498 141.848 214.574 142.536 214.574C143.302 214.651 143.913 214.729 144.372 214.804C144.907 214.955 145.289 215.033 145.595 215.261C145.901 215.416 146.131 215.721 146.284 216.027C146.436 216.333 146.513 216.714 146.59 217.173C146.666 217.708 146.666 218.243 146.666 218.855V220.612V220.612Z" fill="white"/>
<path fill-rule="evenodd" clip-rule="evenodd" d="M157.141 198.836V220.614H180.926V215.648H163.565V211.903H179.625V207.318H163.565V203.649H180.544V198.836H157.141Z" fill="white"/>
<path fill-rule="evenodd" clip-rule="evenodd" d="M197.983 203.342L202.419 212.13H193.397L197.832 203.342H197.983ZM182.23 220.612H189.113L191.102 216.715H204.715L206.704 220.612H213.662L201.809 198.834H193.93L182.23 220.612V220.612Z" fill="white"/>
<path fill-rule="evenodd" clip-rule="evenodd" d="M216.031 198.836V220.614H237.063V215.57H222.456V198.836H216.031Z" fill="white"/>
<path d="M160.813 227.641H157.141V240.02H160.813V227.641Z" fill="white"/>
</svg>
