<?xml version="1.0" encoding="utf-8"?>
<svg version="1.1" id="logo" xmlns="http://www.w3.org/2000/svg" x="0px" y="0px"
	 viewBox="0 0 355.54 22.82" style="enable-background:new 0 0 355.54 22.82;" xml:space="preserve">
<style type="text/css">
	.black{fill:#000000;}
</style>
<g>
	<path class="black" d="M332.24,22.44h2.17L335.63,7c0.09-1.19,0.06-3.14,0.06-3.14h0.06c0,0,0.69,2.04,1.19,3.14l5.18,11.33h2.04
		L349.35,7c0.5-1.13,1.16-3.08,1.16-3.08h0.06c0,0-0.03,1.88,0.06,3.08l1.22,15.44h2.17l-1.76-22.06h-2.23l-5.78,12.96
		c-0.5,1.13-1.1,2.7-1.1,2.7h-0.06c0,0-0.56-1.57-1.07-2.7l-5.77-12.96H334L332.24,22.44z M304.44,14.75c0,4.9,3.45,8.07,8.47,8.07
		c4.99,0,8.41-3.17,8.41-8.07V0.38h-2.16v14.28c0,3.86-2.48,6.15-6.28,6.15c-3.8,0-6.25-2.29-6.25-6.09V0.38h-2.2V14.75z
		 M276.22,14.75c0,4.9,3.45,8.07,8.47,8.07c4.99,0,8.41-3.17,8.41-8.07V0.38h-2.17v14.28c0,3.86-2.48,6.15-6.28,6.15
		s-6.25-2.29-6.25-6.09V0.38h-2.2V14.75z M247.38,22.44h2.17V6.56c0-1.16-0.19-2.98-0.19-2.98h0.06c0,0,1.07,1.88,1.82,2.98
		l11.27,15.88h2.1V0.38h-2.16v15.88c0,1.16,0.19,2.98,0.19,2.98h-0.06c0,0-1.07-1.88-1.82-2.98L249.48,0.38h-2.1V22.44z
		 M233.32,22.44h2.17V0.38h-2.17V22.44z M214.33,22.44h2.17V2.32h7.91V0.38h-18.01v1.95h7.94V22.44z M180.25,22.44h2.17V6.56
		c0-1.16-0.19-2.98-0.19-2.98h0.06c0,0,1.07,1.88,1.82,2.98l11.27,15.88h2.1V0.38h-2.17v15.88c0,1.16,0.19,2.98,0.19,2.98h-0.06
		c0,0-1.07-1.88-1.82-2.98L182.35,0.38h-2.1V22.44z M149.65,11.27c0-5.27,3.99-9.26,8.98-9.26c4.96,0,8.98,3.99,8.98,9.26
		c0,5.4-4.02,9.54-8.98,9.54C153.63,20.81,149.65,16.66,149.65,11.27 M147.39,11.27c0,6.47,4.99,11.55,11.24,11.55
		c6.24,0,11.24-5.09,11.24-11.55c0-6.34-4.99-11.27-11.24-11.27C152.38,0,147.39,4.93,147.39,11.27 M119.27,11.27
		c0,6.43,4.64,11.55,11.17,11.55c5.43,0,8.44-3.42,8.44-3.42l-1.26-1.54c0,0-2.7,2.95-7.16,2.95c-5.24,0-8.94-4.3-8.94-9.57
		c0-5.21,3.7-9.23,8.88-9.23c4.14,0,6.72,2.45,6.72,2.45l1.16-1.6c0,0-2.67-2.86-7.94-2.86C124.04,0,119.27,4.86,119.27,11.27"/>
    <path class="black" d="M73.95,22.44H78l0.94-12.46c0.09-1.47,0.03-3.48,0.03-3.48h0.06c0,0,0.69,2.2,1.22,3.48l3.58,8.63h3.55
		l3.61-8.63c0.53-1.29,1.19-3.45,1.19-3.45h0.06c0,0-0.06,1.98,0.03,3.45l0.94,12.46h4.02L95.45,0.16h-4.33l-4.36,11.02
		c-0.5,1.32-1.1,3.26-1.1,3.26h-0.06c0,0-0.63-1.95-1.13-3.26L80.1,0.16h-4.33L73.95,22.44z M56.37,4.02c0,0,0.47,2.2,0.88,3.45
		l1.98,5.96h-5.84l1.98-5.96c0.44-1.26,0.94-3.45,0.94-3.45H56.37z M62.12,22.44h4.17L58.44,0.16h-4.24l-7.85,22.28h4.17l1.88-5.71
		h7.82L62.12,22.44z M29.1,11.24v-7.6h3.86c2.29,0,3.67,1.48,3.67,3.77c0,2.32-1.38,3.83-3.73,3.83H29.1z M25.05,22.44h4.05v-7.69
		h4.55c4.17,0,7.09-3.01,7.09-7.34s-2.92-7.25-7.09-7.25h-8.6V22.44z M1.51,22.44h13.84v-3.48H5.56v-5.99h7.5V9.48h-7.5V3.64h9.29
		V0.16H1.51V22.44z"/>
</g>
</svg>
