<svg width="264" height="80" viewBox="0 0 264 80" fill="none" xmlns="http://www.w3.org/2000/svg">
<path d="M110 44.1243L100.2 23H95V57H100.2V34.2663L108.2 50.7633H112L119.8 34.2663V57H125V23H119.8L110 44.1243Z" fill="black"/>
<path d="M143.898 47.3607C143.898 51.0984 141.653 52.6721 138.796 52.6721C135.939 52.6721 133.898 51.0984 133.898 47.3607V33H129V48.1475C129 50.9016 129.612 53.0656 131.449 54.8361C132.878 56.2131 134.918 57 137.571 57C138.796 57 140.02 56.8033 141.041 56.4099C142.265 56.0164 143.082 55.2295 144.102 54.4426V56.8033H149V33.1967H144.102V47.3607H143.898Z" fill="black"/>
<path d="M158.5 49.9586V23H154V50.3609C154 53.9822 155.875 57 160.187 57H163V52.7752H160.938C159.063 52.7752 158.5 51.7692 158.5 49.9586Z" fill="black"/>
<path d="M175 33C168.922 33 165 37.4878 165 44.9024C165 53.8781 169.706 57 175.588 57C179.706 57 182.059 55.8293 184.412 53.2927L181.471 50.561C179.706 52.3171 178.333 52.9024 175.784 52.9024C171.863 52.9024 169.706 50.3659 169.706 46.2683H185V44.1219C185 37.6829 181.275 33 175 33ZM169.706 42.9512C169.706 41.5854 169.902 40.8049 170.294 39.8293C170.686 38.8537 171.275 38.0732 172.255 37.6829C173.039 37.0975 174.02 36.9024 175 36.9024C175.98 36.9024 176.961 37.0975 177.745 37.6829C178.529 38.2683 179.314 39.0488 179.706 39.8293C180.098 40.8049 180.294 41.9756 180.294 42.9512H169.706Z" fill="black"/>
<path d="M209.025 40.2948C207.636 39.1156 205.851 38.3295 202.678 37.7399L198.909 37.1503C197.521 36.9538 196.132 36.3642 195.141 35.578C194.744 35.185 194.347 34.7919 194.149 34.2023C193.95 33.6127 193.752 33.0231 193.95 32.4335C193.95 29.4855 196.132 27.3237 200.099 27.3237C202.876 27.3237 205.256 27.9133 207.438 29.8786L210.612 26.7341C207.835 23.9826 204.661 23 200.297 23C193.355 23 188.992 26.9306 188.992 32.8266C188.992 35.578 189.785 37.5434 191.372 39.1156C192.76 40.4913 194.942 41.474 197.719 41.867L201.686 42.4566C203.669 42.6532 204.463 43.0462 205.455 43.8324C206.248 44.6185 206.843 45.7977 206.843 47.3699C206.843 50.5145 204.264 52.4798 199.901 52.4798C196.529 52.4798 193.752 51.6936 191.372 49.3353L188 52.6763C191.174 55.8208 194.744 57 199.901 57C206.843 57 212 53.2659 212 47.1734C211.603 44.2254 210.81 41.867 209.025 40.2948Z" fill="black"/>
<path d="M224 33C220.8 33 218.4 34.1803 216.8 35.7541C214.6 38.1147 214 41.0656 214 45C214 48.9344 214.6 52.082 216.8 54.2459C218.4 55.8197 220.6 57 224 57C227.4 57 229.6 55.8197 231.2 54.2459C233.4 51.8853 234 48.9344 234 45C234 41.0656 233.4 38.1147 231.2 35.7541C229.6 34.1803 227.4 33 224 33ZM227.6 51.4918C227.2 51.8852 226.6 52.2787 226 52.4754C225.4 52.6721 224.8 52.8689 224 52.8689C223.4 52.8689 222.8 52.6721 222 52.4754C221.4 52.2787 220.8 51.8852 220.4 51.4918C219 50.1147 218.8 47.5574 218.8 45C218.8 42.4426 219 39.8853 220.4 38.5082C220.8 38.1148 221.4 37.7213 222 37.5246C222.6 37.3279 223.2 37.1312 223.8 37.1312C224.4 37.1312 225.2 37.1312 225.8 37.5246C226.4 37.7213 227 38.1148 227.4 38.5082C228.8 39.8853 229 42.4426 229 45C229.2 47.5574 229 50.1147 227.6 51.4918Z" fill="black"/>
<path d="M239.71 29.4261V33.2225H237V37.0189H239.71V57H244.355V37.0189H249V33.4223H244.355V30.0255C244.355 28.2272 245.129 27.2281 246.871 27.2281H249V23.0321H246.097C241.645 22.6325 239.71 26.0293 239.71 29.4261Z" fill="black"/>
<path d="M259.475 26H254.754V33.4H252V37.2H254.754V50.4C254.754 53.8 256.721 57 261.246 57H264V52.8H262.033C260.262 52.8 259.475 51.8 259.475 50V37H264V33.4H259.475V26Z" fill="black"/>
<path d="M39.904 0C31.9247 0 24.3444 2.39381 17.7615 6.78242C11.1786 11.171 5.99203 17.355 2.99979 24.7358C0.00755543 32.1167 -0.790386 40.096 0.805473 47.8758C2.40133 55.6556 6.1915 62.6375 11.777 68.223C17.3625 73.8085 24.5439 77.5987 32.1242 79.1945C39.904 80.7904 47.8833 79.9925 55.2641 77.0002C62.645 74.008 68.8289 68.8214 73.2175 62.2385C77.6062 55.6556 80 47.8758 80 40.096C80 29.5234 75.8108 19.3498 68.2305 11.9689C60.4507 4.18913 50.4766 0 39.904 0ZM39.904 76.2023C32.7227 76.2023 25.7408 74.008 19.7563 70.0183C13.7718 66.0287 9.18374 60.2437 6.39099 53.6608C3.59823 47.0779 2.99978 39.697 4.39616 32.7151C5.79254 25.7333 9.18374 19.1503 14.3703 14.1633C19.5568 8.97672 25.9403 5.58552 32.9221 4.18914C39.904 2.79277 47.2849 3.5907 53.8678 6.18397C60.4507 8.97672 66.2357 13.5648 70.2253 19.5493C74.215 25.5338 76.4093 32.5157 76.4093 39.697C76.4093 49.2722 72.6191 58.6478 65.8367 65.4302C58.6554 72.4121 49.4792 76.2023 39.904 76.2023Z" fill="black"/>
<path d="M68.8444 31.7338C65.6381 19.6426 55.6182 14 55.6182 14L54.4158 15.8137L39.9872 38.5856L25.3581 15.8137L24.3561 14C24.3561 14 14.3362 19.6426 11.1299 31.7338C9.92748 35.5627 9.72709 39.5932 10.3283 43.6236C10.9295 47.654 12.1319 51.4829 14.1358 54.9087C17.1418 60.1483 21.7509 64.3802 27.3621 67L29.9673 56.7225C23.9553 53.9012 19.5466 48.0571 19.5466 40.6008C19.5466 36.7719 20.5486 33.1445 22.7529 30.1217L35.378 49.8707H44.7967L57.4217 30.1217C59.4257 33.346 60.6281 36.9734 60.6281 40.6008C60.6281 48.0571 56.2194 53.9012 50.2075 56.7225L52.8126 67C58.4237 64.3802 62.8325 60.1483 66.0389 54.9087C68.0428 51.4829 69.4456 47.654 69.8464 43.6236C70.2472 39.7947 69.8464 35.5627 68.8444 31.7338Z" fill="black"/>
</svg>
