<svg width="198" height="52" viewBox="0 0 198 52" fill="none" xmlns="http://www.w3.org/2000/svg">
<g clip-path="url(#clip0_974_150)">
<path d="M22.0721 11.5375V51.35H15.9049V11.5375H0V5.6875H37.977V11.5375H22.0721Z" fill="black"/>
<path d="M45.2803 51.1875V5.6875H51.4476V51.1875H45.2803Z" fill="black"/>
<path d="M94.618 38.35C94.618 45.9875 89.4246 51.1875 77.577 51.1875H62.159V5.6875H77.2524C88.2885 5.6875 93.1574 10.725 93.1574 17.875C93.1574 22.5875 90.5606 25.8375 85.3672 27.7875C91.3721 29.25 94.618 33.15 94.618 38.35ZM77.7393 11.2125H68.4885V25.35H76.9279C83.4197 25.35 86.9901 22.425 86.9901 18.0375C86.9901 13.65 83.7442 11.2125 77.7393 11.2125ZM77.2524 31.2H68.3262V45.5H78.2262C84.8803 45.5 88.2885 43.0625 88.2885 38.35C88.4508 33.15 83.7442 31.2 77.2524 31.2Z" fill="black"/>
<path d="M134.867 13.975C131.459 11.375 127.239 9.91248 122.533 9.91248C122.37 9.91248 122.37 9.91248 122.37 9.91248C112.47 9.91248 105.816 16.9 105.816 27.95C105.816 39 112.47 46.475 122.37 46.475C127.239 46.3125 131.784 44.6875 135.354 41.925L136.328 48.1C132.27 50.375 127.564 51.8375 122.37 51.8375C109.062 51.8375 99.6492 42.575 99.6492 28.1125C99.6492 13.4875 109.225 4.22498 122.37 4.22498C127.564 4.22498 132.595 5.68748 136.815 7.96248H136.652L134.867 13.975Z" fill="black"/>
<path d="M174.467 7.79998C173.656 7.47498 173.169 6.98748 172.357 6.66248C166.352 18.0375 155.641 31.6875 141.359 39.325C142.17 41.275 143.307 42.9 144.605 44.3625C157.264 34.775 167.326 22.5875 174.143 8.28748C174.143 8.28748 174.467 7.79998 174.467 7.79998Z" fill="black"/>
<path d="M171.708 6.50007C168.949 5.20007 165.541 4.38757 162.133 4.38757C161.971 4.38757 161.971 4.38757 161.808 4.38757C148.338 4.38757 139.087 14.6251 139.087 28.2751C139.087 28.4376 139.087 28.6001 139.087 28.7626C139.087 30.8751 139.412 32.9876 139.898 35.1001V34.9376C153.369 29.2501 165.541 16.9001 171.708 6.50007Z" fill="black"/>
<path d="M174.792 8.125C168.787 23.8875 159.698 37.2125 148.338 48.1C151.908 50.5375 156.29 52 161.159 52C161.321 52 161.646 52 161.808 52C175.279 52.1625 184.692 41.7625 184.692 28.1125C184.692 19.175 180.959 12.025 174.792 8.125Z" fill="black"/>
<path d="M184.692 6.66252C184.692 3.41252 187.288 0.812524 190.534 0.650024C190.534 0.650024 190.534 0.650024 190.697 0.650024C193.78 0.650024 196.377 3.08752 196.377 6.17502V6.50002C196.377 9.75002 193.78 12.35 190.534 12.5125C190.534 12.5125 190.534 12.5125 190.372 12.5125C187.288 12.5125 184.692 10.075 184.692 6.98753V6.66252ZM195.728 6.66252C195.728 6.50002 195.728 6.50002 195.728 6.66252C195.728 3.73752 193.456 1.46252 190.697 1.46252C190.534 1.46252 190.534 1.46252 190.372 1.46252C187.451 1.46252 185.179 3.73752 185.179 6.66252C185.179 9.42502 187.613 11.8625 190.372 11.8625C193.131 11.8625 195.566 9.42502 195.728 6.66252ZM188.262 3.41252H190.859C192.157 3.41252 193.131 3.90002 193.131 5.20002C193.131 5.20002 193.131 5.20002 193.131 5.36252C193.131 6.17502 192.644 6.82502 191.833 7.15002L193.456 9.42503H192.157L190.697 7.31252H189.398V9.42503H188.262V3.41252ZM190.859 6.50002C191.67 6.50002 192.157 6.17502 192.157 5.52502C192.157 4.87502 191.833 4.55002 190.859 4.55002H189.398V6.50002H190.859Z" fill="black"/>
</g>
<defs>
<clipPath id="clip0_974_150">
<rect width="198" height="52" fill="white"/>
</clipPath>
</defs>
</svg>
