<?xml version="1.0" encoding="UTF-8"?><svg id="dark_mode_gradient" xmlns="http://www.w3.org/2000/svg" xmlns:xlink="http://www.w3.org/1999/xlink" viewBox="0 0 80 80"><defs><style>.cls-1{fill:url(#Dark_mode_graident);}</style><linearGradient id="Dark_mode_graident" x1="15.53" y1="-68.45" x2="66.38" y2="-16.52" gradientTransform="translate(0 76.19)" gradientUnits="userSpaceOnUse"><stop offset="0" stop-color="#00fff0"/><stop offset=".45" stop-color="#00f6ff"/><stop offset=".9" stop-color="#b896ff"/></linearGradient></defs><path class="cls-1" d="m70.73,15.32l-.32-1.06c-.06-.21-.22-.38-.43-.46L42.51,3.78l-2.27-.84c-.16-.06-.33-.06-.49,0L10,13.8c-.21.08-.37.24-.43.46l-.32,1.07c-.08.26-1.91,6.61-.77,22.15.41,5.38,2.12,10.69,5.11,15.78,2.36,4.05,5.57,8.03,9.54,11.83,5.56,5.32,11.26,8.95,14.17,10.64.04.02.08.04.12.05l2.27,1.24c.1.06.22.09.34.09s.23-.03.34-.09l2.36-1.29c2.91-1.69,8.61-5.32,14.17-10.64,3.97-3.8,7.18-7.78,9.54-11.83,2.98-5.1,4.7-10.41,5.11-15.79,1.12-15.21-.59-21.48-.79-22.15Zm-.6,22.04c-.39,5.16-2.04,10.27-4.92,15.18-2.29,3.94-5.42,7.82-9.29,11.52-5.45,5.22-11.05,8.78-13.89,10.43l-2.01,1.1-2.01-1.1s-.07-.03-.1-.05c-2.88-1.68-8.42-5.22-13.81-10.38-3.87-3.71-7-7.58-9.29-11.52-2.88-4.91-4.53-10.02-4.92-15.18-1.12-15.28.64-21.39.71-21.64l.22-.73,27.15-9.9,2.03-.75,29.18,10.65.22.73c.08.26,1.86,6.43.74,21.64Zm-51.19-9.37c-1.04.46-2.04.96-2.95,1.48-.34.19-.45.62-.26.96.13.23.37.35.61.35.12,0,.24-.03.35-.09.87-.5,1.82-.97,2.82-1.42.35-.16.51-.57.36-.92-.16-.35-.57-.51-.92-.36Zm6.2-2.14c-1.07.29-2.13.6-3.14.95-.37.13-.56.52-.43.89.1.29.37.47.66.47.08,0,.15-.01.23-.04.97-.33,2-.64,3.04-.92.37-.1.6-.48.5-.86-.1-.37-.48-.6-.86-.5Zm-.8,27.46c-1.1-.32-2.18-.68-3.2-1.08-.36-.14-.77.04-.9.4s.04.77.4.9c1.06.41,2.17.78,3.31,1.11.07.02.13.03.2.03.3,0,.58-.2.67-.5.11-.37-.1-.76-.48-.87Zm6.61,1.45c-1.14-.17-2.26-.38-3.33-.61-.38-.09-.75.16-.83.53-.08.38.16.75.53.83,1.1.24,2.25.45,3.42.63.04,0,.07,0,.11,0,.34,0,.64-.25.69-.59.06-.38-.2-.74-.59-.8Zm.6-30.18c-1.08.15-2.17.33-3.22.54-.38.07-.63.44-.55.82.07.33.36.56.69.56.04,0,.09,0,.14-.01,1.03-.2,2.08-.38,3.14-.52.38-.05.65-.41.6-.79s-.42-.66-.79-.6Zm-13.49,26.3c-.47-.24-.93-.48-1.38-.74-.33-.19-.76-.08-.96.26-.19.33-.08.76.26.96.46.27.94.52,1.44.77.1.05.21.07.31.07.26,0,.5-.14.63-.39.17-.35.03-.77-.31-.94Zm23.23-25.46c1.07.02,2.14.07,3.19.15.02,0,.03,0,.05,0,.36,0,.67-.28.7-.65.03-.38-.26-.72-.65-.75-1.07-.08-2.17-.13-3.26-.15-.38-.02-.71.3-.71.69s.3.71.69.71Zm-28.06,5.88c-.45.34-.88.7-1.27,1.06-.29.26-.31.7-.04.99.14.15.33.23.52.23.17,0,.34-.06.47-.18.37-.33.76-.67,1.18-.99.31-.24.36-.67.13-.98-.23-.3-.67-.36-.98-.13Zm21.62-5.69s.04,0,.06,0c1.04-.08,2.11-.15,3.19-.18.39-.01.69-.33.68-.72-.01-.39-.34-.72-.72-.68-1.1.03-2.2.1-3.26.18-.38.03-.67.37-.64.75.03.37.34.64.7.64Zm9.63,29.65c-1.12.08-2.26.13-3.39.15-.39,0-.69.33-.69.71,0,.38.32.69.7.69h.01c1.15-.02,2.32-.07,3.47-.15.38-.03.67-.36.65-.75-.03-.39-.37-.66-.75-.65Zm17.79-4.56c-.45.24-.92.46-1.41.68-.35.16-.51.58-.35.93.12.26.37.41.64.41.1,0,.2-.02.29-.06.5-.23,1-.47,1.47-.71.34-.18.48-.6.3-.94-.18-.34-.6-.48-.94-.3Zm1.17-21.55c-.92-.5-1.92-.98-2.97-1.42-.35-.15-.77.02-.92.38-.15.36.02.77.38.92,1.01.42,1.96.88,2.85,1.36.11.06.22.08.33.08.25,0,.49-.13.62-.37.18-.34.06-.76-.28-.95Zm-5.71,23.49c-1.03.36-2.12.69-3.23.99-.37.1-.6.48-.5.86.08.31.37.52.68.52.06,0,.12,0,.18-.02,1.15-.3,2.27-.65,3.33-1.02.37-.13.56-.53.43-.89s-.52-.56-.89-.43Zm8.54-21.72c-.31-.23-.75-.16-.98.16-.23.31-.16.75.16.98.43.31.83.63,1.21.95.13.11.29.17.45.17.2,0,.39-.08.53-.25.25-.29.21-.74-.08-.99-.41-.35-.84-.69-1.3-1.02Zm-9.1-2.96c.29,0,.57-.19.67-.48.12-.37-.08-.76-.45-.88-1.01-.33-2.07-.63-3.15-.91-.37-.09-.75.13-.85.51-.09.38.13.75.51.85,1.05.26,2.07.56,3.05.88.07.02.14.04.22.04Zm-6.38-1.59s.09.01.13.01c.33,0,.62-.24.69-.57.07-.38-.18-.75-.56-.82-1.06-.2-2.15-.36-3.23-.5-.38-.05-.73.22-.78.61s.22.73.61.78c1.05.13,2.11.3,3.15.49Zm.41,28.01c-1.08.21-2.21.39-3.34.54-.38.05-.65.4-.6.78.05.35.35.61.69.61.03,0,.06,0,.09,0,1.17-.15,2.32-.34,3.43-.55.38-.07.63-.44.55-.82-.07-.38-.45-.63-.82-.55Zm-13.51,1c-1.13-.04-2.27-.11-3.39-.22-.4-.04-.73.25-.76.63-.04.38.25.73.63.76,1.15.11,2.31.18,3.46.22,0,0,.02,0,.03,0,.38,0,.69-.3.7-.67.01-.39-.29-.71-.67-.72Zm7.98-20.59l-7.82,10.23-3.65-3.12c-.29-.25-.74-.22-.99.08-.25.29-.22.74.08.99l4.21,3.6c.13.11.29.17.46.17.02,0,.05,0,.07,0,.19-.02.37-.12.48-.27l8.27-10.82c.24-.31.18-.75-.13-.98-.31-.24-.75-.18-.98.13Z"/></svg>