<?xml version="1.0" encoding="UTF-8"?><svg id="dark_mode_gradient" xmlns="http://www.w3.org/2000/svg" xmlns:xlink="http://www.w3.org/1999/xlink" viewBox="0 0 80 80"><defs><style>.cls-1{fill:url(#Dark_mode_graident);}</style><linearGradient id="Dark_mode_graident" x1="9.94" y1="14.77" x2="70.06" y2="65.23" gradientUnits="userSpaceOnUse"><stop offset="0" stop-color="#00fff0"/><stop offset=".45" stop-color="#00f6ff"/><stop offset=".9" stop-color="#b896ff"/></linearGradient></defs><path class="cls-1" d="m23.2,39.09s.04,0,.07,0c.36,0,.66-.27.7-.63.09-.99.28-1.97.55-2.92.11-.37-.11-.76-.48-.87-.37-.11-.76.11-.87.48-.3,1.03-.5,2.1-.6,3.17-.04.38.25.73.63.76Zm31.54,9.04c.1.05.21.07.31.07.26,0,.5-.14.63-.39.48-.97.88-1.98,1.17-3.01.11-.37-.11-.76-.48-.87-.38-.11-.76.11-.87.48-.27.95-.63,1.88-1.07,2.77-.17.35-.03.77.31.94Zm-27.71-18.86c-.31-.23-.75-.17-.98.13-.65.86-1.23,1.78-1.71,2.74-.17.35-.03.77.31.94.1.05.21.07.31.07.26,0,.5-.14.63-.39.44-.88.97-1.73,1.57-2.52.23-.31.17-.75-.13-.98Zm30.41,12.36c.05-.54.08-1.09.08-1.63s-.02-1.07-.07-1.6c-.04-.38-.38-.68-.76-.63-.38.04-.67.38-.63.76.04.49.07.98.07,1.47s-.02,1.01-.07,1.5c-.04.38.25.73.63.76.02,0,.04,0,.07,0,.36,0,.66-.27.7-.64Zm-34.3,3.1c.09.31.37.51.67.51.06,0,.13,0,.19-.03.37-.1.59-.49.49-.86-.27-.95-.45-1.93-.53-2.92-.03-.39-.38-.68-.76-.64-.39.03-.67.37-.64.76.09,1.07.29,2.14.58,3.18Zm32.37-9.13c.09.31.37.51.67.51.06,0,.13,0,.19-.03.37-.11.59-.49.48-.86-.29-1.03-.68-2.05-1.16-3.01-.17-.35-.59-.49-.94-.32-.35.17-.49.59-.32.94.44.89.8,1.82,1.07,2.77Zm-1.67,13.97c-.31-.23-.75-.17-.98.13-.6.79-1.27,1.53-2.01,2.2-.29.26-.31.7-.05.99.14.15.33.23.52.23.17,0,.34-.06.47-.18.79-.73,1.53-1.53,2.18-2.39.23-.31.17-.75-.13-.98Zm-.96-19.28c.14.18.35.28.56.28.15,0,.29-.05.42-.14.31-.23.37-.67.14-.98-.65-.86-1.38-1.66-2.17-2.39-.29-.26-.73-.24-.99.04s-.24.73.04.99c.73.67,1.4,1.41,2,2.2Zm-26.89,20.2c.14.18.35.28.56.28.15,0,.29-.05.42-.14.31-.23.37-.67.14-.98-.59-.79-1.12-1.64-1.56-2.53-.17-.34-.59-.49-.94-.32-.35.17-.49.59-.32.94.48.96,1.05,1.89,1.69,2.75Zm16.97,5.34c-.97.18-1.96.27-2.93.27,0,0-.09,0-.1,0-.39,0-.66.31-.66.7s.35.7.74.7c1.08,0,2.16-.1,3.21-.29.38-.07.63-.44.56-.82-.07-.38-.44-.63-.82-.56Zm.29-33.06c-1.06-.2-2.14-.3-3.21-.3h0c-.39,0-.7.31-.7.7s.31.7.7.7c.99,0,1.99.09,2.96.28.04,0,.09.01.13.01.33,0,.62-.24.69-.57.07-.38-.18-.75-.56-.82Zm-6.43-.01c-1.06.19-2.11.49-3.11.88-.36.14-.54.54-.4.91.11.28.37.45.65.45.08,0,.17-.01.25-.05.92-.36,1.88-.63,2.86-.81.38-.07.63-.43.56-.82-.07-.38-.43-.63-.82-.56Zm12.43,2.35c-.91-.57-1.88-1.05-2.89-1.45-.36-.14-.77.04-.91.4-.14.36.04.77.4.91.92.36,1.82.81,2.66,1.33.12.07.24.11.37.11.23,0,.46-.12.6-.33.2-.33.1-.76-.22-.96Zm-.77,28.58c-.84.52-1.74.97-2.66,1.33-.36.14-.54.54-.4.91.11.28.37.45.65.45.08,0,.17-.02.25-.05,1-.39,1.97-.87,2.89-1.44.33-.2.43-.63.23-.96-.2-.33-.63-.43-.96-.23Zm-17.01-.04c-.84-.52-1.63-1.13-2.36-1.8-.29-.26-.73-.25-.99.04-.26.28-.24.73.04.99.79.73,1.66,1.39,2.57,1.96.12.07.24.11.37.11.23,0,.46-.12.59-.33.21-.33.11-.76-.22-.96Zm-.65-28.59c-.91.56-1.78,1.22-2.58,1.94-.29.26-.31.7-.05.99.14.15.33.23.52.23.17,0,.34-.06.47-.18.74-.67,1.54-1.27,2.38-1.79.33-.2.43-.63.23-.96-.2-.33-.63-.43-.96-.23Zm6.16,30.75c-.97-.19-1.94-.46-2.86-.82-.36-.14-.77.04-.91.4-.14.36.04.77.4.91,1,.39,2.04.69,3.11.9.04,0,.09.01.13.01.33,0,.62-.23.69-.57.07-.38-.18-.75-.56-.82Zm16.51-28.63c.18,0,.36-.07.5-.21l6.03-6.03c1.01.8,2.27,1.28,3.65,1.28,3.26,0,5.9-2.65,5.9-5.91s-2.65-5.9-5.9-5.9-5.91,2.65-5.91,5.9c0,1.37.47,2.63,1.26,3.64l-6.03,6.03c-.27.27-.27.72,0,.99.14.14.32.21.5.21Zm10.18-15.37c2.48,0,4.5,2.02,4.5,4.5s-2.02,4.5-4.5,4.5-4.5-2.02-4.5-4.5,2.02-4.5,4.5-4.5Zm0,45.93c-1.38,0-2.64.48-3.65,1.27l-6.3-6.3c-.27-.27-.72-.27-.99,0s-.27.72,0,.99l6.3,6.3c-.79,1-1.27,2.27-1.27,3.65,0,3.26,2.65,5.91,5.91,5.91s5.9-2.65,5.9-5.91-2.65-5.9-5.9-5.9Zm0,10.41c-2.48,0-4.5-2.02-4.5-4.5s2.02-4.5,4.5-4.5,4.5,2.02,4.5,4.5-2.02,4.5-4.5,4.5Zm-37.53-15.32l-6.17,6.17c-1-.79-2.26-1.26-3.64-1.26-3.26,0-5.91,2.65-5.91,5.9s2.65,5.91,5.91,5.91,5.9-2.65,5.9-5.91c0-1.38-.48-2.65-1.27-3.65l6.17-6.17c.27-.27.27-.72,0-.99s-.72-.27-.99,0Zm-9.81,15.32c-2.48,0-4.5-2.02-4.5-4.5s2.02-4.5,4.5-4.5,4.5,2.02,4.5,4.5-2.02,4.5-4.5,4.5Zm0-45.93c1.38,0,2.64-.48,3.65-1.27l5.89,5.89c.14.14.32.21.5.21s.36-.07.5-.21c.27-.27.27-.72,0-.99l-5.89-5.89c.79-1.01,1.27-2.27,1.27-3.65,0-3.26-2.65-5.9-5.9-5.9s-5.91,2.65-5.91,5.9,2.65,5.91,5.91,5.91Zm0-10.41c2.48,0,4.5,2.02,4.5,4.5,0,1.23-.5,2.35-1.3,3.16,0,0-.02,0-.02.02s0,.02-.02.02c-.81.8-1.93,1.3-3.16,1.3-2.48,0-4.5-2.02-4.5-4.5s2.02-4.5,4.5-4.5Z"/></svg>