<svg width="59" height="88" viewBox="0 0 59 88" fill="none" xmlns="http://www.w3.org/2000/svg">
<path d="M47.6743 51.0247C47.6743 48.5452 49.6948 46.5337 52.1813 46.5337C54.6678 46.5337 56.6925 48.5452 56.6925 51.0247V66.8334C56.6925 75.9754 52.1813 72.5189 52.1813 86H22.0259C22.0259 86 23.164 80.3678 22.0259 79.2348C8.47185 73.9146 9.65943 58.4467 2.23706 52.0468C2.73188 48.5986 6.88841 45.1503 12.8263 49.4853C14.8675 51.0206 16.2323 53.4467 17.5024 55.294C17.923 55.9056 18.3312 56.4557 18.756 56.8826C19.1724 57.3096 19.6013 57.6256 20.059 57.7652" stroke="#FEC010" stroke-width="3" stroke-linecap="round" stroke-linejoin="round"/>
<path d="M47.6744 52.4161V49.5425C47.6744 47.0631 45.6539 45.0557 43.1633 45.0557C40.6727 45.0557 38.6562 47.0631 38.6562 49.5425" stroke="#FEC010" stroke-width="3" stroke-linecap="round" stroke-linejoin="round"/>
<path d="M20.6243 26.2791C20.6243 23.7996 22.6448 21.7881 25.1313 21.7881C27.6178 21.7881 29.6424 23.7996 29.6424 26.2791V46.8415C29.6424 45.7659 30.0218 44.7725 30.6568 44.0007C31.4857 42.995 32.7392 42.3505 34.1495 42.3505C36.6401 42.3505 38.6565 44.362 38.6565 46.8415V51.3283" stroke="#FEC010" stroke-width="3" stroke-linecap="round" stroke-linejoin="round"/>
<path d="M20.6243 26.2791C20.6243 23.7996 22.6448 21.7881 25.1313 21.7881C27.6178 21.7881 29.6424 23.7996 29.6424 26.2791V51.0245" stroke="#FEC010" stroke-width="3" stroke-linecap="round" stroke-linejoin="round"/>
<path d="M20.0632 57.7654C20.4426 55.721 20.624 52.7941 20.624 48.4837V38.5371" stroke="#FEC010" stroke-width="3" stroke-linecap="round" stroke-linejoin="round"/>
<path d="M20.624 38.5369C12.4553 36.6321 6.37305 29.3374 6.37305 20.6264C6.37305 10.4663 14.6449 2.23145 24.8547 2.23145C35.0646 2.23145 43.3323 10.4663 43.3323 20.6264C43.3323 29.1362 37.5264 36.2996 29.6422 38.3973V26.2791C29.6422 23.7996 27.6216 21.7881 25.131 21.7881C22.6404 21.7881 20.624 23.7996 20.624 26.2791V30.7865" stroke="#FEC010" stroke-width="3" stroke-linecap="round" stroke-linejoin="round"/>
</svg>
