<?xml version="1.0" encoding="UTF-8"?>
<svg id="Layer_1" data-name="Layer 1" xmlns="http://www.w3.org/2000/svg" viewBox="0 0 80 80">
  <path d="m39.77,55.2c-.08,0-.17,0-.25,0-9.75-.17-10.05-10.24-10.06-10.83-.39-7.34,3.08-14.27,10.32-20.63.29-.25.73-.23.99.06,10.83,12.22,9.58,20.65,9.52,21,0,.04-.79,10.4-10.52,10.4Zm.41-29.94c-6.54,5.93-9.68,12.33-9.32,19.05,0,.01,0,.03,0,.04,0,.38.08,9.3,8.68,9.45.07,0,.15,0,.22,0,8.44,0,9.11-8.78,9.13-9.16.02-.14,1.12-8.01-8.72-19.38Z"/>
  <g>
    <g>
      <path d="m33.26,39.18c-.27,0-.53-.16-.65-.43-.15-.36.02-.77.38-.92.49-.2,1.03-.39,1.6-.54.38-.11.76.12.86.49.1.37-.12.76-.49.86-.51.14-1,.3-1.43.49-.09.04-.18.05-.27.05Z"/>
      <path d="m38,38.11c-.36,0-.67-.28-.7-.64-.03-.39.25-.72.64-.76,1.12-.1,2.3-.1,3.39-.03.39.03.68.36.65.75-.03.39-.39.66-.75.65-1.03-.07-2.13-.06-3.18.03-.02,0-.04,0-.06,0Z"/>
      <path d="m46.06,39.06c-.08,0-.17-.01-.25-.05-.45-.17-.93-.32-1.45-.45-.38-.09-.6-.47-.51-.85.09-.38.48-.61.85-.51.57.14,1.11.31,1.61.5.36.14.54.54.4.9-.11.28-.37.45-.65.45Z"/>
    </g>
    <g>
      <path d="m34.39,45.56c-.07,0-.14,0-.2-.03-.58-.18-1.11-.38-1.58-.6-.35-.16-.5-.58-.34-.93.16-.35.58-.5.93-.34.42.19.89.37,1.4.53.37.11.58.5.47.87-.09.3-.37.5-.67.5Z"/>
      <path d="m39.81,46.31c-.62,0-1.25-.03-1.87-.08-.38-.03-.67-.37-.64-.76.03-.38.36-.67.76-.64,1.19.1,2.41.1,3.56,0,.38-.03.72.25.76.64.03.38-.25.72-.64.76-.63.05-1.28.08-1.93.08Z"/>
      <path d="m45.31,45.54c-.3,0-.58-.19-.67-.49-.11-.37.09-.76.46-.88.51-.16.98-.34,1.4-.54.35-.17.77-.02.93.33.17.35.02.77-.33.93-.48.23-1.01.43-1.58.61-.07.02-.14.03-.21.03Z"/>
    </g>
  </g>
  <path d="m43.09,72.64h-6.17c-1.24,0-2.31-.87-2.55-2.07,0,0,0-.02,0-.03l-1.04-5.22c-.18-.91-.81-1.64-1.7-1.97,0,0-.01,0-.02,0-2.77-.97-5.35-2.45-7.66-4.4-.7-.61-1.66-.79-2.53-.48l-5.11,1.7c-1.19.39-2.48-.1-3.09-1.17l-3.08-5.32c-.61-1.12-.39-2.45.54-3.25l4.03-3.53c.69-.61,1.02-1.57.84-2.44-.27-1.48-.39-2.92-.39-4.45s.13-2.96.39-4.43c.18-.89-.15-1.84-.84-2.46l-4.03-3.53s-.06-.05-.08-.07c-.86-.8-1.05-2.11-.47-3.16l3.09-5.33c.61-1.07,1.91-1.56,3.09-1.17l5.09,1.7c.86.31,1.83.13,2.54-.47,2.31-1.96,4.89-3.44,7.67-4.41.89-.33,1.53-1.06,1.71-1.97l1.05-5.25c.24-1.2,1.31-2.07,2.55-2.07h6.17c1.24,0,2.31.87,2.55,2.07l1.05,5.25c.18.9.81,1.64,1.7,1.97,0,0,.01,0,.02,0,2.77.97,5.35,2.45,7.66,4.4.7.61,1.66.79,2.53.48l5.11-1.7c1.17-.39,2.48.1,3.09,1.17l3.08,5.31s0,.02.01.03c.6,1.08.37,2.44-.55,3.24l-4.03,3.53c-.69.61-1.03,1.57-.85,2.44.27,1.47.39,2.92.39,4.44s-.13,2.96-.39,4.43h0c-.16.91.16,1.84.83,2.45,0,0,0,0,.01.01l4.03,3.53c.92.79,1.15,2.14.56,3.22v.03s-3.1,5.32-3.1,5.32c0,0-.01.02-.02.03-.62,1.05-1.91,1.53-3.08,1.14l-5.09-1.7c-.87-.31-1.83-.13-2.54.47-2.31,1.96-4.89,3.44-7.67,4.41-.89.33-1.53,1.06-1.71,1.97l-1.05,5.25s0,.02,0,.03c-.25,1.19-1.31,2.04-2.54,2.04Zm-7.34-2.32c.12.53.6.92,1.17.92h6.17c.57,0,1.06-.4,1.17-.94,0-.01,0-.02,0-.03l1.04-5.23c.28-1.39,1.25-2.52,2.6-3.01,2.63-.92,5.06-2.32,7.24-4.16,1.08-.92,2.58-1.2,3.9-.73l5.08,1.69c.55.18,1.15-.04,1.44-.54l3.08-5.31s.01-.02.02-.03c.26-.47.16-1.11-.25-1.46l-4.02-3.52s-.04-.03-.05-.05c-1.02-.9-1.51-2.34-1.26-3.72.25-1.39.37-2.76.37-4.18s-.12-2.8-.37-4.18c-.28-1.36.21-2.81,1.3-3.76l4.04-3.54c.42-.36.52-.99.25-1.49h0s-3.07-5.29-3.07-5.29l-.02-.03c-.28-.49-.89-.72-1.44-.54l-5.09,1.69c-1.33.48-2.83.2-3.9-.74-2.17-1.83-4.6-3.23-7.21-4.14-1.37-.5-2.35-1.63-2.62-3.02l-1.05-5.25c-.11-.55-.6-.95-1.17-.95h-6.17c-.57,0-1.07.4-1.17.94l-1.05,5.26c-.28,1.39-1.25,2.52-2.6,3.02-2.63.92-5.06,2.32-7.24,4.16-1.09.92-2.58,1.2-3.9.73l-5.08-1.69c-.55-.18-1.15.04-1.43.54l-3.09,5.33c-.27.48-.17,1.12.24,1.48.03.02.05.05.07.07l3.97,3.47c1.08.96,1.57,2.4,1.29,3.77-.25,1.37-.37,2.74-.37,4.17s.12,2.8.37,4.18c.28,1.36-.21,2.81-1.29,3.76l-4.03,3.53c-.43.37-.53.99-.24,1.51l3.08,5.3c.29.5.89.73,1.44.54l5.09-1.69c1.33-.48,2.83-.2,3.9.74,2.17,1.83,4.6,3.23,7.21,4.14,1.37.5,2.35,1.63,2.62,3.02l1.05,5.25s0,.02,0,.03Zm28.02-26.01h0,0Z"/>
</svg>