<?xml version="1.0" encoding="UTF-8"?>
<svg id="Layer_1" data-name="Layer 1" xmlns="http://www.w3.org/2000/svg" viewBox="0 0 80 80">
  <g>
    <path d="m59.2,34.2c-.39,0-.7-.31-.7-.7v-.9h-.9c-.39,0-.7-.31-.7-.7s.31-.7.7-.7h1.6c.39,0,.7.31.7.7v1.6c0,.39-.31.7-.7.7Z"/>
    <path d="m54.19,32.6h-3.41c-.39,0-.7-.31-.7-.7s.31-.7.7-.7h3.41c.39,0,.7.31.7.7s-.31.7-.7.7Zm-6.82,0h-3.41c-.39,0-.7-.31-.7-.7s.31-.7.7-.7h3.41c.39,0,.7.31.7.7s-.31.7-.7.7Zm-6.83,0h-3.41c-.39,0-.7-.31-.7-.7s.31-.7.7-.7h3.41c.39,0,.7.31.7.7s-.31.7-.7.7Zm-6.82,0h-3.41c-.39,0-.7-.31-.7-.7s.31-.7.7-.7h3.41c.39,0,.7.31.7.7s-.31.7-.7.7Zm-6.82,0h-3.41c-.39,0-.7-.31-.7-.7s.31-.7.7-.7h3.41c.39,0,.7.31.7.7s-.31.7-.7.7Zm-6.82,0h-3.41c-.39,0-.7-.31-.7-.7s.31-.7.7-.7h3.41c.39,0,.7.31.7.7s-.31.7-.7.7Z"/>
    <path d="m11.64,34.2c-.39,0-.7-.31-.7-.7v-1.6c0-.39.31-.7.7-.7h1.6c.39,0,.7.31.7.7s-.31.7-.7.7h-.9v.9c0,.39-.31.7-.7.7Z"/>
    <path d="m11.64,47.14c-.39,0-.7-.31-.7-.7v-3.23c0-.39.31-.7.7-.7s.7.31.7.7v3.23c0,.39-.31.7-.7.7Zm0-6.47c-.39,0-.7-.31-.7-.7v-3.24c0-.39.31-.7.7-.7s.7.31.7.7v3.24c0,.39-.31.7-.7.7Z"/>
    <path d="m13.24,51.97h-1.6c-.39,0-.7-.31-.7-.7v-1.6c0-.39.31-.7.7-.7s.7.31.7.7v.9h.9c.39,0,.7.31.7.7s-.31.7-.7.7Z"/>
    <path d="m54.19,51.97h-3.41c-.39,0-.7-.31-.7-.7s.31-.7.7-.7h3.41c.39,0,.7.31.7.7s-.31.7-.7.7Zm-6.82,0h-3.41c-.39,0-.7-.31-.7-.7s.31-.7.7-.7h3.41c.39,0,.7.31.7.7s-.31.7-.7.7Zm-6.82,0h-3.41c-.39,0-.7-.31-.7-.7s.31-.7.7-.7h3.41c.39,0,.7.31.7.7s-.31.7-.7.7Zm-6.82,0h-3.41c-.39,0-.7-.31-.7-.7s.31-.7.7-.7h3.41c.39,0,.7.31.7.7s-.31.7-.7.7Zm-6.83,0h-3.41c-.39,0-.7-.31-.7-.7s.31-.7.7-.7h3.41c.39,0,.7.31.7.7s-.31.7-.7.7Zm-6.82,0h-3.41c-.39,0-.7-.31-.7-.7s.31-.7.7-.7h3.41c.39,0,.7.31.7.7s-.31.7-.7.7Z"/>
    <path d="m59.2,51.97h-1.6c-.39,0-.7-.31-.7-.7s.31-.7.7-.7h.9v-.9c0-.39.31-.7.7-.7s.7.31.7.7v1.6c0,.39-.31.7-.7.7Z"/>
    <path d="m59.2,47.14c-.39,0-.7-.31-.7-.7v-3.24c0-.39.31-.7.7-.7s.7.31.7.7v3.24c0,.39-.31.7-.7.7Zm0-6.47c-.39,0-.7-.31-.7-.7v-3.23c0-.39.31-.7.7-.7s.7.31.7.7v3.23c0,.39-.31.7-.7.7Z"/>
  </g>
  <path d="m35.24,29.96c-.39,0-.7-.31-.7-.7v-6.52h-17.27v6.52c0,.39-.31.7-.7.7s-.7-.31-.7-.7v-7.22c0-.39.31-.7.7-.7h18.67c.39,0,.7.31.7.7v7.22c0,.39-.31.7-.7.7Z"/>
  <path d="m51.8,29.96c-.39,0-.7-.31-.7-.7V13.22h-7.41v16.03c0,.39-.31.7-.7.7s-.7-.31-.7-.7V12.52c0-.39.31-.7.7-.7h8.81c.39,0,.7.31.7.7v16.73c0,.39-.31.7-.7.7Z"/>
  <path d="m71.18,34.71c-.39,0-.7-.31-.7-.7v-16.56h-18.68c-.39,0-.7-.31-.7-.7s.31-.7.7-.7h19.38c.39,0,.7.31.7.7v17.26c0,.39-.31.7-.7.7Z"/>
  <path d="m16.93,61.13c-.39,0-.7-.31-.7-.7v-6.64c0-.39.31-.7.7-.7s.7.31.7.7v6.64c0,.39-.31.7-.7.7Z"/>
  <path d="m54.27,60.78c-.39,0-.7-.31-.7-.7v-6.29c0-.39.31-.7.7-.7s.7.31.7.7v6.29c0,.39-.31.7-.7.7Z"/>
  <path d="m60.16,68.18c-3.56,0-6.7-2.05-8.12-5.2-1.41,3.14-4.56,5.2-8.12,5.2s-6.72-2.07-8.14-5.25c-1.43,3.17-4.59,5.23-8.15,5.23s-6.71-2.06-8.13-5.23c-1.42,3.17-4.57,5.24-8.13,5.24-3.92,0-7.34-2.49-8.5-6.2-.12-.37.09-.76.46-.88.37-.11.76.09.88.46.98,3.12,3.86,5.22,7.16,5.22s6.17-2.1,7.16-5.22c.13-.39.22-.8.28-1.21.04-.35.33-.61.68-.61.38-.04.65.25.7.59.07.43.16.84.28,1.24.98,3.11,3.86,5.2,7.16,5.2s6.18-2.09,7.18-5.21c.12-.37.21-.75.28-1.15.06-.34.35-.58.69-.58h0c.34,0,.63.25.69.59.08.48.16.82.27,1.13,1,3.15,3.88,5.25,7.17,5.25s6.19-2.1,7.16-5.22c.12-.36.21-.72.26-1.07.05-.34.34-.6.69-.6s.64.26.69.6c.05.34.14.71.25,1.05.98,3.14,3.86,5.24,7.17,5.24s6.19-2.1,7.18-5.22c.12-.37.51-.57.88-.46.37.12.57.51.46.88-1.17,3.71-4.6,6.2-8.51,6.2Z"/>
  <path d="m71.35,44.93c-3.2,0-5.81-2.61-5.81-5.81,0-.39.31-.7.7-.7s.7.31.7.7c0,2.43,1.98,4.41,4.41,4.41s4.41-1.98,4.41-4.41-1.98-4.41-4.41-4.41c-.39,0-.7-.31-.7-.7s.31-.7.7-.7c3.2,0,5.81,2.61,5.81,5.81s-2.61,5.81-5.81,5.81Z"/>
</svg>