<svg width="100" height="100" viewBox="0 0 100 100" fill="none" xmlns="http://www.w3.org/2000/svg">
<path d="M65.1667 86.0106C64.8324 78.6015 64.0911 71.7325 62.5655 69.3982C59.9385 65.3634 55.1388 64.9036 49.8764 63.2433C48.6336 62.8505 47.1166 61.7079 46.8423 58.664C50.502 56.5082 53.0476 51.6566 53.0476 46.0194C53.0476 38.3693 48.3679 33.6427 42.5912 33.6427C42.394 33.6427 42.1969 33.6472 41.9998 33.6606C41.8026 33.6472 41.6055 33.6427 41.4084 33.6427C35.6317 33.6427 30.952 38.3693 30.952 46.0194C30.952 51.6566 33.4975 56.5082 37.1573 58.664C36.883 61.7079 35.366 62.8505 34.1232 63.2433C28.8607 64.9036 24.0611 65.3634 21.4341 69.3982C20.4142 70.9603 19.7456 74.5578 19.3128 78.9853C19.3042 79.0746 19.2957 79.1639 19.2871 79.2487" stroke="#FFC000" stroke-width="3" stroke-miterlimit="10" stroke-linecap="round" stroke-linejoin="round"/>
<path d="M11.3379 81.409C11.3293 81.4001 11.325 81.3956 11.3165 81.3867C5.50118 74.1561 2 64.8368 2 54.6604C2 31.6521 19.9087 13 42 13C64.0913 13 82 31.6521 82 54.6604C82 63.7388 79.2145 72.1387 74.4791 78.981" stroke="#FFC000" stroke-width="3" stroke-miterlimit="10" stroke-linecap="round" stroke-linejoin="round"/>
<path d="M19.313 78.9811C18.953 83.6637 14.8776 85.0966 11.3164 81.3871" stroke="#FFC000" stroke-width="3" stroke-miterlimit="10" stroke-linecap="round" stroke-linejoin="round"/>
</svg>
