<svg width="300" height="300" viewBox="0 0 300 300" fill="none" xmlns="http://www.w3.org/2000/svg">
<g clip-path="url(#clip0_12600_40303)">
<path d="M87.84 162.172C87.84 164.645 87.84 168.55 83.16 168.55C80.3 168.55 79.13 166.988 78.48 164.385C76.01 167.379 72.89 168.941 69.25 168.941C60.02 169.071 53 161.26 53 150.195C53 139.521 60.15 131.32 69.12 131.32C72.76 131.32 76.27 132.751 78.35 135.746C78.61 133.402 80.69 131.71 83.03 131.71C87.71 131.71 87.71 135.615 87.71 138.089C87.84 138.089 87.84 162.172 87.84 162.172ZM70.55 160.089C75.62 160.089 78.09 154.882 78.09 150.195C78.09 145.509 75.75 140.172 70.55 140.172C65.22 140.172 62.88 145.509 62.88 150.195C62.75 154.882 65.22 160.089 70.55 160.089ZM90.57 137.047C90.57 133.793 92.65 131.58 95.51 131.58C98.24 131.58 99.8 133.012 100.45 135.615C102.27 132.621 106.04 131.189 109.68 131.189C120.21 131.189 125.41 141.083 125.41 150.586C125.41 159.828 119.17 168.941 109.29 168.941C106.3 168.941 102.92 167.769 100.32 165.556V177.533C100.32 180.787 98.24 183 95.38 183C92.52 183 90.44 180.787 90.44 177.533L90.57 137.047ZM107.99 160.089C113.06 160.089 115.53 154.751 115.53 150.195C115.53 145.639 113.06 140.172 107.99 140.172C102.79 140.172 100.32 145.118 100.32 149.805C100.32 154.491 102.66 160.089 107.99 160.089ZM138.02 122.337C138.02 125.331 135.55 127.935 132.56 127.935C129.7 127.935 127.1 125.331 127.1 122.337C127.1 119.604 129.7 117 132.56 117C135.42 117 138.02 119.473 138.02 122.337ZM127.62 137.047C127.62 133.793 129.7 131.58 132.56 131.58C135.42 131.58 137.5 133.793 137.5 137.047V163.083C137.5 166.337 135.42 168.55 132.56 168.55C129.7 168.55 127.62 166.337 127.62 163.083V137.047Z" fill="white"/>
<path d="M174.55 165.296C174.55 177.012 166.88 183 155.83 183C151.8 183 140.49 181.047 140.49 175.71C140.49 173.888 142.57 171.414 144.39 171.414C147.51 171.414 151.02 174.408 156.61 174.408C161.29 174.408 164.93 171.675 164.93 166.728V164.385H164.8C162.72 167.379 159.47 168.941 154.92 168.941C144.65 168.941 139.84 159.959 139.84 150.195C139.84 140.302 146.08 131.189 155.96 131.189C159.34 131.189 163.11 132.621 164.93 135.615C165.58 133.012 167.14 131.58 169.87 131.58C172.73 131.58 174.81 133.793 174.81 137.047L174.55 165.296ZM157.13 140.172C152.06 140.172 149.59 145.509 149.59 150.065C149.59 155.272 152.06 160.089 157.13 160.089C162.33 160.089 164.8 155.142 164.8 150.456C164.8 145.769 162.46 140.172 157.13 140.172ZM186.25 153.45C186.9 158.266 190.93 160.479 195.48 160.479C200.55 160.479 203.93 156.574 206.53 156.574C208.61 156.574 210.56 158.657 210.56 160.74C210.56 164.905 201.85 169.071 194.57 169.071C183.52 169.071 176.24 161 176.24 150.326C176.24 140.432 183.39 131.32 193.79 131.32C204.32 131.32 211.34 140.953 211.34 149.154C211.34 152.018 210.04 153.45 207.05 153.45H186.25ZM201.59 146.941C201.07 142.645 198.34 139.521 193.79 139.521C189.5 139.521 186.51 142.905 186.12 146.941H201.59ZM222.91 153.58C223.56 158.397 227.59 160.61 232.14 160.61C237.21 160.61 240.59 156.704 243.19 156.704C245.27 156.704 247.22 158.787 247.22 160.87C247.22 165.036 238.51 169.201 231.23 169.201C220.18 169.201 212.9 161.13 212.9 150.456C212.9 140.562 220.05 131.45 230.45 131.45C240.98 131.45 248 141.083 248 149.284C248 152.148 246.7 153.58 243.71 153.58H222.91ZM238.25 146.941C237.73 142.645 235 139.521 230.45 139.521C226.16 139.521 223.17 142.905 222.78 146.941H238.25Z" fill="white"/>
</g>
<defs>
<clipPath id="clip0_12600_40303">
<rect width="195" height="66" fill="white" transform="translate(53 117)"/>
</clipPath>
</defs>
</svg>
