<svg width="300" height="300" viewBox="0 0 300 300" fill="none" xmlns="http://www.w3.org/2000/svg">
<g clip-path="url(#clip0_12600_40242)">
<path d="M55 182.697H91.9867V188H55V182.697Z" fill="white"/>
<path d="M55 172.598H91.9867V177.9H55V172.598Z" fill="white"/>
<path d="M65.5156 162.498H81.349V167.8H65.5156V162.498Z" fill="white"/>
<path d="M65.5156 152.398H81.349V157.701H65.5156V152.398Z" fill="white"/>
<path d="M65.5156 142.299H81.349V147.601H65.5156V142.299Z" fill="white"/>
<path d="M65.5156 132.199H81.349V137.502H65.5156V132.199Z" fill="white"/>
<path d="M91.9867 122.1H55V127.402H91.9867V122.1Z" fill="white"/>
<path d="M91.9867 112H55V117.302H91.9867V112Z" fill="white"/>
<path d="M97.1797 177.9H154.053C155.066 176.259 155.7 174.491 156.206 172.598H97.1797V177.9Z" fill="white"/>
<path d="M149.62 152.398H107.82V157.701H154.054C152.787 155.681 151.394 153.913 149.62 152.398Z" fill="white"/>
<path d="M107.82 142.299V147.601H149.62C151.394 146.086 152.914 144.319 154.054 142.299H107.82Z" fill="white"/>
<path d="M154.053 122.1H97.1797V127.402H156.08C155.7 125.508 154.94 123.741 154.053 122.1Z" fill="white"/>
<path d="M136.573 112H97.1797V117.302H150.126C146.58 114.02 141.766 112 136.573 112Z" fill="white"/>
<path d="M123.654 132.199H107.82V137.502H123.654V132.199Z" fill="white"/>
<path d="M139.488 137.502H156.082C156.588 135.86 156.842 134.093 156.842 132.199H139.488V137.502Z" fill="white"/>
<path d="M107.82 162.498H123.654V167.8H107.82V162.498Z" fill="white"/>
<path d="M139.488 162.498V167.8H156.715C156.715 166.033 156.462 164.139 155.955 162.498H139.488Z" fill="white"/>
<path d="M97.1797 187.875H136.573C141.893 187.875 146.58 185.855 150.126 182.572H97.1797V187.875Z" fill="white"/>
<path d="M160.516 182.697H186.989V188H160.516V182.697Z" fill="white"/>
<path d="M160.516 172.598H186.989V177.9H160.516V172.598Z" fill="white"/>
<path d="M171.156 162.498H186.99V167.8H171.156V162.498Z" fill="white"/>
<path d="M171.156 152.398H186.99V157.701H171.156V152.398Z" fill="white"/>
<path d="M194.336 122.1H160.516V127.402H196.109L194.336 122.1Z" fill="white"/>
<path d="M190.789 112H160.516V117.302H192.562L190.789 112Z" fill="white"/>
<path d="M218.656 182.697H245.003V188H218.656V182.697Z" fill="white"/>
<path d="M218.656 172.598H245.003V177.9H218.656V172.598Z" fill="white"/>
<path d="M218.656 162.498H234.49V167.8H218.656V162.498Z" fill="white"/>
<path d="M218.656 152.398H234.49V157.701H218.656V152.398Z" fill="white"/>
<path d="M218.656 147.601H234.49V142.299H218.656H204.216L202.823 146.591L201.303 142.299H186.99H171.156V147.601H186.99V142.678L188.636 147.601H216.883L218.656 142.678V147.601Z" fill="white"/>
<path d="M234.488 132.199H207.762L205.988 137.502H234.488V132.199Z" fill="white"/>
<path d="M214.726 112L212.953 117.302H245V112H214.726Z" fill="white"/>
<path d="M202.822 187.873L204.595 182.697H200.922L202.822 187.873Z" fill="white"/>
<path d="M199.275 177.9H206.242L208.142 172.598H197.375L199.275 177.9Z" fill="white"/>
<path d="M195.728 167.8H209.788L211.688 162.498H193.828L195.728 167.8Z" fill="white"/>
<path d="M192.183 157.701H213.337L215.237 152.398H190.41L192.183 157.701Z" fill="white"/>
<path d="M171.156 137.502H199.656L197.756 132.199H171.156V137.502Z" fill="white"/>
<path d="M209.41 127.402H245.003V122.1H211.31L209.41 127.402Z" fill="white"/>
</g>
<defs>
<clipPath id="clip0_12600_40242">
<rect width="190" height="76" fill="white" transform="translate(55 112)"/>
</clipPath>
</defs>
</svg>
