<svg width="300" height="300" viewBox="0 0 300 300" fill="none" xmlns="http://www.w3.org/2000/svg">
<g clip-path="url(#clip0_12600_40242)">
<path fill-rule="evenodd" clip-rule="evenodd" d="M61.2297 175.099H77.0102L85.2038 185.467L83.795 189H63.4079L63.908 185.467L59.1019 177.837L61.2297 175.099ZM72.5218 129.548L80.9785 129.535L118.982 175.136L116.029 189H99.7415L100.755 185.094L65.2429 142.472L72.5218 129.548ZM87.4626 111L105.129 124.975L102.868 127.325L105.931 131.618V136.209L97.1227 143.436L82.311 125.822H73.6881L77.1605 119.417L87.4626 111ZM50.3821 155.76L62.7053 144.981L79.0622 164.791L74.418 172.049H59.3359L48.9023 185.83L46.5187 189H33V172.091L45.6008 155.76H50.3821ZM180.908 169.095C177.85 169.095 176.267 168.597 174.957 167.214C172.991 165.224 172.227 162.459 172.227 153.887C172.227 145.261 172.991 142.551 174.957 140.505C176.212 139.178 177.85 138.68 180.908 138.68H191.117C194.174 138.68 195.758 139.178 197.068 140.505C199.033 142.551 199.798 145.261 199.798 153.887C199.798 162.514 199.034 165.224 197.068 167.214C195.758 168.597 194.174 169.095 191.117 169.095H180.908ZM180.525 162.398H191.499V145.366H180.525V162.398ZM224.619 148.306H224.622V145.483H214.358V148.306H214.36V169.095H206.007V138.681H211.508V138.678H214.329V142.525L218.538 138.678H220.98C221.393 138.64 221.808 138.622 222.222 138.625H225.88C228.446 138.625 230.084 139.178 231.231 140.34C232.486 141.556 232.978 143.16 232.978 147.639V169.095H224.624V148.634C224.624 148.52 224.623 148.411 224.619 148.306ZM159.172 130.271H169.112L154.833 148.572L169.716 169.209H159.172L147.852 152.994L145.167 152.982V169.209H136.216V130.271H145.167V145.365H147.849L159.172 130.271ZM258.594 138.678L267.001 138.68V170.362C267.001 175.614 266.455 176.504 265.09 177.942C263.998 179.104 262.251 179.656 259.193 179.656L246.875 179.63L243.078 175.368L243.066 173.575H258.594L258.579 169.238L247.988 169.231C244.766 169.231 243.142 168.622 241.777 167.295C240.03 165.47 239.32 161.476 239.32 154.01C239.32 146.49 240.194 142.385 241.995 140.505C243.36 139.178 245.108 138.625 248.11 138.625L254.385 138.678L258.594 142.525V138.678V138.678ZM247.673 162.409H258.648V145.365H247.673V162.409Z" fill="white"/>
</g>
<defs>
<clipPath id="clip0_12600_40242">
<rect width="234" height="78" fill="white" transform="translate(33 111)"/>
</clipPath>
</defs>
</svg>
