<svg width="95" height="84" viewBox="0 0 95 84" fill="none" xmlns="http://www.w3.org/2000/svg">
<path d="M74.091 81.9998C73.7095 73.881 72.8634 66.354 71.1222 63.7961C68.1242 59.3748 62.6464 58.871 56.6405 57.0516C55.2221 56.6212 53.4908 55.3692 53.1777 52.0336C57.3545 49.6713 60.2597 44.355 60.2597 38.1778C60.2597 29.7949 54.9189 24.6155 48.326 24.6155C48.101 24.6155 47.8761 24.6204 47.6511 24.6351C47.4261 24.6204 47.2011 24.6155 46.9761 24.6155C40.3833 24.6155 35.0425 29.7949 35.0425 38.1778C35.0425 44.355 37.9477 49.6713 42.1244 52.0336C41.8114 55.3692 40.0801 56.6212 38.6617 57.0516C32.6558 58.871 27.178 59.3748 24.1799 63.7961C23.0159 65.5079 22.2529 69.4499 21.759 74.3016C21.7492 74.3994 21.7394 74.4973 21.7296 74.5902M12.6571 76.962L12.6327 76.9375C5.99582 69.0143 2 58.8023 2 47.6511C2 22.4388 22.4388 2 47.6511 2C72.8634 2 93.3023 22.4388 93.3023 47.6511C93.3023 57.5991 90.1232 66.8037 84.7188 74.3013M21.7599 74.2966C21.349 79.4271 16.6978 80.997 12.6336 76.9327" stroke="url(#paint0_linear_2947_23673)" stroke-width="2.5" stroke-linecap="round" stroke-linejoin="round"/>
<defs>
<linearGradient id="paint0_linear_2947_23673" x1="9.974" y1="45.6529" x2="149.413" y2="123.057" gradientUnits="userSpaceOnUse">
<stop offset="0.0897762" stop-color="#FEC010"/>
<stop offset="0.442152" stop-color="#F06516"/>
<stop offset="0.899987" stop-color="#F03016"/>
</linearGradient>
</defs>
</svg>
