<svg width="56" height="84" viewBox="0 0 56 84" fill="none" xmlns="http://www.w3.org/2000/svg">
<path d="M29.2869 41.1406H29.2822" stroke="url(#paint0_linear_2928_22790)" stroke-width="2.5" stroke-linecap="round" stroke-linejoin="round"/>
<path d="M45.7646 47.9738C45.7646 45.4236 47.955 43.3799 50.5506 43.6245C52.8144 43.8376 54.4982 45.8254 54.4982 48.0996V63.352C54.4982 71.7817 50.5715 69.2001 50.1628 80.0787C50.1209 81.1512 49.2405 82.0001 48.168 82.0001H23.2527C22.0614 82.0001 21.1287 80.9591 21.2684 79.7748C21.3173 79.3521 21.3628 78.9014 21.3872 78.4543C21.4815 76.8473 20.6012 75.3625 19.1689 74.6289C8.36011 69.0953 8.56972 56.0647 2.58543 49.7625C2.03346 49.1791 1.83084 48.3302 2.15573 47.5965C3.38543 44.8332 7.05705 42.8489 12.0108 46.4786C13.9881 47.9738 15.3086 50.3319 16.5383 52.1311C16.947 52.7249 17.3418 53.2629 17.754 53.6752C18.1558 54.0909 18.5715 54.3983 19.0152 54.5311M45.7643 49.326V46.6814C45.7643 44.2779 43.8883 42.2168 41.4848 42.1679C39.0359 42.119 37.0306 44.0893 37.0306 46.5312M28.3011 43.9041C28.3011 42.856 28.6679 41.8918 29.2827 41.1407C30.0932 40.1521 31.3264 39.5198 32.7098 39.5373C35.1238 39.5617 37.0277 41.6228 37.0277 44.0368V48.2709M28.3009 47.9741V21.63C28.3009 19.3557 26.6171 17.368 24.3533 17.1549C21.7577 16.9103 19.5673 18.954 19.5673 21.5042V27.9811M19.5666 35.9113V45.5008C19.5666 49.693 19.3919 52.5401 19.0251 54.5314M19.5634 35.911C12.1572 33.9791 6.69697 27.2437 6.69697 19.2367C6.69697 9.71705 14.4105 2 23.9302 2C33.4499 2 41.1634 9.71705 41.1634 19.2367C41.1634 22.3249 40.3494 25.2245 38.9241 27.7328C39.8918 28.449 40.5205 29.5981 40.5205 30.8942C40.5205 33.0636 38.7598 34.8243 36.5904 34.8243C34.4209 34.8243 32.6602 33.0636 32.6602 30.8942C32.6602 29.5142 33.3729 28.302 34.4454 27.5998" stroke="url(#paint1_linear_2928_22790)" stroke-width="2.5" stroke-linecap="round" stroke-linejoin="round"/>
<defs>
<linearGradient id="paint0_linear_2928_22790" x1="29.2826" y1="41.6863" x2="29.2879" y2="41.6863" gradientUnits="userSpaceOnUse">
<stop stop-color="#FEC010"/>
<stop offset="0.650465" stop-color="#F06516"/>
<stop offset="1" stop-color="#F03016"/>
</linearGradient>
<linearGradient id="paint1_linear_2928_22790" x1="31" y1="31.5417" x2="69.4959" y2="101.278" gradientUnits="userSpaceOnUse">
<stop stop-color="#FEC010"/>
<stop offset="0.650465" stop-color="#F06516"/>
<stop offset="1" stop-color="#F03016"/>
</linearGradient>
</defs>
</svg>
