<svg width="84" height="84" viewBox="0 0 84 84" fill="none" xmlns="http://www.w3.org/2000/svg">
<path d="M60.1453 59.7785V15.3311H51.7702V59.7785H46.2378V31.1862H37.8627V59.7785H32.2211V43.7837H24.2171C24.2171 48.8184 24.2171 59.7785 24.2171 59.7785C24.5141 65.1276 24.3045 68.7387 26.7934 73.6293C29.5705 79.0919 36.0593 82 41.9978 82C64.0883 82 81.9956 64.0927 81.9956 42.0022C81.9956 19.9117 64.0883 2 41.9978 2C19.9073 2 2 19.9073 2 41.9978C2 53.0452 6.47574 63.0447 13.7155 70.2801" stroke="url(#paint0_linear_2928_22828)" stroke-width="2.5" stroke-linecap="round" stroke-linejoin="round"/>
<defs>
<linearGradient id="paint0_linear_2928_22828" x1="1.99999" y1="30" x2="118.404" y2="119.773" gradientUnits="userSpaceOnUse">
<stop stop-color="#FEC010"/>
<stop offset="0.650465" stop-color="#F06516"/>
<stop offset="1" stop-color="#F03016"/>
</linearGradient>
</defs>
</svg>
