<svg width="300" height="300" viewBox="0 0 300 300" fill="none" xmlns="http://www.w3.org/2000/svg">
<path d="M67.0771 170.049C51.7516 170.108 39.2367 157.839 39 142.526C39.2367 127.213 51.7516 114.945 67.0771 115.004C74.1778 114.885 81.0122 117.635 86.0418 122.601L80.6867 127.893C77.0476 124.375 72.1364 122.453 67.0771 122.512C56.1599 122.483 47.2545 131.292 47.2249 142.23C47.2249 142.319 47.2249 142.437 47.2249 142.526C47.1066 153.435 55.8345 162.421 66.7813 162.54C66.87 162.54 66.9884 162.54 67.0771 162.54C72.3139 162.747 77.3731 160.736 81.0418 157.012C83.4678 154.41 84.9175 151.07 85.1542 147.522H67.0771V140.043H92.5211C92.7874 141.58 92.9353 143.176 92.9058 144.743C93.1129 151.217 90.746 157.544 86.3377 162.303C81.308 167.506 74.2961 170.344 67.0771 170.049V170.049Z" fill="white"/>
<path d="M132.25 152.311C132.635 162.008 125.12 170.167 115.416 170.581C105.711 170.965 97.5455 163.456 97.1313 153.76C97.1313 153.287 97.1313 152.814 97.1313 152.311C96.7467 142.615 104.262 134.455 113.966 134.041C123.67 133.657 131.836 141.166 132.25 150.862C132.25 151.335 132.25 151.808 132.25 152.311V152.311ZM124.558 152.311C125.061 146.872 121.066 142.023 115.623 141.521C110.179 141.018 105.327 145.009 104.824 150.449C104.765 151.069 104.765 151.69 104.824 152.311C104.321 157.751 108.315 162.599 113.759 163.101C119.203 163.604 124.055 159.613 124.558 154.173C124.617 153.553 124.617 152.932 124.558 152.311Z" fill="white"/>
<path d="M171.637 152.311C172.021 162.008 164.506 170.167 154.802 170.581C145.098 170.965 136.932 163.456 136.518 153.76C136.518 153.287 136.518 152.814 136.518 152.311C136.133 142.615 143.648 134.455 153.352 134.041C163.057 133.657 171.222 141.166 171.637 150.862C171.637 151.335 171.637 151.808 171.637 152.311V152.311ZM163.944 152.311C164.358 146.872 160.276 142.082 154.832 141.669C149.388 141.255 144.595 145.334 144.181 150.774C144.151 151.276 144.151 151.808 144.181 152.311C143.767 157.751 147.849 162.54 153.293 162.954C158.737 163.367 163.53 159.288 163.944 153.848C163.974 153.346 163.974 152.814 163.944 152.311Z" fill="white"/>
<path d="M210.013 135.69V167.498C210.013 180.565 202.232 185.945 193.06 185.945C186.167 185.975 179.924 181.836 177.261 175.48L184.096 172.524C185.516 176.219 189.007 178.732 192.972 178.85C198.889 178.85 202.498 175.214 202.498 168.444V165.902H202.321C199.924 168.592 196.463 170.129 192.853 170.041C183.06 170.041 175.102 162.088 175.102 152.303C175.102 142.518 183.06 134.566 192.853 134.566C196.463 134.507 199.895 135.985 202.321 138.646H202.587V135.69H210.013V135.69ZM203.12 152.422C203.563 146.894 199.451 142.075 193.918 141.631C193.8 141.631 193.682 141.631 193.593 141.631C187.912 141.838 183.474 146.598 183.682 152.274V152.451C183.415 158.068 187.764 162.857 193.415 163.123H193.622C199.096 162.946 203.356 158.334 203.179 152.895C203.179 152.747 203.179 152.599 203.179 152.451L203.12 152.422Z" fill="white"/>
<path d="M223.705 116.893V168.981H215.895V116.893H223.705Z" fill="white"/>
<path d="M254.478 158.16L260.573 162.298C257.259 167.235 251.726 170.192 245.78 170.162C236.283 170.31 228.472 162.712 228.353 153.223C228.353 152.957 228.353 152.691 228.353 152.424C227.584 143.438 234.241 135.544 243.206 134.746C250.78 134.096 257.792 138.737 260.158 145.98L260.957 148.02L237.288 157.805C238.797 161.205 242.229 163.333 245.928 163.185C249.448 163.097 252.703 161.205 254.478 158.16V158.16ZM235.809 151.774L251.726 145.211C250.425 142.817 247.821 141.398 245.099 141.605C239.715 141.841 235.572 146.394 235.809 151.745V151.774Z" fill="white"/>
</svg>
