<svg width="300" height="300" viewBox="0 0 300 300" fill="none" xmlns="http://www.w3.org/2000/svg">
<path fill-rule="evenodd" clip-rule="evenodd" d="M178.43 139.885L178.423 139.881C178.423 139.881 178.419 139.878 178.414 139.878C178.253 139.808 178.075 139.772 177.905 139.772C177.628 139.774 177.364 139.855 177.133 139.999C176.897 140.147 176.697 140.363 176.583 140.634V140.64L171.19 155.299L167.032 145.474L167.026 145.469C166.91 145.195 166.7 144.983 166.463 144.835C166.223 144.686 165.946 144.605 165.656 144.605C165.373 144.605 165.108 144.693 164.876 144.837C164.646 144.985 164.439 145.195 164.322 145.469L164.32 145.474L160.155 155.306L154.733 140.653H154.728C154.634 140.37 154.441 140.149 154.212 140.003C153.979 139.855 153.707 139.774 153.426 139.772C153.247 139.772 153.066 139.808 152.895 139.878H152.887L152.88 139.885C152.375 140.119 152.066 140.621 152.064 141.168C152.064 141.339 152.099 141.511 152.165 141.68H152.164L158.834 159.466V159.472C158.885 159.605 158.958 159.736 159.066 159.865C159.144 159.957 159.26 160.034 159.378 160.099C159.4 160.12 159.433 160.15 159.486 160.182C159.541 160.216 159.613 160.24 159.687 160.253C159.805 160.292 159.962 160.349 160.175 160.349C160.444 160.349 160.695 160.253 160.919 160.109C161.129 159.97 161.317 159.761 161.42 159.491L161.437 159.479L165.656 149.466L169.879 159.438H169.883C169.98 159.704 170.151 159.912 170.35 160.06C170.559 160.216 170.794 160.313 171.042 160.349H171.22C171.389 160.349 171.553 160.317 171.69 160.264C171.836 160.208 171.952 160.135 172.049 160.062C172.275 159.89 172.45 159.654 172.558 159.392V159.387L179.186 141.68C179.251 141.511 179.284 141.341 179.284 141.17C179.283 140.628 178.96 140.111 178.43 139.885ZM147.939 150.039C147.939 147.951 147.132 146.059 145.847 144.693C144.556 143.325 142.807 142.488 140.907 142.488C139.006 142.488 137.253 143.325 135.964 144.693C134.676 146.059 133.869 147.951 133.869 150.039C133.869 152.126 134.676 154 135.964 155.357C137.253 156.719 139.006 157.542 140.907 157.542C142.807 157.542 144.562 156.719 145.847 155.357C147.132 154 147.939 152.126 147.939 150.039ZM147.903 142.789C149.687 144.667 150.77 147.245 150.775 150.039C150.77 152.833 149.687 155.408 147.903 157.287C146.132 159.163 143.66 160.349 140.911 160.349C138.183 160.349 135.707 159.163 133.93 157.287C132.15 155.408 131.049 152.833 131.049 150.039C131.049 147.245 132.15 144.667 133.93 142.789C135.707 140.914 138.183 139.728 140.911 139.728C143.66 139.728 146.132 140.914 147.903 142.789ZM119.82 139.765C117.609 139.765 115.59 140.621 114.083 141.987V141.17C114.08 140.795 113.94 140.445 113.694 140.188C113.454 139.935 113.1 139.765 112.711 139.765C112.309 139.765 111.947 139.926 111.694 140.185C111.446 140.44 111.297 140.795 111.297 141.17V159.37L111.355 159.427L111.358 159.436C111.373 159.496 111.411 159.562 111.452 159.627C111.644 159.963 111.96 160.219 112.35 160.332L112.407 160.349H112.711C112.915 160.349 113.119 160.307 113.314 160.216C113.476 160.139 113.627 160.015 113.748 159.856L113.752 159.858C113.767 159.843 113.772 159.824 113.789 159.809C113.795 159.807 113.802 159.8 113.806 159.794C113.882 159.698 113.944 159.599 113.983 159.507C114.025 159.397 114.05 159.294 114.07 159.215L114.083 159.163V148.235C114.124 146.672 114.772 145.259 115.81 144.232C116.842 143.205 118.256 142.57 119.82 142.57C121.41 142.57 122.828 143.205 123.856 144.232C124.888 145.255 125.514 146.666 125.514 148.221V158.951C125.514 159.343 125.683 159.706 125.938 159.955C126.199 160.203 126.555 160.349 126.927 160.349C127.304 160.349 127.659 160.203 127.918 159.955C128.181 159.706 128.341 159.343 128.341 158.951V148.221C128.341 143.589 124.532 139.772 119.82 139.765ZM259.02 148.049C258.217 144.813 255.356 142.508 252.091 142.514C248.744 142.514 245.922 144.77 245.047 148.049H259.02ZM262.114 149.374V149.513C262.114 149.902 261.939 150.251 261.673 150.481C261.41 150.712 261.068 150.833 260.698 150.837H244.851C245.254 154.677 248.342 157.513 252.027 157.542H252.962C254.183 157.547 255.371 157.128 256.416 156.436C257.462 155.75 258.367 154.791 259.004 153.736C259.136 153.511 259.325 153.339 259.529 153.234C259.739 153.12 259.964 153.069 260.19 153.069C260.441 153.069 260.689 153.133 260.908 153.264L260.922 153.271L260.94 153.283C261.337 153.573 261.585 154.015 261.585 154.5C261.585 154.746 261.521 154.997 261.384 155.224L261.38 155.233L261.376 155.237C260.49 156.636 259.282 157.911 257.85 158.836C256.413 159.762 254.749 160.349 252.962 160.349H252.012C249.232 160.33 246.718 159.163 244.906 157.298C243.098 155.439 241.985 152.885 241.985 150.078C241.985 147.224 243.108 144.633 244.93 142.759C246.752 140.887 249.285 139.728 252.091 139.728C254.769 139.728 257.173 140.786 258.955 142.517C260.736 144.247 261.901 146.65 262.108 149.355L262.114 149.374ZM197.11 131.258C196.724 131.258 196.37 131.419 196.116 131.672C195.86 131.923 195.699 132.277 195.699 132.661V158.951C195.699 159.335 195.86 159.687 196.116 159.936C196.37 160.184 196.724 160.349 197.11 160.349C197.911 160.349 198.559 159.723 198.564 158.951V132.661C198.559 131.887 197.911 131.258 197.11 131.258ZM104.763 149.537C103.622 149.003 102.329 148.609 101.038 148.184C99.8503 147.785 98.645 147.446 97.7856 147C97.3538 146.771 97.017 146.529 96.799 146.256C96.5764 145.984 96.4685 145.707 96.4619 145.33C96.4641 144.813 96.6154 144.397 96.8701 144.028C97.2566 143.477 97.9042 143.048 98.6126 142.771C99.3123 142.493 100.07 142.362 100.612 142.362C102.214 142.364 103.227 142.894 104.005 143.443C104.389 143.72 104.713 144 105.02 144.232C105.177 144.352 105.324 144.462 105.495 144.543C105.656 144.622 105.847 144.686 106.054 144.686C106.186 144.686 106.318 144.663 106.438 144.612C106.565 144.56 106.676 144.487 106.782 144.397C106.885 144.301 106.974 144.185 107.037 144.056C107.093 143.923 107.119 143.786 107.119 143.651C107.119 143.402 107.039 143.168 106.924 142.949C106.71 142.563 106.382 142.195 105.963 141.826C105.341 141.277 104.521 140.754 103.638 140.359C102.752 139.965 101.802 139.696 100.897 139.696C98.8006 139.696 97.0495 140.168 95.7774 141.037C95.1143 141.491 94.5314 141.989 94.1193 142.675C93.7 143.364 93.4669 144.213 93.4367 145.317C93.4348 145.366 93.4347 145.416 93.4347 145.465C93.4305 146.537 93.7779 147.421 94.324 148.113C95.1534 149.156 96.3844 149.78 97.5918 150.222C98.7966 150.663 100.001 150.927 100.761 151.18C101.832 151.534 102.97 151.917 103.799 152.426C104.212 152.685 104.547 152.964 104.774 153.271C104.994 153.586 105.119 153.911 105.123 154.324V154.354C105.121 154.95 104.945 155.417 104.653 155.818C104.212 156.414 103.48 156.852 102.702 157.128C101.928 157.399 101.122 157.513 100.604 157.513C98.7747 157.513 97.5507 157.075 96.663 156.636C96.2181 156.414 95.8575 156.196 95.5312 156.011C95.3694 155.923 95.2183 155.842 95.0584 155.777C94.903 155.713 94.7369 155.672 94.5491 155.672C94.4346 155.672 94.3096 155.692 94.1946 155.736C94.0783 155.786 93.9724 155.855 93.8837 155.938C93.7606 156.057 93.6529 156.189 93.5774 156.342C93.5039 156.494 93.4668 156.655 93.4668 156.822C93.4668 157.096 93.5703 157.347 93.7177 157.575C93.9486 157.902 94.2876 158.196 94.7108 158.49C95.1468 158.779 95.6676 159.065 96.2676 159.346C97.598 159.97 99.3037 160.296 100.6 160.317H100.604C102.619 160.317 104.359 159.856 105.825 158.784V158.781H105.827C107.261 157.709 108.153 156.116 108.153 154.317C108.153 153.328 107.92 152.49 107.512 151.804C106.896 150.764 105.896 150.078 104.763 149.537ZM218.406 150.039C218.406 147.931 217.606 146.042 216.324 144.678C215.046 143.319 213.29 142.493 211.371 142.489C209.467 142.489 207.717 143.319 206.426 144.678C205.144 146.042 204.332 147.931 204.332 150.039C204.332 152.145 205.144 154.022 206.426 155.374C207.711 156.727 209.467 157.542 211.371 157.542C213.295 157.542 215.051 156.727 216.329 155.379C217.606 154.022 218.406 152.147 218.406 150.039ZM220.807 140.119C221.069 140.37 221.231 140.733 221.231 141.124V158.951C221.231 159.335 221.065 159.687 220.816 159.936C220.561 160.184 220.209 160.349 219.82 160.349C219.432 160.349 219.075 160.184 218.825 159.936C218.57 159.687 218.406 159.335 218.406 158.951V157.212C216.629 159.119 214.133 160.349 211.371 160.349C208.622 160.349 206.147 159.176 204.374 157.298C202.595 155.428 201.508 152.852 201.508 150.039C201.508 147.226 202.595 144.648 204.374 142.776C206.147 140.899 208.622 139.728 211.371 139.728C214.131 139.728 216.629 140.924 218.406 142.821V141.124C218.406 140.733 218.569 140.37 218.83 140.119C219.09 139.872 219.443 139.728 219.82 139.728C220.194 139.728 220.55 139.872 220.807 140.119ZM240.745 141.927C241.026 141.65 241.178 141.283 241.178 140.919C241.178 140.561 241.026 140.202 240.743 139.943H240.745C240.743 139.935 240.736 139.935 240.736 139.935C240.735 139.928 240.73 139.926 240.73 139.926H240.725C240.453 139.66 240.103 139.514 239.743 139.514C239.378 139.514 239.022 139.665 238.75 139.935L227.709 150.62V132.661C227.709 131.887 227.057 131.258 226.255 131.258C225.869 131.258 225.515 131.419 225.263 131.672C225.012 131.923 224.843 132.277 224.843 132.661V158.951C224.843 159.335 225.012 159.687 225.263 159.936C225.515 160.184 225.869 160.349 226.255 160.349C227.057 160.349 227.709 159.723 227.709 158.951V154.613L231.304 151.047L238.633 159.828C238.771 160.03 238.96 160.169 239.145 160.242C239.357 160.322 239.562 160.349 239.744 160.349C239.998 160.349 240.354 160.296 240.668 160.051L240.685 160.041L240.704 160.021C240.997 159.734 241.163 159.352 241.163 158.962C241.163 158.634 241.042 158.299 240.815 158.031V158.027L233.353 149.02L240.739 141.927H240.745ZM191.284 131.321H190.969C190.928 131.321 190.887 131.325 190.844 131.326C190.805 131.325 190.764 131.321 190.723 131.321C189.909 131.321 189.119 131.413 188.38 131.657C187.652 131.897 186.981 132.294 186.46 132.897L186.459 132.894L186.456 132.897V132.899C185.919 133.493 185.565 134.203 185.349 135.009C185.133 135.82 185.043 136.733 185.035 137.771V139.78H182.804C182.029 139.785 181.415 140.4 181.415 141.144C181.41 141.545 181.567 141.914 181.822 142.18C182.079 142.442 182.431 142.613 182.821 142.634H185.035V158.986L185.034 159.024C185.034 159.408 185.195 159.761 185.457 160.015C185.715 160.264 186.079 160.411 186.474 160.411C187.225 160.408 187.843 159.798 187.844 159.024V142.634H190.244C190.63 142.613 190.986 142.452 191.242 142.193C191.503 141.933 191.663 141.569 191.663 141.174V141.121C191.654 140.385 191.033 139.78 190.259 139.78H187.844V137.779C187.86 136.894 187.952 136.231 188.086 135.749C188.215 135.264 188.393 134.959 188.553 134.771C188.708 134.604 188.912 134.464 189.242 134.352C189.575 134.246 190.034 134.177 190.656 134.177H190.729C190.767 134.177 190.805 134.17 190.84 134.17C190.883 134.17 190.924 134.177 190.969 134.177H191.15H191.284C192.081 134.177 192.723 133.538 192.723 132.748C192.723 131.96 192.081 131.321 191.284 131.321ZM49.0616 150.967C49.176 150.609 49.2237 150.24 49.2151 149.876C49.2018 149.612 49.1675 149.349 49.0921 149.085C48.865 148.266 48.3275 147.534 47.5219 147.073L36.0641 140.503C34.4467 139.578 32.3846 140.128 31.4564 141.732C30.5191 143.333 31.0719 145.379 32.6894 146.306L39.092 149.983L32.6894 153.65C31.0719 154.579 30.5211 156.624 31.4564 158.232C32.3846 159.832 34.4467 160.379 36.0641 159.455L47.5219 152.88C48.2951 152.438 48.8197 151.745 49.0616 150.967ZM52.171 157.124C51.5128 157.068 50.8283 157.205 50.2125 157.562L38.7462 164.127C37.1331 165.054 36.5822 167.11 37.5132 168.715C38.4485 170.315 40.5086 170.866 42.1194 169.935L48.5435 166.255V173.608C48.5435 175.461 50.0527 176.962 51.9206 176.962C53.7796 176.962 55.2934 175.461 55.2934 173.608V160.463C55.2934 158.698 53.9159 157.248 52.171 157.124ZM63.9136 142.837C64.5699 142.891 65.2525 142.752 65.8682 142.4L77.3322 135.828C78.9477 134.901 79.4958 132.854 78.5672 131.245C77.6365 129.644 75.5744 129.094 73.9613 130.021L67.5415 133.705V126.349C67.5415 124.501 66.0322 123 64.1645 123C62.2966 123 60.7912 124.501 60.7912 126.349V139.495C60.7912 141.258 62.1649 142.709 63.9136 142.837ZM38.7462 135.828L50.2125 142.4C50.8283 142.752 51.5128 142.891 52.171 142.837C53.9159 142.709 55.2934 141.258 55.2934 139.495V126.349C55.2934 124.501 53.7796 123 51.9206 123C50.0527 123 48.5435 124.501 48.5435 126.349V133.705L42.1194 130.021C40.5086 129.094 38.4485 129.644 37.5132 131.245C36.5822 132.854 37.1331 134.901 38.7462 135.828ZM60.2946 149.955C60.2946 149.764 60.1783 149.498 60.0422 149.357L58.6623 147.993C58.5264 147.858 58.2584 147.747 58.0658 147.747H58.0122C57.82 147.747 57.5524 147.858 57.4184 147.993L56.0385 149.357C55.9002 149.498 55.7943 149.764 55.7943 149.955V150.009C55.7943 150.197 55.9002 150.461 56.0385 150.599L57.4184 151.967C57.5543 152.102 57.82 152.213 58.0122 152.213H58.0658C58.2584 152.213 58.5264 152.102 58.6623 151.967L60.0422 150.599C60.1783 150.461 60.2946 150.197 60.2946 150.009V149.955ZM64.1039 151.267L59.3382 155.994C59.2019 156.133 58.9386 156.247 58.7401 156.247H58.3943H57.6903H57.3387C57.146 156.247 56.8785 156.133 56.7402 155.994L51.9769 151.267C51.8405 151.134 51.7303 150.867 51.7303 150.678V150.328V149.629V149.284C51.7303 149.091 51.8405 148.823 51.9769 148.688L56.7402 143.961C56.8785 143.822 57.146 143.713 57.3387 143.713H57.6903H58.3943H58.7401C58.9342 143.713 59.2019 143.822 59.3382 143.961L64.1039 148.688C64.2398 148.823 64.3499 149.091 64.3499 149.284V149.629V150.328V150.678C64.3499 150.867 64.2398 151.134 64.1039 151.267ZM77.3322 164.127L65.8682 157.562C65.2525 157.205 64.5699 157.068 63.9136 157.124C62.1649 157.248 60.7912 158.698 60.7912 160.463V173.608C60.7912 175.461 62.2966 176.962 64.1645 176.962C66.0322 176.962 67.5415 175.461 67.5415 173.608V166.255L73.9613 169.935C75.5741 170.866 77.6365 170.315 78.5672 168.715C79.4958 167.11 78.9477 165.054 77.3322 164.127ZM83.3937 146.306L76.9907 149.983L83.3937 153.65C85.0107 154.579 85.5636 156.624 84.6287 158.232C83.6957 159.832 81.6317 160.379 80.0205 159.455L68.5541 152.88C67.7896 152.438 67.2587 151.745 67.023 150.967C66.9109 150.609 66.8591 150.24 66.8718 149.876C66.8785 149.612 66.9172 149.349 66.9906 149.085C67.2199 148.266 67.7576 147.534 68.5541 147.073L80.0205 140.503C81.6317 139.578 83.6957 140.128 84.6287 141.732C85.5636 143.333 85.0107 145.379 83.3937 146.306ZM269.334 139.747C269.334 141.59 268.092 143.129 266.017 143.129C263.955 143.129 262.727 141.576 262.727 139.747C262.727 137.904 263.955 136.365 266.017 136.365C268.092 136.365 269.334 137.904 269.334 139.747ZM268.677 139.747C268.677 138.18 267.625 136.989 266.017 136.989C264.438 136.989 263.385 138.121 263.385 139.747C263.385 141.3 264.438 142.504 266.017 142.504C267.625 142.504 268.677 141.315 268.677 139.747ZM264.715 138.223H266.133C266.907 138.223 267.419 138.644 267.419 139.297C267.419 139.703 267.215 140.008 266.907 140.197L267.464 140.995V141.155H266.659L266.119 140.385H265.491V141.155H264.715V138.223ZM266.119 138.934H265.491V139.703H266.119C266.411 139.703 266.601 139.573 266.601 139.326C266.601 139.065 266.426 138.934 266.119 138.934Z" fill="white"/>
</svg>
