<svg width="130" height="130" viewBox="0 0 130 130" fill="none" xmlns="http://www.w3.org/2000/svg">
<path d="M88.7683 31.8933L97.357 35.0653C99.06 35.6937 100.191 37.3143 100.191 39.13V59.0287C100.191 77.7357 89.9427 95.849 66.7853 106.214C65.65 106.721 64.35 106.721 63.2147 106.214C40.053 95.849 29.809 77.7313 29.809 59.0287V39.13C29.809 37.3143 30.94 35.6937 32.643 35.0653L63.5007 23.6773C64.467 23.322 65.533 23.322 66.5037 23.6773C66.5037 23.6773 75.283 26.9187 78.78 28.21C79.6294 28.522 80.1927 29.3323 80.1927 30.238V78.078C80.1927 79.274 79.222 80.2447 78.026 80.2447H51.9827C50.7867 80.2447 49.816 79.274 49.816 78.078V58.4437C49.816 57.2477 50.7867 56.277 51.9827 56.277H73.97" stroke="#FEC010" stroke-width="3" stroke-linecap="round" stroke-linejoin="round"/>
<path d="M73.9657 56.277V52.767C73.9657 47.814 69.9487 43.8013 65 43.8013C60.2507 43.8013 56.3637 47.4933 56.0517 52.1647" stroke="#FEC010" stroke-width="4" stroke-linecap="round" stroke-linejoin="round"/>
</svg>
