<svg width="100" height="100" viewBox="0 0 100 100" fill="none" xmlns="http://www.w3.org/2000/svg">
<path d="M39.8072 50.2885V45.5898C42.8375 45.5898 45.0172 42.8756 46.5091 39.8268C49.0931 34.5425 49.6044 28.482 48.475 22.7097C47.7314 18.9172 46.4579 15.385 44.729 12.6987C43.9715 11.5229 47.2945 8 47.2945 8H35.3316C31.093 8 21.2354 9.59413 21.2354 24.3456C21.2354 30.3131 22.7877 35.6346 25.3346 39.455C25.3346 39.455 31.0232 47.2165 25.9341 52.8912C20.845 58.5706 19.3903 58.0268 16.4623 58.1337C13.5343 58.2406 8.04085 57.9338 6.27941 62.3723C4.51797 66.8108 3.41649 68.126 2.43584 76.8728C1.4552 85.6196 2.43584 93 2.43584 93C2.43584 93 16.532 92.5817 16.532 78.202C16.532 78.202 17.4197 92.5817 44.7244 92.5817L63.5193 92.8745V87.883C75.4404 87.883 84.796 76.8728 81.961 64.4637C80.3994 57.6132 74.8315 52.05 67.9856 50.4884C55.5765 47.658 44.5664 57.009 44.5664 68.9301C44.5664 74.2562 46.7647 79.0665 50.2969 82.5104L58.0258 74.7814C56.4689 73.3174 55.4975 71.2399 55.4975 68.9301C55.4975 64.5009 59.0901 60.9083 63.5193 60.9083C67.9484 60.9083 71.541 64.5009 71.541 68.9301C71.541 72.2113 69.5751 75.0277 66.754 76.2733" stroke="#FFC000" stroke-width="3" stroke-linecap="round" stroke-linejoin="round"/>
</svg>
