<svg width="100" height="100" viewBox="0 0 100 100" fill="none" xmlns="http://www.w3.org/2000/svg">
<path d="M54.4984 63.4111C42.4954 75.3942 23.0103 75.3942 11.0037 63.4111C-1.00303 51.428 -0.999404 31.9754 11.0037 19.9887C23.0067 8.00196 42.4917 8.00559 54.4984 19.9887C62.6371 28.1139 65.2678 39.6876 62.3904 50.0297C56.3671 43.0565 42.8364 37.6083 42.8364 37.6083C43.3081 38.8798 43.5912 40.2418 43.5912 41.6981C43.5912 47.6244 38.9757 52.4676 33.2754 52.4676C27.575 52.4676 22.9595 47.6244 22.9595 41.6981C22.9595 35.7717 25.6591 30.9901 33.2754 30.9285C46.6064 30.9285 58.2866 40.6113 58.2866 40.6113C58.2866 40.6113 50.4672 52.4676 33.2754 52.4676C15.8477 52.4676 8.9209 41.6981 8.9209 41.6981C8.9209 41.6981 12.6256 37.6047 20.1729 33.9098" stroke="#FEC010" stroke-width="3" stroke-miterlimit="10" stroke-linecap="round" stroke-linejoin="round"/>
<path d="M61.8136 70.7974L80.8051 89.7574L87.3001 83.2732L67.4051 63.4112C63.8709 59.8829 58.0327 59.8829 54.4985 63.4112" stroke="#FEC010" stroke-width="3" stroke-miterlimit="10" stroke-linecap="round" stroke-linejoin="round"/>
</svg>
