<svg width="100" height="100" viewBox="0 0 100 100" fill="none" xmlns="http://www.w3.org/2000/svg">
<path d="M17.7953 76.8638L10.1087 75.6263L9.36816 83.3782" stroke="#FEC010" stroke-width="3" stroke-miterlimit="10" stroke-linecap="round" stroke-linejoin="round"/>
<path d="M80.5996 59.6301L84.0913 66.5873L90.8098 62.6597" stroke="#FEC010" stroke-width="3" stroke-miterlimit="10" stroke-linecap="round" stroke-linejoin="round"/>
<path d="M84.0914 66.5874C87.4342 58.3306 88.2616 48.7826 85.6263 38.9035C81.7954 24.5297 70.4516 13.26 56.0629 9.49791C27.6 2.06064 2 23.3461 2 50.6119C2 52.2177 2.09102 53.807 2.26063 55.3673C2.70744 59.3943 6.80725 62.101 10.5926 60.669C11.689 60.2551 12.5205 59.5474 12.7108 58.3761C12.7191 58.3016 12.7274 58.2271 12.7356 58.1485C12.7687 57.7884 12.806 57.4408 12.8473 57.0973C13.2404 53.7615 13.8071 51.092 14.6428 49.8711C17.0009 46.3904 21.3159 45.9931 26.0445 44.5611C27.1615 44.2217 28.5268 43.2326 28.7708 40.6086C25.4819 38.7462 23.1941 34.5578 23.1941 29.6907C23.1941 23.0895 27.4015 19.0087 32.5935 19.0087C32.7672 19.0087 32.9451 19.0128 33.123 19.0252C33.3009 19.0128 33.4788 19.0087 33.6567 19.0087C38.8445 19.0087 43.0519 23.0895 43.0519 29.6907C43.0519 34.5578 40.7641 38.7462 37.4752 40.6086C37.7234 43.2326 39.0845 44.2217 40.2015 44.5611C42.2038 45.1695 44.1317 45.5875 45.8693 46.138C46.6429 46.3821 47.0566 47.1975 46.8208 47.9755C46.4609 49.1468 46.2664 50.4546 46.2664 51.8742C46.2664 56.7413 48.5542 60.9297 51.8432 62.7922C51.5949 65.4202 50.2297 66.4053 49.1127 66.7446C44.3841 68.1766 40.0733 68.5739 37.711 72.0546C36.8795 73.2797 36.3085 75.945 35.9155 79.2808C35.8783 79.6243 35.8411 79.9761 35.8038 80.332C35.7955 80.4107 35.7914 80.4852 35.7831 80.5597" stroke="#FEC010" stroke-width="3" stroke-miterlimit="10" stroke-linecap="round" stroke-linejoin="round"/>
<path d="M10.1084 75.6264C17.8488 86.2877 30.413 93.22 44.5948 93.22C55.1526 93.22 64.8126 89.3793 72.2551 83.014C75.1676 80.5266 76.3301 76.5121 75.0642 72.8948C74.9359 72.5306 74.8077 72.2326 74.6794 72.0505C72.3172 68.5699 68.0064 68.1725 63.2777 66.7405C62.1607 66.4012 60.7955 65.4162 60.5473 62.7881C63.8362 60.9256 66.124 56.7373 66.124 51.8701C66.124 45.2689 61.9208 41.1881 56.7288 41.1881C56.5509 41.1881 56.373 41.1922 56.1992 41.2047C56.0214 41.1922 55.8435 41.1881 55.6656 41.1881C54.5362 41.1881 53.4564 41.3826 52.4552 41.751" stroke="#FEC010" stroke-width="3" stroke-miterlimit="10" stroke-linecap="round" stroke-linejoin="round"/>
</svg>
