<svg width="94" height="68" viewBox="0 0 94 68" fill="none" xmlns="http://www.w3.org/2000/svg">
<g clip-path="url(#clip0_1131_213)">
<path d="M71.2776 42.2866L63.9368 40.6023" stroke="#FFC000" stroke-width="3" stroke-linecap="round" stroke-linejoin="round"/>
<path d="M62.7625 37.7666L66.7595 31.4L61.6116 26.2852" stroke="#FFC000" stroke-width="3" stroke-linecap="round" stroke-linejoin="round"/>
<path d="M50.6704 21.7576H43.384L41.6887 29.0436" stroke="#FFC000" stroke-width="3" stroke-linecap="round" stroke-linejoin="round"/>
<path d="M32.4351 26.2466L38.835 30.2179C39.2938 29.9862 39.7603 29.7698 40.2347 29.5767" stroke="#FFC000" stroke-width="3" stroke-linecap="round" stroke-linejoin="round"/>
<path d="M29.5344 34.9464L27.2793 31.3613" stroke="#FFC000" stroke-width="3" stroke-linecap="round" stroke-linejoin="round"/>
<path d="M31.2684 37.7048C31.2198 37.7953 31.1756 37.8881 31.1362 37.983" stroke="#FFC000" stroke-width="3" stroke-linecap="round" stroke-linejoin="round"/>
<path d="M22.7224 42.2324L22.7146 46.2038" stroke="#FFC000" stroke-width="3" stroke-linecap="round" stroke-linejoin="round"/>
<path d="M22.7224 46.2037V42.2324L30.0866 40.548C30.2032 40.1771 30.3198 39.814 30.4598 39.4586C30.5998 39.1032 30.7553 38.74 30.9186 38.3923L31.1208 37.9828L31.2608 37.7047L29.5656 34.9696L27.3104 31.3845L32.4661 26.2696L38.866 30.2487C39.3248 30.0092 39.7914 29.7929 40.2658 29.592C40.7414 29.3953 41.2268 29.2225 41.7199 29.0743V29.0743L43.4074 21.7883H50.6938L52.389 29.0975L52.6534 29.1748L53.1978 29.3679C53.4155 29.4529 53.6332 29.5302 53.8432 29.6229C54.3253 29.8238 54.7919 30.0401 55.2429 30.2796L61.6195 26.316L66.7674 31.4309L62.7704 37.7897L62.9415 38.1296L63.2136 38.7091C63.338 38.9796 63.4547 39.2577 63.5558 39.5359C63.6569 39.814 63.7346 40.0072 63.8202 40.2544L63.9368 40.6098L71.2777 42.2865V46.2037" stroke="#FFC000" stroke-width="3" stroke-linecap="round" stroke-linejoin="round"/>
<path d="M63.9367 40.6023C63.9367 40.4787 63.8589 40.3628 63.8201 40.2469C63.7423 39.9996 63.649 39.7601 63.5557 39.5283" stroke="#FFC000" stroke-width="3" stroke-linecap="round" stroke-linejoin="round"/>
<path d="M63.2136 38.7015C63.1358 38.5084 63.0425 38.3152 62.9414 38.1221" stroke="#FFC000" stroke-width="3" stroke-linecap="round" stroke-linejoin="round"/>
<path d="M62.9336 38.1066L62.7703 37.7666" stroke="#FFC000" stroke-width="3" stroke-linecap="round" stroke-linejoin="round"/>
<path d="M55.2195 30.2487L61.6038 26.2773L61.6116 26.2851" stroke="#FFC000" stroke-width="3" stroke-linecap="round" stroke-linejoin="round"/>
<path d="M50.6704 21.7576L52.3656 29.059L52.6222 29.1517" stroke="#FFC000" stroke-width="3" stroke-linecap="round" stroke-linejoin="round"/>
<path d="M31.2685 37.7049L29.5344 34.9465" stroke="#FFC000" stroke-width="3" stroke-linecap="round" stroke-linejoin="round"/>
<path d="M30.4675 39.4587C30.3275 39.8142 30.2031 40.1773 30.0864 40.5482" stroke="#FFC000" stroke-width="3" stroke-linecap="round" stroke-linejoin="round"/>
<path d="M90.042 53.6984V4.33448C90.042 3.91747 89.9593 3.50453 89.7987 3.11925C89.6381 2.73398 89.4027 2.3839 89.1059 2.08902C88.8091 1.79415 88.4567 1.56024 88.069 1.40066C87.6812 1.24107 87.2656 1.15894 86.8459 1.15894H7.1543C6.30665 1.15894 5.49374 1.49349 4.89436 2.08902C4.29498 2.68456 3.95825 3.49228 3.95825 4.33448V46.2038H22.7225" stroke="#FFC000" stroke-width="3" stroke-linecap="round" stroke-linejoin="round"/>
<path d="M71.2776 46.2039H84.023V8.8313" stroke="#FFC000" stroke-width="3" stroke-linecap="round" stroke-linejoin="round"/>
<path d="M84.0152 8.8313H9.96924V39.9996" stroke="#FFC000" stroke-width="3" stroke-linecap="round" stroke-linejoin="round"/>
<path d="M90.0418 53.7061H90.3684C90.6921 53.7061 91.0127 53.7694 91.3118 53.8925C91.6108 54.0156 91.8826 54.196 92.1115 54.4234C92.3404 54.6509 92.522 54.9209 92.6458 55.218C92.7697 55.5152 92.8335 55.8337 92.8335 56.1553V57.2139C92.8345 58.4777 92.5848 59.7294 92.0988 60.8974C91.6127 62.0654 90.8997 63.1267 90.0006 64.0208C89.1015 64.9148 88.0339 65.6241 86.8587 66.108C85.6836 66.5919 84.424 66.8409 83.152 66.8409H10.8323C8.26258 66.8409 5.79808 65.8267 3.98099 64.0212C2.16389 62.2158 1.14307 59.7671 1.14307 57.2139V56.1553C1.14512 55.505 1.40655 54.8821 1.87008 54.423C2.33361 53.9639 2.96143 53.7061 3.61593 53.7061H46.2301C48.2293 53.704 50.1459 52.9135 51.5588 51.5082C52.9717 50.1029 53.7653 48.1978 53.7653 46.2115V46.2115C53.7057 44.4631 52.9648 42.8061 51.6989 41.5902C50.433 40.3743 48.7412 39.6946 46.9805 39.6946C45.2198 39.6946 43.528 40.3743 42.2621 41.5902C40.9962 42.8061 40.2553 44.4631 40.1957 46.2115" stroke="#FFC000" stroke-width="3" stroke-linecap="round" stroke-linejoin="round"/>
</g>
<defs>
<clipPath id="clip0_1131_213">
<rect width="94" height="68" fill="white"/>
</clipPath>
</defs>
</svg>
