<svg width="88" height="87" viewBox="0 0 88 87" fill="none" xmlns="http://www.w3.org/2000/svg">
<g clip-path="url(#clip0_1131_237)">
<path d="M29.2222 63.0118L31.2274 71.6827H41.828L44.3243 61.037C45.7579 60.5878 47.1498 60.0159 48.4846 59.3277L57.8038 65.136L65.2925 57.6681L59.468 48.3915C60.1637 47.0619 60.7401 45.6736 61.1904 44.2427" stroke="#FFC000" stroke-width="3" stroke-linecap="round" stroke-linejoin="round"/>
<path d="M31.9099 42.691C31.6151 42.4711 31.337 42.2298 31.0778 41.9691C30.3451 41.2479 29.7626 40.3893 29.364 39.4428C28.9654 38.4962 28.7585 37.4803 28.7553 36.4536C28.7521 35.427 28.9527 34.4098 29.3454 33.4608C29.7381 32.5117 30.3151 31.6496 31.0434 30.9239C31.7717 30.1982 32.6367 29.6234 33.5887 29.2325C34.5407 28.8416 35.5608 28.6424 36.5903 28.6464C37.6198 28.6504 38.6384 28.8574 39.5873 29.2556C40.5363 29.6538 41.3968 30.2353 42.1194 30.9665C45.7639 34.6009 44.5574 39.9694 40.9046 43.0395C38.7579 44.8318 36.661 46.6904 34.5476 48.5159L17.9477 62.796L15.3184 65.0695L7.82972 57.6017L13.6542 48.3084C12.9488 46.9824 12.3694 45.5934 11.9235 44.1597L1.24805 41.6704V31.1325L11.9568 28.6432C12.4035 27.211 12.98 25.8224 13.6792 24.4944L7.85471 15.2426L15.3434 7.77483L24.6543 13.5831C25.9909 12.9124 27.3828 12.3572 28.8146 11.9236L31.2692 1.27783H41.8948L44.391 11.9485C45.8274 12.4002 47.2199 12.9807 48.5514 13.6827L57.8373 7.8744L65.3259 15.3422L59.5014 24.6438C60.1773 25.9753 60.7342 27.3636 61.1655 28.7926L71.8577 31.2818V41.8529L67.7805 42.7906" stroke="#FFC000" stroke-width="3" stroke-linecap="round" stroke-linejoin="round"/>
<path d="M60.0588 85.7306H67.0233L68.4128 79.69M44.6904 76.5037L47.7941 71.5251L44.6904 76.5037Z" stroke="#FFC000" stroke-width="3" stroke-linecap="round" stroke-linejoin="round"/>
<path d="M67.8141 42.7241L68.6878 46.5078L68.9374 46.5908L69.4616 46.7733L70.0773 47.014C70.535 47.2048 70.9843 47.4123 71.4169 47.6446L77.5077 43.836L82.4253 48.7482L78.6061 54.8386L78.7725 55.1622C78.864 55.3447 78.9472 55.5273 79.0304 55.7181C79.1136 55.909 79.2634 56.2409 79.3549 56.5479C79.4465 56.8549 79.5297 57.0042 79.6129 57.2366C79.6129 57.3444 79.6795 57.4606 79.7211 57.5768L86.7354 59.1865V66.115L84.5554 66.6128L79.7211 67.7745C79.6795 67.8823 79.6462 67.9819 79.6129 68.0898C79.5796 68.1977 79.5297 68.347 79.4881 68.4715C79.4464 68.5959 79.3133 68.9361 79.2052 69.1685C79.097 69.4008 78.9805 69.6912 78.8557 69.9484C78.7309 70.2057 78.681 70.3135 78.5811 70.4878L82.4086 76.5782L77.4828 81.4904L71.3587 77.6652C71.1423 77.7813 70.926 77.8892 70.7014 77.9888L70.0357 78.2792L69.3534 78.5613L68.6628 78.7937L68.4382 79.7479L67.0402 85.7802H60.0841L58.7695 80.0798L58.4616 78.7688C57.5249 78.4681 56.6149 78.0906 55.7407 77.6403L49.6666 81.4157L44.749 76.5118L48.5766 70.4131" stroke="#FFC000" stroke-width="3" stroke-linecap="round" stroke-linejoin="round"/>
<path d="M78.8556 69.9153C78.7724 70.0978 78.6809 70.2804 78.5894 70.4546" stroke="#FFC000" stroke-width="3" stroke-linecap="round" stroke-linejoin="round"/>
<path d="M79.6128 68.0566C79.6128 67.957 79.6877 67.8491 79.721 67.7496L84.5719 66.6211" stroke="#FFC000" stroke-width="3" stroke-linecap="round" stroke-linejoin="round"/>
<path d="M79.7377 57.5684C79.7377 57.4523 79.6628 57.3361 79.6212 57.2282C79.5464 56.9959 79.4631 56.7636 79.3716 56.5396" stroke="#FFC000" stroke-width="3" stroke-linecap="round" stroke-linejoin="round"/>
<path d="M79.047 55.7512C78.9721 55.5604 78.8806 55.3779 78.7891 55.1953" stroke="#FFC000" stroke-width="3" stroke-linecap="round" stroke-linejoin="round"/>
<path d="M78.7807 55.1788C78.7307 55.0627 78.6725 54.9548 78.6226 54.8469" stroke="#FFC000" stroke-width="3" stroke-linecap="round" stroke-linejoin="round"/>
<path d="M71.417 47.6445L77.5161 43.8442" stroke="#FFC000" stroke-width="3" stroke-linecap="round" stroke-linejoin="round"/>
<path d="M67.8223 42.7241L68.696 46.5078L68.9373 46.5908" stroke="#FFC000" stroke-width="3" stroke-linecap="round" stroke-linejoin="round"/>
</g>
<defs>
<clipPath id="clip0_1131_237">
<rect width="88" height="87" fill="white"/>
</clipPath>
</defs>
</svg>
