<svg width="100" height="100" viewBox="0 0 100 100" fill="none" xmlns="http://www.w3.org/2000/svg">
<mask id="mask0_1_119" style="mask-type:alpha" maskUnits="userSpaceOnUse" x="0" y="0" width="100" height="100">
<circle cx="50" cy="50" r="50" fill="#D9D9D9"/>
</mask>
<g mask="url(#mask0_1_119)">
<g filter="url(#filter0_f_1_119)">
<ellipse cx="-7.68829" cy="182.995" rx="70.1648" ry="70.1648" transform="rotate(-30 -7.68829 182.995)" fill="#00FFD3"/>
</g>
<g filter="url(#filter1_f_1_119)">
<path d="M178.328 12.3851C232.381 106.006 200.304 225.719 106.682 279.771C13.0611 333.824 -106.652 301.747 -160.704 208.126C-214.756 114.504 -182.679 -5.20861 -89.058 -59.2608C4.56316 -113.313 124.276 -81.2361 178.328 12.3851Z" fill="#00F6FF"/>
</g>
<g filter="url(#filter2_f_1_119)">
<ellipse cx="104.613" cy="19.2313" rx="75.7477" ry="75.5739" transform="rotate(-30 104.613 19.2313)" fill="#C3A6FF"/>
</g>
<g filter="url(#filter3_f_1_119)">
<circle cx="119.644" cy="193.608" r="72.5673" transform="rotate(-30 119.644 193.608)" fill="#00FFD3"/>
</g>
</g>
<g clip-path="url(#clip0_1_119)">
<path d="M79.38 51.27L73.5 40.36C73.17 39.76 73.03 39.04 73.09 38.27C75.05 14.48 52.25 11.04 52.02 11C51.63 10.95 51.28 11.21 51.23 11.6C51.18 11.98 51.44 12.34 51.83 12.39C52.72 12.51 73.55 15.7 71.7 38.15C71.62 39.2 71.82 40.19 72.28 41.03L78.16 51.93C78.22 52.04 78.2 52.14 78.18 52.2C78.16 52.26 78.12 52.35 78.01 52.4C77.06 52.85 75.21 53.63 73.38 53.83C72.72 53.89 72.23 54.45 72.26 55.11C72.33 56.15 72.54 58.72 73.09 60.01C73.18 60.23 73.13 60.32 73.11 60.36C72.97 60.62 72.38 60.95 71.39 61.11C71 61.17 70.7 61.47 70.66 61.86C70.62 62.25 70.83 62.61 71.18 62.76C71.94 63.1 72.8 63.66 72.58 64.43C72.37 65.15 71.69 65.45 70.75 65.8C70.02 66.07 69.27 66.35 69.05 67.07C69.02 67.16 68.98 67.3 68.93 67.49C67.01 74.35 65.27 75.55 64.41 75.65C63.31 75.78 61.8 75.33 60.06 74.8C57.38 73.99 54.35 73.08 51.23 73.79C45.69 75.07 47.02 84.14 47.08 84.52C47.13 84.87 47.43 85.11 47.77 85.11C47.81 85.11 47.84 85.11 47.88 85.11C48.26 85.05 48.52 84.69 48.46 84.31C48.45 84.23 47.26 76.14 51.54 75.15C54.29 74.52 57.14 75.38 59.65 76.13C61.54 76.7 63.17 77.2 64.57 77.03C66.76 76.77 68.62 73.77 70.28 67.85C70.33 67.68 70.36 67.55 70.38 67.5C70.47 67.38 70.93 67.21 71.24 67.1C72.2 66.75 73.51 66.26 73.93 64.81C74.22 63.81 73.84 62.88 72.9 62.15C73.48 61.92 74.05 61.57 74.35 61.03C74.53 60.7 74.69 60.15 74.39 59.45C74.02 58.59 73.78 56.72 73.68 55.2C75.57 54.97 77.4 54.24 78.63 53.66C79.05 53.45 79.38 53.08 79.52 52.63C79.67 52.17 79.62 51.69 79.4 51.27H79.38Z" fill="black"/>
<path d="M54.21 67.82C54.21 67.82 54.28 67.84 54.31 67.85L56.45 68.49C56.45 68.49 56.53 68.51 56.58 68.52C56.82 68.54 57.06 68.56 57.3 68.56C58.91 68.56 60.46 68.01 61.73 66.98C63.18 65.79 64.09 64.11 64.28 62.24L66.77 37.57C67.83 27 60.1 17.54 49.59 16.49C49.47 16.47 38.89 14.95 32.72 23.46C32.7 23.48 32.69 23.5 32.67 23.52C31.73 24.82 30.9 26.35 30.22 28.16L26.39 39.67C25.27 43.05 26.67 46.67 29.57 48.48C29.57 48.48 29.59 48.49 29.6 48.5C30.08 48.8 30.59 49.05 31.14 49.23C31.17 49.24 31.19 49.26 31.22 49.27L31.44 49.33L32.36 49.64L35.45 61.65L30.34 70.98C30.31 71.04 30.28 71.11 30.27 71.18L27.58 84.27C27.5 84.65 27.75 85.02 28.12 85.1C28.17 85.1 28.21 85.11 28.26 85.11C28.59 85.11 28.88 84.88 28.94 84.55L31.61 71.56L36.54 62.57L47.26 65.76L41.53 74.78C41.47 74.87 41.44 74.97 41.43 75.07L40.41 83.51C40.36 83.89 40.64 84.24 41.02 84.29C41.05 84.29 41.08 84.29 41.1 84.29C41.45 84.29 41.75 84.03 41.79 83.67L42.79 75.39L48.65 66.17L54.2 67.82H54.21ZM49.4 17.86C59.18 18.84 66.35 27.61 65.36 37.41L62.87 62.08C62.72 63.58 61.99 64.93 60.83 65.88C59.68 66.82 58.24 67.26 56.78 67.13L55.13 66.64L54.44 59.53C54.11 56.25 51.86 53.57 48.7 52.69L43.48 51.24L43.96 39.09C43.97 38.79 43.79 38.52 43.52 38.41L39.55 36.84L40.45 33.72C40.45 33.72 40.45 33.71 40.46 33.7C40.46 33.69 40.46 33.67 40.46 33.66L41.16 31.24C41.16 31.24 41.23 31.25 41.26 31.25C42.74 31.25 43.95 30.04 43.95 28.56C43.95 27.08 42.74 25.87 41.26 25.87C39.78 25.87 38.57 27.08 38.57 28.56C38.57 29.51 39.07 30.35 39.82 30.83L39.33 32.54L35.51 31.12L34 24.02C39.63 16.48 48.91 17.79 49.39 17.86H49.4ZM41.27 29.85C40.56 29.85 39.98 29.27 39.98 28.56C39.98 27.85 40.56 27.27 41.27 27.27C41.98 27.27 42.56 27.85 42.56 28.56C42.56 29.27 41.98 29.85 41.27 29.85ZM39.16 38.19L42.54 39.53L42.1 50.85L36 49.15L39.17 38.19H39.16ZM27.71 40.11L31.53 28.62C31.94 27.53 32.41 26.55 32.92 25.66L34.22 31.79C34.27 32.02 34.44 32.22 34.66 32.3L38.94 33.89L34.64 48.78L31.82 48L31.62 47.93C31.34 47.84 31.08 47.72 30.83 47.6L33.04 39.75C33.04 39.75 33.1 39.75 33.14 39.75C34.62 39.75 35.83 38.54 35.83 37.06C35.83 35.58 34.62 34.37 33.14 34.37C31.66 34.37 30.45 35.58 30.45 37.06C30.45 38.01 30.95 38.85 31.7 39.33L29.6 46.79C27.72 45.21 26.89 42.59 27.71 40.12V40.11ZM33.14 38.34C32.43 38.34 31.85 37.76 31.85 37.05C31.85 36.34 32.43 35.76 33.14 35.76C33.85 35.76 34.43 36.34 34.43 37.05C34.43 37.76 33.85 38.34 33.14 38.34ZM48.33 54.03C50.93 54.75 52.78 56.96 53.05 59.65L53.69 66.19L36.77 61.16L33.9 50L48.33 54.02V54.03Z" fill="black"/>
<path d="M54.96 33.59C55.99 33.59 56.97 33.92 57.8 34.53C57.92 34.62 58.07 34.67 58.21 34.67C58.43 34.67 58.64 34.57 58.77 34.38C59 34.07 58.93 33.63 58.62 33.4C57.55 32.61 56.28 32.2 54.95 32.19C54.57 32.19 54.25 32.5 54.25 32.89C54.25 33.28 54.56 33.59 54.95 33.59H54.96Z" fill="black"/>
<path d="M59.99 40.85C60.06 40.87 60.14 40.88 60.21 40.88C60.5 40.88 60.78 40.69 60.88 40.4C61.09 39.77 61.19 39.12 61.19 38.45C61.19 37.78 61.09 37.15 60.89 36.54C60.77 36.17 60.38 35.97 60.01 36.09C59.64 36.21 59.44 36.6 59.56 36.97C59.71 37.45 59.79 37.95 59.79 38.46C59.79 38.97 59.71 39.49 59.55 39.97C59.43 40.34 59.63 40.73 60 40.85H59.99Z" fill="black"/>
<path d="M49.44 37.36C49.51 37.38 49.59 37.4 49.66 37.4C49.95 37.4 50.23 37.21 50.32 36.92C50.64 35.96 51.27 35.1 52.1 34.51C52.41 34.28 52.49 33.85 52.26 33.53C52.04 33.22 51.6 33.14 51.28 33.37C50.22 34.14 49.4 35.24 48.99 36.48C48.87 36.85 49.07 37.24 49.43 37.37L49.44 37.36Z" fill="black"/>
<path d="M54.93 44.71C56.26 44.71 57.53 44.3 58.6 43.52C58.91 43.29 58.98 42.85 58.76 42.54C58.53 42.23 58.09 42.16 57.78 42.39C56.95 42.99 55.96 43.31 54.93 43.31H54.87C54.48 43.31 54.2 43.62 54.2 44.01C54.2 44.4 54.54 44.71 54.93 44.71Z" fill="black"/>
<path d="M51.2 43.48C51.32 43.57 51.47 43.62 51.62 43.62C51.83 43.62 52.04 43.52 52.18 43.34C52.41 43.03 52.35 42.59 52.04 42.36C51.22 41.75 50.61 40.88 50.3 39.92C50.18 39.55 49.8 39.35 49.42 39.46C49.05 39.58 48.85 39.97 48.96 40.34C49.35 41.58 50.14 42.7 51.2 43.49V43.48Z" fill="black"/>
</g>
<defs>
<filter id="filter0_f_1_119" x="-282.292" y="-91.609" width="549.207" height="549.207" filterUnits="userSpaceOnUse" color-interpolation-filters="sRGB">
<feFlood flood-opacity="0" result="BackgroundImageFix"/>
<feBlend mode="normal" in="SourceGraphic" in2="BackgroundImageFix" result="shape"/>
<feGaussianBlur stdDeviation="102.214" result="effect1_foregroundBlur_1_119"/>
</filter>
<filter id="filter1_f_1_119" x="-369.886" y="-268.443" width="757.396" height="757.396" filterUnits="userSpaceOnUse" color-interpolation-filters="sRGB">
<feFlood flood-opacity="0" result="BackgroundImageFix"/>
<feBlend mode="normal" in="SourceGraphic" in2="BackgroundImageFix" result="shape"/>
<feGaussianBlur stdDeviation="91.4625" result="effect1_foregroundBlur_1_119"/>
</filter>
<filter id="filter2_f_1_119" x="-64.6072" y="-149.902" width="338.44" height="338.266" filterUnits="userSpaceOnUse" color-interpolation-filters="sRGB">
<feFlood flood-opacity="0" result="BackgroundImageFix"/>
<feBlend mode="normal" in="SourceGraphic" in2="BackgroundImageFix" result="shape"/>
<feGaussianBlur stdDeviation="46.7516" result="effect1_foregroundBlur_1_119"/>
</filter>
<filter id="filter3_f_1_119" x="-105.758" y="-31.7937" width="450.804" height="450.804" filterUnits="userSpaceOnUse" color-interpolation-filters="sRGB">
<feFlood flood-opacity="0" result="BackgroundImageFix"/>
<feBlend mode="normal" in="SourceGraphic" in2="BackgroundImageFix" result="shape"/>
<feGaussianBlur stdDeviation="76.4113" result="effect1_foregroundBlur_1_119"/>
</filter>
<clipPath id="clip0_1_119">
<rect width="53.59" height="74.12" fill="white" transform="translate(26 11)"/>
</clipPath>
</defs>
</svg>
