<?xml version="1.0" encoding="UTF-8"?>
<svg id="Layer_1" data-name="Layer 1" xmlns="http://www.w3.org/2000/svg" viewBox="0 0 80 80">
  <path d="m34.11,70.54c-.18,0-.37,0-.55,0-19.06-.34-19.18-20.55-19.18-20.75-.77-14.23,6-27.75,20.13-40.16.29-.25.73-.23.99.06,14.36,16.2,17.78,29.1,18.54,35.35.05.38-.23.73-.61.78-.39.04-.73-.23-.78-.61-.73-6.02-4.01-18.4-17.73-34.07-13.43,11.98-19.87,24.96-19.13,38.61,0,.09,0,4.91,2.23,9.68,2.93,6.31,8.18,9.57,15.58,9.7,5.91.11,10.22-1.59,13.46-5.33.25-.29.7-.32.99-.07.29.25.32.7.07.99-3.43,3.96-7.89,5.82-13.99,5.82Z"/>
  <g>
    <g>
      <path d="m20.78,38.93c-.28,0-.54-.16-.65-.43-.15-.36.02-.77.38-.91.49-.2,1-.39,1.54-.57.37-.12.76.08.89.44s-.08.76-.44.89c-.5.17-.99.35-1.45.54-.09.04-.18.05-.27.05Z"/>
      <path d="m25.5,37.5c-.32,0-.61-.22-.68-.55-.08-.38.16-.75.54-.83,1.07-.23,2.2-.42,3.35-.56.38-.06.73.22.78.61s-.22.73-.61.78c-1.11.14-2.2.32-3.23.54-.05.01-.1.02-.15.02Zm16.58-.14s-.09,0-.13-.01c-1.04-.2-2.13-.37-3.24-.48-.38-.04-.66-.39-.62-.77.04-.38.4-.67.77-.62,1.14.12,2.27.29,3.36.5.38.07.63.44.55.82-.07.33-.36.57-.69.57Zm-9.97-.69c-.37,0-.68-.29-.7-.67-.02-.39.28-.71.67-.73,1.11-.05,2.27-.06,3.39-.03.39.01.69.33.68.72-.01.39-.34.67-.72.68-1.09-.03-2.21-.02-3.28.02-.01,0-.02,0-.03,0Z"/>
      <path d="m46.84,38.69c-.08,0-.17-.01-.25-.04-.47-.18-.96-.34-1.47-.5-.37-.11-.58-.5-.46-.88.11-.37.5-.58.88-.46.54.17,1.06.34,1.55.53.36.14.54.54.41.9-.11.28-.37.45-.66.45Z"/>
    </g>
    <g>
      <path d="m21.53,51.23c-.08,0-.16-.01-.24-.04-.53-.2-1.04-.41-1.53-.63-.35-.16-.5-.58-.34-.93s.58-.5.93-.34c.45.21.93.4,1.43.59.36.13.55.54.41.9-.1.28-.37.46-.66.46Z"/>
      <path d="m35.52,53.23c-.38,0-.69-.3-.7-.68-.01-.39.29-.71.68-.72.94-.03,1.88-.09,2.79-.18.4-.03.73.25.76.63.04.38-.24.73-.63.76-.94.09-1.91.15-2.88.18,0,0-.01,0-.02,0Zm-2.84,0s-.02,0-.02,0c-.97-.03-1.94-.09-2.88-.19-.38-.04-.67-.38-.63-.76.04-.38.38-.68.76-.63.91.09,1.85.15,2.79.18.39.01.69.34.68.72-.01.38-.32.68-.7.68Zm-5.66-.56s-.08,0-.12,0c-.98-.17-1.94-.37-2.84-.6-.37-.1-.6-.48-.5-.85s.48-.6.85-.5c.86.22,1.78.42,2.72.58.38.07.64.43.57.81-.06.34-.35.58-.69.58Z"/>
      <path d="m41.19,52.67c-.33,0-.63-.24-.69-.58-.06-.38.19-.74.57-.81.53-.09,1.04-.19,1.54-.3.38-.08.75.16.83.54.08.38-.16.75-.54.83-.52.11-1.05.21-1.6.31-.04,0-.08,0-.12,0Z"/>
    </g>
  </g>
  <path d="m54.98,66.64c-5.9,0-10.71-4.8-10.71-10.71s4.8-10.71,10.71-10.71,10.71,4.8,10.71,10.71-4.8,10.71-10.71,10.71Zm0-20.01c-5.13,0-9.3,4.17-9.3,9.3s4.17,9.3,9.3,9.3,9.3-4.17,9.3-9.3-4.17-9.3-9.3-9.3Z"/>
  <path d="m53.68,60.71c-.21,0-.41-.1-.55-.26l-2.43-3.02c-.24-.3-.19-.74.11-.98.3-.24.74-.19.98.11l1.85,2.3,4.83-6.71c.23-.31.66-.38.98-.16.31.23.38.66.16.98l-5.37,7.46c-.13.18-.33.29-.55.29h-.02Z"/>
</svg>