<?xml version="1.0" encoding="UTF-8"?>
<svg id="figma_components" data-name="figma components" xmlns="http://www.w3.org/2000/svg" viewBox="0 0 80 80">
  <path d="m24.96,51.24c-6.06,0-10.38-5.2-10.44-5.28-.25-.25-7.28-7.58-5.2-26.97.04-.38.39-.66.77-.62,11.44,1.17,19.62,5.52,24.3,12.93.37.53,7.06,10.5-2.27,17.38-2.54,1.87-4.97,2.56-7.17,2.56Zm-14.31-31.4c-1.77,18.14,4.85,25.12,4.92,25.19.34.41,7.3,8.75,15.74,2.52,8.41-6.21,2.22-15.08,1.95-15.46,0-.01-.02-.02-.02-.03-4.35-6.88-11.95-10.99-22.58-12.22Z"/>
  <path d="m39.58,71.04c-.39,0-.7-.31-.7-.7,0-11.4-3.89-19.26-6.35-21.54-.28-.26-.3-.71-.04-.99.26-.28.71-.3.99-.04,3.29,3.06,6.8,12.01,6.8,22.57,0,.39-.31.7-.7.7Z"/>
  <g>
    <g>
      <path d="m29.98,36.23c-.15,0-.3-.05-.43-.15-.31-.24-.36-.68-.12-.98.32-.42.62-.84.87-1.25.2-.33.63-.43.96-.23.33.2.43.63.23.96-.28.45-.6.92-.95,1.38-.14.18-.34.27-.55.27Z"/>
      <path d="m21.9,42.69c-.26,0-.5-.14-.63-.39-.17-.35-.03-.77.32-.94.73-.36,1.47-.78,2.2-1.25.33-.21.76-.11.97.21.21.33.11.76-.21.97-.77.49-1.55.94-2.33,1.33-.1.05-.21.07-.31.07Zm4.39-2.8c-.21,0-.41-.09-.55-.27-.24-.3-.19-.74.11-.98.67-.53,1.31-1.1,1.9-1.67.28-.27.72-.27.99,0,.27.28.27.72,0,.99-.62.61-1.3,1.21-2.01,1.77-.13.1-.28.15-.43.15Z"/>
      <path d="m17.95,44.14c-.32,0-.61-.22-.68-.55-.08-.38.16-.75.53-.83.46-.1.95-.24,1.46-.41.37-.12.76.07.89.44.12.37-.07.76-.44.89-.56.19-1.1.34-1.61.45-.05.01-.1.02-.15.02Z"/>
    </g>
    <g>
      <path d="m25.22,29.71c-.29,0-.56-.18-.66-.47-.13-.37.07-.76.43-.89.55-.19,1.09-.34,1.61-.46.38-.08.75.15.84.53.08.38-.15.75-.53.84-.47.11-.96.25-1.46.42-.08.03-.15.04-.23.04Z"/>
      <path d="m16.69,35.19c-.18,0-.35-.07-.49-.2-.28-.27-.29-.71-.02-.99.64-.66,1.29-1.27,1.93-1.79.3-.25.74-.21.99.09s.21.74-.09.99c-.6.5-1.21,1.06-1.81,1.69-.14.14-.32.21-.5.21Zm3.95-3.23c-.23,0-.46-.11-.59-.32-.21-.33-.11-.76.21-.97.75-.48,1.52-.91,2.29-1.3.35-.17.77-.03.94.31.17.35.03.77-.31.94-.72.36-1.45.77-2.16,1.22-.12.07-.25.11-.38.11Z"/>
      <path d="m14.03,38.39c-.14,0-.28-.04-.4-.13-.32-.22-.39-.66-.17-.98.28-.4.62-.85.99-1.31.24-.3.68-.35.98-.11.3.24.35.68.11.98-.35.44-.67.86-.94,1.24-.14.19-.35.3-.57.3Z"/>
    </g>
  </g>
  <path d="m55.1,45.25c-2.09,0-4.41-.58-6.89-2.07-10.73-6.45-4.53-17.86-4.2-18.44,4.29-8.45,12.66-13.96,24.86-16.4.37-.07.75.17.82.55,4.23,20.68-2.59,29.28-2.88,29.64-.03.04-4.59,6.72-11.71,6.72Zm13.35-35.4c-11.39,2.41-19.2,7.63-23.21,15.53,0,.01-.01.02-.02.04-.25.43-6.06,10.69,3.7,16.56,9.78,5.88,16.47-3.87,16.75-4.29.11-.13,6.56-8.37,2.77-27.84Zm-23.83,15.21h0,0Z"/>
  <path d="m39.58,70.9c-.39,0-.7-.31-.7-.7,0-13.15,4.49-24.29,8.71-28.09.29-.26.73-.24.99.05.26.29.23.73-.05.99-4,3.6-8.25,14.3-8.25,27.05,0,.39-.31.7-.7.7Z"/>
  <path d="m47.64,71.68h-15.69c-.39,0-.7-.31-.7-.7s.31-.7.7-.7h15.69c.39,0,.7.31.7.7s-.31.7-.7.7Z"/>
  <g>
    <g>
      <path d="m53.45,21.63c-.05,0-.11,0-.16-.02-.52-.12-1.02-.22-1.5-.28-.38-.05-.65-.4-.6-.79.05-.38.4-.65.79-.6.53.07,1.08.17,1.64.31.38.09.61.47.52.84-.08.32-.36.54-.68.54Z"/>
      <path d="m63.18,26.47c-.15,0-.3-.05-.43-.15-.68-.54-1.42-1.05-2.18-1.54-.33-.21-.42-.64-.22-.97.21-.33.64-.42.97-.22.8.51,1.57,1.05,2.29,1.62.3.24.36.68.12.98-.14.18-.34.27-.55.27Zm-4.61-2.93c-.11,0-.21-.02-.32-.08-.81-.41-1.63-.77-2.43-1.08-.36-.14-.54-.54-.41-.9.14-.36.54-.55.9-.41.85.32,1.72.71,2.57,1.14.34.17.48.6.31.94-.12.24-.37.38-.62.38Z"/>
      <path d="m66.3,29.48c-.2,0-.4-.09-.54-.26-.31-.38-.65-.76-1.03-1.14-.27-.28-.27-.72,0-.99.27-.27.72-.27.99,0,.4.41.78.83,1.11,1.24.24.3.2.74-.1.98-.13.11-.29.16-.44.16Z"/>
    </g>
    <g>
      <path d="m48.74,28.82c-.19,0-.39-.08-.52-.24-.39-.44-.74-.88-1.04-1.31-.22-.32-.15-.75.17-.98.31-.22.75-.15.98.17.27.39.59.79.95,1.19.26.29.23.73-.06.99-.13.12-.3.18-.46.18Z"/>
      <path d="m58.81,35.46c-.08,0-.16-.01-.24-.04-.95-.35-1.91-.77-2.86-1.25-.35-.17-.48-.6-.31-.94.17-.34.6-.48.94-.31.9.46,1.82.86,2.71,1.18.36.13.55.54.42.9-.1.28-.37.46-.66.46Zm-5.43-2.73c-.13,0-.26-.04-.38-.11-.89-.58-1.74-1.2-2.52-1.85-.3-.25-.34-.69-.09-.99.25-.3.69-.34.99-.09.74.61,1.54,1.2,2.39,1.75.32.21.42.64.21.97-.13.21-.36.32-.59.32Z"/>
      <path d="m63.33,36.52s-.04,0-.06,0c-.53-.04-1.09-.12-1.66-.24-.38-.08-.62-.45-.55-.82.08-.38.45-.62.82-.55.52.1,1.03.18,1.5.22.39.03.67.37.64.76-.03.37-.34.64-.7.64Z"/>
    </g>
  </g>
</svg>