<?xml version="1.0" encoding="UTF-8"?>
<svg id="Layer_1" data-name="Layer 1" xmlns="http://www.w3.org/2000/svg" viewBox="0 0 80 80">
  <path d="m40,39.3c-3.82,0-6.93-3.11-6.93-6.93s3.11-6.93,6.93-6.93,6.93,3.11,6.93,6.93-3.11,6.93-6.93,6.93Zm0-12.47c-3.05,0-5.53,2.48-5.53,5.53s2.48,5.53,5.53,5.53,5.53-2.48,5.53-5.53-2.48-5.53-5.53-5.53Z"/>
  <path d="m48.73,72.02c-.32,0-.61-.22-.68-.55l-7.14-32.42c-.08-.38.16-.75.53-.83.38-.08.75.16.83.53l7.14,32.42c.08.38-.16.75-.53.83-.05.01-.1.02-.15.02Zm-16.52,0s-.09,0-.13-.01c-.38-.07-.63-.44-.55-.82l6.3-32.42c.07-.38.45-.63.82-.55.38.07.63.44.55.82l-6.3,32.42c-.07.33-.36.57-.69.57Z"/>
  <path d="m43.12,27.14c-.37,0-.68-.29-.7-.66-.55-9.66-1.5-18.01-2.29-20.36-.8,2.34-1.73,10.7-2.24,20.36-.02.39-.35.66-.74.66-.39-.02-.68-.35-.66-.74.75-14.34,1.91-21.79,3.43-22.15.27-.06.55,0,.79.17,1.75,1.31,2.75,15.8,3.1,21.97.02.39-.27.72-.66.74-.01,0-.03,0-.04,0Z"/>
  <path d="m63.04,47.15c-2.99,0-14.64-6.24-19.72-9.05-.34-.19-.46-.61-.28-.95s.61-.46.95-.28c8.44,4.66,16.01,8.27,18.38,8.83-1.52-1.9-8.06-7.14-15.95-12.7-.32-.22-.39-.66-.17-.98.22-.31.66-.39.98-.17,11.67,8.23,17.32,13.16,16.8,14.65-.09.26-.29.47-.57.57-.11.04-.25.06-.43.06Zm-.35-.92h.01-.01Z"/>
  <path d="m16.96,47.15c-.17,0-.31-.02-.43-.06-.28-.11-.48-.31-.57-.57-.52-1.49,5.13-6.42,16.8-14.65.32-.22.75-.15.98.17.22.32.15.75-.17.98-7.88,5.56-14.43,10.79-15.95,12.7,2.37-.55,9.94-4.17,18.38-8.83.34-.18.76-.06.95.28.19.34.06.76-.28.95-5.08,2.8-16.73,9.05-19.72,9.05Z"/>
  <path d="m40.39,75.77s-.02,0-.04,0c-1.12,0-2.2-.09-3.22-.25-.38-.06-.64-.42-.58-.8.06-.38.42-.64.8-.58.95.16,1.97.23,3.02.23.04,0,.08,0,.12,0,.39,0,.65.31.65.7,0,.39-.36.7-.75.7Zm3.15-.25c-.34,0-.63-.24-.69-.59-.06-.38.2-.74.58-.8,1.09-.18,2.08-.46,2.86-.81.35-.16.77,0,.93.35.16.35,0,.77-.35.93-.89.4-2,.71-3.21.91-.04,0-.08,0-.11,0Zm-9.33-.85c-.1,0-.19-.02-.28-.06-2.05-.91-2.49-2.01-2.51-2.78,0-.39.3-.71.69-.71h.01c.38,0,.69.3.7.69,0,.49.64,1.06,1.68,1.52.35.16.51.57.36.92-.12.26-.37.42-.64.42Zm14.42-2.19c-.38,0-.7-.31-.7-.7,0-.49-.62-1.06-1.66-1.53-.35-.16-.51-.57-.35-.92.16-.35.57-.51.92-.35,2.05.92,2.49,2.03,2.49,2.8,0,.39-.31.7-.7.7h0Zm-14.48-2.15c-.27,0-.52-.15-.64-.41-.16-.35,0-.77.35-.93.88-.4,1.99-.72,3.21-.92.37-.07.74.19.8.58.06.38-.19.74-.58.8-1.1.18-2.08.46-2.86.81-.09.04-.19.06-.29.06Zm9.37-.87s-.08,0-.11,0c-.96-.16-1.99-.24-3.04-.24-.39,0-.72-.31-.72-.7s.29-.7.68-.7h.04c1.12,0,2.22.09,3.26.26.38.06.64.42.58.8-.06.34-.35.59-.69.59Z"/>
</svg>