<?xml version="1.0" encoding="UTF-8"?>
<svg id="Layer_1" data-name="Layer 1" xmlns="http://www.w3.org/2000/svg" viewBox="0 0 80 80">
  <path d="m48.23,69.77c-.29,0-.57-.02-.86-.05l-25.23-3.63c-1.29-.18-2.6-.05-3.79.37l-3.53,1.25c-.37.13-.77-.06-.89-.43-.13-.36.06-.76.43-.89l3.53-1.25c1.41-.5,2.95-.65,4.46-.44l25.22,3.62c.97.12,1.94-.02,2.81-.39,4.75-2.04,8.37-3.92,12.93-6.69l7.21-6.15c.12-.12.22-.29.25-.48.08-.48.02-.58-.25-.75-1.38-.9-3.58-.86-5.48.11-1.44.77-4.28,2.61-5.58,3.86-.08.07-.17.13-.27.16l-5.21,1.64c-.37.12-.76-.09-.88-.46s.09-.76.46-.88l5.06-1.59c1.48-1.38,4.33-3.21,5.78-3.98,2.38-1.21,5.08-1.22,6.89-.04.96.62.98,1.43.87,2.14-.08.49-.32.94-.7,1.3l-7.28,6.21s-.06.05-.09.07c-4.64,2.83-8.32,4.74-13.15,6.81-.83.36-1.75.55-2.69.55Z"/>
  <path d="m51.01,61.68c-.17,0-.34-.01-.51-.03l-15.84-1.95c-.38-.05-.66-.4-.61-.78.05-.38.4-.66.78-.61l15.84,1.95c.8.09,1.49-.14,1.94-.67.43-.5.58-1.19.41-1.81-.44-1.5-2.86-2.12-4.63-2.58l-.11-.03c-1.13-.29-2.33-.49-3.5-.68-2.24-.36-4.56-.74-6.6-1.83-2.01-1.09-6.18-3.35-13.5-2.63-3.97.39-7.89,1.6-11.65,3.61-1.18.63-2.89,1.45-4.36,1.77-.37.09-.75-.16-.83-.53-.08-.38.16-.75.53-.83,1.31-.29,2.9-1.05,4-1.64,3.93-2.09,8.02-3.36,12.17-3.77,7.74-.77,12.34,1.73,14.3,2.79,1.83.98,3.93,1.32,6.16,1.68,1.2.19,2.44.39,3.63.7l.11.03c2.09.54,4.96,1.28,5.62,3.55.3,1.06.04,2.25-.69,3.1-.65.76-1.61,1.18-2.67,1.18Z"/>
  <path d="m49.87,45.28c-.87,0-1.72-.18-2.5-.52l-1.53-.67-1.53.67c-1.04.45-2.18.61-3.29.47-1.67-.21-3.2-1.1-4.21-2.44-1.84-2.44-3.24-5.14-4.15-8.01l-.75-2.36c-.59-1.86-.89-3.77-.89-5.69,0-1.77.49-3.52,1.42-5.06.97-1.6,2.38-2.88,4.08-3.7l.39-.18c2.23-1.07,4.76-1.25,7.12-.5l1.82.58,1.83-.58c2.38-.75,4.9-.57,7.12.5l.38.18c1.71.82,3.12,2.1,4.08,3.7.93,1.51,1.42,3.26,1.42,5.06,0,1.96-.3,3.87-.89,5.7l-.75,2.35c-.91,2.89-2.31,5.58-4.15,8.01-1,1.33-2.54,2.22-4.2,2.44-.27.03-.53.05-.8.05Zm-4.03-2.65c.1,0,.19.02.28.06l1.81.79c.79.35,1.68.47,2.56.36,1.29-.17,2.48-.86,3.26-1.89,1.75-2.3,3.07-4.86,3.93-7.59l.75-2.36c.55-1.69.82-3.46.82-5.27,0-1.55-.42-3.04-1.21-4.33-.83-1.37-2.03-2.46-3.49-3.17l-.38-.18c-1.9-.92-4.06-1.07-6.1-.43l-2.04.64c-.14.04-.28.04-.42,0l-2.04-.64c-2.02-.65-4.18-.5-6.09.42l-.39.18c-1.45.7-2.66,1.79-3.48,3.16-.79,1.32-1.21,2.82-1.21,4.34,0,1.78.28,3.55.82,5.27l.75,2.36c.86,2.73,2.19,5.28,3.93,7.59.78,1.04,1.97,1.73,3.27,1.89.87.11,1.75-.02,2.56-.37l1.81-.79c.09-.04.18-.06.28-.06Z"/>
  <g>
    <g>
      <path d="m34.86,28.7c-.27,0-.53-.16-.64-.42-.15-.35,0-.77.37-.92.47-.2,1-.4,1.57-.57.37-.12.76.09.88.46.11.37-.09.76-.46.88-.52.16-1,.34-1.43.52-.09.04-.18.06-.28.06Z"/>
      <path d="m52.95,27.57s-.09,0-.14-.01c-.85-.17-1.75-.3-2.7-.4-.38-.04-.66-.39-.62-.77.04-.38.39-.66.77-.62.98.11,1.93.25,2.82.42.38.07.63.44.55.82-.07.33-.36.57-.69.57Zm-13.88-.06c-.33,0-.63-.24-.69-.57-.07-.38.18-.75.56-.81.89-.16,1.84-.29,2.82-.39.38-.05.73.24.77.63.04.38-.24.73-.63.77-.95.09-1.86.22-2.71.38-.04,0-.08.01-.13.01Zm8.33-.55s-.02,0-.03,0c-.53-.02-1.07-.03-1.63-.03-.38,0-.75,0-1.11.02-.39.05-.71-.29-.72-.68-.01-.39.29-.71.68-.72.41-.01.81-.02,1.24-.02.54,0,1.07,0,1.59.03.39.01.69.34.67.72-.01.38-.32.67-.7.67Z"/>
      <path d="m57.15,28.86c-.1,0-.2-.02-.3-.07-.41-.19-.89-.38-1.41-.55-.37-.12-.57-.52-.45-.88.12-.37.52-.57.88-.44.57.19,1.1.4,1.56.62.35.17.5.58.33.93-.12.25-.37.4-.63.4Z"/>
    </g>
    <g>
      <path d="m36.72,34.59c-.06,0-.13,0-.19-.03-.57-.16-1.1-.34-1.58-.53-.36-.14-.53-.55-.39-.91.14-.36.55-.54.91-.39.44.17.93.34,1.45.49.37.11.59.49.48.87-.09.31-.37.51-.67.51Z"/>
      <path d="m47.67,35.67c-.37,0-.68-.29-.7-.67-.02-.39.28-.71.67-.73,1.24-.05,2.46-.16,3.6-.33.39-.05.74.21.79.6.05.38-.21.74-.6.79-1.19.17-2.45.28-3.74.34-.01,0-.02,0-.03,0Zm-3.68,0s-.02,0-.03,0c-1.29-.05-2.55-.17-3.74-.34-.38-.05-.65-.41-.59-.79.05-.38.41-.65.79-.59,1.15.16,2.36.27,3.6.33.39.02.69.34.67.73-.02.38-.33.67-.7.67Z"/>
      <path d="m54.96,34.59c-.3,0-.58-.2-.67-.51-.11-.37.11-.76.48-.87.52-.15,1.01-.31,1.45-.49.36-.14.77.03.91.39s-.03.77-.39.91c-.48.19-1.01.37-1.58.53-.06.02-.13.03-.19.03Z"/>
    </g>
  </g>
  <path d="m45.84,18.93c-.05,0-.1,0-.15-.02-.38-.08-.61-.46-.53-.84.53-2.35,1.84-4.49,3.7-6.04.12-.1.28-.16.45-.16.39,0,.71.31.71.7,0,.25-.13.47-.32.59-1.59,1.34-2.71,3.19-3.17,5.21-.07.33-.36.55-.68.55Z"/>
  <path d="m44.98,18.53c-1.44,0-3.11-.87-4.37-2.33-1.51-1.75-2.09-3.95-1.44-5.47.08-.2.26-.35.47-.4,1.6-.42,3.69.48,5.2,2.23,1.51,1.75,2.09,3.95,1.44,5.47-.1.22-.3.38-.54.42-.24.06-.5.09-.76.09Zm.65-.78h0,0Zm-5.28-6.12c-.21,1.02.3,2.46,1.32,3.65,1.13,1.31,2.51,1.89,3.43,1.84.21-1.02-.3-2.46-1.32-3.65-1.13-1.31-2.49-1.88-3.43-1.84Z"/>
</svg>