<?xml version="1.0" encoding="UTF-8"?>
<svg id="Layer_1" data-name="Layer 1" xmlns="http://www.w3.org/2000/svg" viewBox="0 0 80 80">
  <path d="m40,45.89c-3.25,0-5.89-2.64-5.89-5.89s2.64-5.89,5.89-5.89,5.89,2.64,5.89,5.89-2.64,5.89-5.89,5.89Zm0-10.39c-2.48,0-4.49,2.02-4.49,4.49s2.02,4.49,4.49,4.49,4.49-2.01,4.49-4.49-2.02-4.49-4.49-4.49Z"/>
  <g>
    <path d="m30.12,31.32c-.17,0-.35-.06-.48-.19-.28-.27-.29-.71-.03-.99.38-.4.8-.79,1.23-1.15.3-.25.74-.21.99.09.25.3.21.74-.09.99-.39.32-.76.67-1.11,1.04-.14.14-.32.22-.51.22Z"/>
    <path d="m28.32,47.72c-.24,0-.47-.12-.6-.34-.54-.89-.97-1.83-1.3-2.81-.12-.37.07-.76.44-.89.37-.12.76.07.89.44.3.88.69,1.74,1.18,2.54.2.33.09.76-.24.96-.11.07-.24.1-.36.1Zm-1.87-5.55c-.35,0-.66-.27-.69-.63-.05-.51-.08-1.03-.08-1.54s.03-1.04.08-1.56c.04-.39.38-.66.77-.62.38.04.66.39.62.77-.05.46-.08.94-.08,1.41s.02.93.07,1.39c.04.38-.24.73-.62.77-.03,0-.05,0-.08,0Zm.64-5.83c-.07,0-.15-.01-.22-.04-.37-.12-.56-.52-.44-.89.33-.98.77-1.92,1.31-2.81.2-.33.63-.44.96-.24.33.2.44.63.24.96-.48.8-.88,1.65-1.18,2.54-.1.29-.37.48-.66.48Z"/>
    <path d="m31.28,51.17c-.16,0-.32-.05-.45-.16-.43-.36-.84-.75-1.23-1.15-.27-.28-.25-.72.03-.99.28-.26.72-.25.99.03.35.37.72.72,1.11,1.04.3.25.34.69.09.99-.14.17-.34.25-.54.25Z"/>
  </g>
  <g>
    <path d="m24.7,24.82c-.18,0-.37-.07-.5-.21-.27-.28-.26-.72.02-.99.4-.38.81-.75,1.23-1.1.3-.25.74-.21.99.09s.21.74-.09.99c-.4.33-.78.67-1.15,1.03-.14.13-.31.2-.49.2Z"/>
    <path d="m22.53,54.17c-.21,0-.42-.09-.55-.27-.68-.87-1.29-1.81-1.83-2.77-.19-.34-.07-.76.27-.95.34-.19.76-.07.95.27.51.91,1.09,1.78,1.72,2.6.24.31.18.75-.13.98-.13.1-.28.15-.43.15Zm-3.15-5.6c-.28,0-.55-.17-.65-.45-.4-1.03-.72-2.1-.96-3.18-.08-.38.15-.75.53-.83.38-.08.75.16.83.53.22,1.01.53,2.02.9,2.99.14.36-.04.77-.4.9-.08.03-.17.05-.25.05Zm-1.39-6.27c-.36,0-.67-.28-.7-.65-.04-.54-.06-1.09-.06-1.65s.02-1.12.06-1.67c.03-.38.38-.66.75-.65.39.03.68.36.65.75-.04.52-.06,1.04-.06,1.57s.02,1.04.06,1.55c.03.39-.26.72-.65.75-.02,0-.03,0-.05,0Zm.47-6.41c-.05,0-.1,0-.15-.02-.38-.08-.62-.46-.53-.84.24-1.08.56-2.15.96-3.18.14-.36.55-.54.9-.4.36.14.54.54.4.9-.37.97-.67,1.97-.9,2.98-.07.33-.36.55-.68.55Zm2.3-6c-.12,0-.23-.03-.34-.09-.34-.19-.46-.62-.27-.95.54-.96,1.16-1.89,1.84-2.77.24-.3.68-.36.98-.12.31.24.36.68.12.98-.64.82-1.22,1.69-1.72,2.6-.13.23-.37.36-.61.36Z"/>
    <path d="m25.89,57.65c-.16,0-.32-.05-.45-.16-.42-.35-.83-.72-1.23-1.1-.28-.27-.29-.71-.02-.99.27-.28.71-.29.99-.02.37.36.76.7,1.15,1.03.3.25.34.69.09.99-.14.17-.34.25-.54.25Z"/>
  </g>
  <g>
    <path d="m19.3,18.32c-.19,0-.38-.08-.51-.22-.26-.28-.25-.73.04-.99.4-.37.81-.73,1.23-1.08.3-.25.74-.21.99.09s.21.74-.09.99c-.4.33-.79.68-1.17,1.03-.13.12-.31.19-.48.19Z"/>
    <path d="m16.95,60.65c-.2,0-.39-.08-.53-.24-.75-.86-1.45-1.77-2.1-2.71-.22-.32-.14-.75.18-.97.32-.22.75-.14.97.18.62.89,1.29,1.76,2,2.59.25.29.22.73-.07.99-.13.11-.3.17-.46.17Zm-3.8-5.5c-.25,0-.49-.13-.62-.37-.54-1-1.03-2.05-1.46-3.1-.15-.36.03-.77.39-.91.36-.14.77.03.91.39.41,1,.87,2,1.39,2.96.18.34.06.76-.28.95-.11.06-.22.08-.33.08Zm-2.51-6.2c-.31,0-.59-.2-.67-.51-.31-1.09-.56-2.22-.74-3.34-.06-.38.2-.74.58-.8.38-.06.74.2.8.58.18,1.07.41,2.15.71,3.19.1.37-.11.76-.48.86-.06.02-.13.03-.19.03Zm-1.09-6.6c-.37,0-.68-.29-.7-.66-.03-.56-.04-1.12-.04-1.69,0-.58.02-1.16.05-1.73.02-.39.35-.66.74-.66.39.02.68.35.66.74-.03.55-.04,1.1-.05,1.66,0,.54.01,1.08.04,1.62.02.39-.28.72-.66.74-.01,0-.03,0-.04,0Zm.37-6.67s-.08,0-.12,0c-.38-.06-.64-.42-.58-.8.19-1.12.44-2.25.75-3.34.1-.37.49-.59.86-.48.37.1.59.49.48.86-.29,1.05-.53,2.12-.71,3.19-.06.34-.35.59-.69.59Zm1.81-6.43c-.09,0-.18-.02-.26-.05-.36-.15-.53-.55-.39-.91.43-1.05.92-2.09,1.46-3.1.18-.34.61-.47.95-.28.34.18.47.61.28.95-.52.96-.99,1.95-1.39,2.96-.11.27-.37.44-.65.44Zm3.18-5.88c-.14,0-.28-.04-.4-.12-.32-.22-.4-.66-.18-.97.65-.94,1.35-1.85,2.1-2.7.25-.29.7-.32.99-.07.29.25.32.7.07.99-.71.82-1.39,1.69-2.01,2.58-.14.2-.35.3-.58.3Z"/>
    <path d="m20.5,64.13c-.16,0-.32-.05-.45-.16-.42-.35-.83-.71-1.23-1.08-.28-.26-.3-.71-.04-.99.26-.28.71-.3.99-.04.38.35.77.7,1.17,1.03.3.25.34.69.09.99-.14.17-.34.25-.54.25Z"/>
  </g>
  <g>
    <path d="m49.88,31.32c-.19,0-.37-.07-.51-.22-.35-.37-.72-.71-1.11-1.04-.3-.25-.34-.69-.09-.99.25-.3.69-.34.99-.09.43.36.84.74,1.23,1.15.27.28.25.72-.03.99-.14.13-.31.19-.48.19Z"/>
    <path d="m51.68,47.72c-.12,0-.25-.03-.36-.1-.33-.2-.44-.63-.24-.96.48-.8.88-1.66,1.18-2.54.12-.37.52-.56.89-.44.37.12.56.52.44.89-.33.98-.77,1.92-1.3,2.81-.13.22-.36.34-.6.34Zm1.87-5.55s-.05,0-.08,0c-.38-.04-.66-.39-.62-.77.05-.46.07-.93.07-1.39,0-.47-.02-.94-.07-1.41-.04-.38.24-.73.62-.77.38-.04.73.24.77.62.06.51.08,1.04.08,1.56,0,.51-.03,1.03-.08,1.54-.04.36-.34.63-.69.63Zm-.64-5.83c-.29,0-.56-.18-.66-.48-.3-.88-.69-1.74-1.18-2.54-.2-.33-.09-.76.24-.96.33-.2.76-.09.96.24.54.89.98,1.83,1.31,2.81.12.37-.07.76-.44.89-.07.03-.15.04-.22.04Z"/>
    <path d="m48.72,51.17c-.2,0-.4-.09-.54-.25-.25-.3-.21-.74.09-.99.39-.32.76-.67,1.11-1.04.27-.28.71-.29.99-.03.28.27.29.71.03.99-.38.4-.8.79-1.23,1.15-.13.11-.29.16-.45.16Z"/>
  </g>
  <g>
    <path d="m55.3,24.82c-.17,0-.35-.07-.49-.2-.37-.36-.76-.7-1.15-1.03-.3-.25-.34-.69-.09-.99.25-.3.69-.34.99-.09.42.35.83.72,1.23,1.1.28.27.29.71.02.99-.14.14-.32.21-.5.21Z"/>
    <path d="m57.46,54.17c-.15,0-.3-.05-.43-.15-.31-.24-.36-.68-.13-.98.63-.82,1.21-1.69,1.72-2.6.19-.34.62-.46.95-.27.34.19.46.62.27.95-.54.96-1.16,1.9-1.83,2.77-.14.18-.35.27-.55.27Zm3.15-5.6c-.08,0-.17-.01-.25-.05-.36-.14-.54-.54-.4-.9.37-.97.67-1.97.9-2.99.08-.38.45-.61.83-.53.38.08.62.46.53.83-.24,1.08-.56,2.15-.96,3.18-.11.28-.37.45-.65.45Zm1.39-6.27s-.03,0-.05,0c-.39-.03-.68-.36-.65-.75.04-.51.06-1.03.06-1.55s-.02-1.05-.06-1.57c-.03-.39.26-.72.65-.75.39-.02.72.26.75.65.04.55.06,1.11.06,1.67s-.02,1.1-.06,1.65c-.03.37-.33.65-.7.65Zm-.47-6.41c-.32,0-.61-.22-.68-.55-.23-1.01-.53-2.02-.9-2.98-.14-.36.04-.77.4-.9.36-.14.77.04.9.4.4,1.03.72,2.1.96,3.18.08.38-.15.75-.53.84-.05.01-.1.02-.15.02Zm-2.3-6c-.24,0-.48-.13-.61-.36-.51-.9-1.09-1.78-1.72-2.6-.24-.31-.18-.75.12-.98.31-.24.75-.18.98.12.68.88,1.29,1.81,1.84,2.77.19.34.07.76-.27.95-.11.06-.23.09-.34.09Z"/>
    <path d="m54.11,57.65c-.2,0-.4-.09-.54-.25-.25-.3-.21-.74.09-.99.4-.33.78-.68,1.15-1.03.28-.27.72-.26.99.02.27.28.26.72-.02.99-.4.38-.81.75-1.23,1.1-.13.11-.29.16-.45.16Z"/>
  </g>
  <g>
    <path d="m60.7,18.32c-.17,0-.34-.06-.48-.19-.38-.35-.77-.7-1.17-1.03-.3-.25-.34-.69-.09-.99.25-.3.69-.34.99-.09.42.35.83.71,1.23,1.08.28.26.3.71.04.99-.14.15-.33.22-.51.22Z"/>
    <path d="m63.05,60.65c-.16,0-.33-.06-.46-.17-.29-.25-.32-.7-.07-.99.71-.82,1.39-1.69,2-2.59.22-.32.66-.4.97-.18.32.22.4.66.18.97-.64.93-1.35,1.84-2.1,2.71-.14.16-.33.24-.53.24Zm3.8-5.5c-.11,0-.23-.03-.33-.08-.34-.18-.47-.61-.28-.95.52-.96.98-1.96,1.39-2.96.15-.36.56-.53.91-.39.36.14.53.55.39.91-.43,1.05-.92,2.09-1.46,3.1-.13.23-.37.37-.62.37Zm2.51-6.2c-.06,0-.13,0-.19-.03-.37-.1-.59-.49-.48-.86.29-1.04.53-2.12.71-3.19.06-.38.43-.64.8-.58.38.06.64.42.58.8-.19,1.13-.44,2.25-.74,3.34-.09.31-.37.51-.67.51Zm1.09-6.6s-.02,0-.04,0c-.39-.02-.68-.35-.66-.74.03-.54.04-1.07.04-1.62,0-.56-.01-1.11-.04-1.66-.02-.39.27-.72.66-.74.39,0,.72.27.74.66.03.57.05,1.15.05,1.73,0,.57-.02,1.13-.04,1.69-.02.37-.33.66-.7.66Zm-.37-6.67c-.34,0-.63-.24-.69-.59-.18-1.07-.42-2.14-.71-3.19-.1-.37.11-.76.48-.86.37-.1.76.11.86.48.31,1.09.56,2.22.75,3.34.06.38-.19.74-.58.8-.04,0-.08,0-.12,0Zm-1.81-6.43c-.28,0-.54-.17-.65-.44-.41-1-.88-2-1.39-2.96-.18-.34-.06-.76.28-.95.34-.18.77-.06.95.28.54,1,1.03,2.05,1.46,3.1.15.36-.03.77-.39.91-.09.04-.18.05-.26.05Zm-3.18-5.88c-.22,0-.44-.11-.58-.3-.62-.89-1.29-1.76-2.01-2.58-.25-.29-.22-.73.07-.99.29-.25.73-.22.99.07.75.86,1.45,1.77,2.1,2.7.22.32.14.75-.18.97-.12.08-.26.12-.4.12Z"/>
    <path d="m59.5,64.13c-.2,0-.4-.09-.54-.25-.25-.3-.21-.74.09-.99.4-.33.79-.68,1.17-1.03.28-.26.73-.25.99.04.26.28.25.73-.04.99-.4.37-.81.73-1.23,1.08-.13.11-.29.16-.45.16Z"/>
  </g>
</svg>