<svg width="82" height="90" viewBox="0 0 82 90" fill="none" xmlns="http://www.w3.org/2000/svg">
<path d="M27.1014 36.8925C27.7609 37.2324 28.4551 37.5169 29.1632 37.732L30.2392 42.0269H35.1889L36.2649 37.732C36.9869 37.5239 37.695 37.2463 38.3545 36.8925L42.728 39.5291L44.4635 37.7667L46.2753 35.9697L43.6374 31.536C43.9775 30.9046 44.2552 30.2385 44.4635 29.5516L48.7606 28.4762V23.5429L44.4635 22.4675C44.2552 21.7736 43.9775 21.1076 43.6374 20.4692L46.2753 16.0494L44.4635 14.301L42.728 12.5664L38.3545 15.1891C37.688 14.8422 36.9869 14.5646 36.2649 14.3634L35.1889 10.0408H30.2531L29.1771 14.3634C28.469 14.5854 27.7818 14.863 27.1153 15.1891L22.7418 12.5664L20.9925 14.301L19.2292 16.0494L21.881 20.4692C21.5478 21.1076 21.2771 21.7736 21.0688 22.4675L16.7578 23.5429V28.4762L21.0688 29.5516C21.2771 30.2385 21.5478 30.8977 21.881 31.536L19.2292 35.9697L20.9925 37.6834L22.7418 39.4458L27.1014 36.8855M28.3371 25.9714C28.3302 28.3998 30.2948 30.3773 32.7245 30.3912C35.1542 30.3981 37.1327 28.4345 37.1466 26.0061C37.1535 23.5776 35.1889 21.6002 32.7592 21.5863H32.7453C30.3225 21.5932 28.3579 23.5499 28.3441 25.9714H28.3371Z" stroke="#FEC010" stroke-width="3" stroke-linecap="round" stroke-linejoin="round"/>
<path d="M24.0756 48.5698L13.8986 60.8231C13.607 61.1769 13.0864 61.2255 12.7323 60.941C12.5449 60.7884 12.4338 60.5525 12.4269 60.3096V48.5767H9.30297C6.22765 48.5767 3.72852 46.0859 3.72852 43.0052V7.33478C3.72852 4.28187 6.19988 1.79791 9.25437 1.7771H53.5168C56.5852 1.7771 59.0774 4.26105 59.0774 7.33478V42.9983C59.0774 46.072 56.5921 48.5629 53.5168 48.5698H24.0756Z" stroke="#FEC010" stroke-width="3" stroke-linecap="round" stroke-linejoin="round"/>
<path d="M63.1315 15.0435H75.9535C78.529 15.2724 80.4311 17.5413 80.209 20.1224V53.184C80.4242 55.772 78.5359 58.0547 75.9535 58.3323H71.0802L70.8442 68.5387C70.8233 69.3158 70.1777 69.9264 69.4002 69.9056C68.9906 69.8917 68.6019 69.7043 68.345 69.3852L59.5078 58.3392H42.1597C39.5842 58.0547 37.7098 55.7651 37.925 53.1909V52.6428" stroke="#FEC010" stroke-width="3" stroke-linecap="round" stroke-linejoin="round"/>
<path d="M22.5352 88.216V82.3392C22.5352 79.3557 27.221 76.9272 32.8996 76.9272C38.5782 76.9272 43.2849 79.3626 43.2849 82.3392V87.6471M39.4112 69.3227C39.4112 72.9168 36.4956 75.8309 32.8996 75.8309C29.3036 75.8309 26.388 72.9168 26.388 69.3227C26.388 65.7286 29.3036 62.8145 32.8996 62.8145C36.4956 62.8145 39.4112 65.7286 39.4112 69.3227Z" stroke="#FEC010" stroke-width="3" stroke-linecap="round" stroke-linejoin="round"/>
<path d="M43.2852 88.223V86.1692C43.2852 83.1857 47.971 80.7573 53.6496 80.7573C59.3282 80.7573 64.0349 83.1927 64.0349 86.1692V88.1606M60.1612 73.1528C60.1612 76.7469 57.2456 79.661 53.6496 79.661C50.0536 79.661 47.138 76.7469 47.138 73.1528C47.138 69.5587 50.0536 66.6445 53.6496 66.6445C57.2456 66.6445 60.1612 69.5587 60.1612 73.1528Z" stroke="#FEC010" stroke-width="3" stroke-linecap="round" stroke-linejoin="round"/>
<path d="M1.77734 88.2161V86.1623C1.77734 83.1788 6.46322 80.7503 12.1418 80.7503C17.8204 80.7503 22.5271 83.1857 22.5271 86.1623V88.1536M18.6604 73.1528C18.6604 76.7469 15.7447 79.661 12.1487 79.661C8.55277 79.661 5.63711 76.7469 5.63711 73.1528C5.63711 69.5587 8.55277 66.6445 12.1487 66.6445C15.7447 66.6445 18.6604 69.5587 18.6604 73.1528V73.1528Z" stroke="#FEC010" stroke-width="3" stroke-linecap="round" stroke-linejoin="round"/>
</svg>
