<?xml version="1.0" encoding="UTF-8"?>
<svg id="Layer_1" data-name="Layer 1" xmlns="http://www.w3.org/2000/svg" viewBox="0 0 80 80">
  <path d="m22.33,42.27c-.06,0-.13,0-.19-.03-.37-.11-.59-.5-.48-.87l5.54-19.18c.11-.37.5-.59.87-.48s.59.5.48.87l-5.54,19.18c-.09.31-.37.51-.67.51Z"/>
  <path d="m17.21,40.58c-.06,0-.13,0-.19-.03-.37-.1-.59-.49-.48-.86l2.53-8.99c.1-.37.49-.59.86-.48.37.1.59.49.48.86l-2.53,8.99c-.09.31-.37.51-.67.51Z"/>
  <path d="m27.01,26.1c-.08,0-.16-.01-.24-.04l-4.89-1.82c-.22-.08-.39-.28-.44-.51l-1.65-7.78c-.08-.38.16-.75.54-.83.38-.08.75.16.83.54l1.57,7.4,4.53,1.68c.36.13.55.54.41.9-.1.28-.37.46-.66.46Z"/>
  <path d="m29.97,44.4s-.02,0-.03,0c-.39-.01-.69-.34-.67-.73l.48-12.21-4.1-1.62c-.36-.14-.54-.55-.39-.91.14-.36.55-.54.91-.39l4.56,1.8c.28.11.45.38.44.68l-.5,12.7c-.01.38-.32.67-.7.67Z"/>
  <path d="m34.97,77.06c-.34,0-.64-.25-.69-.59-.06-.39-1.39-9.46,4.15-10.73,3.11-.71,6.15.2,8.83,1.01,1.74.53,3.24.98,4.35.85.86-.1,2.6-1.3,4.52-8.15.05-.19.09-.34.12-.43.22-.73.98-1,1.7-1.27.94-.35,1.62-.65,1.83-1.37.22-.77-.64-1.33-1.4-1.67-.35-.15-.56-.51-.52-.9.05-.39.34-.69.74-.75.98-.16,1.57-.49,1.71-.75.02-.04.07-.13-.02-.35-.56-1.29-.77-3.86-.84-4.9-.03-.66.46-1.22,1.12-1.28,1.83-.2,3.69-.98,4.63-1.43.1-.05.15-.15.17-.2.02-.05.04-.15-.02-.27l-5.87-10.9c-.46-.83-.66-1.83-.58-2.88,1.85-22.46-18.99-25.64-19.87-25.76-.38-.05-.65-.41-.6-.79.05-.38.41-.66.79-.6.23.03,23.03,3.47,21.08,27.26-.06.77.08,1.5.41,2.09l5.88,10.91c.23.42.27.9.12,1.36-.14.45-.47.82-.89,1.03-1.01.48-2.96,1.3-4.95,1.54.1,1.52.34,3.39.71,4.25.3.7.14,1.25-.04,1.58-.3.54-.87.9-1.45,1.12.95.74,1.32,1.67,1.03,2.66-.42,1.45-1.73,1.94-2.69,2.29-.31.11-.78.29-.86.4-.01.05-.05.19-.1.36-1.66,5.91-3.52,8.91-5.7,9.17-1.4.16-3.03-.33-4.92-.9-2.51-.76-5.36-1.62-8.11-.99-4.29.99-3.09,9.07-3.08,9.16.06.38-.2.74-.58.8-.04,0-.07,0-.11,0Zm23.86-22.63s0,0,0,0c0,0,0,0,0,0Zm.11-1.01s.02,0,.02.01c0,0-.02,0-.02-.01Zm1.78-6.26s0,0,0,0c0,0,0,0,0,0Z"/>
  <path d="m44.5,60.49c-.24,0-.48-.01-.72-.04-.04,0-.09-.01-.13-.03l-20.46-6.08c-.24-.07-.42-.26-.48-.5l-3.16-12.27-1.17-.39c-3.96-1.32-6.11-5.61-4.8-9.58l3.83-11.52c5.14-13.74,19.22-11.7,19.36-11.68,10.51,1.05,18.24,10.51,17.18,21.08l-2.49,24.67c-.19,1.87-1.09,3.55-2.55,4.74-1.27,1.03-2.82,1.58-4.43,1.58Zm-.51-1.42c1.47.13,2.91-.31,4.05-1.25,1.16-.95,1.89-2.3,2.04-3.8l2.49-24.67c.98-9.8-6.18-18.57-15.96-19.55-.57-.09-13.14-1.87-17.87,10.76l-3.82,11.5c-1.07,3.23.68,6.73,3.91,7.81l1.53.51c.23.08.4.26.46.49l3.15,12.25,20.02,5.95Z"/>
  <path d="m42.14,36.65c-.39,0-.73-.31-.73-.7s.28-.7.67-.7h.07c1.03,0,2.02-.32,2.85-.92.31-.23.75-.16.98.15.23.31.16.75-.15.98-1.07.78-2.34,1.19-3.67,1.19Zm-3.31-1.1c-.15,0-.29-.04-.42-.14-1.05-.78-1.84-1.9-2.23-3.15-.12-.37.09-.76.46-.88s.76.09.88.46c.3.96.92,1.83,1.74,2.44.31.23.37.67.14.98-.14.18-.35.28-.56.28Zm8.59-2.73c-.07,0-.15-.01-.22-.04-.37-.12-.57-.51-.45-.88.16-.49.24-.99.24-1.51s-.08-1.01-.23-1.48c-.12-.37.08-.76.45-.88.37-.12.76.08.88.45.2.62.3,1.26.3,1.91,0,.67-.1,1.32-.31,1.95-.1.29-.37.48-.67.48Zm-10.55-3.49c-.07,0-.15-.01-.22-.04-.37-.12-.56-.52-.44-.89.41-1.24,1.23-2.34,2.29-3.1.31-.23.75-.15.98.16.23.31.15.75-.16.98-.83.59-1.46,1.45-1.78,2.41-.1.29-.37.48-.66.48Zm8.55-2.72c-.14,0-.29-.04-.41-.14-.83-.61-1.81-.93-2.84-.94-.39,0-.7-.32-.7-.7,0-.39.3-.68.7-.7,1.33,0,2.6.43,3.66,1.21.31.23.38.67.15.98-.14.19-.35.29-.56.29Z"/>
  <path d="m28.48,23.19c-1.48,0-2.69-1.21-2.69-2.69s1.21-2.69,2.69-2.69,2.69,1.21,2.69,2.69-1.21,2.69-2.69,2.69Zm0-3.98c-.71,0-1.29.58-1.29,1.29s.58,1.29,1.29,1.29,1.29-.58,1.29-1.29-.58-1.29-1.29-1.29Z"/>
  <path d="m20.35,31.68c-1.48,0-2.69-1.21-2.69-2.69s1.21-2.69,2.69-2.69,2.69,1.21,2.69,2.69-1.21,2.69-2.69,2.69Zm0-3.98c-.71,0-1.29.58-1.29,1.29s.58,1.29,1.29,1.29,1.29-.58,1.29-1.29-.58-1.29-1.29-1.29Z"/>
  <path d="m41.69,59.82c-.36,0-.66-.27-.7-.63l-.74-7.59c-.27-2.7-2.12-4.9-4.72-5.62l-17.11-4.76c-.37-.1-.59-.49-.49-.86.1-.37.49-.59.86-.49l17.11,4.76c3.16.88,5.41,3.56,5.74,6.84l.74,7.59c.04.38-.24.73-.63.76-.02,0-.05,0-.07,0Z"/>
  <path d="m15.46,77.05s-.09,0-.14-.01c-.38-.08-.62-.45-.54-.83l2.69-13.09c.01-.07.04-.13.07-.2l5.24-9.57c.19-.34.61-.46.95-.28.34.19.46.61.28.95l-5.19,9.48-2.67,12.99c-.07.33-.36.56-.69.56Z"/>
  <path d="m28.3,76.23s-.06,0-.08,0c-.38-.05-.66-.4-.61-.78l1.02-8.44c.01-.1.05-.2.1-.29l6.22-9.8c.21-.33.64-.42.97-.22.33.21.42.64.22.97l-6.14,9.66-1,8.28c-.04.36-.34.62-.69.62Z"/>
</svg>