<?xml version="1.0" encoding="UTF-8"?>
<svg id="Layer_1" data-name="Layer 1" xmlns="http://www.w3.org/2000/svg" viewBox="0 0 80 80">
  <g>
    <path d="m65.04,34.06c-.12,0-.25-.03-.36-.1-.5-.3-.95-.54-1.32-.69-.36-.15-.53-.55-.38-.91.15-.36.56-.53.91-.38.44.18.95.45,1.52.79.33.2.44.63.24.96-.13.22-.36.34-.6.34Z"/>
    <path d="m49.09,73.13c-.36,0-.67-.28-.7-.65-.03-.39.26-.72.64-.75.86-.07,1.82-.33,2.85-.78.36-.16.77,0,.92.36.15.35,0,.77-.36.92-1.18.51-2.29.81-3.31.89-.02,0-.04,0-.06,0Zm-3.07-.7c-.1,0-.2-.02-.3-.07-1.08-.51-2.06-1.03-2.89-1.55-.33-.2-.43-.63-.23-.96s.63-.43.96-.23c.8.49,1.73.98,2.76,1.48.35.17.5.58.33.93-.12.25-.37.4-.63.4Zm8.95-1.69c-.23,0-.45-.11-.58-.31-.22-.32-.13-.76.19-.97.82-.55,1.65-1.19,2.48-1.9.29-.25.74-.22.99.08s.22.74-.08.99c-.87.75-1.75,1.42-2.61,2-.12.08-.26.12-.39.12Zm4.88-4.15c-.18,0-.35-.07-.49-.2-.28-.27-.28-.71-.02-.99.71-.74,1.42-1.53,2.1-2.35.25-.3.69-.34.99-.09.3.25.34.69.09.99-.71.85-1.44,1.67-2.18,2.43-.14.14-.32.21-.5.21Zm4.1-4.93c-.14,0-.28-.04-.41-.13-.31-.23-.38-.66-.16-.98.44-.61.87-1.24,1.29-1.88.16-.25.32-.5.48-.75.21-.33.64-.43.96-.22.33.21.43.64.22.96-.16.26-.32.51-.49.77-.43.67-.88,1.31-1.33,1.94-.14.19-.35.29-.57.29Zm3.4-5.44c-.11,0-.23-.03-.33-.08-.34-.18-.47-.61-.29-.95.5-.94.97-1.89,1.39-2.83.16-.35.57-.51.92-.35.35.16.51.57.35.92-.43.97-.92,1.95-1.44,2.93-.13.24-.37.37-.62.37Zm2.6-5.86c-.08,0-.15-.01-.23-.04-.37-.13-.56-.53-.43-.89.36-1.03.66-2.04.88-3.01.09-.38.46-.61.84-.52.38.09.61.47.52.84-.24,1.02-.55,2.08-.92,3.15-.1.29-.37.47-.66.47Zm1.42-6.24s-.04,0-.06,0c-.39-.03-.67-.37-.64-.76.04-.44.06-.87.06-1.28,0-.62-.04-1.21-.13-1.75-.06-.38.2-.74.58-.8.38-.06.74.2.8.58.1.61.15,1.27.15,1.97,0,.45-.02.92-.06,1.4-.03.37-.34.64-.7.64Zm-1.27-6.14c-.21,0-.41-.09-.55-.26-.24-.3-.52-.55-.82-.75-.54-.44-1.02-.83-1.5-1.2-.31-.24-.36-.68-.13-.98.24-.31.68-.36.98-.13.49.38.99.78,1.47,1.18.37.23.75.59,1.09,1.01.24.3.19.74-.11.98-.13.1-.28.15-.44.15Z"/>
    <path d="m40.61,68.97c-.18,0-.35-.07-.49-.2-.45-.44-.83-.89-1.12-1.34-.21-.32-.12-.76.2-.97.32-.21.76-.12.97.2.24.37.56.74.93,1.11.28.27.28.71.01.99-.14.14-.32.21-.5.21Z"/>
  </g>
  <path d="m43.13,69.42c-1.07,0-2.05-.26-2.89-.8h0c-4.62-3.01-3.02-13.4,3.65-23.65,6.67-10.25,15.52-15.93,20.14-12.92,4.62,3.01,3.02,13.4-3.65,23.65-5.46,8.4-12.39,13.73-17.26,13.73Zm-2.12-1.98c3.83,2.49,12.17-3.24,18.21-12.51,6.04-9.28,7.9-19.22,4.06-21.71-3.83-2.49-12.17,3.24-18.2,12.51-6.04,9.28-7.9,19.22-4.06,21.71h0Z"/>
  <path d="m49.53,54.13c-.63,0-1.36-.1-2.21-.35-2.57-.75-3.07-2.54-3.09-2.61-.1-.37.12-.76.5-.86.37-.09.76.12.86.5.01.03.36,1.11,2.13,1.63,1.85.54,3.15.35,3.86-.58.38-.5.41-.74-1.59-2.47-1.66-1.44-2.33-2.43-1.4-3.84.72-1.09,2.7-1.88,5.1-1.27,2.35.59,3.08,1.98,3.16,2.14.17.35.02.77-.32.94-.34.17-.76.03-.93-.31-.03-.06-.55-.97-2.25-1.4-1.83-.46-3.22.13-3.59.68-.27.42-.43.65,1.15,2.01,1.65,1.44,3.08,2.68,1.78,4.38-.55.72-1.51,1.43-3.16,1.43Z"/>
  <path d="m46.53,55.32c-.14,0-.29-.04-.41-.14-.31-.23-.38-.67-.15-.98l8.19-11.14c.23-.31.67-.38.98-.15.31.23.38.67.15.98l-8.19,11.14c-.14.19-.35.29-.56.29Z"/>
  <g>
    <path d="m15.53,9.4c-.26,0-.51-.14-.63-.39-.17-.35-.03-.77.32-.94.58-.28,1.11-.49,1.62-.62.37-.09.76.13.85.5.1.37-.13.76-.5.85-.42.11-.86.28-1.36.52-.1.05-.2.07-.31.07Z"/>
    <path d="m30.87,49.44c-.29,0-.57-.19-.66-.48-.12-.37.08-.76.45-.88.19-.06.37-.14.55-.24.81-.32,1.54-.63,2.26-.98.35-.17.77-.03.94.32s.03.77-.32.94c-.75.37-1.52.71-2.29,1-.16.09-.42.21-.69.3-.07.02-.15.04-.22.04Zm-3.11,0c-.06,0-.12,0-.18-.02-.97-.26-2-.71-3.06-1.34-.33-.2-.44-.63-.24-.96.2-.33.63-.44.96-.24.95.56,1.86.96,2.7,1.19.37.1.6.48.5.86-.08.31-.37.52-.68.52Zm-5.44-3.1c-.16,0-.32-.05-.45-.16-.78-.65-1.57-1.4-2.35-2.21-.27-.28-.26-.72.02-.99.28-.27.72-.26.99.02.75.78,1.5,1.49,2.24,2.11.3.25.34.69.09.99-.14.17-.34.25-.54.25Zm-4.37-4.53c-.2,0-.41-.09-.55-.26-.65-.81-1.3-1.68-1.91-2.57-.22-.32-.14-.75.18-.97.32-.22.75-.14.97.18.6.87,1.22,1.71,1.85,2.49.24.3.19.74-.11.98-.13.1-.28.16-.44.16Zm-3.58-5.19c-.24,0-.47-.12-.6-.34-.32-.55-.64-1.11-.95-1.68-.2-.37-.4-.75-.59-1.12-.18-.34-.04-.77.31-.94.34-.18.77-.04.94.3.19.36.38.73.58,1.09.3.56.61,1.1.93,1.63.2.33.09.76-.25.96-.11.07-.23.1-.36.1Zm-2.87-5.62c-.27,0-.53-.16-.64-.42-.43-.99-.82-1.99-1.16-2.99-.13-.37.07-.76.43-.89.36-.13.76.07.89.43.33.96.71,1.93,1.12,2.89.15.35-.01.77-.37.92-.09.04-.18.06-.28.06Zm-2.06-5.96c-.31,0-.6-.21-.68-.53-.28-1.08-.49-2.15-.64-3.16-.06-.38.21-.74.59-.79.38-.05.74.21.79.59.14.97.35,1.98.62,3.02.1.38-.13.76-.5.85-.06.02-.12.02-.17.02Zm-.88-6.24c-.39,0-.7-.31-.7-.69,0-1.23.12-2.33.36-3.3.09-.37.47-.6.85-.51.38.09.6.47.51.85-.21.86-.32,1.85-.32,2.94,0,.39-.31.71-.7.71Zm1.73-5.91c-.17,0-.34-.06-.47-.19-.28-.26-.3-.71-.04-.99.37-.4.79-.73,1.25-.98.45-.32.94-.67,1.4-.98.32-.22.76-.13.97.19.22.32.13.76-.19.97-.46.31-.94.65-1.45,1.01-.4.22-.7.46-.96.75-.14.15-.33.23-.51.23Z"/>
    <path d="m36.52,46.59c-.23,0-.45-.11-.58-.31-.22-.32-.13-.76.19-.97.47-.32.88-.62,1.22-.91.3-.25.74-.21.99.08.25.29.21.74-.08.99-.38.32-.83.66-1.34,1-.12.08-.26.12-.39.12Z"/>
  </g>
  <path d="m35.17,46.38c-4.9,0-11.67-5.96-16.62-15.07-5.84-10.75-6.62-21.23-1.77-23.87,4.84-2.63,13.22,3.73,19.06,14.48,5.84,10.75,6.62,21.23,1.77,23.87h0c-.74.4-1.56.59-2.44.59Zm2.1-1.21h0,0ZM19.24,8.25c-.65,0-1.26.14-1.79.43-4.02,2.18-2.95,12.24,2.33,21.97,5.28,9.73,13.14,16.1,17.16,13.91,4.02-2.18,2.95-12.24-2.33-21.97-4.58-8.43-11.1-14.34-15.37-14.34Z"/>
  <path d="m28.7,32.26c-.17,0-.27-.01-.28-.02-.38-.06-.64-.42-.58-.8.06-.38.42-.65.8-.58.04,0,1.22.12,2.46-1.36,1.3-1.54,1.65-2.86,1.06-3.94-.35-.63-.67-.66-3.05.47-2.04.97-3.25,1.19-4.2-.27-.73-1.13-.65-3.33.92-5.35,1.57-2.01,3.26-2.09,3.33-2.1.39-.03.71.29.73.67.01.38-.28.71-.66.73-.06,0-1.16.11-2.29,1.56-1.22,1.56-1.23,3.14-.85,3.72.29.45.45.7,2.43-.24,2.05-.96,3.81-1.8,4.87.12.62,1.12.91,2.99-1.21,5.52-1.4,1.66-2.86,1.85-3.47,1.85Z"/>
  <path d="m32.66,32.22c-.24,0-.48-.13-.61-.35l-7.16-12.44c-.19-.33-.08-.76.26-.96.33-.19.76-.08.96.26l7.16,12.44c.19.33.08.76-.26.96-.11.06-.23.09-.35.09Z"/>
</svg>