<?xml version="1.0" encoding="UTF-8"?>
<svg id="Layer_1" data-name="Layer 1" xmlns="http://www.w3.org/2000/svg" viewBox="0 0 80 80">
  <path d="m40,57.51c-.39,0-.74-.31-.74-.7s.28-.7.66-.7c0,0,.09,0,.1,0,.97,0,1.96-.09,2.93-.27.37-.07.75.18.82.56.07.38-.18.75-.56.82-1.05.2-2.13.29-3.21.29Zm-3.16-.3s-.09,0-.13-.01c-1.06-.2-2.1-.5-3.11-.9-.36-.14-.54-.55-.4-.91.14-.36.55-.54.91-.4.92.36,1.88.64,2.86.82.38.07.63.44.56.82-.06.34-.36.57-.69.57Zm9.23-.83c-.28,0-.54-.17-.65-.45-.14-.36.04-.77.4-.91.92-.36,1.82-.8,2.66-1.33.33-.21.76-.1.96.23.2.33.1.76-.23.96-.92.57-1.89,1.05-2.89,1.44-.08.03-.17.05-.25.05Zm-14.98-1.42c-.13,0-.25-.03-.37-.11-.91-.57-1.78-1.23-2.57-1.96-.29-.26-.3-.71-.04-.99.26-.29.7-.3.99-.04.73.67,1.53,1.28,2.36,1.8.33.21.43.64.22.96-.13.21-.36.33-.59.33Zm20.23-1.83c-.19,0-.38-.08-.52-.23-.26-.29-.24-.73.05-.99.73-.67,1.41-1.41,2.01-2.2.23-.31.67-.37.98-.13.31.23.37.67.13.98-.65.86-1.38,1.66-2.18,2.39-.13.12-.3.18-.47.18Zm-24.78-2.35c-.21,0-.42-.1-.56-.28-.65-.86-1.22-1.79-1.69-2.75-.17-.35-.03-.77.32-.94.35-.17.77-.03.94.32.44.89.96,1.74,1.56,2.53.23.31.17.75-.14.98-.13.09-.27.14-.42.14Zm28.5-2.58c-.1,0-.21-.02-.31-.07-.35-.17-.49-.59-.31-.94.44-.89.81-1.82,1.07-2.77.11-.37.49-.59.87-.48.37.11.59.49.48.87-.29,1.03-.69,2.04-1.17,3.01-.12.25-.37.39-.63.39Zm-31.24-2.96c-.31,0-.59-.2-.67-.51-.29-1.03-.49-2.1-.58-3.18-.03-.38.25-.72.64-.76.38-.04.72.25.76.64.09.99.27,1.97.53,2.92.1.37-.11.76-.49.86-.06.02-.13.03-.19.03Zm32.93-2.98s-.04,0-.07,0c-.38-.04-.67-.38-.63-.76.05-.5.07-1,.07-1.5s-.02-.98-.07-1.47c-.04-.38.25-.73.63-.76.38-.04.73.25.76.63.05.53.07,1.06.07,1.6s-.03,1.09-.08,1.63c-.03.36-.34.64-.7.64Zm-33.48-3.17s-.04,0-.07,0c-.38-.04-.67-.38-.63-.76.1-1.07.3-2.14.6-3.17.11-.37.49-.58.87-.48.37.11.59.5.48.87-.27.95-.46,1.93-.55,2.92-.03.36-.34.63-.7.63Zm32.92-2.98c-.31,0-.59-.2-.67-.51-.27-.95-.63-1.88-1.07-2.77-.17-.35-.03-.77.32-.94.35-.17.77-.03.94.32.48.97.87,1.98,1.16,3.01.1.37-.11.76-.48.86-.06.02-.13.03-.19.03Zm-31.22-2.96c-.11,0-.21-.02-.31-.07-.34-.17-.48-.59-.31-.94.48-.96,1.06-1.88,1.71-2.74.23-.31.67-.37.98-.13.31.23.37.67.13.98-.6.79-1.13,1.64-1.57,2.52-.12.24-.37.39-.63.39Zm28.47-2.58c-.21,0-.42-.1-.56-.28-.6-.79-1.27-1.53-2-2.2-.29-.26-.3-.7-.04-.99s.7-.31.99-.04c.79.73,1.53,1.53,2.17,2.39.23.31.17.75-.14.98-.13.1-.27.14-.42.14Zm-24.73-2.34c-.19,0-.38-.08-.52-.23-.26-.29-.24-.73.05-.99.8-.73,1.67-1.38,2.58-1.94.33-.2.76-.1.96.23.2.33.1.76-.23.96-.84.52-1.64,1.12-2.38,1.79-.13.12-.3.18-.47.18Zm20.17-1.83c-.13,0-.25-.03-.37-.11-.84-.52-1.73-.97-2.66-1.33-.36-.14-.54-.55-.4-.91.14-.36.55-.54.91-.4,1,.39,1.98.88,2.89,1.45.33.21.43.64.22.96-.13.21-.36.33-.6.33Zm-14.91-1.41c-.28,0-.55-.17-.65-.45-.14-.36.04-.77.4-.91,1-.39,2.05-.68,3.11-.88.38-.07.75.18.82.56.07.38-.18.75-.56.82-.98.18-1.94.45-2.86.81-.08.03-.17.05-.25.05Zm9.16-.83s-.09,0-.13-.01c-.97-.18-1.97-.28-2.96-.28-.39,0-.7-.31-.7-.7s.31-.7.7-.7h0c1.08,0,2.16.1,3.21.3.38.07.63.44.56.82-.06.34-.36.57-.69.57Z"/>
  <path d="m53.49,27.2c-.18,0-.36-.07-.5-.21-.27-.27-.27-.72,0-.99l6.49-6.49c.27-.27.72-.27.99,0s.27.72,0,.99l-6.49,6.49c-.14.14-.32.21-.5.21Z"/>
  <path d="m63.67,22.24c-3.26,0-5.91-2.65-5.91-5.91s2.65-5.9,5.91-5.9,5.9,2.65,5.9,5.9-2.65,5.91-5.9,5.91Zm0-10.41c-2.48,0-4.5,2.02-4.5,4.5s2.02,4.5,4.5,4.5,4.5-2.02,4.5-4.5-2.02-4.5-4.5-4.5Z"/>
  <path d="m59.98,60.68c-.18,0-.36-.07-.5-.21l-6.75-6.75c-.27-.27-.27-.72,0-.99s.72-.27.99,0l6.75,6.75c.27.27.27.72,0,.99-.14.14-.32.21-.5.21Z"/>
  <path d="m63.67,69.57c-3.26,0-5.91-2.65-5.91-5.91s2.65-5.9,5.91-5.9,5.9,2.65,5.9,5.9-2.65,5.91-5.9,5.91Zm0-10.41c-2.48,0-4.5,2.02-4.5,4.5s2.02,4.5,4.5,4.5,4.5-2.02,4.5-4.5-2.02-4.5-4.5-4.5Z"/>
  <path d="m20.01,60.68c-.18,0-.36-.07-.5-.21-.27-.27-.27-.72,0-.99l6.63-6.63c.27-.27.72-.27.99,0s.27.72,0,.99l-6.63,6.63c-.14.14-.32.21-.5.21Z"/>
  <path d="m16.33,69.57c-3.26,0-5.91-2.65-5.91-5.91s2.65-5.9,5.91-5.9,5.9,2.65,5.9,5.9-2.65,5.91-5.9,5.91Zm0-10.41c-2.48,0-4.5,2.02-4.5,4.5s2.02,4.5,4.5,4.5,4.5-2.02,4.5-4.5-2.02-4.5-4.5-4.5Z"/>
  <path d="m26.36,27.06c-.18,0-.36-.07-.5-.21l-6.36-6.36c-.27-.27-.27-.72,0-.99s.72-.27.99,0l6.36,6.36c.27.27.27.72,0,.99-.14.14-.32.21-.5.21Z"/>
  <path d="m16.33,22.24c-3.26,0-5.91-2.65-5.91-5.91s2.65-5.9,5.91-5.9,5.9,2.65,5.9,5.9-2.65,5.91-5.9,5.91Zm0-10.41c-2.48,0-4.5,2.02-4.5,4.5s2.02,4.5,4.5,4.5,4.5-2.02,4.5-4.5-2.02-4.5-4.5-4.5Z"/>
  <path d="m47.8,35.93h-18.98c-.4,0-.75-.24-.9-.61-.15-.37-.06-.79.23-1.07l3.14-3c.18-.17.42-.27.67-.27h18.25c.38,0,.71.21.88.55.16.34.12.73-.12,1.03l-2.41,3c-.19.23-.46.36-.76.36Zm-17.91-1.4h17.71l1.72-2.15h-17.18l-2.25,2.15Zm1.89-2.77h0,0Z"/>
  <path d="m47.8,42.75h-18.98c-.4,0-.75-.24-.9-.61-.15-.37-.06-.79.23-1.07l3.14-3c.18-.17.42-.27.67-.27h18.25c.38,0,.71.21.88.55.16.34.12.73-.12,1.03l-2.41,3c-.19.23-.46.36-.76.36Zm-17.91-1.4h17.71l1.72-2.15h-17.18l-2.25,2.15Zm2.37-2.26s0,0,0,0t0,0Zm-.48-.5h0,0Z"/>
  <path d="m47.8,49.29h-18.95c-.41,0-.77-.25-.91-.63-.14-.38-.04-.8.27-1.07l3.1-2.73c.18-.16.41-.24.64-.24h18.22c.38,0,.73.22.89.57.16.35.1.75-.15,1.04l-2.37,2.73c-.18.21-.45.33-.73.33Zm-.32-1.25s0,0,0,0h0Zm-17.49-.15h17.62l1.63-1.87h-17.12l-2.13,1.87Zm1.78-2.5h0,0Z"/>
</svg>