<?xml version="1.0" encoding="UTF-8"?>
<svg id="Layer_1" data-name="Layer 1" xmlns="http://www.w3.org/2000/svg" viewBox="0 0 80 80">
  <path d="m60.01,70.88H19.99c-1.73,0-3.14-1.41-3.14-3.14v-34.65c0-.39.31-.7.7-.7h44.9c.39,0,.7.31.7.7v34.65c0,1.73-1.41,3.14-3.14,3.14ZM18.25,33.79v33.95c0,.96.78,1.74,1.74,1.74h40.02c.96,0,1.74-.78,1.74-1.74v-33.95H18.25Z"/>
  <g>
    <g>
      <path d="m20.8,48.94c-.26,0-.5-.14-.63-.38-.17-.34-.04-.77.31-.94.46-.23.97-.46,1.52-.67.36-.14.77.04.91.4.14.36-.04.77-.4.91-.5.2-.97.41-1.4.62-.1.05-.21.08-.31.08Z"/>
      <path d="m25.38,47.3c-.31,0-.6-.21-.68-.52-.1-.37.13-.76.5-.85,1.01-.26,2.11-.5,3.25-.71.38-.06.74.19.81.57.07.38-.19.74-.57.81-1.11.2-2.17.43-3.15.68-.06.01-.12.02-.18.02Zm29.23,0c-.06,0-.12,0-.17-.02-.98-.25-2.04-.48-3.15-.68-.38-.07-.63-.43-.57-.81.07-.38.43-.63.81-.57,1.14.2,2.24.44,3.25.7.38.1.6.48.5.85-.08.32-.37.53-.68.53Zm-22.79-1.17c-.35,0-.65-.26-.69-.62-.04-.38.23-.73.61-.78,1.06-.12,2.17-.23,3.3-.3.38,0,.72.26.75.65s-.26.72-.65.75c-1.1.08-2.19.17-3.23.3-.03,0-.06,0-.08,0Zm16.35,0s-.05,0-.08,0c-1.04-.12-2.13-.22-3.23-.3-.39-.03-.68-.36-.65-.75s.37-.67.75-.65c1.12.08,2.23.18,3.3.3.38.05.66.39.61.78-.04.36-.34.62-.69.62Zm-9.81-.44c-.38,0-.69-.3-.7-.69,0-.39.3-.71.69-.71,1.09-.02,2.21-.02,3.31,0,.39,0,.69.33.68.72,0,.39-.28.67-.72.68-1.07-.02-2.17-.02-3.25,0h-.01Z"/>
      <path d="m59.2,48.94c-.11,0-.21-.02-.31-.08-.42-.21-.89-.42-1.4-.62-.36-.14-.54-.55-.4-.91.14-.36.55-.54.91-.4.55.21,1.06.44,1.52.67.35.17.48.6.31.94-.12.24-.37.38-.63.38Z"/>
    </g>
    <g>
      <path d="m22.26,56.37c-.08,0-.17-.02-.26-.05-.55-.22-1.06-.44-1.52-.68-.34-.17-.48-.6-.31-.94.17-.34.59-.48.94-.31.42.21.89.42,1.4.62.36.14.54.55.4.91-.11.28-.37.44-.65.44Z"/>
      <path d="m40,59c-.56,0-1.11,0-1.66-.02-.39,0-.69-.33-.69-.71,0-.39.32-.67.71-.69,1.07.02,2.17.02,3.25,0h.02c.38,0,.69.3.7.68,0,.39-.3.71-.68.72-.54.01-1.09.02-1.64.02Zm4.9-.16c-.37,0-.67-.28-.7-.65-.03-.39.27-.72.65-.75,1.1-.07,2.18-.17,3.23-.3.39-.05.73.23.78.61.04.38-.23.73-.61.78-1.07.13-2.18.23-3.3.3-.02,0-.03,0-.05,0Zm-9.82,0s-.03,0-.05,0c-1.13-.08-2.24-.18-3.3-.3-.38-.05-.66-.39-.61-.78.05-.38.39-.66.78-.61,1.04.12,2.12.22,3.23.3.39.03.68.36.65.75-.03.37-.33.65-.7.65Zm16.32-.78c-.33,0-.63-.24-.69-.58-.07-.38.19-.74.57-.81,1.11-.2,2.17-.43,3.15-.68.38-.1.76.13.85.5.1.37-.13.76-.5.85-1.02.26-2.11.5-3.25.7-.04,0-.08.01-.12.01Zm-22.82,0s-.08,0-.12-.01c-1.15-.21-2.24-.44-3.25-.71-.37-.1-.6-.48-.5-.85.1-.37.48-.59.85-.5.98.25,2.03.48,3.15.68.38.07.63.43.57.81-.06.34-.36.58-.69.58Z"/>
      <path d="m57.74,56.37c-.28,0-.54-.17-.65-.44-.14-.36.04-.77.4-.91.51-.2.98-.41,1.4-.62.34-.18.77-.04.94.31.17.34.04.77-.31.94-.45.23-.96.46-1.52.68-.08.03-.17.05-.26.05Z"/>
    </g>
  </g>
  <path d="m53.18,33.62c-.39,0-.7-.31-.7-.7v-10.41c0-6.61-5.38-11.99-11.99-11.99h-1.3c-6.61,0-11.99,5.38-11.99,11.99v10.41c0,.39-.31.7-.7.7s-.7-.31-.7-.7v-10.41c0-7.38,6.01-13.39,13.39-13.39h1.3c7.38,0,13.39,6.01,13.39,13.39v10.41c0,.39-.31.7-.7.7Z"/>
</svg>