<svg width="218" height="200" viewBox="0 0 218 200" fill="none" xmlns="http://www.w3.org/2000/svg">
<path d="M99.4604 39.9113C99.4604 39.9113 108.5 35.3913 120.92 43.0213C133.34 50.6413 137.3 61.0913 133.91 83.1213C126.7 129.981 59.8503 132.381 49.2003 86.2213C44.1203 64.1913 51.4604 46.4113 69.2504 40.7613C87.0404 35.1113 94.3804 45.8413 96.6404 48.1013C98.9004 50.3613 101.76 59.9913 92.4003 59.6813C83.9303 59.4013 85.0604 53.7513 87.6004 50.3613C90.1404 46.9713 93.8103 40.7613 89.2903 32.5713C84.7703 24.3813 72.9104 19.0213 72.9104 19.0213M8.31035 195.771C8.31035 195.771 57.5704 166.151 60.8004 165.271C64.0204 164.391 90.0904 166.151 96.2404 166.151C102.39 166.151 107.96 160.291 114.4 154.141C120.84 147.991 136.95 132.761 140.17 125.731C143.39 118.701 137.93 116.221 133.33 118.821C124.62 123.751 114.21 134.441 106.63 139.131C94.4404 146.671 93.2504 145.351 86.2204 145.941C79.1904 146.531 78.6604 153.551 92.1304 151.791C105.6 150.031 117.12 128.101 104.53 129.281C91.9403 130.461 83.8804 129.751 82.0004 129.511C73.2604 128.421 66.9803 121.121 58.0303 120.401C47.8404 119.581 39.9504 125.751 31.5104 130.411C23.0204 135.101 4.86035 146.231 4.86035 146.231C4.86035 146.231 27.7503 183.641 32.9503 187.111C38.1503 190.581 52.1204 180.061 51.7504 176.971C51.3804 173.881 31.7404 146.711 27.9004 141.261C24.0604 135.811 24.1504 135.421 24.1504 135.421M91.3103 25.7713C91.3103 25.7713 86.0004 16.1413 97.9404 9.65129C109.88 3.16129 118.14 4.05128 118.73 4.64128C119.32 5.23128 118.29 13.9313 112.98 21.1513C107.2 29.0213 94.4003 30.5413 91.3103 25.7713Z" stroke="url(#paint0_linear_19532_46030)" stroke-width="6" stroke-miterlimit="10" stroke-linecap="round"/>
<defs>
<linearGradient id="paint0_linear_19532_46030" x1="26.7604" y1="69.3513" x2="123.96" y2="150.921" gradientUnits="userSpaceOnUse">
<stop stop-color="#FEC010"/>
<stop offset="0.7" stop-color="#F06516"/>
<stop offset="1" stop-color="#F03016"/>
</linearGradient>
</defs>
</svg>
