<svg width="218" height="196" viewBox="0 0 218 196" fill="none" xmlns="http://www.w3.org/2000/svg">
<g clip-path="url(#clip0_19532_46032)">
<path d="M204.06 97.9984C204.06 45.4784 161.48 2.89844 108.96 2.89844C64.7904 2.89844 27.6603 33.0084 16.9604 73.8184M13.8503 97.9984C13.8503 150.518 56.4303 193.098 108.95 193.098C153.9 193.098 191.56 161.918 201.49 120.008M3.11035 103.278L13.4704 93.2284C13.9104 92.8084 14.5904 92.7784 15.0604 93.1684L26.9203 102.948M214.88 92.4884L204.52 102.538C204.08 102.958 203.4 102.988 202.93 102.598L191.07 92.8184M164.42 65.7484L169.11 68.7584C172.59 70.9884 173.61 75.6184 171.37 79.0984L116.64 164.518C114.41 167.998 109.78 169.018 106.3 166.778L52.7904 132.488C49.3104 130.258 48.2903 125.628 50.5303 122.148L105.26 36.7284C107.49 33.2484 112.12 32.2284 115.6 34.4684L151.19 57.0284C153.18 58.2884 155.81 57.6984 157.08 55.7184L161.7 48.4884C162.96 46.5184 162.38 43.9084 160.41 42.6484L141.84 30.7684C139.98 29.5784 137.51 30.1084 136.3 31.9584L133.44 36.3284M92.7303 91.4784L137.68 80.7384C138.11 80.6384 138.41 81.1584 138.1 81.4784L118.64 101.498C118.45 101.688 118.48 101.998 118.69 102.158L131.23 111.428C131.53 111.648 131.43 112.128 131.07 112.218L84.8403 122.988C84.4103 123.088 84.1203 122.568 84.4203 122.248L104.79 101.038C104.98 100.838 104.95 100.518 104.72 100.368L92.5804 92.2684C92.2604 92.0584 92.3504 91.5584 92.7204 91.4684L92.7303 91.4784Z" stroke="url(#paint0_linear_19532_46032)" stroke-width="6" stroke-miterlimit="10" stroke-linecap="round"/>
</g>
<defs>
<linearGradient id="paint0_linear_19532_46032" x1="33.8104" y1="34.9384" x2="184.1" y2="161.058" gradientUnits="userSpaceOnUse">
<stop stop-color="#FEC010"/>
<stop offset="0.7" stop-color="#F06516"/>
<stop offset="1" stop-color="#F03016"/>
</linearGradient>
<clipPath id="clip0_19532_46032">
<rect width="218" height="196" fill="white"/>
</clipPath>
</defs>
</svg>
