<svg width="245" height="205" viewBox="0 0 245 205" fill="none" xmlns="http://www.w3.org/2000/svg">
<g clip-path="url(#clip0_2674_29)">
<path d="M154.7 89.5C159.8 89.5 162.5 91.7 164.2 93.3L164.6 93.7C165 94.1 165.6 94.1 165.9 93.7L168.2 91.3C168.6 90.9 168.6 90.3 168.2 89.9L167.8 89.6C165.5 87.5 161.3 84.2 154.2 84.2C148.7 84.2 144 86.2 140.6 89.5C137.3 92.8 135.3 97.3 135.3 102.2C135.3 108.1 137.7 112.6 141.3 115.7C144.9 118.8 149.6 120.3 154.2 120.3C164.4 120.3 168.6 115.8 169.5 114.6L169.6 114.4C169.6 114.3 169.7 114.2 169.8 114.2V114.1V102.3C169.8 101.8 169.4 101.3 168.8 101.3H156.6C156.1 101.3 155.6 101.7 155.6 102.3V105.5C155.6 106 156 106.5 156.6 106.5H163.5C164 106.5 164.5 106.9 164.5 107.5V111.2C164.5 111.7 164.4 112.3 164.3 112.4L164.1 112.5C164 112.6 163.9 112.6 163.9 112.7C162.5 113.7 159.8 115.2 154.4 115.2C145.8 115.2 140.6 109.2 140.6 102.6C140.5 95.4 145.7 89.5 154.7 89.5ZM55.9004 106.7C55.9004 110 56.5004 113.4 58.7004 116.1C60.9004 118.8 64.7004 120.6 71.0004 120.6C77.3004 120.6 81.1004 118.8 83.3004 116.1C85.5004 113.4 86.1004 110 86.1004 106.7V86.1C86.1004 85.6 85.7004 85.1 85.1004 85.1H82.0004C81.5004 85.1 81.0004 85.5 81.0004 86.1V106.7C81.0004 111.7 79.0004 115.3 71.1004 115.3C63.2004 115.3 61.2004 111.7 61.2004 106.7V86.1C61.2004 85.6 60.8004 85.1 60.2004 85.1H56.9004C56.4004 85.1 55.9004 85.5 55.9004 86.1V106.7Z" fill="#1D1D1B"/>
<path fill-rule="evenodd" clip-rule="evenodd" d="M19 119.8C18.5 119.8 18 119.4 18 118.8V86.1C18 85.6 18.4 85.1 19 85.1H36.6C41.7 85.1 47.7 88 47.7 94.6C47.7 97.9 45.6 99.8 44.3 101C44.1 101.1 44 101.3 43.8 101.4C45.8 102.4 48.4 105.3 48.4 109.5C48.4 112.8 47.1 115.4 45 117.1C42.9 118.8 39.9 119.7 36.6 119.7L19 119.8ZM24.2 104.8C23.7 104.8 23.2 105.2 23.2 105.8V113.7C23.2 114.2 23.6 114.7 24.2 114.7H36.6C41.2 114.7 43.2 113 43.2 109.8C43.2 106.8 41.7 104.9 36.6 104.9L24.2 104.8ZM36.6 99.5C39.9 99.5 42.5 97.6 42.5 94.6C42.5 92 40 90.4 36.6 90.4H24.2C23.7 90.4 23.2 90.8 23.2 91.4V98.6C23.2 99.1 23.6 99.6 24.2 99.6H36.6V99.5Z" fill="#1D1D1B"/>
<path d="M121.5 110.3C121.8 110.7 122.1 110.6 122.1 110.1V86.1C122.1 85.6 122.5 85.1 123.1 85.1H126.4C126.9 85.1 127.4 85.5 127.4 86.1V118.8C127.4 119.3 127 119.8 126.4 119.8H123.2C122.7 119.8 122 119.5 121.7 119L102.7 94.6C102.4 94.2 102.1 94.3 102.1 94.8V118.8C102.1 119.3 101.7 119.8 101.1 119.8H97.7998C97.2998 119.8 96.7998 119.4 96.7998 118.8V86.1C96.7998 85.6 97.1998 85.1 97.7998 85.1H101C101.5 85.1 102.2 85.4 102.5 85.9L121.5 110.3ZM183 97.9H179.7C179.2 97.9 178.7 98.3 178.7 98.9V118.8C178.7 119.3 179.1 119.8 179.7 119.8H183C183.5 119.8 184 119.4 184 118.8V98.9C184 98.4 183.5 97.9 183 97.9ZM198.1 113.6C198.1 114.1 198.5 114.6 199.1 114.6H219.9C220.4 114.6 220.9 115 220.9 115.6V118.9C220.9 119.4 220.5 119.9 219.9 119.9H193.9C193.4 119.9 192.9 119.5 192.9 118.9V86.1C192.9 85.6 193.3 85.1 193.9 85.1H219C219.5 85.1 220 85.5 220 86.1V89.4C220 89.9 219.6 90.4 219 90.4H199C198.5 90.4 198 90.8 198 91.4V98.2C198 98.7 198.4 99.2 199 99.2H212.1C212.6 99.2 213.1 99.6 213.1 100.2V103.5C213.1 104 212.7 104.5 212.1 104.5H199C198.5 104.5 198 104.9 198 105.5C198.1 105.3 198.1 113.6 198.1 113.6Z" fill="#1D1D1B"/>
<path fill-rule="evenodd" clip-rule="evenodd" d="M225.6 86.8C225.5 86.8 225.3 86.7 225 86.7H224.3V88.8H224.7V88H225C225.2 88 225.3 88 225.4 88.1C225.5 88.2 225.6 88.3 225.6 88.6V88.8V88.9H225.9V88.8C225.9 88.7 225.9 88.7 225.9 88.6V88.4C225.9 88.3 225.9 88.2 225.8 88.1C225.7 88 225.6 87.9 225.4 87.9C225.5 87.9 225.6 87.9 225.7 87.8C225.8 87.7 225.9 87.6 225.9 87.4C225.9 87.1 225.8 86.9 225.6 86.8ZM225 87C225.2 87 225.4 87 225.4 87.1C225.5 87.2 225.5 87.2 225.5 87.4C225.5 87.6 225.4 87.7 225.3 87.7C225.2 87.7 225.1 87.7 225 87.7H224.7V87H225Z" fill="#1D1D1B"/>
<path fill-rule="evenodd" clip-rule="evenodd" d="M225.1 89.7C225.6 89.7 226.1 89.5 226.4 89.1C226.8 88.7 227 88.3 227 87.7C227 87.2 226.8 86.7 226.4 86.3C226 85.9 225.6 85.7 225.1 85.7C224.6 85.7 224.1 85.9 223.8 86.3C223.4 86.7 223.2 87.1 223.2 87.7C223.2 88.2 223.4 88.7 223.8 89.1C224.1 89.5 224.6 89.7 225.1 89.7ZM223.5 87.8C223.5 87.3 223.7 87 224 86.6C224.3 86.3 224.7 86.1 225.2 86.1C225.7 86.1 226 86.3 226.4 86.6C226.7 86.9 226.9 87.3 226.9 87.8C226.9 88.3 226.7 88.7 226.4 89C226.1 89.3 225.7 89.5 225.2 89.5C224.7 89.5 224.4 89.3 224 89C223.6 88.7 223.4 88.2 223.5 87.8Z" fill="#1D1D1B"/>
<path d="M176.4 89.7C176.4 87 178.6 84.8 181.3 84.8C184 84.8 186.2 87 186.2 89.7C186.2 92.4 184 94.6 181.3 94.6C178.6 94.7 176.4 92.5 176.4 89.7Z" fill="#1D1D1B"/>
</g>
<defs>
<clipPath id="clip0_2674_29">
<rect width="209" height="37" fill="white" transform="translate(18 84)"/>
</clipPath>
</defs>
</svg>
