<svg width="115" height="115" viewBox="0 0 115 115" fill="none" xmlns="http://www.w3.org/2000/svg">
<mask id="mask0_828_1230" style="mask-type:alpha" maskUnits="userSpaceOnUse" x="0" y="0" width="115" height="115">
<ellipse cx="57.5" cy="57.4401" rx="57.5" ry="57.4401" fill="#D9D9D9"/>
</mask>
<g mask="url(#mask0_828_1230)">
<ellipse cx="57.5" cy="57.4401" rx="57.5" ry="57.4401" fill="black"/>
<g filter="url(#filter0_f_828_1230)">
<ellipse cx="102.702" cy="102.649" rx="102.702" ry="102.649" transform="matrix(0.866251 -0.499609 0.500391 0.8658 -131.244 85.1465)" fill="#00FFF0"/>
</g>
<g filter="url(#filter1_f_828_1230)">
<path d="M111.664 30.5735C130.474 63.1199 119.312 104.737 86.7313 123.528C54.1509 142.318 12.4906 131.167 -6.31965 98.6206C-25.1299 66.0742 -13.9671 24.4573 18.6133 5.66659C51.1936 -13.1241 92.854 -1.97286 111.664 30.5735Z" fill="#00F6FF"/>
</g>
<g filter="url(#filter2_f_828_1230)">
<ellipse cx="87.0871" cy="86.8421" rx="87.0871" ry="86.8421" transform="matrix(0.866251 -0.499609 0.500391 0.8658 -0.228271 -9.58533)" fill="#C3A6FF"/>
</g>
</g>
<path d="M86.8867 45.6183H23.4542C22.0984 45.6183 21 44.5198 21 43.1641V37.4542C21 36.0984 22.0984 35 23.4542 35H86.8867C88.2424 35 89.3409 36.0984 89.3409 37.4542V43.1641C89.3409 44.5198 88.2424 45.6183 86.8867 45.6183ZM23.4542 36.3854C22.8604 36.3854 22.3854 36.8703 22.3854 37.4542V43.1641C22.3854 43.7578 22.8703 44.2328 23.4542 44.2328H86.8867C87.4805 44.2328 87.9555 43.7479 87.9555 43.1641V37.4542C87.9555 36.8604 87.4706 36.3854 86.8867 36.3854H23.4542Z" fill="black"/>
<path d="M29.7282 73.9698C28.0756 73.9698 26.7297 72.624 26.7297 70.9714V45.4895C26.7297 45.1036 27.0365 44.7968 27.4224 44.7968C27.8084 44.7968 28.1151 45.1036 28.1151 45.4895V70.9714C28.1151 71.862 28.8375 72.5844 29.7282 72.5844H80.7414C81.632 72.5844 82.3544 71.862 82.3544 70.9714V45.4895C82.3544 45.1036 82.6612 44.7968 83.0471 44.7968C83.4331 44.7968 83.7398 45.1036 83.7398 45.4895V70.9714C83.7398 72.624 82.394 73.9698 80.7414 73.9698H29.7282Z" fill="black"/>
<path d="M76.9315 56.4741H57.4762C57.0902 56.4741 56.7835 56.1673 56.7835 55.7814C56.7835 55.3954 57.0902 55.0887 57.4762 55.0887H76.9315C77.3174 55.0887 77.6242 55.3954 77.6242 55.7814C77.6242 56.1673 77.3174 56.4741 76.9315 56.4741Z" fill="black"/>
<path d="M76.9314 62.8767H67.2038C66.8179 62.8767 66.5111 62.5699 66.5111 62.184C66.5111 61.798 66.8179 61.4913 67.2038 61.4913H76.9314C77.3174 61.4913 77.6242 61.798 77.6242 62.184C77.6242 62.5699 77.3174 62.8767 76.9314 62.8767Z" fill="black"/>
<path d="M62.2163 62.8767H57.4762C57.0902 62.8767 56.7835 62.5699 56.7835 62.184C56.7835 61.798 57.0902 61.4913 57.4762 61.4913H62.2163C62.6022 61.4913 62.909 61.798 62.909 62.184C62.909 62.5699 62.6022 62.8767 62.2163 62.8767Z" fill="black"/>
<path d="M41.999 68.448C37.3381 68.448 33.5381 64.648 33.5381 59.987C33.5381 57.0084 35.0521 54.3068 37.5954 52.763C38.0308 52.5057 38.6542 52.8422 38.6542 53.3568C38.6542 53.6339 38.486 53.8813 38.2485 53.9901C36.1605 55.2964 34.9235 57.5328 34.9235 59.9969C34.9235 63.8959 38.1001 67.0725 41.999 67.0725C45.0866 67.0725 47.8673 65.0141 48.7579 62.0553C48.8668 61.6891 49.2527 61.4813 49.6189 61.5901C49.985 61.699 50.1928 62.0849 50.084 62.4511C49.0152 65.9839 45.6902 68.4579 41.999 68.4579V68.448Z" fill="black"/>
<path d="M41.8209 61.2339C41.6527 61.2339 41.4844 61.1745 41.3558 61.0557C41.1777 60.8974 41.0985 60.65 41.1381 60.4224L42.7511 51.3083C42.8105 50.9817 43.0975 50.7343 43.4339 50.7343C47.4715 50.7343 50.7569 54.0396 50.7569 58.1068C50.7569 58.4135 50.559 58.6807 50.2621 58.7698L42.0089 61.2042C41.9496 61.224 41.8803 61.2339 41.811 61.2339H41.8209ZM44.0079 52.1494L42.6917 59.5615L49.3517 57.6021C49.1142 54.7323 46.848 52.4364 44.0079 52.1593V52.1494Z" fill="black"/>
<path d="M29.4808 74.7221C29.2927 74.7221 29.1047 74.643 28.9662 74.4945L27.9073 73.3169C27.65 73.0299 27.6797 72.5945 27.9568 72.3372C28.2438 72.0799 28.6792 72.1096 28.9365 72.3867L29.9953 73.5643C30.2526 73.8513 30.223 74.2867 29.9459 74.544C29.8172 74.6628 29.649 74.7221 29.4808 74.7221Z" fill="black"/>
<path d="M34.9136 79.0168H33.3303C33.1324 79.0168 32.9443 78.9376 32.8157 78.7892L31.7568 77.6116C31.4995 77.3246 31.5292 76.8892 31.8063 76.6319C32.0933 76.3746 32.5287 76.4043 32.786 76.6814L33.637 77.6314H34.9136C35.2995 77.6314 35.6063 77.9381 35.6063 78.3241C35.6063 78.71 35.2995 79.0168 34.9136 79.0168Z" fill="black"/>
<path d="M81.3252 79.0168C80.9393 79.0168 80.6325 78.71 80.6325 78.3241C80.6325 77.9382 80.9393 77.6314 81.3252 77.6314H83.4528C83.6606 77.5819 83.8982 77.5126 84.1554 77.4236C84.5216 77.2949 84.9075 77.4929 85.0362 77.8491C85.1648 78.2153 84.9669 78.6012 84.6107 78.7298C84.2742 78.8486 83.9575 78.9377 83.6903 78.997C83.6409 79.0069 83.5914 79.0168 83.5419 79.0168H81.3252ZM78.2278 79.0168H75.1304C74.7445 79.0168 74.4377 78.71 74.4377 78.3241C74.4377 77.9382 74.7445 77.6314 75.1304 77.6314H78.2278C78.6138 77.6314 78.9205 77.9382 78.9205 78.3241C78.9205 78.71 78.6138 79.0168 78.2278 79.0168ZM72.0429 79.0168H68.9455C68.5596 79.0168 68.2528 78.71 68.2528 78.3241C68.2528 77.9382 68.5596 77.6314 68.9455 77.6314H72.0429C72.4288 77.6314 72.7356 77.9382 72.7356 78.3241C72.7356 78.71 72.4288 79.0168 72.0429 79.0168ZM65.858 79.0168H62.7606C62.3746 79.0168 62.0679 78.71 62.0679 78.3241C62.0679 77.9382 62.3746 77.6314 62.7606 77.6314H65.858C66.2439 77.6314 66.5507 77.9382 66.5507 78.3241C66.5507 78.71 66.2439 79.0168 65.858 79.0168ZM59.6731 79.0168H56.5757C56.1897 79.0168 55.8829 78.71 55.8829 78.3241C55.8829 77.9382 56.1897 77.6314 56.5757 77.6314H59.6731C60.059 77.6314 60.3658 77.9382 60.3658 78.3241C60.3658 78.71 60.059 79.0168 59.6731 79.0168ZM53.4881 79.0168H50.3907C50.0048 79.0168 49.698 78.71 49.698 78.3241C49.698 77.9382 50.0048 77.6314 50.3907 77.6314H53.4881C53.8741 77.6314 54.1809 77.9382 54.1809 78.3241C54.1809 78.71 53.8741 79.0168 53.4881 79.0168ZM47.3032 79.0168H44.2058C43.8199 79.0168 43.5131 78.71 43.5131 78.3241C43.5131 77.9382 43.8199 77.6314 44.2058 77.6314H47.3032C47.6892 77.6314 47.9959 77.9382 47.9959 78.3241C47.9959 78.71 47.6892 79.0168 47.3032 79.0168ZM41.1183 79.0168H38.0209C37.635 79.0168 37.3282 78.71 37.3282 78.3241C37.3282 77.9382 37.635 77.6314 38.0209 77.6314H41.1183C41.5042 77.6314 41.811 77.9382 41.811 78.3241C41.811 78.71 41.5042 79.0168 41.1183 79.0168ZM87.0747 77.2554C86.8867 77.2554 86.7086 77.1762 86.57 77.0376C86.3127 76.7606 86.3226 76.3152 86.6096 76.058C87.144 75.5632 87.4409 75.0288 87.4904 74.4746C87.5101 74.3064 87.52 74.0788 87.5299 73.7819C87.5497 73.396 87.8763 73.0991 88.2523 73.1189C88.6383 73.1387 88.9351 73.4553 88.9154 73.8413C88.9055 74.1678 88.8857 74.435 88.8659 74.6132C88.7768 75.5236 88.3315 76.3449 87.5497 77.0772C87.4211 77.196 87.243 77.2653 87.0747 77.2653V77.2554ZM88.282 71.397C87.8961 71.397 87.5893 71.0803 87.5992 70.6944C87.5992 69.7642 87.6091 68.7251 87.6091 67.6069C87.6091 67.2209 87.9159 66.9142 88.3018 66.9142C88.6878 66.9142 88.9945 67.2209 88.9945 67.6069C88.9945 68.7251 88.9945 69.7741 88.9846 70.7043C88.9846 71.0803 88.668 71.3871 88.2919 71.3871L88.282 71.397ZM88.2919 65.2121C87.906 65.2121 87.5992 64.9053 87.5992 64.5194V61.4319C87.5794 61.0459 87.8862 60.7391 88.2721 60.7391C88.6482 60.7391 88.9648 61.0459 88.9648 61.4319V64.5293C88.9846 64.9152 88.668 65.222 88.2919 65.222V65.2121ZM88.2523 59.0173C87.8763 59.0173 87.5596 58.7105 87.5596 58.3345L87.5299 55.237C87.5299 54.8511 87.8367 54.5443 88.2127 54.5344C88.5888 54.5344 88.9055 54.8412 88.9055 55.2173L88.9352 58.3147C88.9352 58.7006 88.6284 59.0074 88.2523 59.0173Z" fill="black"/>
<path d="M88.183 52.8324C87.807 52.8324 87.4903 52.5256 87.4903 52.1496L87.4705 50.5662C87.4705 50.3782 87.5398 50.2001 87.6685 50.0714C87.7971 49.9428 87.9752 49.8636 88.1633 49.8636H89.7466C90.1325 49.8636 90.4393 50.1704 90.4393 50.5563C90.4393 50.9423 90.1325 51.249 89.7466 51.249H88.8659V52.1298C88.8857 52.5157 88.5789 52.8225 88.1929 52.8324H88.183Z" fill="black"/>
<path d="M92.7847 50.507C92.7154 50.507 92.6362 50.4971 92.5669 50.4674C92.2008 50.3486 92.0128 49.9528 92.1315 49.5867C92.2008 49.3689 92.2404 49.0721 92.2404 48.7257V46.4101C92.2404 46.0241 92.5472 45.7174 92.9331 45.7174C93.319 45.7174 93.6258 46.0241 93.6258 46.4101V48.7257C93.6258 49.2304 93.5664 49.6658 93.4378 50.032C93.3388 50.3189 93.0716 50.507 92.7847 50.507ZM92.9331 43.6986C92.5472 43.6986 92.2404 43.3918 92.2404 43.0059V42.1252L90.9242 40.6111C90.6768 40.3241 90.7065 39.8887 90.9935 39.6314C91.2805 39.3741 91.7159 39.4137 91.9732 39.7007L93.4675 41.4127C93.5763 41.5413 93.6357 41.6996 93.6357 41.8679V43.0158C93.6357 43.4017 93.3289 43.7085 92.943 43.7085L92.9331 43.6986Z" fill="black"/>
<path d="M89.2023 38.2756C89.0044 38.2756 88.8164 38.1964 88.6779 38.0381L87.6388 36.8407C87.3914 36.5537 87.4211 36.1183 87.7081 35.861C87.995 35.6037 88.4305 35.6433 88.6878 35.9303L89.7268 37.1277C89.9742 37.4147 89.9445 37.8501 89.6576 38.1074C89.5289 38.2261 89.3607 38.2756 89.2023 38.2756Z" fill="black"/>
<defs>
<filter id="filter0_f_828_1230" x="-211.078" y="-97.3495" width="440.331" height="440.117" filterUnits="userSpaceOnUse" color-interpolation-filters="sRGB">
<feFlood flood-opacity="0" result="BackgroundImageFix"/>
<feBlend mode="normal" in="SourceGraphic" in2="BackgroundImageFix" result="shape"/>
<feGaussianBlur stdDeviation="58.7095" result="effect1_foregroundBlur_828_1230"/>
</filter>
<filter id="filter1_f_828_1230" x="-120.526" y="-108.531" width="346.398" height="346.256" filterUnits="userSpaceOnUse" color-interpolation-filters="sRGB">
<feFlood flood-opacity="0" result="BackgroundImageFix"/>
<feBlend mode="normal" in="SourceGraphic" in2="BackgroundImageFix" result="shape"/>
<feGaussianBlur stdDeviation="52.5347" result="effect1_foregroundBlur_828_1230"/>
</filter>
<filter id="filter2_f_828_1230" x="-22.1149" y="-118.497" width="281.562" height="281.181" filterUnits="userSpaceOnUse" color-interpolation-filters="sRGB">
<feFlood flood-opacity="0" result="BackgroundImageFix"/>
<feBlend mode="normal" in="SourceGraphic" in2="BackgroundImageFix" result="shape"/>
<feGaussianBlur stdDeviation="26.8532" result="effect1_foregroundBlur_828_1230"/>
</filter>
</defs>
</svg>
