<svg width="115" height="115" viewBox="0 0 115 115" fill="none" xmlns="http://www.w3.org/2000/svg">
<mask id="mask0_828_1293" style="mask-type:alpha" maskUnits="userSpaceOnUse" x="0" y="0" width="115" height="115">
<ellipse cx="57.5" cy="57.4401" rx="57.5" ry="57.4401" fill="#D9D9D9"/>
</mask>
<g mask="url(#mask0_828_1293)">
<ellipse cx="57.5" cy="57.44" rx="57.5" ry="57.4401" fill="black"/>
<g filter="url(#filter0_f_828_1293)">
<ellipse cx="102.702" cy="102.649" rx="102.702" ry="102.649" transform="matrix(0.866251 -0.499609 0.500391 0.8658 -131.244 85.1464)" fill="#00FFF0"/>
</g>
<g filter="url(#filter1_f_828_1293)">
<path d="M111.664 30.5734C130.474 63.1198 119.311 104.737 86.731 123.527C54.1507 142.318 12.4904 131.167 -6.3199 98.6204C-25.1302 66.074 -13.9673 24.4571 18.613 5.66641C51.1934 -13.1243 92.8537 -1.97304 111.664 30.5734Z" fill="#00F6FF"/>
</g>
<g filter="url(#filter2_f_828_1293)">
<ellipse cx="87.0871" cy="86.8421" rx="87.0871" ry="86.8421" transform="matrix(0.866251 -0.499609 0.500391 0.8658 -0.228516 -9.58551)" fill="#C3A6FF"/>
</g>
</g>
<path d="M49.2174 72.158H47.634C47.2481 72.158 46.9413 71.8512 46.9413 71.4653C46.9413 71.0793 47.2481 70.7726 47.634 70.7726H49.2174C49.6033 70.7726 49.9101 71.0793 49.9101 71.4653C49.9101 71.8512 49.6033 72.158 49.2174 72.158Z" fill="black"/>
<path d="M44.4476 72.1579H41.271C40.885 72.1579 40.5783 71.8511 40.5783 71.4652C40.5783 71.0792 40.885 70.7725 41.271 70.7725H44.4476C44.8335 70.7725 45.1403 71.0792 45.1403 71.4652C45.1403 71.8511 44.8335 72.1579 44.4476 72.1579ZM38.0944 72.1579H35.1454C35.1454 72.1579 35.0762 72.1579 35.0465 72.1579C35.0465 72.1579 34.9574 72.148 34.7892 72.1084C34.4131 72.0392 34.1658 71.673 34.235 71.297C34.3043 70.9209 34.6704 70.6834 35.0465 70.7428L35.2048 70.7725H38.0944C38.4804 70.7725 38.7871 71.0792 38.7871 71.4652C38.7871 71.8511 38.4804 72.1579 38.0944 72.1579ZM31.8798 71.1683C31.7907 71.1683 31.6918 71.1485 31.6027 71.1089C30.5241 70.6438 29.5543 70.0798 28.7131 69.4266C28.4064 69.1891 28.3569 68.7537 28.5845 68.4568C28.822 68.1501 29.2574 68.1006 29.5543 68.3282C30.3064 68.9022 31.1772 69.4167 32.147 69.8324C32.4934 69.9808 32.6616 70.3865 32.5131 70.7428C32.4043 71.0001 32.147 71.1584 31.8798 71.1584V71.1683ZM26.9814 67.2594C26.7537 67.2594 26.5261 67.1506 26.3975 66.9428C25.784 65.9829 25.3584 64.9141 25.1308 63.7761C25.0616 63.4001 25.2991 63.0339 25.6751 62.9646C26.0412 62.8954 26.4173 63.1329 26.4866 63.5089C26.6746 64.4787 27.0407 65.3891 27.5553 66.1907C27.7631 66.5173 27.6642 66.9428 27.3475 67.1506C27.2287 67.2298 27.1001 67.2594 26.9715 67.2594H26.9814ZM25.685 61.1636C25.685 61.1636 25.6454 61.1636 25.6355 61.1636C25.2496 61.1339 24.9725 60.7974 25.0022 60.4214C25.0912 59.2537 25.2991 58.1453 25.6355 57.1459C25.7543 56.7797 26.1501 56.5818 26.5063 56.7006C26.8725 56.8193 27.0704 57.2151 26.9517 57.5714C26.6548 58.4719 26.4668 59.4615 26.3876 60.5204C26.3579 60.8865 26.061 61.1636 25.6949 61.1636H25.685ZM27.7038 55.2261C27.5652 55.2261 27.4168 55.1865 27.298 55.0974C26.9912 54.8698 26.922 54.4344 27.1496 54.1276C27.8225 53.2073 28.6439 52.4156 29.6038 51.7724C29.9204 51.5547 30.3558 51.6438 30.5637 51.9604C30.7814 52.2771 30.6923 52.7125 30.3756 52.9203C29.5543 53.4745 28.8517 54.1573 28.2678 54.949C28.1293 55.137 27.9215 55.236 27.7038 55.236V55.2261Z" fill="black"/>
<path d="M32.8892 51.723C32.5824 51.723 32.3053 51.5152 32.2163 51.2084C32.1173 50.8423 32.335 50.4563 32.7111 50.3574C33.0871 50.2584 33.473 50.1792 33.8392 50.1199C33.8986 49.8329 33.9777 49.4568 34.1163 49.0115C34.2251 48.6454 34.6111 48.4376 34.9772 48.5464C35.3434 48.6553 35.5512 49.0412 35.4423 49.4074C35.1949 50.2485 35.1356 50.8126 35.1356 50.8225C35.1059 51.1589 34.8387 51.4162 34.5022 51.4459C34.0371 51.4855 33.5621 51.5647 33.0673 51.7032C33.0079 51.723 32.9486 51.723 32.8892 51.723Z" fill="black"/>
<path d="M36.3033 46.7058C36.1647 46.7058 36.0361 46.6662 35.9074 46.5871C35.5908 46.3694 35.5116 45.9438 35.7293 45.6272C36.4517 44.5683 37.3324 43.6579 38.3517 42.9157C38.6585 42.6881 39.0939 42.7574 39.3215 43.0641C39.5491 43.3709 39.4798 43.8063 39.1731 44.0339C38.2824 44.6871 37.5106 45.4886 36.8772 46.4188C36.7387 46.6168 36.5309 46.7157 36.3033 46.7157V46.7058ZM41.934 42.599C41.6272 42.599 41.3502 42.4011 41.271 42.0944C41.172 41.7282 41.3897 41.3423 41.7559 41.2433C42.9434 40.9167 44.2793 40.8079 45.5163 40.9068C45.9023 40.9365 46.1793 41.273 46.1497 41.649C46.12 42.035 45.7835 42.3121 45.4075 42.2824C44.3189 42.2032 43.1512 42.2824 42.122 42.5694C42.0627 42.5891 42.0033 42.599 41.934 42.599Z" fill="black"/>
<path d="M50.3851 43.6875C50.2663 43.6875 50.1476 43.6578 50.0486 43.5985C50.0486 43.5985 49.534 43.3115 48.7028 43.0047C48.3465 42.8761 48.1585 42.4802 48.2872 42.1141C48.4158 41.7479 48.8215 41.5698 49.1778 41.6984C49.5241 41.8271 49.8309 41.9557 50.0684 42.0547C50.1971 41.8271 50.3554 41.5401 50.5632 41.2234C50.771 40.9068 51.1965 40.8078 51.5231 41.0156C51.8398 41.2234 51.9387 41.649 51.7309 41.9755C51.2361 42.7375 51.0382 43.2323 51.0382 43.2323C50.9689 43.4203 50.8106 43.5589 50.6226 43.6281C50.5434 43.6578 50.4643 43.6677 50.3851 43.6677V43.6875Z" fill="black"/>
<path d="M82.3883 47.1115C82.0816 47.1115 81.7946 46.9037 81.7154 46.587C81.4581 45.6073 81.092 44.6079 80.6071 43.6183C80.4388 43.2719 80.5774 42.8563 80.9237 42.6881C81.2701 42.5198 81.6857 42.6584 81.854 43.0047C82.3784 44.0735 82.7842 45.162 83.0612 46.2407C83.1602 46.6068 82.9326 46.9928 82.5665 47.0818C82.5071 47.1016 82.4477 47.1016 82.3982 47.1016L82.3883 47.1115ZM79.5185 41.174C79.3008 41.174 79.093 41.075 78.9545 40.887C78.3112 40.0063 77.5987 39.2047 76.8466 38.5021C76.5696 38.2448 76.5498 37.7995 76.817 37.5224C77.0841 37.2453 77.5196 37.2255 77.7966 37.4927C78.6081 38.2547 79.38 39.1255 80.0727 40.0755C80.3003 40.3823 80.231 40.8177 79.9243 41.0453C79.8055 41.1344 79.6571 41.1839 79.5185 41.1839V41.174ZM53.2648 39.7589C53.0867 39.7589 52.9085 39.6896 52.77 39.5511C52.5028 39.274 52.5127 38.8386 52.7799 38.5714C53.5815 37.7896 54.4919 37.0672 55.4617 36.4141C55.7783 36.2063 56.2138 36.2953 56.4216 36.612C56.6294 36.9287 56.5502 37.3641 56.2236 37.5719C55.3132 38.1755 54.482 38.8386 53.7398 39.561C53.6012 39.6896 53.433 39.7589 53.2549 39.7589H53.2648ZM74.6794 36.711C74.5607 36.711 74.4419 36.6813 74.3331 36.6219C73.4227 36.0974 72.4529 35.6521 71.4435 35.3057C71.0774 35.1771 70.8893 34.7912 71.018 34.425C71.1466 34.0589 71.5326 33.8708 71.8987 33.9995C72.9972 34.3755 74.0461 34.8604 75.0357 35.4245C75.3623 35.6125 75.481 36.038 75.2831 36.3745C75.1544 36.5922 74.9268 36.7208 74.6794 36.7208V36.711ZM58.757 36.0974C58.4898 36.0974 58.2424 35.949 58.1237 35.6917C57.9653 35.3453 58.1237 34.9297 58.47 34.7714C59.3606 34.3656 60.3106 34.0094 61.2903 33.7125C61.419 33.6729 61.5476 33.6333 61.6763 33.5938C62.0424 33.4849 62.4284 33.7026 62.5273 34.0688C62.6362 34.4349 62.4185 34.8208 62.0523 34.9198L61.6961 35.0287C60.7757 35.3156 59.8752 35.6521 59.0341 36.0281C58.945 36.0677 58.8461 36.0875 58.7471 36.0875L58.757 36.0974ZM68.445 34.5635C68.445 34.5635 68.3758 34.5635 68.3461 34.5635C67.5643 34.4547 66.7825 34.4052 66.0107 34.3953C65.7336 34.3953 65.4565 34.3953 65.1794 34.4151C64.7737 34.4448 64.4669 34.1479 64.4471 33.762C64.4273 33.376 64.7143 33.0495 65.1002 33.0297C65.4169 33.0099 65.7237 33 66.0601 33C66.8815 33 67.7226 33.0594 68.544 33.1781C68.92 33.2276 69.1872 33.5839 69.1279 33.9599C69.0784 34.3063 68.7815 34.5537 68.445 34.5537V34.5635Z" fill="black"/>
<path d="M83.9717 52.8313C83.8331 52.8313 83.6946 52.7917 83.5758 52.7026C82.8534 52.1881 82.3289 51.9209 82.3289 51.9209C82.0519 51.7823 81.8935 51.4657 81.9628 51.1589C82.042 50.7828 82.0816 50.4068 82.1013 50.1198C82.1013 49.9912 82.1112 49.8526 82.1211 49.724C82.1211 49.3479 82.4378 49.0412 82.8139 49.0412C82.8139 49.0412 82.8138 49.0412 82.8237 49.0412C83.2097 49.0412 83.5066 49.3677 83.5066 49.7438C83.5066 49.9021 83.5066 50.0505 83.4868 50.2089C83.467 50.4167 83.4472 50.6641 83.4175 50.9313C83.6649 51.0797 84.0014 51.2875 84.3873 51.5646C84.704 51.7823 84.7732 52.2177 84.5555 52.5344C84.417 52.7224 84.2092 52.8214 83.9915 52.8214L83.9717 52.8313Z" fill="black"/>
<path d="M78.8753 72.1678H75.8867C75.5008 72.1678 75.194 71.861 75.194 71.4751C75.194 71.0892 75.5008 70.7824 75.8867 70.7824H78.8753C79.2612 70.7824 79.568 71.0892 79.568 71.4751C79.568 71.861 79.2612 72.1678 78.8753 72.1678ZM72.8982 72.1678H69.9096C69.5237 72.1678 69.2169 71.861 69.2169 71.4751C69.2169 71.0892 69.5237 70.7824 69.9096 70.7824H72.8982C73.2841 70.7824 73.5909 71.0892 73.5909 71.4751C73.5909 71.861 73.2841 72.1678 72.8982 72.1678ZM81.854 72.0095C81.567 72.0095 81.2899 71.8215 81.1909 71.5345C81.0722 71.1683 81.2701 70.7824 81.6362 70.6636C82.3487 70.4261 83.2196 69.9412 84.031 69.3178C84.3378 69.0803 84.7732 69.1397 85.0008 69.4464C85.2383 69.7532 85.179 70.1886 84.8722 70.4162C83.9321 71.1386 82.9326 71.6928 82.0717 71.9798C82.0024 71.9996 81.9232 72.0194 81.854 72.0194V72.0095ZM86.5743 68.4569C86.4258 68.4569 86.2675 68.4074 86.1488 68.3084C85.8519 68.0709 85.8024 67.6355 86.0399 67.3386C86.6337 66.5964 87.1186 65.785 87.4847 64.9339C87.6331 64.5876 88.0389 64.4193 88.3951 64.5678C88.7415 64.7162 88.9097 65.1318 88.7613 65.4782C88.3456 66.4381 87.8014 67.3485 87.1383 68.1897C86.9998 68.3579 86.8019 68.4569 86.5941 68.4569H86.5743ZM88.9097 63.0339C88.9097 63.0339 88.8503 63.0339 88.8107 63.0339C88.4347 62.9844 88.1675 62.6282 88.217 62.2521C88.2566 61.9553 88.2863 61.6485 88.3061 61.3318C88.3061 61.1735 88.316 61.0251 88.316 60.8766C88.316 60.4115 88.2764 59.9365 88.2071 59.4813C88.1477 59.1053 88.405 58.749 88.7811 58.6896C89.167 58.6303 89.5134 58.8876 89.5727 59.2636C89.6618 59.798 89.7014 60.3422 89.7014 60.8865C89.7014 61.0547 89.7014 61.2329 89.6915 61.411C89.6717 61.7672 89.642 62.1136 89.5925 62.4501C89.543 62.7964 89.2462 63.0438 88.9097 63.0438V63.0339ZM87.9399 57.2349C87.6925 57.2349 87.4451 57.0964 87.3264 56.8589C86.9107 56.0672 86.3665 55.2953 85.7034 54.573C85.4461 54.2959 85.4659 53.8506 85.743 53.5933C86.0201 53.336 86.4654 53.3558 86.7227 53.6328C87.4649 54.4443 88.0785 55.3151 88.5535 56.2157C88.7316 56.5521 88.593 56.9776 88.2566 57.1459C88.1576 57.1954 88.0488 57.225 87.9399 57.225V57.2349Z" fill="black"/>
<path d="M66.8914 72.1679H65.3081C64.9221 72.1679 64.6153 71.8611 64.6153 71.4752C64.6153 71.0893 64.9221 70.7825 65.3081 70.7825H66.8914C67.2773 70.7825 67.5841 71.0893 67.5841 71.4752C67.5841 71.8611 67.2773 72.1679 66.8914 72.1679Z" fill="black"/>
<path d="M57.1736 82.2814C56.7877 82.2814 56.4809 81.9746 56.4809 81.5887V54.8105C56.4809 54.4245 56.7877 54.1178 57.1736 54.1178C57.5596 54.1178 57.8664 54.4245 57.8664 54.8105V81.5887C57.8664 81.9746 57.5596 82.2814 57.1736 82.2814Z" fill="black"/>
<path d="M46.4663 65.0329C46.2783 65.0329 46.0804 64.9538 45.9517 64.7954C45.6944 64.5085 45.7241 64.073 46.0111 63.8158L56.7778 54.2959C57.045 54.0584 57.4408 54.0683 57.708 54.2959L68.069 63.8158C68.3461 64.073 68.3659 64.5085 68.1086 64.7954C67.8513 65.0824 67.406 65.0923 67.1289 64.835L57.233 55.7407L46.9413 64.8449C46.8127 64.9637 46.6444 65.0231 46.4861 65.0231L46.4663 65.0329Z" fill="black"/>
<defs>
<filter id="filter0_f_828_1293" x="-211.078" y="-97.3496" width="440.331" height="440.117" filterUnits="userSpaceOnUse" color-interpolation-filters="sRGB">
<feFlood flood-opacity="0" result="BackgroundImageFix"/>
<feBlend mode="normal" in="SourceGraphic" in2="BackgroundImageFix" result="shape"/>
<feGaussianBlur stdDeviation="58.7095" result="effect1_foregroundBlur_828_1293"/>
</filter>
<filter id="filter1_f_828_1293" x="-120.527" y="-108.531" width="346.398" height="346.256" filterUnits="userSpaceOnUse" color-interpolation-filters="sRGB">
<feFlood flood-opacity="0" result="BackgroundImageFix"/>
<feBlend mode="normal" in="SourceGraphic" in2="BackgroundImageFix" result="shape"/>
<feGaussianBlur stdDeviation="52.5347" result="effect1_foregroundBlur_828_1293"/>
</filter>
<filter id="filter2_f_828_1293" x="-22.1152" y="-118.498" width="281.562" height="281.181" filterUnits="userSpaceOnUse" color-interpolation-filters="sRGB">
<feFlood flood-opacity="0" result="BackgroundImageFix"/>
<feBlend mode="normal" in="SourceGraphic" in2="BackgroundImageFix" result="shape"/>
<feGaussianBlur stdDeviation="26.8532" result="effect1_foregroundBlur_828_1293"/>
</filter>
</defs>
</svg>
