<svg width="115" height="115" viewBox="0 0 115 115" fill="none" xmlns="http://www.w3.org/2000/svg">
<mask id="mask0_828_1253" style="mask-type:alpha" maskUnits="userSpaceOnUse" x="0" y="0" width="115" height="115">
<ellipse cx="57.5" cy="57.4401" rx="57.5" ry="57.4401" fill="#D9D9D9"/>
</mask>
<g mask="url(#mask0_828_1253)">
<ellipse cx="57.5" cy="57.44" rx="57.5" ry="57.4401" fill="black"/>
<g filter="url(#filter0_f_828_1253)">
<ellipse cx="102.702" cy="102.649" rx="102.702" ry="102.649" transform="matrix(0.866251 -0.499609 0.500391 0.8658 -131.244 85.1464)" fill="#00FFF0"/>
</g>
<g filter="url(#filter1_f_828_1253)">
<path d="M111.664 30.5734C130.474 63.1198 119.312 104.737 86.7313 123.527C54.1509 142.318 12.4906 131.167 -6.31965 98.6204C-25.1299 66.074 -13.9671 24.4571 18.6133 5.66641C51.1936 -13.1243 92.854 -1.97304 111.664 30.5734Z" fill="#00F6FF"/>
</g>
<g filter="url(#filter2_f_828_1253)">
<ellipse cx="87.0871" cy="86.8421" rx="87.0871" ry="86.8421" transform="matrix(0.866251 -0.499609 0.500391 0.8658 -0.228271 -9.58551)" fill="#C3A6FF"/>
</g>
</g>
<path d="M81.6044 46.4006H27.7807C26.9198 46.4006 26.1578 45.886 25.8411 45.0745C25.5245 44.2729 25.7323 43.3724 26.3656 42.7886L33.1047 36.5542C33.4906 36.1979 33.9953 36 34.5198 36H86.77C87.5815 36 88.3039 36.4552 88.6502 37.1974C88.9966 37.9396 88.8877 38.7807 88.3731 39.4141L83.2075 45.6485C82.8117 46.1235 82.2278 46.4006 81.6044 46.4006ZM34.0448 37.5734L27.3057 43.8078C26.9792 44.1047 27.088 44.4709 27.1276 44.5698C27.1672 44.6688 27.3354 45.0151 27.7708 45.0151H81.5945C81.8023 45.0151 82.0002 44.9261 82.1288 44.7677L87.2945 38.5333C87.5518 38.2167 87.433 37.8901 87.3836 37.7912C87.3341 37.6922 87.1658 37.3953 86.7502 37.3953H34.5198C34.3417 37.3953 34.1735 37.4646 34.0448 37.5833V37.5734Z" fill="black"/>
<path d="M81.6044 63.0751H78.7643C78.3783 63.0751 78.0716 62.7683 78.0716 62.3824C78.0716 61.9965 78.3783 61.6897 78.7643 61.6897H81.6044C81.6638 61.6897 81.7231 61.6897 81.7825 61.6798C82.1585 61.6204 82.5049 61.8975 82.5544 62.2834C82.6039 62.6595 82.3268 63.0058 81.9507 63.0553C81.832 63.0652 81.7231 63.0751 81.6044 63.0751ZM75.657 63.0751H72.5497C72.1637 63.0751 71.8569 62.7683 71.8569 62.3824C71.8569 61.9965 72.1637 61.6897 72.5497 61.6897H75.657C76.0429 61.6897 76.3497 61.9965 76.3497 62.3824C76.3497 62.7683 76.0429 63.0751 75.657 63.0751ZM69.4523 63.0751H66.3449C65.959 63.0751 65.6522 62.7683 65.6522 62.3824C65.6522 61.9965 65.959 61.6897 66.3449 61.6897H69.4523C69.8382 61.6897 70.145 61.9965 70.145 62.3824C70.145 62.7683 69.8382 63.0751 69.4523 63.0751ZM63.2475 63.0751H60.1402C59.7543 63.0751 59.4475 62.7683 59.4475 62.3824C59.4475 61.9965 59.7543 61.6897 60.1402 61.6897H63.2475C63.6335 61.6897 63.9403 61.9965 63.9403 62.3824C63.9403 62.7683 63.6335 63.0751 63.2475 63.0751ZM57.0428 63.0751H53.9355C53.5496 63.0751 53.2428 62.7683 53.2428 62.3824C53.2428 61.9965 53.5496 61.6897 53.9355 61.6897H57.0428C57.4288 61.6897 57.7355 61.9965 57.7355 62.3824C57.7355 62.7683 57.4288 63.0751 57.0428 63.0751ZM50.8381 63.0751H47.7308C47.3449 63.0751 47.0381 62.7683 47.0381 62.3824C47.0381 61.9965 47.3449 61.6897 47.7308 61.6897H50.8381C51.2241 61.6897 51.5308 61.9965 51.5308 62.3824C51.5308 62.7683 51.2241 63.0751 50.8381 63.0751ZM44.6334 63.0751H41.5261C41.1402 63.0751 40.8334 62.7683 40.8334 62.3824C40.8334 61.9965 41.1402 61.6897 41.5261 61.6897H44.6334C45.0193 61.6897 45.3261 61.9965 45.3261 62.3824C45.3261 62.7683 45.0193 63.0751 44.6334 63.0751ZM38.4287 63.0751H35.3214C34.9355 63.0751 34.6287 62.7683 34.6287 62.3824C34.6287 61.9965 34.9355 61.6897 35.3214 61.6897H38.4287C38.8146 61.6897 39.1214 61.9965 39.1214 62.3824C39.1214 62.7683 38.8146 63.0751 38.4287 63.0751ZM32.224 63.0751H29.1167C28.7307 63.0751 28.424 62.7683 28.424 62.3824C28.424 61.9965 28.7307 61.6897 29.1167 61.6897H32.224C32.6099 61.6897 32.9167 61.9965 32.9167 62.3824C32.9167 62.7683 32.6099 63.0751 32.224 63.0751ZM26.2271 62.3626C26.0292 62.3626 25.8411 62.2834 25.7026 62.1251C25.2474 61.6105 25 60.9376 25 60.2548C25 59.572 25.2672 58.8892 25.7422 58.3746C25.9995 58.0975 26.4448 58.0777 26.7219 58.335C26.999 58.5923 27.0188 59.0376 26.7615 59.3147C26.4547 59.6511 26.3854 60.0074 26.3854 60.2548C26.3854 60.6011 26.5141 60.9574 26.7417 61.2147C26.9891 61.5017 26.9594 61.9371 26.6724 62.1944C26.5438 62.3131 26.3755 62.3626 26.2172 62.3626H26.2271ZM84.2268 61.1454C84.0685 61.1454 83.9101 61.0959 83.7815 60.9871C83.4846 60.7397 83.445 60.3043 83.6924 60.0074L85.6716 57.6126C85.919 57.3157 86.3544 57.2761 86.6513 57.5235C86.9482 57.7709 86.9877 58.2063 86.7403 58.5032L84.7612 60.898C84.6226 61.0662 84.4247 61.1454 84.2268 61.1454ZM28.5031 57.4147C28.3151 57.4147 28.1271 57.3355 27.9984 57.197C27.7412 56.9199 27.7511 56.4746 28.038 56.2173L30.3141 54.1094C30.5912 53.8522 31.0365 53.862 31.2938 54.149C31.5511 54.4261 31.5412 54.8714 31.2542 55.1287L28.9781 57.2365C28.8495 57.3553 28.6714 57.4246 28.5031 57.4246V57.4147ZM88.1653 56.3558C88.007 56.3558 87.8487 56.3063 87.72 56.1975C87.4231 55.9501 87.3836 55.5147 87.631 55.2178L87.8685 54.9308C88.0862 54.6735 88.195 54.3568 88.195 54.0303C88.195 53.7433 88.106 53.4563 87.9377 53.2188C87.72 52.9022 87.8091 52.4766 88.1258 52.2589C88.4424 52.0412 88.8679 52.1303 89.0857 52.4469C89.4023 52.9219 89.5805 53.4662 89.5805 54.0402C89.5805 54.6933 89.3528 55.3068 88.9273 55.8214L88.6898 56.1084C88.5513 56.2766 88.3534 56.3558 88.1554 56.3558H88.1653ZM33.5599 52.9813L32.5901 51.9917L32.6198 51.9719C33.1344 51.487 33.8172 51.2297 34.5198 51.2297H36.0438C36.4297 51.2297 36.7365 51.5365 36.7365 51.9225C36.7365 52.3084 36.4297 52.6152 36.0438 52.6152H34.5198C34.1636 52.6152 33.8172 52.7537 33.5599 52.9912V52.9813ZM85.731 52.6053H82.6236C82.2377 52.6053 81.9309 52.2985 81.9309 51.9126C81.9309 51.5266 82.2377 51.2199 82.6236 51.2199H85.731C86.1169 51.2199 86.4237 51.5266 86.4237 51.9126C86.4237 52.2985 86.1169 52.6053 85.731 52.6053ZM79.5262 52.6053H76.4189C76.033 52.6053 75.7262 52.2985 75.7262 51.9126C75.7262 51.5266 76.033 51.2199 76.4189 51.2199H79.5262C79.9122 51.2199 80.219 51.5266 80.219 51.9126C80.219 52.2985 79.9122 52.6053 79.5262 52.6053ZM73.3215 52.6053H70.2142C69.8283 52.6053 69.5215 52.2985 69.5215 51.9126C69.5215 51.5266 69.8283 51.2199 70.2142 51.2199H73.3215C73.7075 51.2199 74.0142 51.5266 74.0142 51.9126C74.0142 52.2985 73.7075 52.6053 73.3215 52.6053ZM67.1168 52.6053H64.0095C63.6236 52.6053 63.3168 52.2985 63.3168 51.9126C63.3168 51.5266 63.6236 51.2199 64.0095 51.2199H67.1168C67.5028 51.2199 67.8095 51.5266 67.8095 51.9126C67.8095 52.2985 67.5028 52.6053 67.1168 52.6053ZM60.9121 52.6053H57.8048C57.4189 52.6053 57.1121 52.2985 57.1121 51.9126C57.1121 51.5266 57.4189 51.2199 57.8048 51.2199H60.9121C61.2981 51.2199 61.6048 51.5266 61.6048 51.9126C61.6048 52.2985 61.2981 52.6053 60.9121 52.6053ZM54.7074 52.6053H51.6001C51.2142 52.6053 50.9074 52.2985 50.9074 51.9126C50.9074 51.5266 51.2142 51.2199 51.6001 51.2199H54.7074C55.0933 51.2199 55.4001 51.5266 55.4001 51.9126C55.4001 52.2985 55.0933 52.6053 54.7074 52.6053ZM48.5027 52.6053H45.3954C45.0094 52.6053 44.7027 52.2985 44.7027 51.9126C44.7027 51.5266 45.0094 51.2199 45.3954 51.2199H48.5027C48.8886 51.2199 49.1954 51.5266 49.1954 51.9126C49.1954 52.2985 48.8886 52.6053 48.5027 52.6053ZM42.298 52.6053H39.1907C38.8047 52.6053 38.498 52.2985 38.498 51.9126C38.498 51.5266 38.8047 51.2199 39.1907 51.2199H42.298C42.6839 51.2199 42.9907 51.5266 42.9907 51.9126C42.9907 52.2985 42.6839 52.6053 42.298 52.6053Z" fill="black"/>
<path d="M81.6044 78.4038H27.7807C26.9198 78.4038 26.1578 77.8892 25.8411 77.0777C25.5245 76.2762 25.7323 75.3756 26.3656 74.7918L33.1047 68.5574C33.4906 68.2011 33.9953 68.0032 34.5198 68.0032H86.77C87.5815 68.0032 88.3039 68.4584 88.6502 69.2006C88.9966 69.9428 88.8877 70.784 88.3731 71.4173L83.2075 77.6517C82.8117 78.1267 82.2278 78.4038 81.6044 78.4038ZM34.5099 69.3886C34.3318 69.3886 34.1636 69.4579 34.0349 69.5767L27.2958 75.8111C26.9693 76.1079 27.0781 76.4741 27.1177 76.573C27.1573 76.672 27.3255 77.0183 27.7609 77.0183H81.5846C81.7924 77.0183 81.9903 76.9293 82.119 76.771L87.2846 70.5366C87.5419 70.2199 87.4231 69.8933 87.3737 69.7944C87.3242 69.6954 87.1559 69.3985 86.7403 69.3985H34.5198L34.5099 69.3886Z" fill="black"/>
<defs>
<filter id="filter0_f_828_1253" x="-211.078" y="-97.3496" width="440.331" height="440.117" filterUnits="userSpaceOnUse" color-interpolation-filters="sRGB">
<feFlood flood-opacity="0" result="BackgroundImageFix"/>
<feBlend mode="normal" in="SourceGraphic" in2="BackgroundImageFix" result="shape"/>
<feGaussianBlur stdDeviation="58.7095" result="effect1_foregroundBlur_828_1253"/>
</filter>
<filter id="filter1_f_828_1253" x="-120.526" y="-108.531" width="346.398" height="346.256" filterUnits="userSpaceOnUse" color-interpolation-filters="sRGB">
<feFlood flood-opacity="0" result="BackgroundImageFix"/>
<feBlend mode="normal" in="SourceGraphic" in2="BackgroundImageFix" result="shape"/>
<feGaussianBlur stdDeviation="52.5347" result="effect1_foregroundBlur_828_1253"/>
</filter>
<filter id="filter2_f_828_1253" x="-22.1152" y="-118.498" width="281.562" height="281.181" filterUnits="userSpaceOnUse" color-interpolation-filters="sRGB">
<feFlood flood-opacity="0" result="BackgroundImageFix"/>
<feBlend mode="normal" in="SourceGraphic" in2="BackgroundImageFix" result="shape"/>
<feGaussianBlur stdDeviation="26.8532" result="effect1_foregroundBlur_828_1253"/>
</filter>
</defs>
</svg>
