<svg width="115" height="115" viewBox="0 0 115 115" fill="none" xmlns="http://www.w3.org/2000/svg">
<mask id="mask0_828_1266" style="mask-type:alpha" maskUnits="userSpaceOnUse" x="0" y="0" width="115" height="115">
<ellipse cx="57.5" cy="57.4401" rx="57.5" ry="57.4401" fill="#D9D9D9"/>
</mask>
<g mask="url(#mask0_828_1266)">
<ellipse cx="57.5" cy="57.44" rx="57.5" ry="57.4401" fill="black"/>
<g filter="url(#filter0_f_828_1266)">
<ellipse cx="102.702" cy="102.649" rx="102.702" ry="102.649" transform="matrix(0.866251 -0.499609 0.500391 0.8658 -131.244 85.1464)" fill="#00FFF0"/>
</g>
<g filter="url(#filter1_f_828_1266)">
<path d="M111.664 30.5734C130.474 63.1198 119.311 104.737 86.731 123.527C54.1507 142.318 12.4904 131.167 -6.3199 98.6204C-25.1302 66.074 -13.9673 24.4571 18.613 5.66641C51.1934 -13.1243 92.8537 -1.97304 111.664 30.5734Z" fill="#00F6FF"/>
</g>
<g filter="url(#filter2_f_828_1266)">
<ellipse cx="87.0871" cy="86.8421" rx="87.0871" ry="86.8421" transform="matrix(0.866251 -0.499609 0.500391 0.8658 -0.228516 -9.58551)" fill="#C3A6FF"/>
</g>
</g>
<path d="M57.2991 67.2725C56.9131 67.2725 56.6064 66.9657 56.6064 66.5798V53.7745C56.6064 53.3886 56.9131 53.0818 57.2991 53.0818C57.685 53.0818 57.9918 53.3886 57.9918 53.7745V66.5798C57.9918 66.9657 57.685 67.2725 57.2991 67.2725Z" fill="black"/>
<path d="M64.2856 67.2724C63.8996 67.2724 63.5929 66.9656 63.5929 66.5797V48.2525C63.5929 47.8666 63.8996 47.5598 64.2856 47.5598C64.6715 47.5598 64.9783 47.8666 64.9783 48.2525V66.5896C64.9783 66.9755 64.6715 67.2823 64.2856 67.2823V67.2724Z" fill="black"/>
<path d="M50.6095 67.2726C50.2235 67.2726 49.9168 66.9658 49.9168 66.5799V59.3064C49.9168 58.9205 50.2235 58.6137 50.6095 58.6137C50.9954 58.6137 51.3022 58.9205 51.3022 59.3064V66.5799C51.3022 66.9658 50.9954 67.2726 50.6095 67.2726Z" fill="black"/>
<path d="M44.7907 67.2724C44.4048 67.2724 44.098 66.9657 44.098 66.5797V53.4875C44.098 53.1016 44.4048 52.7948 44.7907 52.7948C45.1767 52.7948 45.4834 53.1016 45.4834 53.4875V66.5797C45.4834 66.9657 45.1767 67.2724 44.7907 67.2724Z" fill="black"/>
<path d="M70.6882 67.2725C70.3023 67.2725 69.9955 66.9657 69.9955 66.5798V59.0095C69.9955 58.6235 70.3023 58.3168 70.6882 58.3168C71.0741 58.3168 71.3809 58.6235 71.3809 59.0095V66.5798C71.3809 66.9657 71.0741 67.2725 70.6882 67.2725Z" fill="black"/>
<path d="M35.6271 63.4923C35.2412 63.4923 34.9344 63.1856 34.9344 62.7996V61.5132C34.9344 61.1272 35.2412 60.8204 35.6271 60.8204C36.0131 60.8204 36.3198 61.1272 36.3198 61.5132V62.7996C36.3198 63.1856 36.0131 63.4923 35.6271 63.4923Z" fill="black"/>
<path d="M35.6271 59.8308C35.2412 59.8308 34.9344 59.524 34.9344 59.1381V56.7631C34.9344 56.3771 35.2412 56.0703 35.6271 56.0703C36.0131 56.0703 36.3198 56.3771 36.3198 56.7631V59.1381C36.3198 59.524 36.0131 59.8308 35.6271 59.8308ZM35.6271 55.0906C35.2412 55.0906 34.9344 54.7839 34.9344 54.3979V52.0229C34.9344 51.637 35.2412 51.3302 35.6271 51.3302C36.0131 51.3302 36.3198 51.637 36.3198 52.0229V54.3979C36.3198 54.7839 36.0131 55.0906 35.6271 55.0906Z" fill="black"/>
<path d="M35.6271 50.3506C35.2412 50.3506 34.9344 50.0438 34.9344 49.6579V48.3714C34.9344 47.9855 35.2412 47.6787 35.6271 47.6787C36.0131 47.6787 36.3198 47.9855 36.3198 48.3714V49.6579C36.3198 50.0438 36.0131 50.3506 35.6271 50.3506Z" fill="black"/>
<path d="M29.2245 63.4924C28.8386 63.4924 28.5318 63.1856 28.5318 62.7997V58.8413C28.5318 58.4554 28.8386 58.1486 29.2245 58.1486C29.6104 58.1486 29.9172 58.4554 29.9172 58.8413V62.7997C29.9172 63.1856 29.6104 63.4924 29.2245 63.4924ZM29.2245 55.5757C28.8386 55.5757 28.5318 55.2689 28.5318 54.883V54.6554C28.5318 54.2694 28.8386 53.9627 29.2245 53.9627C29.6104 53.9627 29.9172 54.2694 29.9172 54.6554V54.883C29.9172 55.2689 29.6104 55.5757 29.2245 55.5757Z" fill="black"/>
<path d="M23.6927 63.4923C23.3068 63.4923 23 63.1856 23 62.7996V61.5132C23 61.1272 23.3068 60.8204 23.6927 60.8204C24.0786 60.8204 24.3854 61.1272 24.3854 61.5132V62.7996C24.3854 63.1856 24.0786 63.4923 23.6927 63.4923Z" fill="black"/>
<path d="M23.6927 59.1878C23.3068 59.1878 23 58.881 23 58.4951V55.4768C23 55.0909 23.3068 54.7841 23.6927 54.7841C24.0786 54.7841 24.3854 55.0909 24.3854 55.4768V58.4951C24.3854 58.881 24.0786 59.1878 23.6927 59.1878Z" fill="black"/>
<path d="M23.6927 53.1413C23.3068 53.1413 23 52.8345 23 52.4486V51.1621C23 50.7762 23.3068 50.4694 23.6927 50.4694C24.0786 50.4694 24.3854 50.7762 24.3854 51.1621V52.4486C24.3854 52.8345 24.0786 53.1413 23.6927 53.1413Z" fill="black"/>
<path d="M85.532 63.4923C85.1461 63.4923 84.8393 63.1856 84.8393 62.7996V61.5132C84.8393 61.1272 85.1461 60.8204 85.532 60.8204C85.9179 60.8204 86.2247 61.1272 86.2247 61.5132V62.7996C86.2247 63.1856 85.9179 63.4923 85.532 63.4923Z" fill="black"/>
<path d="M85.532 59.8308C85.1461 59.8308 84.8393 59.524 84.8393 59.1381V56.7631C84.8393 56.3771 85.1461 56.0703 85.532 56.0703C85.9179 56.0703 86.2247 56.3771 86.2247 56.7631V59.1381C86.2247 59.524 85.9179 59.8308 85.532 59.8308ZM85.532 55.0906C85.1461 55.0906 84.8393 54.7839 84.8393 54.3979V52.0229C84.8393 51.637 85.1461 51.3302 85.532 51.3302C85.9179 51.3302 86.2247 51.637 86.2247 52.0229V54.3979C86.2247 54.7839 85.9179 55.0906 85.532 55.0906Z" fill="black"/>
<path d="M85.532 50.3506C85.1461 50.3506 84.8393 50.0438 84.8393 49.6579V48.3714C84.8393 47.9855 85.1461 47.6787 85.532 47.6787C85.9179 47.6787 86.2247 47.9855 86.2247 48.3714V49.6579C86.2247 50.0438 85.9179 50.3506 85.532 50.3506Z" fill="black"/>
<path d="M79.7033 63.4924C79.3174 63.4924 79.0106 63.1856 79.0106 62.7997V58.8413C79.0106 58.4554 79.3174 58.1486 79.7033 58.1486C80.0893 58.1486 80.3961 58.4554 80.3961 58.8413V62.7997C80.3961 63.1856 80.0893 63.4924 79.7033 63.4924Z" fill="black"/>
<path d="M57.5267 77.7621C46.8392 77.7621 38.1407 69.0637 38.1407 58.3761C38.1407 47.6886 46.8392 39 57.5267 39C68.2142 39 76.9127 47.6985 76.9127 58.386C76.9127 69.0735 68.2142 77.772 57.5267 77.772V77.7621ZM57.5267 40.3854C47.6011 40.3854 39.5261 48.4605 39.5261 58.386C39.5261 68.3116 47.6011 76.3866 57.5267 76.3866C67.4523 76.3866 75.5273 68.3116 75.5273 58.386C75.5273 48.4605 67.4424 40.3854 57.5267 40.3854Z" fill="black"/>
<path d="M90.2622 87.7866C90.1138 87.7866 89.9653 87.7371 89.8367 87.6382L70.2726 72.3293C69.9757 72.0918 69.9163 71.6563 70.1538 71.3595C70.3913 71.0626 70.8267 71.0032 71.1236 71.2407L90.6878 86.5496C90.9846 86.7871 91.044 87.2225 90.8065 87.5194C90.668 87.6975 90.47 87.7866 90.2622 87.7866Z" fill="black"/>
<path d="M91.6378 63.4923C91.2518 63.4923 90.9451 63.1856 90.9451 62.7996V61.5132C90.9451 61.1272 91.2518 60.8204 91.6378 60.8204C92.0237 60.8204 92.3305 61.1272 92.3305 61.5132V62.7996C92.3305 63.1856 92.0237 63.4923 91.6378 63.4923Z" fill="black"/>
<path d="M91.6378 59.1878C91.2518 59.1878 90.9451 58.881 90.9451 58.4951V55.4768C90.9451 55.0909 91.2518 54.7841 91.6378 54.7841C92.0237 54.7841 92.3305 55.0909 92.3305 55.4768V58.4951C92.3305 58.881 92.0237 59.1878 91.6378 59.1878Z" fill="black"/>
<path d="M91.6378 53.1413C91.2518 53.1413 90.9451 52.8345 90.9451 52.4486V51.1621C90.9451 50.7762 91.2518 50.4694 91.6378 50.4694C92.0237 50.4694 92.3305 50.7762 92.3305 51.1621V52.4486C92.3305 52.8345 92.0237 53.1413 91.6378 53.1413Z" fill="black"/>
<defs>
<filter id="filter0_f_828_1266" x="-211.078" y="-97.3496" width="440.331" height="440.117" filterUnits="userSpaceOnUse" color-interpolation-filters="sRGB">
<feFlood flood-opacity="0" result="BackgroundImageFix"/>
<feBlend mode="normal" in="SourceGraphic" in2="BackgroundImageFix" result="shape"/>
<feGaussianBlur stdDeviation="58.7095" result="effect1_foregroundBlur_828_1266"/>
</filter>
<filter id="filter1_f_828_1266" x="-120.527" y="-108.531" width="346.398" height="346.256" filterUnits="userSpaceOnUse" color-interpolation-filters="sRGB">
<feFlood flood-opacity="0" result="BackgroundImageFix"/>
<feBlend mode="normal" in="SourceGraphic" in2="BackgroundImageFix" result="shape"/>
<feGaussianBlur stdDeviation="52.5347" result="effect1_foregroundBlur_828_1266"/>
</filter>
<filter id="filter2_f_828_1266" x="-22.1152" y="-118.498" width="281.562" height="281.181" filterUnits="userSpaceOnUse" color-interpolation-filters="sRGB">
<feFlood flood-opacity="0" result="BackgroundImageFix"/>
<feBlend mode="normal" in="SourceGraphic" in2="BackgroundImageFix" result="shape"/>
<feGaussianBlur stdDeviation="26.8532" result="effect1_foregroundBlur_828_1266"/>
</filter>
</defs>
</svg>
