<svg width="115" height="115" viewBox="0 0 115 115" fill="none" xmlns="http://www.w3.org/2000/svg">
<mask id="mask0_828_1588" style="mask-type:alpha" maskUnits="userSpaceOnUse" x="0" y="0" width="115" height="115">
<ellipse cx="57.5" cy="57.4401" rx="57.5" ry="57.4401" fill="#D9D9D9"/>
</mask>
<g mask="url(#mask0_828_1588)">
<ellipse cx="57.5" cy="57.4401" rx="57.5" ry="57.4401" fill="black"/>
<g filter="url(#filter0_f_828_1588)">
<ellipse cx="102.702" cy="102.649" rx="102.702" ry="102.649" transform="matrix(0.866251 -0.499609 0.500391 0.8658 -131.244 85.1466)" fill="#00FFF0"/>
</g>
<g filter="url(#filter1_f_828_1588)">
<path d="M111.664 30.5735C130.474 63.1199 119.311 104.737 86.731 123.528C54.1507 142.318 12.4904 131.167 -6.3199 98.6206C-25.1302 66.0742 -13.9673 24.4573 18.613 5.66659C51.1934 -13.1241 92.8537 -1.97287 111.664 30.5735Z" fill="#00F6FF"/>
</g>
<g filter="url(#filter2_f_828_1588)">
<ellipse cx="87.0871" cy="86.8421" rx="87.0871" ry="86.8421" transform="matrix(0.866251 -0.499609 0.500391 0.8658 -0.228516 -9.58533)" fill="#C3A6FF"/>
</g>
</g>
<path d="M85.5194 63.7636H72.7472C69.755 63.7636 67.3262 61.3348 67.3262 58.3426V45.9121C67.3262 42.9199 69.755 40.4911 72.7472 40.4911H85.5194C88.5116 40.4911 90.9404 42.9199 90.9404 45.9121V58.3426C90.9404 61.3348 88.5116 63.7636 85.5194 63.7636ZM72.7472 41.784C70.4753 41.784 68.619 43.6311 68.619 45.9121V58.3426C68.619 60.6145 70.4661 62.4707 72.7472 62.4707H85.5194C87.7912 62.4707 89.6475 60.6237 89.6475 58.3426V45.9121C89.6475 43.6403 87.8005 41.784 85.5194 41.784H72.7472Z" fill="black"/>
<path d="M88.1882 51.2316C88.0959 51.2316 88.0036 51.2131 87.9112 51.1669C87.5695 51.0099 87.1909 50.8529 86.7845 50.7144C86.4428 50.6036 86.2674 50.2342 86.3782 49.8925C86.489 49.5508 86.8676 49.3753 87.2001 49.4861C87.6618 49.6431 88.0867 49.8094 88.4653 49.9941C88.7885 50.1511 88.9271 50.5297 88.7701 50.8529C88.6592 51.0838 88.4284 51.2223 88.1882 51.2223V51.2316Z" fill="black"/>
<path d="M84.8083 50.1695C84.8083 50.1695 84.7252 50.1695 84.679 50.1603C83.9956 50.0218 83.2568 49.9109 82.4995 49.8186C82.1486 49.7817 81.89 49.4584 81.9269 49.1075C81.9639 48.7566 82.2963 48.498 82.638 48.5349C83.4322 48.6273 84.208 48.7381 84.9283 48.8859C85.2793 48.9597 85.5009 49.3014 85.4363 49.6524C85.3716 49.9571 85.1038 50.1695 84.799 50.1695H84.8083ZM73.5691 50.1695C73.2644 50.1695 72.9965 49.9571 72.9411 49.6524C72.8672 49.3014 73.0981 48.9597 73.4491 48.8859C74.1694 48.7381 74.9359 48.618 75.7394 48.5349C76.0903 48.498 76.4136 48.7473 76.4505 49.1075C76.4874 49.4584 76.2381 49.7817 75.8779 49.8186C75.1114 49.9017 74.3818 50.0125 73.7076 50.1511C73.6615 50.1511 73.6245 50.1603 73.5783 50.1603L73.5691 50.1695ZM78.0574 49.6616C77.7065 49.6616 77.4202 49.3845 77.4109 49.0428C77.4017 48.6827 77.6787 48.3872 78.0297 48.3779C78.7869 48.3502 79.5719 48.3502 80.3385 48.3779C80.6986 48.3872 80.9757 48.6919 80.9572 49.0428C80.948 49.403 80.6709 49.6893 80.2923 49.6616C79.5627 49.6339 78.8054 49.6339 78.0758 49.6616C78.0758 49.6616 78.0574 49.6616 78.0482 49.6616H78.0574Z" fill="black"/>
<path d="M70.1798 51.2316C69.9396 51.2316 69.7088 51.093 69.5979 50.8622C69.4409 50.5389 69.5795 50.151 69.9027 50.0033C70.2814 49.8186 70.7062 49.6523 71.1679 49.4953C71.5004 49.3753 71.8698 49.56 71.9899 49.9017C72.1007 50.2434 71.9252 50.6036 71.5835 50.7236C71.1679 50.8622 70.7893 51.0192 70.4568 51.1761C70.3644 51.2223 70.2721 51.2408 70.1798 51.2408V51.2316Z" fill="black"/>
<path d="M86.9877 56.1816C86.7199 56.1816 86.4706 56.0154 86.3782 55.7475C86.2674 55.4058 86.4428 55.0457 86.7845 54.9256C87.1909 54.7871 87.5787 54.6301 87.9112 54.4731C88.2344 54.3161 88.6223 54.4546 88.7701 54.7778C88.9271 55.1011 88.7885 55.489 88.4653 55.6367C88.0774 55.8214 87.6526 55.9877 87.2001 56.1447C87.1354 56.1724 87.0616 56.1816 86.9877 56.1816Z" fill="black"/>
<path d="M79.1841 57.2806C78.8516 57.2806 78.5284 57.2806 78.2051 57.2621C77.845 57.2529 77.5679 56.9574 77.5772 56.5972C77.5864 56.2463 77.8727 55.9692 78.2236 55.9692C78.2236 55.9692 78.2329 55.9692 78.2421 55.9692C78.9532 55.9877 79.7012 55.9877 80.4123 55.96C80.7633 55.9138 81.068 56.2278 81.0865 56.5787C81.105 56.9389 80.8187 57.2344 80.4678 57.2529C80.0429 57.2714 79.6181 57.2806 79.1841 57.2806ZM76.0072 57.1236C76.0072 57.1236 75.961 57.1236 75.9425 57.1236C75.1668 57.0405 74.4095 56.9297 73.6891 56.8004C73.3382 56.7357 73.1073 56.394 73.172 56.0431C73.2366 55.6922 73.5783 55.4613 73.9293 55.5259C74.6127 55.6552 75.333 55.7568 76.0718 55.8307C76.4228 55.8676 76.6906 56.1816 76.6444 56.5418C76.6075 56.8742 76.3304 57.1236 75.9979 57.1236H76.0072ZM82.6472 57.0867C82.324 57.0867 82.0469 56.8465 82.01 56.5141C81.9731 56.1631 82.2224 55.8399 82.5826 55.803C83.3306 55.7199 84.051 55.609 84.7159 55.4705C85.0668 55.3966 85.4086 55.6275 85.4824 55.9692C85.5563 56.3201 85.3255 56.6618 84.9838 56.7357C84.2726 56.8835 83.5246 57.0035 82.7396 57.0867C82.7119 57.0867 82.6934 57.0867 82.6657 57.0867H82.6472Z" fill="black"/>
<path d="M71.6482 56.2647C71.5835 56.2647 71.5189 56.2555 71.4542 56.237C71.0017 56.0893 70.5676 55.9322 70.1798 55.7568C69.8565 55.609 69.7088 55.2304 69.8473 54.9072C69.9951 54.5747 70.3737 54.4269 70.6969 54.5747C71.0479 54.7317 71.4265 54.8702 71.8421 54.9995C72.1838 55.1103 72.3685 55.4705 72.2577 55.8122C72.1653 56.0893 71.916 56.2647 71.6389 56.2647H71.6482Z" fill="black"/>
<path d="M83.8755 41.784C83.5153 41.784 83.229 41.4978 83.229 41.1376V30.6465C83.229 30.2863 83.5153 30 83.8755 30C84.2357 30 84.522 30.2863 84.522 30.6465V41.1376C84.522 41.4978 84.2357 41.784 83.8755 41.784ZM74.4002 41.784C74.0401 41.784 73.7538 41.4978 73.7538 41.1376V30.6465C73.7538 30.2863 74.0401 30 74.4002 30C74.7604 30 75.0467 30.2863 75.0467 30.6465V41.1376C75.0467 41.4978 74.7604 41.784 74.4002 41.784Z" fill="black"/>
<path d="M33.6179 63.6251C33.4978 63.6251 33.3778 63.5882 33.267 63.5236C31.3276 62.286 30.0347 60.633 29.9793 60.5591C29.7207 60.2728 23.136 52.5892 25.5187 38.7826C25.5741 38.4409 25.8973 38.2008 26.2482 38.2562C30.912 38.9027 34.9016 40.2418 38.0969 42.2181C38.4017 42.4028 38.494 42.7999 38.3093 43.1047C38.1246 43.4094 37.7275 43.5018 37.4228 43.3171C34.5229 41.5162 30.9213 40.2787 26.7008 39.623C24.7337 52.4045 30.9212 59.6633 30.9859 59.7372C31.0228 59.7833 32.2234 61.3164 33.9688 62.4338C34.2736 62.6278 34.3567 63.0249 34.1627 63.3296C34.0427 63.5236 33.8303 63.6251 33.6179 63.6251Z" fill="black"/>
<path d="M40.5535 66.2387C39.2421 66.2387 37.8106 65.9616 36.2314 65.2874C27.2549 61.4549 30.7827 52.0073 30.9951 51.4717C33.3962 44.5084 39.2421 39.3737 48.3664 36.1968C48.6989 36.0767 49.0683 36.2522 49.1883 36.5939C54.6463 52.0443 50.315 59.3954 50.1211 59.7002C50.1119 59.7371 46.8796 66.2387 40.5535 66.2387ZM48.1817 37.6375C39.7962 40.685 34.4306 45.4873 32.2142 51.9057C32.2142 51.915 32.2141 51.9334 32.2049 51.9427C32.0571 52.2936 28.7417 60.6883 36.7486 64.1053C44.7831 67.5316 48.8281 59.4324 48.9944 59.0907C49.0683 58.9706 53.0855 52.035 48.1817 37.6467V37.6375Z" fill="black"/>
<path d="M37.9769 48.2394C37.9769 48.2394 37.9307 48.2394 37.9122 48.2394C37.4874 48.2025 37.0811 48.184 36.6932 48.184C36.3422 48.184 36.0468 47.8977 36.0468 47.5375C36.0468 47.1774 36.333 46.8911 36.6932 46.8819C37.1272 46.8819 37.5798 46.9003 38.0508 46.9465C38.4017 46.9834 38.6695 47.2974 38.6326 47.6484C38.5956 47.9808 38.3186 48.2302 37.9861 48.2302L37.9769 48.2394Z" fill="black"/>
<path d="M45.8636 50.8991C45.7528 50.8991 45.642 50.8714 45.5404 50.8068C44.9678 50.4743 44.3675 50.1603 43.7395 49.8833C43.4163 49.7355 43.2685 49.3569 43.4163 49.0244C43.5641 48.7012 43.9519 48.5534 44.2752 48.7012C44.9401 49.0059 45.5866 49.3384 46.1961 49.6893C46.5008 49.8648 46.6117 50.2619 46.427 50.5759C46.3069 50.7791 46.0945 50.8991 45.8636 50.8991ZM42.0587 49.1722C41.9848 49.1722 41.9202 49.1629 41.8463 49.1352C41.1906 48.9136 40.5349 48.7196 39.8977 48.5719C39.5468 48.4888 39.3343 48.1471 39.4082 47.7961C39.4913 47.4452 39.8423 47.2328 40.184 47.3067C40.8674 47.4637 41.56 47.6668 42.2619 47.9069C42.6036 48.0178 42.7791 48.3872 42.6683 48.7289C42.5759 48.9967 42.3265 49.1629 42.0587 49.1629V49.1722Z" fill="black"/>
<path d="M48.5972 52.8847C48.4402 52.8847 48.2832 52.8293 48.1539 52.7092C47.8676 52.4414 47.5536 52.1736 47.2119 51.9242C46.9256 51.7118 46.8702 51.3055 47.0919 51.0192C47.3043 50.7329 47.7107 50.6775 47.9969 50.8991C48.3663 51.1762 48.7173 51.4717 49.0405 51.7672C49.2991 52.0074 49.3176 52.4229 49.0774 52.6815C48.9481 52.8201 48.7727 52.8847 48.6064 52.8847H48.5972Z" fill="black"/>
<path d="M35.114 54.2884C34.9663 54.2884 34.8185 54.2423 34.6984 54.1314C34.329 53.8174 33.9966 53.5035 33.7103 53.1987C33.4702 52.9401 33.4794 52.5245 33.738 52.2844C33.9966 52.0443 34.4029 52.0535 34.6523 52.3121C34.9108 52.5892 35.2063 52.8662 35.5388 53.1433C35.8066 53.3742 35.8436 53.7805 35.6127 54.0576C35.4834 54.2053 35.2987 54.2884 35.1233 54.2884H35.114Z" fill="black"/>
<path d="M43.4718 58.2595C43.4718 58.2595 43.3794 58.2595 43.3332 58.241C42.5667 58.0748 41.791 57.8532 41.0152 57.5854C40.6735 57.4653 40.498 57.1051 40.6181 56.7634C40.7289 56.4217 41.0983 56.2463 41.44 56.3663C42.1696 56.6157 42.8992 56.8188 43.6103 56.9758C43.9612 57.0497 44.1829 57.3914 44.109 57.7424C44.0443 58.0471 43.7765 58.2503 43.481 58.2503L43.4718 58.2595ZM39.0666 56.7542C38.9742 56.7542 38.8819 56.7357 38.7895 56.6896C38.0415 56.3386 37.3304 55.96 36.6747 55.5536C36.3699 55.3689 36.2776 54.9718 36.4623 54.6671C36.647 54.3623 37.0441 54.2699 37.3489 54.4546C37.9676 54.8333 38.6326 55.1934 39.3344 55.5259C39.6577 55.6737 39.7962 56.0616 39.6484 56.3848C39.5376 56.6157 39.3067 56.7542 39.0666 56.7542Z" fill="black"/>
<path d="M46.5287 58.6105C46.2793 58.6105 46.0207 58.6105 45.7529 58.5828C45.3927 58.5643 45.1249 58.2503 45.1526 57.8994C45.1711 57.5392 45.4943 57.2714 45.836 57.2991C46.2608 57.3268 46.6672 57.3268 47.0458 57.2991C47.3968 57.2991 47.7108 57.5484 47.7292 57.9086C47.7477 58.2688 47.4799 58.5735 47.1197 58.592C46.9258 58.6013 46.7318 58.6105 46.5287 58.6105Z" fill="black"/>
<path d="M75.139 85.4201H42.8807C39.6669 85.4201 37.0534 82.8065 37.0534 79.5927V65.4906C37.0534 65.1305 37.3397 64.8442 37.6998 64.8442C38.06 64.8442 38.3463 65.1305 38.3463 65.4906V79.5927C38.3463 82.0954 40.378 84.1271 42.8807 84.1271H75.139C77.6418 84.1271 79.6735 82.0954 79.6735 79.5927V64.1423C79.6735 63.7821 79.9598 63.4958 80.32 63.4958C80.6802 63.4958 80.9664 63.7821 80.9664 64.1423V79.5927C80.9664 82.8065 78.3529 85.4201 75.139 85.4201Z" fill="black"/>
<defs>
<filter id="filter0_f_828_1588" x="-211.078" y="-97.3495" width="440.331" height="440.117" filterUnits="userSpaceOnUse" color-interpolation-filters="sRGB">
<feFlood flood-opacity="0" result="BackgroundImageFix"/>
<feBlend mode="normal" in="SourceGraphic" in2="BackgroundImageFix" result="shape"/>
<feGaussianBlur stdDeviation="58.7095" result="effect1_foregroundBlur_828_1588"/>
</filter>
<filter id="filter1_f_828_1588" x="-120.527" y="-108.531" width="346.398" height="346.256" filterUnits="userSpaceOnUse" color-interpolation-filters="sRGB">
<feFlood flood-opacity="0" result="BackgroundImageFix"/>
<feBlend mode="normal" in="SourceGraphic" in2="BackgroundImageFix" result="shape"/>
<feGaussianBlur stdDeviation="52.5347" result="effect1_foregroundBlur_828_1588"/>
</filter>
<filter id="filter2_f_828_1588" x="-22.1152" y="-118.497" width="281.562" height="281.181" filterUnits="userSpaceOnUse" color-interpolation-filters="sRGB">
<feFlood flood-opacity="0" result="BackgroundImageFix"/>
<feBlend mode="normal" in="SourceGraphic" in2="BackgroundImageFix" result="shape"/>
<feGaussianBlur stdDeviation="26.8532" result="effect1_foregroundBlur_828_1588"/>
</filter>
</defs>
</svg>
