<svg width="115" height="115" viewBox="0 0 115 115" fill="none" xmlns="http://www.w3.org/2000/svg">
<mask id="mask0_828_1570" style="mask-type:alpha" maskUnits="userSpaceOnUse" x="0" y="0" width="115" height="115">
<ellipse cx="57.5" cy="57.4401" rx="57.5" ry="57.4401" fill="#D9D9D9"/>
</mask>
<g mask="url(#mask0_828_1570)">
<ellipse cx="57.5" cy="57.4401" rx="57.5" ry="57.4401" fill="black"/>
<g filter="url(#filter0_f_828_1570)">
<ellipse cx="102.702" cy="102.649" rx="102.702" ry="102.649" transform="matrix(0.866251 -0.499609 0.500391 0.8658 -131.244 85.1466)" fill="#00FFF0"/>
</g>
<g filter="url(#filter1_f_828_1570)">
<path d="M111.664 30.5735C130.474 63.1199 119.311 104.737 86.731 123.528C54.1507 142.318 12.4904 131.167 -6.3199 98.6206C-25.1302 66.0742 -13.9673 24.4573 18.613 5.66659C51.1934 -13.1241 92.8537 -1.97287 111.664 30.5735Z" fill="#00F6FF"/>
</g>
<g filter="url(#filter2_f_828_1570)">
<ellipse cx="87.0871" cy="86.8421" rx="87.0871" ry="86.8421" transform="matrix(0.866251 -0.499609 0.500391 0.8658 -0.228516 -9.58533)" fill="#C3A6FF"/>
</g>
</g>
<path d="M81.0322 73.1001H28.826C27.2744 73.1001 26 71.8349 26 70.2742V39.826C26 38.2652 27.2652 37 28.826 37H81.0322C82.5837 37 83.8581 38.2652 83.8581 39.826V70.2834C83.8581 71.8349 82.5929 73.1094 81.0322 73.1094V73.1001ZM28.826 38.2929C27.9856 38.2929 27.2929 38.9763 27.2929 39.826V70.2834C27.2929 71.1238 27.9763 71.8072 28.826 71.8072H81.0322C81.8726 71.8072 82.5652 71.1238 82.5652 70.2834V39.826C82.5652 38.9856 81.8818 38.2929 81.0322 38.2929H28.826Z" fill="black"/>
<path d="M75.5188 67.3005H59.2742C57.7227 67.3005 56.4482 66.0353 56.4482 64.4745C56.4482 62.9138 57.7134 61.6486 59.2742 61.6486H75.5188C77.0703 61.6486 78.3447 62.9138 78.3447 64.4745C78.3447 66.0353 77.0795 67.3005 75.5188 67.3005ZM59.2742 62.9507C58.4338 62.9507 57.7411 63.6341 57.7411 64.4838C57.7411 65.3334 58.4245 66.0168 59.2742 66.0168H75.5188C76.3592 66.0168 77.0518 65.3334 77.0518 64.4838C77.0518 63.6341 76.3684 62.9507 75.5188 62.9507H59.2742Z" fill="black"/>
<path d="M82.9161 45.3947H26.6465C26.2863 45.3947 26 45.1084 26 44.7483C26 44.3881 26.2863 44.1018 26.6465 44.1018H82.9161C83.2763 44.1018 83.5626 44.3881 83.5626 44.7483C83.5626 45.1084 83.2763 45.3947 82.9161 45.3947Z" fill="black"/>
<path d="M82.9161 50.9081H26.6465C26.2863 50.9081 26 50.6218 26 50.2616C26 49.9015 26.2863 49.6152 26.6465 49.6152H82.9161C83.2763 49.6152 83.5626 49.9015 83.5626 50.2616C83.5626 50.6218 83.2763 50.9081 82.9161 50.9081Z" fill="black"/>
<path d="M29.0384 74.2361C28.8537 74.2361 28.669 74.1529 28.5397 73.9959L27.5977 72.86C27.3668 72.583 27.413 72.1766 27.69 71.9457C27.9671 71.7149 28.3734 71.761 28.6043 72.0381L29.5463 73.174C29.7772 73.4511 29.731 73.8574 29.454 74.0883C29.3339 74.1899 29.1861 74.2361 29.0476 74.2361H29.0384Z" fill="black"/>
<path d="M33.6375 78.0317H32.1599C31.9659 78.0317 31.7812 77.9486 31.6612 77.7916L30.7192 76.6464C30.4883 76.3694 30.5345 75.963 30.8115 75.7321C31.0886 75.5012 31.4949 75.5474 31.7258 75.8245L32.4738 76.7295H33.6467C34.0069 76.7295 34.2932 77.0158 34.2932 77.376C34.2932 77.7362 34.0069 78.0224 33.6467 78.0224L33.6375 78.0317Z" fill="black"/>
<path d="M80.6258 78.0317H77.689C77.3289 78.0317 77.0426 77.7454 77.0426 77.3852C77.0426 77.0251 77.3289 76.7388 77.689 76.7388H80.6258C80.986 76.7388 81.2723 77.0251 81.2723 77.3852C81.2723 77.7454 80.986 78.0317 80.6258 78.0317ZM74.7523 78.0317H71.8155C71.4553 78.0317 71.169 77.7454 71.169 77.3852C71.169 77.0251 71.4553 76.7388 71.8155 76.7388H74.7523C75.1124 76.7388 75.3987 77.0251 75.3987 77.3852C75.3987 77.7454 75.1124 78.0317 74.7523 78.0317ZM68.8787 78.0317H65.942C65.5818 78.0317 65.2955 77.7454 65.2955 77.3852C65.2955 77.0251 65.5818 76.7388 65.942 76.7388H68.8787C69.2389 76.7388 69.5252 77.0251 69.5252 77.3852C69.5252 77.7454 69.2389 78.0317 68.8787 78.0317ZM63.0052 78.0317H60.0684C59.7082 78.0317 59.4219 77.7454 59.4219 77.3852C59.4219 77.0251 59.7082 76.7388 60.0684 76.7388H63.0052C63.3653 76.7388 63.6516 77.0251 63.6516 77.3852C63.6516 77.7454 63.3653 78.0317 63.0052 78.0317ZM57.1316 78.0317H54.1949C53.8347 78.0317 53.5484 77.7454 53.5484 77.3852C53.5484 77.0251 53.8347 76.7388 54.1949 76.7388H57.1316C57.4918 76.7388 57.7781 77.0251 57.7781 77.3852C57.7781 77.7454 57.4918 78.0317 57.1316 78.0317ZM51.2581 78.0317H48.3213C47.9611 78.0317 47.6749 77.7454 47.6749 77.3852C47.6749 77.0251 47.9611 76.7388 48.3213 76.7388H51.2581C51.6183 76.7388 51.9045 77.0251 51.9045 77.3852C51.9045 77.7454 51.6183 78.0317 51.2581 78.0317ZM45.3845 78.0317H42.4478C42.0876 78.0317 41.8013 77.7454 41.8013 77.3852C41.8013 77.0251 42.0876 76.7388 42.4478 76.7388H45.3845C45.7447 76.7388 46.031 77.0251 46.031 77.3852C46.031 77.7454 45.7447 78.0317 45.3845 78.0317ZM39.511 78.0317H36.5742C36.2141 78.0317 35.9278 77.7454 35.9278 77.3852C35.9278 77.0251 36.2141 76.7388 36.5742 76.7388H39.511C39.8712 76.7388 40.1575 77.0251 40.1575 77.3852C40.1575 77.7454 39.8712 78.0317 39.511 78.0317ZM83.5626 78.0132C83.2394 78.0132 82.9623 77.7731 82.9254 77.4407C82.8884 77.0897 83.1378 76.7665 83.4979 76.7295C84.3291 76.6372 85.2157 76.277 85.8621 75.7691C86.1392 75.5475 86.5455 75.5936 86.7672 75.8799C86.9888 76.157 86.9426 76.5633 86.6564 76.785C85.465 77.7177 84.1536 77.9578 83.6365 78.0132C83.6088 78.0132 83.5903 78.0132 83.5626 78.0132ZM87.82 74.5039C87.7646 74.5039 87.7092 74.5039 87.663 74.4854C87.312 74.3931 87.1089 74.0421 87.192 73.7004C87.2936 73.3125 87.3398 72.897 87.3398 72.4537V70.9299C87.3398 70.5697 87.626 70.2834 87.9862 70.2834C88.3464 70.2834 88.6327 70.5697 88.6327 70.9299V72.4537C88.6327 72.9986 88.568 73.525 88.448 74.0144C88.3741 74.3099 88.1063 74.5039 87.82 74.5039ZM87.9862 68.6396C87.626 68.6396 87.3398 68.3533 87.3398 67.9931V65.0563C87.3398 64.6962 87.626 64.4099 87.9862 64.4099C88.3464 64.4099 88.6327 64.6962 88.6327 65.0563V67.9931C88.6327 68.3533 88.3464 68.6396 87.9862 68.6396ZM87.9862 62.7568C87.626 62.7568 87.3398 62.4705 87.3398 62.1103V59.1736C87.3398 58.8134 87.626 58.5271 87.9862 58.5271C88.3464 58.5271 88.6327 58.8134 88.6327 59.1736V62.1103C88.6327 62.4705 88.3464 62.7568 87.9862 62.7568ZM87.9862 56.874C87.626 56.874 87.3398 56.5877 87.3398 56.2276V53.2908C87.3398 52.9306 87.626 52.6443 87.9862 52.6443C88.3464 52.6443 88.6327 52.9306 88.6327 53.2908V56.2276C88.6327 56.5877 88.3464 56.874 87.9862 56.874ZM87.9862 50.9912C87.626 50.9912 87.3398 50.7049 87.3398 50.3448V47.408C87.3398 47.0478 87.626 46.7615 87.9862 46.7615C88.3464 46.7615 88.6327 47.0478 88.6327 47.408V50.3448C88.6327 50.7049 88.3464 50.9912 87.9862 50.9912Z" fill="black"/>
<path d="M87.9862 45.1362C87.626 45.1362 87.3397 44.8499 87.3397 44.4897V43.2984L86.4532 42.5041C86.1854 42.264 86.1669 41.8577 86.3978 41.5899C86.6379 41.322 87.0442 41.3036 87.312 41.5345L88.411 42.5134C88.5496 42.6334 88.6234 42.8089 88.6234 42.9936V44.4712C88.6234 44.8314 88.3371 45.1177 87.977 45.1177L87.9862 45.1362Z" fill="black"/>
<path d="M84.3014 40.3708C84.1444 40.3708 83.9966 40.3154 83.8673 40.2046L82.7684 39.2257C82.5005 38.9856 82.4821 38.5792 82.713 38.3114C82.9531 38.0436 83.3594 38.0159 83.6272 38.256L84.7262 39.2349C84.994 39.475 85.0125 39.8814 84.7816 40.1492C84.6523 40.2969 84.4769 40.3616 84.3014 40.3616V40.3708Z" fill="black"/>
<defs>
<filter id="filter0_f_828_1570" x="-211.078" y="-97.3495" width="440.331" height="440.117" filterUnits="userSpaceOnUse" color-interpolation-filters="sRGB">
<feFlood flood-opacity="0" result="BackgroundImageFix"/>
<feBlend mode="normal" in="SourceGraphic" in2="BackgroundImageFix" result="shape"/>
<feGaussianBlur stdDeviation="58.7095" result="effect1_foregroundBlur_828_1570"/>
</filter>
<filter id="filter1_f_828_1570" x="-120.527" y="-108.531" width="346.398" height="346.256" filterUnits="userSpaceOnUse" color-interpolation-filters="sRGB">
<feFlood flood-opacity="0" result="BackgroundImageFix"/>
<feBlend mode="normal" in="SourceGraphic" in2="BackgroundImageFix" result="shape"/>
<feGaussianBlur stdDeviation="52.5347" result="effect1_foregroundBlur_828_1570"/>
</filter>
<filter id="filter2_f_828_1570" x="-22.1152" y="-118.497" width="281.562" height="281.181" filterUnits="userSpaceOnUse" color-interpolation-filters="sRGB">
<feFlood flood-opacity="0" result="BackgroundImageFix"/>
<feBlend mode="normal" in="SourceGraphic" in2="BackgroundImageFix" result="shape"/>
<feGaussianBlur stdDeviation="26.8532" result="effect1_foregroundBlur_828_1570"/>
</filter>
</defs>
</svg>
