<svg width="115" height="115" viewBox="0 0 115 115" fill="none" xmlns="http://www.w3.org/2000/svg">
<mask id="mask0_828_1544" style="mask-type:alpha" maskUnits="userSpaceOnUse" x="0" y="0" width="115" height="115">
<ellipse cx="57.5" cy="57.4401" rx="57.5" ry="57.4401" fill="#D9D9D9"/>
</mask>
<g mask="url(#mask0_828_1544)">
<ellipse cx="57.5" cy="57.4401" rx="57.5" ry="57.4401" fill="black"/>
<g filter="url(#filter0_f_828_1544)">
<ellipse cx="102.702" cy="102.649" rx="102.702" ry="102.649" transform="matrix(0.866251 -0.499609 0.500391 0.8658 -131.244 85.1466)" fill="#00FFF0"/>
</g>
<g filter="url(#filter1_f_828_1544)">
<path d="M111.664 30.5735C130.474 63.1199 119.311 104.737 86.731 123.528C54.1507 142.318 12.4904 131.167 -6.3199 98.6206C-25.1302 66.0742 -13.9673 24.4573 18.613 5.66658C51.1934 -13.1241 92.8537 -1.97288 111.664 30.5735Z" fill="#00F6FF"/>
</g>
<g filter="url(#filter2_f_828_1544)">
<ellipse cx="87.0871" cy="86.8421" rx="87.0871" ry="86.8421" transform="matrix(0.866251 -0.499609 0.500391 0.8658 -0.228516 -9.58533)" fill="#C3A6FF"/>
</g>
</g>
<path d="M88.8862 75.4594C88.4521 67.9789 85.4507 60.5816 82.791 56.1579C80.4637 52.2976 77.5085 48.2804 73.2049 47.8001C70.7576 47.5231 68.6243 47.9756 66.1493 48.4928C64.0344 48.936 61.6425 49.4347 58.6873 49.5086V44.7156C58.6873 43.3026 59.8417 42.1482 61.2547 42.1482H66.0754C68.2087 42.1482 69.9357 40.412 69.9357 38.2879C69.9357 36.1639 68.1995 34.4277 66.0754 34.4277H47.2265C45.8135 34.4277 44.6591 33.2733 44.6591 31.8603C44.6591 30.4473 45.8135 29.2929 47.2265 29.2929H73.916C74.2762 29.2929 74.5625 29.0066 74.5625 28.6465C74.5625 28.2863 74.2762 28 73.916 28H47.2265C45.0932 28 43.3662 29.7362 43.3662 31.8603C43.3662 33.9844 45.1024 35.7206 47.2265 35.7206H66.0754C67.4976 35.7206 68.6428 36.875 68.6428 38.2879C68.6428 39.7009 67.4884 40.8553 66.0754 40.8553H61.2547C59.1213 40.8553 57.3944 42.5915 57.3944 44.7156V49.5086C54.3745 49.4532 51.9456 48.9453 49.7939 48.4928C47.3281 47.9756 45.1855 47.5231 42.7382 47.8001C38.4254 48.2804 35.4702 52.2976 33.1522 56.1579C30.4832 60.5816 27.4818 67.9789 27.0477 75.4594C26.9184 77.6388 26.8815 82.9952 29.2826 85.6457C30.1046 86.5507 31.1112 87.0402 32.2841 87.0864C32.321 87.0864 32.3672 87.0864 32.4041 87.0864C35.0176 87.0864 38.0098 83.5863 40.9097 80.197C42.6182 78.193 44.2343 76.309 45.4441 75.5609C46.58 74.8591 51.8902 73.5477 57.967 73.5477C64.0437 73.5477 69.3446 74.8591 70.4898 75.5609C71.6996 76.309 73.3157 78.2022 75.0242 80.197C77.9148 83.5863 80.907 87.0864 83.5298 87.0864C83.5667 87.0864 83.6129 87.0864 83.6499 87.0864C84.8227 87.0402 85.8386 86.5507 86.6513 85.6457C89.0432 82.9952 89.0062 77.6388 88.8862 75.4594ZM85.6908 84.7776C85.0998 85.4241 84.4164 85.7565 83.5944 85.7935C83.5667 85.7935 83.5483 85.7935 83.5206 85.7935C81.4981 85.7935 78.4597 82.2287 76.0032 79.3566C74.23 77.2787 72.5492 75.3116 71.164 74.4527C69.7048 73.5477 64.1637 72.2455 57.967 72.2455C51.7702 72.2455 46.2291 73.5477 44.7699 74.4527C43.3847 75.3116 41.7039 77.2694 39.9307 79.3473C37.4742 82.2195 34.4266 85.7842 32.4133 85.7842C32.3856 85.7842 32.3672 85.7842 32.3395 85.7842C31.5083 85.7473 30.8249 85.4148 30.2339 84.7684C28.8024 83.1799 28.0913 79.726 28.3314 75.524C28.7562 68.2744 31.6653 61.108 34.2419 56.8136C37.308 51.7251 39.8846 49.407 42.8675 49.0746C43.32 49.0192 43.7726 49.0007 44.2158 49.0007C45.952 49.0007 47.6328 49.3516 49.5076 49.7487C51.8533 50.2474 54.5222 50.8015 57.9577 50.8015C57.9762 50.8015 57.9947 50.8015 58.0224 50.8015C61.4209 50.8015 64.0621 50.2382 66.3986 49.7487C68.7628 49.25 70.7946 48.8252 73.0387 49.0746C76.0216 49.407 78.5982 51.7251 81.6643 56.8136C84.2501 61.108 87.1592 68.2744 87.5748 75.524C87.8241 79.726 87.113 83.1799 85.6724 84.7684L85.6908 84.7776ZM33.5123 66.3443C33.5585 65.9933 33.2999 65.6701 32.949 65.6239C32.1825 65.5316 31.693 65.5316 31.6745 65.5316C31.3144 65.5316 31.0281 65.8179 31.0281 66.178C31.0281 66.5382 31.3144 66.8245 31.6745 66.8245C31.6745 66.8245 32.1086 66.8245 32.792 66.9076C32.8197 66.9076 32.8474 66.9076 32.8751 66.9076C33.1983 66.9076 33.4754 66.6675 33.5123 66.335V66.3443ZM40.0877 68.3575C39.8014 68.1451 39.3951 68.2005 39.1827 68.4868C38.9703 68.7731 39.0257 69.1795 39.312 69.3919C39.9215 69.8444 40.5126 70.3708 41.0667 70.9526C41.196 71.0819 41.3622 71.1558 41.5377 71.1558C41.6947 71.1558 41.8609 71.1004 41.9809 70.9803C42.2395 70.731 42.2488 70.3246 41.9994 70.066C41.3899 69.4288 40.7434 68.8562 40.0785 68.3575H40.0877ZM37.8713 67.0277C37.1233 66.6675 36.3106 66.372 35.4609 66.1319C35.11 66.0303 34.7591 66.2335 34.6667 66.5752C34.5744 66.9169 34.7683 67.277 35.11 67.3694C35.8858 67.591 36.6338 67.8681 37.3172 68.1913C37.4095 68.2375 37.5019 68.2559 37.5943 68.2559C37.8344 68.2559 38.0652 68.1174 38.1761 67.8865C38.3331 67.5633 38.1945 67.1754 37.8713 67.0277ZM43.634 72.0701C43.4309 71.7745 43.0245 71.7099 42.7382 71.9038C42.4427 72.107 42.3688 72.5133 42.572 72.7996C42.9691 73.363 43.1723 73.7416 43.1723 73.7509C43.2923 73.9725 43.514 74.0926 43.7448 74.0926C43.8464 74.0926 43.948 74.0648 44.0496 74.0187C44.3636 73.8524 44.4837 73.4553 44.3174 73.1413C44.3082 73.1229 44.0773 72.698 43.6433 72.0608L43.634 72.0701ZM40.7157 74.4343C40.7157 74.4343 40.1062 74.4343 39.2104 74.2773C38.8687 74.2218 38.527 74.4527 38.4624 74.8037C38.4069 75.1546 38.6378 75.4871 38.9888 75.5517C40.0231 75.7272 40.6788 75.7179 40.7065 75.7272C41.0667 75.7272 41.353 75.4409 41.353 75.0807C41.353 74.7205 41.0667 74.4343 40.7065 74.4343H40.7157ZM36.4399 73.483C35.9966 73.2891 35.5625 73.0767 35.1654 72.8366C34.7683 72.5965 34.3712 72.3194 34.0018 72.0146C33.7247 71.793 33.3184 71.8299 33.0875 72.107C32.8659 72.3841 32.9028 72.7904 33.1799 73.0213C33.6047 73.363 34.048 73.677 34.5005 73.9448C34.953 74.2126 35.4332 74.462 35.9412 74.6744C36.0243 74.7113 36.1074 74.7298 36.1905 74.7298C36.4399 74.7298 36.68 74.582 36.7816 74.3327C36.9201 74.0002 36.7631 73.6216 36.4399 73.483ZM31.1481 68.6715C30.9819 68.3575 30.5848 68.2375 30.2708 68.4037C29.9568 68.5699 29.8367 68.9578 30.003 69.281C30.0122 69.3088 30.3354 69.8998 30.9542 70.7125C31.0835 70.8787 31.2774 70.9711 31.4714 70.9711C31.6099 70.9711 31.7484 70.9249 31.8592 70.8418C32.1455 70.6294 32.2009 70.223 31.9793 69.9367C31.4344 69.2164 31.1481 68.69 31.1389 68.6808L31.1481 68.6715ZM74.1561 59.8704C74.1561 57.4693 72.2075 55.5207 69.8064 55.5207C67.4053 55.5207 65.4566 57.4693 65.4566 59.8704C65.4566 62.2716 67.4053 64.2202 69.8064 64.2202C72.2075 64.2202 74.1561 62.2716 74.1561 59.8704ZM69.8064 62.9273C68.1164 62.9273 66.7496 61.5512 66.7496 59.8704C66.7496 58.1897 68.1256 56.8136 69.8064 56.8136C71.4872 56.8136 72.8632 58.1897 72.8632 59.8704C72.8632 61.5512 71.4872 62.9273 69.8064 62.9273ZM50.1817 58.9562H46.8571V55.6315C46.8571 55.2713 46.5708 54.9851 46.2106 54.9851C45.8505 54.9851 45.5642 55.2713 45.5642 55.6315V58.9562H42.2395C41.8794 58.9562 41.5931 59.2425 41.5931 59.6026C41.5931 59.9628 41.8794 60.2491 42.2395 60.2491H45.5642V63.5737C45.5642 63.9339 45.8505 64.2202 46.2106 64.2202C46.5708 64.2202 46.8571 63.9339 46.8571 63.5737V60.2491H50.1817C50.5419 60.2491 50.8282 59.9628 50.8282 59.6026C50.8282 59.2425 50.5419 58.9562 50.1817 58.9562ZM84.8966 66.1873C84.8966 65.8271 84.6103 65.5408 84.2501 65.5408C84.2317 65.5408 83.7422 65.5408 82.9757 65.6332C82.6248 65.6793 82.3662 66.0026 82.4123 66.3535C82.4493 66.6767 82.7356 66.9261 83.0496 66.9261C83.0773 66.9261 83.105 66.9261 83.1327 66.9261C83.8161 66.843 84.2409 66.843 84.2501 66.843C84.6103 66.843 84.8966 66.5567 84.8966 66.1965V66.1873ZM81.2672 66.5844C81.1748 66.2427 80.8147 66.0395 80.473 66.1411C79.6233 66.3812 78.8106 66.6767 78.0626 67.0369C77.7394 67.1939 77.6008 67.5725 77.7578 67.8958C77.8687 68.1267 78.0995 68.2652 78.3397 68.2652C78.432 68.2652 78.5244 68.2467 78.6167 68.2005C79.3001 67.8773 80.0389 67.6003 80.8239 67.3786C81.1656 67.2863 81.3688 66.9261 81.2672 66.5844ZM76.6127 69.4011C76.899 69.1887 76.9544 68.7824 76.742 68.4961C76.5296 68.2098 76.1232 68.1451 75.8369 68.3668C75.172 68.8655 74.5255 69.438 73.916 70.0753C73.6667 70.3339 73.6852 70.7402 73.9437 70.9895C74.073 71.1096 74.23 71.165 74.387 71.165C74.5533 71.165 74.7287 71.1004 74.858 70.9618C75.4121 70.38 76.0032 69.8536 76.6127 69.4011ZM72.2906 72.0701C71.8474 72.7073 71.6257 73.1321 71.6165 73.1506C71.4502 73.4646 71.5703 73.8524 71.8843 74.0279C71.9767 74.0833 72.0875 74.1018 72.1891 74.1018C72.4199 74.1018 72.6416 73.9817 72.7616 73.7601C72.7616 73.7601 72.9648 73.3722 73.3619 72.8089C73.5651 72.5133 73.4912 72.1162 73.1957 71.9131C72.9002 71.7099 72.5031 71.7838 72.2999 72.0793L72.2906 72.0701ZM76.705 74.2773C75.8092 74.425 75.2089 74.4343 75.1997 74.4343C74.8395 74.4343 74.5533 74.7298 74.5533 75.0807C74.5533 75.4409 74.8395 75.7272 75.1997 75.7272C75.2182 75.7272 75.8739 75.7272 76.9174 75.5517C77.2684 75.4963 77.5085 75.1546 77.4438 74.8037C77.3884 74.4527 77.0467 74.2218 76.6958 74.2773H76.705ZM81.9229 72.0054C81.5443 72.3102 81.1564 72.5872 80.7593 72.8273C80.3622 73.0675 79.9281 73.2891 79.4848 73.4738C79.1524 73.6123 79.0046 73.991 79.1431 74.3234C79.2447 74.5728 79.4848 74.7205 79.7342 74.7205C79.8173 74.7205 79.9004 74.7021 79.9835 74.6651C80.4914 74.4527 80.9717 74.2034 81.4242 73.9356C81.8767 73.6677 82.32 73.3537 82.7356 73.012C83.0126 72.7904 83.0496 72.3748 82.8279 72.0978C82.5971 71.8207 82.1907 71.7838 81.9137 72.0054H81.9229ZM85.6446 68.4037C85.3307 68.2375 84.9428 68.3575 84.7673 68.6715C84.7673 68.6715 84.481 69.2072 83.9269 69.9275C83.7145 70.2138 83.7607 70.6201 84.047 70.8326C84.167 70.9249 84.3056 70.9618 84.4348 70.9618C84.6288 70.9618 84.8227 70.8787 84.952 70.7033C85.5708 69.8906 85.894 69.2995 85.9032 69.2718C86.0695 68.9578 85.9494 68.5699 85.6354 68.3945L85.6446 68.4037Z" fill="black"/>
<defs>
<filter id="filter0_f_828_1544" x="-211.078" y="-97.3494" width="440.331" height="440.117" filterUnits="userSpaceOnUse" color-interpolation-filters="sRGB">
<feFlood flood-opacity="0" result="BackgroundImageFix"/>
<feBlend mode="normal" in="SourceGraphic" in2="BackgroundImageFix" result="shape"/>
<feGaussianBlur stdDeviation="58.7095" result="effect1_foregroundBlur_828_1544"/>
</filter>
<filter id="filter1_f_828_1544" x="-120.527" y="-108.531" width="346.398" height="346.256" filterUnits="userSpaceOnUse" color-interpolation-filters="sRGB">
<feFlood flood-opacity="0" result="BackgroundImageFix"/>
<feBlend mode="normal" in="SourceGraphic" in2="BackgroundImageFix" result="shape"/>
<feGaussianBlur stdDeviation="52.5347" result="effect1_foregroundBlur_828_1544"/>
</filter>
<filter id="filter2_f_828_1544" x="-22.1152" y="-118.497" width="281.562" height="281.181" filterUnits="userSpaceOnUse" color-interpolation-filters="sRGB">
<feFlood flood-opacity="0" result="BackgroundImageFix"/>
<feBlend mode="normal" in="SourceGraphic" in2="BackgroundImageFix" result="shape"/>
<feGaussianBlur stdDeviation="26.8532" result="effect1_foregroundBlur_828_1544"/>
</filter>
</defs>
</svg>
