<svg width="115" height="115" viewBox="0 0 115 115" fill="none" xmlns="http://www.w3.org/2000/svg">
<mask id="mask0_828_1535" style="mask-type:alpha" maskUnits="userSpaceOnUse" x="0" y="0" width="115" height="115">
<ellipse cx="57.5" cy="57.4401" rx="57.5" ry="57.4401" fill="#D9D9D9"/>
</mask>
<g mask="url(#mask0_828_1535)">
<ellipse cx="57.5" cy="57.4401" rx="57.5" ry="57.4401" fill="black"/>
<g filter="url(#filter0_f_828_1535)">
<ellipse cx="102.702" cy="102.649" rx="102.702" ry="102.649" transform="matrix(0.866251 -0.499609 0.500391 0.8658 -131.244 85.1466)" fill="#00FFF0"/>
</g>
<g filter="url(#filter1_f_828_1535)">
<path d="M111.664 30.5735C130.474 63.1199 119.312 104.737 86.7313 123.528C54.1509 142.318 12.4906 131.167 -6.31965 98.6206C-25.1299 66.0742 -13.9671 24.4573 18.6133 5.66658C51.1936 -13.1241 92.854 -1.97288 111.664 30.5735Z" fill="#00F6FF"/>
</g>
<g filter="url(#filter2_f_828_1535)">
<ellipse cx="87.0871" cy="86.8421" rx="87.0871" ry="86.8421" transform="matrix(0.866251 -0.499609 0.500391 0.8658 -0.228271 -9.58533)" fill="#C3A6FF"/>
</g>
</g>
<path d="M70.2836 55.2635C64.5579 55.2635 60.1712 53.6936 57.2436 50.609C53.2171 46.3701 53.448 40.8475 53.4572 40.6074V25.6465C53.4572 25.2863 53.7435 25 54.1037 25H62.7755C63.1357 25 63.422 25.2863 63.422 25.6465C63.422 26.0066 63.1357 26.2929 62.7755 26.2929H54.7502V40.6351C54.7502 40.7182 54.5378 45.8899 58.1856 49.7224C60.8638 52.5299 64.9365 53.9614 70.2836 53.9614C74.1901 53.9614 77.3301 52.7885 79.6204 50.4797C83.8131 46.25 83.7947 39.5546 83.7947 39.4899V26.2929H75.8986C75.5385 26.2929 75.2522 26.0066 75.2522 25.6465C75.2522 25.2863 75.5385 25 75.8986 25H84.4411C84.8013 25 85.0876 25.2863 85.0876 25.6465V39.4807C85.0876 39.767 85.1061 46.7672 80.5439 51.3848C78.0042 53.9521 74.5503 55.2543 70.2836 55.2543V55.2635Z" fill="black"/>
<path d="M70.1913 56.7319C69.8312 56.7319 69.5448 56.4456 69.5448 56.0854V54.6078C69.5448 54.2477 69.8312 53.9614 70.1913 53.9614C70.5515 53.9614 70.8378 54.2477 70.8378 54.6078V56.0854C70.8378 56.4456 70.5515 56.7319 70.1913 56.7319Z" fill="black"/>
<path d="M56.0339 89.2765C55.6737 89.2673 55.3966 88.9718 55.3966 88.6116C55.3966 88.2607 55.6922 87.9744 56.0431 87.9744H56.5326C56.8189 87.9744 57.1144 87.9744 57.4099 87.9744C57.9271 87.9651 58.4258 87.9282 58.906 87.8728C59.2569 87.8359 59.5802 88.0852 59.6263 88.4361C59.6633 88.7871 59.4139 89.1103 59.063 89.1565C58.5458 89.2211 58.0009 89.2581 57.4468 89.2673C57.1421 89.2673 56.8373 89.2765 56.5418 89.2765H56.0339ZM53.1156 89.0641C53.1156 89.0641 53.0602 89.0641 53.0324 89.0641C51.9796 88.9256 50.9822 88.7132 50.0587 88.4361C49.717 88.3345 49.5231 87.9744 49.6247 87.6327C49.7263 87.291 50.0864 87.097 50.4281 87.1986C51.287 87.4572 52.2198 87.6512 53.1987 87.7804C53.5496 87.8266 53.799 88.1498 53.7528 88.51C53.7066 88.8332 53.4296 89.0734 53.1156 89.0734V89.0641ZM61.8428 88.5285C61.575 88.5285 61.3164 88.353 61.2332 88.0852C61.1224 87.7435 61.3071 87.3833 61.6396 87.2725C62.5354 86.977 63.3758 86.5706 64.1331 86.0812C64.4286 85.8872 64.835 85.9704 65.0289 86.2751C65.2228 86.5706 65.1397 86.977 64.8349 87.1709C63.9853 87.725 63.0433 88.1683 62.0459 88.5008C61.9813 88.5193 61.9074 88.5377 61.8428 88.5377V88.5285ZM47.5283 87.3279C47.4175 87.3279 47.3159 87.3002 47.2143 87.2448C46.2816 86.7276 45.4412 86.1089 44.7208 85.3978C44.4622 85.1484 44.4622 84.7421 44.7208 84.4835C44.9702 84.2341 45.3858 84.2249 45.6351 84.4835C46.2723 85.1115 47.0204 85.6656 47.8515 86.1273C48.1655 86.3028 48.2764 86.6907 48.1009 87.0047C47.9808 87.2171 47.7592 87.3372 47.5375 87.3372L47.5283 87.3279ZM66.7097 85.3516C66.5527 85.3516 66.4049 85.2962 66.2849 85.1854C66.0171 84.9453 65.9893 84.5389 66.2295 84.2711C66.8297 83.5969 67.3561 82.8304 67.7994 81.9808C67.9656 81.6668 68.3535 81.5467 68.6768 81.713C68.9908 81.8792 69.1108 82.2671 68.9446 82.5903C68.4459 83.5323 67.8641 84.3912 67.1991 85.1392C67.0698 85.287 66.8944 85.3608 66.7189 85.3608L66.7097 85.3516ZM43.4002 83.2552C43.1786 83.2552 42.9569 83.1352 42.8369 82.9228C42.3474 82.0547 41.9595 81.0942 41.664 80.0599C41.5716 79.7182 41.7656 79.358 42.1073 79.2657C42.449 79.1733 42.8092 79.3672 42.9015 79.7182C43.1601 80.6509 43.5203 81.519 43.9543 82.2948C44.1298 82.6088 44.019 82.9966 43.705 83.1721C43.6034 83.2275 43.4925 83.2552 43.391 83.2552H43.4002ZM69.4618 80.2076C69.3971 80.2076 69.3417 80.2076 69.277 80.1799C68.9353 80.0784 68.7414 79.7182 68.843 79.3765C69.1016 78.4899 69.2955 77.5572 69.4156 76.5967C69.4617 76.2458 69.785 75.9872 70.1359 76.0334C70.4869 76.0795 70.7454 76.4028 70.6993 76.7537C70.57 77.7788 70.3668 78.7854 70.0805 79.7366C69.9974 80.0137 69.7388 80.1984 69.4618 80.1984V80.2076ZM70.1821 74.3803C69.8219 74.3803 69.5356 74.094 69.5356 73.7338V70.7878C69.5356 70.4276 69.8219 70.1413 70.1821 70.1413C70.5423 70.1413 70.8286 70.4276 70.8286 70.7878V73.7338C70.8286 74.094 70.5423 74.3803 70.1821 74.3803ZM70.1821 68.4975C69.8219 68.4975 69.5356 68.2112 69.5356 67.851V64.905C69.5356 64.5448 69.8219 64.2586 70.1821 64.2586C70.5423 64.2586 70.8286 64.5448 70.8286 64.905V67.851C70.8286 68.2112 70.5423 68.4975 70.1821 68.4975ZM70.1821 62.6147C69.8219 62.6147 69.5356 62.3284 69.5356 61.9683V59.0222C69.5356 58.6621 69.8219 58.3758 70.1821 58.3758C70.5423 58.3758 70.8286 58.6621 70.8286 59.0222V61.9683C70.8286 62.3284 70.5423 62.6147 70.1821 62.6147Z" fill="black"/>
<path d="M41.7656 77.6218C41.4331 77.6218 41.156 77.3724 41.1191 77.0307C41.0729 76.532 41.0452 76.0241 41.036 75.5069C41.036 75.1467 41.3131 74.8512 41.6732 74.8512H41.6825C42.0334 74.8512 42.3197 75.1283 42.3289 75.4885C42.3381 75.9779 42.3659 76.4489 42.4028 76.9199C42.4397 77.2708 42.1719 77.5941 41.821 77.6218C41.8025 77.6218 41.784 77.6218 41.7656 77.6218Z" fill="black"/>
<path d="M41.6825 75.4885C35.2456 75.4885 30 70.2521 30 63.806C30 57.3599 35.2363 52.1236 41.6825 52.1236C48.1286 52.1236 53.3649 57.3599 53.3649 63.806C53.3649 70.2521 48.1286 75.4885 41.6825 75.4885ZM41.6825 53.4165C35.9567 53.4165 31.2929 58.071 31.2929 63.806C31.2929 69.541 35.9567 74.1955 41.6825 74.1955C47.4082 74.1955 52.072 69.5318 52.072 63.806C52.072 58.0802 47.4082 53.4165 41.6825 53.4165Z" fill="black"/>
<path d="M43.7511 38.0215H32.7151C32.3549 38.0215 32.0687 37.7353 32.0687 37.3751C32.0687 37.0149 32.3549 36.7286 32.7151 36.7286H43.7511C44.1113 36.7286 44.3976 37.0149 44.3976 37.3751C44.3976 37.7353 44.1113 38.0215 43.7511 38.0215Z" fill="black"/>
<path d="M38.2378 43.5349C37.8776 43.5349 37.5913 43.2486 37.5913 42.8884V31.8524C37.5913 31.4923 37.8776 31.206 38.2378 31.206C38.5979 31.206 38.8842 31.4923 38.8842 31.8524V42.8884C38.8842 43.2486 38.5979 43.5349 38.2378 43.5349Z" fill="black"/>
<defs>
<filter id="filter0_f_828_1535" x="-211.078" y="-97.3494" width="440.331" height="440.117" filterUnits="userSpaceOnUse" color-interpolation-filters="sRGB">
<feFlood flood-opacity="0" result="BackgroundImageFix"/>
<feBlend mode="normal" in="SourceGraphic" in2="BackgroundImageFix" result="shape"/>
<feGaussianBlur stdDeviation="58.7095" result="effect1_foregroundBlur_828_1535"/>
</filter>
<filter id="filter1_f_828_1535" x="-120.526" y="-108.531" width="346.398" height="346.256" filterUnits="userSpaceOnUse" color-interpolation-filters="sRGB">
<feFlood flood-opacity="0" result="BackgroundImageFix"/>
<feBlend mode="normal" in="SourceGraphic" in2="BackgroundImageFix" result="shape"/>
<feGaussianBlur stdDeviation="52.5347" result="effect1_foregroundBlur_828_1535"/>
</filter>
<filter id="filter2_f_828_1535" x="-22.1149" y="-118.497" width="281.562" height="281.181" filterUnits="userSpaceOnUse" color-interpolation-filters="sRGB">
<feFlood flood-opacity="0" result="BackgroundImageFix"/>
<feBlend mode="normal" in="SourceGraphic" in2="BackgroundImageFix" result="shape"/>
<feGaussianBlur stdDeviation="26.8532" result="effect1_foregroundBlur_828_1535"/>
</filter>
</defs>
</svg>
