<svg width="115" height="115" viewBox="0 0 115 115" fill="none" xmlns="http://www.w3.org/2000/svg">
<mask id="mask0_828_1579" style="mask-type:alpha" maskUnits="userSpaceOnUse" x="0" y="0" width="115" height="115">
<ellipse cx="57.5" cy="57.4401" rx="57.5" ry="57.4401" fill="#D9D9D9"/>
</mask>
<g mask="url(#mask0_828_1579)">
<ellipse cx="57.5" cy="57.4401" rx="57.5" ry="57.4401" fill="black"/>
<g filter="url(#filter0_f_828_1579)">
<ellipse cx="102.702" cy="102.649" rx="102.702" ry="102.649" transform="matrix(0.866251 -0.499609 0.500391 0.8658 -131.244 85.1466)" fill="#00FFF0"/>
</g>
<g filter="url(#filter1_f_828_1579)">
<path d="M111.664 30.5735C130.474 63.1199 119.311 104.737 86.731 123.528C54.1507 142.318 12.4904 131.167 -6.3199 98.6206C-25.1302 66.0742 -13.9673 24.4573 18.613 5.66659C51.1934 -13.1241 92.8537 -1.97287 111.664 30.5735Z" fill="#00F6FF"/>
</g>
<g filter="url(#filter2_f_828_1579)">
<ellipse cx="87.0871" cy="86.8421" rx="87.0871" ry="86.8421" transform="matrix(0.866251 -0.499609 0.500391 0.8658 -0.228516 -9.58533)" fill="#C3A6FF"/>
</g>
</g>
<path d="M57.4812 91.5478C57.3704 91.5478 57.2688 91.5201 57.1672 91.4646L55.0709 90.3195C55.0709 90.3195 54.997 90.2918 54.96 90.2733C52.2726 88.7126 46.9993 85.3602 41.8738 80.4471C38.2075 76.9378 35.243 73.2622 33.0635 69.522C30.3022 64.8121 28.7138 59.9082 28.3444 54.9397C27.2916 40.5975 28.9816 34.7332 29.0555 34.4839L29.351 33.4957C29.4064 33.3018 29.5542 33.1448 29.7481 33.0709L57.2227 23.0416C57.3704 22.9861 57.5274 22.9861 57.6752 23.0416L59.7715 23.8173L85.1497 33.0709C85.3436 33.1448 85.4914 33.2925 85.5468 33.4957L85.8423 34.4746C86.027 35.1026 87.6062 40.9485 86.5719 54.9305C86.1932 59.899 84.6141 64.8028 81.8527 69.5127C79.6733 73.253 76.7087 76.9286 73.0424 80.4379C67.9169 85.351 62.6437 88.7033 59.9562 90.2641L57.7767 91.4554C57.6844 91.5108 57.5736 91.5385 57.4627 91.5385L57.4812 91.5478ZM55.5326 89.1005C55.5326 89.1005 55.5972 89.1282 55.6249 89.1466L57.4812 90.1625L59.3375 89.1466C61.9603 87.6228 67.132 84.3351 72.1651 79.5144C75.7391 76.0974 78.6297 72.5142 80.7445 68.8755C83.4042 64.3318 84.928 59.6219 85.2882 54.8473C86.3225 40.8654 84.6787 35.1026 84.6048 34.8625L84.4017 34.1976L57.4535 24.3622L55.5788 25.0548L30.5054 34.1976L30.3022 34.8718C30.2283 35.1026 28.6029 40.7453 29.6465 54.8566C30.0067 59.6219 31.5305 64.3411 34.1902 68.8755C36.3051 72.5142 39.1957 76.0974 42.7697 79.5144C47.7474 84.2797 52.8637 87.549 55.5234 89.1005H55.5326Z" fill="black"/>
<path d="M32.0107 51.3657C31.8353 51.3657 31.6598 51.2919 31.5306 51.1533C31.2904 50.8855 31.3089 50.4792 31.5767 50.2391C31.9461 49.8974 32.3433 49.5741 32.7496 49.2601C33.0359 49.0385 33.4422 49.0939 33.6546 49.3802C33.8763 49.6665 33.8209 50.0728 33.5346 50.2852C33.1559 50.5808 32.7865 50.8855 32.4448 51.1995C32.3248 51.3103 32.1677 51.3657 32.0107 51.3657Z" fill="black"/>
<path d="M35.6309 48.7799C35.4093 48.7799 35.1876 48.6598 35.0676 48.4567C34.8921 48.1427 34.9937 47.7548 35.3077 47.5701C36.1481 47.0899 37.0624 46.6281 38.0321 46.2033C38.3645 46.0648 38.7431 46.2033 38.8817 46.5358C39.0294 46.859 38.8817 47.2469 38.5492 47.3854C37.6257 47.7917 36.7484 48.235 35.9449 48.6968C35.8433 48.7522 35.7325 48.7799 35.6217 48.7799H35.6309ZM78.8236 48.4936C78.722 48.4936 78.6113 48.4659 78.5189 48.4197C77.7062 47.9764 76.8196 47.5516 75.8869 47.1637C75.5544 47.0252 75.4066 46.6466 75.5359 46.3141C75.6744 45.9817 76.0531 45.8339 76.3856 45.9632C77.3553 46.3695 78.2788 46.8128 79.1284 47.2746C79.4424 47.4408 79.5625 47.8379 79.387 48.1519C79.267 48.3643 79.0453 48.4936 78.8144 48.4936H78.8236ZM41.0704 46.3603C40.8026 46.3603 40.5533 46.1941 40.4609 45.9262C40.3501 45.5845 40.5255 45.2244 40.858 45.1043C41.7908 44.7811 42.7605 44.4856 43.7579 44.227C44.1088 44.1346 44.4597 44.3378 44.5521 44.6887C44.6444 45.0304 44.4412 45.3906 44.0903 45.4829C43.1299 45.7415 42.1787 46.0278 41.2828 46.3326C41.209 46.3603 41.1443 46.3695 41.0704 46.3695V46.3603ZM73.3472 46.1756C73.2826 46.1756 73.2087 46.1664 73.1441 46.1386C72.239 45.8431 71.2877 45.5661 70.3273 45.326C69.9764 45.2428 69.7732 44.8919 69.8563 44.541C69.9395 44.19 70.2996 43.9869 70.6413 44.07C71.6387 44.3193 72.6176 44.6056 73.5504 44.9104C73.8921 45.0212 74.0768 45.3814 73.9659 45.7231C73.8736 46.0001 73.6242 46.1664 73.3472 46.1664V46.1756ZM46.8239 44.8273C46.5192 44.8273 46.2513 44.6149 46.1867 44.3101C46.1128 43.9592 46.3437 43.6175 46.6946 43.5528C47.6643 43.3589 48.6709 43.1926 49.6683 43.0541C50.0192 42.9987 50.3517 43.248 50.3979 43.6082C50.4441 43.9592 50.2039 44.2916 49.8438 44.3378C48.8648 44.4763 47.886 44.6333 46.944 44.818C46.8978 44.818 46.8609 44.8273 46.8147 44.8273H46.8239ZM67.566 44.7164C67.566 44.7164 67.4921 44.7164 67.4459 44.7072C66.4855 44.5317 65.5066 44.3747 64.5369 44.2547C64.186 44.2085 63.9274 43.8853 63.9736 43.5343C64.0197 43.1834 64.3522 42.9248 64.6939 42.971C65.6913 43.1003 66.6979 43.2573 67.6768 43.4327C68.0277 43.4974 68.2586 43.8391 68.194 44.19C68.1386 44.504 67.8615 44.7164 67.5568 44.7164H67.566ZM52.7251 44.0146C52.3927 44.0146 52.1064 43.756 52.0787 43.4235C52.051 43.0633 52.3096 42.7586 52.6697 42.7309C53.6486 42.6478 54.6645 42.5924 55.6804 42.5647C55.6804 42.5647 55.6896 42.5647 55.6989 42.5647C56.0498 42.5647 56.3361 42.8417 56.3453 43.1926C56.3546 43.5528 56.0775 43.8483 55.7174 43.8576C54.7292 43.8853 53.7318 43.9407 52.7714 44.0238C52.7529 44.0238 52.7344 44.0238 52.7159 44.0238L52.7251 44.0146ZM61.6555 43.9684C61.6555 43.9684 61.6278 43.9684 61.6094 43.9684C60.6397 43.8945 59.6515 43.8576 58.6634 43.8299C58.3032 43.8299 58.0261 43.5251 58.0261 43.1742C58.0261 42.8232 58.3586 42.5554 58.6818 42.537C59.6884 42.5554 60.7043 42.6016 61.6925 42.6755C62.0526 42.7032 62.3205 43.0079 62.2928 43.3681C62.2651 43.7098 61.988 43.9684 61.6463 43.9684H61.6555Z" fill="black"/>
<path d="M82.5176 50.9871C82.3699 50.9871 82.2221 50.9409 82.1021 50.8301C81.7511 50.5346 81.3725 50.2391 80.9846 49.9528C80.6984 49.7404 80.6337 49.334 80.8368 49.0477C81.0493 48.7614 81.4464 48.6968 81.7419 48.9C82.1667 49.2047 82.5638 49.5187 82.9425 49.8419C83.2103 50.0728 83.2473 50.4792 83.0164 50.7562C82.8871 50.904 82.7024 50.9871 82.5269 50.9871H82.5176Z" fill="black"/>
<path d="M36.9238 68.5523C36.8222 68.5523 36.7299 68.5339 36.6375 68.4877C36.1758 68.2568 35.7325 68.0167 35.3077 67.7766C34.9937 67.6011 34.8921 67.204 35.0676 66.89C35.243 66.576 35.6402 66.4744 35.9542 66.6499C36.3605 66.8808 36.7853 67.1116 37.2286 67.3333C37.5426 67.4903 37.6719 67.8782 37.5149 68.2014C37.4041 68.423 37.1732 68.5616 36.9331 68.5616L36.9238 68.5523Z" fill="black"/>
<path d="M58.497 72.819C58.1461 72.819 57.8598 72.5327 57.8506 72.1817C57.8506 71.8216 58.1276 71.5261 58.4878 71.5261C59.5314 71.5076 60.5841 71.4614 61.6185 71.3875C61.9694 71.3598 62.2834 71.6276 62.3111 71.9878C62.3388 72.348 62.071 72.6527 61.7109 72.6804C60.6488 72.7543 59.5683 72.8005 58.5062 72.819H58.497ZM55.3294 72.7913C55.3294 72.7913 55.3109 72.7913 55.3017 72.7913C54.2396 72.7543 53.1591 72.6804 52.1063 72.5881C51.7554 72.5511 51.4875 72.2372 51.5245 71.8862C51.5614 71.5261 51.857 71.2675 52.2264 71.3044C53.2607 71.3968 54.3135 71.4706 55.3571 71.5076C55.7173 71.5168 55.9943 71.8216 55.9758 72.1725C55.9666 72.5234 55.6803 72.7913 55.3294 72.7913ZM64.8139 72.3664C64.4906 72.3664 64.2136 72.1263 64.1766 71.8031C64.1305 71.4522 64.3798 71.1289 64.7307 71.0828C65.7835 70.9442 66.8179 70.778 67.8153 70.5841C68.1662 70.5194 68.5079 70.7411 68.5726 71.092C68.6372 71.4429 68.4156 71.7846 68.0646 71.8493C67.0395 72.0524 65.9683 72.2187 64.897 72.3572C64.8693 72.3572 64.8416 72.3572 64.8139 72.3572V72.3664ZM49.0126 72.2094C49.0126 72.2094 48.9479 72.2094 48.911 72.2094C47.8305 72.0432 46.7684 71.8493 45.7525 71.6276C45.4016 71.5538 45.18 71.2028 45.2631 70.8611C45.337 70.5102 45.6786 70.2885 46.0296 70.3717C47.027 70.5841 48.0613 70.778 49.1049 70.935C49.4558 70.9904 49.696 71.3229 49.6498 71.6738C49.6036 71.997 49.3265 72.2187 49.0126 72.2187V72.2094ZM71.0291 71.1566C70.7428 71.1566 70.4842 70.9627 70.4011 70.6764C70.3087 70.3347 70.5119 69.9745 70.8629 69.8822C71.888 69.6144 72.8946 69.3096 73.8458 68.9679C74.1875 68.8479 74.5477 69.0326 74.6677 69.365C74.7878 69.6975 74.6031 70.0669 74.2706 70.1869C73.2825 70.5286 72.2481 70.8426 71.1953 71.1289C71.1399 71.1474 71.0845 71.1474 71.0291 71.1474V71.1566ZM42.8158 70.8519C42.7604 70.8519 42.6957 70.8519 42.631 70.8242C41.5782 70.5194 40.5531 70.1685 39.5742 69.7991C39.2418 69.6698 39.0756 69.3004 39.2049 68.9679C39.3341 68.6355 39.7035 68.4692 40.036 68.5985C40.978 68.9587 41.9754 69.2911 42.9912 69.5959C43.3329 69.6975 43.5269 70.0577 43.4345 70.3994C43.3514 70.6857 43.0928 70.8611 42.8158 70.8611V70.8519Z" fill="black"/>
<path d="M77.0228 69.0418C76.7734 69.0418 76.5426 68.9033 76.4318 68.6632C76.284 68.34 76.4317 67.9521 76.755 67.8043C77.1982 67.6011 77.6323 67.3887 78.0571 67.1763C78.3711 67.0101 78.7683 67.1394 78.9253 67.4534C79.0915 67.7674 78.9621 68.1645 78.6482 68.3215C78.2141 68.5524 77.7616 68.7648 77.2906 68.9772C77.2075 69.0141 77.1151 69.0326 77.0228 69.0326V69.0418Z" fill="black"/>
<path d="M55.5973 63.5099C55.4403 63.5099 55.2925 63.4545 55.1724 63.3529L51.2844 60.019C51.0166 59.7881 50.9797 59.3818 51.2106 59.1047C51.4415 58.8369 51.8478 58.8 52.1248 59.0309L55.4956 61.9122L62.7175 52.4647C62.9299 52.1784 63.3363 52.123 63.6226 52.3446C63.9089 52.557 63.9643 52.9634 63.7427 53.2497L56.1052 63.2421C55.9944 63.3806 55.8374 63.473 55.6619 63.4914C55.6434 63.4914 55.6157 63.4914 55.5973 63.4914V63.5099Z" fill="black"/>
<defs>
<filter id="filter0_f_828_1579" x="-211.078" y="-97.3495" width="440.331" height="440.117" filterUnits="userSpaceOnUse" color-interpolation-filters="sRGB">
<feFlood flood-opacity="0" result="BackgroundImageFix"/>
<feBlend mode="normal" in="SourceGraphic" in2="BackgroundImageFix" result="shape"/>
<feGaussianBlur stdDeviation="58.7095" result="effect1_foregroundBlur_828_1579"/>
</filter>
<filter id="filter1_f_828_1579" x="-120.527" y="-108.531" width="346.398" height="346.256" filterUnits="userSpaceOnUse" color-interpolation-filters="sRGB">
<feFlood flood-opacity="0" result="BackgroundImageFix"/>
<feBlend mode="normal" in="SourceGraphic" in2="BackgroundImageFix" result="shape"/>
<feGaussianBlur stdDeviation="52.5347" result="effect1_foregroundBlur_828_1579"/>
</filter>
<filter id="filter2_f_828_1579" x="-22.1152" y="-118.497" width="281.562" height="281.181" filterUnits="userSpaceOnUse" color-interpolation-filters="sRGB">
<feFlood flood-opacity="0" result="BackgroundImageFix"/>
<feBlend mode="normal" in="SourceGraphic" in2="BackgroundImageFix" result="shape"/>
<feGaussianBlur stdDeviation="26.8532" result="effect1_foregroundBlur_828_1579"/>
</filter>
</defs>
</svg>
