<svg width="115" height="115" viewBox="0 0 115 115" fill="none" xmlns="http://www.w3.org/2000/svg">
<mask id="mask0_828_1561" style="mask-type:alpha" maskUnits="userSpaceOnUse" x="0" y="0" width="115" height="115">
<ellipse cx="57.5" cy="57.4401" rx="57.5" ry="57.4401" fill="#D9D9D9"/>
</mask>
<g mask="url(#mask0_828_1561)">
<ellipse cx="57.5" cy="57.4401" rx="57.5" ry="57.4401" fill="black"/>
<g filter="url(#filter0_f_828_1561)">
<ellipse cx="102.702" cy="102.649" rx="102.702" ry="102.649" transform="matrix(0.866251 -0.499609 0.500391 0.8658 -131.244 85.1466)" fill="#00FFF0"/>
</g>
<g filter="url(#filter1_f_828_1561)">
<path d="M111.664 30.5735C130.474 63.1199 119.312 104.737 86.7313 123.528C54.1509 142.318 12.4906 131.167 -6.31965 98.6206C-25.1299 66.0742 -13.9671 24.4573 18.6133 5.66658C51.1936 -13.1241 92.854 -1.97288 111.664 30.5735Z" fill="#00F6FF"/>
</g>
<g filter="url(#filter2_f_828_1561)">
<ellipse cx="87.0871" cy="86.8421" rx="87.0871" ry="86.8421" transform="matrix(0.866251 -0.499609 0.500391 0.8658 -0.228271 -9.58533)" fill="#C3A6FF"/>
</g>
</g>
<path d="M45.8141 71.5453C45.5832 71.5453 45.3616 71.4253 45.2415 71.2037C45.0753 70.8897 45.1953 70.4925 45.5093 70.3263C45.9341 70.0954 46.4144 69.883 46.9131 69.6799C47.2455 69.5506 47.6242 69.7168 47.7535 70.04C47.8828 70.3725 47.7165 70.7511 47.3933 70.8804C46.9315 71.0651 46.5067 71.2591 46.1188 71.4622C46.0265 71.5176 45.9157 71.5361 45.8141 71.5361V71.5453Z" fill="black"/>
<path d="M50.173 70.0215C49.8775 70.0215 49.6097 69.8184 49.5451 69.5228C49.4619 69.1719 49.6836 68.8302 50.0253 68.7471C51.0227 68.5162 52.094 68.3315 53.2022 68.193C53.5531 68.1468 53.8763 68.3962 53.9225 68.7563C53.9687 69.1165 53.7101 69.4305 53.3592 69.4767C52.2971 69.606 51.272 69.7907 50.3208 70.0123C50.2746 70.0215 50.2192 70.0308 50.173 70.0308V70.0215ZM65.8266 70.0215C65.7804 70.0215 65.7343 70.0215 65.6788 70.0031C64.7276 69.7814 63.7025 69.606 62.6405 69.4767C62.2895 69.4305 62.031 69.1073 62.0771 68.7563C62.1233 68.4054 62.4373 68.1468 62.7975 68.193C63.9057 68.3315 64.977 68.5162 65.9744 68.7471C66.3253 68.8302 66.5377 69.1719 66.4546 69.5228C66.3899 69.8184 66.1221 70.0215 65.8266 70.0215ZM56.416 69.2273C56.0743 69.2273 55.788 68.9503 55.7695 68.6086C55.7511 68.2484 56.0374 67.9529 56.3883 67.9344C57.4411 67.8882 58.5401 67.8882 59.5929 67.9344C59.9531 67.9436 60.2301 68.2484 60.2116 68.6086C60.1932 68.9687 59.8976 69.2642 59.5375 69.2273C58.5216 69.1904 57.4503 69.1904 56.4345 69.2273C56.4345 69.2273 56.416 69.2273 56.4068 69.2273H56.416Z" fill="black"/>
<path d="M70.2041 71.5453C70.1025 71.5453 70.0009 71.5176 69.8993 71.4715C69.5114 71.2683 69.0866 71.0744 68.6248 70.8897C68.2924 70.7604 68.1261 70.3817 68.2647 70.0493C68.394 69.7168 68.7726 69.5506 69.1051 69.6891C69.613 69.8923 70.084 70.1047 70.5088 70.3355C70.8228 70.5018 70.9429 70.8896 70.7766 71.2129C70.6566 71.4345 70.4349 71.5546 70.2041 71.5546V71.5453Z" fill="black"/>
<path d="M47.1532 78.4994C47.0701 78.4994 46.9962 78.4809 46.9131 78.4532C46.4051 78.2501 45.9341 78.0376 45.5093 77.8068C45.1953 77.6405 45.0753 77.2527 45.2415 76.9294C45.4077 76.6154 45.8049 76.4954 46.1188 76.6616C46.5067 76.8648 46.9315 77.0587 47.3933 77.2434C47.7258 77.3727 47.892 77.7514 47.7535 78.0838C47.6519 78.3424 47.4118 78.4902 47.1532 78.4902V78.4994Z" fill="black"/>
<path d="M58.0137 80.2448C57.4688 80.2448 56.9332 80.2356 56.4068 80.2079C56.0466 80.1894 55.7696 79.8939 55.7881 79.5337C55.7973 79.1828 56.1113 78.878 56.4622 78.915C57.4781 78.9519 58.5494 78.9519 59.5652 78.915C59.9162 78.8873 60.2209 79.1828 60.2394 79.5337C60.2486 79.8939 59.9716 80.1894 59.6206 80.2079C59.0942 80.2264 58.5678 80.2356 58.023 80.2356L58.0137 80.2448ZM62.7236 79.9585C62.4004 79.9585 62.1234 79.7184 62.0864 79.3952C62.0402 79.0443 62.2988 78.721 62.6498 78.6749C63.7118 78.5456 64.7369 78.3609 65.6881 78.1485C66.0391 78.0746 66.3808 78.287 66.4639 78.6379C66.547 78.9889 66.3253 79.3306 65.9836 79.4137C64.9862 79.6446 63.9242 79.8293 62.8068 79.9678C62.779 79.9678 62.7513 79.9678 62.7236 79.9678V79.9585ZM53.2853 79.9585C53.2853 79.9585 53.2299 79.9585 53.2022 79.9585C52.094 79.82 51.032 79.6353 50.0253 79.4044C49.6744 79.3213 49.462 78.9796 49.5451 78.6287C49.6282 78.2778 49.9699 78.0653 50.3209 78.1392C51.2813 78.3609 52.2972 78.5363 53.3592 78.6749C53.7101 78.721 53.9687 79.0443 53.9226 79.3952C53.8856 79.7184 53.5993 79.9585 53.2853 79.9585Z" fill="black"/>
<path d="M68.865 78.4994C68.6064 78.4994 68.3663 78.3424 68.2647 78.0931C68.1354 77.7606 68.3016 77.382 68.6249 77.2527C69.0866 77.068 69.5114 76.874 69.8993 76.6709C70.2133 76.5046 70.6104 76.6247 70.7767 76.9387C70.9429 77.2527 70.8228 77.6498 70.5088 77.816C70.084 78.0469 69.6038 78.2593 69.1051 78.4625C69.0312 78.4902 68.9481 78.5087 68.865 78.5087V78.4994Z" fill="black"/>
<path d="M58.0137 52.2716C54.2735 52.2716 50.2931 51.0802 50.2931 48.8638C50.2931 46.6474 54.2735 45.456 58.0137 45.456C61.7539 45.456 65.7343 46.6474 65.7343 48.8638C65.7343 51.0802 61.7539 52.2716 58.0137 52.2716ZM58.0137 46.749C54.0888 46.749 51.5861 48.0049 51.5861 48.8638C51.5861 49.7227 54.0888 50.9787 58.0137 50.9787C61.9386 50.9787 64.4414 49.7227 64.4414 48.8638C64.4414 48.0049 61.9386 46.749 58.0137 46.749Z" fill="black"/>
<path d="M57.6628 90.2557C55.354 90.2557 51.466 89.3968 48.0952 86.9865C45.3154 84.9917 42 81.2607 42 74.7684C42 65.7826 47.8458 61.3867 51.3182 60.1399V50.9417C51.3182 50.5816 51.6045 50.2953 51.9647 50.2953C52.3249 50.2953 52.6112 50.5816 52.6112 50.9417V60.6109C52.6112 60.8972 52.4265 61.1466 52.1494 61.2297C49.0833 62.1347 43.2929 66.1335 43.2929 74.7684C43.2929 80.7158 46.3128 84.1236 48.8525 85.9429C51.7708 88.0393 55.3817 88.972 57.672 88.972C62.1511 88.972 72.5591 87.5868 72.5591 74.7684C72.5591 64.6836 65.014 61.5991 63.4994 61.0819C63.2408 60.9896 63.0653 60.7495 63.0653 60.4724V50.951C63.0653 50.5908 63.3516 50.3045 63.7118 50.3045C64.072 50.3045 64.3583 50.5908 64.3583 50.951V60.0199C66.6947 60.9342 73.852 64.5728 73.852 74.7684C73.852 89.1475 61.4677 90.265 57.672 90.265L57.6628 90.2557Z" fill="black"/>
<path d="M63.3609 38.9823C60.2394 38.9823 57.709 36.3687 57.709 33.1549C57.709 29.9411 60.2486 27.3275 63.3609 27.3275C66.4731 27.3275 69.0128 29.9411 69.0128 33.1549C69.0128 36.3687 66.4731 38.9823 63.3609 38.9823ZM63.3609 28.6204C60.9597 28.6204 59.0019 30.6522 59.0019 33.1549C59.0019 35.6576 60.9597 37.6893 63.3609 37.6893C65.762 37.6893 67.7199 35.6576 67.7199 33.1549C67.7199 30.6522 65.762 28.6204 63.3609 28.6204Z" fill="black"/>
<path d="M50.9304 26.5517C48.5754 26.5517 46.6545 24.6308 46.6545 22.2759C46.6545 19.9209 48.5754 18 50.9304 18C53.2853 18 55.2062 19.9209 55.2062 22.2759C55.2062 24.6308 53.2853 26.5517 50.9304 26.5517ZM50.9304 19.3022C49.2865 19.3022 47.9474 20.6412 47.9474 22.2851C47.9474 23.929 49.2865 25.268 50.9304 25.268C52.5742 25.268 53.9133 23.929 53.9133 22.2851C53.9133 20.6412 52.5742 19.3022 50.9304 19.3022Z" fill="black"/>
<defs>
<filter id="filter0_f_828_1561" x="-211.078" y="-97.3494" width="440.331" height="440.117" filterUnits="userSpaceOnUse" color-interpolation-filters="sRGB">
<feFlood flood-opacity="0" result="BackgroundImageFix"/>
<feBlend mode="normal" in="SourceGraphic" in2="BackgroundImageFix" result="shape"/>
<feGaussianBlur stdDeviation="58.7095" result="effect1_foregroundBlur_828_1561"/>
</filter>
<filter id="filter1_f_828_1561" x="-120.526" y="-108.531" width="346.398" height="346.256" filterUnits="userSpaceOnUse" color-interpolation-filters="sRGB">
<feFlood flood-opacity="0" result="BackgroundImageFix"/>
<feBlend mode="normal" in="SourceGraphic" in2="BackgroundImageFix" result="shape"/>
<feGaussianBlur stdDeviation="52.5347" result="effect1_foregroundBlur_828_1561"/>
</filter>
<filter id="filter2_f_828_1561" x="-22.1149" y="-118.497" width="281.562" height="281.181" filterUnits="userSpaceOnUse" color-interpolation-filters="sRGB">
<feFlood flood-opacity="0" result="BackgroundImageFix"/>
<feBlend mode="normal" in="SourceGraphic" in2="BackgroundImageFix" result="shape"/>
<feGaussianBlur stdDeviation="26.8532" result="effect1_foregroundBlur_828_1561"/>
</filter>
</defs>
</svg>
