<svg width="57" height="48" viewBox="0 0 57 48" fill="none" xmlns="http://www.w3.org/2000/svg">
<g clip-path="url(#clip0_32_594)">
<path d="M56.4276 14.075C56.257 9.92501 52.8419 6.57751 48.7983 6.57751C48.7715 6.57751 48.7447 6.57751 48.7179 6.57751C48.1017 6.58501 47.4951 6.66501 46.9056 6.81751C45.4368 2.94001 41.8317 0.382507 37.7174 0.382507C32.8359 0.382507 28.7095 4.07251 27.9714 8.93501C27.4331 8.83501 26.8826 8.80501 26.3247 8.84751C25.4965 8.90751 24.6976 9.12751 23.9473 9.50251C23.5844 9.68501 23.4333 10.1325 23.6111 10.505C23.789 10.8775 24.225 11.0325 24.5879 10.85C25.1677 10.56 25.784 10.39 26.427 10.3425C27.0994 10.29 27.7546 10.375 28.3733 10.585C28.5877 10.6575 28.824 10.625 29.0115 10.495C29.1991 10.365 29.3185 10.155 29.3331 9.92251C29.6254 5.41251 33.3085 1.88001 37.7174 1.88001C41.4322 1.88001 44.6597 4.32501 45.7486 7.96501C45.807 8.16251 45.941 8.32501 46.1213 8.41501C46.3015 8.50751 46.5086 8.52001 46.6961 8.45001C47.3441 8.21001 48.031 8.08251 48.7326 8.07501C52.0405 8.04251 54.8272 10.7575 54.966 14.135C55.0367 15.8825 54.4301 17.535 53.256 18.795C52.0795 20.055 50.4961 20.7475 48.7983 20.7475H34.1927C32.7945 17.9125 30.6826 15.4525 28.0031 13.6425C27.6645 13.415 27.2138 13.51 26.9897 13.8575C26.7681 14.2025 26.8606 14.67 27.1992 14.8975C29.4451 16.415 31.2574 18.43 32.5338 20.75H26.3394C24.8461 14.6875 21.7574 10.61 18.106 10.61C8.16513 10.61 0.0803833 18.91 0.0803833 29.1125C0.0803833 31.92 0.694229 34.58 1.79038 36.965C1.80743 37.015 1.82692 37.06 1.85128 37.105C4.76218 43.3175 10.9542 47.615 18.106 47.615C28.0469 47.615 36.1341 39.315 36.1341 29.1125C36.1341 26.7225 35.6883 24.4 34.8528 22.25H48.7983C50.9005 22.25 52.8565 21.3925 54.3108 19.835C55.765 18.28 56.5152 16.2325 56.4276 14.075ZM24.8023 20.75H18.8368V12.1925C21.3579 12.74 23.5697 16.0825 24.8023 20.75ZM25.84 29.1125C25.84 31.54 25.5915 33.865 25.1531 35.9775H18.8344V22.25H25.1531C25.5915 24.3625 25.8376 26.6875 25.8376 29.1125H25.84ZM18.8368 46.0325V37.475H24.8023C23.5697 42.1425 21.3579 45.485 18.8368 46.0325ZM10.3745 29.1125C10.3745 26.6875 10.6229 24.3625 11.059 22.25H17.3753V35.9775H11.0444C10.6059 33.8425 10.3745 31.52 10.3745 29.1125ZM17.3753 12.1925V20.75H11.4122C12.6447 16.085 14.8541 12.74 17.3753 12.1925ZM13.8042 12.695C12.1015 14.4725 10.7277 17.285 9.87513 20.75H7.08846C6.6841 20.75 6.35769 21.085 6.35769 21.5C6.35769 21.915 6.6841 22.25 7.08846 22.25H9.54871C9.13948 24.3625 8.91538 26.675 8.91538 29.1125C8.91538 31.55 9.13705 33.825 9.55602 35.9775H2.95961C2.05346 33.8775 1.54436 31.555 1.54436 29.1125C1.54436 21.265 6.75231 14.645 13.8091 12.695H13.8042ZM3.69282 37.4775H9.88487C10.3038 39.165 10.8495 40.725 11.5169 42.1025C11.6972 42.4725 12.1356 42.625 12.4962 42.44C12.8567 42.255 13.0053 41.805 12.825 41.435C12.2501 40.25 11.7727 38.9175 11.3927 37.4775H17.3753V46.0975C11.5096 45.835 6.42833 42.425 3.69282 37.4775ZM22.4103 45.53C24.1129 43.7525 25.4868 40.94 26.3394 37.4775H29.6376C30.0419 37.4775 30.3683 37.1425 30.3683 36.7275C30.3683 36.3125 30.0419 35.9775 29.6376 35.9775H26.6682C27.0774 33.8625 27.3015 31.5525 27.3015 29.1125C27.3015 26.6725 27.075 24.3625 26.6682 22.25H33.267C34.1805 24.3775 34.6726 26.7075 34.6726 29.1125C34.6726 36.96 29.4646 43.58 22.4103 45.53Z" fill="url(#paint0_linear_32_594)"/>
</g>
<defs>
<linearGradient id="paint0_linear_32_594" x1="10.8251" y1="9.24751" x2="42.091" y2="34.8101" gradientUnits="userSpaceOnUse">
<stop stop-color="#FEC010"/>
<stop offset="0.7" stop-color="#F06516"/>
<stop offset="1" stop-color="#F03016"/>
</linearGradient>
<clipPath id="clip0_32_594">
<rect width="57" height="48" fill="white"/>
</clipPath>
</defs>
</svg>
