<svg width="44" height="49" viewBox="0 0 44 49" fill="none" xmlns="http://www.w3.org/2000/svg">
<g clip-path="url(#clip0_32_592)">
<path d="M2.97739 48.6387H41.0252C42.6654 48.6387 44.0001 47.2875 44.0001 45.6269V9.86928C44.0001 8.68882 43.0516 7.72615 41.8832 7.72615H36.3929C35.2269 7.72615 34.2761 8.68635 34.2761 9.86928V42.4097H30.2867V22.2405C30.2867 21.0601 29.3383 20.0974 28.1698 20.0974H22.6796C21.5136 20.0974 20.5627 21.0576 20.5627 22.2405V42.4097H16.4658V32.0702C16.4658 30.8898 15.5174 29.9271 14.3489 29.9271H8.85872C7.69272 29.9271 6.74184 30.8873 6.74184 32.0702V43.1522C6.74184 43.563 7.06939 43.8946 7.47517 43.8946C7.88095 43.8946 8.2085 43.563 8.2085 43.1522V32.0702C8.2085 31.7065 8.49939 31.412 8.85872 31.412H14.3489C14.7083 31.412 14.9992 31.7065 14.9992 32.0702V43.1522C14.9992 43.563 15.3267 43.8946 15.7325 43.8946H21.2961C21.7018 43.8946 22.0294 43.563 22.0294 43.1522V22.2405C22.0294 21.8768 22.3203 21.5823 22.6796 21.5823H28.1698C28.5292 21.5823 28.8201 21.8768 28.8201 22.2405V43.1522C28.8201 43.563 29.1476 43.8946 29.5534 43.8946H35.0094C35.4152 43.8946 35.7427 43.563 35.7427 43.1522V9.86928C35.7427 9.50549 36.0336 9.211 36.3929 9.211H41.8832C42.2425 9.211 42.5334 9.50549 42.5334 9.86928V45.6269C42.5334 46.4683 41.8563 47.1538 41.0252 47.1538H2.97739C2.14628 47.1538 1.46917 46.4683 1.46917 45.6269V1.10372C1.46917 0.692914 1.14161 0.361298 0.735836 0.361298C0.330058 0.361298 0.00250244 0.692914 0.00250244 1.10372V45.6244C0.00250244 47.285 1.33717 48.6362 2.97739 48.6362V48.6387Z" fill="url(#paint0_linear_32_592)"/>
</g>
<defs>
<linearGradient id="paint0_linear_32_592" x1="-4.09683" y1="5.77852" x2="44.5282" y2="46.0812" gradientUnits="userSpaceOnUse">
<stop stop-color="#FEC010"/>
<stop offset="0.7" stop-color="#F06516"/>
<stop offset="1" stop-color="#F03016"/>
</linearGradient>
<clipPath id="clip0_32_592">
<rect width="44" height="49" fill="white"/>
</clipPath>
</defs>
</svg>
