<svg width="51" height="50" viewBox="0 0 51 50" fill="none" xmlns="http://www.w3.org/2000/svg">
<g clip-path="url(#clip0_32_596)">
<path d="M50.0328 23.7292H45.7231C45.4566 18.4699 43.1524 13.4537 39.309 9.84027C35.6839 6.43055 31.0916 4.51851 26.1892 4.34027V0.877306C26.1892 0.493047 25.8813 0.182861 25.5 0.182861C25.1186 0.182861 24.8108 0.493047 24.8108 0.877306V4.33564C24.5328 4.3449 24.2549 4.35647 23.9746 4.37731C13.917 5.07407 6.00283 12.9005 5.15512 22.9861C5.13445 23.2338 5.12067 23.4815 5.10918 23.7292H0.964854C0.583503 23.7292 0.275665 24.0393 0.275665 24.4236C0.275665 24.8079 0.583503 25.118 0.964854 25.118H5.0885C5.16661 29.3981 6.56107 33.544 9.11337 36.9792C12.0286 40.8981 16.235 43.6435 20.9605 44.7037C21.3327 44.787 21.7003 44.5509 21.783 44.1759C21.8657 43.8009 21.6313 43.4305 21.2592 43.3472C16.8553 42.3588 12.9315 39.8009 10.2161 36.1458C7.84296 32.9537 6.54499 29.0995 6.46688 25.118H24.8085V48.993C24.8085 49.3773 25.1163 49.6875 25.4977 49.6875C25.879 49.6875 26.1869 49.3773 26.1869 48.993V48.8611C26.1869 46.868 27.5836 45.1829 29.5823 44.7639C38.8312 42.8264 45.5715 34.5972 45.7392 25.118H50.0305C50.4119 25.118 50.7197 24.8079 50.7197 24.4236C50.7197 24.0393 50.4119 23.7292 50.0305 23.7292H50.0328ZM38.3671 10.8542C41.9326 14.2083 44.0736 18.8518 44.3401 23.7292H26.1892V5.72916C30.7401 5.9074 35.0016 7.68749 38.3671 10.8542ZM6.49215 23.7292C6.50364 23.5208 6.51283 23.3125 6.53121 23.1042C7.32148 13.706 14.6981 6.41203 24.0711 5.76388C24.3192 5.74768 24.565 5.73379 24.8108 5.72684V23.7315H6.49215V23.7292ZM29.3043 43.4051C28.05 43.669 26.9726 44.3102 26.1892 45.1991V25.118H44.3631C44.1977 33.9421 37.9192 41.5995 29.3043 43.4051Z" fill="url(#paint0_linear_32_596)"/>
</g>
<defs>
<linearGradient id="paint0_linear_32_596" x1="9.81634" y1="11.5694" x2="41.1538" y2="37.6683" gradientUnits="userSpaceOnUse">
<stop stop-color="#FEC010"/>
<stop offset="0.7" stop-color="#F06516"/>
<stop offset="1" stop-color="#F03016"/>
</linearGradient>
<clipPath id="clip0_32_596">
<rect width="51" height="50" fill="white"/>
</clipPath>
</defs>
</svg>
