<svg width="39" height="50" viewBox="0 0 39 50" fill="none" xmlns="http://www.w3.org/2000/svg">
<g clip-path="url(#clip0_32_600)">
<path d="M37.9824 28.1689C37.5072 28.786 36.6421 29.1194 35.4071 29.1622C34.5397 29.1914 34.5172 29.3108 34.5553 30.5766C34.5666 30.9617 34.58 31.3964 34.5419 31.8604C34.4859 32.5383 34.1833 33.0338 33.7484 33.3694C33.8134 33.4369 33.874 33.509 33.93 33.5878C34.2012 33.9775 34.2774 34.4482 34.1541 34.9437C33.8964 35.982 34.0084 36.9437 34.1048 37.7905C34.2214 38.8086 34.3312 39.7703 33.7238 40.527C33.2352 41.1351 32.4059 41.464 31.0409 41.5946C28.9497 41.7973 27.0221 41.5743 25.6122 41.4099C24.7605 41.3108 23.7048 41.1892 23.4448 41.3108C22.9293 41.8514 22.0103 45.9662 22.4071 47.8198C22.499 48.2545 22.3264 48.6757 21.9341 48.9775C21.1721 49.5608 19.63 49.6802 18.4959 49.6802C18.0072 49.6802 17.5948 49.6577 17.355 49.6419C16.0236 49.5496 13.446 49.2162 11.1531 48.018C8.6181 46.6937 7.32931 44.7478 7.42121 42.3919C7.45931 41.4144 7.81793 40.5901 8.1631 39.7905C8.4881 39.0383 8.79741 38.3266 8.80414 37.5496C8.81983 35.8221 8.12948 34.3378 7.39879 32.768C6.83845 31.5653 6.25793 30.3221 5.98896 28.9234C5.97103 28.8559 5.89258 28.5586 5.80069 28.2207C5.73569 27.973 5.49138 27.8311 5.24258 27.8851C4.17793 28.1284 3.21862 27.9775 2.46552 27.4505C1.54431 26.8086 0.963791 25.6351 0.741894 23.9685C0.519998 22.3311 0.728447 21.0991 1.36276 20.3086C1.80879 19.7523 2.46103 19.4234 3.25 19.3581C3.50552 19.3378 3.73414 19.0743 3.73414 18.9775C2.88465 17.723 3.11776 15.2523 3.14689 14.973C3.185 14.6014 3.51672 14.3311 3.88655 14.3716C4.25638 14.4099 4.5231 14.7433 4.485 15.1149C4.39534 15.9752 4.41552 17.5833 4.85258 18.232C5.12827 18.6419 5.15517 19.1487 4.92879 19.6194C4.64189 20.2162 4.00983 20.6509 3.35759 20.7027C2.93621 20.7365 2.6269 20.8829 2.41172 21.1532C2.02621 21.6351 1.90965 22.5451 2.07776 23.7838C2.2481 25.0608 2.6381 25.9189 3.23655 26.3378C3.6781 26.6464 4.25414 26.723 4.94672 26.5653C5.89931 26.3446 6.84741 26.9144 7.10069 27.8626C7.20827 28.2523 7.29793 28.5946 7.30241 28.6126C7.30465 28.6239 7.30689 28.6351 7.30914 28.6464C7.54448 29.8851 8.06672 31.0068 8.6181 32.1914C9.38241 33.8288 10.1714 35.5225 10.1512 37.5586C10.1422 38.6104 9.76345 39.482 9.3981 40.3266C9.08879 41.0428 8.79517 41.7185 8.76603 42.4437C8.71 43.8559 9.32414 45.8266 12.5697 47.1892C16.0528 48.6509 20.28 48.473 21.0645 47.9482C20.6453 45.5833 21.6652 41.027 22.5998 40.259C23.196 39.768 24.1643 39.8806 25.7669 40.0653C27.1902 40.2297 28.9631 40.4347 30.9131 40.2455C31.8522 40.1554 32.4462 39.964 32.6793 39.6734C32.9326 39.3581 32.8609 38.7342 32.7712 37.9437C32.6659 37.0293 32.5359 35.8919 32.8519 34.6149C32.8922 34.4505 32.8519 34.3896 32.8295 34.3581C32.6726 34.1306 32.1302 33.9572 31.6976 33.9077C31.6931 33.9077 31.6864 33.9077 31.6819 33.9077C31.6774 33.9077 31.6729 33.9077 31.6707 33.9077C31.3166 33.8694 31.0431 33.5563 31.061 33.1982C31.0812 32.8401 31.3659 32.5586 31.7222 32.5586C31.7402 32.5586 31.7626 32.5586 31.7872 32.5608C31.8007 32.5608 31.8164 32.5608 31.8343 32.5653C32.2467 32.5878 33.141 32.5383 33.206 31.7478C33.2374 31.3626 33.2262 30.9842 33.215 30.6194C33.1791 29.4662 33.1321 27.8874 35.3645 27.8131C36.474 27.7748 36.8236 27.4707 36.9222 27.3423C36.9984 27.2432 37.0231 27.1284 36.994 27C36.9738 26.9257 36.8034 26.4572 35.5998 23.9392C34.4231 21.4775 33.7395 18.786 33.5624 15.9437C33.3674 12.7635 32.3633 10.7365 31.7603 9.52478C31.6797 9.36262 31.6057 9.21397 31.5452 9.08334C30.7338 7.36037 26.7666 2.30631 19.4328 1.71848C15.6134 1.40992 8.94534 2.36712 7.32034 6.23874C7.15448 6.63289 6.71517 7.67793 7.07827 8.64415C7.83362 10.6599 11.5453 11.6239 16.1133 10.9932L17.7584 6.63289C17.9333 6.16667 18.3681 5.86712 18.8634 5.86712C19.3588 5.86712 19.7936 6.16667 19.9684 6.63289L21.6114 10.9842L26.2466 11.205C26.7441 11.232 27.161 11.5541 27.3134 12.027C27.4659 12.5 27.3134 13.0068 26.9279 13.3176L23.3103 16.2365L24.5274 20.7275C24.6574 21.2072 24.4826 21.7072 24.0814 22C23.6802 22.2928 23.1534 22.3063 22.7388 22.0338L18.8634 19.482L14.9881 22.0338C14.5734 22.3063 14.0467 22.2951 13.6455 22C13.2443 21.7072 13.0695 21.2072 13.1995 20.7275L14.4165 16.2365L12.8252 14.9527C12.536 14.7185 12.489 14.2928 12.7221 14.0023C12.9552 13.7117 13.3766 13.6644 13.6679 13.8987L15.3422 15.25C15.7098 15.5451 15.8667 16.0315 15.7434 16.4887L14.6116 20.6667L18.2157 18.2928C18.6102 18.0338 19.119 18.0338 19.5112 18.2928L23.1153 20.6667L21.9834 16.4887C21.8602 16.0315 22.0171 15.5473 22.3847 15.25L25.749 12.5338L21.441 12.3288C20.9703 12.3063 20.5602 12.0068 20.3921 11.5631L18.8634 7.51352L17.3348 11.5631C17.1712 11.9932 16.7767 12.2905 16.324 12.3266C11.0343 13.0631 6.81603 11.777 5.81862 9.11938C5.26724 7.64865 5.85672 6.241 6.08086 5.71172C7.995 1.15316 15.1786 0.0180244 19.5381 0.369376C29.0303 1.13289 32.7241 8.43019 32.7578 8.50451C32.816 8.62839 32.8855 8.76802 32.9617 8.92118C33.5669 10.1396 34.6898 12.4054 34.9005 15.8604C35.0664 18.5293 35.7074 21.0496 36.8079 23.3559C38.2133 26.2973 38.2715 26.5676 38.3029 26.7117C38.4172 27.2342 38.3029 27.7523 37.9824 28.1712V28.1689Z" fill="url(#paint0_linear_32_600)"/>
</g>
<defs>
<linearGradient id="paint0_linear_32_600" x1="1.61603" y1="10.6396" x2="35.2383" y2="38.7159" gradientUnits="userSpaceOnUse">
<stop stop-color="#FEC010"/>
<stop offset="0.7" stop-color="#F06516"/>
<stop offset="1" stop-color="#F03016"/>
</linearGradient>
<clipPath id="clip0_32_600">
<rect width="39" height="50" fill="white"/>
</clipPath>
</defs>
</svg>
