<svg width="100" height="100" viewBox="0 0 100 100" fill="none" xmlns="http://www.w3.org/2000/svg">
<g clip-path="url(#clip0_43_20053)">
<mask id="mask0_43_20053" style="mask-type:alpha" maskUnits="userSpaceOnUse" x="0" y="0" width="100" height="100">
<circle cx="50" cy="50" r="50" fill="#D9D9D9"/>
</mask>
<g mask="url(#mask0_43_20053)">
<g filter="url(#filter0_f_43_20053)">
<ellipse cx="9.33063" cy="106.815" rx="89.3297" ry="89.3297" transform="rotate(-30 9.33063 106.815)" fill="#00FFF0"/>
</g>
<g filter="url(#filter1_f_43_20053)">
<path d="M98.528 26.6136C114.885 54.9443 105.178 91.1707 76.8472 107.527C48.5165 123.884 12.2901 114.177 -4.06667 85.8467C-20.4234 57.5159 -10.7166 21.2895 17.6141 4.93279C45.9449 -11.424 82.1712 -1.71714 98.528 26.6136Z" fill="#00F6FF"/>
</g>
<g filter="url(#filter2_f_43_20053)">
<ellipse cx="104.617" cy="19.2313" rx="75.7477" ry="75.5739" transform="rotate(-30 104.617 19.2313)" fill="#C3A6FF"/>
</g>
</g>
</g>
<g clip-path="url(#clip1_43_20053)">
<path d="M35.94 55.5699C35.2 55.5699 34.49 55.1699 34.11 54.4899L32.34 51.3599C31.85 50.4399 32.03 49.3499 32.78 48.6899L35.09 46.6199C35.33 46.3999 35.45 46.0599 35.38 45.7499C35.22 44.8399 35.14 43.9499 35.14 43.0199C35.14 42.0899 35.22 41.2099 35.37 40.2999C35.43 39.9799 35.32 39.6399 35.08 39.4199L32.77 37.3399C32.03 36.6899 31.84 35.5699 32.33 34.6799L34.11 31.5399C34.6 30.6499 35.66 30.2499 36.61 30.5699L39.54 31.5699C39.83 31.6799 40.16 31.6099 40.39 31.4099C41.77 30.2099 43.32 29.2999 44.98 28.6999C45.28 28.5899 45.5 28.3199 45.57 27.9999L46.17 24.9099C46.36 23.9199 47.23 23.1899 48.23 23.1899H51.77C52.78 23.1899 53.64 23.9099 53.83 24.9099L54.43 27.9999C54.49 28.3299 54.72 28.5899 55.03 28.7099C56.69 29.2999 58.23 30.2199 59.61 31.4199C59.85 31.6299 60.16 31.6899 60.45 31.5899L63.39 30.5899C64.35 30.2599 65.4 30.6699 65.89 31.5599L67.66 34.6899C68.15 35.5799 67.96 36.6999 67.22 37.3599L64.91 39.4299C64.67 39.6399 64.55 39.9899 64.62 40.2899C64.78 41.1999 64.86 42.0899 64.86 43.0199C64.86 43.9499 64.78 44.8299 64.63 45.7399C64.57 46.0599 64.68 46.3999 64.92 46.6199L67.23 48.6899C67.97 49.3399 68.16 50.4599 67.67 51.3499L66.78 52.9299C66.62 53.2199 66.25 53.3199 65.96 53.1599C65.67 52.9999 65.57 52.6299 65.73 52.3399L66.62 50.7699C66.83 50.3799 66.75 49.8799 66.43 49.5899L64.11 47.5099C63.55 46.9999 63.3 46.2399 63.44 45.5099C63.58 44.6899 63.65 43.8699 63.65 43.0099C63.65 42.1499 63.58 41.3299 63.43 40.4999C63.28 39.7899 63.54 39.0199 64.1 38.5199L66.41 36.4399C66.74 36.1499 66.82 35.6499 66.6 35.2499L64.83 32.1199C64.61 31.7299 64.17 31.5599 63.76 31.6999L60.83 32.6999C60.14 32.9599 59.35 32.8099 58.79 32.2999C57.53 31.2099 56.11 30.3699 54.59 29.8199C53.88 29.5499 53.37 28.9499 53.23 28.2199L52.63 25.1299C52.55 24.6999 52.18 24.3799 51.75 24.3799H48.21C47.78 24.3799 47.41 24.6899 47.33 25.1199L46.73 28.2099C46.59 28.9499 46.08 29.5499 45.38 29.8099C43.85 30.3599 42.43 31.1999 41.16 32.2999C40.59 32.7999 39.81 32.9399 39.12 32.6899L36.21 31.6999C35.8 31.5599 35.36 31.7299 35.14 32.1199L33.37 35.2599C33.16 35.6499 33.24 36.1499 33.56 36.4399L35.88 38.5199C36.44 39.0299 36.69 39.7899 36.55 40.5099C36.41 41.3299 36.34 42.1499 36.34 43.0099C36.34 43.8699 36.41 44.6899 36.56 45.5199C36.71 46.2299 36.45 46.9999 35.89 47.4999L33.58 49.5799C33.25 49.8699 33.18 50.3699 33.39 50.7699L35.15 53.8899C35.37 54.2799 35.81 54.4499 36.22 54.3099C36.53 54.1999 36.87 54.3699 36.98 54.6899C37.09 54.9999 36.92 55.3499 36.6 55.4499C36.38 55.5299 36.15 55.5599 35.93 55.5599L35.94 55.5699Z" fill="black"/>
<path d="M44.56 52.6101C44.44 52.6101 44.33 52.5801 44.22 52.5101C43.88 52.2801 43.54 52.0101 43.21 51.7301C42.96 51.5101 42.93 51.1301 43.15 50.8801C43.37 50.6301 43.75 50.6101 44 50.8201C44.29 51.0701 44.59 51.3001 44.89 51.5101C45.16 51.7001 45.24 52.0701 45.05 52.3401C44.93 52.5101 44.74 52.6001 44.55 52.6001L44.56 52.6101Z" fill="black"/>
<path d="M42.05 50.1599C41.86 50.1599 41.68 50.0699 41.56 49.9099C41.08 49.2399 40.68 48.5099 40.37 47.7499C40.25 47.4399 40.39 47.0899 40.7 46.9699C41.01 46.8399 41.36 46.9899 41.48 47.2999C41.75 47.9699 42.11 48.6199 42.54 49.2199C42.73 49.4899 42.67 49.8599 42.4 50.0599C42.29 50.1399 42.17 50.1699 42.05 50.1699V50.1599ZM59.86 46.4399C59.86 46.4399 59.78 46.4399 59.74 46.4299C59.42 46.3599 59.21 46.0399 59.28 45.7199C59.42 45.0699 59.49 44.4099 59.49 43.7399V43.5399C59.49 43.2099 59.74 42.9399 60.08 42.9299H60.09C60.42 42.9299 60.68 43.1899 60.69 43.5199V43.7499C60.69 44.4999 60.61 45.2499 60.46 45.9799C60.4 46.2599 60.15 46.4599 59.87 46.4599L59.86 46.4399ZM40.31 45.8799C40.02 45.8799 39.76 45.6699 39.72 45.3699C39.64 44.8299 39.6 44.2899 39.6 43.7399C39.6 43.4599 39.61 43.1799 39.63 42.9099C39.65 42.5799 39.94 42.3299 40.27 42.3599C40.6 42.3899 40.85 42.6699 40.82 42.9999C40.8 43.2499 40.79 43.4899 40.79 43.7399C40.79 44.2299 40.83 44.7099 40.9 45.1899C40.95 45.5199 40.73 45.8199 40.4 45.8699C40.37 45.8699 40.34 45.8699 40.31 45.8699V45.8799ZM59.76 41.8199C59.49 41.8199 59.25 41.6399 59.18 41.3699C59 40.6599 58.73 39.9799 58.39 39.3299C58.23 39.0399 58.35 38.6699 58.64 38.5199C58.93 38.3599 59.3 38.4799 59.45 38.7699C59.84 39.4999 60.14 40.2699 60.34 41.0699C60.42 41.3899 60.23 41.7199 59.91 41.7999C59.86 41.8099 59.81 41.8199 59.76 41.8199ZM40.67 41.2699C40.61 41.2699 40.55 41.2699 40.49 41.2399C40.17 41.1399 40 40.7999 40.1 40.4899C40.35 39.7099 40.7 38.9499 41.12 38.2399C41.29 37.9599 41.66 37.8599 41.94 38.0399C42.22 38.2099 42.31 38.5799 42.14 38.8599C41.76 39.4899 41.46 40.1599 41.23 40.8499C41.15 41.0999 40.91 41.2699 40.66 41.2699H40.67ZM57.6 37.7299C57.43 37.7299 57.27 37.6599 57.15 37.5299C56.67 36.9799 56.12 36.4899 55.53 36.0599C55.26 35.8699 55.2 35.4899 55.39 35.2199C55.58 34.9499 55.96 34.8899 56.23 35.0799C56.9 35.5599 57.52 36.1099 58.06 36.7299C58.28 36.9799 58.25 37.3599 58 37.5799C57.89 37.6799 57.75 37.7299 57.6 37.7299ZM43.06 37.3099C42.91 37.3099 42.76 37.2499 42.64 37.1399C42.4 36.9099 42.4 36.5299 42.64 36.2899C43.22 35.6999 43.87 35.1799 44.56 34.7399C44.84 34.5599 45.21 34.6499 45.39 34.9299C45.57 35.2099 45.48 35.5799 45.2 35.7599C44.58 36.1499 44.01 36.6099 43.49 37.1299C43.37 37.2499 43.22 37.3099 43.06 37.3099ZM53.83 35.0499C53.76 35.0499 53.68 35.0399 53.61 35.0099C52.93 34.7399 52.22 34.5499 51.5 34.4399C51.17 34.3899 50.95 34.0899 50.99 33.7599C51.03 33.4299 51.34 33.2099 51.67 33.2499C52.49 33.3699 53.29 33.5899 54.05 33.8899C54.36 34.0099 54.51 34.3599 54.38 34.6699C54.29 34.8999 54.06 35.0499 53.82 35.0499H53.83ZM46.98 34.8499C46.73 34.8499 46.5 34.6899 46.41 34.4399C46.3 34.1299 46.47 33.7899 46.79 33.6799C47.57 33.4199 48.38 33.2499 49.21 33.1799C49.54 33.1399 49.83 33.3999 49.86 33.7199C49.89 34.0499 49.65 34.3399 49.31 34.3699C48.58 34.4299 47.86 34.5799 47.17 34.8199C47.11 34.8399 47.04 34.8499 46.98 34.8499Z" fill="black"/>
<path d="M58.52 49.7199C58.41 49.7199 58.3 49.6899 58.2 49.6299C57.92 49.4499 57.84 49.0799 58.02 48.7999C58.22 48.4799 58.41 48.1499 58.57 47.8099C58.71 47.5099 59.07 47.3899 59.37 47.5299C59.67 47.6699 59.79 48.0299 59.65 48.3299C59.47 48.7099 59.26 49.0799 59.03 49.4399C58.92 49.6199 58.72 49.7199 58.52 49.7199Z" fill="black"/>
<path d="M46.74 76.7999C46.41 76.7999 46.14 76.5299 46.14 76.1999V73.9499C46.14 73.6799 46.05 73.4199 45.89 73.2299L42.75 69.5199C42.33 69.0299 42 68.4299 41.79 67.7699L38.01 55.8099C37.94 55.5899 38.01 55.3499 38.17 55.1899C38.23 55.1299 39.73 53.7699 41.73 54.2499C43.56 54.6999 45.12 56.5199 46.39 59.6599L46.77 59.1899V43.4299C46.77 41.5999 48.14 40.1099 49.83 40.1099C51.52 40.1099 52.89 41.5999 52.89 43.4299V57.4899C52.89 57.8199 52.62 58.0899 52.29 58.0899C51.96 58.0899 51.69 57.8199 51.69 57.4899V43.4299C51.69 42.2599 50.86 41.3099 49.83 41.3099C48.8 41.3099 47.97 42.2599 47.97 43.4299V59.3999C47.97 59.5399 47.92 59.6699 47.84 59.7799L46.67 61.2299C46.53 61.3999 46.31 61.4799 46.1 61.4499C45.89 61.4099 45.71 61.2599 45.64 61.0599C44.48 57.7599 43.04 55.8099 41.47 55.4199C40.51 55.1799 39.7 55.5799 39.29 55.8499L42.95 67.3999C43.11 67.8999 43.37 68.3599 43.68 68.7399L46.82 72.4499C47.16 72.8499 47.36 73.3799 47.36 73.9399V76.1899C47.36 76.5199 47.09 76.7899 46.76 76.7899L46.74 76.7999Z" fill="black"/>
<path d="M57.39 57.4498C57.06 57.4498 56.79 57.1798 56.79 56.8498V53.2898C56.79 52.1798 55.91 51.2698 54.84 51.2698C53.77 51.2698 52.89 52.1798 52.89 53.2898V56.4998C52.89 56.8298 52.62 57.0998 52.29 57.0998C51.96 57.0998 51.69 56.8298 51.69 56.4998V53.2898C51.69 51.5098 53.1 50.0698 54.84 50.0698C56.58 50.0698 57.99 51.5098 57.99 53.2898V56.8498C57.99 57.1798 57.72 57.4498 57.39 57.4498Z" fill="black"/>
<path d="M62.23 59.8702C61.9 59.8702 61.63 59.6002 61.63 59.2702V54.9802C61.63 53.8202 60.81 52.8802 59.81 52.8802C58.81 52.8802 57.99 53.8202 57.99 54.9802V58.0702C57.99 58.4002 57.72 58.6702 57.39 58.6702C57.06 58.6702 56.79 58.4002 56.79 58.0702V54.9802C56.79 53.1602 58.14 51.6802 59.81 51.6802C61.48 51.6802 62.83 53.1602 62.83 54.9802V59.2702C62.83 59.6002 62.56 59.8702 62.23 59.8702Z" fill="black"/>
<path d="M65 76.8001C64.67 76.8001 64.4 76.5301 64.4 76.2001V74.2901C64.4 74.1801 64.43 74.0801 64.48 73.9901L66.02 71.3401C66.49 70.5401 66.73 69.6201 66.73 68.6901V57.6701C66.73 56.5101 65.85 55.5701 64.78 55.5701C63.71 55.5701 62.83 56.5101 62.83 57.6701C62.83 58.0001 62.56 58.2701 62.23 58.2701C61.9 58.2701 61.63 58.0001 61.63 57.6701C61.63 55.8501 63.04 54.3701 64.78 54.3701C66.52 54.3701 67.93 55.8501 67.93 57.6701V68.6901C67.93 69.8301 67.63 70.9601 67.05 71.9501L65.59 74.4601V76.2101C65.59 76.5401 65.32 76.8101 64.99 76.8101L65 76.8001Z" fill="black"/>
</g>
<defs>
<filter id="filter0_f_43_20053" x="-182.228" y="-84.7433" width="383.116" height="383.116" filterUnits="userSpaceOnUse" color-interpolation-filters="sRGB">
<feFlood flood-opacity="0" result="BackgroundImageFix"/>
<feBlend mode="normal" in="SourceGraphic" in2="BackgroundImageFix" result="shape"/>
<feGaussianBlur stdDeviation="51.1068" result="effect1_foregroundBlur_43_20053"/>
</filter>
<filter id="filter1_f_43_20053" x="-103.475" y="-94.4752" width="301.411" height="301.411" filterUnits="userSpaceOnUse" color-interpolation-filters="sRGB">
<feFlood flood-opacity="0" result="BackgroundImageFix"/>
<feBlend mode="normal" in="SourceGraphic" in2="BackgroundImageFix" result="shape"/>
<feGaussianBlur stdDeviation="45.7312" result="effect1_foregroundBlur_43_20053"/>
</filter>
<filter id="filter2_f_43_20053" x="-17.8517" y="-103.15" width="244.937" height="244.763" filterUnits="userSpaceOnUse" color-interpolation-filters="sRGB">
<feFlood flood-opacity="0" result="BackgroundImageFix"/>
<feBlend mode="normal" in="SourceGraphic" in2="BackgroundImageFix" result="shape"/>
<feGaussianBlur stdDeviation="23.3758" result="effect1_foregroundBlur_43_20053"/>
</filter>
<clipPath id="clip0_43_20053">
<rect width="100" height="100" fill="white"/>
</clipPath>
<clipPath id="clip1_43_20053">
<rect width="60" height="60" fill="white" transform="translate(20 20)"/>
</clipPath>
</defs>
</svg>
