<svg width="84" height="74" viewBox="0 0 84 74" fill="none" xmlns="http://www.w3.org/2000/svg">
<path d="M65.382 72.3394C65.0466 65.2014 64.3027 58.5837 62.7719 56.3348C60.136 52.4476 55.32 52.0047 50.0396 50.4051C48.7926 50.0267 47.2704 48.9259 46.9952 45.9933C50.6674 43.9164 53.2216 39.2423 53.2216 33.8114C53.2216 26.4412 48.526 21.8875 42.7296 21.8875C42.5318 21.8875 42.334 21.8918 42.1362 21.9047C41.9384 21.8918 41.7406 21.8875 41.5428 21.8875C35.7464 21.8875 31.0508 26.4412 31.0508 33.8114C31.0508 39.2423 33.605 43.9164 37.2772 45.9933C37.002 48.9259 35.4798 50.0267 34.2328 50.4051C28.9524 52.0047 24.1364 52.4476 21.5005 56.3348C20.4771 57.8398 19.8063 61.3056 19.372 65.5712C19.3634 65.6572 19.3548 65.7432 19.3462 65.8249" stroke="#FFC000" stroke-width="3" stroke-linecap="round" stroke-linejoin="round"/>
<path d="M11.3697 67.9061L11.3482 67.8846C5.5131 60.9186 2 51.9402 2 42.1362C2 19.9697 19.9697 2 42.1362 2C64.3027 2 82.2724 19.9697 82.2724 42.1362C82.2724 50.8824 79.4774 58.975 74.7259 65.5669" stroke="#FFC000" stroke-width="3" stroke-linecap="round" stroke-linejoin="round"/>
<path d="M19.3721 65.5669C19.0109 70.0776 14.9216 71.4579 11.3483 67.8846" stroke="#FFC000" stroke-width="3" stroke-linecap="round" stroke-linejoin="round"/>
</svg>
