<svg width="88" height="67" viewBox="0 0 88 67" fill="none" xmlns="http://www.w3.org/2000/svg">
<path d="M65.2883 11.9567V39.6334C65.2883 41.7417 63.5633 43.4667 61.455 43.4667H29.3317L16.6817 55.0434V43.4667H5.83333C3.725 43.4667 2 41.7417 2 39.6334V5.36336C2 3.25503 3.725 1.53003 5.83333 1.53003H65.3267" stroke="#FFC000" stroke-width="3" stroke-miterlimit="10" stroke-linecap="round" stroke-linejoin="round"/>
<path d="M65.2883 11.9567H82.27C84.3783 11.9567 86.1033 13.6817 86.1033 15.79V50.06C86.1033 52.1684 84.3783 53.8934 82.27 53.8934H71.3833V65.47L58.7333 53.8934H41.1767C39.0683 53.8934 37.3433 52.1684 37.3433 50.06V48.9867" stroke="#FFC000" stroke-width="3" stroke-miterlimit="10" stroke-linecap="round" stroke-linejoin="round"/>
<path d="M37.2284 32.465C37.075 32.5034 36.9217 32.58 36.8067 32.6184M43.0167 27.405L45.3934 31.2384" stroke="#FFC000" stroke-width="3" stroke-miterlimit="10" stroke-linecap="round" stroke-linejoin="round"/>
<path d="M48.1533 24.6834L46.7733 25.0284" stroke="#FFC000" stroke-width="3" stroke-miterlimit="10" stroke-linecap="round" stroke-linejoin="round"/>
<path d="M48.1533 20.3517L43.745 19.355" stroke="#FFC000" stroke-width="3" stroke-miterlimit="10" stroke-linecap="round" stroke-linejoin="round"/>
<path d="M43.055 17.63L45.4317 13.7967L42.365 10.73" stroke="#FFC000" stroke-width="3" stroke-miterlimit="10" stroke-linecap="round" stroke-linejoin="round"/>
<path d="M35.8484 8.00836H31.4784L30.4817 12.3784" stroke="#FFC000" stroke-width="3" stroke-miterlimit="10" stroke-linecap="round" stroke-linejoin="round"/>
<path d="M24.9617 10.6917L28.795 13.0684C29.0633 12.915 29.3317 12.8 29.6383 12.685" stroke="#FFC000" stroke-width="3" stroke-miterlimit="10" stroke-linecap="round" stroke-linejoin="round"/>
<path d="M23.1984 15.9434L21.8567 13.7967" stroke="#FFC000" stroke-width="3" stroke-miterlimit="10" stroke-linecap="round" stroke-linejoin="round"/>
<path d="M24.2333 17.5917C24.195 17.63 24.195 17.7067 24.1567 17.745" stroke="#FFC000" stroke-width="3" stroke-miterlimit="10" stroke-linecap="round" stroke-linejoin="round"/>
<path d="M19.135 24.645V20.3134" stroke="#FFC000" stroke-width="3" stroke-miterlimit="10" stroke-linecap="round" stroke-linejoin="round"/>
<path d="M21.8567 31.2L23.8117 28.095M31.44 36.9884H35.81L36.6917 33.1934" stroke="#FFC000" stroke-width="3" stroke-miterlimit="10" stroke-linecap="round" stroke-linejoin="round"/>
<path d="M43.745 19.355C43.7067 19.2784 43.7067 19.2017 43.6683 19.125C43.63 18.9717 43.5533 18.8184 43.515 18.7034C43.4383 18.55 43.4 18.3584 43.3233 18.205C43.285 18.09 43.2083 17.975 43.17 17.86C43.1317 17.7834 43.0933 17.7067 43.055 17.6684L45.4317 13.835L42.365 10.7684L38.57 13.145C38.3017 12.9917 38.0333 12.8767 37.7267 12.7617C37.6117 12.7234 37.4583 12.6467 37.3433 12.6084C37.2283 12.57 37.1133 12.5317 37.0367 12.4934C36.9983 12.4934 36.9217 12.455 36.8833 12.455L35.8867 8.04669H31.5167L30.52 12.4167C30.2133 12.4934 29.945 12.6084 29.6383 12.7234C29.37 12.8384 29.0633 12.9917 28.795 13.1067L24.9617 10.73L21.895 13.7967L23.2367 15.9434L24.2717 17.5917C24.2333 17.63 24.2333 17.7067 24.195 17.745C24.1567 17.8217 24.1183 17.8984 24.08 18.0134C23.965 18.205 23.8883 18.435 23.8117 18.665C23.735 18.895 23.6583 19.0867 23.5817 19.3167L19.135 20.3134V24.645L23.505 25.6417C23.6967 26.2167 23.9267 26.7917 24.195 27.3667L21.8183 31.2L24.885 34.2667H24.9233L28.7183 31.89C29.255 32.1584 29.83 32.4267 30.405 32.58L30.5967 33.4234L31.4017 36.9884H35.7717L36.6533 33.1934L36.8067 32.58C36.96 32.5417 37.1133 32.465 37.2283 32.4267C37.3817 32.3884 37.4967 32.3117 37.65 32.2734C37.8033 32.1967 37.9183 32.1584 38.0717 32.0817C38.225 32.005 38.34 31.9667 38.4933 31.89L42.3267 34.305L45.3933 31.2384L43.0167 27.405C43.0933 27.29 43.1317 27.175 43.17 27.06C43.2467 26.9067 43.3233 26.7534 43.4 26.5617C43.4767 26.4084 43.515 26.255 43.5533 26.14C43.5917 26.0634 43.5917 25.9867 43.63 25.91C43.6683 25.8334 43.6683 25.795 43.7067 25.7184L46.735 25.0284L48.115 24.7217V20.39L43.745 19.355Z" stroke="#FFC000" stroke-width="3" stroke-miterlimit="10" stroke-linecap="round" stroke-linejoin="round"/>
<path d="M43.2083 27.06C43.17 27.175 43.0933 27.29 43.055 27.405" stroke="#FFC000" stroke-width="3" stroke-miterlimit="10" stroke-linecap="round" stroke-linejoin="round"/>
<path d="M43.6683 25.91C43.7067 25.8334 43.7067 25.795 43.745 25.7184L46.7733 25.0284" stroke="#FFC000" stroke-width="3" stroke-miterlimit="10" stroke-linecap="round" stroke-linejoin="round"/>
<path d="M43.745 19.355C43.7067 19.2784 43.7067 19.2017 43.6683 19.125C43.63 18.9717 43.5533 18.8184 43.515 18.7034" stroke="#FFC000" stroke-width="3" stroke-miterlimit="10" stroke-linecap="round" stroke-linejoin="round"/>
<path d="M43.3233 18.205C43.285 18.09 43.2083 17.975 43.17 17.86" stroke="#FFC000" stroke-width="3" stroke-miterlimit="10" stroke-linecap="round" stroke-linejoin="round"/>
<path d="M43.17 17.8217C43.1317 17.745 43.0933 17.6684 43.055 17.63" stroke="#FFC000" stroke-width="3" stroke-miterlimit="10" stroke-linecap="round" stroke-linejoin="round"/>
<path d="M38.5317 13.1067L42.365 10.73" stroke="#FFC000" stroke-width="3" stroke-miterlimit="10" stroke-linecap="round" stroke-linejoin="round"/>
<path d="M35.8483 8.00836L36.8833 12.3784C36.9217 12.3784 36.9983 12.4167 37.0367 12.4167" stroke="#FFC000" stroke-width="3" stroke-miterlimit="10" stroke-linecap="round" stroke-linejoin="round"/>
<path d="M24.2334 17.5917L23.1984 15.9434" stroke="#FFC000" stroke-width="3" stroke-miterlimit="10" stroke-linecap="round" stroke-linejoin="round"/>
<path d="M23.7733 18.665C23.6967 18.895 23.62 19.0867 23.5433 19.3167" stroke="#FFC000" stroke-width="3" stroke-miterlimit="10" stroke-linecap="round" stroke-linejoin="round"/>
<path d="M19.135 24.645C19.135 24.684 19.135 24.684 19.135 24.645" stroke="#FFC000" stroke-width="3" stroke-miterlimit="10" stroke-linecap="round" stroke-linejoin="round"/>
<path d="M33.625 26.4084C35.7845 26.4084 37.535 24.6578 37.535 22.4984C37.535 20.3389 35.7845 18.5884 33.625 18.5884C31.4656 18.5884 29.715 20.3389 29.715 22.4984C29.715 24.6578 31.4656 26.4084 33.625 26.4084Z" stroke="#FFC000" stroke-width="3" stroke-miterlimit="10" stroke-linecap="round" stroke-linejoin="round"/>
</svg>
