<svg width="74" height="74" viewBox="0 0 74 74" fill="none" xmlns="http://www.w3.org/2000/svg">
<path d="M14.0018 48.1944C6.49304 50.7117 1.74158 54.4405 1.74158 58.602C1.74158 66.1854 17.526 72.3293 37 72.3293C56.4739 72.3293 72.2584 66.1854 72.2584 58.602C72.2584 53.056 63.8096 48.277 51.6398 46.1097C47.3525 52.0923 42.2785 57.2607 38.3884 61.1508C37.6214 61.9178 36.3785 61.9178 35.6115 61.1508C27.3397 52.879 13.7146 38.8409 13.7146 23.4773C13.7146 7.21297 28.7596 1.6709 37 1.6709C45.2403 1.6709 60.2853 7.21297 60.2853 23.4773C60.2853 28.9643 58.5468 34.2822 55.935 39.2303" stroke="#FFC000" stroke-width="3" stroke-linecap="round" stroke-linejoin="round"/>
<path d="M44.8863 19.6816C45.6022 20.9718 46.0073 22.4586 46.0073 24.0398C46.0073 29.0154 41.9717 33.051 36.9961 33.051C32.0204 33.051 27.9848 29.0154 27.9848 24.0398C27.9848 19.0641 32.0204 15.0285 36.9961 15.0285" stroke="#FFC000" stroke-width="3" stroke-linecap="round" stroke-linejoin="round"/>
</svg>
