<svg width="245" height="204" viewBox="0 0 245 204" fill="none" xmlns="http://www.w3.org/2000/svg">
<g clip-path="url(#clip0_210_1068)">
<path d="M96.0974 96.6856C98.0754 96.6856 99.8814 97.4596 101.257 98.8356C101.773 97.3736 102.547 96.0836 103.407 95.0516C101.429 93.5036 98.9354 92.5576 96.1834 92.5576C89.5614 92.5576 84.3154 97.9756 84.3154 104.598C84.3154 111.22 89.5614 116.638 96.1834 116.638C98.9354 116.638 101.429 115.692 103.407 114.144C102.461 112.94 101.859 111.65 101.257 110.36C99.9674 111.65 98.0754 112.51 96.0974 112.51C91.8834 112.51 88.6154 109.07 88.6154 104.856C88.4434 100.298 91.8834 96.6856 96.0974 96.6856Z" fill="white"/>
<path d="M71.416 88C70.728 88 70.126 88.516 69.696 89.204L58 115.606H62.73L64.278 111.822H78.554L80.274 115.606H85.004L73.136 89.204C72.878 88.516 72.276 88 71.416 88ZM66.342 107.522L71.588 95.74L76.834 107.522H66.342Z" fill="white"/>
<path d="M127.746 104.512C127.746 97.8902 122.758 92.7302 116.394 92.4722C116.394 92.4722 116.394 92.4722 116.222 92.4722C115.964 92.4722 115.964 92.6442 116.05 92.7302C116.05 92.7302 116.05 92.7302 116.05 92.9022C116.48 93.8482 117.512 95.9122 119.49 97.5462C121.898 99.5242 123.446 101.76 123.446 104.684C123.446 108.382 120.694 112.338 115.964 112.338C111.32 112.338 108.482 108.382 108.482 104.684C108.482 101.76 109.944 99.5242 112.438 97.5462C114.416 95.9982 115.448 93.7622 115.878 92.9022C116.05 92.7302 115.878 92.6442 115.706 92.6442C109.256 92.8162 104.096 98.1482 104.096 104.684C104.096 110.102 108.568 116.294 115.878 116.294C119.146 116.294 121.812 115.262 123.962 113.628L126.198 115.778H132.648L126.542 109.844C127.402 108.21 127.746 106.318 127.746 104.512Z" fill="white"/>
<path d="M161.028 92.9023H156.556V115.606H161.028V92.9023Z" fill="white"/>
<path d="M147.785 104.254C147.785 108.984 145.377 111.908 141.593 111.908C137.809 111.908 135.401 108.984 135.401 104.254V92.9023H130.929V104.254C130.929 111.22 135.401 116.294 141.593 116.294C147.785 116.294 152.257 111.306 152.257 104.254V92.9023H147.785V104.254Z" fill="white"/>
<path d="M182.528 92.9019V96.3419L181.754 95.3959C179.604 93.2459 177.368 92.1279 174.788 92.1279C171.778 92.1279 169.284 93.3319 167.306 95.5679C165.328 97.8039 164.296 100.728 164.296 104.168C164.296 107.608 165.328 110.618 167.306 112.854C169.284 115.09 171.95 116.294 174.96 116.294C177.368 116.294 179.69 115.262 181.84 113.284L182.614 112.51V115.692H187.086V92.9019H182.528ZM180.894 110.016C179.604 111.478 177.884 112.252 175.648 112.252C173.67 112.252 171.95 111.478 170.66 109.844C169.37 108.382 168.682 106.404 168.682 104.082C168.682 101.846 169.37 99.9539 170.66 98.4059C171.95 96.8579 173.67 96.1699 175.648 96.1699C177.798 96.1699 179.432 96.9439 180.808 98.4059C182.098 99.9539 182.786 101.846 182.786 104.168C182.786 106.576 182.098 108.554 180.894 110.016Z" fill="white"/>
</g>
<defs>
<clipPath id="clip0_210_1068">
<rect width="129" height="28.466" fill="white" transform="translate(58 88)"/>
</clipPath>
</defs>
</svg>
