<svg width="245" height="204" viewBox="0 0 245 204" fill="none" xmlns="http://www.w3.org/2000/svg">
<g clip-path="url(#clip0_203_1046)">
<path d="M113.452 108.298L111.943 112.95C111.924 113.026 111.879 113.092 111.816 113.138C111.753 113.184 111.676 113.207 111.598 113.203H107.936C107.716 113.203 107.652 113.077 107.686 112.895L113.977 94.7373C114.186 94.1194 114.291 93.4707 114.285 92.8182C114.283 92.7645 114.301 92.7119 114.336 92.6711C114.371 92.6304 114.42 92.6046 114.473 92.5991H119.506C119.663 92.5991 119.725 92.63 119.759 92.7873L126.898 112.92C126.96 113.077 126.929 113.203 126.741 113.203H122.659C122.584 113.216 122.507 113.201 122.443 113.161C122.379 113.12 122.331 113.057 122.31 112.984L120.706 108.298H113.452ZM119.555 104.364C118.938 102.287 117.667 98.483 117.071 96.2491H117.041C116.535 98.3565 115.402 101.803 114.572 104.364H119.555Z" fill="black"/>
<path d="M127.401 105.527C127.401 101.028 130.767 97.2551 136.525 97.2551C136.775 97.2551 137.089 97.2859 137.562 97.3168V91.1213C137.558 91.0917 137.561 91.0617 137.571 91.0335C137.581 91.0054 137.597 90.9798 137.618 90.9587C137.639 90.9376 137.665 90.9216 137.693 90.9118C137.721 90.902 137.751 90.8988 137.781 90.9022H141.745C141.903 90.9022 141.934 90.9639 141.934 91.0904V109.68C141.925 110.447 141.968 111.214 142.06 111.975C142.06 112.133 142.029 112.198 141.841 112.259C139.881 113.092 137.772 113.521 135.642 113.518C130.987 113.518 127.401 110.877 127.401 105.527ZM137.562 101.062C137.187 100.94 136.792 100.886 136.398 100.905C133.976 100.905 131.9 102.383 131.9 105.308C131.9 108.421 133.692 109.776 136.084 109.776C136.583 109.797 137.083 109.733 137.562 109.587V101.062Z" fill="black"/>
<path d="M159.949 105.308C159.949 110.244 156.74 113.518 152.211 113.518C146.83 113.518 144.442 109.461 144.442 105.403C144.442 100.936 147.429 97.2549 152.273 97.2549C157.339 97.2549 159.949 101.062 159.949 105.308ZM148.876 105.339C148.876 108.115 150.165 109.868 152.27 109.868C154.096 109.868 155.478 108.298 155.478 105.403C155.478 102.935 154.473 100.905 152.084 100.905C150.261 100.905 148.876 102.54 148.876 105.339Z" fill="black"/>
<path d="M166.561 90.9019C166.811 90.9019 166.87 90.9327 166.87 91.1518V97.6003C167.731 97.3697 168.619 97.2535 169.511 97.2547C174.139 97.2547 177.061 100.525 177.061 104.74C177.061 110.624 172.405 113.518 167.626 113.518C165.953 113.53 164.288 113.285 162.689 112.793C162.634 112.762 162.587 112.718 162.554 112.663C162.521 112.609 162.503 112.548 162.501 112.484V91.1209C162.501 90.9636 162.563 90.9019 162.72 90.9019H166.561ZM168.721 100.966C168.095 100.959 167.471 101.044 166.87 101.219V109.76C167.251 109.847 167.642 109.888 168.033 109.883C170.424 109.883 172.593 108.436 172.593 105.166C172.599 102.287 170.933 100.966 168.73 100.966H168.721Z" fill="black"/>
<path d="M183.216 106.536C183.374 108.328 184.632 109.806 187.715 109.806C189.04 109.832 190.357 109.585 191.584 109.081C191.679 109.019 191.772 109.05 191.772 109.238V112.228C191.772 112.447 191.71 112.537 191.553 112.605C190.294 113.203 188.912 113.53 186.74 113.53C180.825 113.53 178.752 109.473 178.752 105.573C178.752 101.232 181.424 97.2671 186.363 97.2671C191.112 97.2671 193 100.948 193 104.055C193.022 104.761 192.969 105.467 192.843 106.162C192.838 106.228 192.81 106.29 192.764 106.336C192.717 106.383 192.655 106.411 192.59 106.415C191.513 106.517 190.431 106.559 189.35 106.542L183.216 106.536ZM187.307 103.484C187.832 103.503 188.357 103.482 188.878 103.419V103.2C188.869 102.861 188.792 102.526 188.652 102.216C188.513 101.907 188.312 101.628 188.064 101.396C187.815 101.165 187.523 100.985 187.204 100.868C186.885 100.751 186.545 100.698 186.206 100.713C184.225 100.713 183.374 102.194 183.185 103.49L187.307 103.484Z" fill="black"/>
<path d="M78.9575 84H94.1777V120.442L78.9575 84Z" fill="black"/>
<path d="M68.2326 84H53V120.442L68.2326 84Z" fill="black"/>
<path d="M73.595 97.4307L83.2924 120.442H76.9365L74.0362 113.114H66.9398L73.595 97.4307Z" fill="black"/>
</g>
<defs>
<clipPath id="clip0_203_1046">
<rect width="140" height="36.4417" fill="white" transform="translate(53 84)"/>
</clipPath>
</defs>
</svg>
