<svg width="245" height="204" viewBox="0 0 245 204" fill="none" xmlns="http://www.w3.org/2000/svg">
<path d="M102.363 94.5463C102.363 95.6538 102.483 96.5518 102.692 97.2103C102.932 97.8689 103.231 98.5872 103.65 99.3655C103.8 99.605 103.859 99.8444 103.859 100.054C103.859 100.353 103.68 100.653 103.291 100.952L101.405 102.209C101.136 102.389 100.866 102.479 100.627 102.479C100.327 102.479 100.028 102.329 99.7287 102.059C99.3096 101.61 98.9504 101.132 98.6511 100.653C98.3518 100.144 98.0524 99.575 97.7232 98.8866C95.3884 101.64 92.4549 103.017 88.9228 103.017C86.4085 103.017 84.403 102.299 82.9362 100.862C81.4695 99.4254 80.7212 97.5097 80.7212 95.115C80.7212 92.5707 81.6192 90.5053 83.4451 88.9488C85.271 87.3923 87.6956 86.614 90.7787 86.614C91.7964 86.614 92.8441 86.7038 93.9516 86.8535C95.0591 87.0032 96.1966 87.2426 97.3939 87.512V85.3269C97.3939 83.052 96.915 81.4655 95.987 80.5376C95.0292 79.6097 93.4128 79.1607 91.108 79.1607C90.0603 79.1607 88.9827 79.2804 87.8752 79.5498C86.7677 79.8192 85.6901 80.1485 84.6424 80.5675C84.1635 80.7771 83.8043 80.8968 83.5948 80.9567C83.3852 81.0165 83.2356 81.0465 83.1158 81.0465C82.6968 81.0465 82.4872 80.7471 82.4872 80.1186V78.6518C82.4872 78.1729 82.5471 77.8137 82.6968 77.6042C82.8464 77.3946 83.1158 77.1851 83.5349 76.9756C84.5826 76.4368 85.8397 75.9878 87.3065 75.6286C88.7732 75.2395 90.3297 75.0599 91.976 75.0599C95.5381 75.0599 98.1422 75.8681 99.8185 77.4844C101.465 79.1008 102.303 81.5553 102.303 84.848V94.5463H102.363ZM90.21 99.0961C91.1978 99.0961 92.2155 98.9165 93.2931 98.5573C94.3707 98.1981 95.3285 97.5396 96.1367 96.6416C96.6156 96.0729 96.9748 95.4443 97.1544 94.7259C97.334 94.0075 97.4538 93.1394 97.4538 92.1217V90.8645C96.5857 90.655 95.6578 90.4754 94.6999 90.3557C93.7421 90.2359 92.8141 90.1761 91.8862 90.1761C89.8807 90.1761 88.414 90.5652 87.4262 91.3734C86.4384 92.1816 85.9595 93.319 85.9595 94.8157C85.9595 96.2225 86.3187 97.2702 87.067 97.9886C87.7854 98.7369 88.833 99.0961 90.21 99.0961ZM114.246 102.329C113.707 102.329 113.348 102.239 113.109 102.03C112.869 101.85 112.66 101.431 112.48 100.862L105.446 77.7239C105.266 77.1252 105.176 76.7361 105.176 76.5266C105.176 76.0477 105.416 75.7783 105.895 75.7783H108.828C109.397 75.7783 109.786 75.8681 109.996 76.0776C110.235 76.2572 110.415 76.6763 110.594 77.245L115.623 97.0607L120.293 77.245C120.442 76.6463 120.622 76.2572 120.861 76.0776C121.101 75.898 121.52 75.7783 122.059 75.7783H124.453C125.022 75.7783 125.411 75.8681 125.651 76.0776C125.89 76.2572 126.1 76.6763 126.219 77.245L130.949 97.3001L136.127 77.245C136.307 76.6463 136.516 76.2572 136.726 76.0776C136.965 75.898 137.355 75.7783 137.893 75.7783H140.677C141.156 75.7783 141.425 76.0177 141.425 76.5266C141.425 76.6763 141.395 76.8259 141.366 77.0055C141.336 77.1851 141.276 77.4246 141.156 77.7538L133.942 100.892C133.763 101.491 133.553 101.88 133.314 102.059C133.074 102.239 132.685 102.359 132.176 102.359H129.602C129.033 102.359 128.644 102.269 128.405 102.059C128.165 101.85 127.956 101.461 127.836 100.862L123.196 81.5553L118.587 100.832C118.437 101.431 118.257 101.82 118.018 102.03C117.778 102.239 117.359 102.329 116.82 102.329H114.246ZM152.71 103.137C151.154 103.137 149.597 102.957 148.1 102.598C146.604 102.239 145.436 101.85 144.658 101.401C144.179 101.132 143.85 100.832 143.73 100.563C143.611 100.293 143.551 99.9941 143.551 99.7247V98.1981C143.551 97.5695 143.79 97.2702 144.239 97.2702C144.419 97.2702 144.598 97.3001 144.778 97.36C144.958 97.4199 145.227 97.5396 145.526 97.6593C146.544 98.1083 147.651 98.4675 148.819 98.707C150.016 98.9464 151.184 99.0662 152.381 99.0662C154.267 99.0662 155.733 98.7369 156.751 98.0784C157.769 97.4199 158.308 96.462 158.308 95.2347C158.308 94.3966 158.038 93.7082 157.499 93.1394C156.961 92.5707 155.943 92.0618 154.476 91.5829L150.136 90.2359C147.951 89.5475 146.334 88.5297 145.347 87.1828C144.359 85.8657 143.85 84.399 143.85 82.8425C143.85 81.5853 144.119 80.4777 144.658 79.5199C145.197 78.562 145.915 77.7239 146.813 77.0654C147.711 76.3769 148.729 75.8681 149.926 75.5089C151.124 75.1497 152.381 75 153.698 75C154.356 75 155.045 75.0299 155.703 75.1197C156.392 75.2095 157.021 75.3293 157.649 75.449C158.248 75.5987 158.817 75.7483 159.355 75.9279C159.894 76.1075 160.313 76.2871 160.613 76.4667C161.032 76.7062 161.331 76.9456 161.51 77.215C161.69 77.4545 161.78 77.7838 161.78 78.2028V79.6097C161.78 80.2383 161.54 80.5675 161.091 80.5675C160.852 80.5675 160.463 80.4478 159.954 80.2084C158.248 79.4301 156.332 79.041 154.207 79.041C152.501 79.041 151.154 79.3104 150.226 79.8791C149.298 80.4478 148.819 81.3159 148.819 82.5431C148.819 83.3813 149.118 84.0996 149.717 84.6684C150.316 85.2371 151.423 85.8058 153.01 86.3147L157.26 87.6617C159.415 88.3501 160.972 89.308 161.9 90.5353C162.828 91.7625 163.277 93.1694 163.277 94.7259C163.277 96.013 163.007 97.1804 162.498 98.1981C161.959 99.2158 161.241 100.114 160.313 100.832C159.385 101.581 158.278 102.119 156.991 102.508C155.644 102.928 154.237 103.137 152.71 103.137Z" fill="white"/>
<path fill-rule="evenodd" clip-rule="evenodd" d="M158.368 117.685C148.52 124.958 134.212 128.82 121.909 128.82C104.668 128.82 89.1325 122.444 77.3987 111.848C76.4708 111.01 77.3089 109.872 78.4164 110.531C91.1081 117.894 106.763 122.354 122.957 122.354C133.882 122.354 145.886 120.079 156.931 115.41C158.577 114.661 159.984 116.487 158.368 117.685Z" fill="white"/>
<path fill-rule="evenodd" clip-rule="evenodd" d="M162.469 113.015C161.211 111.399 154.147 112.237 150.944 112.626C149.986 112.746 149.837 111.908 150.705 111.279C156.332 107.328 165.582 108.465 166.659 109.782C167.737 111.129 166.36 120.379 161.092 124.809C160.283 125.497 159.505 125.138 159.864 124.24C161.062 121.277 163.726 114.602 162.469 113.015Z" fill="white"/>
</svg>
