<svg width="244" height="204" viewBox="0 0 244 204" fill="none" xmlns="http://www.w3.org/2000/svg">
<g clip-path="url(#clip0_202_1010)">
<path d="M102.363 94.5337C102.333 95.4368 102.447 96.339 102.702 97.2062C102.964 97.9483 103.288 98.6671 103.671 99.355C103.8 99.559 103.872 99.7934 103.881 100.034C103.864 100.219 103.803 100.397 103.703 100.554C103.603 100.71 103.467 100.84 103.306 100.932L101.421 102.186C101.188 102.346 100.915 102.438 100.634 102.449C100.463 102.444 100.296 102.405 100.141 102.333C99.987 102.261 99.849 102.158 99.7357 102.03C99.319 101.616 98.9579 101.149 98.6613 100.642C98.3661 100.137 98.0608 99.5525 97.7456 98.8881C95.4053 101.647 92.4724 103.027 88.947 103.027C86.4331 103.027 84.4429 102.311 82.9765 100.878C81.5101 99.4457 80.7769 97.5254 80.7769 95.1173C80.7769 92.5715 81.6846 90.5205 83.5002 88.9642C85.3158 87.408 87.7599 86.6309 90.8324 86.6329C91.8921 86.6359 92.9503 86.715 93.9987 86.8693C95.1 87.025 96.2442 87.2424 97.4313 87.5218V85.3251C97.4313 83.0546 96.9595 81.4585 96.0158 80.5368C95.0721 79.615 93.448 79.1491 91.1436 79.1392C90.0576 79.1428 88.9757 79.2744 87.9205 79.5312C86.8274 79.7931 85.7551 80.1352 84.7123 80.5547C84.3729 80.7102 84.0229 80.8412 83.6648 80.9468C83.5118 80.9915 83.3542 81.0186 83.195 81.0276C82.776 81.0276 82.5665 80.7133 82.5665 80.0848V78.6184C82.5371 78.2566 82.6096 77.8937 82.776 77.571C82.999 77.2954 83.2869 77.0794 83.614 76.9425C84.8207 76.3601 86.0844 75.9038 87.3848 75.5808C88.9055 75.1876 90.4707 74.9924 92.0414 75.0002C95.6028 75.0002 98.2124 75.8122 99.8704 77.4363C101.528 79.0603 102.358 81.5134 102.36 84.7954L102.363 94.5337ZM90.2129 99.0916C91.2656 99.0786 92.309 98.8926 93.3014 98.5409C94.3978 98.1671 95.3742 97.5069 96.1295 96.6286C96.6133 96.08 96.9627 95.4263 97.15 94.7192C97.3611 93.8719 97.4617 93.0007 97.4493 92.1275V90.8676C96.5422 90.6525 95.624 90.4867 94.699 90.3708C93.7699 90.2522 92.8344 90.1912 91.8978 90.1883C89.9027 90.1883 88.4183 90.5873 87.4446 91.3854C86.471 92.1834 85.9822 93.3356 85.9782 94.8419C85.9782 96.2385 86.3453 97.295 87.0795 98.0112C87.8137 98.7275 88.8582 99.0876 90.2129 99.0916ZM114.25 102.339C113.844 102.367 113.439 102.262 113.098 102.039C112.778 101.716 112.559 101.306 112.47 100.86L105.452 77.7116C105.32 77.3238 105.232 76.9222 105.191 76.5145C105.177 76.4149 105.186 76.3132 105.217 76.2176C105.249 76.122 105.303 76.0351 105.374 75.9638C105.445 75.8926 105.532 75.839 105.628 75.8073C105.723 75.7756 105.825 75.7667 105.925 75.7813H108.858C109.272 75.746 109.686 75.8514 110.034 76.0806C110.335 76.4121 110.541 76.8182 110.632 77.2567L115.66 97.0566L120.326 77.2627C120.466 76.6642 120.658 76.2781 120.903 76.0866C121.26 75.8608 121.679 75.7558 122.1 75.7873H124.509C124.93 75.7569 125.35 75.8617 125.707 76.0866C125.948 76.2861 126.139 76.6781 126.281 77.2627L130.995 97.3139L136.181 77.2627C136.271 76.8238 136.477 76.4173 136.78 76.0866C137.128 75.8569 137.543 75.7515 137.959 75.7873H140.733C140.833 75.7727 140.934 75.7816 141.03 75.8133C141.126 75.845 141.212 75.8986 141.284 75.9698C141.355 76.0411 141.408 76.1279 141.44 76.2236C141.472 76.3192 141.481 76.4209 141.466 76.5205C141.464 76.6784 141.447 76.8357 141.415 76.9904C141.359 77.2386 141.29 77.4834 141.206 77.7236L133.978 100.872C133.886 101.318 133.668 101.727 133.35 102.051C133.009 102.274 132.604 102.379 132.198 102.351H129.63C129.207 102.388 128.783 102.277 128.433 102.036C128.125 101.704 127.924 101.287 127.855 100.839L123.196 81.5692L118.587 100.839C118.518 101.287 118.317 101.704 118.009 102.036C117.658 102.276 117.235 102.387 116.812 102.351L114.25 102.339ZM152.692 103.126C151.141 103.127 149.594 102.951 148.083 102.602C146.882 102.363 145.719 101.96 144.626 101.405C144.287 101.274 143.997 101.04 143.798 100.736C143.599 100.431 143.5 100.072 143.516 99.7081V98.2117C143.516 97.5863 143.741 97.272 144.196 97.272C144.384 97.2736 144.57 97.3091 144.746 97.3768C144.938 97.4456 145.192 97.5504 145.506 97.676C146.562 98.1457 147.666 98.497 148.798 98.7235C149.97 98.9673 151.163 99.0906 152.36 99.0916C154.245 99.0916 155.703 98.7604 156.732 98.098C157.219 97.8074 157.619 97.392 157.891 96.8947C158.163 96.3974 158.297 95.8364 158.279 95.2699C158.29 94.884 158.224 94.4998 158.084 94.14C157.945 93.7802 157.734 93.4521 157.465 93.175C156.925 92.6164 155.921 92.0926 154.455 91.6038L150.109 90.2421C147.914 89.5418 146.318 88.5283 145.321 87.2015C144.353 85.9594 143.827 84.4306 143.824 82.8561C143.8 81.696 144.08 80.5498 144.635 79.5312C145.176 78.5727 145.906 77.7345 146.781 77.0682C147.717 76.3666 148.774 75.8431 149.9 75.524C151.125 75.1701 152.395 74.9938 153.67 75.0002C154.344 75.0014 155.017 75.0454 155.685 75.1319C156.367 75.2197 157.013 75.3334 157.624 75.4731C158.222 75.6107 158.803 75.7723 159.327 75.9429C159.76 76.0809 160.181 76.2561 160.584 76.4667C160.93 76.6472 161.235 76.8968 161.481 77.1999C161.671 77.4966 161.763 77.8449 161.745 78.1964V79.609C161.745 80.2375 161.517 80.5517 161.062 80.5517C160.659 80.5044 160.268 80.3805 159.91 80.1866C158.094 79.3964 156.13 79.0036 154.149 79.0344C152.437 79.0344 151.111 79.3127 150.169 79.8694C149.227 80.426 148.756 81.3169 148.756 82.5419C148.75 82.9386 148.826 83.3323 148.981 83.6977C149.136 84.0631 149.365 84.3922 149.654 84.6637C150.253 85.2383 151.35 85.788 152.946 86.3127L157.187 87.6744C159.352 88.3747 160.897 89.3353 161.823 90.5564C162.741 91.7582 163.23 93.2335 163.211 94.7462C163.23 95.9525 162.96 97.1458 162.424 98.2267C161.902 99.2566 161.16 100.16 160.251 100.872C159.261 101.639 158.132 102.208 156.927 102.548C155.55 102.943 154.124 103.138 152.692 103.126Z" fill="#232F3E"/>
<path fill-rule="evenodd" clip-rule="evenodd" d="M158.354 117.679C148.499 124.948 134.215 128.815 121.912 128.815C104.674 128.815 89.1475 122.443 77.4011 111.834C76.4763 111.002 77.2993 109.865 78.4096 110.509C91.0838 117.886 106.76 122.327 122.947 122.327C134.619 122.27 146.165 119.908 156.921 115.375C158.585 114.671 159.976 116.467 158.354 117.679Z" fill="#232F3E"/>
<path fill-rule="evenodd" clip-rule="evenodd" d="M162.454 112.995C161.191 111.382 154.122 112.232 150.947 112.612C149.983 112.729 149.834 111.888 150.702 111.278C156.343 107.315 165.585 108.461 166.659 109.781C167.733 111.101 166.375 120.384 161.089 124.805C160.275 125.487 159.5 125.122 159.862 124.224C161.051 121.255 163.714 114.611 162.454 112.995Z" fill="#232F3E"/>
</g>
<defs>
<clipPath id="clip0_202_1010">
<rect width="90" height="53.815" fill="white" transform="translate(77 75)"/>
</clipPath>
</defs>
</svg>
