<svg width="245" height="204" viewBox="0 0 245 204" fill="none" xmlns="http://www.w3.org/2000/svg">
<path fill-rule="evenodd" clip-rule="evenodd" d="M91.8744 105.281C91.2744 104.481 90.2744 103.781 89.0744 103.781C86.8744 103.781 85.1744 105.481 85.1744 107.881C85.1744 110.181 86.7744 111.981 89.0744 111.981C90.0744 111.981 91.0744 111.481 91.5744 111.081L91.6744 110.981V109.681C91.6744 109.581 91.5744 109.581 91.5744 109.581H88.6744C88.5744 109.581 88.4744 109.481 88.4744 109.381V107.481C88.4744 107.381 88.5744 107.281 88.6744 107.281H93.8744V104.481L92.1744 105.381C92.0744 105.381 91.8744 105.381 91.8744 105.281ZM67.5744 106.581H70.6744C71.5744 106.581 72.0744 106.081 72.0744 105.281C72.0744 104.481 71.4744 103.981 70.6744 103.981H67.5744C67.4744 103.981 67.3744 104.081 67.3744 104.181V106.381C67.3744 106.481 67.4744 106.581 67.5744 106.581ZM80.0744 113.881C80.0744 113.981 79.9744 114.081 79.8744 114.081H77.5744C77.4744 114.081 77.3744 113.981 77.3744 113.881V101.881C77.3744 101.781 77.4744 101.681 77.5744 101.681H79.9744C80.0744 101.681 80.1744 101.781 80.1744 101.881V113.881H80.0744ZM70.6744 101.681H71.2744C73.5744 101.681 74.7744 103.181 74.7744 104.881C74.7744 106.181 74.0744 107.081 73.1744 107.581C73.0744 107.681 73.0744 107.881 73.1744 107.881C74.1744 108.281 74.9744 109.481 74.9744 110.781C74.9744 112.681 73.7744 114.181 71.3744 114.181H64.9744C64.8744 114.181 64.7744 114.081 64.7744 113.981V105.981L48.1744 118.281C47.8744 118.481 47.9744 118.981 48.3744 118.981H93.3744C93.5744 118.981 93.7744 118.781 93.7744 118.581V112.381C92.5744 113.481 90.9744 114.181 89.0744 114.181C85.4744 114.181 82.5744 111.681 82.5744 107.781C82.5744 103.881 85.4744 101.381 89.0744 101.381C91.3744 101.381 92.8744 102.381 93.7744 103.681V85.3805C93.7744 85.0805 93.3744 84.8805 93.0744 85.0805L70.6744 101.681ZM67.5744 111.681H70.7744C71.7744 111.681 72.3744 111.181 72.3744 110.281C72.3744 109.481 71.7744 108.881 70.7744 108.881H67.5744C67.4744 108.881 67.3744 108.981 67.3744 109.081V111.481C67.3744 111.681 67.4744 111.681 67.5744 111.681ZM106.874 111.381L105.474 110.681C105.374 110.681 105.274 110.681 105.174 110.781C104.574 111.681 103.474 112.381 102.274 112.381C99.9744 112.381 98.1744 110.481 98.1744 107.881C98.1744 105.281 99.8744 103.381 102.274 103.381C103.474 103.381 104.574 104.081 105.174 104.981C105.274 105.081 105.374 105.081 105.474 105.081L106.874 104.281C106.974 104.181 106.974 104.081 106.974 103.981C106.074 102.581 104.674 101.381 102.374 101.381C98.8744 101.381 96.1744 103.981 96.1744 107.781C96.1744 111.581 98.8744 114.181 102.374 114.181C104.674 114.181 106.074 112.981 106.974 111.581C106.974 111.581 106.974 111.381 106.874 111.381ZM114.174 112.381C111.774 112.381 110.274 110.481 110.274 107.881C110.274 105.281 111.774 103.381 114.174 103.381C116.574 103.381 118.074 105.281 118.074 107.881C118.074 110.381 116.574 112.381 114.174 112.381ZM112.474 101.681C109.874 102.381 108.074 104.781 108.074 107.881C108.074 111.581 110.574 114.281 114.074 114.281C117.074 114.281 119.374 112.281 119.974 109.381C121.074 104.681 116.974 100.481 112.474 101.681ZM134.974 101.681H132.274C132.174 101.681 132.074 101.781 131.974 101.881L128.674 110.381L125.374 101.881C125.374 101.781 125.174 101.681 125.074 101.681H122.374C122.274 101.681 122.274 101.781 122.274 101.781V113.881C122.274 113.981 122.374 113.981 122.374 113.981H124.274C124.374 113.981 124.374 113.881 124.374 113.881V104.481L128.074 113.981L128.174 114.081H128.974C128.974 114.081 129.074 114.081 129.074 113.981L132.774 104.481V113.881C132.774 113.981 132.874 113.981 132.874 113.981H134.974C135.074 113.981 135.074 113.881 135.074 113.881V101.781C135.074 101.681 134.974 101.681 134.974 101.681ZM162.374 101.681H154.474C154.374 101.681 154.274 101.781 154.274 101.881V113.781C154.274 113.881 154.374 113.981 154.474 113.981H162.374C162.474 113.981 162.574 113.881 162.574 113.781V112.281C162.574 112.181 162.474 112.081 162.374 112.081H156.574C156.474 112.081 156.374 111.981 156.374 111.881V108.881C156.374 108.781 156.474 108.681 156.574 108.681H162.274C162.374 108.681 162.474 108.581 162.474 108.481V106.981C162.474 106.881 162.374 106.781 162.274 106.781H156.574C156.474 106.781 156.374 106.681 156.374 106.581V103.881C156.374 103.781 156.474 103.681 156.574 103.681H162.374C162.474 103.681 162.574 103.581 162.574 103.481V101.981C162.574 101.781 162.474 101.681 162.374 101.681ZM170.774 107.481H168.074C167.974 107.481 167.874 107.381 167.874 107.281V103.781C167.874 103.681 167.974 103.581 168.074 103.581H170.774C171.974 103.581 172.874 104.381 172.874 105.481C172.874 106.681 171.974 107.481 170.774 107.481ZM172.474 109.081C173.874 108.781 175.074 107.581 175.074 105.481C175.074 103.181 173.474 101.581 171.074 101.581H165.874C165.774 101.581 165.674 101.681 165.674 101.781V113.681C165.674 113.781 165.774 113.881 165.874 113.881H167.574C167.674 113.881 167.774 113.781 167.774 113.681V109.481C167.774 109.381 167.874 109.281 167.974 109.281H169.774C169.874 109.281 169.874 109.281 169.974 109.381L172.574 113.781C172.574 113.881 172.674 113.881 172.774 113.881H174.774C174.974 113.881 175.074 113.681 174.974 113.581C174.374 112.681 172.874 110.181 172.374 109.281C172.274 109.281 172.274 109.181 172.474 109.081ZM191.974 103.581H197.774C197.874 103.581 197.974 103.481 197.974 103.381V101.881C197.974 101.781 197.874 101.681 197.774 101.681H189.774C189.674 101.681 189.574 101.781 189.574 101.881V113.781C189.574 113.881 189.674 113.981 189.774 113.981H197.774C197.874 113.981 197.974 113.881 197.974 113.781V112.281C197.974 112.181 197.874 112.081 197.774 112.081H191.974C191.874 112.081 191.774 111.981 191.774 111.881V108.881C191.774 108.781 191.874 108.681 191.974 108.681H197.674C197.774 108.681 197.874 108.581 197.874 108.481V106.981C197.874 106.881 197.774 106.781 197.674 106.781H191.974C191.874 106.781 191.774 106.681 191.774 106.581V103.781C191.774 103.681 191.874 103.581 191.974 103.581ZM187.374 111.281L185.974 110.581C185.874 110.581 185.774 110.581 185.674 110.681C185.074 111.581 183.974 112.281 182.774 112.281C180.474 112.281 178.674 110.381 178.674 107.781C178.674 105.181 180.374 103.281 182.774 103.281C183.974 103.281 185.074 103.981 185.674 104.881C185.774 104.981 185.874 104.981 185.974 104.981L187.374 104.181C187.474 104.081 187.474 103.981 187.474 103.881C186.574 102.481 185.174 101.281 182.874 101.281C179.374 101.281 176.674 103.881 176.674 107.681C176.674 111.481 179.374 114.081 182.874 114.081C185.174 114.081 186.574 112.881 187.474 111.481C187.574 111.481 187.474 111.381 187.374 111.281ZM150.774 101.681H148.074C147.974 101.681 147.874 101.781 147.774 101.881L144.474 110.381L141.174 101.881C141.174 101.781 140.974 101.681 140.874 101.681H138.174C138.074 101.681 138.074 101.781 138.074 101.781V113.881C138.074 113.981 138.174 113.981 138.174 113.981H140.074C140.174 113.981 140.174 113.881 140.174 113.881V104.481L143.874 113.981L143.974 114.081H144.974C144.974 114.081 145.074 114.081 145.074 113.981L148.774 104.481V113.881C148.774 113.981 148.874 113.981 148.874 113.981H150.774C150.874 113.981 150.874 113.881 150.874 113.881V101.781C150.974 101.681 150.874 101.681 150.774 101.681Z" fill="#002D5E"/>
</svg>
