<svg width="245" height="204" viewBox="0 0 245 204" fill="none" xmlns="http://www.w3.org/2000/svg">
<g clip-path="url(#clip0_209_990)">
<path d="M72.3002 99.7002C72.3002 99.8002 72.3002 99.8002 72.3002 99.9002C72.3002 100 72.2002 100 72.2002 100.1C72.2002 100.1 72.1002 100.2 72.0002 100.2C71.9002 100.2 71.9002 100.2 71.8002 100.2H62.7002C62.6002 100.2 62.6002 100.2 62.5002 100.2C62.4002 100.2 62.4002 100.1 62.3002 100.1C62.3002 100.1 62.2002 100 62.2002 99.9002C62.2002 99.8002 62.2002 99.8002 62.2002 99.7002V98.7002C62.2002 98.6002 62.2002 98.6002 62.2002 98.5002C62.2002 98.4002 62.3002 98.4002 62.3002 98.3002C62.3002 98.3002 62.4002 98.2002 62.5002 98.2002C62.6002 98.2002 62.6002 98.2002 62.7002 98.2002H71.8002C71.9002 98.2002 71.9002 98.2002 72.0002 98.2002C72.1002 98.2002 72.1002 98.3002 72.2002 98.3002C72.2002 98.3002 72.3002 98.4002 72.3002 98.5002C72.3002 98.6002 72.3002 98.6002 72.3002 98.7002V99.7002Z" fill="#E74C3D"/>
<path d="M76.3001 102.7C76.3001 102.8 76.3001 102.8 76.3001 102.9C76.3001 103 76.2001 103 76.2001 103.1C76.2001 103.1 76.1001 103.2 76.0001 103.2C75.9001 103.2 75.9001 103.2 75.8001 103.2H64.6001C64.5001 103.2 64.5001 103.2 64.4001 103.2C64.3001 103.2 64.3001 103.1 64.2001 103.1C64.2001 103.1 64.1001 103 64.1001 102.9C64.1001 102.8 64.1001 102.8 64.1001 102.7V101.6C64.1001 101.5 64.1001 101.5 64.1001 101.4C64.1001 101.3 64.2001 101.3 64.2001 101.2C64.2001 101.2 64.3001 101.1 64.4001 101.1C64.5001 101.1 64.5001 101.1 64.6001 101.1H75.7001C75.8001 101.1 75.8001 101.1 75.9001 101.1C76.0001 101.1 76.0001 101.2 76.1001 101.2C76.1001 101.2 76.2001 101.3 76.2001 101.4C76.2001 101.5 76.2001 101.5 76.2001 101.6L76.3001 102.7Z" fill="#E74C3D"/>
<path d="M79.4002 105.8C79.4002 105.9 79.4002 105.9 79.4002 106C79.4002 106.1 79.3002 106.1 79.3002 106.2C79.3002 106.2 79.2002 106.3 79.1002 106.3C79.0002 106.3 79.0002 106.3 78.9002 106.3H66.7002C66.6002 106.3 66.6002 106.3 66.5002 106.3C66.4002 106.3 66.4002 106.2 66.3002 106.2C66.3002 106.2 66.2002 106.1 66.2002 106C66.2002 105.9 66.2002 105.9 66.2002 105.8V104.7C66.2002 104.6 66.2002 104.6 66.2002 104.5C66.2002 104.4 66.3002 104.4 66.3002 104.3C66.3002 104.3 66.4002 104.2 66.5002 104.2C66.6002 104.2 66.6002 104.2 66.7002 104.2H78.9002C79.0002 104.2 79.0002 104.2 79.1002 104.2C79.2002 104.2 79.2002 104.3 79.3002 104.3C79.3002 104.3 79.4002 104.4 79.4002 104.5C79.4002 104.6 79.4002 104.6 79.4002 104.7V105.8Z" fill="#E74C3D"/>
<path d="M79.4002 108.9C79.4002 109 79.4002 109 79.4002 109.1C79.4002 109.2 79.3002 109.2 79.3002 109.3C79.3002 109.3 79.2002 109.4 79.1002 109.4C79.0002 109.4 79.0002 109.4 78.9002 109.4H66.7002C66.6002 109.4 66.6002 109.4 66.5002 109.4C66.4002 109.4 66.4002 109.3 66.3002 109.3C66.3002 109.3 66.2002 109.2 66.2002 109.1C66.2002 109 66.2002 109 66.2002 108.9V107.8C66.2002 107.7 66.2002 107.7 66.2002 107.6C66.2002 107.5 66.3002 107.5 66.3002 107.4C66.3002 107.4 66.4002 107.3 66.5002 107.3C66.6002 107.3 66.6002 107.3 66.7002 107.3H78.9002C79.0002 107.3 79.0002 107.3 79.1002 107.3C79.2002 107.3 79.2002 107.4 79.3002 107.4C79.3002 107.4 79.4002 107.5 79.4002 107.6C79.4002 107.7 79.4002 107.7 79.4002 107.8V108.9Z" fill="#E74C3D"/>
<path d="M76.4001 111.9C76.4001 112 76.4001 112 76.4001 112.1C76.4001 112.2 76.3001 112.2 76.3001 112.3C76.3001 112.3 76.2001 112.4 76.1001 112.4C76.0001 112.4 76.0001 112.4 75.9001 112.4H64.6001C64.5001 112.4 64.5001 112.4 64.4001 112.4C64.3001 112.4 64.3001 112.3 64.2001 112.3C64.2001 112.3 64.1001 112.2 64.1001 112.1C64.1001 112 64.1001 112 64.1001 111.9V110.8C64.1001 110.7 64.1001 110.7 64.1001 110.6C64.1001 110.5 64.2001 110.5 64.2001 110.4C64.2001 110.4 64.3001 110.3 64.4001 110.3C64.5001 110.3 64.5001 110.3 64.6001 110.3H75.7001C75.8001 110.3 75.8001 110.3 75.9001 110.3C76.0001 110.3 76.0001 110.4 76.1001 110.4C76.2001 110.4 76.2001 110.5 76.2001 110.6C76.2001 110.7 76.2001 110.7 76.2001 110.8L76.4001 111.9Z" fill="#E74C3D"/>
<path d="M72.3002 114.9C72.3002 115 72.3002 115 72.3002 115.1C72.3002 115.2 72.2002 115.2 72.2002 115.3C72.2002 115.3 72.1002 115.4 72.0002 115.4C71.9002 115.4 71.9002 115.4 71.8002 115.4H62.7002C62.6002 115.4 62.6002 115.4 62.5002 115.4C62.4002 115.4 62.4002 115.3 62.3002 115.3C62.3002 115.3 62.2002 115.2 62.2002 115.1C62.2002 115 62.2002 115 62.2002 114.9V113.8C62.2002 113.7 62.2002 113.7 62.2002 113.6C62.2002 113.5 62.3002 113.5 62.3002 113.4C62.3002 113.4 62.4002 113.3 62.5002 113.3C62.6002 113.3 62.6002 113.3 62.7002 113.3H71.8002C71.9002 113.3 71.9002 113.3 72.0002 113.3C72.1002 113.3 72.1002 113.4 72.2002 113.4C72.3002 113.4 72.3002 113.5 72.3002 113.6C72.3002 113.7 72.3002 113.7 72.3002 113.8V114.9Z" fill="#E74C3D"/>
<path d="M55 90.5C55 90.6 55 90.6 55 90.7C55 90.8 55.1 90.8 55.1 90.9C55.1 91 55.2 91 55.3 91C55.4 91 55.4 91 55.5 91H64.6C64.7 91 64.7 91 64.8 91C64.9 91 64.9 90.9 65 90.9C65 90.9 65.1 90.8 65.1 90.7C65.1 90.6 65.1 90.6 65.1 90.5V89.5C65.1 89.4 65.1 89.4 65.1 89.3C65.1 89.2 65 89.2 65 89.1C65 89 64.9 89.1 64.8 89C64.7 89 64.7 89 64.6 89H55.5C55.4 89 55.4 89 55.3 89C55.2 89 55.2 89.1 55.1 89.1C55.1 89.1 55 89.2 55 89.3C55 89.4 55 89.4 55 89.5V90.5Z" fill="#E74C3D"/>
<path d="M51.1001 93.6001C51.1001 93.7001 51.1001 93.7001 51.1001 93.8001C51.1001 93.9001 51.2001 93.9001 51.2001 94.0001C51.2001 94.0001 51.3001 94.1001 51.4001 94.1001C51.5001 94.1001 51.5001 94.1001 51.6001 94.1001H62.7001C62.8001 94.1001 62.8001 94.1001 62.9001 94.1001C62.9001 94.0001 63.0001 94.0001 63.0001 94.0001C63.0001 94.0001 63.1001 93.9001 63.1001 93.8001C63.1001 93.7001 63.1001 93.7001 63.1001 93.6001V92.6001C63.1001 92.5001 63.1001 92.5001 63.1001 92.4001C63.1001 92.3001 63.0001 92.3001 63.0001 92.2001C63.0001 92.2001 62.9001 92.1001 62.8001 92.1001C62.7001 92.1001 62.7001 92.1001 62.6001 92.1001H51.6001C51.5001 92.1001 51.5001 92.1001 51.4001 92.1001C51.3001 92.1001 51.3001 92.2001 51.2001 92.2001C51.1001 92.2001 51.1001 92.3001 51.1001 92.4001C51.1001 92.5001 51.1001 92.5001 51.1001 92.6001V93.6001Z" fill="#E74C3D"/>
<path d="M48 96.7001C48 96.8001 48 96.8001 48 96.9001C48.1 96.9001 48.1 97.0001 48.1 97.0001C48.1 97.0001 48.2 97.1001 48.3 97.1001C48.4 97.1001 48.4 97.1001 48.5 97.1001H60.7C60.8 97.1001 60.8 97.1001 60.9 97.1001C60.9 97.1001 61 97.1001 61 97.0001C61 97.0001 61.1 96.9001 61.1 96.8001C61.1 96.7001 61.1 96.7001 61.1 96.6001V95.6001C61.1 95.5001 61.1 95.5001 61.1 95.4001C61.1 95.3001 61 95.3001 61 95.2001C61 95.2001 60.9 95.1001 60.8 95.1001C60.7 95.1001 60.7 95.1001 60.6 95.1001H48.5C48.4 95.1001 48.4 95.1001 48.3 95.1001C48.2 95.1001 48.2 95.2001 48.1 95.2001C48.1 95.2001 48 95.3001 48 95.4001C48 95.5001 48 95.5001 48 95.6001V96.7001Z" fill="#E74C3D"/>
<path d="M48 99.7002C48 99.8002 48 99.8002 48 99.9002C48 100 48.1 100 48.1 100.1C48.1 100.1 48.2 100.2 48.3 100.2C48.4 100.2 48.4 100.2 48.5 100.2H60.7C60.8 100.2 60.8 100.2 60.9 100.2C61 100.2 61 100.1 61.1 100.1C61.1 100.1 61.2 100 61.2 99.9002C61.2 99.8002 61.2 99.8002 61.2 99.7002V98.7002C61.2 98.6002 61.2 98.6002 61.2 98.5002C61.2 98.4002 61.1 98.4002 61.1 98.3002C61.1 98.3002 61 98.2002 60.9 98.2002C60.8 98.2002 60.8 98.2002 60.7 98.2002H48.5C48.4 98.2002 48.4 98.2002 48.3 98.2002C48.2 98.2002 48.2 98.3002 48.1 98.3002C48.1 98.3002 48 98.4002 48 98.5002C48 98.6002 48 98.6002 48 98.7002V99.7002Z" fill="#E74C3D"/>
<path d="M51.1001 102.7C51.1001 102.8 51.1001 102.8 51.1001 102.9C51.1001 103 51.2001 103 51.2001 103.1C51.2001 103.1 51.3001 103.2 51.4001 103.2C51.5001 103.2 51.5001 103.2 51.6001 103.2H62.7001C62.8001 103.2 62.8001 103.2 62.9001 103.2C63.0001 103.2 63.0001 103.1 63.1001 103.1C63.1001 103.1 63.2001 103 63.2001 102.9C63.2001 102.8 63.2001 102.8 63.2001 102.7V101.6C63.2001 101.5 63.2001 101.5 63.2001 101.4C63.2001 101.3 63.1001 101.3 63.1001 101.2C63.1001 101.2 63.0001 101.1 62.9001 101.1C62.8001 101.1 62.8001 101.1 62.7001 101.1H51.6001C51.5001 101.1 51.5001 101.1 51.4001 101.1C51.3001 101.1 51.3001 101.2 51.2001 101.2C51.2001 101.2 51.1001 101.3 51.1001 101.4C51.1001 101.5 51.1001 101.5 51.1001 101.6V102.7Z" fill="#E74C3D"/>
<path d="M55 105.8C55 105.9 55 105.9 55 106C55 106.1 55.1 106.1 55.1 106.2C55.1 106.2 55.2 106.3 55.3 106.3C55.4 106.3 55.4 106.3 55.5 106.3H64.6C64.7 106.3 64.7 106.3 64.8 106.3C64.9 106.3 64.9 106.2 65 106.2C65 106.2 65.1 106.1 65.1 106C65.1 105.9 65.1 105.9 65.1 105.8V104.7C65.1 104.6 65.1 104.6 65.1 104.5C65.1 104.4 65 104.4 65 104.3C65 104.3 64.9 104.2 64.8 104.2C64.7 104.2 64.7 104.2 64.6 104.2H55.5C55.4 104.2 55.4 104.2 55.3 104.2C55.2 104.2 55.2 104.3 55.1 104.3C55.1 104.3 55 104.4 55 104.5C55 104.6 55 104.6 55 104.7V105.8Z" fill="#E74C3D"/>
<path d="M91.4001 108.2C90.9001 108.3 90.4001 108.3 90.0001 108.3C89.0001 108.4 88.0001 108.2 87.1001 107.7C86.8001 107.5 86.5001 107.2 86.3001 106.9C86.1001 106.6 85.9001 106.2 85.9001 105.9C85.7001 104.7 85.6001 103.4 85.6001 102.2C85.6001 100.9 85.7001 99.7 85.9001 98.5C86.0001 98.1 86.1001 97.8 86.3001 97.4C86.5001 97.1 86.8001 96.8 87.1001 96.6C87.7001 96.2 88.7001 96 90.0001 96C90.5001 96 90.9001 96 91.3001 96.1C91.7001 96.2 92.1001 96.3 92.4001 96.3V98.4C91.4001 98.3 90.8001 98.2 90.5001 98.2C89.9001 98.2 89.4001 98.3 88.9001 98.4C88.6001 98.5 88.4001 98.9 88.3001 99.4C88.2001 100.3 88.2001 101.2 88.2001 102.1C88.2001 103 88.2001 103.9 88.3001 104.8C88.3001 105 88.4001 105.2 88.5001 105.3C88.6001 105.5 88.7001 105.6 88.9001 105.7C89.4001 105.9 90.0001 106 90.5001 105.9C91.2001 105.9 91.9001 105.8 92.5001 105.7V107.8C92.2001 108 91.8001 108.2 91.4001 108.2Z" fill="black"/>
<path d="M95.6002 107.7C95.3002 107.5 95.0002 107.3 94.8002 107C94.6002 106.7 94.5002 106.4 94.4002 106C94.2002 104.7 94.2002 103.4 94.2002 102.2C94.2002 100.9 94.3002 99.6002 94.4002 98.4002C94.4002 98.0002 94.6002 97.7002 94.8002 97.4002C95.0002 97.0002 95.2002 96.8002 95.6002 96.6002C96.2002 96.2002 97.2002 96.1002 98.7002 96.1002C99.7002 96.0002 100.8 96.2002 101.8 96.6002C102 96.8002 102.3 97.0002 102.5 97.3002C102.7 97.6002 102.8 97.9002 102.9 98.3002C103.1 99.6002 103.2 100.9 103.1 102.1C103.1 103.4 103.1 104.7 102.9 105.9C102.8 106.3 102.7 106.6 102.5 106.9C102.3 107.2 102 107.4 101.7 107.6C101 108 100.1 108.1 98.6002 108.1C97.2002 108.3 96.1002 108.1 95.6002 107.7ZM99.9002 105.8C100 105.7 100.1 105.6 100.2 105.4C100.3 105.2 100.3 105.1 100.3 104.9C100.4 104 100.4 103 100.4 102.1C100.4 101.2 100.4 100.2 100.3 99.3002C100.2 98.8002 100.1 98.5002 99.9002 98.4002C99.1002 98.1002 98.2002 98.1002 97.4002 98.4002C97.3002 98.5002 97.2002 98.6002 97.1002 98.8002C97.0002 99.0002 97.0002 99.2002 97.0002 99.4002C96.9002 100.3 96.9002 101.3 96.9002 102.2C96.9002 103.1 96.9002 104.1 97.0002 105C97.1002 105.5 97.2002 105.8 97.4002 105.9C97.8002 106 98.2002 106.1 98.6002 106.1C99.1002 106.1 99.5002 106 99.9002 105.8Z" fill="black"/>
<path d="M111.1 108.1L107.7 101.3H107.6V108.1H105V96.2002H107.7L111 102.4V96.2002H113.6V108.1H111.1Z" fill="black"/>
<path d="M117.7 108.1V98.5998H114.9V96.2998H123.2V98.5998H120.4V108.1H117.7Z" fill="black"/>
<path d="M124.4 108.1V96.2002H131.5V98.4002H127V100.9H130.8V103.1H127V105.8H131.5V108L124.4 108.1Z" fill="black"/>
<path d="M139.6 108.1L136.2 101.3H136V108.1H133.4V96.2002H136.1L139.4 102.4H139.5V96.2002H142.1V108.1H139.6Z" fill="black"/>
<path d="M146.2 108.1V98.5998H143.4V96.2998H151.7V98.5998H148.9V108.1H146.2Z" fill="black"/>
<path d="M152.9 108V105.9C154.3 106 155.3 106.1 156 106.1C156.4 106.1 156.8 106.1 157.1 106C157.4 105.9 157.6 105.9 157.7 105.8C157.8 105.8 157.8 105.7 157.8 105.6C157.8 105.5 157.9 105.5 157.9 105.4V104.7C157.9 104.3 157.9 104 157.8 103.9C157.7 103.8 157.6 103.6 157.5 103.5C157.3 103.4 157 103.3 156.7 103.3L154.8 103C154.4 103 154.1 102.9 153.8 102.7C153.5 102.5 153.2 102.3 153 102C152.6 101.3 152.4 100.4 152.5 99.5999C152.5 98.7999 152.6 97.9999 153 97.2999C153.3 96.7999 153.8 96.3999 154.3 96.1999C155 95.9999 155.8 95.8999 156.5 95.8999C157.6 95.8999 158.8 95.9999 159.9 96.2999V98.3999C158.8 98.2999 158 98.1999 157.1 98.1999C156.5 98.1999 156 98.1999 155.5 98.3999C155.3 98.4999 155.3 98.5999 155.2 98.7999C155.1 98.9999 155.1 99.1999 155.1 99.4999C155.1 99.6999 155.1 99.9999 155.2 100.2C155.3 100.3 155.3 100.4 155.4 100.5C155.5 100.6 155.7 100.6 156.1 100.7L158.1 101C158.5 101.1 158.9 101.2 159.2 101.4C159.5 101.6 159.8 101.9 160 102.3C160.3 103 160.4 103.8 160.4 104.5C160.4 105.4 160.3 106.2 159.9 107C159.6 107.5 159.2 107.9 158.6 108.1C157.9 108.3 157.2 108.4 156.5 108.4C155.2 108.3 153.9 108.1 152.9 108Z" fill="black"/>
<path d="M164.1 108.1V98.5998H161.3V96.2998H169.6V98.5998H166.8V108.1H164.1Z" fill="black"/>
<path d="M176.8 108.1L176.2 105.7H172.6L172 108.1H169.3L172.5 96.2002H176.2L179.4 108.1H176.8ZM174.4 98.7002L173.2 103.5H175.6L174.4 98.7002Z" fill="black"/>
<path d="M186.2 108.2C185.7 108.3 185.2 108.3 184.8 108.3C183.8 108.4 182.8 108.2 181.9 107.7C181.6 107.5 181.3 107.2 181.1 106.9C180.9 106.6 180.7 106.2 180.7 105.8C180.5 104.6 180.4 103.3 180.4 102.1C180.4 100.8 180.5 99.5999 180.7 98.3999C180.8 97.9999 180.9 97.6999 181.1 97.2999C181.3 96.9999 181.6 96.6999 181.9 96.4999C182.5 96.0999 183.4 95.8999 184.8 95.8999C185.3 95.8999 185.7 95.8999 186.1 95.9999C186.5 96.0999 186.9 96.1999 187.2 96.1999V98.2999C186.2 98.1999 185.6 98.0999 185.3 98.0999C184.7 98.0999 184.2 98.1999 183.7 98.2999C183.5 98.3999 183.4 98.5999 183.3 98.6999C183.2 98.8999 183.1 99.0999 183.1 99.1999C183 100.1 183 101 183 101.9C183 102.8 183 103.7 183.1 104.6C183.1 104.8 183.2 105 183.3 105.1C183.4 105.3 183.5 105.4 183.7 105.5C184.2 105.7 184.8 105.8 185.3 105.7C186 105.7 186.6 105.6 187.3 105.5V107.6C187 108 186.6 108.2 186.2 108.2Z" fill="black"/>
<path d="M195.1 108.1L192.4 103.2H191.6V108.1H189V96.2002H191.7V100.9H192.5L195.2 96.2002H198.1L194.7 101.9L198 108L195.1 108.1Z" fill="black"/>
</g>
<defs>
<clipPath id="clip0_209_990">
<rect width="150" height="26.4" fill="white" transform="translate(48 89)"/>
</clipPath>
</defs>
</svg>
