<svg width="245" height="204" viewBox="0 0 245 204" fill="none" xmlns="http://www.w3.org/2000/svg">
<path d="M89.2024 138.383V130.751C89.2024 130.552 89.0706 130.42 88.8734 130.42H86.3721V127.433H88.8734C89.0706 127.433 89.2024 127.3 89.2024 127.101V122.323H92.7565V127.101C92.7565 127.3 92.8882 127.433 93.0857 127.433H96.574V130.42H93.0857C92.8882 130.42 92.7565 130.552 92.7565 130.751V137.521C92.7565 140.706 93.8754 140.971 95.3235 140.971C95.85 140.971 96.6398 140.905 97.1005 140.839V143.958C96.5082 144.024 95.521 144.157 94.402 144.157C93.0198 144.091 89.2024 144.091 89.2024 138.383ZM185.824 140.242L188.72 138.715C189.378 140.242 190.629 141.237 192.077 141.237C193.196 141.237 194.446 140.772 194.446 139.379C194.446 138.45 193.854 137.919 192.472 137.454L190.497 136.791C187.733 135.928 186.351 134.335 186.351 132.079C186.351 129.225 188.72 127.101 191.945 127.101C194.512 127.101 196.684 128.495 197.737 130.685L194.841 132.278C194.183 130.884 193.129 130.088 191.879 130.088C190.629 130.088 189.773 130.751 189.773 131.747C189.773 132.609 190.431 133.273 191.748 133.671L193.722 134.335C196.619 135.264 198 136.857 198 139.047C198 142.498 195.038 144.29 192.077 144.29C189.114 144.223 186.745 142.697 185.824 140.242ZM174.898 137.255C174.833 137.321 174.766 137.388 174.766 137.454V143.825H171.147V120.266H174.766V133.14C174.766 133.273 174.833 133.406 174.964 133.406C175.096 133.472 175.227 133.406 175.293 133.339L181.151 127.367H185.561L178.715 134.335C178.584 134.468 178.584 134.6 178.715 134.733L186.153 143.825H181.743L176.017 136.658C175.951 136.591 175.885 136.525 175.819 136.525C175.754 136.525 175.688 136.525 175.622 136.591L174.898 137.255ZM169.37 129.623L167.066 131.813C165.749 130.818 164.432 130.353 162.985 130.353C159.957 130.353 157.719 132.609 157.719 135.662C157.719 138.715 159.957 140.971 162.985 140.971C164.301 140.971 165.684 140.507 167.132 139.512L169.172 141.702C166.21 143.892 164.63 144.29 162.59 144.29C160.155 144.29 157.983 143.427 156.403 141.834C154.889 140.308 154.033 138.051 154.033 135.662C154.033 130.685 157.654 127.035 162.656 127.035C164.301 127.035 166.736 127.3 169.37 129.623ZM152.388 122.522C152.388 123.717 151.401 124.712 150.216 124.712C149.032 124.712 148.044 123.717 148.044 122.522C148.044 121.327 149.032 120.332 150.216 120.332C151.401 120.332 152.388 121.327 152.388 122.522ZM152.059 143.825H148.439V127.433H152.059V143.825ZM140.541 136.658V143.892H136.921V127.499H140.475V129.49C140.475 129.623 140.541 129.756 140.672 129.822C140.804 129.889 140.936 129.822 141.002 129.689C141.923 128.163 143.634 127.168 145.477 127.168C145.74 127.168 145.938 127.168 146.07 127.234V130.95C145.872 130.884 145.543 130.884 145.214 130.884C142.318 130.818 140.541 133.074 140.541 136.658ZM121.124 135.662C121.124 132.676 123.362 130.353 126.258 130.353C129.154 130.353 131.392 132.676 131.392 135.662C131.392 138.649 129.154 140.971 126.258 140.971C123.362 140.971 121.124 138.649 121.124 135.662ZM121.453 141.901C121.519 141.901 121.519 141.901 121.585 141.901C121.651 141.901 121.782 141.967 121.848 142.033C123.099 143.493 124.942 144.29 127.048 144.29C131.524 144.29 134.946 140.507 134.946 135.662C134.946 133.273 134.156 131.15 132.643 129.49C131.195 127.898 129.154 127.035 126.982 127.035C124.942 127.035 123.033 127.898 121.782 129.424C121.717 129.49 121.585 129.557 121.453 129.49C121.322 129.424 121.256 129.358 121.256 129.225V120.332H117.636V143.892H121.256V142.232C121.256 142.033 121.322 141.967 121.453 141.901ZM106.447 140.971C103.617 140.971 101.313 138.649 101.313 135.662C101.313 132.676 103.551 130.353 106.447 130.353C109.343 130.353 111.581 132.676 111.581 135.662C111.581 138.649 109.277 140.971 106.447 140.971ZM114.937 143.825V127.433H111.383V129.092C111.383 129.225 111.317 129.358 111.186 129.358C111.054 129.424 110.923 129.358 110.857 129.291C109.672 127.831 107.829 127.035 105.657 127.035C101.181 127.035 97.7588 130.818 97.7588 135.662C97.7588 140.507 101.247 144.29 105.657 144.29C107.697 144.29 109.606 143.427 110.857 141.901C110.923 141.768 111.054 141.768 111.186 141.834C111.317 141.901 111.383 141.967 111.383 142.1V143.892H114.937V143.825ZM75.9729 140.971C73.1426 140.971 70.839 138.649 70.839 135.662C70.839 132.676 73.0769 130.353 75.9729 130.353C78.803 130.353 81.1067 132.676 81.1067 135.662C81.1067 138.649 78.803 140.971 75.9729 140.971ZM84.4635 143.825V127.433H80.9093V129.092C80.9093 129.225 80.8435 129.358 80.7118 129.358C80.5802 129.424 80.4484 129.358 80.3828 129.291C79.198 127.831 77.355 127.035 75.1831 127.035C70.7073 127.035 67.2848 130.818 67.2848 135.662C67.2848 140.507 70.7732 144.29 75.1831 144.29C77.2234 144.29 79.1322 143.427 80.3828 141.901C80.4484 141.768 80.5802 141.768 80.7118 141.834C80.8435 141.901 80.9093 141.967 80.9093 142.1V143.892H84.4635V143.825ZM56.7539 140.971C53.8578 140.971 51.62 138.649 51.62 135.662C51.62 132.676 53.8578 130.353 56.7539 130.353C59.5841 130.353 61.8877 132.676 61.8877 135.662C61.8877 138.649 59.5841 140.971 56.7539 140.971ZM65.2444 143.825V120.332H61.6244V129.159C61.6244 129.291 61.5586 129.424 61.427 129.424C61.2953 129.49 61.1637 129.424 61.0979 129.358C59.8473 127.898 58.0044 127.101 55.8982 127.101C51.4226 127.101 48 130.884 48 135.729C48 138.118 48.7898 140.241 50.3036 141.901C51.7517 143.493 53.792 144.356 55.964 144.356C58.0044 144.356 59.9131 143.493 61.1637 141.967C61.2295 141.901 61.3612 141.834 61.4927 141.901C61.6244 141.967 61.6902 142.033 61.6902 142.166V143.892H65.2444V143.825Z" fill="#010000"/>
<path d="M141.198 79.6441L121.584 90.7934L100.72 78.9141L99.7324 79.4449V88.0724L121.584 100.549L141.198 89.3997V93.9789L121.584 105.128L100.72 93.2489L99.7324 93.7798V95.2399L121.584 107.716L143.502 95.2399V86.6123L142.514 86.0814L121.584 97.9608L102.036 86.8114V82.2986L121.584 93.3816L143.502 80.9049V72.4103L142.383 71.813L121.584 83.6259L103.089 73.0739L121.584 62.5882L136.854 71.2157L138.236 70.4857V69.4238L121.584 60L99.7324 72.4103V73.7376L121.584 86.2142L141.198 75.0649V79.6441Z" fill="#EE3D2C"/>
</svg>
