<svg width="245" height="204" viewBox="0 0 245 204" fill="none" xmlns="http://www.w3.org/2000/svg">
<g clip-path="url(#clip0_212_1141)">
<path d="M145.308 109.188C144.076 109.216 142.851 108.994 141.709 108.533C140.566 108.072 139.529 107.384 138.662 106.509C137.794 105.635 137.114 104.592 136.663 103.446C136.212 102.299 135.999 101.073 136.038 99.8418C136.006 98.6184 136.223 97.4014 136.676 96.2644C137.129 95.1275 137.808 94.0945 138.672 93.2282C139.533 92.3472 140.567 91.6536 141.709 91.1909C142.851 90.7282 144.076 90.5064 145.308 90.5393C146.541 90.5089 147.765 90.7551 148.891 91.2598C150.017 91.7645 151.015 92.5149 151.813 93.4558L150.219 95.0496C149.635 94.3106 148.887 93.7167 148.035 93.3142C147.183 92.9118 146.25 92.7116 145.308 92.7294C144.389 92.707 143.476 92.8724 142.624 93.2154C141.772 93.5585 140.999 94.072 140.353 94.7244C139.692 95.3978 139.177 96.1991 138.837 97.0792C138.498 97.9592 138.342 98.8994 138.38 99.8418C138.339 100.788 138.494 101.732 138.833 102.616C139.172 103.5 139.69 104.305 140.353 104.981C140.998 105.635 141.77 106.15 142.623 106.494C143.475 106.837 144.389 107.001 145.308 106.976C146.35 106.971 147.378 106.733 148.316 106.279C149.254 105.825 150.078 105.166 150.729 104.352L152.398 105.978C151.553 106.989 150.489 107.793 149.287 108.331C148.039 108.904 146.681 109.196 145.308 109.188ZM156.551 90.9405V108.797H154.252V90.9405H156.551ZM158.524 102.682C158.499 101.827 158.643 100.974 158.948 100.174C159.254 99.3741 159.714 98.6422 160.302 98.0204C160.885 97.4167 161.587 96.9411 162.363 96.6237C163.14 96.3064 163.974 96.1543 164.813 96.1772C165.648 96.1533 166.479 96.305 167.252 96.6225C168.026 96.94 168.724 97.4162 169.301 98.0204C169.896 98.6385 170.36 99.3696 170.668 100.17C170.975 100.971 171.118 101.825 171.09 102.682C171.122 103.54 170.979 104.395 170.672 105.196C170.365 105.997 169.898 106.728 169.301 107.345C168.725 107.951 168.028 108.429 167.254 108.746C166.48 109.064 165.648 109.214 164.813 109.188C163.974 109.213 163.139 109.062 162.362 108.745C161.585 108.427 160.883 107.95 160.302 107.345C159.714 106.723 159.254 105.991 158.948 105.191C158.643 104.391 158.499 103.538 158.524 102.682ZM160.823 102.682C160.77 103.855 161.183 105.001 161.972 105.87C162.337 106.257 162.777 106.566 163.266 106.777C163.754 106.988 164.28 107.096 164.813 107.096C165.345 107.096 165.871 106.988 166.36 106.777C166.848 106.566 167.288 106.257 167.653 105.87C168.442 105.001 168.855 103.855 168.802 102.682C168.853 101.517 168.44 100.378 167.653 99.5166C167.292 99.1236 166.853 98.8099 166.364 98.5953C165.875 98.3808 165.346 98.27 164.813 98.27C164.279 98.27 163.75 98.3808 163.261 98.5953C162.773 98.8099 162.333 99.1236 161.972 99.5166C161.185 100.378 160.772 101.517 160.823 102.682ZM183.775 108.797H181.607V107.095H181.498C181.111 107.732 180.556 108.249 179.894 108.591C179.206 108.981 178.429 109.187 177.639 109.188C177.005 109.229 176.369 109.136 175.773 108.916C175.178 108.695 174.635 108.352 174.18 107.908C173.321 106.892 172.89 105.582 172.977 104.255V96.5892H175.264V104.114C175.216 104.521 175.262 104.934 175.398 105.321C175.533 105.708 175.755 106.059 176.047 106.348C176.339 106.636 176.692 106.854 177.081 106.986C177.469 107.117 177.882 107.158 178.289 107.106C178.728 107.114 179.163 107.02 179.56 106.832C179.957 106.644 180.305 106.366 180.577 106.022C181.195 105.277 181.523 104.333 181.498 103.365V96.5892H183.797L183.775 108.797ZM191.538 109.188C190.758 109.188 189.987 109.019 189.278 108.693C188.568 108.368 187.938 107.893 187.429 107.301C186.29 106.035 185.671 104.385 185.694 102.682C185.657 100.988 186.261 99.3424 187.386 98.0746C187.891 97.4775 188.52 96.9983 189.23 96.6705C189.94 96.3427 190.713 96.1743 191.495 96.1772C192.35 96.1627 193.196 96.3601 193.956 96.7518C194.653 97.0953 195.244 97.6195 195.669 98.2697H195.767L195.712 96.5892V90.9405H198V108.797H195.832V107.095H195.734C195.309 107.745 194.718 108.27 194.021 108.613C193.254 109.008 192.401 109.206 191.538 109.188ZM191.918 107.095C192.441 107.112 192.961 107.011 193.44 106.799C193.919 106.586 194.343 106.269 194.682 105.87C195.441 104.987 195.829 103.845 195.767 102.682C195.819 101.528 195.432 100.397 194.682 99.5166C194.344 99.1148 193.921 98.7941 193.442 98.5783C192.963 98.3625 192.443 98.257 191.918 98.2697C191.394 98.2616 190.874 98.3692 190.396 98.5847C189.918 98.8002 189.494 99.1184 189.153 99.5166C188.404 100.397 188.016 101.528 188.069 102.682C188.009 103.838 188.397 104.972 189.153 105.848C189.494 106.247 189.918 106.565 190.396 106.78C190.874 106.996 191.394 107.103 191.918 107.095Z" fill="#5F6368"/>
<path d="M58.2891 109.187C55.5912 109.196 52.9985 108.142 51.0726 106.252C49.1467 104.363 48.0428 101.791 48 99.0934C48.0428 96.3958 49.1467 93.8237 51.0726 91.9343C52.9985 90.045 55.5912 88.9905 58.2891 88.9994C59.5747 88.978 60.8516 89.2134 62.0449 89.6919C63.2383 90.1703 64.3242 90.8822 65.2389 91.7858L63.2765 93.7265C61.9384 92.4381 60.1465 91.7291 58.2891 91.7533C57.3274 91.7503 56.3748 91.9387 55.4865 92.3073C54.5983 92.6759 53.7922 93.2175 53.1153 93.9006C52.4383 94.5836 51.9039 95.3945 51.5431 96.2859C51.1824 97.1774 51.0026 98.1317 51.0141 99.0934C51.0026 100.055 51.1824 101.009 51.5431 101.901C51.9039 102.792 52.4383 103.603 53.1153 104.286C53.7922 104.969 54.5983 105.511 55.4865 105.879C56.3748 106.248 57.3274 106.436 58.2891 106.433C59.2365 106.472 60.1815 106.312 61.063 105.963C61.9445 105.613 62.7429 105.083 63.4066 104.406C64.2913 103.452 64.823 102.224 64.9136 100.926H58.2891V98.1826H67.6133C67.715 98.7515 67.7622 99.3287 67.7542 99.9065C67.8277 102.286 66.9632 104.599 65.3473 106.347C64.4379 107.291 63.3388 108.033 62.1223 108.523C60.9058 109.012 59.5994 109.239 58.2891 109.187Z" fill="#4285F4"/>
<path d="M82.1738 102.682C82.2094 103.549 82.0693 104.415 81.762 105.226C81.4547 106.038 80.9864 106.779 80.3854 107.406C79.7843 108.032 79.0629 108.53 78.2645 108.87C77.466 109.211 76.607 109.386 75.739 109.386C74.871 109.386 74.012 109.211 73.2136 108.87C72.4151 108.53 71.6937 108.032 71.0927 107.406C70.4916 106.779 70.0234 106.038 69.716 105.226C69.4087 104.415 69.2686 103.549 69.3042 102.682C69.2686 101.815 69.4087 100.949 69.716 100.137C70.0234 99.3257 70.4916 98.5844 71.0927 97.9582C71.6937 97.332 72.4151 96.8337 73.2136 96.4934C74.012 96.153 74.871 95.9775 75.739 95.9775C76.607 95.9775 77.466 96.153 78.2645 96.4934C79.0629 96.8337 79.7843 97.332 80.3854 97.9582C80.9864 98.5844 81.4547 99.3257 81.762 100.137C82.0693 100.949 82.2094 101.815 82.1738 102.682ZM79.3548 102.682C79.4027 102.178 79.3447 101.67 79.1848 101.19C79.0248 100.71 78.7663 100.269 78.4259 99.8947C78.0855 99.5204 77.6707 99.2214 77.208 99.0168C76.7453 98.8122 76.2449 98.7065 75.739 98.7065C75.2331 98.7065 74.7328 98.8122 74.2701 99.0168C73.8074 99.2214 73.3925 99.5204 73.0521 99.8947C72.7117 100.269 72.4532 100.71 72.2933 101.19C72.1333 101.67 72.0754 102.178 72.1232 102.682C72.0754 103.186 72.1333 103.694 72.2933 104.174C72.4532 104.654 72.7117 105.095 73.0521 105.469C73.3925 105.843 73.8074 106.142 74.2701 106.347C74.7328 106.552 75.2331 106.657 75.739 106.657C76.2449 106.657 76.7453 106.552 77.208 106.347C77.6707 106.142 78.0855 105.843 78.4259 105.469C78.7663 105.095 79.0248 104.654 79.1848 104.174C79.3447 103.694 79.4027 103.186 79.3548 102.682Z" fill="#EA4335"/>
<path d="M96.6054 102.682C96.641 103.549 96.501 104.415 96.1936 105.226C95.8863 106.038 95.4181 106.779 94.817 107.406C94.216 108.032 93.4946 108.53 92.6961 108.87C91.8977 109.211 91.0386 109.386 90.1707 109.386C89.3027 109.386 88.4437 109.211 87.6452 108.87C86.8467 108.53 86.1253 108.032 85.5243 107.406C84.9233 106.779 84.455 106.038 84.1477 105.226C83.8404 104.415 83.7003 103.549 83.7359 102.682C83.7003 101.815 83.8404 100.949 84.1477 100.137C84.455 99.3257 84.9233 98.5844 85.5243 97.9582C86.1253 97.332 86.8467 96.8337 87.6452 96.4934C88.4437 96.153 89.3027 95.9775 90.1707 95.9775C91.0386 95.9775 91.8977 96.153 92.6961 96.4934C93.4946 96.8337 94.216 97.332 94.817 97.9582C95.4181 98.5844 95.8863 99.3257 96.1936 100.137C96.501 100.949 96.641 101.815 96.6054 102.682ZM93.7865 102.682C93.8251 102.183 93.7602 101.681 93.5957 101.208C93.4313 100.735 93.1709 100.302 92.8308 99.9343C92.4908 99.567 92.0785 99.2738 91.6198 99.0733C91.161 98.8729 90.6658 98.7694 90.1652 98.7694C89.6646 98.7694 89.1694 98.8729 88.7107 99.0733C88.252 99.2738 87.8397 99.567 87.4997 99.9343C87.1596 100.302 86.8992 100.735 86.7347 101.208C86.5703 101.681 86.5053 102.183 86.544 102.682C86.5053 103.181 86.5703 103.683 86.7347 104.156C86.8992 104.628 87.1596 105.062 87.4997 105.429C87.8397 105.797 88.252 106.09 88.7107 106.29C89.1694 106.491 89.6646 106.594 90.1652 106.594C90.6658 106.594 91.161 106.491 91.6198 106.29C92.0785 106.09 92.4908 105.797 92.8308 105.429C93.1709 105.062 93.4313 104.628 93.5957 104.156C93.7602 103.683 93.8251 103.181 93.7865 102.682Z" fill="#FBBC04"/>
<path d="M110.667 96.5895V108.256C110.667 113.048 107.815 115.021 104.454 115.021C103.217 115.028 102.006 114.667 100.975 113.983C99.9443 113.3 99.1399 112.325 98.6645 111.183L101.169 110.099C101.421 110.764 101.865 111.339 102.444 111.752C103.023 112.164 103.711 112.397 104.422 112.419C106.59 112.419 107.913 111.085 107.913 108.603V107.67H107.848C107.414 108.16 106.879 108.549 106.28 108.811C105.681 109.073 105.032 109.202 104.378 109.188C102.653 109.188 100.998 108.503 99.7784 107.283C98.5584 106.063 97.873 104.408 97.873 102.683C97.873 100.957 98.5584 99.3028 99.7784 98.0829C100.998 96.8629 102.653 96.1775 104.378 96.1775C105.03 96.1655 105.676 96.2927 106.275 96.5508C106.873 96.8088 107.409 97.1917 107.848 97.6737H107.945V96.5895H110.667ZM108.14 102.726C108.18 102.235 108.121 101.74 107.965 101.272C107.81 100.804 107.562 100.372 107.237 100.002C106.911 99.6313 106.514 99.3304 106.069 99.1168C105.625 98.9031 105.142 98.7811 104.649 98.758C104.149 98.776 103.657 98.8934 103.203 99.1034C102.748 99.3134 102.34 99.6117 102.002 99.9811C101.664 100.35 101.403 100.783 101.234 101.255C101.065 101.726 100.991 102.226 101.017 102.726C100.994 103.223 101.07 103.719 101.241 104.186C101.412 104.653 101.674 105.081 102.012 105.445C102.35 105.81 102.757 106.103 103.21 106.308C103.663 106.513 104.152 106.626 104.649 106.64C105.14 106.623 105.622 106.506 106.066 106.297C106.511 106.088 106.908 105.791 107.234 105.424C107.561 105.057 107.809 104.628 107.965 104.163C108.121 103.697 108.18 103.205 108.14 102.715V102.726Z" fill="#4285F4"/>
<path d="M115.688 89.6934V108.797H112.825V89.6934H115.688Z" fill="#34A853"/>
<path d="M126.963 104.83L129.197 106.347C128.6 107.237 127.793 107.966 126.848 108.469C125.902 108.972 124.847 109.234 123.776 109.231C122.923 109.244 122.078 109.083 121.29 108.759C120.501 108.435 119.787 107.954 119.19 107.346C118.593 106.738 118.126 106.015 117.816 105.221C117.507 104.427 117.362 103.578 117.39 102.726C117.263 101.262 117.679 99.8021 118.559 98.6251C119.44 97.4481 120.722 96.6361 122.163 96.344C123.603 96.0519 125.101 96.3001 126.37 97.0412C127.639 97.7823 128.591 98.9646 129.045 100.363L129.338 101.111L120.664 104.699C120.934 105.307 121.38 105.82 121.944 106.171C122.509 106.523 123.165 106.698 123.83 106.673C124.466 106.658 125.088 106.481 125.636 106.159C126.185 105.836 126.641 105.379 126.963 104.83ZM120.122 102.488L125.955 100.081C125.721 99.649 125.368 99.2942 124.937 99.0594C124.505 98.8246 124.016 98.7199 123.526 98.758C123.058 98.7789 122.598 98.892 122.173 99.0908C121.748 99.2897 121.367 99.5703 121.05 99.9168C120.734 100.263 120.489 100.669 120.33 101.11C120.171 101.551 120.1 102.019 120.122 102.488Z" fill="#EA4335"/>
</g>
<defs>
<clipPath id="clip0_212_1141">
<rect width="150" height="26.021" fill="white" transform="translate(48 89)"/>
</clipPath>
</defs>
</svg>
