<svg width="245" height="204" viewBox="0 0 245 204" fill="none" xmlns="http://www.w3.org/2000/svg">
<path d="M145.308 109.176C140.299 109.296 136.158 105.331 136.038 100.336C136.038 100.174 136.038 100.011 136.038 99.8381C135.973 97.3681 136.927 94.9739 138.673 93.2298C140.418 91.4531 142.815 90.4781 145.308 90.5431C147.802 90.4781 150.198 91.5506 151.813 93.4573L150.22 95.0498C149.038 93.5548 147.216 92.6989 145.308 92.7314C143.454 92.6881 141.665 93.4031 140.353 94.7248C139.02 96.0898 138.304 97.9314 138.38 99.8381C138.293 101.745 139.009 103.608 140.353 104.973C141.654 106.295 143.454 107.021 145.308 106.966C147.422 106.966 149.406 105.991 150.729 104.345L152.399 105.97C151.553 106.977 150.491 107.779 149.287 108.321C148.04 108.895 146.685 109.187 145.308 109.176ZM156.551 90.9439V108.786H154.253V90.9439H156.551ZM158.525 102.676C158.47 100.954 159.11 99.2748 160.303 98.0181C161.485 96.7939 163.122 96.1331 164.813 96.1764C166.504 96.1331 168.131 96.7939 169.302 98.0181C170.505 99.264 171.145 100.943 171.091 102.676C171.156 104.41 170.505 106.089 169.302 107.335C168.142 108.559 166.504 109.231 164.813 109.176C163.122 109.231 161.474 108.559 160.303 107.335C159.11 106.078 158.47 104.399 158.525 102.676ZM160.823 102.676C160.769 103.846 161.181 104.995 161.972 105.861C163.447 107.432 165.919 107.497 167.491 106.024C167.545 105.97 167.599 105.916 167.654 105.861C168.445 104.995 168.857 103.846 168.803 102.676C168.857 101.506 168.445 100.369 167.654 99.5131C166.212 97.9423 163.772 97.8448 162.2 99.2856C162.124 99.3615 162.048 99.4373 161.972 99.5131C161.181 100.369 160.769 101.506 160.823 102.676V102.676ZM183.776 108.786H181.607V107.086H181.499C181.109 107.725 180.556 108.234 179.894 108.581C179.211 108.971 178.431 109.176 177.639 109.176C176.36 109.263 175.102 108.797 174.181 107.898C173.324 106.88 172.89 105.569 172.977 104.247V96.5881H175.265V104.106C175.091 105.591 176.154 106.923 177.628 107.096C177.845 107.118 178.073 107.118 178.29 107.096C179.179 107.107 180.024 106.706 180.577 106.013C181.195 105.266 181.521 104.323 181.499 103.359V96.5881H183.797L183.776 108.786V108.786ZM191.539 109.176C189.956 109.176 188.459 108.483 187.429 107.291C186.291 106.024 185.673 104.377 185.695 102.676C185.662 100.986 186.259 99.3398 187.386 98.0723C188.405 96.8698 189.912 96.1656 191.495 96.1764C192.352 96.1656 193.197 96.3606 193.956 96.7506C194.65 97.0973 195.247 97.6173 195.669 98.2673H195.767L195.713 96.5881V90.9439H198V108.786H195.832V107.086H195.734C195.312 107.736 194.715 108.256 194.021 108.602C193.252 108.992 192.406 109.198 191.539 109.176V109.176ZM191.918 107.086C192.981 107.118 194 106.674 194.683 105.861C195.442 104.984 195.832 103.836 195.767 102.676C195.821 101.528 195.431 100.391 194.683 99.5131C194 98.7006 192.981 98.2456 191.918 98.2673C190.856 98.2456 189.847 98.7115 189.153 99.5131C188.405 100.391 188.015 101.528 188.069 102.676C188.004 103.836 188.394 104.962 189.153 105.84C189.847 106.641 190.856 107.107 191.918 107.086Z" fill="white"/>
<path d="M58.2891 109.173C52.6729 109.195 48.0867 104.699 48 99.0871C48.0867 93.4755 52.6729 88.9797 58.2891 89.0013C60.8912 88.958 63.3957 89.9655 65.2388 91.7855L63.2764 93.7247C61.9428 92.4355 60.1431 91.7313 58.2891 91.753C54.2884 91.7422 51.0249 94.9705 51.0141 98.9788C51.0141 99.0113 51.0141 99.0546 51.0141 99.0871C50.9707 103.085 54.1691 106.378 58.1807 106.421C58.2132 106.421 58.2566 106.421 58.2891 106.421C60.2081 106.497 62.0621 105.76 63.4065 104.395C64.2956 103.442 64.8268 102.218 64.9136 100.918H58.2891V98.1771H67.6132C67.7108 98.7405 67.765 99.3255 67.7542 99.8996C67.8301 102.272 66.9627 104.59 65.3472 106.335C63.5041 108.241 60.9345 109.281 58.2891 109.173V109.173Z" fill="white"/>
<path d="M82.1735 102.678C82.3145 106.231 79.5606 109.221 76.0044 109.373C72.4482 109.514 69.4558 106.762 69.304 103.209C69.304 103.035 69.304 102.862 69.304 102.678C69.1631 99.1244 71.9169 96.1344 75.4731 95.9827C79.0293 95.8419 82.0217 98.5936 82.1735 102.147C82.1735 102.32 82.1735 102.494 82.1735 102.678V102.678ZM79.3546 102.678C79.5389 100.684 78.0752 98.9077 76.0803 98.7236C74.0853 98.5394 72.3073 100.002 72.1229 101.995C72.1013 102.223 72.1013 102.45 72.1229 102.678C71.9386 104.671 73.4023 106.448 75.3972 106.632C77.3922 106.816 79.1703 105.354 79.3546 103.36C79.3763 103.133 79.3763 102.905 79.3546 102.678Z" fill="white"/>
<path d="M96.6051 102.678C96.7461 106.231 93.9922 109.221 90.436 109.373C86.8798 109.514 83.8874 106.762 83.7356 103.209C83.7356 103.035 83.7356 102.862 83.7356 102.678C83.5947 99.1244 86.3486 96.1344 89.9048 95.9827C93.4609 95.8419 96.4533 98.5936 96.6051 102.147C96.6051 102.32 96.6051 102.494 96.6051 102.678V102.678ZM93.7862 102.678C93.938 100.684 92.4418 98.9294 90.4469 98.7777C88.4519 98.6261 86.6955 100.121 86.5437 102.114C86.5329 102.299 86.5329 102.494 86.5437 102.678C86.3919 104.671 87.8881 106.426 89.8831 106.578C91.878 106.729 93.6344 105.234 93.7862 103.241C93.797 103.057 93.797 102.862 93.7862 102.678Z" fill="white"/>
<path d="M110.668 96.5803V108.237C110.668 113.025 107.816 114.997 104.455 114.997C101.929 115.008 99.6413 113.491 98.6655 111.162L101.17 110.078C101.69 111.433 102.97 112.353 104.423 112.397C106.591 112.397 107.914 111.064 107.914 108.583V107.652H107.849C106.97 108.638 105.702 109.201 104.379 109.168C100.791 109.168 97.874 106.254 97.874 102.669C97.874 99.0827 100.791 96.1686 104.379 96.1686C105.702 96.1469 106.96 96.6886 107.849 97.6636H107.946V96.5803H110.668V96.5803ZM108.141 102.712C108.304 100.686 106.797 98.9202 104.77 98.7577C104.726 98.7577 104.683 98.7577 104.65 98.7577C102.569 98.8336 100.942 100.578 101.018 102.658V102.723C100.921 104.781 102.514 106.536 104.585 106.634H104.661C106.667 106.569 108.228 104.879 108.163 102.885C108.163 102.831 108.163 102.777 108.163 102.723L108.141 102.712Z" fill="white"/>
<path d="M115.686 89.6953V108.784H112.823V89.6953H115.686Z" fill="white"/>
<path d="M126.962 104.818L129.195 106.335C127.981 108.144 125.954 109.227 123.774 109.216C120.294 109.271 117.432 106.486 117.388 103.009C117.388 102.911 117.388 102.814 117.388 102.716C117.106 99.423 119.546 96.5305 122.831 96.238C125.607 95.9997 128.176 97.7005 129.044 100.355L129.336 101.102L120.663 104.688C121.216 105.934 122.473 106.714 123.829 106.66C125.119 106.627 126.311 105.934 126.962 104.818V104.818ZM120.121 102.478L125.954 100.073C125.477 99.1955 124.522 98.6755 123.525 98.7514C121.552 98.838 120.034 100.506 120.121 102.467V102.478Z" fill="white"/>
</svg>
