<svg width="245" height="204" viewBox="0 0 245 204" fill="none" xmlns="http://www.w3.org/2000/svg">
<g clip-path="url(#clip0_209_992)">
<path d="M110.449 93.1997V111.799H107.155V97.1715L101.343 111.799H99.2117L93.3024 97.1715V111.799H90.2993V93.1997H94.9492L100.277 106.956H100.374L105.993 93.1997H110.449ZM113.065 94.6528C113.065 94.1684 113.258 93.684 113.646 93.3934C114.033 93.0059 114.518 92.8122 115.002 92.8122C115.583 92.8122 116.068 93.0059 116.358 93.2966C116.746 93.684 116.939 94.0715 116.939 94.5559C116.939 95.0403 116.746 95.5246 116.358 95.8153C115.971 96.2028 115.583 96.2996 115.002 96.2996C114.421 96.2996 114.033 96.1059 113.646 95.8153C113.355 95.5246 113.065 95.1371 113.065 94.6528ZM116.552 98.4308V111.799H113.452V98.4308H116.552ZM126.142 109.474C126.627 109.474 127.111 109.378 127.692 109.087C128.274 108.893 128.758 108.603 129.242 108.215V111.121C128.758 111.412 128.177 111.606 127.499 111.799C126.821 111.896 126.142 111.993 125.367 111.993C123.43 111.993 121.783 111.412 120.621 110.153C119.361 108.893 118.78 107.343 118.78 105.406C118.78 103.275 119.458 101.531 120.718 100.078C121.977 98.6246 123.721 98.0433 126.046 98.0433C126.627 98.0433 127.208 98.1402 127.789 98.2371C128.371 98.334 128.855 98.6246 129.242 98.7215V101.725C128.758 101.337 128.274 101.046 127.789 100.95C127.305 100.756 126.724 100.659 126.239 100.659C124.98 100.659 124.011 101.046 123.236 101.821C122.461 102.596 122.074 103.759 122.074 105.115C122.074 106.471 122.461 107.537 123.236 108.215C123.817 109.087 124.883 109.474 126.142 109.474ZM138.155 98.2371C138.445 98.2371 138.639 98.2371 138.833 98.2371C139.027 98.2371 139.22 98.334 139.317 98.334V101.531C139.123 101.434 138.93 101.24 138.542 101.143C138.155 101.046 137.864 100.95 137.38 100.95C136.605 100.95 135.927 101.337 135.442 101.918C134.958 102.5 134.667 103.565 134.667 104.921V111.606H131.567V98.4308H134.667V100.562C134.958 99.7871 135.442 99.3027 135.927 98.8183C136.605 98.4308 137.283 98.2371 138.155 98.2371ZM139.511 105.309C139.511 103.081 140.189 101.337 141.352 100.078C142.611 98.8183 144.355 98.1402 146.486 98.1402C148.52 98.1402 150.167 98.7215 151.33 99.9808C152.492 101.24 153.073 102.887 153.073 105.018C153.073 107.149 152.395 108.893 151.233 110.153C149.973 111.412 148.326 112.09 146.195 112.09C144.161 112.09 142.514 111.509 141.255 110.249C140.092 109.087 139.511 107.44 139.511 105.309ZM142.708 105.212C142.708 106.568 142.998 107.634 143.677 108.409C144.355 109.184 145.226 109.571 146.389 109.571C147.551 109.571 148.423 109.184 149.005 108.409C149.586 107.634 149.876 106.568 149.876 105.115C149.876 103.662 149.586 102.596 149.005 101.821C148.423 101.046 147.455 100.659 146.389 100.659C145.226 100.659 144.355 101.046 143.677 101.821C143.095 102.693 142.708 103.759 142.708 105.212ZM157.82 102.015C157.82 102.403 157.917 102.79 158.208 103.081C158.498 103.371 159.079 103.662 160.145 104.049C161.404 104.534 162.276 105.115 162.761 105.696C163.245 106.374 163.536 107.053 163.536 108.021C163.536 109.281 163.051 110.249 162.082 111.024C161.114 111.799 159.757 112.187 158.208 112.187C157.626 112.187 157.045 112.09 156.367 111.993C155.689 111.896 155.108 111.702 154.623 111.509V108.409C155.204 108.796 155.786 109.184 156.464 109.378C157.142 109.571 157.723 109.765 158.304 109.765C158.983 109.765 159.564 109.668 159.854 109.474C160.242 109.281 160.339 108.99 160.339 108.506C160.339 108.118 160.145 107.731 159.854 107.343C159.467 107.053 158.789 106.665 157.917 106.278C156.754 105.793 155.979 105.212 155.495 104.631C155.011 104.049 154.72 103.275 154.72 102.306C154.72 101.143 155.204 100.078 156.173 99.3027C157.142 98.5277 158.401 98.1402 159.854 98.1402C160.339 98.1402 160.823 98.1402 161.404 98.334C161.986 98.4308 162.47 98.6246 162.857 98.7215V101.821C162.47 101.531 161.986 101.337 161.404 101.046C160.823 100.756 160.242 100.756 159.757 100.756C159.176 100.756 158.692 100.853 158.401 101.143C158.014 101.24 157.82 101.531 157.82 102.015ZM164.892 105.309C164.892 103.081 165.57 101.337 166.732 100.078C167.992 98.8183 169.735 98.1402 171.867 98.1402C173.901 98.1402 175.548 98.7215 176.71 99.9808C177.873 101.24 178.454 102.887 178.454 105.018C178.454 107.149 177.776 108.893 176.613 110.153C175.354 111.412 173.707 112.09 171.576 112.09C169.542 112.09 167.895 111.509 166.636 110.249C165.57 109.087 164.892 107.44 164.892 105.309ZM168.185 105.212C168.185 106.568 168.476 107.634 169.154 108.409C169.832 109.184 170.704 109.571 171.867 109.571C173.029 109.571 173.901 109.184 174.482 108.409C175.063 107.634 175.354 106.568 175.354 105.115C175.354 103.662 175.063 102.596 174.482 101.821C173.901 101.046 172.932 100.659 171.867 100.659C170.704 100.659 169.832 101.046 169.154 101.821C168.476 102.693 168.185 103.759 168.185 105.212ZM189.013 101.046H184.363V111.799H181.166V101.046H178.842V98.4308H181.07V96.5902C181.07 95.234 181.554 94.0715 182.426 93.1028C183.298 92.1341 184.46 91.7466 185.913 91.7466C186.301 91.7466 186.688 91.7466 186.979 91.7466C187.27 91.7466 187.56 91.8435 187.754 91.9403V94.7497C187.657 94.7497 187.463 94.6528 187.173 94.5559C186.882 94.459 186.591 94.459 186.301 94.459C185.623 94.459 185.138 94.6528 184.751 95.0403C184.363 95.4278 184.266 96.1059 184.266 96.8809V98.4308H188.916V95.4278L192.016 94.459V98.4308H195.213V101.046H192.016V107.246C192.016 108.021 192.21 108.603 192.404 108.99C192.694 109.378 193.179 109.474 193.857 109.474C194.051 109.474 194.244 109.474 194.535 109.378C194.826 109.281 195.019 109.184 195.213 109.087V111.702C195.019 111.799 194.729 111.896 194.244 111.993C193.76 112.09 193.373 112.09 192.888 112.09C191.532 112.09 190.563 111.702 189.885 111.024C189.207 110.346 188.916 109.281 188.916 107.828L189.013 101.046Z" fill="#737373"/>
<path d="M64.7247 87H50V101.725H64.7247V87Z" fill="#F25022"/>
<path d="M80.9996 87H66.2749V101.725H80.9996V87Z" fill="#7FBA00"/>
<path d="M64.7247 103.275H50V118H64.7247V103.275Z" fill="#00A4EF"/>
<path d="M80.9996 103.275H66.2749V118H80.9996V103.275Z" fill="#FFB900"/>
</g>
<defs>
<clipPath id="clip0_209_992">
<rect width="145.31" height="30.9995" fill="white" transform="translate(50 87)"/>
</clipPath>
</defs>
</svg>
