<svg width="245" height="204" viewBox="0 0 245 204" fill="none" xmlns="http://www.w3.org/2000/svg">
<g clip-path="url(#clip0_209_991)">
<path d="M110.45 92.2002V110.8H107.156V96.1721L101.344 110.8H99.2123L93.3029 96.1721V110.8H90.2998V92.2002H94.9498L100.278 105.956H100.375L105.994 92.2002H110.45ZM113.065 93.6533C113.065 93.1689 113.259 92.6846 113.647 92.3939C114.034 92.0064 114.519 91.8127 115.003 91.8127C115.584 91.8127 116.069 92.0064 116.359 92.2971C116.747 92.6846 116.94 93.0721 116.94 93.5564C116.94 94.0408 116.747 94.5252 116.359 94.8158C115.972 95.2033 115.584 95.3002 115.003 95.3002C114.422 95.3002 114.034 95.1064 113.647 94.8158C113.356 94.5252 113.065 94.1377 113.065 93.6533ZM116.553 97.4314V110.8H113.453V97.4314H116.553ZM126.144 108.475C126.628 108.475 127.112 108.378 127.694 108.088C128.275 107.894 128.759 107.603 129.244 107.216V110.122C128.759 110.413 128.178 110.606 127.5 110.8C126.822 110.897 126.144 110.994 125.369 110.994C123.431 110.994 121.784 110.413 120.622 109.153C119.362 107.894 118.781 106.344 118.781 104.406C118.781 102.275 119.459 100.531 120.719 99.0783C121.978 97.6252 123.722 97.0439 126.047 97.0439C126.628 97.0439 127.209 97.1408 127.79 97.2377C128.372 97.3346 128.856 97.6252 129.244 97.7221V100.725C128.759 100.338 128.275 100.047 127.79 99.9502C127.306 99.7564 126.725 99.6596 126.24 99.6596C124.981 99.6596 124.012 100.047 123.237 100.822C122.462 101.597 122.075 102.76 122.075 104.116C122.075 105.472 122.462 106.538 123.237 107.216C123.819 108.088 124.884 108.475 126.144 108.475ZM138.156 97.2377C138.447 97.2377 138.64 97.2377 138.834 97.2377C139.028 97.2377 139.222 97.3346 139.319 97.3346V100.531C139.125 100.435 138.931 100.241 138.544 100.144C138.156 100.047 137.865 99.9502 137.381 99.9502C136.606 99.9502 135.928 100.338 135.444 100.919C134.959 101.5 134.669 102.566 134.669 103.922V110.606H131.569V97.4314H134.669V99.5627C134.959 98.7877 135.444 98.3033 135.928 97.8189C136.606 97.4314 137.284 97.2377 138.156 97.2377ZM139.512 104.31C139.512 102.081 140.19 100.338 141.353 99.0783C142.612 97.8189 144.356 97.1408 146.487 97.1408C148.522 97.1408 150.169 97.7221 151.331 98.9814C152.494 100.241 153.075 101.888 153.075 104.019C153.075 106.15 152.397 107.894 151.234 109.153C149.975 110.413 148.328 111.091 146.197 111.091C144.162 111.091 142.515 110.51 141.256 109.25C140.094 108.088 139.512 106.441 139.512 104.31ZM142.709 104.213C142.709 105.569 143 106.635 143.678 107.41C144.356 108.185 145.228 108.572 146.39 108.572C147.553 108.572 148.425 108.185 149.006 107.41C149.587 106.635 149.878 105.569 149.878 104.116C149.878 102.663 149.587 101.597 149.006 100.822C148.425 100.047 147.456 99.6596 146.39 99.6596C145.228 99.6596 144.356 100.047 143.678 100.822C143.097 101.694 142.709 102.76 142.709 104.213ZM157.822 101.016C157.822 101.403 157.919 101.791 158.209 102.081C158.5 102.372 159.081 102.663 160.147 103.05C161.406 103.535 162.278 104.116 162.762 104.697C163.247 105.375 163.537 106.053 163.537 107.022C163.537 108.281 163.053 109.25 162.084 110.025C161.115 110.8 159.759 111.188 158.209 111.188C157.628 111.188 157.047 111.091 156.369 110.994C155.69 110.897 155.109 110.703 154.625 110.51V107.41C155.206 107.797 155.787 108.185 156.465 108.378C157.144 108.572 157.725 108.766 158.306 108.766C158.984 108.766 159.565 108.669 159.856 108.475C160.244 108.281 160.34 107.991 160.34 107.506C160.34 107.119 160.147 106.731 159.856 106.344C159.469 106.053 158.79 105.666 157.919 105.278C156.756 104.794 155.981 104.213 155.497 103.631C155.012 103.05 154.722 102.275 154.722 101.306C154.722 100.144 155.206 99.0783 156.175 98.3033C157.144 97.5283 158.403 97.1408 159.856 97.1408C160.34 97.1408 160.825 97.1408 161.406 97.3346C161.987 97.4314 162.472 97.6252 162.859 97.7221V100.822C162.472 100.531 161.987 100.338 161.406 100.047C160.825 99.7564 160.244 99.7564 159.759 99.7564C159.178 99.7564 158.694 99.8533 158.403 100.144C158.015 100.241 157.822 100.531 157.822 101.016ZM164.894 104.31C164.894 102.081 165.572 100.338 166.734 99.0783C167.994 97.8189 169.737 97.1408 171.869 97.1408C173.903 97.1408 175.55 97.7221 176.712 98.9814C177.875 100.241 178.456 101.888 178.456 104.019C178.456 106.15 177.778 107.894 176.615 109.153C175.356 110.413 173.709 111.091 171.578 111.091C169.544 111.091 167.897 110.51 166.637 109.25C165.572 108.088 164.894 106.441 164.894 104.31ZM168.187 104.213C168.187 105.569 168.478 106.635 169.156 107.41C169.834 108.185 170.706 108.572 171.869 108.572C173.031 108.572 173.903 108.185 174.484 107.41C175.065 106.635 175.356 105.569 175.356 104.116C175.356 102.663 175.065 101.597 174.484 100.822C173.903 100.047 172.934 99.6596 171.869 99.6596C170.706 99.6596 169.834 100.047 169.156 100.822C168.478 101.694 168.187 102.76 168.187 104.213ZM189.015 100.047H184.365V110.8H181.169V100.047H178.844V97.4314H181.072V95.5908C181.072 94.2346 181.556 93.0721 182.428 92.1033C183.3 91.1346 184.462 90.7471 185.915 90.7471C186.303 90.7471 186.69 90.7471 186.981 90.7471C187.272 90.7471 187.562 90.8439 187.756 90.9408V93.7502C187.659 93.7502 187.465 93.6533 187.175 93.5564C186.884 93.4596 186.594 93.4596 186.303 93.4596C185.625 93.4596 185.14 93.6533 184.753 94.0408C184.365 94.4283 184.269 95.1064 184.269 95.8814V97.4314H188.919V94.4283L192.019 93.4596V97.4314H195.215V100.047H192.019V106.247C192.019 107.022 192.212 107.603 192.406 107.991C192.697 108.378 193.181 108.475 193.859 108.475C194.053 108.475 194.247 108.475 194.537 108.378C194.828 108.281 195.022 108.185 195.215 108.088V110.703C195.022 110.8 194.731 110.897 194.247 110.994C193.762 111.091 193.375 111.091 192.89 111.091C191.534 111.091 190.565 110.703 189.887 110.025C189.209 109.347 188.919 108.281 188.919 106.828L189.015 100.047Z" fill="white"/>
<path d="M64.725 86H50V100.725H64.725V86Z" fill="#F25022"/>
<path d="M81.0009 86H66.2759V100.725H81.0009V86Z" fill="#7FBA00"/>
<path d="M64.725 102.275H50V117H64.725V102.275Z" fill="#00A4EF"/>
<path d="M81.0009 102.275H66.2759V117H81.0009V102.275Z" fill="#FFB900"/>
</g>
<defs>
<clipPath id="clip0_209_991">
<rect width="145.312" height="31" fill="white" transform="translate(50 86)"/>
</clipPath>
</defs>
</svg>
