<svg width="245" height="204" viewBox="0 0 245 204" fill="none" xmlns="http://www.w3.org/2000/svg">
<path d="M112.748 104.684H122.674L117.445 96.2349L107.812 111.5H103.443L115.129 93.1821C115.64 92.4378 116.497 92 117.445 92C118.34 92 119.185 92.4269 119.694 93.1437L131.429 111.5H127.035L124.972 108.088H114.932L112.748 104.684ZM158.214 108.091V92.182H154.509V109.639C154.509 110.132 154.698 110.583 155.048 110.944C155.417 111.289 155.907 111.497 156.405 111.497H173.35L175.552 108.091L158.214 108.091ZM96.7665 105.248C100.389 105.248 103.302 102.312 103.302 98.7139C103.302 95.1103 100.389 92.1806 96.7665 92.1806H80.5165V111.5H84.2335V95.581H96.5271C98.2398 95.581 99.6476 96.9874 99.6476 98.7139C99.6476 100.435 98.2398 101.839 96.5271 101.839L86.0572 101.828L97.1304 111.5H102.526L95.0768 105.248L96.7665 105.248ZM57.6642 111.5C52.3204 111.5 48 107.169 48 101.839C48 96.5031 52.3204 92.1806 57.6642 92.1806H68.8783C74.2138 92.1806 78.5341 96.5031 78.5341 101.839C78.5341 107.169 74.2138 111.5 68.8783 111.5H57.6642ZM68.628 108.091C72.0837 108.091 74.8937 105.294 74.8937 101.839C74.8937 98.391 72.0837 95.5811 68.628 95.5811H57.9036C54.4573 95.5811 51.6541 98.391 51.6541 101.839C51.6541 105.294 54.4573 108.091 57.9036 108.091H68.628ZM139.17 111.5C133.837 111.5 129.511 107.169 129.511 101.839C129.511 96.5031 133.837 92.1806 139.17 92.1806H152.517L150.333 95.5811H139.414C135.966 95.5811 133.164 98.391 133.164 101.839C133.164 105.294 135.966 108.091 139.414 108.091H152.815L150.626 111.5H139.17ZM184.615 108.091C181.755 108.091 179.35 106.167 178.603 103.557H194.465L196.665 100.142H178.603C179.329 97.5182 181.755 95.5811 184.615 95.5811H195.535L197.715 92.1806H184.366C179.022 92.1806 174.702 96.5031 174.702 101.839C174.702 107.169 179.022 111.5 184.366 111.5H195.822L198 108.091H184.615Z" fill="black"/>
</svg>
