<svg width="245" height="204" viewBox="0 0 245 204" fill="none" xmlns="http://www.w3.org/2000/svg">
<path fill-rule="evenodd" clip-rule="evenodd" d="M114.453 76.8709C117.355 73.8479 121.397 71.9707 125.866 71.9707C131.806 71.9707 136.991 75.2841 139.751 80.2031C142.22 79.0999 144.895 78.5313 147.6 78.5346C158.315 78.5346 167 87.2974 167 98.1088C167 108.92 158.315 117.683 147.6 117.683C146.289 117.683 145.012 117.552 143.777 117.303C141.346 121.637 136.712 124.567 131.396 124.567C129.17 124.567 127.065 124.055 125.192 123.138C122.727 128.936 116.986 133 110.295 133C103.328 133 97.389 128.59 95.1104 122.407C94.0951 122.621 93.0602 122.729 92.0225 122.729C83.7258 122.73 77 115.934 77 107.55C76.9938 104.893 77.6841 102.281 79.002 99.9739C80.3199 97.6668 82.2195 95.7456 84.5113 94.4017C83.5605 92.2107 83.0713 89.8473 83.0742 87.4589C83.0742 77.8159 90.9005 70 100.555 70C103.244 69.9969 105.898 70.6154 108.309 71.8073C110.72 72.9991 112.822 74.7321 114.453 76.8709Z" fill="white"/>
<path fill-rule="evenodd" clip-rule="evenodd" d="M90.0366 102.673L90.4008 101.662C90.4589 101.489 90.5898 101.546 90.6429 101.578C90.7444 101.639 90.8172 101.693 90.9481 101.769C92.021 102.448 93.0151 102.455 93.3252 102.455C94.1284 102.455 94.6265 102.029 94.6265 101.455V101.426C94.6265 100.802 93.8587 100.566 92.9718 100.294L92.775 100.231C91.5574 99.8844 90.2551 99.3833 90.2551 97.8418V97.8103C90.2551 96.3475 91.4353 95.3267 93.1244 95.3267L93.3094 95.3248C94.3016 95.3248 95.2604 95.6132 95.9553 96.0345C96.0183 96.0739 96.0793 96.1467 96.0438 96.2432L95.6698 97.2541C95.6039 97.4264 95.4238 97.3122 95.4238 97.3122C94.6987 96.9344 93.8964 96.7286 93.0791 96.7108C92.3626 96.7108 91.9019 97.0907 91.9019 97.6065V97.639C91.9019 98.2405 92.6913 98.4974 93.6067 98.7956L93.7642 98.8449C94.9779 99.2288 96.2732 99.7604 96.2732 101.222V101.253C96.2732 102.833 95.1255 103.814 93.2799 103.814C92.3734 103.814 91.5062 103.674 90.5888 103.187C90.4156 103.087 90.2443 103 90.075 102.877C90.0573 102.851 89.9795 102.821 90.0356 102.673H90.0366ZM117.063 102.673L117.428 101.662C117.481 101.497 117.636 101.558 117.669 101.578C117.77 101.641 117.844 101.693 117.974 101.769C119.049 102.448 120.041 102.455 120.354 102.455C121.155 102.455 121.654 102.029 121.654 101.455V101.426C121.654 100.802 120.887 100.566 120 100.294L119.803 100.231C118.584 99.8844 117.281 99.3833 117.281 97.8418V97.8103C117.281 96.3475 118.462 95.3267 120.152 95.3267L120.336 95.3248C121.328 95.3248 122.287 95.6132 122.983 96.0345C123.044 96.0739 123.106 96.1467 123.072 96.2432C123.038 96.3328 122.73 97.1596 122.698 97.2541C122.63 97.4264 122.452 97.3122 122.452 97.3122C121.727 96.9342 120.924 96.7285 120.106 96.7108C119.39 96.7108 118.929 97.0907 118.929 97.6065V97.639C118.929 98.2405 119.717 98.4974 120.634 98.7956L120.791 98.8449C122.005 99.2288 123.299 99.7604 123.299 101.222V101.253C123.299 102.833 122.153 103.814 120.307 103.814C119.4 103.814 118.532 103.674 117.616 103.187C117.443 103.087 117.271 103 117.101 102.877C117.083 102.851 117.006 102.821 117.063 102.673ZM137.054 97.9195C137.206 98.4275 137.28 98.9856 137.28 99.5753C137.28 100.166 137.206 100.722 137.054 101.23C136.915 101.72 136.678 102.176 136.355 102.57C136.032 102.952 135.627 103.257 135.17 103.462C134.698 103.678 134.143 103.786 133.518 103.786C132.894 103.786 132.337 103.678 131.867 103.462C131.41 103.257 131.005 102.952 130.682 102.57C130.36 102.176 130.121 101.72 129.982 101.231C129.827 100.693 129.751 100.135 129.755 99.5753C129.755 98.9846 129.831 98.4275 129.982 97.9195C130.133 97.4077 130.369 96.9569 130.681 96.5808C131.004 96.1966 131.41 95.8893 131.867 95.6811C132.338 95.4606 132.892 95.3494 133.518 95.3494C134.144 95.3494 134.699 95.4606 135.17 95.6811C135.641 95.9006 136.04 96.2028 136.355 96.5808C136.668 96.9569 136.904 97.4077 137.054 97.9195ZM135.515 99.5753C135.515 98.6824 135.349 97.9806 135.021 97.4884C134.696 97.0001 134.204 96.7639 133.518 96.7639C132.833 96.7639 132.345 97.0001 132.024 97.4884C131.702 97.9806 131.538 98.6824 131.538 99.5753C131.538 100.467 131.702 101.174 132.026 101.67C132.345 102.164 132.833 102.403 133.518 102.403C134.204 102.403 134.696 102.163 135.021 101.67C135.347 101.174 135.515 100.467 135.515 99.5753ZM149.71 102.164L150.088 103.21C150.138 103.338 150.026 103.394 150.026 103.394C149.443 103.62 148.632 103.782 147.844 103.782C146.507 103.782 145.484 103.397 144.801 102.637C144.121 101.879 143.775 100.848 143.775 99.5694C143.775 98.9778 143.861 98.4176 144.028 97.9107C144.195 97.3988 144.446 96.948 144.777 96.572C145.12 96.1853 145.544 95.8783 146.018 95.6722C146.51 95.4527 147.089 95.3425 147.735 95.3425C148.171 95.3425 148.559 95.369 148.891 95.4183C149.247 95.4734 149.72 95.6014 149.92 95.6791C149.956 95.6929 150.058 95.7421 150.016 95.8612C149.871 96.2717 149.771 96.5395 149.636 96.9135C149.577 97.073 149.457 97.0199 149.457 97.0199C148.95 96.8604 148.464 96.7875 147.829 96.7875C147.066 96.7875 146.494 97.0415 146.12 97.5386C145.742 98.0396 145.53 98.6962 145.527 99.5694C145.524 100.527 145.764 101.237 146.189 101.676C146.614 102.114 147.206 102.335 147.952 102.335C148.254 102.335 148.54 102.316 148.797 102.275C149.051 102.235 149.289 102.156 149.513 102.069C149.513 102.069 149.658 102.015 149.71 102.164ZM157.594 97.6292C157.931 98.8045 157.755 99.8194 157.749 99.8755C157.736 100.009 157.598 100.011 157.598 100.011L152.383 100.007C152.415 100.8 152.605 101.361 152.989 101.742C153.366 102.115 153.965 102.354 154.775 102.355C156.013 102.358 156.542 102.109 156.916 101.97C156.916 101.97 157.059 101.919 157.113 102.061L157.453 103.017C157.522 103.177 157.466 103.233 157.409 103.266C157.082 103.446 156.289 103.783 154.782 103.786C154.05 103.789 153.413 103.685 152.889 103.481C152.39 103.297 151.941 102.999 151.577 102.612C151.228 102.232 150.97 101.779 150.82 101.286C150.658 100.746 150.579 100.184 150.584 99.6205C150.584 99.03 150.66 98.4689 150.813 97.956C150.965 97.4392 151.202 96.9834 151.519 96.6005C151.846 96.2097 152.257 95.8969 152.72 95.685C153.199 95.4596 153.791 95.3494 154.443 95.3494C155.001 95.3494 155.511 95.4695 155.935 95.6525C156.262 95.7923 156.591 96.0453 156.928 96.4075C157.14 96.6359 157.464 97.136 157.594 97.6292ZM152.407 98.7189H156.128C156.09 98.2405 155.996 97.8113 155.782 97.4884C155.455 97.0001 155.004 96.7314 154.32 96.7314C153.635 96.7314 153.149 97.0001 152.827 97.4884C152.616 97.8113 152.48 98.2228 152.406 98.7189H152.407ZM115.816 97.6292C116.15 98.8045 115.978 99.8194 115.972 99.8755C115.958 100.009 115.821 100.011 115.821 100.011L110.604 100.007C110.637 100.8 110.826 101.361 111.211 101.742C111.588 102.115 112.186 102.354 112.996 102.355C114.234 102.358 114.764 102.109 115.138 101.97C115.138 101.97 115.281 101.919 115.334 102.061L115.675 103.017C115.744 103.177 115.689 103.233 115.632 103.266C115.303 103.446 114.51 103.783 113.004 103.786C112.271 103.789 111.634 103.685 111.111 103.481C110.612 103.296 110.163 102.999 109.798 102.612C109.45 102.232 109.192 101.779 109.043 101.286C108.88 100.746 108.8 100.185 108.805 99.6205C108.805 99.03 108.882 98.4689 109.034 97.956C109.176 97.4612 109.416 97 109.74 96.6005C110.068 96.21 110.478 95.8973 110.941 95.685C111.422 95.4596 112.014 95.3494 112.664 95.3494C113.177 95.3481 113.686 95.4513 114.158 95.6525C114.485 95.7923 114.814 96.0453 115.149 96.4075C115.362 96.6359 115.686 97.136 115.816 97.6292ZM110.627 98.7189H114.35C114.311 98.2405 114.217 97.8113 114.004 97.4884C113.679 97.0001 113.226 96.7314 112.542 96.7314C111.857 96.7314 111.37 97.0001 111.05 97.4884C110.837 97.8113 110.702 98.2228 110.626 98.7189H110.627ZM101.428 98.4698C101.428 98.4698 101.839 98.5063 102.288 98.5712V98.3507C102.288 97.6548 102.144 97.327 101.859 97.1075C101.568 96.885 101.133 96.7698 100.57 96.7698C100.57 96.7698 99.2999 96.754 98.2959 97.2994C98.2496 97.327 98.2113 97.3427 98.2113 97.3427C98.2113 97.3427 98.0853 97.387 98.04 97.258L97.6709 96.2658C97.6138 96.123 97.7172 96.0581 97.7172 96.0581C98.1867 95.6919 99.3246 95.4704 99.3246 95.4704C99.7865 95.3892 100.254 95.3461 100.723 95.3415C101.765 95.3415 102.571 95.5836 103.119 96.063C103.668 96.5444 103.948 97.32 103.948 98.3655L103.951 103.138C103.951 103.138 103.962 103.276 103.831 103.307C103.831 103.307 103.639 103.36 103.467 103.401C103.292 103.441 102.664 103.569 102.151 103.656C101.628 103.743 101.098 103.787 100.567 103.787C100.06 103.787 99.5953 103.74 99.1858 103.647C98.8042 103.567 98.4428 103.41 98.1237 103.186C97.8329 102.975 97.5994 102.694 97.4445 102.37C97.2841 102.042 97.2033 101.641 97.2033 101.179C97.2033 100.725 97.2988 100.32 97.4829 99.9759C97.6679 99.6334 97.9219 99.343 98.2408 99.1155C98.5703 98.8836 98.9386 98.7126 99.3285 98.6106C99.735 98.5023 100.167 98.4462 100.614 98.4462C100.942 98.4462 101.215 98.4531 101.428 98.4698ZM99.3521 102.136C99.3491 102.135 99.8197 102.505 100.882 102.44C101.628 102.395 102.289 102.253 102.289 102.253V99.8804C102.289 99.8804 101.622 99.7712 100.873 99.7604C99.8108 99.7475 99.358 100.138 99.361 100.137C99.0479 100.36 98.8954 100.69 98.8954 101.146C98.8954 101.439 98.9475 101.667 99.0529 101.827C99.1188 101.932 99.1474 101.971 99.3521 102.136ZM143.503 95.7815C143.454 95.9242 143.201 96.6389 143.11 96.8761C143.076 96.9667 143.021 97.0287 142.92 97.0179C142.92 97.0179 142.62 96.949 142.347 96.949C142.159 96.949 141.89 96.9726 141.648 97.0474C141.405 97.122 141.184 97.2548 141.004 97.4343C140.813 97.6184 140.659 97.8772 140.546 98.202C140.432 98.5289 140.373 99.0486 140.373 99.5704V103.457C140.373 103.477 140.369 103.498 140.361 103.517C140.354 103.536 140.342 103.554 140.327 103.569C140.313 103.583 140.295 103.595 140.276 103.603C140.257 103.611 140.236 103.615 140.216 103.615H138.847C138.826 103.615 138.805 103.612 138.785 103.604C138.766 103.596 138.748 103.584 138.733 103.57C138.718 103.555 138.706 103.538 138.698 103.519C138.69 103.499 138.685 103.479 138.685 103.458V95.6762C138.685 95.5885 138.749 95.5187 138.837 95.5187H140.172C140.261 95.5187 140.324 95.5885 140.324 95.6762V96.3121C140.524 96.0443 140.882 95.808 141.206 95.6624C141.531 95.5147 141.894 95.4065 142.55 95.4458C142.892 95.4665 143.336 95.56 143.426 95.5945C143.443 95.6014 143.459 95.6119 143.472 95.6252C143.486 95.6384 143.496 95.6542 143.504 95.6717C143.511 95.689 143.515 95.7078 143.515 95.7266C143.514 95.7455 143.511 95.7642 143.503 95.7815ZM130.638 92.1757C130.675 92.1905 130.774 92.2387 130.735 92.3569L130.334 93.4525C130.301 93.5351 130.279 93.5844 130.109 93.5332C129.884 93.4624 129.649 93.4259 129.413 93.4249C129.206 93.4249 129.019 93.4515 128.854 93.5066C128.688 93.5596 128.538 93.6522 128.417 93.7763C128.255 93.9327 128.13 94.1229 128.051 94.3335C127.859 94.8847 127.785 95.4724 127.775 95.5098H129.442C129.583 95.5098 129.627 95.5748 129.614 95.6781L129.419 96.7629C129.387 96.9204 129.245 96.9145 129.245 96.9145H127.526L126.352 103.565C126.251 104.161 126.097 104.748 125.893 105.317C125.709 105.799 125.519 106.15 125.214 106.486C124.953 106.786 124.622 107.017 124.25 107.157C123.889 107.29 123.45 107.358 122.971 107.358C122.742 107.358 122.496 107.353 122.206 107.284C122.044 107.247 121.885 107.2 121.728 107.144C121.664 107.122 121.612 107.04 121.65 106.935C121.685 106.832 121.994 105.987 122.036 105.875C122.089 105.741 122.224 105.793 122.224 105.793C122.317 105.832 122.382 105.858 122.505 105.882C122.63 105.907 122.797 105.928 122.924 105.928C123.152 105.928 123.358 105.901 123.539 105.84C123.755 105.77 123.883 105.643 124.015 105.474C124.153 105.295 124.265 105.054 124.38 104.73C124.495 104.403 124.601 103.97 124.691 103.445L125.861 96.9155H124.709C124.571 96.9155 124.524 96.8505 124.54 96.7462L124.732 95.6614C124.763 95.5039 124.91 95.5098 124.91 95.5098H126.092L126.156 95.1574C126.333 94.11 126.684 93.3137 127.204 92.791C127.727 92.2643 128.47 91.9985 129.413 91.9985C129.683 91.9985 129.921 92.0163 130.123 92.0527C130.32 92.0901 130.471 92.1245 130.638 92.1757ZM107.334 103.457C107.334 103.545 107.273 103.615 107.184 103.615H105.801C105.713 103.615 105.653 103.544 105.653 103.458V92.3214C105.653 92.2358 105.714 92.1649 105.8 92.1649H107.184C107.273 92.1649 107.334 92.2358 107.334 92.3224V103.457Z" fill="#060606"/>
</svg>
