<svg width="245" height="204" viewBox="0 0 245 204" fill="none" xmlns="http://www.w3.org/2000/svg">
<path fill-rule="evenodd" clip-rule="evenodd" d="M114.453 77.8705C117.355 74.8477 121.397 72.9706 125.866 72.9706C131.806 72.9706 136.99 76.2838 139.75 81.2023C142.22 80.0993 144.895 79.5307 147.599 79.5339C158.314 79.5339 167 88.2962 167 99.1069C167 109.917 158.314 118.68 147.599 118.68C146.289 118.68 145.012 118.549 143.776 118.3C141.346 122.634 136.712 125.563 131.396 125.563C129.17 125.563 127.065 125.051 125.192 124.135C122.727 129.932 116.985 133.996 110.295 133.996C103.328 133.996 97.3889 129.586 95.1103 123.403C94.095 123.618 93.0601 123.726 92.0225 123.725C83.7258 123.726 77 116.931 77 108.547C76.9938 105.891 77.6841 103.279 79.002 100.972C80.3199 98.6649 82.2195 96.7438 84.5113 95.4C83.5605 93.2091 83.0713 90.8459 83.0742 88.4577C83.0742 78.8154 90.9004 71 100.554 71C103.244 70.9969 105.898 71.6153 108.308 72.8071C110.719 73.9989 112.822 75.7318 114.453 77.8705Z" fill="#00A1E0"/>
<path fill-rule="evenodd" clip-rule="evenodd" d="M90.0361 103.669L90.4003 102.658C90.4584 102.485 90.5893 102.542 90.6425 102.574C90.7439 102.634 90.8167 102.689 90.9476 102.765C92.0205 103.444 93.0147 103.45 93.3247 103.45C94.1279 103.45 94.626 103.025 94.626 102.451V102.422C94.626 101.798 93.8582 101.562 92.9713 101.29L92.7745 101.227C91.5569 100.88 90.2547 100.379 90.2547 98.838V98.8065C90.2547 97.3438 91.4348 96.3231 93.1239 96.3231L93.309 96.3211C94.3011 96.3211 95.2599 96.6095 95.9548 97.0308C96.0178 97.0701 96.0788 97.143 96.0434 97.2394L95.6693 98.2503C95.6034 98.4226 95.4232 98.3084 95.4232 98.3084C94.6982 97.9306 93.896 97.7248 93.0786 97.707C92.3621 97.707 91.9014 98.0869 91.9014 98.6027V98.6352C91.9014 99.2366 92.6908 99.4935 93.6062 99.7917L93.7637 99.841C94.9774 100.225 96.2727 100.756 96.2727 102.218V102.249C96.2727 103.828 95.125 104.81 93.2794 104.81C92.3729 104.81 91.5057 104.67 90.5883 104.183C90.4151 104.082 90.2438 103.996 90.0745 103.873C90.0568 103.847 89.9791 103.817 90.0352 103.669H90.0361ZM117.062 103.669L117.427 102.658C117.481 102.493 117.635 102.554 117.669 102.574C117.769 102.636 117.844 102.689 117.974 102.765C119.049 103.444 120.041 103.45 120.354 103.45C121.154 103.45 121.653 103.025 121.653 102.451V102.422C121.653 101.798 120.886 101.562 119.999 101.29L119.803 101.227C118.583 100.88 117.281 100.379 117.281 98.838V98.8065C117.281 97.3438 118.462 96.3231 120.151 96.3231L120.335 96.3211C121.327 96.3211 122.287 96.6095 122.983 97.0308C123.044 97.0701 123.106 97.143 123.071 97.2394C123.037 97.329 122.73 98.1558 122.697 98.2503C122.629 98.4226 122.451 98.3084 122.451 98.3084C121.726 97.9305 120.923 97.7247 120.106 97.707C119.389 97.707 118.928 98.0869 118.928 98.6027V98.6352C118.928 99.2366 119.717 99.4935 120.633 99.7917L120.791 99.841C122.004 100.225 123.299 100.756 123.299 102.218V102.249C123.299 103.828 122.152 104.81 120.306 104.81C119.399 104.81 118.532 104.67 117.615 104.183C117.442 104.082 117.271 103.996 117.101 103.873C117.083 103.847 117.005 103.817 117.062 103.669ZM137.053 98.9157C137.205 99.4236 137.28 99.9817 137.28 100.571C137.28 101.162 137.205 101.718 137.053 102.226C136.915 102.716 136.677 103.172 136.355 103.566C136.032 103.948 135.627 104.253 135.169 104.457C134.697 104.674 134.142 104.782 133.518 104.782C132.894 104.782 132.337 104.674 131.866 104.457C131.409 104.253 131.004 103.948 130.681 103.566C130.359 103.172 130.121 102.716 129.981 102.227C129.826 101.689 129.75 101.131 129.755 100.571C129.755 99.9807 129.831 99.4236 129.981 98.9157C130.133 98.4039 130.368 97.9531 130.68 97.5771C131.004 97.1929 131.409 96.8856 131.866 96.6774C132.338 96.4569 132.892 96.3457 133.518 96.3457C134.144 96.3457 134.698 96.4569 135.169 96.6774C135.64 96.8969 136.04 97.1991 136.355 97.5771C136.668 97.9531 136.904 98.4039 137.053 98.9157ZM135.514 100.571C135.514 99.6785 135.349 98.9767 135.02 98.4846C134.695 97.9964 134.203 97.7601 133.518 97.7601C132.833 97.7601 132.345 97.9964 132.024 98.4846C131.702 98.9767 131.537 99.6785 131.537 100.571C131.537 101.463 131.702 102.17 132.026 102.666C132.345 103.16 132.833 103.399 133.518 103.399C134.203 103.399 134.695 103.159 135.02 102.666C135.347 102.17 135.514 101.463 135.514 100.571ZM149.71 103.16L150.088 104.205C150.137 104.333 150.026 104.389 150.026 104.389C149.442 104.616 148.632 104.777 147.843 104.777C146.507 104.777 145.483 104.392 144.8 103.633C144.121 102.875 143.774 101.844 143.774 100.565C143.774 99.9738 143.86 99.4138 144.027 98.9069C144.195 98.395 144.446 97.9442 144.776 97.5682C145.12 97.1816 145.543 96.8746 146.018 96.6685C146.51 96.449 147.088 96.3388 147.734 96.3388C148.17 96.3388 148.558 96.3654 148.891 96.4146C149.246 96.4697 149.719 96.5977 149.919 96.6754C149.956 96.6892 150.057 96.7384 150.016 96.8575C149.87 97.268 149.771 97.5357 149.636 97.9098C149.577 98.0692 149.457 98.0161 149.457 98.0161C148.95 97.8566 148.464 97.7838 147.829 97.7838C147.066 97.7838 146.493 98.0377 146.119 98.5348C145.741 99.0358 145.529 99.6923 145.526 100.565C145.523 101.523 145.764 102.233 146.189 102.672C146.613 103.11 147.206 103.331 147.952 103.331C148.254 103.331 148.539 103.312 148.796 103.271C149.05 103.231 149.288 103.152 149.513 103.065C149.513 103.065 149.657 103.01 149.71 103.16ZM157.594 98.6253C157.93 99.8006 157.754 100.815 157.748 100.872C157.736 101.005 157.598 101.007 157.598 101.007L152.382 101.003C152.415 101.796 152.604 102.357 152.988 102.738C153.365 103.111 153.964 103.35 154.774 103.351C156.012 103.354 156.541 103.105 156.916 102.966C156.916 102.966 157.058 102.915 157.113 103.057L157.452 104.012C157.521 104.173 157.466 104.229 157.408 104.261C157.081 104.442 156.289 104.778 154.781 104.782C154.049 104.785 153.413 104.681 152.888 104.477C152.389 104.292 151.94 103.995 151.576 103.608C151.228 103.228 150.969 102.775 150.819 102.282C150.657 101.742 150.578 101.18 150.584 100.617C150.584 100.026 150.66 99.465 150.812 98.9521C150.965 98.4354 151.202 97.9796 151.518 97.5967C151.845 97.2059 152.256 96.8932 152.72 96.6813C153.198 96.4559 153.791 96.3457 154.442 96.3457C155 96.3457 155.51 96.4658 155.934 96.6489C156.261 96.7886 156.59 97.0416 156.927 97.4038C157.139 97.6322 157.463 98.1322 157.594 98.6253ZM152.407 99.715H156.127C156.089 99.2366 155.995 98.8074 155.781 98.4846C155.454 97.9964 155.003 97.7277 154.319 97.7277C153.634 97.7277 153.148 97.9964 152.826 98.4846C152.615 98.8074 152.48 99.2189 152.407 99.715ZM115.815 98.6253C116.15 99.8006 115.978 100.815 115.972 100.872C115.958 101.005 115.82 101.007 115.82 101.007L110.603 101.003C110.637 101.796 110.826 102.357 111.211 102.738C111.588 103.111 112.185 103.35 112.995 103.351C114.233 103.354 114.764 103.105 115.138 102.966C115.138 102.966 115.281 102.915 115.334 103.057L115.674 104.012C115.743 104.173 115.688 104.229 115.631 104.261C115.302 104.442 114.509 104.778 113.003 104.782C112.271 104.785 111.634 104.681 111.11 104.477C110.611 104.292 110.162 103.995 109.797 103.608C109.45 103.228 109.192 102.775 109.042 102.282C108.879 101.742 108.8 101.181 108.805 100.617C108.805 100.026 108.882 99.465 109.033 98.9521C109.175 98.4573 109.415 97.9963 109.74 97.5967C110.067 97.2063 110.478 96.8936 110.941 96.6813C111.421 96.4559 112.014 96.3457 112.663 96.3457C113.177 96.3445 113.685 96.4476 114.158 96.6489C114.484 96.7886 114.813 97.0416 115.149 97.4038C115.361 97.6322 115.685 98.1322 115.815 98.6253ZM110.627 99.715H114.349C114.31 99.2366 114.217 98.8074 114.003 98.4846C113.678 97.9964 113.225 97.7277 112.541 97.7277C111.856 97.7277 111.369 97.9964 111.049 98.4846C110.836 98.8074 110.703 99.2189 110.627 99.715ZM101.428 99.4659C101.428 99.4659 101.839 99.5024 102.288 99.5673V99.3468C102.288 98.6509 102.143 98.3232 101.859 98.1037C101.567 97.8812 101.132 97.766 100.569 97.766C100.569 97.766 99.2994 97.7503 98.2955 98.2956C98.2492 98.3232 98.2108 98.3389 98.2108 98.3389C98.2108 98.3389 98.0848 98.3832 98.0395 98.2543L97.6704 97.2621C97.6133 97.1194 97.7167 97.0544 97.7167 97.0544C98.1862 96.6882 99.324 96.4668 99.324 96.4668C99.786 96.3856 100.254 96.3425 100.723 96.3378C101.764 96.3378 102.57 96.58 103.119 97.0593C103.668 97.5406 103.947 98.3163 103.947 99.3616L103.95 104.134C103.95 104.134 103.961 104.271 103.83 104.303C103.83 104.303 103.638 104.356 103.466 104.396C103.292 104.437 102.664 104.565 102.151 104.651C101.627 104.739 101.097 104.783 100.566 104.783C100.059 104.783 99.5947 104.736 99.1853 104.642C98.8037 104.562 98.4423 104.406 98.1232 104.182C97.8324 103.971 97.5989 103.69 97.444 103.366C97.2836 103.038 97.2029 102.637 97.2029 102.175C97.2029 101.721 97.2983 101.316 97.4824 100.972C97.6675 100.629 97.9214 100.339 98.2403 100.112C98.5698 99.8797 98.9382 99.7087 99.328 99.6067C99.7345 99.4984 100.167 99.4423 100.613 99.4423C100.941 99.4423 101.215 99.4492 101.428 99.4659ZM99.3516 103.131C99.3487 103.131 99.8192 103.501 100.881 103.436C101.627 103.39 102.289 103.249 102.289 103.249V100.876C102.289 100.876 101.621 100.767 100.872 100.756C99.8103 100.744 99.3575 101.134 99.3605 101.133C99.0475 101.356 98.8949 101.686 98.8949 102.142C98.8949 102.435 98.9471 102.663 99.0524 102.822C99.1183 102.928 99.1469 102.967 99.3516 103.131ZM143.503 96.7778C143.453 96.9205 143.2 97.6351 143.109 97.8723C143.075 97.9629 143.02 98.0249 142.919 98.0141C142.919 98.0141 142.62 97.9452 142.346 97.9452C142.158 97.9452 141.889 97.9688 141.647 98.0436C141.404 98.1183 141.183 98.251 141.003 98.4305C140.813 98.6145 140.658 98.8734 140.546 99.1982C140.432 99.525 140.373 100.045 140.373 100.566V104.452C140.373 104.473 140.369 104.494 140.361 104.513C140.353 104.532 140.341 104.55 140.327 104.564C140.312 104.579 140.295 104.591 140.276 104.599C140.256 104.607 140.236 104.611 140.215 104.611H138.846C138.825 104.611 138.804 104.607 138.785 104.6C138.765 104.592 138.748 104.58 138.733 104.566C138.718 104.551 138.706 104.534 138.697 104.514C138.689 104.495 138.685 104.474 138.684 104.453V96.6725C138.684 96.5849 138.748 96.515 138.836 96.515H140.172C140.26 96.515 140.323 96.5849 140.323 96.6725V97.3083C140.523 97.0406 140.881 96.8044 141.205 96.6587C141.53 96.5111 141.893 96.4028 142.55 96.4422C142.891 96.4628 143.335 96.5563 143.425 96.5908C143.442 96.5978 143.458 96.6082 143.472 96.6215C143.485 96.6347 143.496 96.6505 143.503 96.6679C143.51 96.6854 143.514 96.7041 143.514 96.7229C143.514 96.7418 143.51 96.7604 143.503 96.7778ZM130.638 93.1723C130.674 93.1871 130.774 93.2353 130.734 93.3534L130.334 94.4489C130.3 94.5316 130.278 94.5808 130.108 94.5296C129.883 94.4588 129.648 94.4223 129.412 94.4214C129.206 94.4214 129.019 94.448 128.853 94.5031C128.688 94.5561 128.538 94.6486 128.416 94.7728C128.254 94.9291 128.129 95.1194 128.05 95.3299C127.858 95.8811 127.784 96.4687 127.774 96.5061H129.442C129.583 96.5061 129.627 96.5711 129.613 96.6744L129.418 97.7592C129.387 97.9166 129.244 97.9107 129.244 97.9107H127.525L126.351 104.561C126.25 105.157 126.097 105.743 125.892 106.313C125.708 106.794 125.518 107.145 125.213 107.481C124.953 107.782 124.622 108.012 124.25 108.152C123.888 108.285 123.449 108.353 122.97 108.353C122.742 108.353 122.496 108.348 122.205 108.279C122.043 108.242 121.884 108.196 121.728 108.14C121.664 108.117 121.612 108.035 121.649 107.931C121.685 107.828 121.994 106.982 122.035 106.871C122.088 106.737 122.224 106.788 122.224 106.788C122.316 106.828 122.381 106.853 122.504 106.878C122.629 106.902 122.797 106.924 122.924 106.924C123.151 106.924 123.358 106.896 123.538 106.835C123.755 106.766 123.882 106.639 124.014 106.469C124.152 106.291 124.264 106.05 124.38 105.726C124.495 105.398 124.6 104.965 124.691 104.441L125.86 97.9117H124.708C124.57 97.9117 124.523 97.8468 124.539 97.7424L124.732 96.6577C124.762 96.5002 124.909 96.5061 124.909 96.5061H126.091L126.155 96.1538C126.332 95.1065 126.684 94.3101 127.204 93.7875C127.726 93.2609 128.469 92.9951 129.412 92.9951C129.682 92.9951 129.92 93.0128 130.122 93.0493C130.32 93.0867 130.47 93.1211 130.638 93.1723ZM107.333 104.452C107.333 104.541 107.272 104.611 107.184 104.611H105.801C105.712 104.611 105.652 104.54 105.652 104.453V93.318C105.652 93.2323 105.713 93.1615 105.8 93.1615H107.184C107.272 93.1615 107.333 93.2323 107.333 93.319V104.452Z" fill="white"/>
</svg>
