<svg width="245" height="204" viewBox="0 0 245 204" fill="none" xmlns="http://www.w3.org/2000/svg">
<g clip-path="url(#clip0_203_1055)">
<path d="M63.3999 109.5C64.6999 109.3 65.8999 108.9 66.9999 108.3C69.6999 106.8 71.2999 104.2 71.3999 100.9V100.6H75.1999C74.9999 98.6999 74.1999 96.8999 73.1999 95.3999L69.2999 97.9999C70.4999 99.8999 70.5999 101.9 69.6999 103.9C68.6999 106.4 66.1999 108.5 63.3999 109.5Z" fill="white"/>
<path d="M75.2999 101.3H72C71.8 104.6 70.1 107.3 67.3 108.8C65.7 109.7 63.9 110.1 62 110.1C60.6 110.1 59.1 109.8 57.7 109.3C59.4 110.3 61.3 110.9 63.2 110.9C66.7 110.9 69.9 109 71.7 105.9L71.9 105.6L74.1 107C74.9 105.5 75.2999 103.8 75.2999 102C75.2999 101.9 75.2999 101.6 75.2999 101.3Z" fill="white"/>
<path d="M63.3001 111.6C59.8001 111.6 56.4001 109.8 54.1001 106.9C55.9001 110.7 59.7001 113.3 64.2001 113.3C68.3001 113.3 71.9001 111.1 73.9001 107.7L72.2001 106.6C70.1001 109.7 66.9001 111.6 63.3001 111.6Z" fill="white"/>
<path d="M64.1 113.9C57.6 113.9 52.4 108.7 52.4 102.2C52.4 95.7 57.6 90.5 64.1 90.5C70.6 90.5 75.8 95.7 75.8 102.2C75.9 108.6 70.6 113.9 64.1 113.9ZM64.1 86C55.2 86 48 93.2 48 102.1C48 111 55.2 118.2 64.1 118.2C73 118.2 80.3 111 80.3 102.1C80.3 93.2 73 86 64.1 86Z" fill="white"/>
<path d="M192.9 108.1V105.3H186.7V102.5H192.2V99.9998H186.7V97.4998H192.6V94.6998H183.6V108H192.9V108.1ZM176.1 99.5998C176 99.7998 175.8 99.9998 175.5 100.1C175.3 100.2 175 100.3 174.8 100.3C174.5 100.3 174.2 100.4 174 100.4H172.5V97.2998H174.2C174.4 97.2998 174.7 97.2998 174.9 97.3998C175.1 97.4998 175.4 97.4998 175.6 97.5998C175.8 97.6998 176 97.8998 176.1 98.0998C176.2 98.2998 176.3 98.5998 176.3 98.7998C176.4 99.0998 176.3 99.3998 176.1 99.5998ZM180.3 108.1L176.8 102.4C177.7 102.1 178.3 101.7 178.8 101.1C179.3 100.5 179.5 99.6998 179.5 98.7998C179.5 97.9998 179.4 97.3998 179.1 96.8998C178.8 96.3998 178.4 95.9998 177.9 95.6998C177.4 95.3998 176.9 95.1998 176.3 94.9998C175.7 94.8998 175.1 94.7998 174.4 94.7998H169.3V108H172.5V102.7H173.6L176.5 108H180.3V108.1ZM162.1 103C161.9 103.5 161.6 103.9 161.3 104.3C161 104.7 160.6 105 160.1 105.1C159.6 105.3 159.1 105.4 158.6 105.4C158 105.4 157.5 105.3 157.1 105.1C156.6 104.9 156.2 104.6 155.9 104.3C155.6 103.9 155.3 103.5 155.1 103C154.9 102.5 154.8 101.9 154.8 101.3C154.8 100.7 154.9 100.2 155.1 99.6998C155.3 99.1998 155.6 98.7998 155.9 98.3998C156.2 97.9998 156.6 97.6998 157.1 97.5998C157.6 97.4998 158.1 97.2998 158.6 97.2998C159.1 97.2998 159.7 97.3998 160.2 97.5998C160.7 97.7998 161.1 98.0998 161.4 98.3998C161.7 98.7998 162 99.1998 162.2 99.6998C162.4 100.2 162.5 100.7 162.5 101.3C162.4 101.9 162.3 102.5 162.1 103ZM165.3 98.3998C164.9 97.5998 164.4 96.7998 163.8 96.1998C163.1 95.5998 162.4 95.0998 161.5 94.7998C160.6 94.4998 159.6 94.2998 158.6 94.2998C157.6 94.2998 156.6 94.4998 155.7 94.7998C154.8 95.0998 154 95.5998 153.4 96.1998C152.7 96.7998 152.3 97.4998 151.9 98.3998C151.5 99.1998 151.3 100.2 151.3 101.3C151.3 102.3 151.5 103.3 151.9 104.2C152.3 105.1 152.8 105.8 153.4 106.4C154.1 107 154.8 107.5 155.7 107.8C156.6 108.1 157.6 108.3 158.6 108.3C159.6 108.3 160.6 108.1 161.5 107.8C162.4 107.5 163.2 107 163.8 106.4C164.5 105.8 164.9 105 165.3 104.2C165.7 103.3 165.9 102.4 165.9 101.3C165.9 100.2 165.6 99.2998 165.3 98.3998ZM149.4 106.2L147.2 104.1C146.9 104.5 146.5 104.8 146.1 105.1C145.6 105.4 145.1 105.5 144.4 105.5C143.8 105.5 143.3 105.4 142.9 105.2C142.4 105 142 104.7 141.7 104.4C141.2 104 141 103.5 140.8 103C140.6 102.5 140.5 102 140.5 101.3C140.5 100.7 140.6 100.2 140.8 99.6998C141 99.1998 141.3 98.7998 141.6 98.3998C141.9 97.9998 142.3 97.6998 142.8 97.5998C143.3 97.3998 143.8 97.2998 144.4 97.2998C144.9 97.2998 145.4 97.3998 145.9 97.5998C146.4 97.7998 146.8 98.0998 147.1 98.4998L149.3 96.2998C148.7 95.5998 148 95.1998 147.1 94.7998C146.2 94.4998 145.3 94.2998 144.3 94.2998C143.3 94.2998 142.3 94.4998 141.5 94.7998C140.6 95.0998 139.8 95.5998 139.2 96.1998C138.5 96.7998 138 97.4998 137.7 98.3998C137.4 99.2998 137 100.2 137 101.3C137 102.3 137.2 103.3 137.6 104.2C138 105.1 138.5 105.8 139.1 106.4C139.8 107 140.5 107.5 141.4 107.8C142.3 108.1 143.2 108.3 144.3 108.3C145.4 108.3 146.4 108.1 147.3 107.7C148 107.4 148.8 106.9 149.4 106.2ZM134 108.1V105.3H127.8V102.5H133.3V99.9998H127.8V97.4998H133.7V94.6998H124.7V108H134V108.1ZM121.1 97.3998V94.6998H110.4V97.4998H114.2V108H117.4V97.3998H121.1ZM106.9 94.6998H103.6V108H106.9V94.6998ZM99.7001 95.9998C99.1001 95.3998 98.4001 95.0998 97.7001 94.7998C96.9001 94.4998 96.1001 94.3998 95.4001 94.3998C94.8001 94.3998 94.2001 94.4998 93.5001 94.5998C92.9001 94.7998 92.3001 94.9998 91.8001 95.2998C91.3001 95.5998 90.9001 96.0998 90.6001 96.5998C90.3001 97.0998 90.1001 97.7998 90.1001 98.4998C90.1001 99.0998 90.2001 99.5998 90.4001 99.9998C90.6001 100.4 90.9001 100.8 91.2001 101.1C91.5001 101.4 91.9001 101.7 92.3001 101.8C92.7001 102 93.1001 102.2 93.6001 102.3C94.0001 102.4 94.4001 102.6 94.8001 102.7C95.2001 102.8 95.4001 103 95.7001 103.1C95.9001 103.2 96.1001 103.4 96.3001 103.6C96.4001 103.8 96.5001 104 96.5001 104.3C96.5001 104.6 96.4001 104.8 96.3001 105C96.2001 105.2 96.1001 105.3 95.9001 105.5C95.7001 105.6 95.5001 105.7 95.3001 105.8C95.1001 105.9 94.8001 105.9 94.6001 105.9C94.1001 105.9 93.5001 105.8 93.0001 105.5C92.5001 105.2 92.0001 104.9 91.7001 104.5L89.6001 106.6C90.2001 107.2 90.9001 107.7 91.8001 108C92.7001 108.3 93.6001 108.5 94.6001 108.5C95.3001 108.5 95.9001 108.4 96.5001 108.2C97.1001 108 97.7001 107.7 98.1001 107.4C98.6001 107 98.9001 106.6 99.2001 106C99.5001 105.4 99.6001 104.8 99.6001 104C99.6001 103.3 99.5001 102.8 99.2001 102.3C98.9001 101.8 98.6001 101.5 98.2001 101.2C97.8001 100.9 97.4001 100.6 96.9001 100.5C96.4001 100.3 95.9001 100.1 95.5001 99.9998C95.2001 99.8998 94.9001 99.7998 94.7001 99.6998C94.4001 99.5998 94.2001 99.4998 94.0001 99.3998C93.8001 99.2998 93.7001 99.0998 93.6001 98.9998C93.5001 98.7998 93.5001 98.6998 93.5001 98.3998C93.5001 98.0998 93.6001 97.8998 93.7001 97.6998C93.8001 97.4998 94.0001 97.3998 94.2001 97.2998C94.4001 97.1998 94.6001 97.0998 94.8001 97.0998C95.0001 97.0998 95.2001 96.9998 95.5001 96.9998C95.9001 96.9998 96.3001 97.0998 96.8001 97.2998C97.3001 97.4998 97.6001 97.7998 97.9001 98.0998L99.7001 95.9998Z" fill="white"/>
<path d="M196.4 95.9998V95.4998H196.6C196.7 95.4998 196.7 95.4998 196.8 95.4998C196.9 95.4998 196.9 95.5998 196.9 95.6998C196.9 95.7998 196.9 95.8998 196.8 95.8998C196.7 95.8998 196.7 95.8998 196.6 95.8998L196.4 95.9998ZM196.1 96.7998H196.4V96.1998H196.6L197 96.7998H197.3L196.9 96.0998C197 96.0998 197.1 95.9998 197.2 95.9998C197.3 95.8998 197.3 95.7998 197.3 95.6998C197.3 95.5998 197.3 95.4998 197.3 95.4998C197.3 95.3998 197.2 95.3998 197.2 95.3998C197.2 95.3998 197.1 95.2998 197 95.2998C196.9 95.2998 196.9 95.2998 196.8 95.2998H196.3L196.1 96.7998ZM195.6 95.5998C195.7 95.4998 195.7 95.2998 195.8 95.1998C195.9 95.0998 196 94.9998 196.2 94.9998C196.3 94.8998 196.5 94.8998 196.6 94.8998C196.8 94.8998 196.9 94.8998 197 94.9998C197.1 95.0998 197.3 95.0998 197.4 95.1998C197.5 95.2998 197.6 95.3998 197.6 95.5998C197.7 95.6998 197.7 95.8998 197.7 95.9998C197.7 96.1998 197.7 96.2998 197.6 96.3998C197.5 96.4998 197.5 96.6998 197.4 96.7998C197.3 96.8998 197.2 96.9998 197 96.9998C196.9 97.0998 196.7 97.0998 196.6 97.0998C196.4 97.0998 196.3 97.0998 196.2 96.9998C196.1 96.8998 195.9 96.8998 195.8 96.7998C195.7 96.6998 195.6 96.5998 195.6 96.3998C195.5 96.2998 195.5 96.0998 195.5 95.9998C195.5 95.8998 195.6 95.7998 195.6 95.5998ZM195.4 96.5998C195.5 96.7998 195.6 96.8998 195.7 96.9998C195.8 97.0998 196 97.1998 196.1 97.2998C196.3 97.3998 196.4 97.3998 196.6 97.3998C196.8 97.3998 197 97.3998 197.1 97.2998C197.3 97.1998 197.4 97.0998 197.5 96.9998C197.6 96.8998 197.7 96.6998 197.8 96.5998C197.9 96.3998 197.9 96.2998 197.9 96.0998C197.9 95.8998 197.9 95.6998 197.8 95.5998C197.7 95.3998 197.6 95.2998 197.5 95.1998C197.4 95.0998 197.2 94.9998 197.1 94.8998C196.9 94.7998 196.8 94.7998 196.6 94.7998C196.4 94.7998 196.2 94.7998 196.1 94.8998C195.9 94.9998 195.8 95.0998 195.7 95.1998C195.6 95.2998 195.5 95.4998 195.4 95.5998C195.3 95.7998 195.3 95.8998 195.3 96.0998C195.3 96.2998 195.4 96.3998 195.4 96.5998Z" fill="white"/>
</g>
<defs>
<clipPath id="clip0_203_1055">
<rect width="150" height="32.3" fill="white" transform="translate(48 86)"/>
</clipPath>
</defs>
</svg>
