<svg width="300" height="300" viewBox="0 0 300 300" fill="none" xmlns="http://www.w3.org/2000/svg">
<path d="M214.98 173.913C214.088 173.701 213.299 173.975 212.5 174.31C200.781 179.209 188.639 182.616 176.091 184.609C169.706 185.623 163.285 186.27 156.826 186.465C150.042 186.671 143.271 186.432 136.511 185.758C129.59 185.067 122.741 183.958 115.963 182.401C104.092 179.674 92.6672 175.676 81.7234 170.323C78.6536 168.819 75.6369 167.213 72.68 165.497C71.4574 164.786 70.6202 164.989 70 166.106V166.748C70.2414 167.304 70.6224 167.745 71.0764 168.148C82.9726 178.739 96.4392 186.642 111.525 191.794C119.255 194.434 127.18 196.23 135.28 197.24C138.801 197.679 142.338 197.982 145.891 198.064C146.031 198.067 146.197 198.005 146.296 198.171H154.773C154.839 198.016 154.983 198.051 155.103 198.047C159.123 197.887 163.119 197.482 167.099 196.908C175.287 195.725 183.281 193.761 191.066 190.968C199.717 187.865 207.895 183.838 215.341 178.409C215.671 178.168 215.988 177.918 216.247 177.601C217.397 176.192 216.748 174.338 214.974 173.915L214.98 173.913Z" fill="white"/>
<path d="M129.826 136.291C131.077 140.411 132.313 144.535 133.587 148.648C134.129 150.4 134.818 150.865 136.634 150.869C138.198 150.872 139.76 150.876 141.323 150.869C143.146 150.863 143.815 150.358 144.333 148.621C144.375 148.477 144.413 148.333 144.449 148.187C146.568 139.332 148.686 130.475 150.805 121.62C151.412 119.086 152.021 116.554 152.661 113.89C152.75 114.189 152.805 114.348 152.845 114.512C154.349 120.729 155.853 126.949 157.357 133.168C158.566 138.163 159.771 143.159 160.987 148.154C161.532 150.389 162.154 150.874 164.4 150.874C165.878 150.874 167.355 150.878 168.832 150.874C170.595 150.867 171.244 150.407 171.833 148.756C171.891 148.595 171.935 148.431 171.986 148.267C176.128 135.026 180.277 121.786 184.407 108.541C184.768 107.384 185.267 106.257 185.358 105.03C185.446 103.865 185.025 103.426 183.845 103.42C182.281 103.413 180.72 103.411 179.156 103.42C177.216 103.429 176.573 103.903 175.982 105.739C175.942 105.861 175.9 105.982 175.869 106.104C173.935 113.577 172.002 121.048 170.068 128.521C168.941 132.876 167.816 137.23 166.686 141.598C166.487 141.425 166.496 141.201 166.449 140.998C164.013 130.641 161.574 120.282 159.135 109.925C158.803 108.514 158.482 107.099 158.121 105.694C157.696 104.042 157.166 103.548 155.45 103.462C153.742 103.375 152.023 103.371 150.316 103.455C148.551 103.542 147.999 104.047 147.587 105.781C145.35 115.205 143.133 124.632 140.907 134.058C140.349 136.422 139.788 138.785 139.186 141.334C136.515 130.827 133.899 120.514 131.268 110.208C130.84 108.536 130.492 106.842 129.923 105.207C129.547 104.12 128.825 103.495 127.657 103.466C126.289 103.433 124.92 103.431 123.549 103.42C122.929 103.415 122.306 103.393 121.686 103.429C120.822 103.477 120.475 103.88 120.461 104.742C120.452 105.395 120.641 106.009 120.824 106.62C123.821 116.514 126.825 126.406 129.826 136.298V136.291Z" fill="white"/>
<path d="M86.5291 151.468C94.4385 153.291 101.236 151.229 106.733 145.182C107.099 144.779 107.201 144.808 107.427 145.279C108.24 146.974 109.106 148.635 110.41 150.03C111.553 151.253 112.497 151.397 113.91 150.469C114.873 149.838 115.832 149.195 116.791 148.555C118.288 147.556 118.463 146.828 117.602 145.235C116.373 142.96 115.425 140.608 115.442 137.957C115.464 134.624 115.447 131.29 115.447 127.959H115.407C115.407 125.095 115.411 122.231 115.407 119.367C115.402 117.678 115.263 116.001 114.955 114.335C113.792 108.063 110.022 104.087 103.823 102.747C98.0377 101.498 92.3122 101.837 86.6687 103.604C84.7528 104.204 82.8613 104.871 81.1248 105.905C80.4958 106.28 80.0639 106.816 80.0395 107.547C79.993 108.933 79.9797 110.324 80.0329 111.711C80.0661 112.559 80.5777 112.887 81.4349 112.776C82.2522 112.67 82.9853 112.313 83.7384 112.016C88.5668 110.116 93.4994 108.94 98.7553 109.664C103.165 110.273 105.422 112.322 106.248 116.648C106.713 119.082 106.554 121.542 106.583 123.997C106.589 124.541 106.22 124.282 106.005 124.236C102.913 123.556 99.803 123.002 96.6335 122.836C93.2735 122.659 89.9622 122.891 86.7728 124.039C82.8059 125.465 79.7294 127.939 77.9797 131.853C76.7792 134.537 76.6308 137.368 76.9187 140.26C77.4614 145.709 81.178 150.236 86.5247 151.468H86.5291ZM86.4959 134.648C87.3774 131.877 89.4218 130.391 92.135 129.689C93.9512 129.219 95.8051 129.126 98.0798 129.199C100.541 129.301 103.376 129.658 106.175 130.3C106.441 130.36 106.592 130.424 106.594 130.736C106.6 132.745 106.607 134.752 106.189 136.732C105.65 139.279 104.164 141.202 102.042 142.593C98.824 144.701 95.258 145.47 91.4573 144.81C88.4362 144.287 86.5446 142.13 86.1925 139.08C86.0197 137.578 86.0396 136.09 86.5003 134.646L86.4959 134.648Z" fill="white"/>
<path d="M190.446 148.88C191.115 149.306 191.815 149.673 192.557 149.948C198.595 152.185 204.788 152.934 211.14 151.709C214.826 150.998 218.11 149.439 220.704 146.624C224.715 142.276 225.413 135.503 222.352 130.656C220.739 128.103 218.341 126.557 215.618 125.458C212.708 124.282 209.669 123.476 206.692 122.49C204.644 121.812 202.582 121.166 200.781 119.925C198.909 118.638 198.172 116.84 198.44 114.605C198.683 112.574 199.802 111.203 201.636 110.377C202.181 110.131 202.739 109.916 203.326 109.792C208.442 108.709 213.395 109.274 218.201 111.278C218.772 111.515 219.328 111.79 219.94 111.921C220.905 112.127 221.481 111.728 221.57 110.74C221.67 109.633 221.627 108.523 221.59 107.411C221.557 106.454 221.127 105.748 220.376 105.198C219.962 104.895 219.537 104.609 219.063 104.408C215.295 102.797 211.337 102.135 207.266 102.113C206.517 102.113 205.764 102.06 205.022 102.122C201.7 102.405 198.553 103.26 195.722 105.092C190.603 108.41 188.362 114.211 190.098 119.763C191.383 123.868 194.207 126.57 198.083 128.253C200.967 129.505 204.026 130.249 207.007 131.217C209.06 131.883 211.113 132.521 212.954 133.697C216.272 135.815 215.884 140.344 213.785 142.351C212.194 143.87 210.234 144.526 208.125 144.814C203.658 145.425 199.308 144.829 195.035 143.481C193.731 143.069 192.51 142.444 191.228 141.977C189.717 141.427 189.004 141.924 188.998 143.505C188.993 144.402 189 145.301 188.998 146.198C188.993 147.357 189.458 148.258 190.444 148.887L190.446 148.88Z" fill="white"/>
<path d="M230.958 166.028C230.872 164.645 230.309 163.686 228.936 163.246C228.245 163.024 227.558 162.783 226.847 162.637C221.611 161.565 216.391 161.724 211.19 162.86C207.883 163.582 204.771 164.785 201.965 166.714C201.518 167.022 201.108 167.361 200.898 167.877C200.625 168.548 200.918 169.062 201.628 169.206C202.122 169.306 202.607 169.188 203.093 169.131C206.98 168.672 210.869 168.26 214.789 168.234C215.261 168.234 215.731 168.222 216.202 168.234C217.937 168.28 219.662 168.384 221.328 168.938C222.626 169.37 223.319 170.236 223.399 171.629C223.496 173.359 223.188 175.031 222.783 176.694C221.687 181.184 219.99 185.47 218.282 189.749C218.163 190.05 218.059 190.354 218.045 190.675C218.023 191.271 218.393 191.634 218.995 191.632C219.589 191.629 220.054 191.33 220.484 190.967C221.549 190.07 222.519 189.078 223.399 187.997C226.71 183.926 228.754 179.244 230.035 174.203C230.714 171.525 231.135 168.812 230.958 166.028V166.028Z" fill="white"/>
</svg>
