<svg width="300" height="300" viewBox="0 0 300 300" fill="none" xmlns="http://www.w3.org/2000/svg">
<path d="M213.553 60H87.0106C76.8112 60 73 63.8144 73 74.0784V197.977C73 199.155 73.0563 200.221 73.1682 201.23C73.3927 203.474 73.4483 205.661 75.522 208.129C75.7465 208.354 77.8759 209.98 77.8759 209.98C78.9969 210.541 79.7815 210.934 81.07 211.494L143.333 237.631C146.583 239.09 147.928 239.707 150.282 239.65C152.636 239.707 153.981 239.145 157.231 237.631L219.494 211.494C220.783 210.989 221.568 210.541 222.688 209.98C222.688 209.98 224.817 208.409 225.042 208.129C227.116 205.661 227.171 203.474 227.396 201.23C227.508 200.22 227.564 199.155 227.564 197.977V74.0784C227.564 63.8144 223.809 60 213.553 60" fill="#FBFAFA"/>
<path d="M205.037 184.571L204.98 184.851L204.924 185.188L204.868 185.468L204.756 185.749L204.7 186.029L204.588 186.309L204.476 186.59L204.364 186.814L204.252 187.094L204.084 187.319L203.916 187.544L203.747 187.769L203.579 187.993L203.411 188.218L203.187 188.443L203.018 188.611L202.794 188.836L202.569 189.004L202.345 189.172L202.12 189.284L201.896 189.452L201.616 189.621L201.336 189.733L201.056 189.901L200.776 190.013L200.496 190.125L200.216 190.237V190.181L199.935 190.293L199.655 190.349L199.151 190.461L198.871 190.517L198.591 190.574L198.311 190.63L198.031 190.686L197.694 190.743L197.414 190.799H196.293L196.013 190.743H195.677L195.397 190.686L195.117 190.63L194.78 190.574L194.5 190.517L194.22 190.461L193.94 190.405L193.66 190.348L193.38 190.292L193.1 190.236L192.82 190.124L192.54 190.067L192.26 189.955L191.98 189.843L191.699 189.731L191.419 189.619L191.139 189.507L190.859 189.395L190.579 189.283L190.299 189.171L190.019 189.059L189.739 188.947L189.459 188.779L189.234 188.611L188.954 188.443L188.73 188.274L188.505 188.106L188.281 187.938L188.056 187.769L187.832 187.601L187.607 187.433L187.383 187.264L187.159 187.04L187.327 186.815L187.551 186.59L187.719 186.366L187.944 186.141L188.112 185.916L188.28 185.692L188.505 185.467L188.673 185.242L188.897 185.018L189.066 184.793L189.29 184.568L189.458 184.344L189.626 184.119L189.851 183.894L190.019 183.67L190.244 183.445L190.412 183.22L190.636 183.389L190.916 183.557L191.141 183.725L191.421 183.893L191.645 184.062L191.925 184.23L192.15 184.398L192.43 184.51L192.654 184.679L192.935 184.791L193.215 184.903L193.495 185.015L193.775 185.127L194.055 185.239L194.335 185.351L194.615 185.463L194.895 185.575L195.175 185.631L195.735 185.743L196.072 185.799L196.352 185.856H196.632L196.968 185.912H197.585L197.921 185.856L198.201 185.799L198.481 185.743L198.761 185.686L198.986 185.575L199.21 185.463L199.435 185.294L199.603 185.07L199.715 184.845L199.826 184.565L199.883 184.284V184.228L199.826 183.891L199.715 183.611L199.546 183.386L199.322 183.218L199.097 183.05L198.873 182.938L198.593 182.826L198.313 182.714L197.976 182.545L197.752 182.489L197.527 182.433L197.247 182.321L196.967 182.264L196.687 182.152L196.407 182.096L196.071 181.984L195.791 181.928L195.454 181.816L195.174 181.759L194.894 181.647L194.614 181.591L194.334 181.479L194.054 181.367L193.774 181.311L193.494 181.199L193.214 181.087L192.934 180.975L192.597 180.863L192.317 180.751L192.037 180.639L191.757 180.527L191.477 180.359L191.197 180.19L190.973 180.022L190.693 179.854L190.468 179.685L190.244 179.517L190.019 179.349L189.795 179.124L189.57 178.899L189.402 178.675L189.234 178.45L189.066 178.225L188.897 178.001L188.729 177.72L188.617 177.496L188.505 177.271L188.449 176.991L188.337 176.766L188.281 176.486L188.225 176.206L188.168 175.925L188.112 175.645L188.056 175.308V174.635L188.112 174.355L188.168 174.074L188.225 173.794L188.281 173.514L188.337 173.233L188.449 172.953L188.505 172.673L188.617 172.393L188.729 172.112L188.841 171.832L189.009 171.552L189.177 171.271L189.346 171.047L189.514 170.822L189.738 170.597L189.963 170.373L190.187 170.148L190.412 169.923L190.636 169.755L190.861 169.587L191.085 169.418L191.31 169.25L191.59 169.082L191.87 168.97L192.15 168.801L192.43 168.69L192.71 168.578L192.99 168.466L193.27 168.354L193.495 168.297L193.775 168.241L194.055 168.185L194.335 168.128L194.615 168.072L194.895 168.015L195.175 167.959L195.455 167.903L195.735 167.846H196.968L197.304 167.903L197.641 167.959H197.921L198.257 168.015L198.537 168.072L198.874 168.128L199.154 168.185L199.434 168.241L199.714 168.297L199.994 168.354L200.274 168.41L200.554 168.522L200.834 168.634L201.114 168.69L201.394 168.802L201.674 168.914L201.954 169.026L202.234 169.138L202.515 169.25L202.795 169.418L203.019 169.53L203.299 169.699L203.579 169.867L203.804 170.035L204.084 170.204L204.308 170.372L204.533 170.54L204.757 170.709L204.982 170.877L204.814 171.102L204.645 171.326L204.477 171.551L204.309 171.776L204.141 172.056L203.973 172.281L203.804 172.505L203.636 172.73L203.468 172.955L203.3 173.179L203.132 173.404L202.964 173.629L202.795 173.909L202.627 174.134L202.459 174.358L201.899 175.592L201.731 175.817L201.506 175.649L201.226 175.48L201.002 175.312L200.777 175.144L200.497 175.032L200.273 174.863L199.993 174.751L199.768 174.639L199.488 174.527L199.263 174.415L198.983 174.303L198.759 174.191L198.423 174.079L198.142 173.967L197.862 173.856L197.582 173.799L197.414 173.911L197.134 173.855L196.854 173.798L196.574 173.742L196.294 173.686H195.677L195.341 173.742L195.061 173.798L194.781 173.855L194.556 173.967L194.332 174.079L194.052 174.303L193.884 174.584L193.772 174.864L193.716 175.144V175.201L193.772 175.593L193.884 175.93L193.996 176.098L194.22 176.323L194.5 176.491L194.725 176.659L195.005 176.771L195.341 176.883L195.677 176.995L195.902 177.051L196.126 177.163L196.406 177.22L196.687 177.332L196.967 177.388L197.303 177.5L197.639 177.612L197.976 177.724L198.312 177.78L198.592 177.892L198.929 178.004L199.209 178.061L199.489 178.173L199.769 178.285L200.049 178.397L200.329 178.509L200.609 178.621L200.889 178.677L201.225 178.789L201.505 178.957L201.786 179.069L202.066 179.238L202.346 179.406L202.626 179.574L202.85 179.742L203.075 179.911L203.299 180.079L203.524 180.304L203.748 180.528L203.973 180.753L204.197 180.978L204.365 181.202L204.534 181.483L204.702 181.707L204.87 181.988L204.982 182.212L205.094 182.493L205.15 182.773L205.206 183.053L205.318 183.614L205.374 183.894L205.431 184.231V184.904L205.039 184.567L205.037 184.571ZM185.142 190.292H168.834V169.483H185.254V174.195H174.27V177.616H184.133V182.048H174.27V185.581H185.422V190.293H185.142V190.292ZM164.35 190.292H159.139V178.009L158.971 178.233L158.802 178.514L158.634 178.738L158.466 178.963L158.298 179.243L158.13 179.468L157.961 179.693L157.793 179.973L157.625 180.198L157.457 180.422L157.289 180.647L157.121 180.927L156.952 181.152L156.784 181.377L156.616 181.657L156.448 181.882L156.28 182.106L156.111 182.387L156 182.611L155.831 182.836L155.663 183.116L155.495 183.341L155.327 183.565L155.159 183.846L154.99 184.07L154.879 184.295L154.71 184.52L154.542 184.8L154.374 185.025L154.206 185.249L154.094 185.53L153.926 185.754L153.758 185.979L153.589 186.259L153.421 186.484H153.309L153.141 186.204L152.973 185.979L152.805 185.699L152.637 185.474L152.468 185.194L152.3 184.969L152.132 184.689L151.964 184.464L151.796 184.184L151.684 183.959L151.516 183.679L151.347 183.454L151.179 183.174L151.459 182.894L151.291 182.613L151.123 182.389L150.955 182.108L150.787 181.884L150.618 181.603L150.45 181.379L150.338 181.21L150.17 180.986L150.002 180.705L149.834 180.481L149.666 180.2L149.497 179.976L149.329 179.696L149.217 179.527L149.049 179.247L148.881 179.022L148.713 178.742L148.545 178.517L148.376 178.237L148.208 178.012V190.239H142.828V169.431H148.657L148.825 169.655L148.994 169.936L149.162 170.16L149.33 170.441L149.498 170.665L149.666 170.946L149.834 171.17L150.003 171.451L150.171 171.675L150.339 171.9L150.507 172.18L150.675 172.405L150.844 172.685L151.012 172.91L151.18 173.19L151.348 173.415L151.516 173.64L151.685 173.92L151.853 174.144L152.021 174.425L152.189 174.649L152.357 174.93L152.525 175.154L152.637 175.435L152.805 175.659L152.917 175.884L153.086 176.164L153.254 176.389L153.422 176.669L153.59 176.894L153.702 177.174L153.87 177.399L154.038 177.679L154.207 177.904L154.375 177.679L154.543 177.399L154.711 177.174L154.879 176.894L155.047 176.669L155.216 176.389L155.384 176.164L155.552 175.884L155.72 175.659L155.832 175.435L156 175.154L156.168 174.93L156.337 174.649L156.505 174.425L156.673 174.144L156.841 173.92L157.009 173.64L157.178 173.415L157.346 173.19L157.514 172.91L157.682 172.685L157.85 172.405L158.019 172.18L158.187 171.9L158.299 171.675L158.467 171.451L158.635 171.17L158.803 170.946L158.971 170.665L159.139 170.441L159.308 170.16L159.476 169.936L159.644 169.655L159.812 169.431H165.641V190.239L164.352 190.296L164.35 190.292ZM131.398 181.71L131.286 181.43L131.174 181.15L131.062 180.869L130.95 180.589L130.838 180.309L130.726 180.029L130.614 179.748L130.503 179.468L130.391 179.188L130.279 178.907L130.167 178.627L130.055 178.347L129.943 178.066L129.831 177.786L129.719 177.506L129.608 177.226L129.496 176.945L129.384 176.665L129.272 176.385L129.16 176.104L129.048 175.824L128.936 175.544L128.824 175.824L128.712 176.104L128.601 176.385L128.489 176.665L128.377 176.945L128.265 177.226L128.153 177.506L128.041 177.786L127.929 178.066L127.817 178.347L127.706 178.627L127.594 178.907L127.482 179.188L127.37 179.468L127.258 179.748L127.146 180.029L127.034 180.309L126.922 180.589L126.81 180.869L126.699 181.15L126.587 181.43L126.475 181.71L126.363 181.991H131.183L131.407 181.71H131.398ZM140.309 190.292H134.761L134.649 190.012L134.537 189.731L134.425 189.451L134.313 189.171L134.201 188.89L134.089 188.61L133.977 188.33L133.866 188.05L133.754 187.769L133.642 187.489L133.53 187.209L133.418 186.928L133.306 186.648L133.194 186.368L133.082 186.087H125.012L124.901 186.368L124.789 186.648L124.677 186.928L124.565 187.209L124.453 187.489L124.229 187.994L124.117 188.274L124.005 188.554L123.893 188.835L123.781 189.115L123.669 189.395L123.557 189.676L123.445 189.956L123.333 190.236H117.729L117.841 189.956L118.066 189.451L118.177 189.171L118.289 188.89L118.514 188.385L118.626 188.105L118.738 187.825L118.849 187.545L118.961 187.376L119.073 187.096L119.185 186.816L119.297 186.535L119.409 186.255L119.521 185.975L119.633 185.694L119.745 185.414L119.856 185.134L119.968 184.854L120.08 184.573L120.192 184.293L120.417 183.788L120.528 183.508L120.64 183.227L120.752 182.947L120.864 182.667L120.976 182.387L121.088 182.106L121.2 181.826L121.312 181.546L121.424 181.265L121.535 180.985L121.647 180.705L121.759 180.424L121.871 180.144L121.983 179.864L122.095 179.584L122.207 179.303L122.319 179.023L122.43 178.743L122.542 178.462L122.654 178.182L122.766 177.902L122.878 177.621L122.99 177.341L123.102 177.061L123.214 176.781L123.326 176.5L123.437 176.22L123.549 175.94L123.661 175.659L123.773 175.379L123.885 175.099L123.997 174.818L124.221 174.314L124.333 174.033L124.445 173.753L124.557 173.473L124.669 173.192L124.781 172.912L124.893 172.632L125.004 172.351L125.116 172.071L125.228 171.791L125.34 171.511L125.396 171.23L125.508 170.95L125.62 170.67L125.732 170.389L125.844 170.109L125.956 169.829L126.068 169.548L126.18 169.268L126.291 168.988L126.516 168.483L126.628 168.203H131.896L132.008 168.483L132.119 168.763L132.231 169.043L132.343 169.324L132.455 169.604L132.567 169.884L132.679 170.165L132.791 170.445L132.903 170.725L133.015 171.006L133.126 171.286L133.238 171.566L133.35 171.846L133.462 172.127L133.574 172.407L133.686 172.687L133.798 172.968L133.91 173.248L134.021 173.528L134.133 173.809L134.245 174.089L134.357 174.369L134.469 174.649L134.581 174.93L134.693 175.21L134.805 175.49L134.917 175.771L135.028 176.051L135.14 176.331L135.252 176.612L135.477 177.116L135.589 177.397L135.7 177.677L135.812 177.957L135.924 178.238L136.036 178.518L136.148 178.798L136.26 179.079L136.372 179.359L136.484 179.639L136.596 179.919L136.707 180.2L136.819 180.48L136.931 180.76L137.043 181.041L137.155 181.321L137.267 181.601L137.379 181.882L137.491 182.162L137.602 182.442L137.714 182.722L137.826 183.003L137.938 183.283L138.05 183.563L138.162 183.844L138.274 184.124L138.386 184.404L138.498 184.685L138.609 184.965L138.721 185.245L138.833 185.525L138.945 185.806L139.057 186.086L139.169 186.366L139.281 186.647L139.393 186.927L139.504 187.207L139.616 187.487L139.728 187.768L139.84 188.048L139.952 188.328L140.064 188.609L140.176 188.889L140.288 189.169L140.4 189.45L140.511 189.73L140.623 190.01L140.848 190.515L140.288 190.29L140.309 190.292ZM115.426 187.599L115.201 187.768L114.977 187.936L114.752 188.104L114.528 188.273L114.303 188.441L114.079 188.609L113.854 188.778L113.574 188.946L113.294 189.114L113.014 189.283L112.734 189.395L112.454 189.563L112.174 189.675L111.894 189.787L111.614 189.899L111.334 190.011L111.054 190.123L110.774 190.235L110.494 190.347L110.214 190.459L109.934 190.571L109.653 190.627L109.373 190.683L109.093 190.74L108.813 190.796L108.533 190.852L108.197 190.909L107.917 190.965L107.58 191.022L107.3 191.078L106.964 191.134H106.067L105.787 191.078L105.451 191.022L105.171 190.965L104.891 190.909L104.611 190.852L104.331 190.796L104.051 190.74L103.771 190.683L103.491 190.627L103.21 190.571L102.93 190.514L102.65 190.402L102.37 190.29L102.09 190.178L101.81 190.067L101.53 189.955L101.25 189.843L100.97 189.731L100.69 189.562L100.465 189.45L100.185 189.282L99.9608 189.114L99.7363 188.945L99.5119 188.777L99.2874 188.609L99.0629 188.44L98.8384 188.272L98.6139 188.104L98.3894 187.879L98.1649 187.711L97.9405 187.486L97.716 187.261L97.5478 187.037L97.3796 186.812L97.2114 186.587L97.0432 186.363L96.875 186.138L96.7069 185.913L96.595 185.689L96.4268 185.408L96.2586 185.184L96.1467 184.903L96.0348 184.623L95.923 184.343L95.8111 184.063L95.6992 183.838L95.5873 183.558L95.531 183.277L95.4191 182.997L95.3628 182.717L95.2509 182.436L95.1946 182.156V181.876L95.1383 181.595V181.315L95.082 181.035V178.623L95.1383 178.286L95.1946 178.006L95.2509 177.725L95.3072 177.445L95.4191 177.165L95.4754 176.885L95.5873 176.604L95.6992 176.324L95.8111 176.044L95.923 175.763L96.0348 175.483L96.1467 175.203L96.2586 174.922L96.3705 174.642L96.5387 174.362L96.7069 174.137L96.8187 173.913L96.9869 173.688L97.1551 173.463L97.3233 173.239L97.4915 173.014L97.6597 172.789L97.8278 172.565L98.0523 172.34L98.2205 172.115L98.445 171.891L98.6695 171.666L98.894 171.498L99.1185 171.273L99.343 171.105L99.5674 170.936L99.7919 170.768L100.016 170.6L100.241 170.431L100.465 170.263L100.745 170.095L101.026 169.926L101.306 169.758L101.586 169.646L101.866 169.534L102.146 169.366L102.37 169.254L102.65 169.142L102.93 169.03L103.21 168.973L103.491 168.861L103.771 168.805L104.051 168.693L104.331 168.637L104.611 168.58L104.891 168.524L105.171 168.468L105.451 168.411L105.731 168.355L106.011 168.299H107.188L107.524 168.355L107.86 168.411H108.141L108.421 168.468L108.757 168.524L109.037 168.58L109.317 168.637L109.597 168.693L109.877 168.749L110.157 168.806L110.437 168.862L110.717 168.974L110.998 169.03L111.222 169.142L111.502 169.254L112.007 169.479L112.287 169.591L112.567 169.759L112.847 169.871L113.071 170.04L113.351 170.208L113.576 170.376L113.856 170.545L114.08 170.713L114.305 170.881L114.529 171.05L114.754 171.218L114.978 171.443L115.203 171.611L115.035 171.836L114.81 172.06L114.642 172.285L114.418 172.51L114.249 172.734L114.081 172.959L113.857 173.184L113.688 173.408L113.52 173.633L113.296 173.858L113.128 174.082L112.903 174.307L112.735 174.532L112.567 174.756L112.342 174.981L112.174 175.206L111.95 175.43L111.781 175.655L111.557 175.487L111.332 175.262L111.108 175.094L110.883 174.925L110.659 174.757L110.434 174.589L110.21 174.42L109.93 174.252L109.705 174.14L109.481 174.028L109.256 173.916L108.976 173.804L108.696 173.692L108.416 173.636L108.136 173.58L107.856 173.523L107.576 173.467L107.24 173.41L106.903 173.354H106.287L106.007 173.41L105.727 173.467L105.447 173.523L105.167 173.58L104.887 173.692L104.606 173.803L104.382 174.477L104.102 174.589L103.877 174.757L103.653 174.925L103.428 175.094L103.204 175.262L102.979 175.43L102.755 175.599L102.587 175.823L102.362 176.048L102.194 176.273L102.026 176.497L101.858 176.722L101.746 177.002L101.578 177.227L101.466 177.507L101.354 177.788L101.242 178.068L101.13 178.348L101.074 178.628L101.018 178.909L100.961 179.245V181.321L101.018 181.601L101.074 181.882L101.13 182.162L101.242 182.442L101.578 182.33L101.69 182.61L101.802 182.891L101.97 183.171L102.25 183.62L102.419 183.844L102.587 184.069L102.811 184.294L102.979 184.518L103.204 184.687L103.428 184.855L103.653 185.023L103.877 185.192L104.102 185.36L104.382 185.472L104.662 185.584L104.942 185.696L105.222 185.808L105.502 185.92L105.782 185.976L106.062 186.033L106.342 186.089L106.679 186.145H107.183L107.52 186.089L107.856 186.033L108.136 185.976L108.416 185.92L108.696 185.863L108.976 185.807L109.256 185.751L109.537 185.639L109.761 185.527L110.041 185.415L110.266 185.303L110.49 185.135V182.33H106.343V178.18H115.59V187.49L115.422 187.602L115.426 187.599ZM106.291 122.425H118.621V112.89H106.291V93.4275H119.125V83.8923H95.8118V152.713H119.293V143.177H106.292V122.425M194.502 124.5V140.036C194.502 142.784 193.213 144.075 190.579 144.075H188.618C185.872 144.075 184.583 142.784 184.583 140.036V96.5686C184.583 93.8205 185.872 92.5303 188.618 92.5303H190.355C192.989 92.5303 194.279 93.8205 194.279 96.5686V110.03H204.534V95.9516C204.534 87.4264 200.443 83.2754 191.925 83.2754H186.825C178.307 83.2754 174.104 87.482 174.104 96.0636V140.486C174.104 149.067 178.307 153.274 186.825 153.274H191.981C200.499 153.274 204.702 149.067 204.702 140.486V124.444H194.503M158.187 83.8923H168.668V152.713H158.187V83.8931V83.8923ZM143 114.461C143 117.209 141.711 118.499 139.077 118.499H134.762V93.1472H139.077C141.711 93.1472 143 94.4374 143 97.1855V114.461ZM140.758 83.8923H124.338V152.713H134.818V127.753H140.759C149.277 127.753 153.48 123.546 153.48 114.965V96.6798C153.48 88.0982 149.277 83.8916 140.759 83.8916L140.758 83.8923ZM120.471 214.914H180.38L149.837 225.01L120.471 214.914Z" fill="#060606"/>
</svg>
