<svg width="300" height="300" viewBox="0 0 300 300" fill="none" xmlns="http://www.w3.org/2000/svg">
<path d="M185.992 161.549C177.911 161.742 171.229 155.345 171.036 147.287C171.036 147.025 171.036 146.763 171.036 146.483C170.931 142.498 172.471 138.636 175.287 135.822C178.103 132.955 181.969 131.382 185.992 131.487C190.015 131.382 193.881 133.113 196.487 136.189L193.916 138.758C192.009 136.346 189.07 134.965 185.992 135.018C183.001 134.948 180.115 136.102 177.998 138.234C175.847 140.436 174.692 143.407 174.815 146.483C174.675 149.559 175.829 152.566 177.998 154.768C180.097 156.9 183.001 158.071 185.992 157.984C189.403 157.984 192.604 156.411 194.738 153.754L197.431 156.376C196.067 158.001 194.353 159.295 192.411 160.169C190.4 161.095 188.213 161.567 185.992 161.549ZM204.131 132.134V160.92H200.423V132.134H204.131ZM207.314 151.063C207.227 148.284 208.259 145.575 210.183 143.547C212.09 141.572 214.731 140.506 217.46 140.576C220.188 140.506 222.812 141.572 224.701 143.547C226.643 145.557 227.675 148.266 227.587 151.063C227.692 153.859 226.643 156.568 224.701 158.578C222.83 160.553 220.188 161.637 217.46 161.549C214.731 161.637 212.072 160.553 210.183 158.578C208.259 156.551 207.227 153.842 207.314 151.063ZM211.023 151.063C210.935 152.95 211.6 154.803 212.877 156.201C215.256 158.735 219.244 158.84 221.78 156.463C221.868 156.376 221.955 156.288 222.042 156.201C223.319 154.803 223.984 152.95 223.897 151.063C223.984 149.175 223.319 147.34 222.042 145.959C219.716 143.425 215.78 143.267 213.244 145.592C213.122 145.714 212.999 145.837 212.877 145.959C211.6 147.34 210.935 149.175 211.023 151.063V151.063ZM248.053 160.92H244.554V158.176H244.38C243.75 159.207 242.858 160.029 241.791 160.588C240.689 161.217 239.429 161.549 238.152 161.549C236.088 161.689 234.059 160.938 232.573 159.487C231.191 157.844 230.491 155.729 230.631 153.597V141.24H234.322V153.37C234.042 155.764 235.756 157.914 238.135 158.194C238.485 158.228 238.852 158.228 239.202 158.194C240.636 158.211 242.001 157.564 242.893 156.446C243.89 155.24 244.415 153.719 244.38 152.164V141.24H248.088L248.053 160.92V160.92ZM260.577 161.549C258.023 161.549 255.609 160.431 253.948 158.508C252.111 156.463 251.114 153.807 251.149 151.063C251.096 148.336 252.058 145.679 253.878 143.634C255.522 141.694 257.953 140.558 260.507 140.576C261.889 140.558 263.253 140.873 264.478 141.502C265.597 142.061 266.559 142.9 267.241 143.949H267.399L267.311 141.24V132.134H271.002V160.92H267.504V158.176H267.346C266.664 159.225 265.702 160.064 264.583 160.623C263.341 161.252 261.976 161.584 260.577 161.549V161.549ZM261.189 158.176C262.903 158.228 264.548 157.512 265.65 156.201C266.874 154.785 267.504 152.933 267.399 151.063C267.486 149.21 266.857 147.375 265.65 145.959C264.548 144.648 262.903 143.914 261.189 143.949C259.475 143.914 257.848 144.666 256.729 145.959C255.522 147.375 254.892 149.21 254.98 151.063C254.875 152.933 255.504 154.75 256.729 156.166C257.848 157.459 259.475 158.211 261.189 158.176Z" fill="white"/>
<path d="M45.5997 161.546C36.539 161.581 29.1399 154.327 29 145.274C29.1399 136.22 36.539 128.967 45.5997 129.002C49.7978 128.932 53.8384 130.558 56.812 133.494L53.646 136.622C51.4945 134.543 48.5908 133.407 45.5997 133.442C39.1453 133.424 33.8802 138.632 33.8627 145.099C33.8627 145.152 33.8627 145.222 33.8627 145.274C33.7928 151.723 38.9529 157.036 45.4248 157.106C45.4773 157.106 45.5473 157.106 45.5997 157.106C48.6958 157.229 51.6869 156.04 53.8559 153.838C55.2902 152.3 56.1473 150.325 56.2873 148.228H45.5997V143.806H60.6427C60.8001 144.715 60.8876 145.658 60.8701 146.585C60.9926 150.412 59.5932 154.153 56.9869 156.967C54.0133 160.043 49.8678 161.721 45.5997 161.546V161.546Z" fill="white"/>
<path d="M84.1306 151.066C84.358 156.798 79.915 161.622 74.1777 161.867C68.4404 162.094 63.6126 157.655 63.3677 151.922C63.3677 151.642 63.3677 151.363 63.3677 151.066C63.1403 145.333 67.5833 140.509 73.3206 140.264C79.0579 140.037 83.8857 144.476 84.1306 150.209C84.1306 150.489 84.1306 150.768 84.1306 151.066V151.066ZM79.5827 151.066C79.88 147.85 77.5186 144.983 74.3001 144.686C71.0816 144.389 68.213 146.749 67.9156 149.964C67.8806 150.331 67.8806 150.699 67.9156 151.066C67.6183 154.281 69.9797 157.148 73.1982 157.445C76.4167 157.742 79.2853 155.383 79.5827 152.167C79.6177 151.8 79.6177 151.433 79.5827 151.066Z" fill="white"/>
<path d="M107.412 151.066C107.639 156.798 103.196 161.622 97.4589 161.867C91.7216 162.094 86.8939 157.655 86.649 151.922C86.649 151.642 86.649 151.363 86.649 151.066C86.4216 145.333 90.8645 140.509 96.6018 140.264C102.339 140.037 107.167 144.476 107.412 150.209C107.412 150.489 107.412 150.768 107.412 151.066V151.066ZM102.864 151.066C103.109 147.85 100.695 145.018 97.4764 144.774C94.2579 144.529 91.4242 146.941 91.1794 150.157C91.1619 150.454 91.1619 150.768 91.1794 151.066C90.9345 154.281 93.3483 157.113 96.5668 157.358C99.7853 157.602 102.619 155.19 102.864 151.974C102.881 151.677 102.881 151.363 102.864 151.066Z" fill="white"/>
<path d="M130.109 141.23V160.036C130.109 167.761 125.509 170.942 120.086 170.942C116.011 170.959 112.32 168.512 110.746 164.755L114.786 163.007C115.626 165.191 117.69 166.677 120.034 166.747C123.532 166.747 125.666 164.597 125.666 160.595V159.092H125.561C124.144 160.682 122.098 161.591 119.964 161.539C114.174 161.539 109.469 156.837 109.469 151.052C109.469 145.267 114.174 140.565 119.964 140.565C122.098 140.531 124.127 141.404 125.561 142.977H125.719V141.23H130.109V141.23ZM126.034 151.122C126.296 147.854 123.865 145.005 120.594 144.743C120.524 144.743 120.454 144.743 120.401 144.743C117.043 144.865 114.419 147.679 114.541 151.035V151.139C114.384 154.46 116.955 157.292 120.296 157.449H120.419C123.655 157.344 126.173 154.618 126.068 151.402C126.068 151.314 126.068 151.227 126.068 151.139L126.034 151.122Z" fill="white"/>
<path d="M138.2 130.121V160.917H133.582V130.121H138.2Z" fill="white"/>
<path d="M156.391 154.521L159.995 156.968C158.035 159.887 154.764 161.634 151.249 161.617C145.634 161.704 141.016 157.212 140.946 151.602C140.946 151.445 140.946 151.287 140.946 151.13C140.491 145.817 144.427 141.15 149.727 140.678C154.205 140.294 158.35 143.038 159.75 147.32L160.222 148.526L146.228 154.311C147.121 156.321 149.15 157.58 151.336 157.492C153.418 157.44 155.342 156.321 156.391 154.521V154.521ZM145.354 150.746L154.764 146.866C153.995 145.45 152.456 144.611 150.846 144.733C147.663 144.873 145.214 147.565 145.354 150.728V150.746Z" fill="white"/>
</svg>
