<svg width="330" height="380" viewBox="0 0 330 380" fill="none" xmlns="http://www.w3.org/2000/svg">
<rect x="1.5" y="1.5" width="327" height="376.697" stroke="url(#paint0_linear_510_230)"/>
<path d="M75.1833 63.153C75.1833 71.7383 68.1691 78.7059 59.507 78.7059C50.8449 78.7059 43.8307 71.7383 43.8307 63.153C43.8307 54.5676 50.8449 47.6 59.507 47.6C68.1691 47.6 75.1833 54.5676 75.1833 63.153Z" stroke="white" stroke-width="1.2"/>
<path d="M46.3247 60.8119C48.9179 59.0487 53.9603 57.8525 59.7559 57.8525C65.0474 57.8525 69.7112 58.8497 72.456 60.3652M46.1487 66.114C48.6849 67.9444 53.8262 69.1966 59.7559 69.1966C65.0474 69.1966 69.7112 68.1994 72.456 66.684" stroke="white" stroke-width="1.2" stroke-linecap="round" stroke-dasharray="2.4 2.4"/>
<path d="M50.2724 75.7022L42.0001 94.7605L48.0897 93.6284L51.2729 98.5788L59.3902 78.7411" stroke="white" stroke-width="1.2" stroke-linecap="round"/>
<path d="M69.7277 75.7022L77.9999 94.7605L71.9104 93.6284L68.7272 98.5788L60.6099 78.7411" stroke="white" stroke-width="1.2" stroke-linecap="round"/>
<path d="M43.016 185C42.908 184.172 42.8 183.452 42.8 182.732C42.8 173.516 54.752 172.04 54.752 166.964C54.752 164.732 53.024 163.4 50.864 163.4C47.876 163.4 46.256 166.424 46.256 166.424L42.8 164.12C42.8 164.12 45.14 159.008 51.26 159.008C55.76 159.008 59.576 161.744 59.576 166.568C59.576 174.776 48.128 176.18 48.02 181.004H59.972V185H43.016ZM74.1868 185.432C67.2028 185.432 64.9348 179.528 64.9348 172.184C64.9348 164.84 67.2028 159.008 74.1868 159.008C81.1708 159.008 83.4748 164.84 83.4748 172.184C83.4748 179.528 81.1708 185.432 74.1868 185.432ZM74.1868 181.184C77.6788 181.184 78.6868 177.224 78.6868 172.184C78.6868 167.216 77.6788 163.292 74.1868 163.292C70.6948 163.292 69.6868 167.216 69.6868 172.184C69.6868 177.224 70.6948 181.184 74.1868 181.184ZM88.5394 185C88.4314 184.172 88.3234 183.452 88.3234 182.732C88.3234 173.516 100.275 172.04 100.275 166.964C100.275 164.732 98.5474 163.4 96.3874 163.4C93.3994 163.4 91.7794 166.424 91.7794 166.424L88.3234 164.12C88.3234 164.12 90.6634 159.008 96.7834 159.008C101.283 159.008 105.099 161.744 105.099 166.568C105.099 174.776 93.6514 176.18 93.5434 181.004H105.495V185H88.5394ZM109.666 182.012L112.042 178.448C112.042 178.448 114.454 181.04 117.838 181.04C120.502 181.04 122.446 179.42 122.446 177.224C122.446 174.524 119.962 173.264 116.974 173.264H115.21L114.166 170.888L118.846 165.344C119.854 164.156 120.682 163.4 120.682 163.4V163.328C120.682 163.328 119.926 163.436 118.414 163.436H110.782V159.44H126.406V162.356L120.142 169.592C123.67 170.096 127.126 172.616 127.126 177.044C127.126 181.4 123.814 185.432 118.126 185.432C112.69 185.432 109.666 182.012 109.666 182.012Z" fill="#FEC010"/>
<path d="M41.99 221.664C41.99 218.01 44.726 215.13 48.362 215.13C51.296 215.13 52.862 216.606 52.862 216.606L52.196 217.542C52.196 217.542 50.72 216.282 48.416 216.282C45.356 216.282 43.286 218.64 43.286 221.646C43.286 224.76 45.428 227.064 48.308 227.064C50.774 227.064 52.286 225.21 52.286 225.21V223.068H50.126V221.952H53.474V228H52.322V227.046C52.322 226.776 52.34 226.506 52.34 226.506H52.304C52.304 226.506 50.846 228.216 48.182 228.216C44.726 228.216 41.99 225.426 41.99 221.664ZM56.3866 225.858V215.346H57.6106V225.588C57.6106 226.776 58.1506 226.956 58.6186 226.956C58.7806 226.956 58.9246 226.938 58.9246 226.938V228.036C58.9246 228.036 58.7086 228.072 58.4746 228.072C57.7186 228.072 56.3866 227.838 56.3866 225.858ZM60.6179 223.428C60.6179 220.746 62.7599 218.73 65.4059 218.73C68.0519 218.73 70.1939 220.746 70.1939 223.428C70.1939 226.164 68.0519 228.216 65.4059 228.216C62.7599 228.216 60.6179 226.164 60.6179 223.428ZM61.8779 223.428C61.8779 225.534 63.4619 227.118 65.4059 227.118C67.3499 227.118 68.9339 225.534 68.9339 223.428C68.9339 221.376 67.3499 219.846 65.4059 219.846C63.4619 219.846 61.8779 221.376 61.8779 223.428ZM72.8412 228V215.346H74.0652V219.738C74.0652 220.152 74.0292 220.476 74.0292 220.476H74.0652C74.0652 220.476 74.8212 218.73 77.1432 218.73C79.5732 218.73 81.0852 220.674 81.0852 223.482C81.0852 226.344 79.3752 228.216 76.9992 228.216C74.8392 228.216 74.0292 226.452 74.0292 226.452H73.9932C73.9932 226.452 74.0292 226.758 74.0292 227.19V228H72.8412ZM74.0292 223.5C74.0292 225.318 74.9652 227.136 76.9092 227.136C78.5112 227.136 79.8252 225.786 79.8252 223.482C79.8252 221.268 78.6552 219.846 76.9632 219.846C75.4512 219.846 74.0292 220.926 74.0292 223.5ZM83.0628 225.534C83.0628 222.474 87.0408 222.402 88.6068 222.402H89.1108V222.168C89.1108 220.422 88.1568 219.828 86.8608 219.828C85.3668 219.828 84.3048 220.692 84.3048 220.692L83.7288 219.756C83.7288 219.756 84.9168 218.73 86.9508 218.73C89.1288 218.73 90.3348 219.936 90.3348 222.204V228H89.1648V227.01C89.1648 226.56 89.2008 226.254 89.2008 226.254H89.1648C89.1648 226.254 88.4088 228.216 86.1408 228.216C84.6288 228.216 83.0628 227.334 83.0628 225.534ZM84.3228 225.462C84.3228 226.308 84.9888 227.172 86.3388 227.172C88.0668 227.172 89.1108 225.372 89.1108 223.806V223.41H88.5888C87.1668 223.41 84.3228 223.464 84.3228 225.462ZM93.4223 225.858V215.346H94.6463V225.588C94.6463 226.776 95.1863 226.956 95.6543 226.956C95.8163 226.956 95.9603 226.938 95.9603 226.938V228.036C95.9603 228.036 95.7443 228.072 95.5103 228.072C94.7543 228.072 93.4223 227.838 93.4223 225.858ZM103.028 221.592C103.028 217.92 105.764 215.13 109.382 215.13C112.406 215.13 113.936 216.768 113.936 216.768L113.27 217.686C113.27 217.686 111.794 216.282 109.418 216.282C106.448 216.282 104.324 218.586 104.324 221.574C104.324 224.598 106.448 227.064 109.454 227.064C112.01 227.064 113.558 225.372 113.558 225.372L114.278 226.254C114.278 226.254 112.55 228.216 109.436 228.216C105.692 228.216 103.028 225.282 103.028 221.592ZM116.303 223.428C116.303 220.746 118.445 218.73 121.091 218.73C123.737 218.73 125.879 220.746 125.879 223.428C125.879 226.164 123.737 228.216 121.091 228.216C118.445 228.216 116.303 226.164 116.303 223.428ZM117.563 223.428C117.563 225.534 119.147 227.118 121.091 227.118C123.035 227.118 124.619 225.534 124.619 223.428C124.619 221.376 123.035 219.846 121.091 219.846C119.147 219.846 117.563 221.376 117.563 223.428ZM128.527 228V218.946H129.733V220.296C129.733 220.692 129.697 221.016 129.697 221.016H129.733C130.057 220.188 131.209 218.73 133.351 218.73C135.583 218.73 136.375 220.008 136.375 222.24V228H135.151V222.564C135.151 221.142 134.935 219.882 133.189 219.882C131.641 219.882 130.309 220.944 129.895 222.438C129.787 222.816 129.751 223.23 129.751 223.662V228H128.527ZM139.898 224.706V220.08H138.71V219.054H139.916V216.444H141.122V219.054H143.39V220.08H141.122V224.58C141.122 226.704 142.472 226.974 143.156 226.974C143.408 226.974 143.57 226.938 143.57 226.938V228.036C143.57 228.036 143.372 228.072 143.048 228.072C142.004 228.072 139.898 227.73 139.898 224.706ZM145.316 223.482C145.316 220.512 147.332 218.73 149.78 218.73C152.282 218.73 153.56 220.656 153.56 222.906C153.56 223.122 153.524 223.536 153.524 223.536H146.576C146.63 225.858 148.214 227.118 150.086 227.118C151.742 227.118 152.84 226.02 152.84 226.02L153.398 226.956C153.398 226.956 152.084 228.216 150.05 228.216C147.35 228.216 145.316 226.272 145.316 223.482ZM146.63 222.528H152.318C152.246 220.638 151.094 219.756 149.744 219.756C148.232 219.756 146.918 220.71 146.63 222.528ZM156.255 228V218.946H157.461V220.296C157.461 220.692 157.425 221.016 157.425 221.016H157.461C157.785 220.188 158.937 218.73 161.079 218.73C163.311 218.73 164.103 220.008 164.103 222.24V228H162.879V222.564C162.879 221.142 162.663 219.882 160.917 219.882C159.369 219.882 158.037 220.944 157.623 222.438C157.515 222.816 157.479 223.23 157.479 223.662V228H156.255ZM167.627 224.706V220.08H166.439V219.054H167.645V216.444H168.851V219.054H171.119V220.08H168.851V224.58C168.851 226.704 170.201 226.974 170.885 226.974C171.137 226.974 171.299 226.938 171.299 226.938V228.036C171.299 228.036 171.101 228.072 170.777 228.072C169.733 228.072 167.627 227.73 167.627 224.706ZM186.932 228L185.474 223.968H180.38L178.94 228H177.626L182.27 215.346H183.602L188.246 228H186.932ZM182.954 216.66H182.918C182.918 216.66 182.648 217.704 182.432 218.298L180.74 222.888H185.096L183.44 218.298C183.224 217.704 182.954 216.66 182.954 216.66ZM192.122 228L189.062 218.946H190.358L192.554 225.696C192.698 226.128 192.824 226.668 192.824 226.668H192.86C192.86 226.668 192.986 226.128 193.13 225.696L195.362 218.982H196.568L198.8 225.696C198.944 226.128 199.07 226.668 199.07 226.668H199.106C199.106 226.668 199.232 226.146 199.376 225.696L201.572 218.946H202.868L199.808 228H198.476L196.262 221.556C196.1 221.106 195.974 220.584 195.974 220.584H195.938C195.938 220.584 195.812 221.106 195.668 221.556L193.454 228H192.122ZM204.268 225.534C204.268 222.474 208.246 222.402 209.812 222.402H210.316V222.168C210.316 220.422 209.362 219.828 208.066 219.828C206.572 219.828 205.51 220.692 205.51 220.692L204.934 219.756C204.934 219.756 206.122 218.73 208.156 218.73C210.334 218.73 211.54 219.936 211.54 222.204V228H210.37V227.01C210.37 226.56 210.406 226.254 210.406 226.254H210.37C210.37 226.254 209.614 228.216 207.346 228.216C205.834 228.216 204.268 227.334 204.268 225.534ZM205.528 225.462C205.528 226.308 206.194 227.172 207.544 227.172C209.272 227.172 210.316 225.372 210.316 223.806V223.41H209.794C208.372 223.41 205.528 223.464 205.528 225.462ZM214.718 228V218.946H215.924V220.548C215.924 220.944 215.888 221.268 215.888 221.268H215.924C216.356 219.9 217.364 218.856 218.786 218.856C219.038 218.856 219.272 218.91 219.272 218.91V220.116C219.272 220.116 219.056 220.08 218.822 220.08C217.544 220.08 216.59 221.088 216.194 222.42C216.014 222.996 215.942 223.608 215.942 224.184V228H214.718ZM220.829 223.464C220.829 220.602 222.521 218.73 224.897 218.73C227.093 218.73 227.849 220.44 227.849 220.44H227.885C227.885 220.44 227.849 220.134 227.849 219.756V215.346H229.073V228H227.885V227.046C227.885 226.65 227.921 226.398 227.921 226.398H227.885C227.885 226.398 227.147 228.216 224.771 228.216C222.341 228.216 220.829 226.272 220.829 223.464ZM222.089 223.464C222.089 225.696 223.259 227.118 224.951 227.118C226.463 227.118 227.885 226.038 227.885 223.464C227.885 221.628 226.949 219.828 225.005 219.828C223.403 219.828 222.089 221.178 222.089 223.464ZM42.89 252V244.08H41.756V243.054H42.89V242.622C42.89 239.634 44.996 239.256 46.022 239.256C46.364 239.256 46.58 239.292 46.58 239.292V240.39C46.58 240.39 46.4 240.354 46.148 240.354C45.446 240.354 44.114 240.606 44.114 242.622V243.054H46.436V244.08H44.114V252H42.89ZM47.8653 247.428C47.8653 244.746 50.0073 242.73 52.6533 242.73C55.2993 242.73 57.4413 244.746 57.4413 247.428C57.4413 250.164 55.2993 252.216 52.6533 252.216C50.0073 252.216 47.8653 250.164 47.8653 247.428ZM49.1253 247.428C49.1253 249.534 50.7093 251.118 52.6533 251.118C54.5973 251.118 56.1813 249.534 56.1813 247.428C56.1813 245.376 54.5973 243.846 52.6533 243.846C50.7093 243.846 49.1253 245.376 49.1253 247.428ZM60.0886 252V242.946H61.2946V244.548C61.2946 244.944 61.2586 245.268 61.2586 245.268H61.2946C61.7266 243.9 62.7346 242.856 64.1566 242.856C64.4086 242.856 64.6426 242.91 64.6426 242.91V244.116C64.6426 244.116 64.4266 244.08 64.1926 244.08C62.9146 244.08 61.9606 245.088 61.5646 246.42C61.3846 246.996 61.3126 247.608 61.3126 248.184V252H60.0886ZM72.4186 252V239.346H73.6246L80.0866 248.454C80.5186 249.084 81.1306 250.164 81.1306 250.164H81.1666C81.1666 250.164 81.0586 249.12 81.0586 248.454V239.346H82.3006V252H81.0946L74.6326 242.892C74.2006 242.262 73.5886 241.182 73.5886 241.182H73.5526C73.5526 241.182 73.6606 242.226 73.6606 242.892V252H72.4186ZM85.3053 247.428C85.3053 244.746 87.4473 242.73 90.0933 242.73C92.7393 242.73 94.8813 244.746 94.8813 247.428C94.8813 250.164 92.7393 252.216 90.0933 252.216C87.4473 252.216 85.3053 250.164 85.3053 247.428ZM86.5653 247.428C86.5653 249.534 88.1493 251.118 90.0933 251.118C92.0373 251.118 93.6213 249.534 93.6213 247.428C93.6213 245.376 92.0373 243.846 90.0933 243.846C88.1493 243.846 86.5653 245.376 86.5653 247.428ZM97.8706 248.706V244.08H96.6826V243.054H97.8886V240.444H99.0946V243.054H101.363V244.08H99.0946V248.58C99.0946 250.704 100.445 250.974 101.129 250.974C101.381 250.974 101.543 250.938 101.543 250.938V252.036C101.543 252.036 101.345 252.072 101.021 252.072C99.9766 252.072 97.8706 251.73 97.8706 248.706ZM104.314 247.446V246.33H109.426V247.446H104.314ZM113.551 252V244.08H112.417V243.054H113.551V242.622C113.551 239.634 115.657 239.256 116.683 239.256C117.025 239.256 117.241 239.292 117.241 239.292V240.39C117.241 240.39 117.061 240.354 116.809 240.354C116.107 240.354 114.775 240.606 114.775 242.622V243.054H117.097V244.08H114.775V252H113.551ZM118.527 247.428C118.527 244.746 120.669 242.73 123.315 242.73C125.961 242.73 128.103 244.746 128.103 247.428C128.103 250.164 125.961 252.216 123.315 252.216C120.669 252.216 118.527 250.164 118.527 247.428ZM119.787 247.428C119.787 249.534 121.371 251.118 123.315 251.118C125.259 251.118 126.843 249.534 126.843 247.428C126.843 245.376 125.259 243.846 123.315 243.846C121.371 243.846 119.787 245.376 119.787 247.428ZM130.75 252V242.946H131.956V244.548C131.956 244.944 131.92 245.268 131.92 245.268H131.956C132.388 243.9 133.396 242.856 134.818 242.856C135.07 242.856 135.304 242.91 135.304 242.91V244.116C135.304 244.116 135.088 244.08 134.854 244.08C133.576 244.08 132.622 245.088 132.226 246.42C132.046 246.996 131.974 247.608 131.974 248.184V252H130.75ZM137.518 247.446V246.33H142.63V247.446H137.518ZM146.314 252V239.346H150.688C152.956 239.346 154.594 240.822 154.594 243.162C154.594 245.52 152.956 247.032 150.688 247.032H147.556V252H146.314ZM147.556 245.916H150.526C152.218 245.916 153.316 244.89 153.316 243.162C153.316 241.452 152.218 240.462 150.544 240.462H147.556V245.916ZM157.072 252V242.946H158.278V244.548C158.278 244.944 158.242 245.268 158.242 245.268H158.278C158.71 243.9 159.718 242.856 161.14 242.856C161.392 242.856 161.626 242.91 161.626 242.91V244.116C161.626 244.116 161.41 244.08 161.176 244.08C159.898 244.08 158.944 245.088 158.548 246.42C158.368 246.996 158.296 247.608 158.296 248.184V252H157.072ZM163.077 247.428C163.077 244.746 165.219 242.73 167.865 242.73C170.511 242.73 172.653 244.746 172.653 247.428C172.653 250.164 170.511 252.216 167.865 252.216C165.219 252.216 163.077 250.164 163.077 247.428ZM164.337 247.428C164.337 249.534 165.921 251.118 167.865 251.118C169.809 251.118 171.393 249.534 171.393 247.428C171.393 245.376 169.809 243.846 167.865 243.846C165.921 243.846 164.337 245.376 164.337 247.428ZM181.007 252V243.972H176.885V252H175.661V243.972H174.527V242.946H175.661V242.622C175.661 239.634 177.767 239.256 178.793 239.256C179.135 239.256 179.351 239.292 179.351 239.292V240.39C179.351 240.39 179.171 240.354 178.919 240.354C178.217 240.354 176.885 240.606 176.885 242.622V242.946H182.231V252H181.007ZM180.971 240.876V239.346H182.249V240.876H180.971ZM185.881 248.706V244.08H184.693V243.054H185.899V240.444H187.105V243.054H189.373V244.08H187.105V248.58C187.105 250.704 188.455 250.974 189.139 250.974C189.391 250.974 189.553 250.938 189.553 250.938V252.036C189.553 252.036 189.355 252.072 189.031 252.072C187.987 252.072 185.881 251.73 185.881 248.706ZM191.19 252.756L195.762 238.644H196.896L192.342 252.756H191.19ZM198.851 245.592C198.851 241.92 201.587 239.13 205.205 239.13C208.229 239.13 209.759 240.768 209.759 240.768L209.093 241.686C209.093 241.686 207.617 240.282 205.241 240.282C202.271 240.282 200.147 242.586 200.147 245.574C200.147 248.598 202.271 251.064 205.277 251.064C207.833 251.064 209.381 249.372 209.381 249.372L210.101 250.254C210.101 250.254 208.373 252.216 205.259 252.216C201.515 252.216 198.851 249.282 198.851 245.592ZM212.793 252V239.346H214.017V244.242C214.017 244.656 213.981 244.98 213.981 244.98H214.017C214.359 244.116 215.565 242.73 217.617 242.73C219.849 242.73 220.641 244.008 220.641 246.24V252H219.417V246.564C219.417 245.142 219.201 243.882 217.455 243.882C215.907 243.882 214.575 244.944 214.161 246.456C214.053 246.816 214.017 247.23 214.017 247.662V252H212.793ZM223.084 249.534C223.084 246.474 227.062 246.402 228.628 246.402H229.132V246.168C229.132 244.422 228.178 243.828 226.882 243.828C225.388 243.828 224.326 244.692 224.326 244.692L223.75 243.756C223.75 243.756 224.938 242.73 226.972 242.73C229.15 242.73 230.356 243.936 230.356 246.204V252H229.186V251.01C229.186 250.56 229.222 250.254 229.222 250.254H229.186C229.186 250.254 228.43 252.216 226.162 252.216C224.65 252.216 223.084 251.334 223.084 249.534ZM224.344 249.462C224.344 250.308 225.01 251.172 226.36 251.172C228.088 251.172 229.132 249.372 229.132 247.806V247.41H228.61C227.188 247.41 224.344 247.464 224.344 249.462ZM233.534 252V242.946H234.74V244.548C234.74 244.944 234.704 245.268 234.704 245.268H234.74C235.172 243.9 236.18 242.856 237.602 242.856C237.854 242.856 238.088 242.91 238.088 242.91V244.116C238.088 244.116 237.872 244.08 237.638 244.08C236.36 244.08 235.406 245.088 235.01 246.42C234.83 246.996 234.758 247.608 234.758 248.184V252H233.534ZM240.274 240.876V239.346H241.552V240.876H240.274ZM240.31 252V242.946H241.534V252H240.31ZM245.196 248.706V244.08H244.008V243.054H245.214V240.444H246.42V243.054H248.688V244.08H246.42V248.58C246.42 250.704 247.77 250.974 248.454 250.974C248.706 250.974 248.868 250.938 248.868 250.938V252.036C248.868 252.036 248.67 252.072 248.346 252.072C247.302 252.072 245.196 251.73 245.196 248.706ZM249.893 255.24L250.361 254.268C250.361 254.268 250.865 254.682 251.441 254.682C252.233 254.682 252.791 254.034 253.151 253.206L253.709 251.928L249.929 242.946H251.279L253.943 249.552C254.123 250.002 254.267 250.506 254.267 250.506H254.303C254.303 250.506 254.429 250.002 254.609 249.552L257.219 242.946H258.551L254.087 253.89C253.619 255.042 252.683 255.78 251.477 255.78C250.541 255.78 249.893 255.24 249.893 255.24ZM41.99 269.592C41.99 265.92 44.726 263.13 48.344 263.13C51.368 263.13 52.898 264.768 52.898 264.768L52.232 265.686C52.232 265.686 50.756 264.282 48.38 264.282C45.41 264.282 43.286 266.586 43.286 269.574C43.286 272.598 45.41 275.064 48.416 275.064C50.972 275.064 52.52 273.372 52.52 273.372L53.24 274.254C53.24 274.254 51.512 276.216 48.398 276.216C44.654 276.216 41.99 273.282 41.99 269.592ZM55.2657 271.428C55.2657 268.746 57.4077 266.73 60.0537 266.73C62.6997 266.73 64.8417 268.746 64.8417 271.428C64.8417 274.164 62.6997 276.216 60.0537 276.216C57.4077 276.216 55.2657 274.164 55.2657 271.428ZM56.5257 271.428C56.5257 273.534 58.1097 275.118 60.0537 275.118C61.9977 275.118 63.5817 273.534 63.5817 271.428C63.5817 269.376 61.9977 267.846 60.0537 267.846C58.1097 267.846 56.5257 269.376 56.5257 271.428ZM67.489 276V266.946H68.695V268.296C68.695 268.692 68.659 269.016 68.659 269.016H68.695C69.019 268.188 70.171 266.73 72.313 266.73C74.545 266.73 75.337 268.008 75.337 270.24V276H74.113V270.564C74.113 269.142 73.897 267.882 72.151 267.882C70.603 267.882 69.271 268.944 68.857 270.438C68.749 270.816 68.713 271.23 68.713 271.662V276H67.489ZM78.8609 272.706V268.08H77.6729V267.054H78.8789V264.444H80.0849V267.054H82.3529V268.08H80.0849V272.58C80.0849 274.704 81.4349 274.974 82.1189 274.974C82.3709 274.974 82.5329 274.938 82.5329 274.938V276.036C82.5329 276.036 82.3349 276.072 82.0109 276.072C80.9669 276.072 78.8609 275.73 78.8609 272.706ZM84.2782 271.482C84.2782 268.512 86.2942 266.73 88.7422 266.73C91.2442 266.73 92.5222 268.656 92.5222 270.906C92.5222 271.122 92.4862 271.536 92.4862 271.536H85.5382C85.5922 273.858 87.1762 275.118 89.0482 275.118C90.7042 275.118 91.8022 274.02 91.8022 274.02L92.3602 274.956C92.3602 274.956 91.0462 276.216 89.0122 276.216C86.3122 276.216 84.2782 274.272 84.2782 271.482ZM85.5922 270.528H91.2802C91.2082 268.638 90.0562 267.756 88.7062 267.756C87.1942 267.756 85.8802 268.71 85.5922 270.528ZM95.2174 276V266.946H96.4234V268.296C96.4234 268.692 96.3874 269.016 96.3874 269.016H96.4234C96.7474 268.188 97.8994 266.73 100.041 266.73C102.273 266.73 103.065 268.008 103.065 270.24V276H101.841V270.564C101.841 269.142 101.625 267.882 99.8794 267.882C98.3314 267.882 96.9994 268.944 96.5854 270.438C96.4774 270.816 96.4414 271.23 96.4414 271.662V276H95.2174ZM106.589 272.706V268.08H105.401V267.054H106.607V264.444H107.813V267.054H110.081V268.08H107.813V272.58C107.813 274.704 109.163 274.974 109.847 274.974C110.099 274.974 110.261 274.938 110.261 274.938V276.036C110.261 276.036 110.063 276.072 109.739 276.072C108.695 276.072 106.589 275.73 106.589 272.706ZM117.345 269.592C117.345 265.92 120.081 263.13 123.699 263.13C126.723 263.13 128.253 264.768 128.253 264.768L127.587 265.686C127.587 265.686 126.111 264.282 123.735 264.282C120.765 264.282 118.641 266.586 118.641 269.574C118.641 272.598 120.765 275.064 123.771 275.064C126.327 275.064 127.875 273.372 127.875 273.372L128.595 274.254C128.595 274.254 126.867 276.216 123.753 276.216C120.009 276.216 117.345 273.282 117.345 269.592ZM130.548 273.534C130.548 270.474 134.526 270.402 136.092 270.402H136.596V270.168C136.596 268.422 135.642 267.828 134.346 267.828C132.852 267.828 131.79 268.692 131.79 268.692L131.214 267.756C131.214 267.756 132.402 266.73 134.436 266.73C136.614 266.73 137.82 267.936 137.82 270.204V276H136.65V275.01C136.65 274.56 136.686 274.254 136.686 274.254H136.65C136.65 274.254 135.894 276.216 133.626 276.216C132.114 276.216 130.548 275.334 130.548 273.534ZM131.808 273.462C131.808 274.308 132.474 275.172 133.824 275.172C135.552 275.172 136.596 273.372 136.596 271.806V271.41H136.074C134.652 271.41 131.808 271.464 131.808 273.462ZM140.998 276V266.946H142.204V268.296C142.204 268.692 142.168 269.016 142.168 269.016H142.204C142.636 267.792 144.076 266.73 145.48 266.73C147.154 266.73 148.018 267.504 148.288 268.998H148.324C148.81 267.774 150.124 266.73 151.654 266.73C153.85 266.73 154.66 268.008 154.66 270.24V276H153.436V270.546C153.436 269.07 153.13 267.846 151.474 267.846C150.088 267.846 148.954 269.07 148.612 270.402C148.486 270.798 148.45 271.23 148.45 271.716V276H147.226V270.546C147.226 269.178 147.028 267.846 145.318 267.846C143.842 267.846 142.726 269.124 142.348 270.51C142.258 270.888 142.222 271.302 142.222 271.716V276H140.998ZM157.846 279.6V266.946H159.016V267.828C159.016 268.224 158.98 268.53 158.98 268.53H159.016C159.016 268.53 159.754 266.73 162.148 266.73C164.578 266.73 166.09 268.674 166.09 271.482C166.09 274.344 164.38 276.216 162.04 276.216C159.862 276.216 159.07 274.488 159.07 274.488H159.034C159.034 274.488 159.07 274.812 159.07 275.28V279.6H157.846ZM159.034 271.5C159.034 273.318 160.042 275.136 161.914 275.136C163.516 275.136 164.83 273.786 164.83 271.482C164.83 269.268 163.66 267.846 161.968 267.846C160.456 267.846 159.034 268.926 159.034 271.5ZM168.068 273.534C168.068 270.474 172.046 270.402 173.612 270.402H174.116V270.168C174.116 268.422 173.162 267.828 171.866 267.828C170.372 267.828 169.31 268.692 169.31 268.692L168.734 267.756C168.734 267.756 169.922 266.73 171.956 266.73C174.134 266.73 175.34 267.936 175.34 270.204V276H174.17V275.01C174.17 274.56 174.206 274.254 174.206 274.254H174.17C174.17 274.254 173.414 276.216 171.146 276.216C169.634 276.216 168.068 275.334 168.068 273.534ZM169.328 273.462C169.328 274.308 169.994 275.172 171.344 275.172C173.072 275.172 174.116 273.372 174.116 271.806V271.41H173.594C172.172 271.41 169.328 271.464 169.328 273.462ZM178.481 264.876V263.346H179.759V264.876H178.481ZM178.517 276V266.946H179.741V276H178.517ZM183.745 278.052C183.745 278.052 184.861 278.682 186.193 278.682C187.957 278.682 189.361 277.854 189.361 275.838V275.01C189.361 274.668 189.397 274.362 189.397 274.362H189.361C188.821 275.37 187.903 275.946 186.499 275.946C184.069 275.946 182.467 274.02 182.467 271.302C182.467 268.584 183.961 266.73 186.391 266.73C188.785 266.73 189.379 268.242 189.379 268.242H189.415C189.415 268.242 189.397 268.134 189.397 267.936V266.946H190.585V275.784C190.585 278.664 188.461 279.78 186.247 279.78C185.203 279.78 184.159 279.51 183.277 279.06L183.745 278.052ZM186.697 274.848C188.119 274.848 189.379 273.966 189.379 271.302C189.379 268.656 188.119 267.846 186.517 267.846C184.753 267.846 183.727 269.124 183.727 271.284C183.727 273.444 184.897 274.848 186.697 274.848ZM193.897 276V266.946H195.103V268.296C195.103 268.692 195.067 269.016 195.067 269.016H195.103C195.427 268.188 196.579 266.73 198.721 266.73C200.953 266.73 201.745 268.008 201.745 270.24V276H200.521V270.564C200.521 269.142 200.305 267.882 198.559 267.882C197.011 267.882 195.679 268.944 195.265 270.438C195.157 270.816 195.121 271.23 195.121 271.662V276H193.897ZM209.455 271.428C209.455 268.746 211.597 266.73 214.243 266.73C216.889 266.73 219.031 268.746 219.031 271.428C219.031 274.164 216.889 276.216 214.243 276.216C211.597 276.216 209.455 274.164 209.455 271.428ZM210.715 271.428C210.715 273.534 212.299 275.118 214.243 275.118C216.187 275.118 217.771 273.534 217.771 271.428C217.771 269.376 216.187 267.846 214.243 267.846C212.299 267.846 210.715 269.376 210.715 271.428ZM222.04 276V268.08H220.906V267.054H222.04V266.622C222.04 263.634 224.146 263.256 225.172 263.256C225.514 263.256 225.73 263.292 225.73 263.292V264.39C225.73 264.39 225.55 264.354 225.298 264.354C224.596 264.354 223.264 264.606 223.264 266.622V267.054H225.586V268.08H223.264V276H222.04ZM42.818 296.706V292.08H41.63V291.054H42.836V288.444H44.042V291.054H46.31V292.08H44.042V296.58C44.042 298.704 45.392 298.974 46.076 298.974C46.328 298.974 46.49 298.938 46.49 298.938V300.036C46.49 300.036 46.292 300.072 45.968 300.072C44.924 300.072 42.818 299.73 42.818 296.706ZM48.8653 300V287.346H50.0893V292.242C50.0893 292.656 50.0533 292.98 50.0533 292.98H50.0893C50.4313 292.116 51.6373 290.73 53.6893 290.73C55.9213 290.73 56.7133 292.008 56.7133 294.24V300H55.4893V294.564C55.4893 293.142 55.2733 291.882 53.5273 291.882C51.9793 291.882 50.6473 292.944 50.2333 294.456C50.1253 294.816 50.0893 295.23 50.0893 295.662V300H48.8653ZM59.2652 295.482C59.2652 292.512 61.2812 290.73 63.7292 290.73C66.2312 290.73 67.5092 292.656 67.5092 294.906C67.5092 295.122 67.4732 295.536 67.4732 295.536H60.5252C60.5792 297.858 62.1632 299.118 64.0352 299.118C65.6912 299.118 66.7892 298.02 66.7892 298.02L67.3472 298.956C67.3472 298.956 66.0332 300.216 63.9992 300.216C61.2992 300.216 59.2652 298.272 59.2652 295.482ZM60.5792 294.528H66.2672C66.1952 292.638 65.0432 291.756 63.6932 291.756C62.1812 291.756 60.8672 292.71 60.5792 294.528ZM78.4584 300V294.564L74.1924 287.346H75.6144L78.2964 291.936C78.6744 292.584 79.0704 293.448 79.0704 293.448H79.1064C79.1064 293.448 79.4844 292.602 79.8804 291.936L82.5624 287.346H83.9664L79.7184 294.564V300H78.4584ZM84.4097 295.482C84.4097 292.512 86.4257 290.73 88.8737 290.73C91.3757 290.73 92.6537 292.656 92.6537 294.906C92.6537 295.122 92.6177 295.536 92.6177 295.536H85.6697C85.7237 297.858 87.3077 299.118 89.1797 299.118C90.8357 299.118 91.9337 298.02 91.9337 298.02L92.4917 298.956C92.4917 298.956 91.1777 300.216 89.1437 300.216C86.4437 300.216 84.4097 298.272 84.4097 295.482ZM85.7237 294.528H91.4117C91.3397 292.638 90.1877 291.756 88.8377 291.756C87.3257 291.756 86.0117 292.71 85.7237 294.528ZM94.6109 297.534C94.6109 294.474 98.5889 294.402 100.155 294.402H100.659V294.168C100.659 292.422 99.7049 291.828 98.4089 291.828C96.9149 291.828 95.8529 292.692 95.8529 292.692L95.2769 291.756C95.2769 291.756 96.4649 290.73 98.4989 290.73C100.677 290.73 101.883 291.936 101.883 294.204V300H100.713V299.01C100.713 298.56 100.749 298.254 100.749 298.254H100.713C100.713 298.254 99.9569 300.216 97.6889 300.216C96.1769 300.216 94.6109 299.334 94.6109 297.534ZM95.8709 297.462C95.8709 298.308 96.5369 299.172 97.8869 299.172C99.6149 299.172 100.659 297.372 100.659 295.806V295.41H100.137C98.7149 295.41 95.8709 295.464 95.8709 297.462ZM105.06 300V290.946H106.266V292.548C106.266 292.944 106.23 293.268 106.23 293.268H106.266C106.698 291.9 107.706 290.856 109.128 290.856C109.38 290.856 109.614 290.91 109.614 290.91V292.116C109.614 292.116 109.398 292.08 109.164 292.08C107.886 292.08 106.932 293.088 106.536 294.42C106.356 294.996 106.284 295.608 106.284 296.184V300H105.06Z" fill="white"/>
<defs>
<linearGradient id="paint0_linear_510_230" x1="29.6463" y1="207.095" x2="400.531" y2="209.235" gradientUnits="userSpaceOnUse">
<stop stop-color="#FEC010"/>
<stop offset="0.650465" stop-color="#F06516"/>
<stop offset="1" stop-color="#F03016"/>
</linearGradient>
</defs>
</svg>
