<svg width="330" height="380" viewBox="0 0 330 380" fill="none" xmlns="http://www.w3.org/2000/svg">
<rect x="1.5" y="1.5" width="327" height="376.697" stroke="url(#paint0_linear_510_247)"/>
<path d="M75.1832 63.153C75.1832 71.7383 68.169 78.7059 59.5069 78.7059C50.8448 78.7059 43.8307 71.7383 43.8307 63.153C43.8307 54.5676 50.8448 47.6 59.5069 47.6C68.169 47.6 75.1832 54.5676 75.1832 63.153Z" stroke="white" stroke-width="1.2"/>
<path d="M46.3247 60.8119C48.9178 59.0487 53.9603 57.8525 59.7558 57.8525C65.0474 57.8525 69.7111 58.8497 72.456 60.3652M46.1486 66.114C48.6849 67.9444 53.8261 69.1966 59.7558 69.1966C65.0474 69.1966 69.7111 68.1994 72.456 66.684" stroke="white" stroke-width="1.2" stroke-linecap="round" stroke-dasharray="2.4 2.4"/>
<path d="M50.2723 75.7022L42.0001 94.7605L48.0896 93.6284L51.2728 98.5788L59.3901 78.7411" stroke="white" stroke-width="1.2" stroke-linecap="round"/>
<path d="M69.7277 75.7022L77.9999 94.7605L71.9104 93.6284L68.7272 98.5788L60.6099 78.7411" stroke="white" stroke-width="1.2" stroke-linecap="round"/>
<path d="M43.016 185C42.908 184.172 42.8 183.452 42.8 182.732C42.8 173.516 54.752 172.04 54.752 166.964C54.752 164.732 53.024 163.4 50.864 163.4C47.876 163.4 46.256 166.424 46.256 166.424L42.8 164.12C42.8 164.12 45.14 159.008 51.26 159.008C55.76 159.008 59.576 161.744 59.576 166.568C59.576 174.776 48.128 176.18 48.02 181.004H59.972V185H43.016ZM74.1868 185.432C67.2028 185.432 64.9348 179.528 64.9348 172.184C64.9348 164.84 67.2028 159.008 74.1868 159.008C81.1708 159.008 83.4748 164.84 83.4748 172.184C83.4748 179.528 81.1708 185.432 74.1868 185.432ZM74.1868 181.184C77.6788 181.184 78.6868 177.224 78.6868 172.184C78.6868 167.216 77.6788 163.292 74.1868 163.292C70.6948 163.292 69.6868 167.216 69.6868 172.184C69.6868 177.224 70.6948 181.184 74.1868 181.184ZM88.5394 185C88.4314 184.172 88.3234 183.452 88.3234 182.732C88.3234 173.516 100.275 172.04 100.275 166.964C100.275 164.732 98.5474 163.4 96.3874 163.4C93.3994 163.4 91.7794 166.424 91.7794 166.424L88.3234 164.12C88.3234 164.12 90.6634 159.008 96.7834 159.008C101.283 159.008 105.099 161.744 105.099 166.568C105.099 174.776 93.6514 176.18 93.5434 181.004H105.495V185H88.5394ZM109.666 182.012L112.042 178.448C112.042 178.448 114.454 181.04 117.838 181.04C120.502 181.04 122.446 179.42 122.446 177.224C122.446 174.524 119.962 173.264 116.974 173.264H115.21L114.166 170.888L118.846 165.344C119.854 164.156 120.682 163.4 120.682 163.4V163.328C120.682 163.328 119.926 163.436 118.414 163.436H110.782V159.44H126.406V162.356L120.142 169.592C123.67 170.096 127.126 172.616 127.126 177.044C127.126 181.4 123.814 185.432 118.126 185.432C112.69 185.432 109.666 182.012 109.666 182.012Z" fill="#FEC010"/>
<path d="M42.836 228V215.346H47.21C49.478 215.346 51.116 216.822 51.116 219.162C51.116 221.52 49.478 223.032 47.21 223.032H44.078V228H42.836ZM44.078 221.916H47.048C48.74 221.916 49.838 220.89 49.838 219.162C49.838 217.452 48.74 216.462 47.066 216.462H44.078V221.916ZM52.9638 223.482C52.9638 220.512 54.9798 218.73 57.4278 218.73C59.9298 218.73 61.2078 220.656 61.2078 222.906C61.2078 223.122 61.1718 223.536 61.1718 223.536H54.2238C54.2778 225.858 55.8618 227.118 57.7338 227.118C59.3898 227.118 60.4878 226.02 60.4878 226.02L61.0458 226.956C61.0458 226.956 59.7318 228.216 57.6978 228.216C54.9978 228.216 52.9638 226.272 52.9638 223.482ZM54.2778 222.528H59.9658C59.8938 220.638 58.7418 219.756 57.3918 219.756C55.8798 219.756 54.5658 220.71 54.2778 222.528ZM63.237 223.428C63.237 220.746 65.379 218.73 68.025 218.73C70.671 218.73 72.813 220.746 72.813 223.428C72.813 226.164 70.671 228.216 68.025 228.216C65.379 228.216 63.237 226.164 63.237 223.428ZM64.497 223.428C64.497 225.534 66.081 227.118 68.025 227.118C69.969 227.118 71.553 225.534 71.553 223.428C71.553 221.376 69.969 219.846 68.025 219.846C66.081 219.846 64.497 221.376 64.497 223.428ZM75.4603 231.6V218.946H76.6303V219.828C76.6303 220.224 76.5943 220.53 76.5943 220.53H76.6303C76.6303 220.53 77.3683 218.73 79.7623 218.73C82.1923 218.73 83.7043 220.674 83.7043 223.482C83.7043 226.344 81.9943 228.216 79.6543 228.216C77.4763 228.216 76.6843 226.488 76.6843 226.488H76.6483C76.6483 226.488 76.6843 226.812 76.6843 227.28V231.6H75.4603ZM76.6483 223.5C76.6483 225.318 77.6563 227.136 79.5283 227.136C81.1303 227.136 82.4443 225.786 82.4443 223.482C82.4443 221.268 81.2743 219.846 79.5823 219.846C78.0703 219.846 76.6483 220.926 76.6483 223.5ZM86.3299 225.858V215.346H87.5539V225.588C87.5539 226.776 88.0939 226.956 88.5619 226.956C88.7239 226.956 88.8679 226.938 88.8679 226.938V228.036C88.8679 228.036 88.6519 228.072 88.4179 228.072C87.6619 228.072 86.3299 227.838 86.3299 225.858ZM90.5972 223.482C90.5972 220.512 92.6132 218.73 95.0612 218.73C97.5632 218.73 98.8412 220.656 98.8412 222.906C98.8412 223.122 98.8052 223.536 98.8052 223.536H91.8572C91.9112 225.858 93.4952 227.118 95.3672 227.118C97.0232 227.118 98.1212 226.02 98.1212 226.02L98.6792 226.956C98.6792 226.956 97.3652 228.216 95.3312 228.216C92.6312 228.216 90.5972 226.272 90.5972 223.482ZM91.9112 222.528H97.5992C97.5272 220.638 96.3752 219.756 95.0252 219.756C93.5132 219.756 92.1992 220.71 91.9112 222.528ZM101.302 218.208V215.166H102.364V218.208H101.302ZM104.709 226.902L105.375 226.02C105.375 226.02 106.383 227.118 108.075 227.118C109.047 227.118 109.893 226.632 109.893 225.678C109.893 223.698 105.015 224.184 105.015 221.232C105.015 219.612 106.473 218.73 108.111 218.73C110.019 218.73 110.901 219.72 110.901 219.72L110.343 220.656C110.343 220.656 109.569 219.828 108.075 219.828C107.157 219.828 106.275 220.224 106.275 221.232C106.275 223.23 111.153 222.69 111.153 225.678C111.153 227.154 109.875 228.216 108.057 228.216C105.861 228.216 104.709 226.902 104.709 226.902ZM118.496 221.592C118.496 217.92 121.232 215.13 124.85 215.13C127.874 215.13 129.404 216.768 129.404 216.768L128.738 217.686C128.738 217.686 127.262 216.282 124.886 216.282C121.916 216.282 119.792 218.586 119.792 221.574C119.792 224.598 121.916 227.064 124.922 227.064C127.478 227.064 129.026 225.372 129.026 225.372L129.746 226.254C129.746 226.254 128.018 228.216 124.904 228.216C121.16 228.216 118.496 225.282 118.496 221.592ZM132.437 228V215.346H133.661V220.242C133.661 220.656 133.625 220.98 133.625 220.98H133.661C134.003 220.116 135.209 218.73 137.261 218.73C139.493 218.73 140.285 220.008 140.285 222.24V228H139.061V222.564C139.061 221.142 138.845 219.882 137.099 219.882C135.551 219.882 134.219 220.944 133.805 222.456C133.697 222.816 133.661 223.23 133.661 223.662V228H132.437ZM142.801 223.428C142.801 220.746 144.943 218.73 147.589 218.73C150.235 218.73 152.377 220.746 152.377 223.428C152.377 226.164 150.235 228.216 147.589 228.216C144.943 228.216 142.801 226.164 142.801 223.428ZM144.061 223.428C144.061 225.534 145.645 227.118 147.589 227.118C149.533 227.118 151.117 225.534 151.117 223.428C151.117 221.376 149.533 219.846 147.589 219.846C145.645 219.846 144.061 221.376 144.061 223.428ZM154.989 216.876V215.346H156.267V216.876H154.989ZM155.025 228V218.946H156.249V228H155.025ZM158.938 223.482C158.938 220.692 161.026 218.73 163.69 218.73C165.904 218.73 167.002 220.026 167.002 220.026L166.372 220.944C166.372 220.944 165.364 219.846 163.726 219.846C161.746 219.846 160.198 221.322 160.198 223.482C160.198 225.606 161.764 227.118 163.762 227.118C165.598 227.118 166.66 225.84 166.66 225.84L167.218 226.794C167.218 226.794 165.994 228.216 163.69 228.216C161.008 228.216 158.938 226.29 158.938 223.482ZM169.177 223.482C169.177 220.512 171.193 218.73 173.641 218.73C176.143 218.73 177.421 220.656 177.421 222.906C177.421 223.122 177.385 223.536 177.385 223.536H170.437C170.491 225.858 172.075 227.118 173.947 227.118C175.603 227.118 176.701 226.02 176.701 226.02L177.259 226.956C177.259 226.956 175.945 228.216 173.911 228.216C171.211 228.216 169.177 226.272 169.177 223.482ZM170.491 222.528H176.179C176.107 220.638 174.955 219.756 173.605 219.756C172.093 219.756 170.779 220.71 170.491 222.528ZM185.67 228V215.346H186.912V226.884H192.78V228H185.67ZM194.321 223.428C194.321 220.746 196.463 218.73 199.109 218.73C201.755 218.73 203.897 220.746 203.897 223.428C203.897 226.164 201.755 228.216 199.109 228.216C196.463 228.216 194.321 226.164 194.321 223.428ZM195.581 223.428C195.581 225.534 197.165 227.118 199.109 227.118C201.053 227.118 202.637 225.534 202.637 223.428C202.637 221.376 201.053 219.846 199.109 219.846C197.165 219.846 195.581 221.376 195.581 223.428ZM208.776 228L205.302 218.946H206.598L209.118 225.588C209.28 226.038 209.424 226.668 209.424 226.668H209.46C209.46 226.668 209.604 226.056 209.784 225.588L212.286 218.946H213.564L210.108 228H208.776ZM215.604 216.876V215.346H216.882V216.876H215.604ZM215.64 228V218.946H216.864V228H215.64ZM219.554 223.482C219.554 220.512 221.57 218.73 224.018 218.73C226.52 218.73 227.798 220.656 227.798 222.906C227.798 223.122 227.762 223.536 227.762 223.536H220.814C220.868 225.858 222.452 227.118 224.324 227.118C225.98 227.118 227.078 226.02 227.078 226.02L227.636 226.956C227.636 226.956 226.322 228.216 224.288 228.216C221.588 228.216 219.554 226.272 219.554 223.482ZM220.868 222.528H226.556C226.484 220.638 225.332 219.756 223.982 219.756C222.47 219.756 221.156 220.71 220.868 222.528ZM243.751 228L242.293 223.968H237.199L235.759 228H234.445L239.089 215.346H240.421L245.065 228H243.751ZM239.773 216.66H239.737C239.737 216.66 239.467 217.704 239.251 218.298L237.559 222.888H241.915L240.259 218.298C240.043 217.704 239.773 216.66 239.773 216.66ZM248.941 228L245.881 218.946H247.177L249.373 225.696C249.517 226.128 249.643 226.668 249.643 226.668H249.679C249.679 226.668 249.805 226.128 249.949 225.696L252.181 218.982H253.387L255.619 225.696C255.763 226.128 255.889 226.668 255.889 226.668H255.925C255.925 226.668 256.051 226.146 256.195 225.696L258.391 218.946H259.687L256.627 228H255.295L253.081 221.556C252.919 221.106 252.793 220.584 252.793 220.584H252.757C252.757 220.584 252.631 221.106 252.487 221.556L250.273 228H248.941ZM261.087 225.534C261.087 222.474 265.065 222.402 266.631 222.402H267.135V222.168C267.135 220.422 266.181 219.828 264.885 219.828C263.391 219.828 262.329 220.692 262.329 220.692L261.753 219.756C261.753 219.756 262.941 218.73 264.975 218.73C267.153 218.73 268.359 219.936 268.359 222.204V228H267.189V227.01C267.189 226.56 267.225 226.254 267.225 226.254H267.189C267.189 226.254 266.433 228.216 264.165 228.216C262.653 228.216 261.087 227.334 261.087 225.534ZM262.347 225.462C262.347 226.308 263.013 227.172 264.363 227.172C266.091 227.172 267.135 225.372 267.135 223.806V223.41H266.613C265.191 223.41 262.347 223.464 262.347 225.462ZM271.537 228V218.946H272.743V220.548C272.743 220.944 272.707 221.268 272.707 221.268H272.743C273.175 219.9 274.183 218.856 275.605 218.856C275.857 218.856 276.091 218.91 276.091 218.91V220.116C276.091 220.116 275.875 220.08 275.641 220.08C274.363 220.08 273.409 221.088 273.013 222.42C272.833 222.996 272.761 223.608 272.761 224.184V228H271.537ZM277.648 223.464C277.648 220.602 279.34 218.73 281.716 218.73C283.912 218.73 284.668 220.44 284.668 220.44H284.704C284.704 220.44 284.668 220.134 284.668 219.756V215.346H285.892V228H284.704V227.046C284.704 226.65 284.74 226.398 284.74 226.398H284.704C284.704 226.398 283.966 228.216 281.59 228.216C279.16 228.216 277.648 226.272 277.648 223.464ZM278.908 223.464C278.908 225.696 280.078 227.118 281.77 227.118C283.282 227.118 284.704 226.038 284.704 223.464C284.704 221.628 283.768 219.828 281.824 219.828C280.222 219.828 278.908 221.178 278.908 223.464ZM42.89 252V244.08H41.756V243.054H42.89V242.622C42.89 239.634 44.996 239.256 46.022 239.256C46.364 239.256 46.58 239.292 46.58 239.292V240.39C46.58 240.39 46.4 240.354 46.148 240.354C45.446 240.354 44.114 240.606 44.114 242.622V243.054H46.436V244.08H44.114V252H42.89ZM47.8653 247.428C47.8653 244.746 50.0073 242.73 52.6533 242.73C55.2993 242.73 57.4413 244.746 57.4413 247.428C57.4413 250.164 55.2993 252.216 52.6533 252.216C50.0073 252.216 47.8653 250.164 47.8653 247.428ZM49.1253 247.428C49.1253 249.534 50.7093 251.118 52.6533 251.118C54.5973 251.118 56.1813 249.534 56.1813 247.428C56.1813 245.376 54.5973 243.846 52.6533 243.846C50.7093 243.846 49.1253 245.376 49.1253 247.428ZM60.0886 252V242.946H61.2946V244.548C61.2946 244.944 61.2586 245.268 61.2586 245.268H61.2946C61.7266 243.9 62.7346 242.856 64.1566 242.856C64.4086 242.856 64.6426 242.91 64.6426 242.91V244.116C64.6426 244.116 64.4266 244.08 64.1926 244.08C62.9146 244.08 61.9606 245.088 61.5646 246.42C61.3846 246.996 61.3126 247.608 61.3126 248.184V252H60.0886ZM72.0226 252L73.0306 239.346H74.3266L77.6386 246.78C77.9266 247.428 78.2506 248.328 78.2506 248.328H78.2866C78.2866 248.328 78.6286 247.428 78.9166 246.78L82.2286 239.346H83.5066L84.5146 252H83.2726L82.5706 243.144C82.5166 242.46 82.5346 241.38 82.5346 241.38H82.4986C82.4986 241.38 82.1206 242.496 81.8326 243.144L78.8626 249.642H77.6926L74.7226 243.144C74.4346 242.514 74.0386 241.344 74.0386 241.344H74.0026C74.0026 241.344 74.0206 242.46 73.9666 243.144L73.2646 252H72.0226ZM87.0439 249.534C87.0439 246.474 91.0219 246.402 92.5879 246.402H93.0919V246.168C93.0919 244.422 92.1379 243.828 90.8419 243.828C89.3479 243.828 88.2859 244.692 88.2859 244.692L87.7099 243.756C87.7099 243.756 88.8979 242.73 90.9319 242.73C93.1099 242.73 94.3159 243.936 94.3159 246.204V252H93.1459V251.01C93.1459 250.56 93.1819 250.254 93.1819 250.254H93.1459C93.1459 250.254 92.3899 252.216 90.1219 252.216C88.6099 252.216 87.0439 251.334 87.0439 249.534ZM88.3039 249.462C88.3039 250.308 88.9699 251.172 90.3199 251.172C92.0479 251.172 93.0919 249.372 93.0919 247.806V247.41H92.5699C91.1479 247.41 88.3039 247.464 88.3039 249.462ZM97.4934 252V242.946H98.6994V244.548C98.6994 244.944 98.6634 245.268 98.6634 245.268H98.6994C99.1314 243.9 100.139 242.856 101.561 242.856C101.813 242.856 102.047 242.91 102.047 242.91V244.116C102.047 244.116 101.831 244.08 101.597 244.08C100.319 244.08 99.3654 245.088 98.9694 246.42C98.7894 246.996 98.7174 247.608 98.7174 248.184V252H97.4934ZM104.269 252V239.346H105.493V246.402H106.933L109.651 242.946H111.127L107.977 246.888V246.924L111.433 252H109.975L106.951 247.464H105.493V252H104.269ZM112.894 247.482C112.894 244.512 114.91 242.73 117.358 242.73C119.86 242.73 121.138 244.656 121.138 246.906C121.138 247.122 121.102 247.536 121.102 247.536H114.154C114.208 249.858 115.792 251.118 117.664 251.118C119.32 251.118 120.418 250.02 120.418 250.02L120.976 250.956C120.976 250.956 119.662 252.216 117.628 252.216C114.928 252.216 112.894 250.272 112.894 247.482ZM114.208 246.528H119.896C119.824 244.638 118.672 243.756 117.322 243.756C115.81 243.756 114.496 244.71 114.208 246.528ZM124.175 248.706V244.08H122.987V243.054H124.193V240.444H125.399V243.054H127.667V244.08H125.399V248.58C125.399 250.704 126.749 250.974 127.433 250.974C127.685 250.974 127.847 250.938 127.847 250.938V252.036C127.847 252.036 127.649 252.072 127.325 252.072C126.281 252.072 124.175 251.73 124.175 248.706ZM130.186 240.876V239.346H131.464V240.876H130.186ZM130.222 252V242.946H131.446V252H130.222ZM134.766 252V242.946H135.972V244.296C135.972 244.692 135.936 245.016 135.936 245.016H135.972C136.296 244.188 137.448 242.73 139.59 242.73C141.822 242.73 142.614 244.008 142.614 246.24V252H141.39V246.564C141.39 245.142 141.174 243.882 139.428 243.882C137.88 243.882 136.548 244.944 136.134 246.438C136.026 246.816 135.99 247.23 135.99 247.662V252H134.766ZM146.48 254.052C146.48 254.052 147.596 254.682 148.928 254.682C150.692 254.682 152.096 253.854 152.096 251.838V251.01C152.096 250.668 152.132 250.362 152.132 250.362H152.096C151.556 251.37 150.638 251.946 149.234 251.946C146.804 251.946 145.202 250.02 145.202 247.302C145.202 244.584 146.696 242.73 149.126 242.73C151.52 242.73 152.114 244.242 152.114 244.242H152.15C152.15 244.242 152.132 244.134 152.132 243.936V242.946H153.32V251.784C153.32 254.664 151.196 255.78 148.982 255.78C147.938 255.78 146.894 255.51 146.012 255.06L146.48 254.052ZM149.432 250.848C150.854 250.848 152.114 249.966 152.114 247.302C152.114 244.656 150.854 243.846 149.252 243.846C147.488 243.846 146.462 245.124 146.462 247.284C146.462 249.444 147.632 250.848 149.432 250.848ZM155.805 253.746L156.831 250.524H158.181L156.849 253.746H155.805ZM174.645 252L173.187 247.968H168.093L166.653 252H165.339L169.983 239.346H171.315L175.959 252H174.645ZM170.667 240.66H170.631C170.631 240.66 170.361 241.704 170.145 242.298L168.453 246.888H172.809L171.153 242.298C170.937 241.704 170.667 240.66 170.667 240.66ZM177.439 247.464C177.439 244.602 179.131 242.73 181.507 242.73C183.703 242.73 184.459 244.44 184.459 244.44H184.495C184.495 244.44 184.459 244.134 184.459 243.756V239.346H185.683V252H184.495V251.046C184.495 250.65 184.531 250.398 184.531 250.398H184.495C184.495 250.398 183.757 252.216 181.381 252.216C178.951 252.216 177.439 250.272 177.439 247.464ZM178.699 247.464C178.699 249.696 179.869 251.118 181.561 251.118C183.073 251.118 184.495 250.038 184.495 247.464C184.495 245.628 183.559 243.828 181.615 243.828C180.013 243.828 178.699 245.178 178.699 247.464ZM191.224 252L187.75 242.946H189.046L191.566 249.588C191.728 250.038 191.872 250.668 191.872 250.668H191.908C191.908 250.668 192.052 250.056 192.232 249.588L194.734 242.946H196.012L192.556 252H191.224ZM197.459 247.482C197.459 244.512 199.475 242.73 201.923 242.73C204.425 242.73 205.703 244.656 205.703 246.906C205.703 247.122 205.667 247.536 205.667 247.536H198.719C198.773 249.858 200.357 251.118 202.229 251.118C203.885 251.118 204.983 250.02 204.983 250.02L205.541 250.956C205.541 250.956 204.227 252.216 202.193 252.216C199.493 252.216 197.459 250.272 197.459 247.482ZM198.773 246.528H204.461C204.389 244.638 203.237 243.756 201.887 243.756C200.375 243.756 199.061 244.71 198.773 246.528ZM208.398 252V242.946H209.604V244.548C209.604 244.944 209.568 245.268 209.568 245.268H209.604C210.036 243.9 211.044 242.856 212.466 242.856C212.718 242.856 212.952 242.91 212.952 242.91V244.116C212.952 244.116 212.736 244.08 212.502 244.08C211.224 244.08 210.27 245.088 209.874 246.42C209.694 246.996 209.622 247.608 209.622 248.184V252H208.398ZM215.516 248.706V244.08H214.328V243.054H215.534V240.444H216.74V243.054H219.008V244.08H216.74V248.58C216.74 250.704 218.09 250.974 218.774 250.974C219.026 250.974 219.188 250.938 219.188 250.938V252.036C219.188 252.036 218.99 252.072 218.666 252.072C217.622 252.072 215.516 251.73 215.516 248.706ZM221.527 240.876V239.346H222.805V240.876H221.527ZM221.563 252V242.946H222.787V252H221.563ZM225.369 250.902L226.035 250.02C226.035 250.02 227.043 251.118 228.735 251.118C229.707 251.118 230.553 250.632 230.553 249.678C230.553 247.698 225.675 248.184 225.675 245.232C225.675 243.612 227.133 242.73 228.771 242.73C230.679 242.73 231.561 243.72 231.561 243.72L231.003 244.656C231.003 244.656 230.229 243.828 228.735 243.828C227.817 243.828 226.935 244.224 226.935 245.232C226.935 247.23 231.813 246.69 231.813 249.678C231.813 251.154 230.535 252.216 228.717 252.216C226.521 252.216 225.369 250.902 225.369 250.902ZM234.411 240.876V239.346H235.689V240.876H234.411ZM234.447 252V242.946H235.671V252H234.447ZM238.991 252V242.946H240.197V244.296C240.197 244.692 240.161 245.016 240.161 245.016H240.197C240.521 244.188 241.673 242.73 243.815 242.73C246.047 242.73 246.839 244.008 246.839 246.24V252H245.615V246.564C245.615 245.142 245.399 243.882 243.653 243.882C242.105 243.882 240.773 244.944 240.359 246.438C240.251 246.816 240.215 247.23 240.215 247.662V252H238.991ZM250.705 254.052C250.705 254.052 251.821 254.682 253.153 254.682C254.917 254.682 256.321 253.854 256.321 251.838V251.01C256.321 250.668 256.357 250.362 256.357 250.362H256.321C255.781 251.37 254.863 251.946 253.459 251.946C251.029 251.946 249.427 250.02 249.427 247.302C249.427 244.584 250.921 242.73 253.351 242.73C255.745 242.73 256.339 244.242 256.339 244.242H256.375C256.375 244.242 256.357 244.134 256.357 243.936V242.946H257.545V251.784C257.545 254.664 255.421 255.78 253.207 255.78C252.163 255.78 251.119 255.51 250.237 255.06L250.705 254.052ZM253.657 250.848C255.079 250.848 256.339 249.966 256.339 247.302C256.339 244.656 255.079 243.846 253.477 243.846C251.713 243.846 250.687 245.124 250.687 247.284C250.687 249.444 251.857 250.848 253.657 250.848ZM42.08 272.508C42.08 271.05 42.908 269.628 44.384 269.178V269.142C44.384 269.142 42.62 268.584 42.62 266.334C42.62 264.39 44.114 263.13 46.418 263.13C47.03 263.13 47.858 263.31 47.858 263.31L47.498 264.354C47.498 264.354 46.904 264.228 46.454 264.228C45.032 264.228 43.916 265.038 43.916 266.406C43.916 267.252 44.276 268.692 46.634 268.692H49.298V266.91H50.54V268.692H52.25V269.808H50.54V271.662C50.54 274.686 48.884 276.216 46.346 276.216C43.808 276.216 42.08 274.614 42.08 272.508ZM43.358 272.436C43.358 273.876 44.474 275.046 46.346 275.046C48.128 275.046 49.298 274.056 49.298 271.626V269.808H46.634C44.438 269.808 43.358 270.852 43.358 272.436ZM60.5189 276V263.346H64.8929C67.1609 263.346 68.7989 264.822 68.7989 267.162C68.7989 269.52 67.1609 271.032 64.8929 271.032H61.7609V276H60.5189ZM61.7609 269.916H64.7309C66.4229 269.916 67.5209 268.89 67.5209 267.162C67.5209 265.452 66.4229 264.462 64.7489 264.462H61.7609V269.916ZM71.6367 276V263.346H75.3807C76.6767 263.346 77.2527 263.472 77.7567 263.688C78.9447 264.21 79.6647 265.416 79.6647 266.946C79.6647 268.656 78.6927 269.97 77.2707 270.366V270.402C77.2707 270.402 77.3967 270.564 77.5947 270.906L80.3487 276H78.9267L76.0647 270.672H72.8787V276H71.6367ZM72.8787 269.556H75.8847C77.4147 269.556 78.3867 268.566 78.3867 266.982C78.3867 265.938 77.9727 265.164 77.2347 264.768C76.8567 264.57 76.4067 264.462 75.4347 264.462H72.8787V269.556ZM88.0974 264.876V263.346H89.3754V264.876H88.0974ZM88.1334 276V266.946H89.3574V276H88.1334ZM92.677 276V266.946H93.883V268.296C93.883 268.692 93.847 269.016 93.847 269.016H93.883C94.207 268.188 95.359 266.73 97.501 266.73C99.733 266.73 100.525 268.008 100.525 270.24V276H99.301V270.564C99.301 269.142 99.085 267.882 97.339 267.882C95.791 267.882 94.459 268.944 94.045 270.438C93.937 270.816 93.901 271.23 93.901 271.662V276H92.677ZM108.325 274.596L109.063 273.642C109.063 273.642 110.377 275.028 112.375 275.028C113.761 275.028 114.895 274.2 114.895 272.832C114.895 269.646 108.577 270.456 108.577 266.532C108.577 264.714 110.179 263.13 112.519 263.13C114.715 263.13 115.903 264.354 115.903 264.354L115.291 265.398C115.291 265.398 114.175 264.318 112.519 264.318C110.899 264.318 109.855 265.38 109.855 266.496C109.855 269.502 116.173 268.638 116.173 272.796C116.173 274.686 114.715 276.216 112.339 276.216C109.747 276.216 108.325 274.596 108.325 274.596ZM118.82 272.706V266.946H120.044V272.382C120.044 273.804 120.26 275.064 122.006 275.064C124.076 275.064 125.354 273.246 125.354 271.284V266.946H126.578V276H125.39V274.65C125.39 274.254 125.426 273.93 125.426 273.93H125.39C125.03 274.812 123.842 276.216 121.844 276.216C119.72 276.216 118.82 275.064 118.82 272.706ZM129.15 274.902L129.816 274.02C129.816 274.02 130.824 275.118 132.516 275.118C133.488 275.118 134.334 274.632 134.334 273.678C134.334 271.698 129.456 272.184 129.456 269.232C129.456 267.612 130.914 266.73 132.552 266.73C134.46 266.73 135.342 267.72 135.342 267.72L134.784 268.656C134.784 268.656 134.01 267.828 132.516 267.828C131.598 267.828 130.716 268.224 130.716 269.232C130.716 271.23 135.594 270.69 135.594 273.678C135.594 275.154 134.316 276.216 132.498 276.216C130.302 276.216 129.15 274.902 129.15 274.902ZM138.571 272.706V268.08H137.383V267.054H138.589V264.444H139.795V267.054H142.063V268.08H139.795V272.58C139.795 274.704 141.145 274.974 141.829 274.974C142.081 274.974 142.243 274.938 142.243 274.938V276.036C142.243 276.036 142.045 276.072 141.721 276.072C140.677 276.072 138.571 275.73 138.571 272.706ZM143.88 273.534C143.88 270.474 147.858 270.402 149.424 270.402H149.928V270.168C149.928 268.422 148.974 267.828 147.678 267.828C146.184 267.828 145.122 268.692 145.122 268.692L144.546 267.756C144.546 267.756 145.734 266.73 147.768 266.73C149.946 266.73 151.152 267.936 151.152 270.204V276H149.982V275.01C149.982 274.56 150.018 274.254 150.018 274.254H149.982C149.982 274.254 149.226 276.216 146.958 276.216C145.446 276.216 143.88 275.334 143.88 273.534ZM145.14 273.462C145.14 274.308 145.806 275.172 147.156 275.172C148.884 275.172 149.928 273.372 149.928 271.806V271.41H149.406C147.984 271.41 145.14 271.464 145.14 273.462ZM154.294 264.876V263.346H155.572V264.876H154.294ZM154.33 276V266.946H155.554V276H154.33ZM158.873 276V266.946H160.079V268.296C160.079 268.692 160.043 269.016 160.043 269.016H160.079C160.403 268.188 161.555 266.73 163.697 266.73C165.929 266.73 166.721 268.008 166.721 270.24V276H165.497V270.564C165.497 269.142 165.281 267.882 163.535 267.882C161.987 267.882 160.655 268.944 160.241 270.438C160.133 270.816 160.097 271.23 160.097 271.662V276H158.873ZM169.165 273.534C169.165 270.474 173.143 270.402 174.709 270.402H175.213V270.168C175.213 268.422 174.259 267.828 172.963 267.828C171.469 267.828 170.407 268.692 170.407 268.692L169.831 267.756C169.831 267.756 171.019 266.73 173.053 266.73C175.231 266.73 176.437 267.936 176.437 270.204V276H175.267V275.01C175.267 274.56 175.303 274.254 175.303 274.254H175.267C175.267 274.254 174.511 276.216 172.243 276.216C170.731 276.216 169.165 275.334 169.165 273.534ZM170.425 273.462C170.425 274.308 171.091 275.172 172.441 275.172C174.169 275.172 175.213 273.372 175.213 271.806V271.41H174.691C173.269 271.41 170.425 271.464 170.425 273.462ZM179.615 276V263.346H180.839V267.738C180.839 268.152 180.803 268.476 180.803 268.476H180.839C180.839 268.476 181.595 266.73 183.917 266.73C186.347 266.73 187.859 268.674 187.859 271.482C187.859 274.344 186.149 276.216 183.773 276.216C181.613 276.216 180.803 274.452 180.803 274.452H180.767C180.767 274.452 180.803 274.758 180.803 275.19V276H179.615ZM180.803 271.5C180.803 273.318 181.739 275.136 183.683 275.136C185.285 275.136 186.599 273.786 186.599 271.482C186.599 269.268 185.429 267.846 183.737 267.846C182.225 267.846 180.803 268.926 180.803 271.5ZM190.539 264.876V263.346H191.817V264.876H190.539ZM190.575 276V266.946H191.799V276H190.575ZM195.028 273.858V263.346H196.252V273.588C196.252 274.776 196.792 274.956 197.26 274.956C197.422 274.956 197.566 274.938 197.566 274.938V276.036C197.566 276.036 197.35 276.072 197.116 276.072C196.36 276.072 195.028 275.838 195.028 273.858ZM199.889 264.876V263.346H201.167V264.876H199.889ZM199.925 276V266.946H201.149V276H199.925ZM204.811 272.706V268.08H203.623V267.054H204.829V264.444H206.035V267.054H208.303V268.08H206.035V272.58C206.035 274.704 207.385 274.974 208.069 274.974C208.321 274.974 208.483 274.938 208.483 274.938V276.036C208.483 276.036 208.285 276.072 207.961 276.072C206.917 276.072 204.811 275.73 204.811 272.706ZM209.508 279.24L209.976 278.268C209.976 278.268 210.48 278.682 211.056 278.682C211.848 278.682 212.406 278.034 212.766 277.206L213.324 275.928L209.544 266.946H210.894L213.558 273.552C213.738 274.002 213.882 274.506 213.882 274.506H213.918C213.918 274.506 214.044 274.002 214.224 273.552L216.834 266.946H218.166L213.702 277.89C213.234 279.042 212.298 279.78 211.092 279.78C210.156 279.78 209.508 279.24 209.508 279.24ZM224.999 272.508C224.999 271.05 225.827 269.628 227.303 269.178V269.142C227.303 269.142 225.539 268.584 225.539 266.334C225.539 264.39 227.033 263.13 229.337 263.13C229.949 263.13 230.777 263.31 230.777 263.31L230.417 264.354C230.417 264.354 229.823 264.228 229.373 264.228C227.951 264.228 226.835 265.038 226.835 266.406C226.835 267.252 227.195 268.692 229.553 268.692H232.217V266.91H233.459V268.692H235.169V269.808H233.459V271.662C233.459 274.686 231.803 276.216 229.265 276.216C226.727 276.216 224.999 274.614 224.999 272.508ZM226.277 272.436C226.277 273.876 227.393 275.046 229.265 275.046C231.047 275.046 232.217 274.056 232.217 271.626V269.808H229.553C227.357 269.808 226.277 270.852 226.277 272.436ZM42.836 300V287.346H49.964V288.462H44.078V293.07H48.884V294.186H44.078V298.884H50.288V300H42.836ZM53.1192 300V290.946H54.3252V292.296C54.3252 292.692 54.2892 293.016 54.2892 293.016H54.3252C54.6492 292.188 55.8012 290.73 57.9432 290.73C60.1752 290.73 60.9672 292.008 60.9672 294.24V300H59.7432V294.564C59.7432 293.142 59.5272 291.882 57.7812 291.882C56.2332 291.882 54.9012 292.944 54.4872 294.438C54.3792 294.816 54.3432 295.23 54.3432 295.662V300H53.1192ZM66.3811 300L62.9071 290.946H64.2031L66.7231 297.588C66.8851 298.038 67.0291 298.668 67.0291 298.668H67.0651C67.0651 298.668 67.2091 298.056 67.3891 297.588L69.8911 290.946H71.1691L67.7131 300H66.3811ZM73.2095 288.876V287.346H74.4875V288.876H73.2095ZM73.2455 300V290.946H74.4695V300H73.2455ZM77.789 300V290.946H78.995V292.548C78.995 292.944 78.959 293.268 78.959 293.268H78.995C79.427 291.9 80.435 290.856 81.857 290.856C82.109 290.856 82.343 290.91 82.343 290.91V292.116C82.343 292.116 82.127 292.08 81.893 292.08C80.615 292.08 79.661 293.088 79.265 294.42C79.085 294.996 79.013 295.608 79.013 296.184V300H77.789ZM83.7936 295.428C83.7936 292.746 85.9356 290.73 88.5816 290.73C91.2276 290.73 93.3696 292.746 93.3696 295.428C93.3696 298.164 91.2276 300.216 88.5816 300.216C85.9356 300.216 83.7936 298.164 83.7936 295.428ZM85.0536 295.428C85.0536 297.534 86.6376 299.118 88.5816 299.118C90.5256 299.118 92.1096 297.534 92.1096 295.428C92.1096 293.376 90.5256 291.846 88.5816 291.846C86.6376 291.846 85.0536 293.376 85.0536 295.428ZM96.0169 300V290.946H97.2229V292.296C97.2229 292.692 97.1869 293.016 97.1869 293.016H97.2229C97.5469 292.188 98.6989 290.73 100.841 290.73C103.073 290.73 103.865 292.008 103.865 294.24V300H102.641V294.564C102.641 293.142 102.425 291.882 100.679 291.882C99.1309 291.882 97.7989 292.944 97.3849 294.438C97.2769 294.816 97.2409 295.23 97.2409 295.662V300H96.0169ZM107.047 300V290.946H108.253V292.296C108.253 292.692 108.217 293.016 108.217 293.016H108.253C108.685 291.792 110.125 290.73 111.529 290.73C113.203 290.73 114.067 291.504 114.337 292.998H114.373C114.859 291.774 116.173 290.73 117.703 290.73C119.899 290.73 120.709 292.008 120.709 294.24V300H119.485V294.546C119.485 293.07 119.179 291.846 117.523 291.846C116.137 291.846 115.003 293.07 114.661 294.402C114.535 294.798 114.499 295.23 114.499 295.716V300H113.275V294.546C113.275 293.178 113.077 291.846 111.367 291.846C109.891 291.846 108.775 293.124 108.397 294.51C108.307 294.888 108.271 295.302 108.271 295.716V300H107.047ZM123.265 295.482C123.265 292.512 125.281 290.73 127.729 290.73C130.231 290.73 131.509 292.656 131.509 294.906C131.509 295.122 131.473 295.536 131.473 295.536H124.525C124.579 297.858 126.163 299.118 128.035 299.118C129.691 299.118 130.789 298.02 130.789 298.02L131.347 298.956C131.347 298.956 130.033 300.216 127.999 300.216C125.299 300.216 123.265 298.272 123.265 295.482ZM124.579 294.528H130.267C130.195 292.638 129.043 291.756 127.693 291.756C126.181 291.756 124.867 292.71 124.579 294.528ZM134.204 300V290.946H135.41V292.296C135.41 292.692 135.374 293.016 135.374 293.016H135.41C135.734 292.188 136.886 290.73 139.028 290.73C141.26 290.73 142.052 292.008 142.052 294.24V300H140.828V294.564C140.828 293.142 140.612 291.882 138.866 291.882C137.318 291.882 135.986 292.944 135.572 294.438C135.464 294.816 135.428 295.23 135.428 295.662V300H134.204ZM145.576 296.706V292.08H144.388V291.054H145.594V288.444H146.8V291.054H149.068V292.08H146.8V296.58C146.8 298.704 148.15 298.974 148.834 298.974C149.086 298.974 149.248 298.938 149.248 298.938V300.036C149.248 300.036 149.05 300.072 148.726 300.072C147.682 300.072 145.576 299.73 145.576 296.706Z" fill="white"/>
<defs>
<linearGradient id="paint0_linear_510_247" x1="29.6463" y1="207.095" x2="400.531" y2="209.235" gradientUnits="userSpaceOnUse">
<stop stop-color="#FEC010"/>
<stop offset="0.650465" stop-color="#F06516"/>
<stop offset="1" stop-color="#F03016"/>
</linearGradient>
</defs>
</svg>
