<svg width="330" height="380" viewBox="0 0 330 380" fill="none" xmlns="http://www.w3.org/2000/svg">
<rect x="1.5" y="1.5" width="327" height="376.697" stroke="url(#paint0_linear_510_231)"/>
<path d="M75.1832 63.153C75.1832 71.7383 68.169 78.7059 59.507 78.7059C50.8449 78.7059 43.8307 71.7383 43.8307 63.153C43.8307 54.5676 50.8449 47.6 59.507 47.6C68.169 47.6 75.1832 54.5676 75.1832 63.153Z" stroke="white" stroke-width="1.2"/>
<path d="M46.3247 60.8119C48.9179 59.0487 53.9603 57.8525 59.7558 57.8525C65.0474 57.8525 69.7111 58.8497 72.456 60.3652M46.1487 66.114C48.6849 67.9444 53.8262 69.1966 59.7558 69.1966C65.0474 69.1966 69.7111 68.1994 72.456 66.684" stroke="white" stroke-width="1.2" stroke-linecap="round" stroke-dasharray="2.4 2.4"/>
<path d="M50.2723 75.7022L42.0001 94.7605L48.0896 93.6284L51.2728 98.5788L59.3901 78.7411" stroke="white" stroke-width="1.2" stroke-linecap="round"/>
<path d="M69.7277 75.7022L77.9999 94.7605L71.9104 93.6284L68.7272 98.5788L60.6099 78.7411" stroke="white" stroke-width="1.2" stroke-linecap="round"/>
<path d="M43.016 185C42.908 184.172 42.8 183.452 42.8 182.732C42.8 173.516 54.752 172.04 54.752 166.964C54.752 164.732 53.024 163.4 50.864 163.4C47.876 163.4 46.256 166.424 46.256 166.424L42.8 164.12C42.8 164.12 45.14 159.008 51.26 159.008C55.76 159.008 59.576 161.744 59.576 166.568C59.576 174.776 48.128 176.18 48.02 181.004H59.972V185H43.016ZM74.1868 185.432C67.2028 185.432 64.9348 179.528 64.9348 172.184C64.9348 164.84 67.2028 159.008 74.1868 159.008C81.1708 159.008 83.4748 164.84 83.4748 172.184C83.4748 179.528 81.1708 185.432 74.1868 185.432ZM74.1868 181.184C77.6788 181.184 78.6868 177.224 78.6868 172.184C78.6868 167.216 77.6788 163.292 74.1868 163.292C70.6948 163.292 69.6868 167.216 69.6868 172.184C69.6868 177.224 70.6948 181.184 74.1868 181.184ZM88.5394 185C88.4314 184.172 88.3234 183.452 88.3234 182.732C88.3234 173.516 100.275 172.04 100.275 166.964C100.275 164.732 98.5474 163.4 96.3874 163.4C93.3994 163.4 91.7794 166.424 91.7794 166.424L88.3234 164.12C88.3234 164.12 90.6634 159.008 96.7834 159.008C101.283 159.008 105.099 161.744 105.099 166.568C105.099 174.776 93.6514 176.18 93.5434 181.004H105.495V185H88.5394ZM109.666 182.012L112.042 178.448C112.042 178.448 114.454 181.04 117.838 181.04C120.502 181.04 122.446 179.42 122.446 177.224C122.446 174.524 119.962 173.264 116.974 173.264H115.21L114.166 170.888L118.846 165.344C119.854 164.156 120.682 163.4 120.682 163.4V163.328C120.682 163.328 119.926 163.436 118.414 163.436H110.782V159.44H126.406V162.356L120.142 169.592C123.67 170.096 127.126 172.616 127.126 177.044C127.126 181.4 123.814 185.432 118.126 185.432C112.69 185.432 109.666 182.012 109.666 182.012Z" fill="#FEC010"/>
<path d="M41.882 223.464C41.882 220.602 43.574 218.73 45.95 218.73C48.146 218.73 48.902 220.44 48.902 220.44H48.938C48.938 220.44 48.902 220.134 48.902 219.756V215.346H50.126V228H48.938V227.046C48.938 226.65 48.974 226.398 48.974 226.398H48.938C48.938 226.398 48.2 228.216 45.824 228.216C43.394 228.216 41.882 226.272 41.882 223.464ZM43.142 223.464C43.142 225.696 44.312 227.118 46.004 227.118C47.516 227.118 48.938 226.038 48.938 223.464C48.938 221.628 48.002 219.828 46.058 219.828C44.456 219.828 43.142 221.178 43.142 223.464ZM52.7696 223.428C52.7696 220.746 54.9116 218.73 57.5576 218.73C60.2036 218.73 62.3456 220.746 62.3456 223.428C62.3456 226.164 60.2036 228.216 57.5576 228.216C54.9116 228.216 52.7696 226.164 52.7696 223.428ZM54.0296 223.428C54.0296 225.534 55.6136 227.118 57.5576 227.118C59.5016 227.118 61.0856 225.534 61.0856 223.428C61.0856 221.376 59.5016 219.846 57.5576 219.846C55.6136 219.846 54.0296 221.376 54.0296 223.428ZM65.3349 224.706V220.08H64.1469V219.054H65.3529V216.444H66.5589V219.054H68.8269V220.08H66.5589V224.58C66.5589 226.704 67.9089 226.974 68.5929 226.974C68.8449 226.974 69.0069 226.938 69.0069 226.938V228.036C69.0069 228.036 68.8089 228.072 68.4849 228.072C67.4409 228.072 65.3349 227.73 65.3349 224.706ZM70.8962 221.592C70.8962 217.92 73.6322 215.13 77.2502 215.13C80.2742 215.13 81.8042 216.768 81.8042 216.768L81.1382 217.686C81.1382 217.686 79.6622 216.282 77.2862 216.282C74.3162 216.282 72.1922 218.586 72.1922 221.574C72.1922 224.598 74.3162 227.064 77.3222 227.064C79.8782 227.064 81.4262 225.372 81.4262 225.372L82.1462 226.254C82.1462 226.254 80.4182 228.216 77.3042 228.216C73.5602 228.216 70.8962 225.282 70.8962 221.592ZM84.2284 221.592C84.2284 217.956 87.0904 215.13 90.6724 215.13C94.2544 215.13 97.1164 217.956 97.1164 221.592C97.1164 225.3 94.2544 228.216 90.6724 228.216C87.0904 228.216 84.2284 225.3 84.2284 221.592ZM85.5244 221.592C85.5244 224.688 87.8104 227.064 90.6724 227.064C93.5164 227.064 95.8204 224.688 95.8204 221.592C95.8204 218.568 93.5164 216.282 90.6724 216.282C87.8104 216.282 85.5244 218.568 85.5244 221.592ZM99.8923 228L100.9 215.346H102.196L105.508 222.78C105.796 223.428 106.12 224.328 106.12 224.328H106.156C106.156 224.328 106.498 223.428 106.786 222.78L110.098 215.346H111.376L112.384 228H111.142L110.44 219.144C110.386 218.46 110.404 217.38 110.404 217.38H110.368C110.368 217.38 109.99 218.496 109.702 219.144L106.732 225.642H105.562L102.592 219.144C102.304 218.514 101.908 217.344 101.908 217.344H101.872C101.872 217.344 101.89 218.46 101.836 219.144L101.134 228H99.8923ZM115.616 228L116.624 215.346H117.92L121.232 222.78C121.52 223.428 121.844 224.328 121.844 224.328H121.88C121.88 224.328 122.222 223.428 122.51 222.78L125.822 215.346H127.1L128.108 228H126.866L126.164 219.144C126.11 218.46 126.128 217.38 126.128 217.38H126.092C126.092 217.38 125.714 218.496 125.426 219.144L122.456 225.642H121.286L118.316 219.144C118.028 218.514 117.632 217.344 117.632 217.344H117.596C117.596 217.344 117.614 218.46 117.56 219.144L116.858 228H115.616ZM136.929 228V215.346H141.303C143.571 215.346 145.209 216.822 145.209 219.162C145.209 221.52 143.571 223.032 141.303 223.032H138.171V228H136.929ZM138.171 221.916H141.141C142.833 221.916 143.931 220.89 143.931 219.162C143.931 217.452 142.833 216.462 141.159 216.462H138.171V221.916ZM147.597 225.858V215.346H148.821V225.588C148.821 226.776 149.361 226.956 149.829 226.956C149.991 226.956 150.135 226.938 150.135 226.938V228.036C150.135 228.036 149.919 228.072 149.685 228.072C148.929 228.072 147.597 227.838 147.597 225.858ZM151.756 225.534C151.756 222.474 155.734 222.402 157.3 222.402H157.804V222.168C157.804 220.422 156.85 219.828 155.554 219.828C154.06 219.828 152.998 220.692 152.998 220.692L152.422 219.756C152.422 219.756 153.61 218.73 155.644 218.73C157.822 218.73 159.028 219.936 159.028 222.204V228H157.858V227.01C157.858 226.56 157.894 226.254 157.894 226.254H157.858C157.858 226.254 157.102 228.216 154.834 228.216C153.322 228.216 151.756 227.334 151.756 225.534ZM153.016 225.462C153.016 226.308 153.682 227.172 155.032 227.172C156.76 227.172 157.804 225.372 157.804 223.806V223.41H157.282C155.86 223.41 153.016 223.464 153.016 225.462ZM162.495 224.706V220.08H161.307V219.054H162.513V216.444H163.719V219.054H165.987V220.08H163.719V224.58C163.719 226.704 165.069 226.974 165.753 226.974C166.005 226.974 166.167 226.938 166.167 226.938V228.036C166.167 228.036 165.969 228.072 165.645 228.072C164.601 228.072 162.495 227.73 162.495 224.706ZM168.506 216.876V215.346H169.784V216.876H168.506ZM168.542 228V218.946H169.766V228H168.542ZM173.086 228V218.946H174.292V220.296C174.292 220.692 174.256 221.016 174.256 221.016H174.292C174.616 220.188 175.768 218.73 177.91 218.73C180.142 218.73 180.934 220.008 180.934 222.24V228H179.71V222.564C179.71 221.142 179.494 219.882 177.748 219.882C176.2 219.882 174.868 220.944 174.454 222.438C174.346 222.816 174.31 223.23 174.31 223.662V228H173.086ZM183.99 224.706V218.946H185.214V224.382C185.214 225.804 185.43 227.064 187.176 227.064C189.246 227.064 190.524 225.246 190.524 223.284V218.946H191.748V228H190.56V226.65C190.56 226.254 190.596 225.93 190.596 225.93H190.56C190.2 226.812 189.012 228.216 187.014 228.216C184.89 228.216 183.99 227.064 183.99 224.706ZM195.058 228V218.946H196.264V220.296C196.264 220.692 196.228 221.016 196.228 221.016H196.264C196.696 219.792 198.136 218.73 199.54 218.73C201.214 218.73 202.078 219.504 202.348 220.998H202.384C202.87 219.774 204.184 218.73 205.714 218.73C207.91 218.73 208.72 220.008 208.72 222.24V228H207.496V222.546C207.496 221.07 207.19 219.846 205.534 219.846C204.148 219.846 203.014 221.07 202.672 222.402C202.546 222.798 202.51 223.23 202.51 223.716V228H201.286V222.546C201.286 221.178 201.088 219.846 199.378 219.846C197.902 219.846 196.786 221.124 196.408 222.51C196.318 222.888 196.282 223.302 196.282 223.716V228H195.058ZM50.54 252L49.082 247.968H43.988L42.548 252H41.234L45.878 239.346H47.21L51.854 252H50.54ZM46.562 240.66H46.526C46.526 240.66 46.256 241.704 46.04 242.298L44.348 246.888H48.704L47.048 242.298C46.832 241.704 46.562 240.66 46.562 240.66ZM55.7299 252L52.6699 242.946H53.9659L56.1619 249.696C56.3059 250.128 56.4319 250.668 56.4319 250.668H56.4679C56.4679 250.668 56.5939 250.128 56.7379 249.696L58.9699 242.982H60.1759L62.4079 249.696C62.5519 250.128 62.6779 250.668 62.6779 250.668H62.7139C62.7139 250.668 62.8399 250.146 62.9839 249.696L65.1799 242.946H66.4759L63.4159 252H62.0839L59.8699 245.556C59.7079 245.106 59.5819 244.584 59.5819 244.584H59.5459C59.5459 244.584 59.4199 245.106 59.2759 245.556L57.0619 252H55.7299ZM67.876 249.534C67.876 246.474 71.854 246.402 73.42 246.402H73.924V246.168C73.924 244.422 72.97 243.828 71.674 243.828C70.18 243.828 69.118 244.692 69.118 244.692L68.542 243.756C68.542 243.756 69.73 242.73 71.764 242.73C73.942 242.73 75.148 243.936 75.148 246.204V252H73.978V251.01C73.978 250.56 74.014 250.254 74.014 250.254H73.978C73.978 250.254 73.222 252.216 70.954 252.216C69.442 252.216 67.876 251.334 67.876 249.534ZM69.136 249.462C69.136 250.308 69.802 251.172 71.152 251.172C72.88 251.172 73.924 249.372 73.924 247.806V247.41H73.402C71.98 247.41 69.136 247.464 69.136 249.462ZM78.3255 252V242.946H79.5315V244.548C79.5315 244.944 79.4955 245.268 79.4955 245.268H79.5315C79.9635 243.9 80.9715 242.856 82.3935 242.856C82.6455 242.856 82.8795 242.91 82.8795 242.91V244.116C82.8795 244.116 82.6635 244.08 82.4295 244.08C81.1515 244.08 80.1975 245.088 79.8015 246.42C79.6215 246.996 79.5495 247.608 79.5495 248.184V252H78.3255ZM84.4372 247.464C84.4372 244.602 86.1292 242.73 88.5052 242.73C90.7012 242.73 91.4572 244.44 91.4572 244.44H91.4932C91.4932 244.44 91.4572 244.134 91.4572 243.756V239.346H92.6812V252H91.4932V251.046C91.4932 250.65 91.5292 250.398 91.5292 250.398H91.4932C91.4932 250.398 90.7552 252.216 88.3792 252.216C85.9492 252.216 84.4372 250.272 84.4372 247.464ZM85.6972 247.464C85.6972 249.696 86.8672 251.118 88.5592 251.118C90.0712 251.118 91.4932 250.038 91.4932 247.464C91.4932 245.628 90.5572 243.828 88.6132 243.828C87.0112 243.828 85.6972 245.178 85.6972 247.464ZM101.599 252V244.08H100.465V243.054H101.599V242.622C101.599 239.634 103.705 239.256 104.731 239.256C105.073 239.256 105.289 239.292 105.289 239.292V240.39C105.289 240.39 105.109 240.354 104.857 240.354C104.155 240.354 102.823 240.606 102.823 242.622V243.054H105.145V244.08H102.823V252H101.599ZM106.574 247.428C106.574 244.746 108.716 242.73 111.362 242.73C114.008 242.73 116.15 244.746 116.15 247.428C116.15 250.164 114.008 252.216 111.362 252.216C108.716 252.216 106.574 250.164 106.574 247.428ZM107.834 247.428C107.834 249.534 109.418 251.118 111.362 251.118C113.306 251.118 114.89 249.534 114.89 247.428C114.89 245.376 113.306 243.846 111.362 243.846C109.418 243.846 107.834 245.376 107.834 247.428ZM118.797 252V242.946H120.003V244.548C120.003 244.944 119.967 245.268 119.967 245.268H120.003C120.435 243.9 121.443 242.856 122.865 242.856C123.117 242.856 123.351 242.91 123.351 242.91V244.116C123.351 244.116 123.135 244.08 122.901 244.08C121.623 244.08 120.669 245.088 120.273 246.42C120.093 246.996 120.021 247.608 120.021 248.184V252H118.797ZM131.127 252V239.346H135.447C137.445 239.346 138.867 240.552 138.867 242.532C138.867 243.846 138.237 244.8 137.265 245.286V245.322C138.561 245.682 139.389 246.924 139.389 248.454C139.389 250.704 137.715 252 135.591 252H131.127ZM132.369 244.836H135.447C136.725 244.836 137.589 243.936 137.589 242.622C137.589 241.326 136.779 240.462 135.429 240.462H132.369V244.836ZM132.369 250.884H135.609C137.139 250.884 138.093 249.93 138.093 248.418C138.093 246.906 137.067 245.916 135.591 245.916H132.369V250.884ZM142.395 252V242.946H143.601V244.548C143.601 244.944 143.565 245.268 143.565 245.268H143.601C144.033 243.9 145.041 242.856 146.463 242.856C146.715 242.856 146.949 242.91 146.949 242.91V244.116C146.949 244.116 146.733 244.08 146.499 244.08C145.221 244.08 144.267 245.088 143.871 246.42C143.691 246.996 143.619 247.608 143.619 248.184V252H142.395ZM148.433 249.534C148.433 246.474 152.411 246.402 153.977 246.402H154.481V246.168C154.481 244.422 153.527 243.828 152.231 243.828C150.737 243.828 149.675 244.692 149.675 244.692L149.099 243.756C149.099 243.756 150.287 242.73 152.321 242.73C154.499 242.73 155.705 243.936 155.705 246.204V252H154.535V251.01C154.535 250.56 154.571 250.254 154.571 250.254H154.535C154.535 250.254 153.779 252.216 151.511 252.216C149.999 252.216 148.433 251.334 148.433 249.534ZM149.693 249.462C149.693 250.308 150.359 251.172 151.709 251.172C153.437 251.172 154.481 249.372 154.481 247.806V247.41H153.959C152.537 247.41 149.693 247.464 149.693 249.462ZM158.883 252V242.946H160.089V244.296C160.089 244.692 160.053 245.016 160.053 245.016H160.089C160.413 244.188 161.565 242.73 163.707 242.73C165.939 242.73 166.731 244.008 166.731 246.24V252H165.507V246.564C165.507 245.142 165.291 243.882 163.545 243.882C161.997 243.882 160.665 244.944 160.251 246.438C160.143 246.816 160.107 247.23 160.107 247.662V252H158.883ZM169.318 247.464C169.318 244.602 171.01 242.73 173.386 242.73C175.582 242.73 176.338 244.44 176.338 244.44H176.374C176.374 244.44 176.338 244.134 176.338 243.756V239.346H177.562V252H176.374V251.046C176.374 250.65 176.41 250.398 176.41 250.398H176.374C176.374 250.398 175.636 252.216 173.26 252.216C170.83 252.216 169.318 250.272 169.318 247.464ZM170.578 247.464C170.578 249.696 171.748 251.118 173.44 251.118C174.952 251.118 176.374 250.038 176.374 247.464C176.374 245.628 175.438 243.828 173.494 243.828C171.892 243.828 170.578 245.178 170.578 247.464ZM50.54 276L49.082 271.968H43.988L42.548 276H41.234L45.878 263.346H47.21L51.854 276H50.54ZM46.562 264.66H46.526C46.526 264.66 46.256 265.704 46.04 266.298L44.348 270.888H48.704L47.048 266.298C46.832 265.704 46.562 264.66 46.562 264.66ZM55.7299 276L52.6699 266.946H53.9659L56.1619 273.696C56.3059 274.128 56.4319 274.668 56.4319 274.668H56.4679C56.4679 274.668 56.5939 274.128 56.7379 273.696L58.9699 266.982H60.1759L62.4079 273.696C62.5519 274.128 62.6779 274.668 62.6779 274.668H62.7139C62.7139 274.668 62.8399 274.146 62.9839 273.696L65.1799 266.946H66.4759L63.4159 276H62.0839L59.8699 269.556C59.7079 269.106 59.5819 268.584 59.5819 268.584H59.5459C59.5459 268.584 59.4199 269.106 59.2759 269.556L57.0619 276H55.7299ZM67.876 273.534C67.876 270.474 71.854 270.402 73.42 270.402H73.924V270.168C73.924 268.422 72.97 267.828 71.674 267.828C70.18 267.828 69.118 268.692 69.118 268.692L68.542 267.756C68.542 267.756 69.73 266.73 71.764 266.73C73.942 266.73 75.148 267.936 75.148 270.204V276H73.978V275.01C73.978 274.56 74.014 274.254 74.014 274.254H73.978C73.978 274.254 73.222 276.216 70.954 276.216C69.442 276.216 67.876 275.334 67.876 273.534ZM69.136 273.462C69.136 274.308 69.802 275.172 71.152 275.172C72.88 275.172 73.924 273.372 73.924 271.806V271.41H73.402C71.98 271.41 69.136 271.464 69.136 273.462ZM78.3255 276V266.946H79.5315V268.548C79.5315 268.944 79.4955 269.268 79.4955 269.268H79.5315C79.9635 267.9 80.9715 266.856 82.3935 266.856C82.6455 266.856 82.8795 266.91 82.8795 266.91V268.116C82.8795 268.116 82.6635 268.08 82.4295 268.08C81.1515 268.08 80.1975 269.088 79.8015 270.42C79.6215 270.996 79.5495 271.608 79.5495 272.184V276H78.3255ZM84.3661 271.482C84.3661 268.512 86.3821 266.73 88.8301 266.73C91.3321 266.73 92.6101 268.656 92.6101 270.906C92.6101 271.122 92.5741 271.536 92.5741 271.536H85.6261C85.6801 273.858 87.2641 275.118 89.1361 275.118C90.7921 275.118 91.8901 274.02 91.8901 274.02L92.4481 274.956C92.4481 274.956 91.1341 276.216 89.1001 276.216C86.4001 276.216 84.3661 274.272 84.3661 271.482ZM85.6801 270.528H91.3681C91.2961 268.638 90.1441 267.756 88.7941 267.756C87.2821 267.756 85.9681 268.71 85.6801 270.528ZM95.3053 276V266.946H96.5113V268.296C96.5113 268.692 96.4753 269.016 96.4753 269.016H96.5113C96.8353 268.188 97.9873 266.73 100.129 266.73C102.361 266.73 103.153 268.008 103.153 270.24V276H101.929V270.564C101.929 269.142 101.713 267.882 99.9673 267.882C98.4193 267.882 97.0873 268.944 96.6733 270.438C96.5653 270.816 96.5293 271.23 96.5293 271.662V276H95.3053ZM105.705 271.482C105.705 268.512 107.721 266.73 110.169 266.73C112.671 266.73 113.949 268.656 113.949 270.906C113.949 271.122 113.913 271.536 113.913 271.536H106.965C107.019 273.858 108.603 275.118 110.475 275.118C112.131 275.118 113.229 274.02 113.229 274.02L113.787 274.956C113.787 274.956 112.473 276.216 110.439 276.216C107.739 276.216 105.705 274.272 105.705 271.482ZM107.019 270.528H112.707C112.635 268.638 111.483 267.756 110.133 267.756C108.621 267.756 107.307 268.71 107.019 270.528ZM115.906 274.902L116.572 274.02C116.572 274.02 117.58 275.118 119.272 275.118C120.244 275.118 121.09 274.632 121.09 273.678C121.09 271.698 116.212 272.184 116.212 269.232C116.212 267.612 117.67 266.73 119.308 266.73C121.216 266.73 122.098 267.72 122.098 267.72L121.54 268.656C121.54 268.656 120.766 267.828 119.272 267.828C118.354 267.828 117.472 268.224 117.472 269.232C117.472 271.23 122.35 270.69 122.35 273.678C122.35 275.154 121.072 276.216 119.254 276.216C117.058 276.216 115.906 274.902 115.906 274.902ZM124.247 274.902L124.913 274.02C124.913 274.02 125.921 275.118 127.613 275.118C128.585 275.118 129.431 274.632 129.431 273.678C129.431 271.698 124.553 272.184 124.553 269.232C124.553 267.612 126.011 266.73 127.649 266.73C129.557 266.73 130.439 267.72 130.439 267.72L129.881 268.656C129.881 268.656 129.107 267.828 127.613 267.828C126.695 267.828 125.813 268.224 125.813 269.232C125.813 271.23 130.691 270.69 130.691 273.678C130.691 275.154 129.413 276.216 127.595 276.216C125.399 276.216 124.247 274.902 124.247 274.902ZM138.033 269.592C138.033 265.92 140.769 263.13 144.387 263.13C147.411 263.13 148.941 264.768 148.941 264.768L148.275 265.686C148.275 265.686 146.799 264.282 144.423 264.282C141.453 264.282 139.329 266.586 139.329 269.574C139.329 272.598 141.453 275.064 144.459 275.064C147.015 275.064 148.563 273.372 148.563 273.372L149.283 274.254C149.283 274.254 147.555 276.216 144.441 276.216C140.697 276.216 138.033 273.282 138.033 269.592ZM151.237 273.534C151.237 270.474 155.215 270.402 156.781 270.402H157.285V270.168C157.285 268.422 156.331 267.828 155.035 267.828C153.541 267.828 152.479 268.692 152.479 268.692L151.903 267.756C151.903 267.756 153.091 266.73 155.125 266.73C157.303 266.73 158.509 267.936 158.509 270.204V276H157.339V275.01C157.339 274.56 157.375 274.254 157.375 274.254H157.339C157.339 274.254 156.583 276.216 154.315 276.216C152.803 276.216 151.237 275.334 151.237 273.534ZM152.497 273.462C152.497 274.308 153.163 275.172 154.513 275.172C156.241 275.172 157.285 273.372 157.285 271.806V271.41H156.763C155.341 271.41 152.497 271.464 152.497 273.462ZM161.687 276V266.946H162.893V268.296C162.893 268.692 162.857 269.016 162.857 269.016H162.893C163.325 267.792 164.765 266.73 166.169 266.73C167.843 266.73 168.707 267.504 168.977 268.998H169.013C169.499 267.774 170.813 266.73 172.343 266.73C174.539 266.73 175.349 268.008 175.349 270.24V276H174.125V270.546C174.125 269.07 173.819 267.846 172.163 267.846C170.777 267.846 169.643 269.07 169.301 270.402C169.175 270.798 169.139 271.23 169.139 271.716V276H167.915V270.546C167.915 269.178 167.717 267.846 166.007 267.846C164.531 267.846 163.415 269.124 163.037 270.51C162.947 270.888 162.911 271.302 162.911 271.716V276H161.687ZM178.535 279.6V266.946H179.705V267.828C179.705 268.224 179.669 268.53 179.669 268.53H179.705C179.705 268.53 180.443 266.73 182.837 266.73C185.267 266.73 186.779 268.674 186.779 271.482C186.779 274.344 185.069 276.216 182.729 276.216C180.551 276.216 179.759 274.488 179.759 274.488H179.723C179.723 274.488 179.759 274.812 179.759 275.28V279.6H178.535ZM179.723 271.5C179.723 273.318 180.731 275.136 182.603 275.136C184.205 275.136 185.519 273.786 185.519 271.482C185.519 269.268 184.349 267.846 182.657 267.846C181.145 267.846 179.723 268.926 179.723 271.5ZM188.757 273.534C188.757 270.474 192.735 270.402 194.301 270.402H194.805V270.168C194.805 268.422 193.851 267.828 192.555 267.828C191.061 267.828 189.999 268.692 189.999 268.692L189.423 267.756C189.423 267.756 190.611 266.73 192.645 266.73C194.823 266.73 196.029 267.936 196.029 270.204V276H194.859V275.01C194.859 274.56 194.895 274.254 194.895 274.254H194.859C194.859 274.254 194.103 276.216 191.835 276.216C190.323 276.216 188.757 275.334 188.757 273.534ZM190.017 273.462C190.017 274.308 190.683 275.172 192.033 275.172C193.761 275.172 194.805 273.372 194.805 271.806V271.41H194.283C192.861 271.41 190.017 271.464 190.017 273.462ZM199.17 264.876V263.346H200.448V264.876H199.17ZM199.206 276V266.946H200.43V276H199.206ZM204.434 278.052C204.434 278.052 205.55 278.682 206.882 278.682C208.646 278.682 210.05 277.854 210.05 275.838V275.01C210.05 274.668 210.086 274.362 210.086 274.362H210.05C209.51 275.37 208.592 275.946 207.188 275.946C204.758 275.946 203.156 274.02 203.156 271.302C203.156 268.584 204.65 266.73 207.08 266.73C209.474 266.73 210.068 268.242 210.068 268.242H210.104C210.104 268.242 210.086 268.134 210.086 267.936V266.946H211.274V275.784C211.274 278.664 209.15 279.78 206.936 279.78C205.892 279.78 204.848 279.51 203.966 279.06L204.434 278.052ZM207.386 274.848C208.808 274.848 210.068 273.966 210.068 271.302C210.068 268.656 208.808 267.846 207.206 267.846C205.442 267.846 204.416 269.124 204.416 271.284C204.416 273.444 205.586 274.848 207.386 274.848ZM214.586 276V266.946H215.792V268.296C215.792 268.692 215.756 269.016 215.756 269.016H215.792C216.116 268.188 217.268 266.73 219.41 266.73C221.642 266.73 222.434 268.008 222.434 270.24V276H221.21V270.564C221.21 269.142 220.994 267.882 219.248 267.882C217.7 267.882 216.368 268.944 215.954 270.438C215.846 270.816 215.81 271.23 215.81 271.662V276H214.586Z" fill="white"/>
<defs>
<linearGradient id="paint0_linear_510_231" x1="29.6463" y1="207.095" x2="400.531" y2="209.235" gradientUnits="userSpaceOnUse">
<stop stop-color="#FEC010"/>
<stop offset="0.650465" stop-color="#F06516"/>
<stop offset="1" stop-color="#F03016"/>
</linearGradient>
</defs>
</svg>
