<?xml version="1.0" encoding="UTF-8"?><svg id="Layer_1" xmlns="http://www.w3.org/2000/svg" xmlns:xlink="http://www.w3.org/1999/xlink" viewBox="0 0 245 204"><defs><style>.cls-1{mask:url(#mask);}.cls-2{fill:#fff;fill-rule:evenodd;stroke-width:0px;}.cls-3{mask:url(#mask-1);}</style><mask id="mask" x="82.85" y="51.64" width="84.47" height="28.33" maskUnits="userSpaceOnUse"><g id="mask-2"><polygon id="path-1" class="cls-2" points="82.85 51.64 167.32 51.64 167.32 79.97 82.85 79.97 82.85 51.64"/></g></mask><mask id="mask-1" x="82.85" y="124.03" width="84.47" height="28.33" maskUnits="userSpaceOnUse"><g id="mask-4"><polygon id="path-3" class="cls-2" points="82.85 124.03 167.32 124.03 167.32 152.36 82.85 152.36 82.85 124.03"/></g></mask></defs><path id="Fill-1" class="cls-2" d="m77.68,102c0,4.36.61,8.56,1.65,12.59h61.3c6.95,0,12.59-5.64,12.59-12.59s-5.64-12.59-12.59-12.59h-61.3c-1.04,4.03-1.65,8.23-1.65,12.59"/><g class="cls-1"><path id="Fill-3" class="cls-2" d="m162.42,75.75c1.76-1.62,3.4-3.36,4.9-5.23-9.23-11.5-23.39-18.89-39.28-18.89-19.9,0-37.02,11.57-45.19,28.33h68.83c3.98,0,7.82-1.51,10.74-4.21"/></g><g class="cls-3"><path id="Fill-6" class="cls-2" d="m151.68,124.03h-68.83c8.17,16.75,25.29,28.33,45.19,28.33,15.9,0,30.05-7.38,39.28-18.89-1.5-1.87-3.14-3.61-4.9-5.23-2.93-2.7-6.76-4.21-10.74-4.21"/></g></svg>