<?xml version="1.0" encoding="UTF-8"?><svg id="Layer_1" xmlns="http://www.w3.org/2000/svg" viewBox="0 0 245 204"><defs><style>.cls-1{stroke-width:0px;}</style></defs><path class="cls-1" d="m161.23,147.2h-.59v-.33h1.6v.33h-.59v1.65h-.41v-1.65Zm3.18.09h0l-.59,1.56h-.27l-.58-1.56h0v1.56h-.39v-1.98h.57l.54,1.4.54-1.4h.57v1.98h-.38v-1.56Z"/><path class="cls-1" d="m108.17,106.77s-4.12,2.39,2.93,3.19c8.55.97,12.92.83,22.34-.94,0,0,2.48,1.55,5.94,2.89-21.12,9.01-47.8-.52-31.21-5.14Zm-2.58-11.76s-4.62,3.41,2.44,4.14c9.13.94,16.35,1.01,28.83-1.38,0,0,1.73,1.74,4.44,2.7-25.54,7.44-53.98.59-35.71-5.45Z"/><path class="cls-1" d="m127.35,75.06c5.2,5.97-1.37,11.33-1.37,11.33,0,0,13.21-6.79,7.15-15.3-5.67-7.93-10.01-11.87,13.52-25.46,0,0-36.94,9.18-19.29,29.42Z"/><path class="cls-1" d="m155.29,115.47s3.05,2.5-3.36,4.44c-12.19,3.68-50.74,4.79-61.45.15-3.85-1.67,3.37-3.98,5.64-4.47,2.37-.51,3.72-.42,3.72-.42-4.28-3-27.67,5.9-11.88,8.45,43.06,6.95,78.5-3.13,67.33-8.15Zm-45.13-32.65s-19.61,4.64-6.94,6.32c5.35.71,16.01.55,25.94-.28,8.12-.68,16.26-2.13,16.26-2.13,0,0-2.86,1.22-4.93,2.63-19.91,5.21-58.38,2.79-47.31-2.55,9.37-4.51,16.98-4,16.98-4Zm35.18,19.58c20.24-10.47,10.88-20.54,4.35-19.18-1.6.33-2.31.62-2.31.62,0,0,.59-.93,1.73-1.33,12.92-4.52,22.86,13.34-4.17,20.42,0,0,.31-.28.41-.53Z"/><path class="cls-1" d="m133.13,23.69s11.21,11.17-10.63,28.34c-17.52,13.77-3.99,21.63,0,30.6-10.22-9.19-17.73-17.27-12.69-24.8,7.39-11.05,27.86-16.4,23.33-34.14Z"/><path class="cls-1" d="m112.14,130.78c19.43,1.24,49.27-.69,49.97-9.84,0,0-1.36,3.47-16.06,6.23-16.58,3.11-37.04,2.74-49.17.75,0,0,2.48,2.05,15.25,2.86Z"/><path class="cls-1" d="m108.96,165.76c-1.83,1.58-3.77,2.47-5.51,2.47-2.48,0-3.82-1.48-3.82-3.85,0-2.57,1.44-4.45,7.19-4.45h2.13v5.83Zm5.06,5.68v-17.59c0-4.49-2.57-7.46-8.78-7.46-3.62,0-6.8.89-9.37,2.03l.74,3.11c2.03-.74,4.66-1.43,7.24-1.43,3.57,0,5.11,1.43,5.11,4.4v2.22h-1.78c-8.68,0-12.6,3.36-12.6,8.4,0,4.35,2.58,6.82,7.44,6.82,3.12,0,5.46-1.28,7.64-3.16l.4,2.67h3.97Zm16.88,0h-6.31l-7.59-24.6h5.51l4.71,15.11,1.05,4.55c2.38-6.57,4.07-13.24,4.91-19.66h5.36c-1.44,8.1-4.02,16.99-7.64,24.6Zm24.2-5.68c-1.84,1.58-3.78,2.47-5.51,2.47-2.48,0-3.82-1.48-3.82-3.85,0-2.57,1.44-4.45,7.2-4.45h2.13v5.83Zm5.06,5.68v-17.59c0-4.49-2.58-7.46-8.78-7.46-3.63,0-6.8.89-9.38,2.03l.74,3.11c2.03-.74,4.67-1.43,7.24-1.43,3.57,0,5.11,1.43,5.11,4.4v2.22h-1.79c-8.69,0-12.6,3.36-12.6,8.4,0,4.35,2.58,6.82,7.44,6.82,3.13,0,5.46-1.28,7.64-3.16l.4,2.67h3.97Zm-71.13,4.18c-1.44,2.1-3.77,3.75-6.32,4.69l-2.5-2.93c1.94-.99,3.6-2.59,4.38-4.08.67-1.33.95-3.04.95-7.12v-28.08h5.37v27.7c0,5.46-.44,7.67-1.88,9.83Z"/></svg>