<?xml version="1.0" encoding="UTF-8"?><svg id="Layer_1" xmlns="http://www.w3.org/2000/svg" viewBox="0 0 245 204"><defs><style>.cls-1,.cls-2{stroke-width:0px;}.cls-2{fill:#2453ff;}</style></defs><g id="logo"><path class="cls-2" d="m86.86,87.61l-.65-3.94c-.21-1.27-.71-2.3-1.09-2.3s-.71,1.05-.71,2.33v1.03c0,1.28-1.05,2.33-2.33,2.33h-1.03c-.07,0-.15,0-.22,0v2.83c.07,0,.15,0,.22,0h3.88c1.28,0,2.15-1.04,1.94-2.31"/><path class="cls-2" d="m77.56,84.27h-6.29c-.06,0-.1,0-.16,0h-6.45c-.07,0-.15,0-.22.02v-.6c0-1.28-.32-2.33-.71-2.33s-.88,1.04-1.09,2.3l-.65,3.94c-.21,1.27.66,2.3,1.95,2.3h3.88c.4,0,.77-.06,1.1-.17-.12.66-.7,1.16-1.4,1.16h-5.43c-.88,0-1.54-.79-1.41-1.65l.55-3.3c.15-.86-.52-1.65-1.41-1.65h-27.05c-.58,0-1.08.34-1.3.84l-5.09,7.75c-.08.13-.07.3.03.42l.99,1.17c.12.15.34.17.49.05l3.47-2.73v16.58c0,.79.63,1.42,1.42,1.42h7.67c.79,0,1.42-.63,1.42-1.42v-5.76c0-.78.63-1.42,1.42-1.42h19.16c.79,0,1.42.63,1.42,1.42v5.76c0,.79.63,1.42,1.42,1.42h7.67c.78,0,1.42-.63,1.42-1.42v-6.2h-4.08c-1.28,0-2.33-1.05-2.33-2.33v-3.99c0-.76.37-1.43.94-1.86v4.76c0,1.28,1.05,2.33,2.33,2.33h6.29c1.28,0,2.33-1.05,2.33-2.33v-12.12c0-1.28-1.06-2.33-2.34-2.33"/><g id="Layer_1-2"><path class="cls-1" d="m210.57,122.52c-.88,0-1.6-.72-1.6-1.6v-4.75c0-.88.72-1.6,1.6-1.6h3.65c.28,0,.51.23.51.51s-.23.51-.51.51h-3.65c-.31,0-.57.26-.57.57v1.87h3.58c.27,0,.49.22.49.49s-.22.49-.49.49h-3.58v1.9c0,.31.26.57.57.57h3.65c.28,0,.51.23.51.51s-.23.51-.51.51h-3.65Zm-16.34.1c-1.05,0-1.86-.27-2.41-.79-.54-.52-.82-1.31-.82-2.35v-4.42c0-.33.27-.6.6-.6s.6.27.6.6v4.26c0,.77.17,1.35.5,1.72s.85.56,1.53.56,1.2-.19,1.53-.56.5-.95.5-1.72v-4.26c0-.33.27-.6.6-.6s.6.27.6.6v4.42c0,1.03-.28,1.82-.82,2.35-.55.52-1.36.79-2.41.79m9.02,0c-1.35,0-2.38-.39-3.06-1.14-.19-.22-.18-.56.03-.77h0c.11-.11.25-.17.4-.17.17,0,.31.06.41.19.19.22.4.4.64.53.41.23.94.35,1.55.35s1.05-.1,1.39-.3c.35-.21.52-.51.52-.89,0-.31-.16-.57-.47-.75-.3-.18-.82-.34-1.57-.48-.74-.14-1.32-.3-1.76-.51-.42-.19-.74-.44-.93-.74-.19-.28-.28-.64-.28-1.07s.12-.85.37-1.21c.25-.36.61-.65,1.07-.86.47-.21,1.02-.32,1.64-.32.73,0,1.35.13,1.87.4.34.17.65.42.93.72.21.23.18.59-.05.8-.1.09-.24.15-.38.15-.17,0-.34-.08-.45-.22-.16-.2-.33-.36-.51-.49-.35-.22-.82-.34-1.4-.34s-1.02.12-1.33.35c-.32.23-.49.53-.49.9,0,.34.16.62.48.82.3.19.84.36,1.63.51.72.13,1.29.29,1.71.49.41.19.72.43.91.73.18.28.28.64.28,1.07,0,.46-.13.86-.39,1.2-.26.35-.63.62-1.1.8-.49.17-1.04.27-1.66.27m-17.97,0c-1.35,0-2.38-.39-3.06-1.14-.19-.22-.18-.56.03-.77h0c.11-.11.25-.17.4-.17.17,0,.31.06.41.19.19.22.4.4.64.53.41.23.94.35,1.55.35s1.05-.1,1.39-.3c.35-.21.52-.51.52-.89,0-.31-.16-.57-.47-.75-.3-.18-.82-.34-1.57-.48-.73-.14-1.32-.3-1.76-.51-.42-.2-.74-.44-.93-.74-.19-.28-.28-.64-.28-1.07s.12-.85.37-1.21c.25-.36.61-.65,1.07-.86.47-.21,1.01-.32,1.64-.32.73,0,1.35.13,1.87.4.35.17.65.42.93.72.21.23.18.59-.05.8-.1.09-.24.15-.38.15-.17,0-.34-.08-.45-.22-.16-.2-.33-.36-.51-.49-.35-.22-.82-.34-1.4-.34s-1.02.12-1.33.35c-.32.23-.49.54-.49.9s.16.62.48.82c.3.19.84.36,1.63.51.72.13,1.29.29,1.71.49.41.19.72.44.91.73.18.28.28.64.28,1.07,0,.46-.13.86-.39,1.2-.26.35-.63.62-1.1.8-.49.17-1.04.27-1.66.27"/></g><path class="cls-1" d="m166.85,122.63h-3.04v-8.16h2.92c1.72,0,2.58.94,2.58,2.07,0,1.03-.64,1.63-1.42,1.88.89.16,1.62,1.01,1.62,2.01,0,1.24-.97,2.2-2.66,2.2Zm-.21-7.28h-1.76v2.65h1.79c.99,0,1.57-.49,1.57-1.32s-.55-1.32-1.6-1.32Zm.08,3.52h-1.85v2.88h1.88c1.06,0,1.68-.52,1.68-1.42,0-.89-.67-1.46-1.72-1.46Z"/><path class="cls-1" d="m170.89,114.46h1.19l2.01,4.14,2.01-4.14h1.19l-2.66,5.08v3.08h-1.07v-3.08l-2.67-5.08Z"/><path class="cls-1" d="m92.02,85.08h8.65c4.11,0,6.88,1.99,6.88,5.85,0,3.14-2.14,5.04-4.23,5.69.63.53,1.08,1.24,1.46,1.99.87,1.77,1.46,3.73,3.3,3.73.47,0,.84-.16.84-.16l-.4,3.7s-1.12.28-2.09.28c-2.49,0-3.92-.97-5.38-4.29-.63-1.49-1.49-4.11-2.65-4.11h-1.19v8.3h-5.19v-20.98m5.19,3.76v5.17h1.87c1.49,0,3.24-.47,3.24-2.7,0-1.84-1.19-2.45-2.61-2.45h-2.49Z"/><path class="cls-1" d="m114.56,85.08h5.26l7.09,20.99h-5.26l-1.31-3.98h-7.03l-1.28,3.98h-4.54l7.07-20.99m0,13.15h4.51l-1.43-4.41c-.5-1.49-.72-3.6-.72-3.6h-.13s-.31,2.14-.78,3.58l-1.45,4.44Z"/><path class="cls-1" d="m127.12,85.08h5.57l5.51,10.41c.47.9,1.08,2.49,1.59,3.73h.13c-.06-1.19-.22-2.86-.22-4.07v-10.07h4.26v20.99h-5.44l-5.72-10.39c-.53-.94-1.08-2.3-1.53-3.42h-.13c.09,1.19.25,2.58.25,3.73v10.07h-4.26v-20.99"/><path class="cls-1" d="m145.06,95.43c0-7.58,3.76-10.73,9.58-10.73,6.12,0,8.58,3.35,7.9,7.9l-4.85.43c.53-3.33-.78-4.66-3.14-4.66s-4.11,1.68-4.11,7.09c0,5.73,1.99,7.19,4.26,7.19,2.14,0,3.89-1.34,3.51-4.07l4.54.47c.34,4.26-2.74,7.4-8.34,7.4-5.66,0-9.34-3.35-9.34-11.01"/><polyline class="cls-1" points="163.81 85.08 169 85.08 169 93.01 175.38 93.01 175.38 85.08 180.57 85.08 180.57 106.07 175.38 106.07 175.38 97.17 169 97.17 169 106.07 163.81 106.07 163.81 85.08"/><polyline class="cls-1" points="182.65 85.08 196.55 85.08 196.55 88.93 187.84 88.93 187.84 93.44 195.15 93.44 195.15 97.29 187.84 97.29 187.84 102.21 196.86 102.21 196.86 106.07 182.65 106.07 182.65 85.08"/><path class="cls-1" d="m197.85,85.08h8.65c4.11,0,6.88,1.99,6.88,5.85,0,3.14-2.14,5.04-4.23,5.69.63.53,1.08,1.24,1.46,1.99.87,1.77,1.46,3.73,3.3,3.73.47,0,.84-.16.84-.16l-.4,3.7s-1.12.28-2.09.28c-2.49,0-3.92-.97-5.38-4.29-.63-1.49-1.49-4.11-2.65-4.11h-1.19v8.3h-5.19v-20.98m5.19,3.76v5.17h1.87c1.49,0,3.24-.47,3.24-2.7,0-1.84-1.19-2.45-2.61-2.45h-2.49Z"/><path class="cls-1" d="m215.28,86.4c0-1.19.88-1.7,1.69-1.7s1.69.51,1.69,1.7-.88,1.67-1.69,1.67-1.69-.51-1.69-1.67m2.98,0c0-.93-.61-1.33-1.29-1.33s-1.31.4-1.31,1.33.63,1.32,1.31,1.32c.68,0,1.29-.4,1.29-1.32Zm-1.85-.84h.6c.3,0,.61.08.61.51,0,.26-.17.4-.4.44l.4.68h-.37l-.37-.66h-.15v.66h-.33v-1.64h0Zm.63.74c.14,0,.26-.08.26-.24,0-.17-.14-.22-.26-.22h-.29v.46h.29Z"/></g></svg>