<?xml version="1.0" encoding="UTF-8"?>
<svg id="Layer_1" data-name="Layer 1" xmlns="http://www.w3.org/2000/svg" viewBox="0 0 40 40">
  <path d="m24.39,36.73c-.08,0-.17-.02-.24-.06-.16-.09-.26-.26-.26-.44v-6.27c0-.28.22-.5.5-.5s.5.22.5.5v5.35l1.81-1.16c.16-.11.38-.11.54,0l1.81,1.16v-5.35c0-.28.22-.5.5-.5s.5.22.5.5v6.27c0,.18-.1.35-.26.44-.16.09-.36.08-.51-.02l-2.31-1.48-2.31,1.48c-.08.05-.18.08-.27.08Z"/>
  <path d="m26.96,30.88c-3.16,0-5.72-2.54-5.72-5.65s2.57-5.65,5.72-5.65,5.72,2.54,5.72,5.65-2.57,5.65-5.72,5.65Zm0-10.31c-2.6,0-4.72,2.09-4.72,4.65s2.12,4.65,4.72,4.65,4.72-2.09,4.72-4.65-2.12-4.65-4.72-4.65Z"/>
  <path d="m26.96,27.81c-1.47,0-2.66-1.16-2.66-2.59s1.19-2.59,2.66-2.59,2.66,1.16,2.66,2.59-1.19,2.59-2.66,2.59Zm0-4.18c-.91,0-1.66.71-1.66,1.59s.74,1.59,1.66,1.59,1.66-.71,1.66-1.59-.74-1.59-1.66-1.59Z"/>
  <path d="m20.75,28.65H7.81c-.28,0-.5-.22-.5-.5V3.77c0-.28.22-.5.5-.5h14.74c.13,0,.26.05.36.15l5.32,5.42c.09.09.14.22.14.35v8.78c0,.28-.22.5-.5.5s-.5-.22-.5-.5v-8.58l-5.03-5.12h-14.03v23.38h12.44c.28,0,.5.22.5.5s-.22.5-.5.5Z"/>
  <path d="m27.87,9.57h0l-5.29-.04c-.27,0-.5-.23-.5-.5V3.77c0-.2.12-.38.31-.46.19-.08.4-.03.54.11l5.29,5.29c.14.14.19.36.11.55-.08.19-.26.31-.46.31Zm-4.79-1.04l3.58.03-3.58-3.58v3.55Z"/>
  <g>
    <path d="m12.71,12.77h-1c-.28,0-.5-.22-.5-.5s.22-.5.5-.5h1c.28,0,.5.22.5.5s-.22.5-.5.5Z"/>
    <path d="m20.92,12.77h-2.05c-.28,0-.5-.22-.5-.5s.22-.5.5-.5h2.05c.28,0,.5.22.5.5s-.22.5-.5.5Zm-4.1,0h-2.05c-.28,0-.5-.22-.5-.5s.22-.5.5-.5h2.05c.28,0,.5.22.5.5s-.22.5-.5.5Z"/>
    <path d="m23.97,12.77h-1c-.28,0-.5-.22-.5-.5s.22-.5.5-.5h1c.28,0,.5.22.5.5s-.22.5-.5.5Z"/>
  </g>
  <g>
    <path d="m12.71,16.25h-1c-.28,0-.5-.22-.5-.5s.22-.5.5-.5h1c.28,0,.5.22.5.5s-.22.5-.5.5Z"/>
    <path d="m20.92,16.25h-2.05c-.28,0-.5-.22-.5-.5s.22-.5.5-.5h2.05c.28,0,.5.22.5.5s-.22.5-.5.5Zm-4.1,0h-2.05c-.28,0-.5-.22-.5-.5s.22-.5.5-.5h2.05c.28,0,.5.22.5.5s-.22.5-.5.5Z"/>
    <path d="m23.97,16.25h-1c-.28,0-.5-.22-.5-.5s.22-.5.5-.5h1c.28,0,.5.22.5.5s-.22.5-.5.5Z"/>
  </g>
  <g>
    <path d="m12.71,19.87h-1c-.28,0-.5-.22-.5-.5s.22-.5.5-.5h1c.28,0,.5.22.5.5s-.22.5-.5.5Z"/>
    <path d="m20.92,19.87h-2.05c-.28,0-.5-.22-.5-.5s.22-.5.5-.5h2.05c.28,0,.5.22.5.5s-.22.5-.5.5Zm-4.1,0h-2.05c-.28,0-.5-.22-.5-.5s.22-.5.5-.5h2.05c.28,0,.5.22.5.5s-.22.5-.5.5Z"/>
    <path d="m23.97,19.87h-1c-.28,0-.5-.22-.5-.5s.22-.5.5-.5h1c.28,0,.5.22.5.5s-.22.5-.5.5Z"/>
  </g>
</svg>