<?xml version="1.0" encoding="UTF-8"?>
<svg id="figma_components" data-name="figma components" xmlns="http://www.w3.org/2000/svg" viewBox="0 0 40 40">
  <path d="m26.9,19.13c-3.14,0-5.55-.86-7.17-2.57-2.23-2.34-2.09-5.4-2.09-5.52V2.95c0-.28.22-.5.5-.5h4.7c.28,0,.5.22.5.5s-.22.5-.5.5h-4.2v7.62c0,.05-.11,2.79,1.82,4.82,1.42,1.49,3.59,2.25,6.44,2.25,2.07,0,3.73-.62,4.94-1.84,2.22-2.24,2.22-5.81,2.22-5.85V3.45h-4.12c-.28,0-.5-.22-.5-.5s.22-.5.5-.5h4.62c.28,0,.5.22.5.5v7.49c0,.16.01,4.01-2.5,6.55-1.41,1.42-3.31,2.14-5.66,2.14Z"/>
  <g>
    <path d="m26.84,20.27c-.28,0-.5-.22-.5-.5v-1.14c0-.28.22-.5.5-.5s.5.22.5.5v1.14c0,.28-.22.5-.5.5Z"/>
    <path d="m19.45,37.55h-.15c-.28,0-.5-.24-.49-.51,0-.27.23-.49.5-.49h.14c.15,0,.31,0,.47,0,.52-.01,1.01-.07,1.46-.16.27-.05.54.12.59.39.05.27-.12.54-.39.59-.51.1-1.06.16-1.63.18-.17,0-.33,0-.5,0Zm-2.31-.19s-.06,0-.09,0c-.81-.14-1.55-.37-2.21-.66-.25-.12-.36-.41-.25-.66.12-.25.41-.36.66-.25.57.26,1.23.46,1.96.59.27.05.45.31.41.58-.04.24-.25.41-.49.41Zm6.38-.75c-.17,0-.34-.09-.43-.25-.14-.24-.06-.54.18-.68.58-.33,1.08-.77,1.5-1.3.17-.22.49-.25.7-.08.21.17.25.49.08.7-.5.62-1.1,1.14-1.78,1.53-.08.05-.17.07-.25.07Zm-10.25-1.11c-.13,0-.26-.05-.35-.15-.55-.55-.99-1.21-1.31-1.96-.11-.25,0-.55.26-.66.25-.11.55,0,.66.26.27.63.64,1.19,1.1,1.65.19.2.19.51,0,.71-.1.1-.22.15-.35.15Zm12.97-2.2c-.06,0-.12-.01-.18-.03-.26-.1-.39-.39-.29-.65.24-.62.41-1.29.5-2,.04-.27.29-.47.56-.43.27.04.47.29.43.56-.1.79-.29,1.54-.56,2.23-.08.2-.27.32-.47.32Zm.62-4.3c-.28,0-.5-.22-.5-.5v-2.18c0-.28.22-.5.5-.5s.5.22.5.5v2.18c0,.28-.22.5-.5.5Zm0-4.37c-.28,0-.5-.22-.5-.5v-2.18c0-.28.22-.5.5-.5s.5.22.5.5v2.18c0,.28-.22.5-.5.5Z"/>
    <path d="m11.49,31.58c-.25,0-.46-.19-.5-.44-.05-.38-.08-.78-.08-1.19,0-.28.21-.5.49-.51.27,0,.5.21.51.49,0,.37.03.73.08,1.09.03.27-.16.52-.43.56-.02,0-.04,0-.06,0Z"/>
  </g>
  <path d="m11.41,30.08c-3.57,0-6.47-2.9-6.47-6.47s2.9-6.47,6.47-6.47,6.47,2.9,6.47,6.47-2.9,6.47-6.47,6.47Zm0-11.95c-3.02,0-5.47,2.46-5.47,5.47s2.46,5.47,5.47,5.47,5.47-2.46,5.47-5.47-2.46-5.47-5.47-5.47Z"/>
  <path d="m12.53,9.8h-5.97c-.28,0-.5-.22-.5-.5s.22-.5.5-.5h5.97c.28,0,.5.22.5.5s-.22.5-.5.5Z"/>
  <path d="m9.55,12.78c-.28,0-.5-.22-.5-.5v-5.97c0-.28.22-.5.5-.5s.5.22.5.5v5.97c0,.28-.22.5-.5.5Z"/>
</svg>