<?xml version="1.0" encoding="UTF-8"?>
<svg id="Layer_1" data-name="Layer 1" xmlns="http://www.w3.org/2000/svg" viewBox="0 0 40 40">
  <path d="m17.36,16.6H1.51c-.53,0-.99-.32-1.19-.81-.19-.49-.06-1.04.32-1.4l1.09-1c.24-.22.54-.34.86-.34h15.59c.5,0,.94.28,1.15.73s.14.97-.18,1.35l-.83,1c-.24.29-.6.46-.98.46Zm-14.76-2.54c-.07,0-.13.03-.18.07h0l-1.09,1c-.12.11-.09.25-.07.3.02.05.09.17.25.17h15.85c.08,0,.16-.04.21-.1l.83-1c.1-.12.06-.24.04-.29-.02-.05-.09-.16-.25-.16H2.6Zm-.52-.3h0,0Z"/>
  <path d="m17.36,26.94H1.51c-.53,0-.99-.32-1.19-.81-.19-.49-.06-1.04.32-1.4l1.09-1c.23-.22.54-.33.86-.33h15.59c.5,0,.94.28,1.15.73.21.45.14.97-.18,1.35l-.83,1c-.24.29-.6.46-.98.46Zm-14.76-2.54c-.07,0-.13.03-.18.07h0l-1.09,1c-.12.11-.09.25-.07.3.02.05.09.17.25.17h15.85c.08,0,.16-.04.21-.1l.83-1c.1-.12.06-.24.04-.29s-.09-.16-.25-.16H2.6Zm-.52-.3h0,0Z"/>
  <path d="m17.36,21.77H1.51c-.53,0-.99-.32-1.19-.81-.19-.49-.06-1.04.32-1.4l1.09-1c.23-.22.54-.33.86-.33h15.59c.5,0,.94.28,1.15.73s.14.97-.18,1.35l-.83,1c-.24.29-.6.46-.98.46Zm-14.76-2.54c-.07,0-.13.03-.18.07h0l-1.09,1c-.12.11-.09.25-.07.3.02.05.09.17.25.17h15.85c.08,0,.16-.04.21-.1l.83-1c.1-.12.06-.24.04-.29-.02-.05-.09-.16-.25-.16H2.6Zm-.52-.3h0,0Z"/>
  <g>
    <g>
      <path d="m10.25,12.14c-.11,0-.22-.04-.31-.11-.22-.17-.25-.49-.08-.7.25-.31.51-.61.78-.89.19-.2.51-.21.71-.02.2.19.21.51.02.71-.25.27-.49.54-.72.83-.1.12-.24.19-.39.19Z"/>
      <path d="m12.77,9.72c-.15,0-.3-.07-.4-.2-.16-.22-.12-.54.11-.7.65-.48,1.35-.91,2.08-1.27.25-.12.55-.02.67.23.12.25.02.55-.23.67-.67.33-1.32.73-1.93,1.18-.09.07-.19.1-.3.1Zm15.43-.31c-.1,0-.19-.03-.28-.09-.63-.42-1.29-.79-1.98-1.1-.25-.11-.37-.41-.25-.66.11-.25.41-.36.66-.25.74.33,1.45.73,2.13,1.18.23.15.29.46.13.69-.1.14-.25.22-.42.22Zm-11.24-1.76c-.22,0-.42-.14-.48-.36-.08-.27.08-.54.34-.62.78-.23,1.58-.38,2.39-.47.29-.03.52.17.55.44.03.27-.17.52-.44.55-.75.08-1.5.23-2.22.44-.05.01-.09.02-.14.02Zm6.97-.14s-.08,0-.12-.01c-.73-.18-1.48-.3-2.23-.35-.28-.02-.48-.26-.47-.53.02-.28.26-.49.53-.47.81.05,1.62.18,2.41.38.27.07.43.34.36.61-.06.23-.26.38-.48.38Z"/>
      <path d="m30.82,11.73c-.14,0-.28-.06-.38-.17-.24-.28-.49-.54-.76-.8-.2-.19-.2-.51,0-.71.19-.2.51-.2.71,0,.28.28.56.56.81.86.18.21.16.52-.05.71-.09.08-.21.12-.33.12Z"/>
    </g>
    <g>
      <path d="m10.68,29.37c-.14,0-.28-.06-.37-.17-.26-.29-.51-.6-.75-.92-.17-.22-.12-.53.1-.7.22-.17.53-.12.7.1.22.29.45.58.69.85.18.21.16.52-.04.71-.1.08-.21.13-.33.13Z"/>
      <path d="m21.63,33.85c-.26,0-.48-.2-.5-.47-.02-.28.19-.51.46-.53.79-.05,1.57-.18,2.33-.38.27-.07.54.09.61.36s-.09.54-.36.61c-.82.21-1.66.35-2.51.4-.01,0-.02,0-.03,0Zm-2.45-.05s-.04,0-.06,0c-.84-.1-1.68-.27-2.49-.52-.26-.08-.41-.36-.33-.62.08-.26.36-.41.62-.33.75.23,1.53.39,2.31.48.27.03.47.28.44.55-.03.25-.25.44-.5.44Zm7.17-1.16c-.19,0-.37-.11-.45-.29-.12-.25,0-.55.24-.67.71-.33,1.39-.73,2.04-1.19.23-.16.54-.11.7.12.16.22.11.54-.12.7-.69.49-1.43.92-2.19,1.28-.07.03-.14.05-.21.05Zm-11.83-.26c-.08,0-.16-.02-.23-.06-.75-.39-1.47-.85-2.13-1.38-.22-.17-.26-.48-.09-.7.17-.22.48-.26.7-.09.62.48,1.28.91,1.98,1.28.24.13.34.43.21.67-.09.17-.26.27-.44.27Z"/>
      <path d="m30.33,29.8c-.12,0-.25-.05-.35-.14-.2-.19-.2-.51-.01-.71.25-.26.5-.54.73-.82.17-.21.49-.25.7-.07.21.17.25.49.07.7-.25.31-.51.6-.79.89-.1.1-.23.15-.36.15Z"/>
    </g>
  </g>
  <path d="m33.32,27.8h-1.35c-.51,0-.96-.37-1.05-.87l-.23-1.17c-.72-.3-1.33-.66-1.89-1.14l-1.18.37c-.49.16-1.03-.04-1.28-.49l-.67-1.19c-.25-.47-.16-1.02.22-1.35l.88-.79c-.04-.44-.07-.79-.07-1.16s.03-.72.09-1.08l-.91-.87c-.38-.33-.47-.9-.23-1.34l.68-1.2c.25-.45.79-.66,1.28-.49l1.12.38c.62-.49,1.23-.85,1.9-1.09l.28-1.24c.1-.5.54-.87,1.05-.87h1.35c.51,0,.96.37,1.05.87l.23,1.17c.71.3,1.33.66,1.89,1.14l1.18-.37c.49-.17,1.03.04,1.28.49l.67,1.19s0,0,0,0c.25.45.15,1.02-.23,1.35l-.88.79c.04.44.07.79.07,1.16s-.03.72-.09,1.08l.91.87c.38.33.47.9.23,1.34l-.68,1.2c-.25.45-.79.66-1.28.49l-1.12-.38c-.62.49-1.24.85-1.9,1.09l-.28,1.24c-.1.5-.54.87-1.05.87Zm-4.56-4.21c.25,0,.5.09.7.27.45.39.96.69,1.51.89.36.13.62.44.69.81l.23,1.17,1.42.06.3-1.24c.07-.37.33-.68.69-.81.55-.2,1.07-.5,1.53-.9.29-.25.69-.33,1.05-.2l1.11.38.76-1.23s.01-.08-.02-.11l-.89-.79c-.28-.26-.41-.64-.34-1.01.05-.29.08-.58.08-.89s-.03-.61-.08-.91c-.07-.36.06-.75.34-1l.88-.79s.04-.08.02-.12l-.67-1.19-1.2.34c-.35.13-.76.05-1.05-.21-.45-.39-.96-.69-1.51-.89-.36-.14-.62-.44-.69-.81l-.23-1.17-1.42-.06-.3,1.24c-.07.37-.33.68-.69.81-.55.2-1.07.5-1.53.9-.29.25-.69.33-1.05.2l-1.1-.38-.76,1.23s-.01.08.01.11l.89.79c.29.26.42.65.34,1.01-.05.29-.08.58-.08.89s.03.61.08.9c.07.36-.06.75-.34,1l-.88.79s-.04.08-.01.12l.67,1.18,1.2-.34c.11-.04.23-.06.35-.06Zm3.88.12c-2.01,0-3.65-1.67-3.65-3.71s1.64-3.71,3.65-3.71,3.65,1.67,3.65,3.71-1.64,3.71-3.65,3.71Zm0-6.42c-1.46,0-2.65,1.22-2.65,2.71s1.19,2.71,2.65,2.71,2.65-1.22,2.65-2.71-1.19-2.71-2.65-2.71Z"/>
</svg>