<?xml version="1.0" encoding="UTF-8"?>
<svg id="figma_components" data-name="figma components" xmlns="http://www.w3.org/2000/svg" viewBox="0 0 40 40">
  <path d="m20.01,38.7c-.08,0-.17-.02-.24-.06l-1.12-.61s-.05-.02-.08-.04c-1.46-.85-4.33-2.67-7.11-5.34-1.99-1.91-3.61-3.91-4.79-5.95-1.5-2.57-2.37-5.24-2.58-7.96-.57-7.79.35-11,.39-11.13l.16-.53c.04-.15.16-.27.31-.33L19.82,1.33c.11-.04.23-.04.35,0l1.14.42,13.74,5.01c.15.05.26.17.31.32l.16.53c.1.34.96,3.5.4,11.13-.2,2.71-1.07,5.39-2.58,7.96-1.19,2.04-2.8,4.04-4.79,5.95-2.78,2.67-5.65,4.49-7.11,5.34l-1.19.65c-.08.04-.16.06-.24.06Zm-.99-1.61s.04.02.06.03l.93.51.93-.51c1.41-.82,4.2-2.6,6.91-5.19,1.92-1.84,3.48-3.77,4.62-5.73,1.43-2.44,2.25-4.97,2.44-7.53.56-7.58-.33-10.64-.36-10.77l-.09-.29-14.47-5.28-.96.36L5.52,7.61l-.09.29c-.04.12-.91,3.15-.35,10.76.19,2.56,1.01,5.09,2.44,7.53,1.14,1.96,2.7,3.89,4.62,5.73,2.67,2.56,5.42,4.32,6.86,5.16Z"/>
  <g>
    <g>
      <path d="m6.21,16.94c-.14,0-.27-.05-.37-.16-.19-.2-.17-.52.03-.71.28-.25.59-.51.93-.75.22-.16.54-.11.7.11.16.22.11.54-.11.7-.3.22-.59.45-.84.68-.1.09-.22.13-.34.13Z"/>
      <path d="m9.2,15.01c-.19,0-.37-.11-.45-.29-.12-.25-.01-.55.24-.67.71-.34,1.5-.65,2.32-.91.27-.09.54.06.63.32.08.26-.06.54-.32.63-.79.25-1.53.55-2.2.87-.07.03-.14.05-.21.05Zm21.31-.14c-.07,0-.14-.01-.21-.04-.68-.31-1.43-.59-2.22-.83-.26-.08-.41-.36-.33-.62.08-.26.36-.42.62-.33.83.26,1.62.55,2.33.87.25.11.36.41.25.66-.08.18-.27.29-.46.29Zm-16.71-1.38c-.23,0-.44-.16-.49-.4-.06-.27.11-.54.38-.59.79-.17,1.61-.31,2.44-.41.27-.04.52.16.56.43.03.27-.16.52-.43.56-.8.1-1.59.23-2.35.4-.04,0-.07.01-.1.01Zm12.08-.07s-.07,0-.1,0c-.76-.15-1.56-.28-2.36-.37-.27-.03-.47-.28-.44-.55.03-.28.28-.47.55-.44.83.09,1.65.22,2.44.38.27.05.45.32.39.59-.05.24-.26.4-.49.4Zm-7.26-.54c-.27,0-.49-.21-.5-.48-.01-.28.2-.51.48-.52.81-.03,1.65-.04,2.47-.01.28,0,.49.24.48.52,0,.28-.23.48-.52.48-.79-.03-1.6-.02-2.39.01h-.02Z"/>
      <path d="m33.56,16.74c-.12,0-.23-.04-.32-.12-.27-.23-.55-.45-.86-.66-.23-.15-.29-.47-.13-.69s.47-.29.69-.13c.34.23.66.47.95.72.21.18.24.5.06.71-.1.12-.24.18-.38.18Z"/>
    </g>
    <g>
      <path d="m9.18,26.4c-.07,0-.14-.02-.21-.05-.36-.17-.71-.35-1.04-.54-.24-.14-.32-.44-.19-.68.14-.24.44-.32.68-.19.31.18.63.35.97.51.25.12.36.42.24.67-.09.18-.27.29-.45.29Z"/>
      <path d="m20.89,28.55c-.27,0-.49-.21-.5-.49,0-.28.21-.51.49-.51.8-.02,1.59-.08,2.36-.16.27-.02.52.17.55.44s-.17.52-.44.55c-.79.08-1.61.14-2.44.16h-.01Zm-2.4-.03s-.02,0-.02,0c-.82-.04-1.64-.11-2.43-.21-.27-.04-.47-.29-.43-.56.04-.27.29-.47.56-.43.77.1,1.56.17,2.35.21.28.01.49.25.48.52-.01.27-.23.48-.5.48Zm7.17-.49c-.23,0-.44-.17-.49-.41-.05-.27.12-.53.4-.59.79-.15,1.56-.34,2.29-.55.27-.08.54.07.62.34.08.26-.07.54-.34.62-.75.22-1.55.42-2.38.58-.03,0-.06,0-.1,0Zm-11.93-.13s-.07,0-.11-.01c-.82-.18-1.62-.39-2.37-.64-.26-.09-.41-.37-.32-.63.09-.26.37-.41.63-.32.72.23,1.48.44,2.27.61.27.06.44.33.38.59-.05.23-.26.39-.49.39Z"/>
      <path d="m30.27,26.65c-.19,0-.38-.11-.46-.3-.11-.25,0-.55.26-.66.35-.15.68-.31,1-.47.24-.13.55-.03.67.21.13.25.03.55-.21.67-.34.17-.69.34-1.06.5-.06.03-.13.04-.2.04Z"/>
    </g>
  </g>
  <path d="m18.99,23.52c-.12,0-.23-.04-.33-.12l-2.11-1.8c-.21-.18-.23-.5-.05-.71s.5-.23.71-.05l1.7,1.46,3.81-4.99c.17-.22.48-.26.7-.09.22.17.26.48.09.7l-4.13,5.41c-.08.11-.21.18-.34.19-.02,0-.04,0-.05,0Z"/>
</svg>