<?xml version="1.0" encoding="UTF-8"?>
<svg id="figma_components" data-name="figma components" xmlns="http://www.w3.org/2000/svg" viewBox="0 0 40 40">
  <path d="m20,38.43C9.84,38.43,1.57,30.16,1.57,20S9.84,1.57,20,1.57s18.43,8.27,18.43,18.43-8.27,18.43-18.43,18.43Zm0-35.85C10.39,2.57,2.57,10.39,2.57,20s7.82,17.43,17.43,17.43,17.43-7.82,17.43-17.43S29.61,2.57,20,2.57Z"/>
  <path d="m19.99,24.36c-4.89,0-9.5-.43-12.96-1.22-1.69-.38-3.01-.83-3.94-1.33-.47-.25-.84-.52-1.08-.79-.26-.29-.39-.58-.39-.88s.13-.59.39-.88c.24-.27.61-.54,1.08-.79.93-.5,2.25-.94,3.94-1.33,3.46-.79,8.06-1.22,12.96-1.22s9.5.43,12.96,1.22c1.69.38,3.01.83,3.94,1.33.47.25.84.52,1.08.79.26.28.39.58.39.88s-.13.59-.39.88c-.24.27-.61.54-1.08.79-.93.5-2.25.94-3.94,1.33-3.46.79-8.06,1.22-12.96,1.22Zm0-7.44c-4.82,0-9.34.42-12.74,1.19-1.58.36-2.85.78-3.69,1.23-.46.25-.7.45-.81.58-.11.12-.13.19-.13.21s.02.09.13.21c.12.13.35.33.81.58.84.45,2.11.88,3.69,1.23,3.39.77,7.92,1.19,12.74,1.19s9.34-.42,12.74-1.19c1.58-.36,2.85-.78,3.69-1.23.46-.25.7-.45.81-.58.11-.12.13-.19.13-.21s-.02-.09-.13-.21c-.12-.13-.35-.33-.81-.58-.84-.45-2.11-.88-3.69-1.23-3.39-.77-7.92-1.19-12.74-1.19Z"/>
  <g>
    <g>
      <path d="m29.35,19.96h-.01c-.28,0-.5-.23-.49-.51,0-.36.01-.7.01-.99,0-.28.22-.5.5-.5s.5.22.5.5c0,.3,0,.65-.01,1.01,0,.27-.23.49-.5.49Z"/>
      <path d="m29.24,22.46s-.03,0-.04,0c-.28-.02-.48-.27-.45-.54.02-.28.05-.62.06-.98.01-.28.24-.5.52-.48.28.01.49.25.48.52-.02.38-.04.73-.07,1.02-.02.26-.24.46-.5.46Z"/>
    </g>
    <g>
      <path d="m23.39,36.5c-.12,0-.25-.04-.34-.14-.2-.19-.21-.51-.02-.71.2-.21.41-.45.63-.72.17-.21.49-.25.7-.07.21.17.25.49.07.7-.24.29-.47.55-.68.78-.1.1-.23.16-.36.16Z"/>
      <path d="m25.28,34.03c-.09,0-.18-.03-.27-.08-.23-.15-.3-.46-.15-.69.36-.57.7-1.17,1.02-1.8.12-.25.42-.35.67-.22.25.13.34.43.22.67-.33.65-.69,1.29-1.07,1.88-.1.15-.26.23-.42.23Zm1.92-3.76c-.06,0-.13-.01-.19-.04-.26-.1-.38-.4-.28-.65.26-.63.49-1.29.7-1.95.08-.26.36-.41.63-.33.26.08.41.36.33.63-.22.69-.46,1.37-.73,2.03-.08.19-.27.31-.46.31Z"/>
      <path d="m28.47,26.23s-.08,0-.11-.01c-.27-.06-.44-.33-.38-.6.07-.31.14-.64.2-.96.05-.27.31-.45.59-.4.27.05.45.32.4.59-.07.34-.14.67-.21,1-.05.23-.26.39-.49.39Z"/>
    </g>
    <g>
      <path d="m29,15.87c-.25,0-.46-.18-.49-.43-.05-.33-.1-.65-.16-.97-.05-.27.13-.53.4-.58.27-.05.53.13.58.4.06.33.12.67.16,1.01.04.27-.15.53-.43.56-.02,0-.05,0-.07,0Z"/>
      <path d="m28.46,13.2c-.22,0-.42-.15-.48-.37-.14-.54-.31-1.08-.5-1.59-.09-.26.04-.55.3-.64.26-.09.55.04.64.3.19.54.37,1.11.52,1.67.07.27-.09.54-.35.61-.04.01-.09.02-.13.02Zm-1.15-3.22c-.19,0-.37-.11-.45-.29-.23-.51-.49-1-.76-1.48-.14-.24-.06-.55.18-.68.24-.14.54-.06.68.18.29.5.56,1.03.81,1.56.12.25,0,.55-.25.66-.07.03-.14.05-.21.05Zm-1.71-2.96c-.16,0-.31-.07-.41-.21-.33-.45-.67-.89-1.04-1.29-.18-.21-.17-.52.04-.71.21-.18.52-.17.71.04.38.43.75.89,1.1,1.38.16.22.11.54-.11.7-.09.06-.19.09-.29.09Z"/>
      <path d="m23.32,4.48c-.12,0-.24-.04-.33-.12-.25-.22-.5-.42-.74-.6-.22-.17-.27-.48-.1-.7s.48-.27.7-.1c.27.2.53.42.81.66.21.18.23.5.04.71-.1.11-.24.17-.38.17Z"/>
    </g>
  </g>
  <g>
    <g>
      <path d="m11.11,19.99c-.27,0-.49-.22-.5-.49,0-.36-.01-.71-.01-1.01,0-.28.22-.5.5-.5s.5.22.5.5c0,.29,0,.63.01.99,0,.28-.21.5-.49.51h-.01Z"/>
      <path d="m11.23,22.46c-.26,0-.47-.2-.5-.46-.03-.29-.05-.64-.07-1.02-.01-.28.2-.51.48-.52.27-.02.51.2.52.48.02.36.04.7.06.98.02.27-.18.52-.45.54-.02,0-.03,0-.05,0Z"/>
    </g>
    <g>
      <path d="m16.82,36.5c-.13,0-.27-.05-.36-.16-.21-.23-.44-.49-.68-.78-.17-.21-.14-.53.07-.7.22-.17.53-.14.7.07.22.27.43.52.63.72.19.2.18.52-.02.71-.1.09-.22.14-.34.14Z"/>
      <path d="m14.93,34.03c-.17,0-.33-.08-.42-.23-.38-.59-.74-1.23-1.07-1.88-.13-.25-.03-.55.22-.67.25-.13.55-.03.67.22.32.63.66,1.23,1.02,1.8.15.23.08.54-.15.69-.08.05-.18.08-.27.08Zm-1.92-3.76c-.2,0-.38-.12-.46-.31-.27-.66-.51-1.34-.73-2.03-.08-.26.06-.54.33-.63.26-.08.54.06.63.33.21.66.44,1.32.7,1.95.1.26-.02.55-.28.65-.06.02-.12.04-.19.04Z"/>
      <path d="m11.74,26.23c-.23,0-.43-.16-.49-.39-.07-.33-.15-.66-.21-1-.05-.27.12-.53.4-.59.27-.06.53.12.59.4.06.33.13.65.2.96.06.27-.11.54-.38.6-.04,0-.08.01-.11.01Z"/>
    </g>
    <g>
      <path d="m11.21,15.87s-.05,0-.07,0c-.27-.04-.46-.29-.43-.56.05-.34.1-.68.16-1.01.05-.27.31-.45.58-.4.27.05.45.31.4.58-.06.32-.11.64-.16.97-.03.25-.25.43-.49.43Z"/>
      <path d="m11.75,13.2s-.09,0-.13-.02c-.27-.07-.43-.34-.35-.61.15-.57.33-1.13.52-1.67.09-.26.38-.4.64-.3.26.09.4.38.3.64-.19.52-.35,1.05-.5,1.59-.06.22-.26.37-.48.37Zm1.15-3.22c-.07,0-.14-.01-.21-.05-.25-.12-.36-.41-.25-.66.25-.53.52-1.06.81-1.56.14-.24.44-.32.68-.18.24.14.32.44.18.68-.27.48-.53.97-.76,1.48-.08.18-.27.29-.45.29Zm1.71-2.96c-.1,0-.2-.03-.29-.09-.22-.16-.28-.47-.11-.7.35-.48.72-.95,1.1-1.38.18-.21.5-.22.71-.04.21.18.22.5.04.71-.36.4-.71.84-1.04,1.29-.1.14-.25.21-.41.21Z"/>
      <path d="m16.89,4.48c-.14,0-.28-.06-.37-.17-.18-.21-.16-.52.04-.71.27-.24.54-.46.81-.66.22-.17.53-.12.7.1.17.22.12.53-.1.7-.24.18-.49.38-.74.6-.1.08-.21.13-.33.13Z"/>
    </g>
  </g>
</svg>