<?xml version="1.0" encoding="UTF-8"?>
<svg id="Layer_1" data-name="Layer 1" xmlns="http://www.w3.org/2000/svg" viewBox="0 0 40 40">
  <path d="m22.84,17.94c-.28,0-.5-.22-.5-.5v-4.61c-.1-.89-.43-1.97-2.21-1.97s-2.11,1.07-2.2,2.01v4.57c0,.28-.23.5-.51.5s-.5-.22-.5-.5v-4.62c.24-2.45,1.88-2.96,3.21-2.96s2.97.51,3.2,2.92v4.66c.01.28-.21.5-.49.5Z"/>
  <path d="m20.13,19.34c-1.83,0-3.21-.83-3.21-1.93,0-.28.22-.5.5-.5s.5.22.5.5c0,.38.86.93,2.21.93s2.21-.55,2.21-.93c0-.28.22-.5.5-.5s.5.22.5.5c0,1.1-1.38,1.93-3.21,1.93Z"/>
  <path d="m20.11,8.97c-1.28,0-2.32-1.04-2.32-2.32s1.04-2.32,2.32-2.32,2.32,1.04,2.32,2.32-1.04,2.32-2.32,2.32Zm0-3.65c-.73,0-1.32.59-1.32,1.32s.59,1.32,1.32,1.32,1.32-.59,1.32-1.32-.59-1.32-1.32-1.32Z"/>
  <path d="m12.39,34.27c-.28,0-.5-.22-.5-.5v-4.61c-.1-.89-.43-1.97-2.21-1.97s-2.11,1.07-2.2,2.01v4.57c0,.28-.23.5-.51.5s-.5-.22-.5-.5v-4.62c.24-2.45,1.88-2.96,3.21-2.96s2.97.51,3.2,2.92v4.66c.01.28-.21.5-.49.5Z"/>
  <path d="m9.69,35.67c-1.83,0-3.21-.83-3.21-1.93,0-.28.22-.5.5-.5s.5.22.5.5c0,.38.86.93,2.21.93s2.21-.55,2.21-.93c0-.28.22-.5.5-.5s.5.22.5.5c0,1.1-1.38,1.93-3.21,1.93Z"/>
  <path d="m9.67,25.3c-1.28,0-2.32-1.04-2.32-2.32s1.04-2.32,2.32-2.32,2.32,1.04,2.32,2.32-1.04,2.32-2.32,2.32Zm0-3.65c-.73,0-1.32.59-1.32,1.32s.59,1.32,1.32,1.32,1.32-.59,1.32-1.32-.59-1.32-1.32-1.32Z"/>
  <path d="m33.02,34.27c-.28,0-.5-.22-.5-.5v-4.61c-.1-.89-.43-1.97-2.21-1.97s-2.11,1.07-2.2,2.01v4.57c0,.28-.23.5-.51.5s-.5-.22-.5-.5v-4.62c.24-2.45,1.88-2.96,3.21-2.96s2.96.51,3.2,2.92v4.66c.01.28-.21.5-.49.5Z"/>
  <path d="m30.31,35.67c-1.83,0-3.21-.83-3.21-1.93,0-.28.22-.5.5-.5s.5.22.5.5c0,.38.86.93,2.21.93s2.21-.55,2.21-.93c0-.28.22-.5.5-.5s.5.22.5.5c0,1.1-1.38,1.93-3.21,1.93Z"/>
  <path d="m30.3,25.3c-1.28,0-2.32-1.04-2.32-2.32s1.04-2.32,2.32-2.32,2.32,1.04,2.32,2.32-1.04,2.32-2.32,2.32Zm0-3.65c-.73,0-1.32.59-1.32,1.32s.59,1.32,1.32,1.32,1.32-.59,1.32-1.32-.59-1.32-1.32-1.32Z"/>
  <g>
    <path d="m9.55,19.44h-.02c-.28,0-.49-.24-.48-.52.01-.37.06-.78.15-1.21.05-.27.32-.44.59-.4.27.05.45.32.4.59-.07.37-.12.74-.13,1.05,0,.27-.23.48-.5.48Z"/>
    <path d="m10.17,16.6c-.06,0-.12-.01-.18-.03-.26-.1-.39-.39-.29-.64.22-.58.48-1.14.79-1.68.14-.24.45-.32.68-.19.24.14.32.44.19.68-.28.49-.52,1.01-.72,1.54-.08.2-.27.32-.47.32Zm1.76-3.08c-.11,0-.22-.04-.31-.11-.21-.17-.25-.49-.08-.7.39-.48.82-.94,1.28-1.35.21-.18.52-.17.71.04.18.21.17.52-.04.71-.42.37-.81.79-1.17,1.23-.1.12-.24.19-.39.19Z"/>
    <path d="m14.58,11.15c-.17,0-.33-.08-.42-.23-.15-.23-.08-.54.15-.69.33-.21.67-.41,1.04-.59.24-.12.55-.03.67.22.12.25.03.55-.22.67-.34.17-.65.35-.95.54-.08.05-.18.08-.27.08Z"/>
  </g>
  <g>
    <path d="m30.58,19.44c-.27,0-.49-.21-.5-.48,0-.31-.05-.67-.13-1.05-.05-.27.12-.53.4-.59.27-.05.53.12.59.4.08.44.13.85.14,1.21,0,.28-.21.51-.48.52h-.02Z"/>
    <path d="m29.95,16.6c-.2,0-.39-.12-.47-.32-.2-.53-.44-1.05-.72-1.54-.14-.24-.05-.54.19-.68.24-.14.54-.05.68.19.31.54.57,1.1.79,1.68.1.26-.03.55-.29.64-.06.02-.12.03-.18.03Zm-1.76-3.08c-.15,0-.29-.06-.39-.19-.35-.44-.75-.85-1.17-1.23-.21-.18-.22-.5-.04-.71.18-.21.5-.22.71-.04.46.41.89.86,1.28,1.35.17.21.14.53-.08.7-.09.07-.2.11-.31.11Z"/>
    <path d="m25.55,11.15c-.09,0-.19-.03-.27-.08-.3-.19-.62-.37-.95-.54-.25-.12-.35-.43-.22-.67.12-.25.43-.34.67-.22.37.18.71.38,1.04.59.23.15.3.46.15.69-.1.15-.26.23-.42.23Z"/>
  </g>
  <g>
    <path d="m15.06,25.84c-.07,0-.13-.01-.19-.04-.4-.17-.77-.35-1.08-.53-.24-.14-.32-.45-.18-.68.14-.24.44-.32.68-.18.27.16.61.32.97.47.25.11.37.4.27.66-.08.19-.27.31-.46.31Z"/>
    <path d="m21.16,26.84c-.26,0-.48-.2-.5-.46-.02-.28.19-.52.46-.54.67-.05,1.33-.15,1.97-.31.26-.06.54.1.6.37.07.27-.1.54-.37.6-.69.17-1.41.28-2.13.33-.01,0-.02,0-.04,0Zm-2.08-.02s-.03,0-.04,0c-.71-.06-1.43-.18-2.12-.35-.27-.07-.43-.33-.37-.6.07-.27.33-.43.6-.37.65.16,1.31.27,1.98.32.28.02.48.27.45.54-.02.26-.24.46-.5.46Z"/>
    <path d="m25.2,25.84c-.19,0-.38-.11-.46-.3-.11-.25,0-.55.26-.66.33-.14.65-.31.98-.49.24-.13.55-.05.68.19.13.24.05.55-.19.68-.35.2-.71.37-1.07.53-.07.03-.13.04-.2.04Z"/>
  </g>
</svg>