<svg width="44" height="84" viewBox="0 0 44 84" fill="none" xmlns="http://www.w3.org/2000/svg">
<path d="M16.7076 82H4.7906C3.24936 82 2 80.744 2 79.1946V4.80539C2 3.25598 3.24936 2 4.7906 2H19.8791V5.78226H16.3125V10.0977H28.1085V5.78226H24.542V2H39.6304C41.1717 2 42.4211 3.25598 42.4211 4.80539V79.191C42.4211 80.7404 41.1717 81.9964 39.6304 81.9964H24.2501C23.1253 81.9964 22.2141 81.0804 22.2141 79.9496C22.2141 79.0658 21.6517 78.2857 20.8188 78.0066C18.9821 77.3912 17.6829 75.5948 17.811 73.5159C17.9463 71.2973 19.726 69.5082 21.9329 69.3722C24.4957 69.2112 26.6242 71.2544 26.6242 73.7985C26.6242 75.2621 25.9195 76.561 24.8303 77.3697" stroke="url(#paint0_linear_2928_22698)" stroke-width="2.5" stroke-linecap="round" stroke-linejoin="round"/>
<defs>
<linearGradient id="paint0_linear_2928_22698" x1="5.53023" y1="45.653" x2="58.8337" y2="95.1789" gradientUnits="userSpaceOnUse">
<stop stop-color="#FEC010"/>
<stop offset="0.650465" stop-color="#F06516"/>
<stop offset="1" stop-color="#F03016"/>
</linearGradient>
</defs>
</svg>
