<?xml version="1.0" encoding="UTF-8"?>
<svg id="Layer_1" data-name="Layer 1" xmlns="http://www.w3.org/2000/svg" viewBox="0 0 40 40">
  <path d="m15.04,14.49c-1.47,0-2.67-1.2-2.67-2.67s1.2-2.67,2.67-2.67,2.67,1.2,2.67,2.67-1.2,2.67-2.67,2.67Zm0-4.34c-.92,0-1.67.75-1.67,1.67s.75,1.67,1.67,1.67,1.67-.75,1.67-1.67-.75-1.67-1.67-1.67Z"/>
  <g>
    <g>
      <path d="m12.65,23.08c-.15,0-.3-.07-.4-.19-.17-.22-.13-.53.09-.7.4-.31.94-.55,1.56-.69.27-.06.54.11.6.38.06.27-.11.54-.38.6-.47.11-.89.28-1.17.5-.09.07-.2.11-.31.11Z"/>
      <path d="m17.47,22.88c-.08,0-.17-.02-.25-.07-.33-.19-.76-.33-1.24-.4-.27-.04-.46-.3-.42-.57.04-.27.29-.47.57-.42.6.09,1.15.27,1.59.52.24.14.32.44.19.68-.09.16-.26.25-.43.25Z"/>
    </g>
    <g>
      <path d="m14.02,25.6s-.07,0-.11-.01c-.62-.14-1.16-.38-1.56-.69-.22-.17-.26-.48-.09-.7s.48-.26.7-.09c.28.22.69.4,1.17.5.27.06.44.33.38.6-.05.23-.26.39-.49.39Z"/>
      <path d="m16.05,25.67c-.24,0-.46-.18-.49-.42-.04-.27.15-.53.42-.57.48-.07.91-.21,1.24-.4.24-.14.54-.05.68.19.14.24.05.54-.19.68-.44.25-.99.43-1.59.52-.03,0-.05,0-.08,0Z"/>
    </g>
  </g>
  <path d="m18.23,34.41c-.28,0-.5-.22-.5-.5v-14.88c-.12-1.09-.52-2.39-2.67-2.39s-2.55,1.3-2.66,2.43v1.26s0,13.58,0,13.58c0,.28-.22.5-.5.5s-.5-.22-.5-.5v-14.89c.28-2.8,2.15-3.38,3.67-3.38s3.4.58,3.66,3.34v1.35s.01,13.59.01,13.59c0,.28-.22.5-.5.5Z"/>
  <path d="m15.06,36.15c-2.09,0-3.67-.94-3.67-2.18,0-.28.22-.5.5-.5s.5.22.5.5c0,.55,1.14,1.18,2.67,1.18s2.67-.62,2.67-1.18c0-.28.22-.5.5-.5s.5.22.5.5c0,1.24-1.58,2.18-3.67,2.18Z"/>
  <path d="m18.23,19.71c-.23,0-.43-.16-.49-.39-.06-.27.1-.54.37-.6,1.19-.28,3.62-1.84,4.28-5.78.04-.27.3-.46.58-.41.27.04.46.3.41.58-.74,4.45-3.62,6.26-5.04,6.59-.04,0-.08.01-.11.01Z"/>
  <path d="m33.65,23.96h-15.42c-.28,0-.5-.22-.5-.5s.22-.5.5-.5h14.92V4.85H6.85v18.11h5.04c.28,0,.5.22.5.5s-.22.5-.5.5h-5.54c-.28,0-.5-.22-.5-.5V4.35c0-.28.22-.5.5-.5h27.3c.28,0,.5.22.5.5v19.11c0,.28-.22.5-.5.5Z"/>
</svg>