<?xml version="1.0" encoding="UTF-8"?>
<svg id="figma_components" data-name="figma components" xmlns="http://www.w3.org/2000/svg" viewBox="0 0 40 40">
  <g>
    <g>
      <path d="m11.56,18.65c-.14,0-.28-.06-.38-.17-.18-.21-.16-.52.05-.71.29-.25.64-.48,1.06-.69.25-.12.55-.03.67.22s.03.55-.22.67c-.34.17-.62.36-.85.55-.09.08-.21.12-.33.12Z"/>
      <path d="m25.51,17.31s-.08,0-.12-.01c-.66-.16-1.37-.28-2.11-.37-.27-.03-.47-.28-.43-.56.03-.27.29-.48.56-.43.78.1,1.53.23,2.22.39.27.06.43.33.37.6-.05.23-.26.38-.49.38Zm-10.93,0c-.23,0-.43-.15-.49-.38-.07-.27.1-.54.37-.6.67-.17,1.42-.3,2.23-.4.26-.04.52.16.56.44.03.27-.16.52-.44.56-.76.09-1.47.22-2.11.37-.04,0-.08.01-.12.01Zm6.56-.55h-.02c-.3-.01-.6-.02-.9-.02h-.13c-.38,0-.76,0-1.13.02-.31,0-.51-.21-.52-.48,0-.28.21-.51.48-.52.38-.01.77-.02,1.16-.02h.15c.31,0,.62,0,.93.02.28.01.49.24.48.52-.01.27-.23.48-.5.48Z"/>
      <path d="m28.63,18.51c-.09,0-.19-.03-.27-.08-.26-.17-.58-.34-.93-.49-.25-.11-.37-.4-.26-.66.11-.25.41-.37.66-.26.41.18.77.37,1.09.57.23.15.3.46.15.69-.1.15-.26.23-.42.23Z"/>
    </g>
    <g>
      <path d="m12.51,21.95c-.08,0-.16-.02-.23-.06-.41-.21-.76-.45-1.04-.7-.21-.18-.23-.5-.05-.71.18-.21.5-.23.71-.05.23.2.51.39.85.56.25.13.34.43.21.67-.09.17-.26.27-.44.27Z"/>
      <path d="m20.32,23.37s-.13,0-.13,0c-.47,0-.92-.01-1.37-.04-.28-.01-.49-.25-.47-.52.01-.28.25-.51.52-.47.43.02.87.03,1.32.04l.12.5v-.5c.23,0,.46,0,.69,0h.01c.27,0,.49.22.5.49,0,.28-.21.51-.49.51-.24,0-.48,0-.72,0Zm2.88-.16c-.25,0-.47-.19-.5-.44-.03-.28.17-.52.44-.55.74-.08,1.44-.2,2.1-.34.27-.06.54.11.59.38.06.27-.11.54-.38.59-.69.15-1.43.27-2.2.36-.02,0-.04,0-.06,0Zm-6.52-.08s-.05,0-.07,0c-.79-.11-1.53-.26-2.2-.43-.27-.07-.43-.35-.35-.61.07-.27.34-.42.61-.35.63.17,1.33.31,2.08.41.27.04.46.29.43.56-.03.25-.25.43-.49.43Z"/>
      <path d="m27.46,22.24c-.2,0-.39-.12-.46-.31-.1-.26.02-.55.28-.65.36-.15.68-.3.95-.46.23-.14.54-.07.69.17s.07.54-.17.69c-.32.19-.68.37-1.09.53-.06.02-.12.04-.19.04Z"/>
    </g>
  </g>
  <g>
    <g>
      <path d="m16.33,30.76c-.19,0-.37-.11-.45-.29-.12-.25-.01-.55.24-.67.27-.13.59-.25.95-.34.27-.07.54.08.61.35.07.27-.08.54-.35.61-.3.08-.57.18-.79.28-.07.03-.14.05-.21.05Z"/>
      <path d="m21.14,30.15s-.03,0-.04,0c-.32-.03-.64-.04-.98-.04-.34,0-.64.01-.93.03-.28.02-.51-.19-.53-.46s.19-.51.46-.53c.31-.02.63-.03.96-.03.41,0,.76.02,1.1.05.28.02.48.27.46.54-.02.26-.24.46-.5.46Z"/>
      <path d="m23.97,30.83c-.08,0-.15-.02-.23-.05-.22-.11-.48-.21-.78-.3-.27-.08-.42-.36-.34-.62.08-.26.36-.42.62-.34.36.11.68.23.95.37.25.12.34.43.22.67-.09.17-.26.27-.45.27Z"/>
    </g>
    <g>
      <path d="m17.39,33.04s-.1,0-.15-.02c-.33-.11-.64-.24-.94-.4-.24-.13-.33-.43-.2-.68.13-.24.43-.33.68-.2.24.13.49.24.77.32.26.08.41.37.32.63-.07.21-.26.35-.48.35Z"/>
      <path d="m20.18,33.4c-.41,0-.73-.01-1.02-.04-.28-.02-.48-.26-.46-.54.02-.28.26-.49.54-.46.58.05,1.28.04,1.76,0,.31-.02.51.19.53.47.02.28-.19.51-.47.53s-.57.03-.87.03Z"/>
      <path d="m22.83,33.08c-.22,0-.42-.14-.48-.36-.08-.26.08-.54.34-.62.29-.08.55-.18.78-.3.25-.12.55-.02.67.22.12.25.02.55-.22.67-.29.14-.61.27-.95.37-.05.01-.09.02-.14.02Z"/>
    </g>
  </g>
  <path d="m20,6.4c-.28,0-.5-.22-.5-.5v-2.99c0-.28.22-.5.5-.5s.5.22.5.5v2.99c0,.28-.22.5-.5.5Z"/>
  <path d="m6.74,19.1h-2.99c-.28,0-.5-.22-.5-.5s.22-.5.5-.5h2.99c.28,0,.5.22.5.5s-.22.5-.5.5Z"/>
  <path d="m7.45,30.02c-.14,0-.28-.06-.38-.18-.18-.21-.15-.53.06-.71l2.39-2.02c.21-.18.53-.15.71.06.18.21.15.53-.06.71l-2.39,2.02c-.09.08-.21.12-.32.12Z"/>
  <path d="m10.65,9.73c-.13,0-.26-.05-.35-.15l-2.21-2.21c-.2-.2-.2-.51,0-.71s.51-.2.71,0l2.21,2.21c.2.2.2.51,0,.71-.1.1-.23.15-.35.15Z"/>
  <path d="m36.25,19.1h-3.17c-.28,0-.5-.22-.5-.5s.22-.5.5-.5h3.17c.28,0,.5.22.5.5s-.22.5-.5.5Z"/>
  <path d="m32.5,30.02c-.11,0-.23-.04-.32-.12l-2.39-2.02c-.21-.18-.24-.49-.06-.71.18-.21.5-.23.71-.06l2.39,2.02c.21.18.24.49.06.71-.1.12-.24.18-.38.18Z"/>
  <path d="m29.29,9.73c-.13,0-.26-.05-.35-.15-.2-.2-.2-.51,0-.71l2.21-2.21c.2-.2.51-.2.71,0s.2.51,0,.71l-2.21,2.21c-.1.1-.23.15-.35.15Z"/>
  <path d="m20.09,37.59c-1.33,0-2.44-.98-2.64-2.24-1.46-.64-2.56-2.38-2.56-4.13v-3.49c-3.03-1.8-4.89-5.06-4.89-8.58,0-5.52,4.53-10.01,10.1-10.01s10.1,4.49,10.1,10.01c0,3.51-1.87,6.77-4.9,8.58v3.49c0,1.75-1.1,3.49-2.57,4.13-.19,1.26-1.31,2.24-2.64,2.24Zm0-27.46c-5.02,0-9.1,4.04-9.1,9.01,0,3.25,1.78,6.26,4.64,7.85.16.09.26.25.26.44v3.78c0,1.44.98,2.92,2.19,3.3.21.06.35.25.35.47.01.89.76,1.61,1.67,1.61s1.66-.72,1.67-1.6c0-.22.14-.4.35-.47,1.21-.38,2.19-1.86,2.19-3.3v-3.78c0-.18.1-.35.26-.44,2.86-1.59,4.64-4.6,4.64-7.85,0-4.97-4.08-9.01-9.1-9.01Z"/>
</svg>