<?xml version="1.0" encoding="UTF-8"?>
<svg id="figma_components" data-name="figma components" xmlns="http://www.w3.org/2000/svg" viewBox="0 0 40 40">
  <path d="m33.29,34.57H6.42c-.28,0-.5-.22-.5-.5v-13.79l-1.28.72c-.22.13-.51.06-.66-.15l-2.02-2.87c-.08-.11-.11-.25-.08-.39.03-.13.11-.25.23-.33l4.39-2.72v-6.9c0-.28.22-.5.5-.5h4.91c.28,0,.5.22.5.5v3.07l7.6-5.21c.17-.12.4-.12.57,0l17.34,12.35c.12.08.2.22.21.37.01.15-.04.29-.15.4l-2.6,2.58c-.18.18-.47.2-.67.03l-.92-.76v13.58c0,.28-.22.5-.5.5Zm-26.38-1h25.88v-14.14c0-.19.11-.37.29-.45.18-.08.38-.06.53.07l1.38,1.15,1.86-1.85L20.28,6.54l-8.09,5.54c-.15.11-.35.12-.52.03-.16-.09-.27-.26-.27-.44v-3.52h-3.91v6.68c0,.17-.09.33-.24.42l-4.17,2.59,1.46,2.07,1.63-.92c.16-.09.34-.09.5,0,.15.09.25.25.25.43v14.14Z"/>
  <g>
    <g>
      <path d="m31.84,22.3c-.08,0-.16-.02-.23-.06-.28-.14-.61-.28-.99-.41-.26-.09-.4-.38-.31-.64.09-.26.38-.4.64-.31.42.15.8.3,1.12.47.25.13.34.43.22.67-.09.17-.26.27-.44.27Z"/>
      <path d="m28.42,21.24s-.07,0-.1,0c-.73-.15-1.53-.27-2.38-.38-.27-.03-.47-.28-.43-.56.03-.27.29-.47.56-.43.88.11,1.71.24,2.46.39.27.05.45.32.39.59-.05.24-.26.4-.49.4Zm-17.07,0c-.23,0-.44-.16-.49-.4-.05-.27.12-.53.39-.59.75-.15,1.58-.28,2.46-.39.27-.04.52.16.56.44.03.27-.16.52-.44.56-.85.1-1.65.23-2.38.38-.03,0-.07,0-.1,0Zm4.86-.61c-.26,0-.48-.2-.5-.47-.02-.28.19-.51.46-.53.8-.05,1.62-.09,2.47-.11h.01c.27,0,.49.22.5.49,0,.28-.21.5-.49.51-.83.02-1.65.05-2.43.11-.01,0-.02,0-.03,0Zm7.35,0s-.02,0-.03,0c-.78-.05-1.59-.09-2.42-.11-.28,0-.5-.23-.49-.51s.25-.52.51-.49c.85.02,1.68.06,2.47.11.28.02.48.26.46.53-.02.26-.24.47-.5.47Z"/>
      <path d="m7.92,22.3c-.18,0-.36-.1-.44-.27-.13-.25-.03-.55.21-.67.32-.16.69-.32,1.12-.47.26-.09.55.05.64.31.09.26-.05.55-.31.64-.38.13-.71.27-.99.41-.07.04-.15.06-.23.06Z"/>
    </g>
    <g>
      <path d="m30.78,25.25c-.21,0-.4-.13-.47-.34-.09-.26.05-.55.31-.64.38-.13.71-.27.99-.41.24-.13.55-.03.67.21.13.25.03.55-.22.67-.32.17-.7.32-1.12.47-.05.02-.11.03-.16.03Z"/>
      <path d="m21.11,26.59c-.27,0-.49-.22-.5-.49,0-.28.21-.5.49-.51.83-.02,1.64-.05,2.42-.11.29-.01.51.19.53.46.02.28-.19.51-.46.53-.8.05-1.62.09-2.47.11h-.01Zm-2.45,0h-.01c-.85-.02-1.68-.06-2.47-.11-.28-.02-.48-.26-.46-.53.02-.27.26-.48.53-.46.78.05,1.59.09,2.43.11.28,0,.49.24.49.51,0,.27-.23.49-.5.49Zm-4.89-.34s-.04,0-.06,0c-.88-.11-1.7-.24-2.46-.39-.27-.05-.45-.32-.39-.59.05-.27.32-.45.59-.39.73.15,1.53.27,2.38.38.27.03.47.28.44.56-.03.25-.25.44-.5.44Zm12.22,0c-.25,0-.46-.19-.5-.44-.03-.27.16-.52.43-.56.86-.11,1.66-.23,2.38-.38.27-.06.53.12.59.39.05.27-.12.53-.39.59-.75.15-1.58.28-2.46.39-.02,0-.04,0-.06,0Z"/>
      <path d="m8.97,25.25c-.05,0-.11,0-.16-.03-.42-.15-.8-.3-1.12-.47-.25-.13-.34-.43-.21-.67.13-.25.43-.34.67-.21.28.14.61.28.99.41.26.09.4.38.31.64-.07.21-.27.34-.47.34Z"/>
    </g>
  </g>
</svg>