<?xml version="1.0" encoding="UTF-8"?>
<svg id="Layer_1" data-name="Layer 1" xmlns="http://www.w3.org/2000/svg" viewBox="0 0 40 40">
  <path d="m15.99,37.3c-.79,0-1.48-.17-2.04-.4-2.32-.93-4.12-3.46-4.67-6.52-2.73-.24-4.78-1.44-5.81-3.4-1.07-2.05-.84-4.62.6-7.08-2.22-3.41-1.41-5.91-.71-7.12,1.12-1.93,3.37-3.16,5.74-3.18-.19-1.51.19-2.93,1.1-4.15,1.32-1.76,3.42-2.64,4.92-2.74,3.67-.23,5.11,2.8,5.35,3.98l-.98.2c-.2-.95-1.36-3.37-4.31-3.19-1.27.08-3.05.84-4.18,2.34-.86,1.15-1.14,2.52-.82,3.96.04.16,0,.32-.11.44-.1.12-.26.19-.42.17-2.19-.18-4.42.91-5.43,2.66-1.04,1.79-.74,4.03.85,6.32.11.16.12.38.01.55-1.41,2.24-1.67,4.56-.73,6.37.9,1.73,2.81,2.76,5.38,2.89.24.01.44.19.47.43.4,2.89,2.02,5.29,4.11,6.13,1.7.68,3.56.28,5.37-1.16l.62.78c-1.62,1.28-3.09,1.7-4.32,1.7Z"/>
  <path d="m24.01,37.31c-1.23,0-2.7-.42-4.32-1.7l.62-.78c1.81,1.44,3.67,1.83,5.37,1.16,2.09-.84,3.71-3.25,4.11-6.13.03-.24.23-.42.47-.43,2.56-.13,4.47-1.16,5.38-2.89.94-1.8.67-4.13-.73-6.37-.11-.17-.1-.39.01-.55,1.58-2.29,1.88-4.54.85-6.32-1.01-1.75-3.25-2.84-5.43-2.66-.16.02-.31-.05-.42-.17-.1-.12-.15-.28-.11-.44.33-1.44.04-2.81-.82-3.96-1.13-1.51-2.91-2.26-4.18-2.34-2.94-.18-4.11,2.24-4.31,3.19l-.98-.2c.24-1.19,1.69-4.21,5.35-3.98,1.5.09,3.6.98,4.92,2.74.91,1.22,1.29,2.64,1.1,4.15,2.37.02,4.62,1.25,5.74,3.18.7,1.21,1.51,3.72-.71,7.12,1.45,2.47,1.67,5.03.6,7.08-1.02,1.96-3.07,3.16-5.81,3.4-.54,3.06-2.35,5.59-4.67,6.52-.56.22-1.25.4-2.04.4Z"/>
  <rect x="19.49" y="6.7" width="1" height="28.57"/>
  <g>
    <g>
      <path d="m18.18,29.4c-.07,0-.14-.01-.2-.04-.31-.14-.61-.28-.92-.42-.25-.12-.36-.41-.24-.66.12-.25.41-.36.66-.25.3.14.6.28.91.41.25.11.37.41.25.66-.08.19-.27.3-.46.3Z"/>
      <path d="m15.67,28.23c-.07,0-.15-.02-.22-.05-.54-.26-1.07-.53-1.58-.79-.25-.13-.34-.43-.21-.67s.43-.34.67-.21c.51.26,1.03.52,1.56.78.25.12.35.42.23.67-.09.18-.26.28-.45.28Zm-3.12-1.62c-.08,0-.17-.02-.24-.06-.53-.3-1.05-.59-1.54-.89-.24-.14-.31-.45-.17-.69s.45-.31.69-.17c.48.29.98.58,1.5.87.24.13.33.44.19.68-.09.16-.26.26-.44.26Zm-2.99-1.84c-.1,0-.2-.03-.28-.09-.52-.36-1-.72-1.44-1.07-.21-.17-.25-.49-.08-.7.17-.21.49-.25.7-.08.43.34.89.68,1.38,1.02.23.16.28.47.13.7-.1.14-.25.22-.41.22Z"/>
      <path d="m6.84,22.55c-.13,0-.26-.05-.36-.15-.25-.26-.49-.51-.7-.77-.17-.21-.14-.53.07-.7.21-.18.53-.14.7.07.19.24.41.47.64.7.19.2.19.51,0,.71-.1.1-.22.14-.35.14Z"/>
    </g>
    <g>
      <path d="m12.29,10.61s-.01,0-.02,0c-.33-.01-.66-.02-.98-.02-.28,0-.5-.22-.5-.5s.22-.5.5-.5c.34,0,.68,0,1.02.02.28.01.49.24.48.52-.01.27-.23.48-.5.48Z"/>
      <path d="m15.72,10.96s-.05,0-.08,0c-.57-.09-1.14-.17-1.69-.22-.27-.03-.47-.27-.45-.55s.28-.47.55-.45c.57.06,1.15.13,1.74.23.27.04.46.3.41.57-.04.25-.25.42-.49.42Z"/>
      <path d="m18.4,11.5s-.08,0-.12-.01c-.33-.08-.65-.15-.96-.22-.27-.06-.44-.32-.39-.59.06-.27.32-.44.59-.39.32.07.65.14.99.22.27.06.43.33.37.6-.05.23-.26.38-.49.38Z"/>
    </g>
    <g>
      <path d="m33.87,19.01c-.12,0-.24-.04-.34-.13-.23-.22-.48-.43-.73-.64-.21-.18-.24-.49-.07-.7.18-.21.49-.24.7-.07.27.22.52.45.77.68.2.19.21.5.03.71-.1.11-.23.16-.37.16Z"/>
      <path d="m31.73,17.29c-.1,0-.2-.03-.29-.09-.45-.32-.93-.63-1.44-.94-.24-.14-.31-.45-.17-.69s.45-.31.69-.17c.53.32,1.02.64,1.49.97.23.16.28.47.12.7-.1.14-.25.21-.41.21Zm-2.99-1.83c-.08,0-.16-.02-.24-.06-.49-.27-1-.54-1.54-.81-.25-.12-.35-.43-.22-.67.12-.25.43-.34.67-.22.54.28,1.07.55,1.56.82.24.13.33.44.2.68-.09.17-.26.26-.44.26Zm-3.12-1.59c-.07,0-.15-.02-.22-.05l-.55-.26c-.28-.13-.63-.28-1.02-.42-.26-.1-.39-.39-.29-.65.1-.26.39-.39.65-.29.41.16.79.31,1.09.45l.56.26c.25.12.35.42.24.67-.09.18-.27.28-.45.28Z"/>
      <path d="m22.35,12.59c-.05,0-.1,0-.16-.03-.35-.12-.68-.22-.94-.3-.26-.08-.41-.36-.33-.62.08-.26.36-.41.62-.33.27.08.6.19.96.31.26.09.4.37.32.63-.07.21-.26.34-.47.34Z"/>
    </g>
    <g>
      <path d="m27.51,31.02c-.27,0-.49-.22-.5-.49,0-.28.21-.5.49-.51.33,0,.65-.02.98-.04.28-.01.51.19.53.46.02.28-.19.51-.47.53-.34.02-.68.04-1.02.04h-.01Z"/>
      <path d="m25.79,30.99s-.02,0-.03,0c-.57-.03-1.15-.09-1.75-.16-.27-.04-.47-.29-.43-.56.04-.27.29-.47.56-.43.57.07,1.13.13,1.68.16.28.02.49.25.47.53-.02.27-.24.47-.5.47Z"/>
      <path d="m22.38,30.56s-.06,0-.09,0c-.33-.06-.66-.13-1-.2-.27-.06-.44-.33-.38-.6.06-.27.33-.44.6-.38.33.07.65.14.97.2.27.05.45.31.4.58-.04.24-.25.41-.49.41Z"/>
    </g>
  </g>
</svg>