<?xml version="1.0" encoding="UTF-8"?>
<svg id="Layer_1" data-name="Layer 1" xmlns="http://www.w3.org/2000/svg" viewBox="0 0 40 40">
  <path d="m34.91,23.43h-6.91c-1.7,0-3.08-1.38-3.08-3.08v-6.73c0-1.7,1.38-3.08,3.08-3.08h6.91c1.7,0,3.08,1.38,3.08,3.08v6.73c0,1.7-1.38,3.08-3.08,3.08Zm-6.91-11.9c-1.15,0-2.08.94-2.08,2.08v6.73c0,1.15.93,2.08,2.08,2.08h6.91c1.15,0,2.08-.94,2.08-2.08v-6.73c0-1.15-.94-2.08-2.08-2.08h-6.91Z"/>
  <g>
    <g>
      <path d="m36.36,16.64c-.07,0-.15-.02-.22-.05-.38-.18-.86-.34-1.41-.47-.27-.06-.44-.33-.37-.6.06-.27.33-.44.6-.37.62.15,1.16.33,1.61.54.25.12.35.42.24.67-.09.18-.26.28-.45.28Z"/>
      <path d="m32.62,15.82s-.02,0-.03,0c-.71-.05-1.48-.05-2.19,0-.28.02-.51-.19-.53-.47s.19-.51.47-.53c.75-.05,1.57-.05,2.32,0,.28.02.48.26.47.53-.02.26-.24.47-.5.47Z"/>
      <path d="m26.61,16.64c-.19,0-.37-.1-.45-.28-.12-.25-.01-.55.24-.67.45-.21.99-.4,1.61-.54.27-.06.54.1.6.37.06.27-.1.54-.37.6-.55.13-1.02.29-1.41.47-.07.03-.14.05-.22.05Z"/>
    </g>
    <g>
      <path d="m34.85,19.57c-.23,0-.43-.16-.49-.39-.06-.27.1-.54.37-.6.56-.13,1.03-.29,1.41-.47.25-.12.55-.01.67.23.12.25.01.55-.23.67-.45.21-.99.4-1.61.54-.04,0-.08.01-.11.01Z"/>
      <path d="m31.48,19.92c-.36,0-.71,0-1.05-.03-.28-.02-.49-.25-.47-.53.02-.28.26-.49.53-.47.7.04,1.45.04,2.14-.01.26-.03.51.19.53.46.02.28-.19.51-.46.53-.39.03-.8.04-1.22.04Z"/>
      <path d="m28.27,19.6s-.07,0-.11-.01c-.61-.13-1.16-.3-1.62-.5-.25-.11-.37-.41-.26-.66.11-.25.41-.37.66-.26.4.17.88.32,1.43.44.27.06.44.33.38.59-.05.23-.26.39-.49.39Z"/>
    </g>
  </g>
  <path d="m34.02,11.53c-.28,0-.5-.22-.5-.5v-5.68c0-.28.22-.5.5-.5s.5.22.5.5v5.68c0,.28-.22.5-.5.5Zm-5.13,0c-.28,0-.5-.22-.5-.5v-5.68c0-.28.22-.5.5-.5s.5.22.5.5v5.68c0,.28-.22.5-.5.5Z"/>
  <path d="m6.81,23.36c-.09,0-.19-.03-.27-.08-1.07-.69-1.79-1.6-1.82-1.64-.13-.15-3.75-4.36-2.45-11.91.05-.27.31-.44.56-.41,2.55.35,4.72,1.08,6.47,2.17.23.15.31.45.16.69-.15.24-.46.31-.69.16-1.52-.94-3.4-1.6-5.6-1.95-.98,6.75,2.27,10.58,2.31,10.62.03.03.66.84,1.58,1.43.23.15.3.46.15.69-.1.15-.26.23-.42.23Z"/>
  <path d="m10.57,24.77c-.73,0-1.53-.15-2.4-.53-4.96-2.12-3.06-7.32-2.92-7.67,1.32-3.81,4.51-6.63,9.5-8.36.26-.09.54.05.64.31,2.98,8.43.6,12.47.49,12.64,0,0-1.79,3.61-5.3,3.61Zm4.03-15.44c-4.41,1.64-7.24,4.19-8.41,7.58,0,0,0,.02,0,.03-.08.19-1.82,4.6,2.38,6.39,4.21,1.8,6.35-2.46,6.44-2.64.04-.08,2.15-3.74-.4-11.35Zm-8.88,7.42h0,0Z"/>
  <g>
    <g>
      <path d="m9.47,15.06s-.05,0-.07,0c-.33-.04-.64-.06-.92-.06-.25-.02-.5-.22-.5-.5s.22-.5.5-.5c.32.01.69.02,1.07.07.27.04.46.29.43.56-.03.25-.25.43-.49.43Z"/>
      <path d="m12.68,16.06c-.07,0-.15-.02-.22-.05-.21-.1-.43-.2-.66-.29-.28-.12-.57-.22-.84-.31-.26-.08-.41-.36-.33-.63.08-.26.37-.41.63-.33.3.1.61.21.92.33.25.1.49.21.72.32.25.12.35.42.23.67-.09.18-.26.28-.45.28Z"/>
      <path d="m14.92,17.54c-.12,0-.24-.04-.34-.13-.21-.2-.46-.39-.73-.58-.23-.16-.28-.47-.12-.7.16-.23.47-.28.7-.12.31.22.58.44.83.67.2.19.21.5.03.71-.1.11-.23.16-.37.16Z"/>
    </g>
    <g>
      <path d="m7.86,18.48c-.11,0-.22-.03-.31-.11-.3-.24-.57-.48-.8-.72-.19-.2-.18-.52.02-.71.2-.19.52-.18.71.02.19.21.42.41.68.62.22.17.26.48.09.7-.1.13-.25.19-.39.19Z"/>
      <path d="m11.24,20.2s-.1,0-.15-.02c-.31-.1-.63-.21-.95-.34-.31-.12-.6-.26-.89-.4-.25-.12-.35-.42-.22-.67.12-.25.42-.35.67-.22.26.13.53.25.82.37.29.12.59.22.87.31.26.08.41.36.33.63-.07.21-.26.35-.48.35Z"/>
      <path d="m13.8,20.64c-.24,0-.49-.01-.75-.04-.27-.03-.47-.27-.45-.55.03-.28.28-.48.55-.45.33.03.64.04.92.03.31-.02.51.2.53.47.02.28-.19.51-.47.53-.1,0-.21,0-.32,0Z"/>
    </g>
  </g>
  <path d="m29.29,35.15H11.83c-1.82,0-3.31-1.48-3.31-3.31v-7.63c0-.28.22-.5.5-.5s.5.22.5.5v7.63c0,1.27,1.04,2.31,2.31,2.31h17.46c1.27,0,2.31-1.04,2.31-2.31v-8.37c0-.28.22-.5.5-.5s.5.22.5.5v8.37c0,1.82-1.48,3.31-3.31,3.31Z"/>
</svg>