<svg width="245" height="205" viewBox="0 0 245 205" fill="none" xmlns="http://www.w3.org/2000/svg">
<g clip-path="url(#clip0_43280_12614)">
<mask id="mask0_43280_12614" style="mask-type:luminance" maskUnits="userSpaceOnUse" x="59" y="54" width="127" height="98">
<path d="M185.964 54H59V151.633H185.964V54Z" fill="white"/>
</mask>
<g mask="url(#mask0_43280_12614)">
<path d="M149.046 128.274L151.256 126.883L173.224 110.348C180.683 103.677 185.373 96.0391 185.361 85.7712C185.337 65.2356 169.285 54.9839 150.34 55.0081C141.55 55.0081 133.838 57.3916 127.685 61.7028V54.0039L58.9844 54.0805L59.0125 77.5279L79.4049 77.4997L79.4933 151.532L107.811 151.496L107.723 77.4674H115.359C113.992 80.9208 113.071 84.5354 112.618 88.2232L136.551 92.9055C136.953 85.5494 139.436 76.3705 148.286 76.3705C154.094 76.3705 157.558 80.8067 157.562 86.352C157.562 94.68 150.666 100.516 144.866 105.516L112.678 129.835L112.706 151.613L184.887 151.528L185.984 128.222L149.046 128.274Z" fill="black"/>
</g>
</g>
<defs>
<clipPath id="clip0_43280_12614">
<rect width="127" height="98" fill="white" transform="translate(59 54)"/>
</clipPath>
</defs>
</svg>
