<svg width="100" height="100" viewBox="0 0 100 100" fill="none" xmlns="http://www.w3.org/2000/svg">
<path d="M44.1764 54.8966L42.8072 57.8362L48.0624 62.076C47.9312 63.0122 47.9107 63.9321 47.9558 64.8888L43.1434 68.1432L44.2542 71.1769L45.3651 74.2105L51.145 73.5973C51.727 74.3536 52.3419 75.0446 53.047 75.6742L51.7762 82.2934L54.7153 83.6344L57.6626 85L61.8479 79.8117L61.8725 79.8036M46.4842 46.319L49.3044 43.5429L45.0782 36.4617C45.6234 35.4396 46.0374 34.3848 46.394 33.2686L53.3011 31.5474V23.6321L46.394 21.9108C46.0374 20.7947 45.6275 19.744 45.0782 18.7177L49.3044 11.6365L46.4842 8.83183L43.7009 6.05576L36.6626 10.2628C35.6132 9.72312 34.49 9.24477 33.3095 8.92587L31.5796 2H23.6518L22.2704 9.12211C22.2704 9.12211 20.2536 9.28156 18.0769 10.7289L11.5962 6.05167L8.78003 8.82774L5.9639 11.6365L10.2188 18.7177C9.67365 19.7399 9.25963 20.7906 8.9071 21.9068L2 23.628V27.5815V31.5351L8.9071 33.2563C9.25963 34.3725 9.67365 35.4273 10.2188 36.4453L5.9639 43.5266L8.78003 46.3026L11.5962 49.1114L18.6016 44.9003M18.6016 44.9003H18.6344M18.6016 44.9003H18.6303C19.6879 45.4441 20.7742 45.8856 21.9261 46.2413L23.6518 53.1304H31.5796L33.3095 46.2413C34.49 45.9224 35.6132 45.4441 36.6626 44.9003C36.6626 44.9003 42.8031 51.5686 52.1288 53.2285C52.7846 52.5171 53.4938 51.8711 54.2767 51.2783L53.6536 45.489L56.6952 44.3811L59.7368 43.2731L63.008 48.0975C64.0041 48.0116 64.996 48.0648 65.9594 48.1833L70.1692 42.9869L73.0837 44.3361L76.031 45.7016L74.7849 52.3127C75.4899 52.9423 76.1048 53.6333 76.6869 54.3896L82.4667 53.7764L83.5776 56.81L84.6885 59.8437L79.876 63.0981C79.9211 64.0507 79.8965 64.9747 79.7695 65.9109L85 70.1589L83.6227 73.0739L82.2781 76.0054L75.699 74.7461C75.0431 75.4575 74.3176 76.1362 73.5018 76.7127L74.1167 82.4774L71.0751 83.5854L68.0335 84.6934L64.7706 79.8935C63.7909 79.9466 62.8317 79.9099 61.8684 79.7872L61.8438 79.7954M61.9258 58.568C64.9182 57.4764 68.2344 59.0096 69.3289 61.9942C70.4315 65.0033 68.8944 68.3109 65.902 69.4025C62.9096 70.4941 59.5933 68.9609 58.4907 65.9518C57.3962 62.9672 58.9334 59.6597 61.9258 58.568ZM21.5899 29.7484C22.7992 33.0437 26.4352 34.7282 29.7104 33.5303C32.9897 32.3323 34.6745 28.71 33.4652 25.4106C32.2642 22.1398 28.6323 20.4594 25.353 21.6533C22.0736 22.8512 20.3889 26.4736 21.5858 29.7443L21.5899 29.7484Z" stroke="url(#paint0_linear_202_829)" stroke-width="3" stroke-linecap="round" stroke-linejoin="round"/>
<defs>
<linearGradient id="paint0_linear_202_829" x1="6.10737" y1="9.56776" x2="84.3837" y2="75.4219" gradientUnits="userSpaceOnUse">
<stop stop-color="#FEC010"/>
<stop offset="0.7" stop-color="#F06516"/>
<stop offset="1" stop-color="#F03016"/>
</linearGradient>
</defs>
</svg>
