<svg width="100" height="100" viewBox="0 0 100 100" fill="none" xmlns="http://www.w3.org/2000/svg">
<path d="M26.498 83H19.6827C18.2092 83 17.0139 81.9953 17.0139 80.7499C17.0139 79.5083 18.2092 78.4998 19.6827 78.4998H22.0322H33.3132C34.7867 78.4998 35.982 77.4951 35.982 76.2497C35.982 75.0081 34.7867 73.9996 33.3132 73.9996H19.6827C18.2092 73.9996 17.0139 72.9949 17.0139 71.7495C17.0139 70.5079 18.2092 69.4994 19.6827 69.4994H22.0322H33.3132C34.7867 69.4994 35.982 68.4947 35.982 67.2493C35.982 66.0077 34.7867 64.9992 33.3132 64.9992H26.498H31.725H20.4359C20.0225 64.9992 19.6295 64.8616 19.3348 64.6133C19.036 64.3612 18.8723 64.0326 18.8723 63.6812V55.185C18.8723 52.721 18.3893 50.3945 17.4356 48.2704C16.2281 45.5925 14.2101 44.0376 12.0693 42.3911C11.3366 41.8257 10.5794 41.2451 9.85081 40.6071C8.19714 39.163 6.78089 37.5547 5.64297 35.8356C3.26071 32.2408 2 28.0959 2 23.8478C1.99591 11.6002 12.757 2 26.498 2C40.2389 2 51 11.6002 51 23.8554C51 28.7148 49.2972 33.5397 46.2027 37.4325C44.9911 38.9568 43.4193 40.2021 41.7575 41.5201C39.3466 43.4264 36.8579 45.4015 35.5644 48.2857C34.6107 50.4098 34.1277 52.7363 34.1277 55.2003V57.8401C34.1277 58.734 33.2681 59.4598 32.208 59.4598H29.6907C28.6305 59.4598 27.7709 58.734 27.7709 57.8401V43.7435C27.7709 43.1781 28.1762 42.6509 28.8024 42.4064C31.0332 41.5354 33.4155 39.6482 33.4155 36.955C33.4155 34.8195 32.4086 33.9446 31.6759 33.3105C31.1642 32.8673 30.9514 32.6801 30.9514 32.0689C30.9514 31.4577 31.901 29.9945 32.8179 28.5658C34.5125 25.926 36.8333 22.3083 37.1608 18.595C37.2181 17.9494 36.8374 17.3496 36.1702 17.0287C35.5071 16.7116 34.709 16.746 34.0868 17.1128C33.3664 17.5406 32.9039 18.1633 32.4945 18.7134C31.8887 19.5271 31.6186 19.7984 31.2133 19.7984C30.8081 19.7984 30.538 19.5271 29.9363 18.7134C29.2813 17.831 28.3849 16.62 26.502 16.62C24.6192 16.62 23.7227 17.831 23.0678 18.7134C22.462 19.5271 22.196 19.7984 21.7866 19.7984C21.3773 19.7984 21.1113 19.5271 20.5096 18.7134C20.1002 18.1633 19.6377 17.5406 18.9173 17.1128C18.2951 16.7422 17.497 16.7078 16.8338 17.0287C16.1667 17.3496 15.786 17.9456 15.8433 18.595C16.1707 22.3083 18.4916 25.926 20.1862 28.5658C21.1031 29.9984 22.0527 31.4768 22.0527 32.0689C22.0527 32.661 21.8399 32.8673 21.3282 33.3105C20.5955 33.9485 19.5886 34.8233 19.5886 36.955" stroke="url(#paint0_linear_202_818)" stroke-width="3" stroke-linecap="round" stroke-linejoin="round"/>
<defs>
<linearGradient id="paint0_linear_202_818" x1="-2.47389" y1="19.2139" x2="48.4154" y2="64.9658" gradientUnits="userSpaceOnUse">
<stop stop-color="#FEC010"/>
<stop offset="0.7" stop-color="#F06516"/>
<stop offset="1" stop-color="#F03016"/>
</linearGradient>
</defs>
</svg>
