<svg width="100" height="100" viewBox="0 0 100 100" fill="none" xmlns="http://www.w3.org/2000/svg">
<path d="M40.916 70.5383H36.8355C35.4472 70.5383 34.4182 69.2514 34.7287 67.8982L35.4295 64.8556C35.7399 63.5068 34.7109 62.2154 33.3227 62.2154H4.16447C2.97135 62.2154 2 61.2514 2 60.0573V5.15811C2 3.9685 2.96691 3 4.16447 3H40.61M50.8335 76.5041H74.5141C75.9866 76.5041 77.1841 77.6981 77.1841 79.1664V81.3377C77.1841 82.806 75.9866 84 74.5141 84H16.486C15.0134 84 13.8159 82.806 13.8159 81.3377V79.1664C13.8159 77.6981 15.0134 76.5041 16.486 76.5041H35.1811C44.6107 76.5041 45.2982 70.5383 50.1283 70.5383H54.1601C55.5484 70.5383 56.5774 69.2514 56.2669 67.8982L55.5661 64.8556C55.2556 63.5068 56.2846 62.2154 57.6729 62.2154H86.8355C88.0287 62.2154 89 61.2514 89 60.0573V5.15811C89 3.9685 88.0331 3 86.8355 3H50.359L50.3678 33.3241L34.8529 48.7936C39.2572 53.185 45.52 55.7146 52.3638 55.1131C63.2171 54.1579 71.7996 45.1893 72.2919 34.3369C72.8109 22.8918 64.5078 13.2687 53.5835 11.6723V11.6634C52.0843 11.4423 50.5408 11.376 48.9574 11.4732C37.9133 12.1631 29.0203 21.1361 28.4437 32.1522C28.2752 35.4292 28.8252 38.5646 29.9606 41.4038" stroke="url(#paint0_linear_202_831)" stroke-width="3" stroke-linecap="round" stroke-linejoin="round"/>
<defs>
<linearGradient id="paint0_linear_202_831" x1="2.1375" y1="2.14206" x2="86.5766" y2="73.2062" gradientUnits="userSpaceOnUse">
<stop stop-color="#FEC010"/>
<stop offset="0.7" stop-color="#F06516"/>
<stop offset="1" stop-color="#F03016"/>
</linearGradient>
</defs>
</svg>
