<?xml version="1.0" encoding="UTF-8"?>
<svg id="Layer_1" data-name="Layer 1" xmlns="http://www.w3.org/2000/svg" viewBox="0 0 80 80">
  <g>
    <path d="m31.81,54.67h-1.6c-.39,0-.7-.31-.7-.7s.31-.7.7-.7h1.6c.39,0,.7.31.7.7s-.31.7-.7.7Z"/>
    <path d="m26.99,54.67h-3.21c-.39,0-.7-.31-.7-.7s.31-.7.7-.7h3.21c.39,0,.7.31.7.7s-.31.7-.7.7Zm-6.42,0h-2.98s-.07,0-.1,0c0,0-.09-.01-.26-.04-.38-.07-.63-.44-.56-.82.07-.38.45-.63.82-.56l.16.03h2.92c.39,0,.7.31.7.7s-.31.7-.7.7Zm-6.28-1c-.09,0-.19-.02-.28-.06-1.09-.47-2.08-1.04-2.92-1.7-.31-.24-.36-.68-.12-.98.24-.3.67-.36.98-.12.75.58,1.64,1.1,2.62,1.52.35.15.52.56.37.92-.11.26-.37.42-.64.42Zm-4.95-3.95c-.23,0-.46-.11-.59-.32-.62-.97-1.05-2.05-1.28-3.21-.07-.38.17-.75.55-.82.37-.07.75.17.82.55.19.98.55,1.9,1.08,2.72.21.33.12.76-.21.97-.12.08-.25.11-.38.11Zm-1.31-6.16s-.04,0-.05,0c-.38-.03-.67-.37-.64-.75.09-1.18.3-2.3.64-3.31.12-.37.51-.57.88-.45.37.12.57.52.45.88-.3.91-.49,1.91-.57,2.98-.03.37-.33.65-.7.65Zm2.04-6c-.14,0-.29-.04-.41-.13-.31-.23-.38-.67-.15-.98.68-.93,1.51-1.73,2.48-2.38.32-.22.76-.13.97.19.22.32.13.76-.19.97-.83.56-1.54,1.25-2.13,2.05-.14.19-.35.29-.57.29Z"/>
    <path d="m15.31,34.02c-.31,0-.59-.21-.68-.52-.1-.37.12-.76.5-.86.39-.1.77-.18,1.14-.24.06-.29.14-.67.28-1.12.11-.37.5-.58.87-.47.37.11.58.5.47.87-.25.85-.31,1.42-.32,1.43-.03.34-.3.6-.64.63-.46.04-.95.12-1.45.25-.06.02-.12.02-.18.02Z"/>
    <path d="m18.76,28.95c-.14,0-.27-.04-.39-.12-.32-.22-.4-.65-.18-.97.73-1.06,1.62-1.99,2.65-2.74.31-.23.75-.16.98.15.23.31.16.75-.15.98-.9.66-1.68,1.47-2.32,2.41-.14.2-.35.3-.58.3Zm5.69-4.15c-.31,0-.59-.2-.67-.51-.1-.37.12-.76.49-.86,1.2-.33,2.55-.44,3.8-.34.38.03.67.37.64.75s-.38.67-.75.64c-1.1-.08-2.28,0-3.32.29-.06.02-.12.03-.19.03Z"/>
    <path d="m32.99,25.9c-.12,0-.23-.03-.34-.09,0,0-.52-.29-1.36-.6-.36-.13-.55-.54-.42-.9.13-.36.54-.55.9-.42.35.13.66.25.9.36.13-.23.29-.52.5-.84.21-.32.64-.42.97-.21.32.21.42.64.21.97-.5.77-.7,1.27-.7,1.28-.07.19-.23.33-.42.4-.08.03-.16.04-.24.04Z"/>
    <path d="m65.33,29.36c-.31,0-.6-.21-.68-.53-.26-1-.63-2.01-1.12-3-.17-.35-.03-.77.32-.94.35-.17.77-.02.94.32.53,1.08.94,2.18,1.22,3.27.1.38-.13.76-.5.85-.06.02-.12.02-.18.02Zm-2.9-6c-.22,0-.43-.1-.57-.29-.65-.89-1.37-1.7-2.13-2.41-.28-.26-.3-.71-.03-.99.26-.28.71-.3.99-.03.82.77,1.6,1.65,2.3,2.61.23.31.16.75-.15.98-.12.09-.27.14-.41.14Zm-26.53-1.43c-.18,0-.36-.07-.5-.21-.27-.28-.26-.72.01-.99.81-.79,1.73-1.52,2.71-2.18.32-.21.76-.12.97.2.21.32.12.76-.2.97-.92.61-1.76,1.28-2.51,2.01-.14.13-.31.2-.49.2Zm21.64-3.08c-.12,0-.24-.03-.35-.09-.92-.53-1.9-.98-2.92-1.33-.37-.13-.56-.52-.43-.89s.52-.56.89-.43c1.11.38,2.17.87,3.17,1.44.33.19.45.62.25.96-.13.22-.36.35-.61.35Zm-16.09-.62c-.27,0-.52-.15-.64-.41-.16-.35,0-.77.35-.93.9-.41,1.86-.77,2.85-1.08.13-.04.26-.08.4-.12.38-.1.76.12.86.49s-.12.76-.49.86l-.36.11c-.93.29-1.84.63-2.68,1.01-.09.04-.19.06-.29.06Zm9.79-1.55s-.07,0-.1,0c-1.07-.15-2.15-.2-3.21-.14-.37,0-.72-.27-.74-.66-.02-.39.27-.72.66-.74,1.15-.06,2.32-.01,3.48.15.38.05.65.41.59.79-.05.35-.35.6-.69.6Z"/>
    <path d="m66.93,35.13c-.14,0-.28-.04-.4-.13-.73-.52-1.26-.79-1.26-.79-.28-.14-.44-.46-.37-.77.06-.3.11-.62.14-1.05,0-.13.01-.27.02-.41,0-.39.35-.67.71-.69.39,0,.69.33.69.71,0,.16,0,.32-.02.47-.02.27-.04.51-.07.73.25.15.59.36.98.64.32.22.39.66.17.98-.14.19-.35.29-.57.29Z"/>
    <path d="m61.78,54.68h-3.02c-.39,0-.7-.31-.7-.7s.31-.7.7-.7h3.02c.39,0,.7.31.7.7s-.31.7-.7.7Zm-6.04,0h-3.02c-.39,0-.7-.31-.7-.7s.31-.7.7-.7h3.02c.39,0,.7.31.7.7s-.31.7-.7.7Zm9.05-.16c-.29,0-.57-.19-.67-.48-.12-.37.08-.76.45-.88.72-.23,1.6-.73,2.42-1.36.31-.24.75-.18.98.13.24.31.18.75-.13.98-.95.73-1.96,1.3-2.84,1.58-.07.02-.15.04-.22.04Zm4.77-3.59c-.15,0-.31-.05-.43-.15-.3-.24-.36-.68-.12-.98.6-.76,1.09-1.57,1.46-2.43.15-.36.57-.52.92-.37.36.15.52.57.37.92-.42.97-.97,1.89-1.64,2.74-.14.17-.34.27-.55.27Zm2.36-5.48s-.06,0-.1,0c-.38-.05-.65-.41-.6-.79.04-.3.07-.61.09-.93,0-.15.01-.31.01-.46,0-.48-.04-.95-.11-1.41-.06-.38.2-.74.58-.8.38-.06.74.19.8.58.09.53.13,1.08.13,1.63,0,.18,0,.35-.01.53-.02.36-.05.71-.1,1.05-.05.35-.35.6-.69.6Zm-.97-5.86c-.25,0-.5-.14-.62-.38-.42-.8-.97-1.58-1.64-2.31-.26-.29-.24-.73.04-.99.29-.26.73-.24.99.04.75.82,1.37,1.7,1.85,2.61.18.34.04.77-.3.94-.1.05-.21.08-.32.08Z"/>
    <path d="m49.67,54.68h-1.6c-.39,0-.7-.31-.7-.7s.31-.7.7-.7h1.6c.39,0,.7.31.7.7s-.31.7-.7.7Z"/>
  </g>
  <path d="m39.85,64.9c-.39,0-.7-.31-.7-.7v-27.06c0-.39.31-.7.7-.7s.7.31.7.7v27.06c0,.39-.31.7-.7.7Z"/>
  <path d="m29.03,47.46c-.19,0-.39-.08-.52-.24-.26-.29-.23-.73.06-.99l10.88-9.62c.27-.24.67-.23.94,0l10.47,9.62c.29.26.3.71.04.99-.26.29-.71.3-.99.04l-10-9.19-10.4,9.2c-.13.12-.3.18-.46.18Z"/>
</svg>