<?xml version="1.0" encoding="UTF-8"?>
<svg id="Layer_1" data-name="Layer 1" xmlns="http://www.w3.org/2000/svg" viewBox="0 0 80 80">
  <g>
    <path d="m32.96,27.17c-.39,0-.7-.31-.7-.7v-1.6c0-.39.31-.7.7-.7s.7.31.7.7v1.6c0,.39-.31.7-.7.7Z"/>
    <path d="m29.57,65h-.47c-.39,0-.7-.31-.7-.7s.31-.7.7-.7h.47c.73,0,1.41-.29,1.92-.8.27-.28.71-.28.99,0,.28.27.28.71,0,.99-.77.79-1.81,1.22-2.92,1.22Zm-3.62,0h-3.16c-.39,0-.7-.31-.7-.7s.31-.7.7-.7h3.16c.39,0,.7.31.7.7s-.31.7-.7.7Zm-6.32,0h-3.16c-.39,0-.7-.31-.7-.7s.31-.7.7-.7h3.16c.39,0,.7.31.7.7s-.31.7-.7.7Zm-6.32,0h-3.16c-.39,0-.7-.31-.7-.7s.31-.7.7-.7h3.16c.39,0,.7.31.7.7s-.31.7-.7.7Zm-6.2-.58c-.13,0-.27-.04-.39-.12-1.07-.72-1.74-1.92-1.79-3.21-.02-.39.28-.71.67-.73.38-.03.71.28.73.67.04.84.48,1.63,1.18,2.11.32.22.4.65.19.97-.13.2-.36.31-.58.31Zm25.85-3.33c-.39,0-.7-.31-.7-.7v-3.16c0-.39.31-.7.7-.7s.7.31.7.7v3.16c0,.39-.31.7-.7.7Zm-27.33-2.48c-.39,0-.7-.31-.7-.7v-3.16c0-.39.31-.7.7-.7s.7.31.7.7v3.16c0,.39-.31.7-.7.7Zm0-6.32c-.39,0-.7-.31-.7-.7v-3.16c0-.39.31-.7.7-.7s.7.31.7.7v3.16c0,.39-.31.7-.7.7Zm0-6.32c-.39,0-.7-.31-.7-.7v-3.16c0-.39.31-.7.7-.7s.7.31.7.7v3.16c0,.39-.31.7-.7.7Zm0-6.32c-.39,0-.7-.31-.7-.7v-3.16c0-.39.31-.7.7-.7s.7.31.7.7v3.16c0,.39-.31.7-.7.7Zm0-6.32c-.39,0-.7-.31-.7-.7v-3.16c0-.39.31-.7.7-.7s.7.31.7.7v3.16c0,.39-.31.7-.7.7Zm0-6.32c-.39,0-.7-.31-.7-.7v-3.16c0-.39.31-.7.7-.7s.7.31.7.7v3.16c0,.39-.31.7-.7.7Zm27.33-4.61c-.39,0-.7-.31-.7-.7v-2.62c0-.14-.01-.29-.03-.42-.06-.38.2-.74.58-.8.38-.06.74.2.8.58.03.21.05.42.05.64v2.62c0,.39-.31.7-.7.7Zm-27.33-1.71c-.39,0-.7-.31-.7-.7v-.91c0-.92.3-1.79.87-2.52.24-.3.68-.36.98-.12.3.24.36.68.12.98-.37.47-.57,1.05-.57,1.65v.91c0,.39-.31.7-.7.7Zm25.51-3.92c-.11,0-.22-.03-.32-.08-.39-.2-.8-.3-1.24-.3h-1.53c-.39,0-.7-.31-.7-.7s.31-.7.7-.7h1.53c.66,0,1.31.16,1.89.46.34.18.48.6.3.94-.12.24-.37.38-.62.38Zm-6.25-.38h-3.16c-.39,0-.7-.31-.7-.7s.31-.7.7-.7h3.16c.39,0,.7.31.7.7s-.31.7-.7.7Zm-6.32,0h-3.16c-.39,0-.7-.31-.7-.7s.31-.7.7-.7h3.16c.39,0,.7.31.7.7s-.31.7-.7.7Zm-6.32,0h-3.16c-.39,0-.7-.31-.7-.7s.31-.7.7-.7h3.16c.39,0,.7.31.7.7s-.31.7-.7.7Z"/>
    <path d="m32.96,54.72c-.39,0-.7-.31-.7-.7v-1.6c0-.39.31-.7.7-.7s.7.31.7.7v1.6c0,.39-.31.7-.7.7Z"/>
  </g>
  <path d="m21.36,60.86h-4.14c-.39,0-.7-.31-.7-.7s.31-.7.7-.7h4.14c.39,0,.7.31.7.7s-.31.7-.7.7Z"/>
  <g>
    <path d="m47.04,26.76c-.39,0-.7-.31-.7-.7v-1.6c0-.39.31-.7.7-.7s.7.31.7.7v1.6c0,.39-.31.7-.7.7Z"/>
    <path d="m69.73,65h-3.15c-.39,0-.7-.31-.7-.7s.31-.7.7-.7h3.15c.39,0,.7.31.7.7s-.31.7-.7.7Zm-6.29,0h-3.15c-.39,0-.7-.31-.7-.7s.31-.7.7-.7h3.15c.39,0,.7.31.7.7s-.31.7-.7.7Zm-6.29,0h-3.15c-.39,0-.7-.31-.7-.7s.31-.7.7-.7h3.15c.39,0,.7.31.7.7s-.31.7-.7.7Zm-6.29,0h-.42c-1.12,0-2.17-.45-2.94-1.25-.27-.28-.26-.72.02-.99.28-.27.72-.26.99.02.51.53,1.2.82,1.94.82h.42c.39,0,.7.31.7.7s-.31.7-.7.7Zm21.93-.51c-.23,0-.46-.12-.59-.33-.21-.33-.11-.76.22-.96.72-.45,1.19-1.22,1.26-2.05.03-.39.38-.68.75-.64.39.03.67.37.64.75-.11,1.28-.82,2.44-1.91,3.13-.12.07-.24.11-.37.11Zm-25.74-3.42c-.39,0-.7-.31-.7-.7v-3.15c0-.39.31-.7.7-.7s.7.31.7.7v3.15c0,.39-.31.7-.7.7Zm27.33-2.31c-.39,0-.7-.31-.7-.7v-3.15c0-.39.31-.7.7-.7s.7.31.7.7v3.15c0,.39-.31.7-.7.7Zm0-6.29c-.39,0-.7-.31-.7-.7v-3.15c0-.39.31-.7.7-.7s.7.31.7.7v3.15c0,.39-.31.7-.7.7Zm0-6.29c-.39,0-.7-.31-.7-.7v-3.15c0-.39.31-.7.7-.7s.7.31.7.7v3.15c0,.39-.31.7-.7.7Zm0-6.29c-.39,0-.7-.31-.7-.7v-3.15c0-.39.31-.7.7-.7s.7.31.7.7v3.15c0,.39-.31.7-.7.7Zm0-6.29c-.39,0-.7-.31-.7-.7v-3.15c0-.39.31-.7.7-.7s.7.31.7.7v3.15c0,.39-.31.7-.7.7Zm0-6.29c-.39,0-.7-.31-.7-.7v-3.15c0-.39.31-.7.7-.7s.7.31.7.7v3.15c0,.39-.31.7-.7.7Zm-27.33-5.27c-.39,0-.7-.31-.7-.7v-2.22c0-.37.05-.74.15-1.1.1-.37.49-.58.86-.49.37.1.59.49.49.86-.07.24-.1.48-.1.73v2.22c0,.39-.31.7-.7.7Zm27.33-1.03c-.39,0-.7-.31-.7-.7v-1.19c0-.52-.15-1.03-.43-1.46-.21-.32-.12-.76.2-.97.32-.21.76-.12.97.2.43.66.66,1.43.66,2.23v1.19c0,.39-.31.7-.7.7Zm-25.17-4.35c-.28,0-.54-.17-.65-.45-.14-.36.04-.77.4-.91.47-.18.96-.27,1.47-.27h1.9c.39,0,.7.31.7.7s-.31.7-.7.7h-1.9c-.33,0-.66.06-.97.18-.08.03-.17.05-.25.05Zm22-.22s-.03,0-.05,0c-.06,0-.12,0-.17,0h-2.93c-.39,0-.7-.31-.7-.7s.31-.7.7-.7h2.93c.09,0,.18,0,.27,0,.39.03.68.36.65.75-.02.37-.33.65-.7.65Zm-6.29,0h-3.15c-.39,0-.7-.31-.7-.7s.31-.7.7-.7h3.15c.39,0,.7.31.7.7s-.31.7-.7.7Zm-6.29,0h-3.15c-.39,0-.7-.31-.7-.7s.31-.7.7-.7h3.15c.39,0,.7.31.7.7s-.31.7-.7.7Z"/>
    <path d="m47.04,54.72c-.39,0-.7-.31-.7-.7v-1.6c0-.39.31-.7.7-.7s.7.31.7.7v1.6c0,.39-.31.7-.7.7Z"/>
  </g>
  <path d="m62.78,60.86h-4.14c-.39,0-.7-.31-.7-.7s.31-.7.7-.7h4.14c.39,0,.7.31.7.7s-.31.7-.7.7Z"/>
  <path d="m41.84,55.69h-3.01c-.95,0-1.76-.68-1.94-1.61l-.51-2.61c-.04-.21-.18-.38-.39-.45-1.43-.51-2.76-1.29-3.95-2.32-.15-.14-.34-.17-.52-.11l-2.5.85c-.9.3-1.89-.08-2.35-.91l-1.5-2.65c-.46-.86-.29-1.88.41-2.5l1.96-1.75c.15-.14.23-.36.19-.55-.14-.79-.21-1.55-.21-2.35s.07-1.56.2-2.33c.04-.21-.04-.43-.19-.57l-1.96-1.75c-.69-.61-.87-1.66-.41-2.49l1.51-2.66c.46-.83,1.45-1.21,2.35-.9l2.49.84c.19.07.39.03.54-.1,1.2-1.03,2.53-1.82,3.96-2.33.19-.07.33-.24.38-.45l.51-2.62c.18-.93.99-1.61,1.94-1.61h3.01c.94,0,1.76.68,1.94,1.61l.51,2.61c.04.21.18.38.39.45,1.42.51,2.76,1.29,3.95,2.32.15.14.34.17.52.11l2.5-.85c.9-.31,1.89.08,2.35.91l1.5,2.65s0,0,0,0c.46.83.28,1.88-.42,2.49l-1.96,1.75c-.15.14-.23.36-.19.55.14.79.21,1.55.21,2.35s-.07,1.55-.2,2.33c-.04.21.04.43.19.57l1.96,1.75c.69.61.87,1.65.41,2.48l-1.51,2.66c-.46.83-1.45,1.21-2.35.9l-2.49-.85c-.19-.07-.39-.03-.54.1-1.19,1.03-2.53,1.81-3.96,2.33-.19.07-.34.24-.38.45l-.51,2.62c-.18.93-.99,1.61-1.94,1.61Zm-10.14-8.54c.46,0,.92.17,1.28.49,1.05.91,2.23,1.6,3.51,2.06.67.25,1.14.81,1.28,1.5l.51,2.61c.05.28.29.47.56.47h3.01c.27,0,.51-.2.56-.47l.51-2.62c.13-.69.61-1.25,1.27-1.5,1.28-.46,2.47-1.15,3.53-2.07.54-.46,1.27-.6,1.92-.36l2.47.84c.26.09.54-.02.68-.27l1.51-2.66c.13-.25.08-.57-.12-.75l-1.97-1.76c-.53-.48-.77-1.19-.63-1.87.12-.68.18-1.36.18-2.07s-.06-1.4-.18-2.09c-.14-.66.1-1.38.63-1.85l1.97-1.76c.21-.18.26-.51.12-.76l-1.5-2.65c-.14-.25-.42-.36-.68-.27l-2.49.84c-.65.24-1.39.1-1.92-.38-1.05-.91-2.24-1.6-3.51-2.06-.67-.25-1.15-.81-1.28-1.5l-.51-2.61c-.05-.28-.29-.47-.56-.47h-3.01c-.27,0-.51.2-.56.47l-.51,2.62c-.13.69-.61,1.25-1.27,1.5-1.28.46-2.46,1.15-3.53,2.07-.54.46-1.27.6-1.92.36l-2.47-.84c-.26-.09-.54.02-.68.27l-1.51,2.65c-.13.25-.08.57.12.75l1.97,1.76c.52.47.76,1.19.63,1.87-.12.67-.18,1.36-.18,2.07s.06,1.4.18,2.09c.14.66-.1,1.38-.63,1.85l-1.97,1.76c-.21.19-.26.51-.12.77l1.5,2.64c.14.25.42.36.69.27l2.49-.85c.21-.08.43-.11.64-.11Zm8.64-.57c-4.25,0-7.72-3.52-7.72-7.85s3.46-7.85,7.72-7.85,7.72,3.52,7.72,7.85-3.46,7.85-7.72,7.85Zm0-14.3c-3.48,0-6.32,2.89-6.32,6.45s2.83,6.45,6.32,6.45,6.32-2.89,6.32-6.45-2.83-6.45-6.32-6.45Z"/>
</svg>