<?xml version="1.0" encoding="UTF-8"?>
<svg id="Layer_1" data-name="Layer 1" xmlns="http://www.w3.org/2000/svg" viewBox="0 0 80 80">
  <g>
    <path d="m68.5,68.31c-.39,0-.7-.31-.7-.7,0-.39.31-.7.7-.7h.9v-.9c0-.39.31-.7.7-.7s.7.31.7.7v1.6c0,.39-.31.7-.7.7h-1.6Z"/>
    <path d="m29.54,68.34c-.39,0-.7-.31-.7-.7,0-.39.31-.7.7-.7h3.25c.39,0,.7.31.7.7s-.31.7-.7.7h-3.25Zm-3.25,0h-3.25c-.39,0-.7-.31-.7-.7s.31-.7.7-.7h3.25c.39,0,.7.31.7.7s-.31.7-.7.7Zm-6.49,0h-3.25c-.39,0-.7-.32-.7-.7,0-.39.31-.7.7-.7h3.25c.39,0,.7.32.7.7,0,.39-.31.7-.7.7Zm16.23,0c-.39,0-.7-.31-.7-.7s.31-.7.7-.7h3.24s0,.7,0,.7v.7s-3.25,0-3.25,0Zm6.5,0c-.39,0-.7-.31-.7-.7s.31-.7.7-.7h3.25c.39,0,.7.31.7.7,0,.39-.31.7-.7.7h-3.25Zm-29.22,0h0c-1.7,0-2.85,0-3.26-.01-.39,0-.7-.32-.69-.71,0-.39.29-.71.71-.69.41,0,1.55.01,3.24.01.39,0,.7.32.7.7,0,.39-.31.7-.7.7Zm35.71,0c-.39,0-.7-.31-.7-.7s.31-.7.7-.7h3.25c.39,0,.7.31.7.7,0,.39-.31.7-.7.7h-3.25Zm6.49,0c-.39,0-.7-.31-.7-.7,0-.39.31-.7.7-.7h3.25c.39,0,.7.31.7.7,0,.39-.31.7-.7.7h-3.25Zm6.5,0c-.39,0-.7-.31-.7-.7,0-.39.31-.7.7-.7h3.25c.39,0,.7.31.7.7,0,.39-.31.7-.7.7h-3.25Zm-52.12-3.08c-.39,0-.7-.31-.7-.7v-3.25c0-.39.31-.7.7-.7s.7.31.7.7v3.25c0,.39-.31.7-.7.7Zm0-6.49c-.39,0-.7-.31-.7-.7v-3.25c0-.39.31-.7.7-.7s.7.31.7.7v3.25c0,.39-.31.7-.7.7Zm0-6.49c-.39,0-.7-.31-.7-.7v-3.25c0-.39.31-.7.7-.7s.7.31.7.7v3.25c0,.39-.31.7-.7.7Zm0-6.49c-.39,0-.7-.31-.7-.7v-3.25c0-.39.31-.7.7-.7s.7.31.7.7v3.25c0,.39-.31.7-.7.7Zm0-6.49c-.39,0-.7-.31-.7-.7v-3.25c0-.39.31-.7.7-.7s.7.31.7.7v3.25c0,.39-.31.7-.7.7Zm0-6.49c-.39,0-.7-.31-.7-.7v-3.25c0-.39.31-.7.7-.7s.7.31.7.7v3.25c0,.39-.31.7-.7.7Z"/>
    <path d="m9.9,26.31c-.39,0-.7-.31-.7-.7v-1.6c0-.39.31-.7.7-.7h1.6c.39,0,.7.31.7.7,0,.39-.31.7-.7.7h-.9v.9c0,.39-.31.7-.7.7Z"/>
    <path d="m70.1,63.49c-.39,0-.7-.31-.7-.7v-3.25c0-.39.31-.7.7-.7s.7.31.7.7v3.25c0,.39-.31.7-.7.7Zm0-6.49c-.39,0-.7-.31-.7-.7v-3.25c0-.39.31-.7.7-.7s.7.31.7.7v3.25c0,.39-.31.7-.7.7Zm0-6.49c-.39,0-.7-.31-.7-.7v-3.25c0-.39.31-.7.7-.7s.7.31.7.7v3.25c0,.39-.31.7-.7.7Zm0-6.49c-.39,0-.7-.31-.7-.7v-3.25c0-.39.31-.7.7-.7s.7.31.7.7v3.25c0,.39-.31.7-.7.7Zm0-6.49c-.39,0-.7-.31-.7-.7v-3.25c0-.39.31-.7.7-.7s.7.31.7.7v3.25c0,.39-.31.7-.7.7Zm0-6.49c-.39,0-.7-.31-.7-.7v-3.25c0-.39.31-.7.7-.7s.7.31.7.7v3.25c0,.39-.31.7-.7.7Zm-.17-6.33h0c-.41,0-1.55-.01-3.24-.01-.39,0-.7-.32-.7-.7,0-.39.27-.71.7-.7,1.7,0,2.85,0,3.26.01.39,0,.7.32.69.71,0,.38-.32.69-.7.69Zm-55.2,0c-.39,0-.7-.31-.7-.7,0-.39.31-.7.7-.7h3.25c.39,0,.7.31.7.7,0,.39-.31.7-.7.7h-3.25Zm6.5,0c-.39,0-.7-.31-.7-.7,0-.39.31-.7.7-.7h3.25c.39,0,.7.31.7.7,0,.39-.31.7-.7.7h-3.25Zm6.49,0c-.39,0-.7-.31-.7-.7,0-.39.31-.7.7-.7h3.25c.39,0,.7.31.7.7s-.31.7-.7.7h-3.25Zm6.5,0c-.39,0-.7-.31-.7-.7,0-.39.31-.7.7-.7h3.25c.39,0,.7.31.7.7s-.31.7-.7.7h-3.25Zm6.5,0v-.7s0-.7,0-.7h3.24c.39,0,.7.31.7.7s-.31.7-.7.7h-3.24Zm22.72,0h-3.25c-.39,0-.7-.32-.7-.7,0-.39.31-.7.7-.7h3.25c.39,0,.7.32.7.7,0,.39-.31.7-.7.7Zm-16.23,0c-.39,0-.7-.31-.7-.7s.31-.7.7-.7h3.25c.39,0,.7.31.7.7,0,.39-.31.7-.7.7h-3.25Zm9.74,0h-3.25c-.39,0-.7-.31-.7-.7s.31-.7.7-.7h3.25c.39,0,.7.31.7.7s-.31.7-.7.7Z"/>
  </g>
  <path d="m44.96,41.02c-.18,0-.36-.07-.5-.21-.27-.27-.27-.72,0-.99l1.76-1.76c.27-.27.72-.27.99,0s.27.72,0,.99l-1.76,1.76c-.14.14-.32.21-.5.21Z"/>
  <path d="m39.94,53.74c-4.4,0-7.98-3.58-7.98-7.98s3.58-7.98,7.98-7.98,7.98,3.58,7.98,7.98-3.58,7.98-7.98,7.98Zm0-14.56c-3.63,0-6.58,2.95-6.58,6.58s2.95,6.58,6.58,6.58,6.58-2.95,6.58-6.58-2.95-6.58-6.58-6.58Z"/>
  <path d="m39.93,39.08c-.39,0-.7-.31-.7-.7v-2.48c0-.39.31-.7.7-.7s.7.31.7.7v2.48c0,.39-.31.7-.7.7Z"/>
  <path d="m39.93,56.31c-.39,0-.7-.31-.7-.7v-2.49c0-.39.31-.7.7-.7s.7.31.7.7v2.49c0,.39-.31.7-.7.7Z"/>
  <path d="m32.58,46.54h-2.49c-.39,0-.7-.31-.7-.7s.31-.7.7-.7h2.49c.39,0,.7.31.7.7s-.31.7-.7.7Z"/>
  <path d="m34.95,41.02c-.18,0-.36-.07-.5-.21l-1.76-1.76c-.27-.27-.27-.72,0-.99s.72-.27.99,0l1.76,1.76c.27.27.27.72,0,.99-.14.14-.32.21-.5.21Z"/>
  <path d="m32.58,53.34c-.18,0-.36-.07-.49-.2-.27-.27-.27-.72,0-.99l1.75-1.76c.27-.27.72-.27.99,0,.27.27.27.72,0,.99l-1.75,1.76c-.14.14-.32.21-.5.21Z"/>
  <path d="m49.82,46.54h-2.49c-.39,0-.7-.31-.7-.7s.31-.7.7-.7h2.49c.39,0,.7.31.7.7s-.31.7-.7.7Z"/>
  <path d="m47.32,53.34c-.18,0-.36-.07-.5-.21l-1.75-1.76c-.27-.27-.27-.72,0-.99.27-.27.72-.27.99,0l1.75,1.76c.27.27.27.72,0,.99-.14.14-.32.2-.49.2Z"/>
  <path d="m51.78,24.58c-.39,0-.7-.31-.7-.7v-4.25c0-3.04-2.44-5.52-5.44-5.52h-11.59c-3.01,0-5.46,2.47-5.46,5.52v3.24c0,.39-.31.7-.7.7s-.7-.31-.7-.7v-3.24c0-3.81,3.08-6.92,6.86-6.92h11.59c3.77,0,6.84,3.1,6.84,6.92v4.25c0,.39-.31.7-.7.7Z"/>
</svg>