<svg width="48" height="48" viewBox="0 0 48 48" fill="none" xmlns="http://www.w3.org/2000/svg">
<g clip-path="url(#clip0_32_590)">
<path d="M46.8496 24.8276C47.3076 24.8276 47.6772 24.4579 47.6772 24C47.6772 23.5421 47.3076 23.1724 46.8496 23.1724H40.4745V14.9517H46.8496C47.3076 14.9517 47.6772 14.5821 47.6772 14.1242C47.6772 13.6662 47.3076 13.2966 46.8496 13.2966H40.4745V8.35588C40.4745 7.89794 40.1048 7.52829 39.6469 7.52829H34.7062V1.15312C34.7062 0.695186 34.3365 0.325531 33.8786 0.325531C33.4207 0.325531 33.051 0.695186 33.051 1.15312V7.52829H24.8303V1.15312C24.8303 0.695186 24.4607 0.325531 24.0027 0.325531C23.5448 0.325531 23.1752 0.695186 23.1752 1.15312V7.52829H14.9545V1.15312C14.9545 0.695186 14.5848 0.325531 14.1269 0.325531C13.669 0.325531 13.2993 0.695186 13.2993 1.15312V19.6469C13.2993 20.1048 13.669 20.4745 14.1269 20.4745H21.9862C22.3669 22.1931 23.9007 23.4842 25.7324 23.4842C27.8483 23.4842 29.5696 21.7628 29.5696 19.6469C29.5696 17.531 27.8483 15.8097 25.7324 15.8097C23.9007 15.8097 22.3669 17.1007 21.9862 18.8193H14.9545V9.18346H38.8193V23.1724H33.8786C33.4207 23.1724 33.051 23.5421 33.051 24V30.2897H23.1365C22.7558 28.571 21.2221 27.28 19.3903 27.28C17.2745 27.28 15.5531 29.0014 15.5531 31.1173C15.5531 33.2331 17.2745 34.9545 19.3903 34.9545C21.2221 34.9545 22.7558 33.6635 23.1365 31.9448H33.8786C34.3365 31.9448 34.7062 31.5752 34.7062 31.1173V24.8276H38.8193V38.8166H9.18343V8.35312C9.18343 7.89519 8.81378 7.52553 8.35585 7.52553C7.89792 7.52553 7.52826 7.89519 7.52826 8.35312V13.2938H1.15309C0.695156 13.2938 0.3255 13.6635 0.3255 14.1214C0.3255 14.5793 0.695156 14.949 1.15309 14.949H7.52826V23.1697H1.15309C0.695156 23.1697 0.3255 23.5393 0.3255 23.9973C0.3255 24.4552 0.695156 24.8248 1.15309 24.8248H7.52826V33.0455H1.15309C0.695156 33.0455 0.3255 33.4152 0.3255 33.8731C0.3255 34.331 0.695156 34.7007 1.15309 34.7007H7.52826V39.6414C7.52826 40.0993 7.89792 40.469 8.35585 40.469H13.2965V46.8442C13.2965 47.3021 13.6662 47.6717 14.1241 47.6717C14.5821 47.6717 14.9517 47.3021 14.9517 46.8442V40.469H23.1724V46.8442C23.1724 47.3021 23.5421 47.6717 24 47.6717C24.4579 47.6717 24.8276 47.3021 24.8276 46.8442V40.469H33.0483V46.8442C33.0483 47.3021 33.4179 47.6717 33.8759 47.6717C34.3338 47.6717 34.7034 47.3021 34.7034 46.8442V40.469H39.6441C40.1021 40.469 40.4717 40.0993 40.4717 39.6414V34.7007H46.8469C47.3048 34.7007 47.6745 34.331 47.6745 33.8731C47.6745 33.4152 47.3048 33.0455 46.8469 33.0455H40.4717V24.8248H46.8469L46.8496 24.8276ZM25.7296 17.4621C26.9324 17.4621 27.9117 18.4414 27.9117 19.6442C27.9117 20.8469 26.9324 21.8262 25.7296 21.8262C24.5269 21.8262 23.5476 20.8469 23.5476 19.6442C23.5476 18.4414 24.5269 17.4621 25.7296 17.4621ZM19.3903 33.2993C18.1876 33.2993 17.2083 32.32 17.2083 31.1173C17.2083 29.9145 18.1876 28.9352 19.3903 28.9352C20.5931 28.9352 21.5724 29.9145 21.5724 31.1173C21.5724 32.32 20.5931 33.2993 19.3903 33.2993Z" fill="url(#paint0_linear_32_590)"/>
</g>
<defs>
<linearGradient id="paint0_linear_32_590" x1="5.09516" y1="8.13794" x2="42.9048" y2="39.8648" gradientUnits="userSpaceOnUse">
<stop stop-color="#FEC010"/>
<stop offset="0.7" stop-color="#F06516"/>
<stop offset="1" stop-color="#F03016"/>
</linearGradient>
<clipPath id="clip0_32_590">
<rect width="48" height="48" fill="white"/>
</clipPath>
</defs>
</svg>
