<svg width="63" height="40" viewBox="0 0 63 40" fill="none" xmlns="http://www.w3.org/2000/svg">
<g clip-path="url(#clip0_32_598)">
<path d="M21.5788 31.2564C21.5788 31.6821 21.2356 32.0256 20.8105 32.0256H2.55842C1.99244 32.0256 1.44695 31.7898 1.06281 31.3744C0.678662 30.9615 0.476345 30.4026 0.51476 29.841C0.811833 25.3564 1.37013 24.0615 1.76452 23.4795C2.88366 21.8231 4.67891 21.3513 6.57915 20.8513C7.04525 20.7282 7.52671 20.6026 8.01073 20.4539C8.4 20.3359 8.66122 20.0308 8.78927 19.541C7.08366 18.3231 6.00805 16.0462 6.00805 13.5769C6.00805 9.94616 8.57671 7.10001 11.8548 7.10001C15.1328 7.10001 17.704 9.94616 17.704 13.5769C17.704 16.0462 16.6284 18.3231 14.9228 19.541C15.0509 20.0308 15.3095 20.3359 15.6962 20.4539C16.0471 20.559 16.4056 20.6615 16.7974 20.7641C17.2072 20.8718 17.4531 21.2923 17.3455 21.7051C17.2379 22.118 16.8179 22.3641 16.4056 22.2539C15.9959 22.1462 15.6194 22.0385 15.2532 21.9282C14.6052 21.7333 13.4938 21.1256 13.3171 19.241C13.2889 18.9385 13.44 18.6487 13.7038 18.5C15.1994 17.6513 16.1674 15.7205 16.1674 13.5795C16.1674 10.4872 13.9752 8.64103 11.8548 8.64103C9.73427 8.64103 7.54464 10.4872 7.54464 13.5795C7.54464 15.7205 8.51269 17.6513 10.0083 18.5C10.2721 18.6487 10.4232 18.9385 10.395 19.241C10.2132 21.1949 8.97878 21.7718 8.45634 21.9282C7.94671 22.0821 7.44988 22.2128 6.97098 22.341C5.21927 22.8026 3.83378 23.1667 3.03732 24.3436C2.78122 24.7231 2.31256 25.9539 2.04878 29.9462C2.03598 30.1359 2.12817 30.2667 2.18452 30.3282C2.28183 30.4333 2.415 30.4923 2.55842 30.4923H20.8105C21.2356 30.4923 21.5788 30.8359 21.5788 31.2615V31.2564ZM62.4852 29.841C62.1882 25.3564 61.6299 24.0641 61.2355 23.4795C60.1163 21.8257 58.3211 21.3513 56.4209 20.8513C55.9548 20.7282 55.4733 20.6026 54.9867 20.4539C54.5974 20.3359 54.3388 20.0308 54.2107 19.541C55.9163 18.3231 56.992 16.0462 56.992 13.5769C56.992 9.9436 54.4233 7.10001 51.1452 7.10001C47.8672 7.10001 45.296 9.94616 45.296 13.5769C45.296 16.0462 46.3716 18.3231 48.0772 19.541C47.9491 20.0308 47.6905 20.3359 47.3012 20.4539C46.8198 20.6 46.3383 20.7282 45.8722 20.8487C45.3651 20.9821 44.8785 21.1128 44.4124 21.259C43.0013 19.1923 40.7144 18.5898 38.2917 17.9513C37.6873 17.7923 37.0599 17.6282 36.4299 17.4359C35.7999 17.2436 35.3952 16.7385 35.2262 15.9282C37.4543 14.4128 38.8705 11.4744 38.8705 8.27693C38.8705 3.68462 35.6334 0.0897522 31.5 0.0897522C27.3666 0.0897522 24.1295 3.68719 24.1295 8.27693C24.1295 11.4744 25.5432 14.4128 27.7738 15.9282C27.6048 16.7385 27.2001 17.2436 26.5701 17.4359C25.9401 17.6282 25.3152 17.7923 24.7083 17.9513C22.2779 18.5898 19.9833 19.1949 18.5722 21.2769C17.9115 22.2564 17.4402 24.3077 17.1355 27.5539C17.0971 27.9769 17.407 28.3513 17.8295 28.3923C18.2444 28.4308 18.626 28.1205 18.667 27.6974C19.0281 23.841 19.5607 22.559 19.845 22.1385C20.9309 20.5333 22.7696 20.0513 25.1001 19.4385C25.7199 19.2769 26.3576 19.1077 27.0157 18.9077C27.802 18.6692 29.1542 17.9231 29.3718 15.6128C29.4 15.3103 29.2489 15.0205 28.9851 14.8718C26.9696 13.7308 25.6661 11.141 25.6661 8.27693C25.6661 4.11539 28.6317 1.62821 31.5 1.62821C34.3683 1.62821 37.3339 4.11539 37.3339 8.27693C37.3339 11.141 36.0304 13.7308 34.0149 14.8718C33.7511 15.0205 33.6 15.3103 33.6282 15.6128C33.8459 17.9231 35.1955 18.6692 35.9843 18.9077C36.6424 19.1077 37.2827 19.2744 37.8999 19.4385C40.2278 20.0513 42.0666 20.5359 43.155 22.1385C43.4572 22.5846 44.0181 23.9641 44.3791 28.1898C44.4252 28.7359 44.4688 29.3231 44.5072 29.9359C44.5149 30.0795 44.4662 30.218 44.3689 30.3231C44.2716 30.4282 44.1384 30.4846 43.9976 30.4846H40.1433V30.1V30.0795C40.1433 30.041 40.1382 30.0051 40.1331 29.9692C40.1331 29.959 40.1305 29.9462 40.1279 29.9359C40.1202 29.8923 40.1074 29.8513 40.0946 29.8128C40.0895 29.8 40.0844 29.7872 40.0767 29.7744C40.0639 29.7436 40.0485 29.7154 40.0332 29.6872C40.0255 29.6744 40.0152 29.6615 40.0076 29.6487C39.9896 29.6231 39.9717 29.5974 39.9512 29.5744C39.941 29.5615 39.9307 29.5513 39.9179 29.5385C39.8949 29.5154 39.8718 29.4949 39.8462 29.4744C39.8334 29.4641 39.8232 29.4564 39.8104 29.4462C39.7796 29.4256 39.7489 29.4077 39.7156 29.3897C39.7054 29.3846 39.6977 29.3795 39.6874 29.3744C39.6413 29.3539 39.5952 29.3359 39.5466 29.3256L38.8987 29.1769L37.5772 28.8718C37.5465 28.7898 37.5157 28.7154 37.4876 28.6513L38.5606 26.9308C38.6093 26.8513 38.6426 26.7667 38.6605 26.6795C38.6605 26.6718 38.6605 26.6667 38.6631 26.659C38.6707 26.618 38.6733 26.5795 38.6759 26.5385C38.6759 26.5333 38.6759 26.5282 38.6759 26.5205C38.6759 26.5103 38.6733 26.4974 38.6733 26.4872C38.6733 26.459 38.6682 26.4308 38.6656 26.4C38.6631 26.3795 38.6579 26.359 38.6528 26.3385C38.6477 26.3154 38.64 26.2923 38.6323 26.2692C38.6246 26.2462 38.617 26.2256 38.6067 26.2051C38.599 26.1872 38.5888 26.1692 38.5785 26.1513C38.5657 26.1282 38.5529 26.1026 38.5376 26.0821C38.535 26.0769 38.5324 26.0744 38.5273 26.0718C38.5043 26.0385 38.4787 26.0077 38.4505 25.9795L36.7833 24.3103C36.7833 24.3103 36.7807 24.3103 36.7782 24.3077C36.7705 24.3 36.7577 24.2923 36.75 24.2846C36.7295 24.2667 36.709 24.2487 36.6885 24.2333C36.686 24.2333 36.6834 24.2282 36.6809 24.2256C36.6681 24.2154 36.6527 24.2077 36.6373 24.2C36.6271 24.1949 36.622 24.1846 36.6117 24.1795C36.6015 24.1744 36.5912 24.1718 36.5835 24.1692C36.5759 24.1641 36.5656 24.1615 36.5579 24.1564C36.5374 24.1462 36.5144 24.1385 36.4939 24.1308C36.4785 24.1256 36.4632 24.118 36.4452 24.1128C36.4299 24.1077 36.4145 24.1051 36.3966 24.1C36.3863 24.1 36.3735 24.1 36.3607 24.0949C36.3326 24.0898 36.3018 24.0872 36.2737 24.0872C36.2711 24.0872 36.2685 24.0872 36.266 24.0872C36.2378 24.0872 36.2096 24.0872 36.1815 24.0872C36.1559 24.0872 36.1328 24.0923 36.1072 24.0974C36.097 24.0974 36.0867 24.0974 36.079 24.1026C36.0713 24.1026 36.0637 24.1077 36.0534 24.1077C36.0278 24.1154 36.0022 24.1231 35.9766 24.1308C35.9663 24.1359 35.9535 24.1385 35.9433 24.1436C35.9305 24.1487 35.9202 24.1564 35.91 24.1615C35.8998 24.1667 35.887 24.1718 35.8767 24.1795C35.8613 24.1872 35.8434 24.1923 35.8306 24.2L34.1224 25.2718C34.084 25.2539 34.0456 25.2385 34.0046 25.2205C33.9688 25.2051 33.9355 25.1923 33.8996 25.1769L33.4438 23.2026C33.4233 23.1103 33.3849 23.0282 33.3362 22.9539C33.326 22.9385 33.3157 22.9256 33.3055 22.9128C33.2876 22.8898 33.2722 22.8692 33.2517 22.8487C33.2363 22.8333 33.2184 22.818 33.203 22.8026C33.1877 22.7872 33.1698 22.7744 33.1544 22.7615C33.1339 22.7462 33.1109 22.7308 33.0904 22.718C33.075 22.7077 33.0596 22.7 33.0443 22.6923C33.0187 22.6795 32.9931 22.6667 32.9649 22.6564C32.9521 22.6513 32.9393 22.6487 32.9265 22.6462C32.8522 22.6231 32.7779 22.6077 32.696 22.6077H30.3348C30.112 22.6077 29.9122 22.7051 29.7713 22.8564C29.7688 22.859 29.7662 22.8615 29.7611 22.8641C29.7406 22.8872 29.7227 22.9128 29.7048 22.9385C29.6971 22.9487 29.6894 22.959 29.6817 22.9692C29.6689 22.9923 29.6561 23.0154 29.6459 23.041C29.6382 23.0564 29.6305 23.0718 29.6228 23.0872C29.6126 23.1103 29.6074 23.1333 29.5998 23.1564C29.5946 23.1744 29.587 23.1898 29.5818 23.2077L29.546 23.3667L29.1285 25.1744C29.0978 25.1872 29.0645 25.2 29.0312 25.2128C29.0287 25.2128 29.0261 25.2128 29.0235 25.2128C28.9851 25.2282 28.9467 25.2436 28.9083 25.2615L27.1899 24.1872C27.1899 24.1872 27.1643 24.1769 27.1515 24.1692C27.1131 24.1487 27.0772 24.1308 27.0362 24.118C27.0132 24.1103 26.9927 24.1026 26.9696 24.0974C26.9184 24.0846 26.8698 24.0769 26.8185 24.0744C26.7981 24.0744 26.7801 24.0744 26.7596 24.0744C26.7187 24.0744 26.6802 24.0795 26.6393 24.0872C26.6188 24.0898 26.6009 24.0923 26.5804 24.0974C26.5291 24.1103 26.4779 24.1308 26.4293 24.1564C26.4216 24.159 26.4139 24.1615 26.4062 24.1641C26.396 24.1692 26.3883 24.1795 26.3781 24.1846C26.3396 24.2077 26.3012 24.2359 26.2654 24.2692C26.2551 24.2795 26.2449 24.2846 26.2346 24.2949L24.5649 25.9641C24.3113 26.218 24.2652 26.6128 24.4548 26.9154L25.1795 28.0769C25.1795 28.0769 25.1821 28.0846 25.1846 28.0898L25.5227 28.6333C25.4894 28.7103 25.4587 28.7846 25.4305 28.8564L23.456 29.3103C23.1077 29.3897 22.8593 29.7026 22.8593 30.059V32.4231C22.8593 32.4744 22.867 32.5231 22.8746 32.5692C22.8746 32.5795 22.8798 32.5898 22.8823 32.6C22.89 32.6333 22.9002 32.6692 22.9131 32.7C22.9182 32.7154 22.9259 32.7282 22.931 32.7436C22.9438 32.7718 22.9592 32.7974 22.9745 32.8231C22.9822 32.8359 22.9899 32.8513 23.0001 32.8641C23.0257 32.8974 23.0513 32.9308 23.0821 32.9615C23.0846 32.9641 23.0872 32.9667 23.0923 32.9718C23.1231 33.0026 23.1589 33.0308 23.1948 33.0564C23.205 33.0641 23.2152 33.0692 23.2255 33.0744C23.2562 33.0923 23.287 33.1103 23.3202 33.1256C23.3305 33.1308 23.3407 33.1359 23.351 33.1385C23.3663 33.1436 23.3817 33.1513 23.3971 33.159C23.4176 33.1667 23.4381 33.1718 23.4611 33.1769L25.4228 33.6308C25.4535 33.7077 25.4843 33.7821 25.515 33.8564L25.5022 33.8769C25.5022 33.8769 25.4971 33.8846 25.4945 33.8872L24.4394 35.5744C24.4394 35.5744 24.4343 35.5846 24.4317 35.5898C24.4035 35.6359 24.3831 35.6846 24.3677 35.7333C24.3626 35.7513 24.3549 35.7692 24.3523 35.7872C24.3395 35.841 24.3293 35.8949 24.3267 35.9487C24.3267 35.9641 24.3267 35.9821 24.3267 35.9974C24.3267 36.041 24.3318 36.0846 24.3395 36.1282C24.3421 36.1462 24.3446 36.1641 24.3498 36.1821C24.3626 36.2359 24.3831 36.2846 24.4087 36.3333C24.4112 36.341 24.4138 36.3487 24.4163 36.3564C24.4215 36.3667 24.4317 36.3744 24.4368 36.3846C24.4599 36.4231 24.4881 36.4615 24.5213 36.4974C24.5316 36.5077 24.5393 36.5205 24.547 36.5282L26.2167 38.2C26.4728 38.4564 26.88 38.4898 27.1822 38.2974L28.8776 37.2385C28.9518 37.2692 29.0235 37.3 29.1004 37.3308L29.5537 39.3103C29.5639 39.3539 29.5767 39.3949 29.5946 39.4359C29.5946 39.4359 29.5946 39.4385 29.5946 39.441C29.6126 39.4821 29.6356 39.5231 29.6587 39.559C29.6663 39.5692 29.674 39.5795 29.6817 39.5897C29.7022 39.6154 29.7227 39.6436 29.7457 39.6667C29.756 39.6769 29.7688 39.6872 29.779 39.7C29.8021 39.7205 29.8251 39.741 29.8482 39.759C29.861 39.7692 29.8763 39.7795 29.8917 39.7872C29.9173 39.8026 29.9429 39.818 29.9711 39.8308C29.9865 39.8385 30.0018 39.8462 30.0172 39.8513C30.0479 39.8641 30.0787 39.8718 30.112 39.8795C30.1248 39.8821 30.1401 39.8872 30.1529 39.8898C30.2016 39.9 30.2477 39.9051 30.2989 39.9051H30.4577H32.6627C33.0212 39.9051 33.3311 39.6564 33.4105 39.3077L33.746 37.8436L33.8638 37.3333C33.8868 37.3231 33.9124 37.3154 33.9355 37.3051C33.9534 37.3 33.9713 37.2923 33.9867 37.2846L34.084 37.241L35.7999 38.3205C36.1021 38.5103 36.499 38.4667 36.7526 38.2128L38.4223 36.541C38.4326 36.5308 38.4402 36.518 38.4505 36.5077C38.4812 36.4744 38.5068 36.4385 38.5324 36.4C38.5401 36.3898 38.5478 36.3821 38.5555 36.3692C38.5606 36.3615 38.5606 36.3539 38.5657 36.3462C38.5888 36.3 38.6093 36.2513 38.6221 36.2026C38.6298 36.1795 38.6323 36.1539 38.6374 36.1308C38.6426 36.0974 38.6451 36.0667 38.6477 36.0333C38.6477 36 38.6477 35.9667 38.6477 35.9333C38.6451 35.8949 38.6374 35.8564 38.6298 35.818C38.6221 35.7897 38.6144 35.7641 38.6042 35.7359C38.5939 35.7051 38.5785 35.6769 38.5657 35.6487C38.5555 35.6308 38.5504 35.6103 38.5401 35.5898L37.4671 33.8744C37.4824 33.8385 37.4952 33.8077 37.5081 33.7744C37.5465 33.6872 37.5798 33.5974 37.6131 33.5077C37.6335 33.4538 37.654 33.4051 37.6694 33.3513C37.6796 33.3205 37.6899 33.2898 37.6976 33.259L37.0855 33.0846C37.0855 33.0846 37.0855 33.0846 37.0829 33.0846L37.7001 33.2564C37.8128 32.8487 37.5721 32.4333 37.1649 32.3205C36.7654 32.2077 36.3454 32.4462 36.2224 32.841C36.2173 32.859 36.2096 32.8744 36.2045 32.8923C36.1994 32.9103 36.1943 32.9256 36.1866 32.9436C36.1815 32.9564 36.1763 32.9692 36.1712 32.9821C36.1482 33.0462 36.1251 33.1077 36.0918 33.1872C36.0637 33.259 36.0304 33.3282 35.9971 33.3974C35.992 33.4051 35.9894 33.4154 35.9843 33.4231C35.9638 33.4692 35.9407 33.5154 35.9151 33.5615C35.9126 33.5692 35.91 33.5769 35.9074 33.5821C35.9074 33.5821 35.9074 33.5872 35.9049 33.5872C35.8921 33.6128 35.8844 33.6359 35.8741 33.6615C35.8665 33.6821 35.8588 33.7051 35.8511 33.7256C35.846 33.741 35.8434 33.7564 35.8409 33.7718C35.8409 33.7821 35.8409 33.7923 35.8383 33.8C35.8332 33.8256 35.8306 33.8487 35.828 33.8744C35.828 33.8898 35.828 33.9051 35.828 33.9205C35.828 33.9385 35.828 33.9539 35.828 33.9718C35.828 33.9872 35.8281 34.0051 35.8332 34.0205C35.8357 34.0462 35.8434 34.0692 35.8485 34.0949C35.8485 34.1026 35.8485 34.1103 35.8537 34.1154C35.8588 34.1308 35.8613 34.1436 35.8665 34.159C35.8665 34.159 35.8665 34.1641 35.869 34.1667C35.8767 34.1897 35.887 34.2103 35.8972 34.2333C35.9074 34.259 35.9202 34.2821 35.9331 34.3051C35.9331 34.3051 35.9331 34.3077 35.9331 34.3103C35.9356 34.3154 35.9382 34.3231 35.9407 34.3282L36.9113 35.8872L36.1072 36.6923L34.5501 35.7128C34.3094 35.5615 34.0072 35.5564 33.7613 35.6974C33.7178 35.7231 33.6691 35.7462 33.6231 35.7667L33.5846 35.7846C33.5846 35.7846 33.5744 35.7897 33.5718 35.7923L33.4207 35.859C33.4207 35.859 33.4028 35.8667 33.3951 35.8692C33.3311 35.8949 33.2594 35.9231 33.1928 35.9487C33.1877 35.9487 33.18 35.9539 33.1749 35.9564H33.1698L32.9854 36.0154C32.9649 36.0231 32.947 36.0359 32.9265 36.0436C32.8932 36.0564 32.8599 36.0718 32.8317 36.0897C32.8087 36.1026 32.7882 36.118 32.7677 36.1333C32.737 36.1564 32.7088 36.1821 32.6806 36.2077C32.6652 36.2231 32.6499 36.2359 32.6371 36.2513C32.5987 36.2949 32.5654 36.3436 32.5372 36.3949C32.5346 36.4026 32.5321 36.4103 32.527 36.418C32.5039 36.4667 32.486 36.518 32.4732 36.5692C32.4732 36.5769 32.4681 36.5821 32.4655 36.5898L32.3938 36.8949C32.3938 36.8949 32.3938 36.9 32.3938 36.9026L32.2811 37.3949L32.0583 38.3641H30.9187L30.5089 36.5744C30.4474 36.3077 30.2528 36.0949 29.9916 36.0128C29.7099 35.9231 29.4384 35.8103 29.1874 35.6795C28.9467 35.5538 28.6548 35.5641 28.4243 35.7103L26.8723 36.6795L26.0682 35.8744L27.0413 34.3154C27.1873 34.0821 27.1976 33.7898 27.0695 33.5462C26.9389 33.3 26.8313 33.0385 26.7392 32.7487C26.6572 32.4897 26.4446 32.2923 26.1783 32.2308L24.3933 31.818V30.6769L26.1552 30.2718C26.1552 30.2718 26.1706 30.2667 26.1809 30.2641C26.2295 30.2539 26.2756 30.2385 26.3217 30.218C26.3345 30.2128 26.3473 30.2077 26.3601 30.2026C26.4062 30.1795 26.4498 30.1487 26.4907 30.1154C26.5061 30.1026 26.5215 30.0898 26.5368 30.0769C26.5752 30.041 26.6085 30.0026 26.6393 29.9615C26.6521 29.9436 26.6623 29.9256 26.6726 29.9077C26.6931 29.8718 26.711 29.8359 26.7238 29.7974C26.7289 29.7821 26.7391 29.7718 26.7443 29.7564C26.7571 29.7128 26.7724 29.6692 26.7878 29.6282C26.7955 29.6026 26.8057 29.5795 26.8134 29.5539C26.8262 29.5154 26.8416 29.4744 26.857 29.4333C26.8928 29.3359 26.9338 29.241 26.9773 29.1487L27.0823 28.9359C27.0823 28.9359 27.0874 28.9205 27.09 28.9154C27.1002 28.8949 27.1054 28.8744 27.1131 28.8513C27.1207 28.8308 27.1284 28.8128 27.1335 28.7923C27.1412 28.7667 27.1438 28.7385 27.1489 28.7128C27.154 28.6872 27.1566 28.6641 27.1592 28.6385C27.1592 28.6282 27.1592 28.6205 27.1592 28.6128C27.1592 28.6051 27.1592 28.6 27.1592 28.5923C27.1592 28.5641 27.1566 28.5385 27.154 28.5103C27.1463 28.4462 27.1335 28.3872 27.1105 28.3282C27.1105 28.3282 27.1105 28.3256 27.1105 28.3231C27.0977 28.2923 27.0849 28.2615 27.0695 28.2308C27.0695 28.2308 27.0695 28.2308 27.0695 28.2282C27.0618 28.2128 27.0541 28.1974 27.0465 28.1846L26.0784 26.6333L26.8826 25.8282L28.4422 26.8051C28.4422 26.8051 28.4704 26.8154 28.4832 26.8231C28.5139 26.841 28.5472 26.8539 28.5805 26.8667C28.6138 26.8795 28.6471 26.8897 28.6829 26.8974C28.7111 26.9026 28.7393 26.9077 28.7674 26.9128C28.916 26.9282 29.0671 26.9077 29.2054 26.8359C29.2591 26.8077 29.3052 26.7872 29.3513 26.7641C29.4102 26.7359 29.4692 26.7077 29.5281 26.6821C29.5511 26.6718 29.5767 26.659 29.5998 26.6513C29.7483 26.5898 29.8763 26.541 29.9993 26.5051C30.0018 26.5051 30.007 26.5026 30.0095 26.5C30.0633 26.4821 30.1145 26.459 30.1632 26.4308C30.176 26.4231 30.1862 26.4154 30.1965 26.4077C30.2323 26.3846 30.2682 26.3564 30.3015 26.3256C30.3092 26.3205 30.3168 26.3154 30.3245 26.3077C30.3296 26.3026 30.3348 26.2974 30.3399 26.2923C30.345 26.2846 30.3527 26.2795 30.3578 26.2718C30.3809 26.2462 30.4013 26.2205 30.4193 26.1923C30.4218 26.1872 30.4244 26.1821 30.4295 26.1769C30.4756 26.1051 30.5115 26.0256 30.532 25.9359L30.9391 24.1564H32.0788L32.4911 25.9462C32.4937 25.9615 32.5039 25.9744 32.5065 25.9898C32.5193 26.0308 32.5321 26.0692 32.5526 26.1077C32.5628 26.1282 32.5731 26.1487 32.5833 26.1667C32.6115 26.2128 32.6422 26.2564 32.6806 26.2974C32.6909 26.3077 32.7011 26.318 32.7113 26.3282C32.7472 26.3615 32.7856 26.3923 32.8266 26.4205C32.8368 26.4282 32.8471 26.4359 32.8573 26.441C32.9085 26.4692 32.9623 26.4923 33.0187 26.5103C33.0238 26.5103 33.0289 26.5154 33.034 26.518L33.0673 26.5308C33.0673 26.5308 33.0878 26.5385 33.0981 26.541C33.1339 26.5513 33.1723 26.5641 33.2082 26.5795C33.2184 26.5846 33.2287 26.5872 33.2363 26.5898C33.2978 26.6128 33.3567 26.6359 33.4054 26.6564C33.5616 26.7231 33.6871 26.7821 33.7998 26.8436C33.8228 26.8564 33.851 26.8615 33.874 26.8718C33.9099 26.8872 33.9457 26.9026 33.9816 26.9128C33.997 26.9154 34.0123 26.9154 34.0277 26.918C34.0738 26.9256 34.1173 26.9359 34.1634 26.9359C34.3017 26.9359 34.4451 26.8974 34.5706 26.818L34.6167 26.7897L36.1174 25.8487L36.9216 26.6539L35.9484 28.2128C35.8024 28.4462 35.7922 28.741 35.9228 28.9846C35.9305 28.9974 35.9356 29.0103 35.9407 29.0231C35.9459 29.0385 35.9535 29.0539 35.9612 29.0692C35.9663 29.0821 35.974 29.0949 35.9792 29.1051C35.9792 29.1077 35.9817 29.1128 35.9843 29.1154C35.9996 29.1487 36.0176 29.1795 36.0304 29.2128C36.0304 29.218 36.0355 29.2205 36.0355 29.2256C36.0406 29.2359 36.0432 29.2462 36.0509 29.259C36.0816 29.3231 36.1072 29.3923 36.1328 29.4615C36.1354 29.4692 36.1379 29.4795 36.1431 29.4872C36.1687 29.5487 36.1891 29.6077 36.2122 29.6769L36.2506 29.7949C36.2506 29.7949 36.2583 29.8128 36.2634 29.8231C36.266 29.8308 36.2711 29.8385 36.2737 29.8462C36.289 29.8821 36.307 29.918 36.3274 29.9539C36.3326 29.9641 36.3402 29.9718 36.3454 29.9795C36.3531 29.9897 36.3582 30 36.3659 30.0103C36.3659 30.0128 36.3684 30.0154 36.371 30.018C36.3761 30.0257 36.3812 30.0333 36.3863 30.041C36.394 30.0513 36.4043 30.059 36.4145 30.0692C36.4196 30.0744 36.4248 30.0821 36.4324 30.0872C36.4376 30.0923 36.4427 30.1 36.4504 30.1051C36.4734 30.1282 36.499 30.1487 36.5246 30.1667C36.5298 30.1692 36.5349 30.1744 36.54 30.1769C36.604 30.2231 36.6732 30.2564 36.75 30.2821C36.75 30.2821 36.7526 30.2821 36.7551 30.2821C36.7756 30.2872 36.7935 30.2974 36.814 30.3L38.5248 30.6923L38.5965 30.7077V31.2692C38.5965 31.6949 38.9396 32.0385 39.3648 32.0385H43.9873C44.5507 32.0385 45.0937 31.8026 45.4778 31.3923C45.8645 30.9821 46.0668 30.4205 46.031 29.8564C45.9926 29.2333 45.949 28.6333 45.9004 28.0744C45.6981 25.6949 45.4112 23.9128 45.0322 22.6898C45.4215 22.5718 45.8287 22.4615 46.2563 22.3513C46.7352 22.2256 47.2295 22.0949 47.7366 21.941C48.3845 21.7462 49.4985 21.1385 49.6727 19.2539C49.7009 18.9513 49.5498 18.6615 49.286 18.5128C47.7904 17.6641 46.8223 15.7333 46.8223 13.5923C46.8223 10.5 49.0145 8.65385 51.135 8.65385C53.2555 8.65385 55.4451 10.5 55.4451 13.5923C55.4451 15.7333 54.4771 17.6641 52.9815 18.5128C52.7177 18.6615 52.5666 18.9513 52.5948 19.2539C52.7766 21.2077 54.011 21.7846 54.5309 21.941C55.043 22.0974 55.5373 22.2282 56.0188 22.3539C57.7705 22.8154 59.156 23.1795 59.9524 24.3564C60.2085 24.7359 60.6772 25.9667 60.941 29.959C60.9538 30.1513 60.8616 30.2795 60.8052 30.341C60.7079 30.4462 60.5748 30.5051 60.4313 30.5051H49.9313C49.5062 30.5051 49.1631 30.8487 49.1631 31.2744C49.1631 31.7 49.5062 32.0436 49.9313 32.0436H60.4313C60.9973 32.0436 61.5428 31.8077 61.927 31.3923C62.3111 30.9795 62.5134 30.4205 62.475 29.8564L62.4852 29.841Z" fill="url(#paint0_linear_32_598)"/>
</g>
<defs>
<linearGradient id="paint0_linear_32_598" x1="10.6665" y1="5.43591" x2="53.5573" y2="41.3818" gradientUnits="userSpaceOnUse">
<stop stop-color="#FEC010"/>
<stop offset="0.7" stop-color="#F06516"/>
<stop offset="1" stop-color="#F03016"/>
</linearGradient>
<clipPath id="clip0_32_598">
<rect width="63" height="40" fill="white"/>
</clipPath>
</defs>
</svg>
