<?xml version="1.0" encoding="UTF-8"?><svg id="dark_mode_gradient" xmlns="http://www.w3.org/2000/svg" xmlns:xlink="http://www.w3.org/1999/xlink" viewBox="0 0 80 80"><defs><style>.cls-1{fill:url(#Dark_mode_graident);}</style><linearGradient id="Dark_mode_graident" x1="7.76" y1="-59.03" x2="75.78" y2="-24.51" gradientTransform="translate(0 76.19)" gradientUnits="userSpaceOnUse"><stop offset="0" stop-color="#00fff0"/><stop offset=".45" stop-color="#00f6ff"/><stop offset=".9" stop-color="#b896ff"/></linearGradient></defs><path class="cls-1" d="m39.63,29.58c-.39,0-.7.31-.7.7v12.94c0,.39.31.7.7.7s.7-.31.7-.7v-12.94c0-.39-.31-.7-.7-.7Zm7.06-5.59c-.39,0-.7.31-.7.7v18.52c0,.39.31.7.7.7s.7-.31.7-.7v-18.52c0-.39-.31-.7-.7-.7Zm-13.82,11.17c-.39,0-.7.31-.7.7v7.35c0,.39.31.7.7.7s.7-.31.7-.7v-7.35c0-.39-.31-.7-.7-.7Zm-5.88-5.88c-.39,0-.7.31-.7.7v13.23c0,.39.31.7.7.7s.7-.31.7-.7v-13.23c0-.39-.31-.7-.7-.7Zm26.17,5.59c-.39,0-.7.31-.7.7v7.64c0,.39.31.7.7.7s.7-.31.7-.7v-7.64c0-.39-.31-.7-.7-.7Zm-35.43-2.27c-.39,0-.7.31-.7.7v2.4c0,.39.31.7.7.7s.7-.31.7-.7v-2.4c0-.39-.31-.7-.7-.7Zm0,4.79c-.39,0-.7.31-.7.7v1.3c0,.39.31.7.7.7s.7-.31.7-.7v-1.3c0-.39-.31-.7-.7-.7Zm0-9.58c-.39,0-.7.31-.7.7v2.4c0,.39.31.7.7.7s.7-.31.7-.7v-2.4c0-.39-.31-.7-.7-.7Zm0-3.7c-.39,0-.7.31-.7.7v1.3c0,.39.31.7.7.7s.7-.31.7-.7v-1.3c0-.39-.31-.7-.7-.7Zm-6.47,10.58c-.39,0-.7.31-.7.7v4c0,.39.31.7.7.7s.7-.31.7-.7v-4c0-.39-.31-.7-.7-.7Zm0-4.23c-.39,0-.7.31-.7.7v.23c0,.39.31.7.7.7s.7-.31.7-.7v-.23c0-.39-.31-.7-.7-.7Zm-5.59-3.53c-.39,0-.7.31-.7.7v1.3c0,.39.31.7.7.7s.7-.31.7-.7v-1.3c0-.39-.31-.7-.7-.7Zm0,10.46c-.39,0-.7.31-.7.7v1.3c0,.39.31.7.7.7s.7-.31.7-.7v-1.3c0-.39-.31-.7-.7-.7Zm0-6.11c-.39,0-.7.31-.7.7v3.05c0,.39.31.7.7.7s.7-.31.7-.7v-3.05c0-.39-.31-.7-.7-.7Zm62.49.32c.39,0,.7-.31.7-.7v-2.4c0-.39-.31-.7-.7-.7s-.7.31-.7.7v2.4c0,.39.31.7.7.7Zm0,4.79c.39,0,.7-.31.7-.7v-2.4c0-.39-.31-.7-.7-.7s-.7.31-.7.7v2.4c0,.39.31.7.7.7Zm0-9.58c.39,0,.7-.31.7-.7v-1.3c0-.39-.31-.7-.7-.7s-.7.31-.7.7v1.3c0,.39.31.7.7.7Zm0,13.28c.39,0,.7-.31.7-.7v-1.3c0-.39-.31-.7-.7-.7s-.7.31-.7.7v1.3c0,.39.31.7.7.7Zm-5.88,0c.39,0,.7-.31.7-.7v-4c0-.39-.31-.7-.7-.7s-.7.31-.7.7v4c0,.39.31.7.7.7Zm-8.16,8.23c3.3-3.51,5.33-8.21,5.33-13.39,0-10.8-8.79-19.59-19.59-19.59s-19.59,8.79-19.59,19.59,8.79,19.59,19.59,19.59c5.11,0,9.76-1.99,13.25-5.21l19.4,15.18c.13.1.28.15.43.15.21,0,.41-.09.55-.27.24-.3.19-.74-.12-.98l-19.26-15.07Zm-14.26,4.8c-10.03,0-18.19-8.16-18.19-18.19s8.16-18.19,18.19-18.19,18.19,8.16,18.19,18.19-8.16,18.19-18.19,18.19Zm34.47-26.19c-.39,0-.7.31-.7.7v1.3c0,.39.31.7.7.7s.7-.31.7-.7v-1.3c0-.39-.31-.7-.7-.7Zm0,4.35c-.39,0-.7.31-.7.7v3.05c0,.39.31.7.7.7s.7-.31.7-.7v-3.05c0-.39-.31-.7-.7-.7Zm0,6.11c-.39,0-.7.31-.7.7v1.3c0,.39.31.7.7.7s.7-.31.7-.7v-1.3c0-.39-.31-.7-.7-.7Z"/></svg>