<?xml version="1.0" encoding="UTF-8"?><svg id="dark_mode_gradient" xmlns="http://www.w3.org/2000/svg" xmlns:xlink="http://www.w3.org/1999/xlink" viewBox="0 0 80 80"><defs><style>.cls-1{fill:url(#Dark_mode_graident);}</style><linearGradient id="Dark_mode_graident" x1="11.44" y1="-60.29" x2="68.21" y2="-12.65" gradientTransform="translate(0 76.19)" gradientUnits="userSpaceOnUse"><stop offset="0" stop-color="#00fff0"/><stop offset=".45" stop-color="#00f6ff"/><stop offset=".9" stop-color="#b896ff"/></linearGradient></defs><path class="cls-1" d="m41.03,47.7c2.78-.37,3.27-2.2,3.29-3.34.03-1.95-1.32-2.83-3.29-3.79v-4.92c1.29.18,2.06.88,2.1.92.28.27.72.25.99-.02.27-.28.26-.72-.02-.99-.05-.05-1.19-1.1-3.07-1.31v-1.65c0-.39-.31-.7-.7-.7s-.7.31-.7.7v1.67c-2.34.31-3.54,1.96-3.46,3.47.08,1.64.85,2.47,3.43,3.69.01,0,.02.01.03.02v4.88c-1.71-.16-2.66-1.27-2.7-1.32-.24-.3-.68-.35-.98-.11-.3.24-.35.68-.11.98.06.07,1.39,1.68,3.79,1.85v1.63c0,.39.31.7.7.7s.7-.31.7-.7v-1.67Zm0-5.55c1.48.78,1.9,1.27,1.89,2.19-.01.73-.25,1.67-1.89,1.94v-4.13Zm-1.4-2.26c-1.89-.96-2.03-1.45-2.07-2.21-.04-.83.67-1.75,2.07-2v4.21Zm18.97-17.19c-.39.02-.68.35-.66.74.03.48.03,1,.02,1.54-.01.39.29.71.68.72,0,0,.01,0,.02,0,.38,0,.69-.3.7-.68.02-.58.01-1.14-.02-1.66-.02-.39-.35-.67-.74-.66Zm-35.21,25.39c-.38-.11-.76.12-.86.49-.3,1.07-.54,2.13-.72,3.15-.07.38.18.75.56.81.04,0,.08.01.13.01.33,0,.63-.24.69-.58.18-.98.41-1.99.7-3.02.1-.37-.12-.76-.49-.86Zm35.07-20.68c-.37-.06-.74.2-.8.58-.15.96-.37,1.96-.63,2.99-.1.37.13.76.5.85.06.02.12.02.18.02.31,0,.6-.21.68-.52.28-1.07.5-2.11.66-3.12.06-.38-.2-.74-.58-.8Zm-32.86,14.75c-.35-.15-.77.01-.92.37-.43,1-.82,2-1.18,2.99-.13.36.06.76.42.89.08.03.16.04.24.04.29,0,.56-.18.66-.46.34-.96.73-1.94,1.14-2.91.15-.36-.01-.77-.37-.92Zm11.96-17c.18,0,.36-.07.5-.21.75-.76,1.51-1.49,2.25-2.16.29-.26.31-.7.05-.99-.26-.29-.7-.31-.99-.05-.77.69-1.55,1.44-2.32,2.22-.27.28-.27.72,0,.99.14.13.31.2.49.2Zm-4.16,4.78c.21,0,.42-.09.55-.27.65-.83,1.32-1.64,1.99-2.42.25-.29.22-.73-.07-.99-.29-.25-.73-.22-.99.07-.69.79-1.37,1.63-2.04,2.47-.24.31-.18.75.12.98.13.1.28.15.43.15Zm-4.92,6.59c-.33-.19-.76-.07-.95.27-.53.93-1.03,1.88-1.5,2.83-.17.35-.03.77.32.94.1.05.21.07.31.07.26,0,.5-.14.63-.39.46-.92.95-1.85,1.47-2.76.19-.34.07-.76-.27-.95Zm-6.33,17.79c-.35,0-.72.27-.74.66-.03.58-.04,1.13-.03,1.66.01.38.32.68.7.68h.02c.39-.01.69-.33.68-.72-.01-.5,0-1.01.02-1.54.02-.39-.27-.72-.66-.74Zm25.55-36.61c.09,0,.18-.02.27-.06.49-.21.97-.39,1.43-.53.37-.12.58-.51.46-.88-.12-.37-.51-.58-.88-.46-.51.16-1.03.35-1.57.58-.36.15-.52.56-.37.92.11.27.37.43.64.43Zm-4.32,37.13c-.72.76-1.45,1.5-2.17,2.17-.28.26-.3.71-.03.99.14.15.32.22.51.22.17,0,.34-.06.48-.19.75-.7,1.5-1.45,2.24-2.24.26-.28.25-.72-.03-.99s-.72-.25-.99.03Zm8.41-10.05c-.33-.2-.76-.1-.96.23-.3.48-.6.96-.91,1.45-.25.39-.51.77-.76,1.15-.22.32-.13.75.19.97.12.08.26.12.39.12.22,0,.44-.11.58-.31.26-.39.52-.77.78-1.17.32-.49.63-.99.93-1.48.2-.33.1-.76-.23-.96Zm-4.44,5.33c-.63.83-1.28,1.65-1.92,2.41-.25.3-.21.74.09.99.13.11.29.16.45.16.2,0,.4-.08.54-.25.66-.79,1.32-1.62,1.97-2.47.23-.31.17-.75-.14-.98-.31-.23-.75-.17-.98.14Zm7.37-10.83c-.35-.17-.77-.02-.93.33-.44.9-.91,1.83-1.41,2.74-.19.34-.06.76.28.95.11.06.22.09.33.09.25,0,.49-.13.62-.36.51-.94,1-1.88,1.44-2.81.17-.35.02-.77-.33-.93Zm-22.8-8.07c-.32-.22-.75-.14-.97.17-.43.62-.86,1.26-1.29,1.9-.17.25-.33.51-.49.76-.21.33-.11.76.22.96.12.07.24.11.37.11.23,0,.46-.12.59-.33.16-.25.31-.5.47-.74.42-.64.83-1.26,1.26-1.87.22-.32.15-.75-.17-.97Zm25.1,2.28c-.36-.13-.76.07-.89.44-.32.94-.69,1.91-1.09,2.88-.15.36.02.77.38.91.09.04.18.05.27.05.27,0,.54-.16.65-.43.41-.99.79-1.99,1.12-2.96.12-.37-.07-.76-.44-.89Zm-11.53-15.39c-.2-.33-.63-.44-.96-.23-.87.53-1.77,1.15-2.67,1.83-.31.23-.37.67-.13.98.14.18.35.28.56.28.15,0,.3-.05.42-.14.86-.65,1.72-1.24,2.55-1.75.33-.2.43-.63.23-.96Zm-11.68,44.28c-.48.24-.95.45-1.4.63-.36.14-.53.55-.39.91.11.27.37.44.65.44.09,0,.17-.02.26-.05.49-.2,1-.42,1.51-.68.35-.17.49-.59.31-.94-.17-.34-.59-.48-.94-.31Zm5.08-3.35c-.82.66-1.65,1.27-2.46,1.82-.32.21-.41.65-.19.97.13.2.36.31.58.31.13,0,.27-.04.39-.12.84-.57,1.71-1.2,2.56-1.89.3-.24.35-.68.11-.98-.25-.3-.69-.35-.98-.11Zm39.4-8.5l-4.93-4.93c-.27-.27-.72-.27-.99,0s-.27.72,0,.99l3.74,3.74h-9.06c1.23-3.2,1.92-6.68,1.92-10.31,0-15.88-12.92-28.81-28.81-28.81-11.33,0-21.15,6.58-25.85,16.11H3.89l3.74-3.74c.27-.27.27-.72,0-.99s-.72-.27-.99,0l-4.93,4.93c-.27.27-.27.7-.02.97l4.93,5.26c.14.15.32.22.51.22.17,0,.34-.06.48-.19.28-.26.3-.71.03-.99l-3.83-4.08h9.86c-1.49,3.47-2.31,7.29-2.31,11.3,0,15.88,12.92,28.81,28.81,28.81,11.71,0,21.81-7.03,26.31-17.09h9.72l-3.83,4.08c-.26.28-.25.72.03.99.13.13.31.19.48.19.19,0,.37-.07.51-.22l4.93-5.26c.26-.28.25-.71-.02-.97Zm-12.75-.21h-8.78c-.39,0-.7.31-.7.7s.31.7.7.7h8.17c-4.4,9.27-13.85,15.69-24.77,15.69-15.11,0-27.41-12.29-27.41-27.41,0-4.03.88-7.85,2.45-11.3h8.19c.39,0,.7-.31.7-.7s-.31-.7-.7-.7h-7.51c4.59-8.73,13.74-14.71,24.28-14.71,15.11,0,27.41,12.29,27.41,27.41,0,3.65-.72,7.13-2.02,10.31Z"/></svg>