<?xml version="1.0" encoding="UTF-8"?><svg id="dark_mode_gradient" xmlns="http://www.w3.org/2000/svg" xmlns:xlink="http://www.w3.org/1999/xlink" viewBox="0 0 80 80"><defs><style>.cls-1{fill:url(#Dark_mode_graident);}</style><linearGradient id="Dark_mode_graident" x1="16.41" y1="20.22" x2="63.7" y2="59.9" gradientUnits="userSpaceOnUse"><stop offset="0" stop-color="#00fff0"/><stop offset=".45" stop-color="#00f6ff"/><stop offset=".9" stop-color="#b896ff"/></linearGradient></defs><path class="cls-1" d="m25.39,53.53h6.64c.39,0,.7-.31.7-.7v-16.9c0-.39-.31-.7-.7-.7h-6.64c-.39,0-.7.31-.7.7v16.9c0,.39.31.7.7.7Zm.7-16.9h5.24v15.5h-5.24v-15.5Zm10.29,16.9h6.94c.39,0,.7-.31.7-.7v-12.67c0-.39-.31-.7-.7-.7h-6.94c-.39,0-.7.31-.7.7v12.67c0,.39.31.7.7.7Zm.7-12.67h5.54v11.27h-5.54v-11.27Zm10.79,12.67h6.64c.39,0,.7-.31.7-.7v-25.65c0-.39-.31-.7-.7-.7h-6.64c-.39,0-.7.31-.7.7v25.65c0,.39.31.7.7.7Zm.7-25.65h5.24v24.25h-5.24v-24.25Zm6.73-13.21c.93.57,1.84,1.19,2.69,1.85.13.1.28.15.43.15.21,0,.42-.09.55-.27.24-.31.18-.75-.13-.98-.9-.69-1.84-1.34-2.82-1.94-.33-.2-.76-.1-.96.23-.2.33-.1.76.23.96Zm7.39,6.38c.14.17.34.25.54.25.16,0,.32-.05.45-.16.3-.25.34-.69.09-.99-.73-.87-1.51-1.71-2.33-2.5-.28-.27-.72-.26-.99.02-.27.28-.26.72.02.99.78.75,1.53,1.56,2.23,2.39ZM29.91,12.11c.08,0,.16-.01.23-.04,1.03-.36,2.08-.67,3.13-.92.38-.09.61-.47.52-.84-.09-.38-.47-.61-.84-.52-1.1.26-2.21.58-3.28.97-.36.13-.55.53-.42.89.1.29.37.47.66.47Zm35.56,12.88c.13.22.36.34.6.34.12,0,.24-.03.36-.1.33-.2.44-.63.25-.96-.28-.47-.57-.93-.87-1.39-.21-.32-.65-.41-.97-.2-.32.21-.41.65-.2.97.29.43.56.88.83,1.33Zm-16.08-13.08c1.03.35,2.05.76,3.03,1.21.1.04.2.07.3.07.26,0,.52-.15.63-.4.16-.35.01-.77-.34-.93-1.03-.48-2.1-.91-3.18-1.27-.37-.13-.76.07-.89.44-.12.37.07.76.44.89Zm-23.99,2.24c.11,0,.23-.03.34-.09.45-.25.92-.49,1.39-.72.35-.17.49-.59.32-.94-.17-.34-.58-.49-.94-.32-.49.24-.97.49-1.45.75-.34.19-.46.61-.27.95.13.23.37.36.61.36Zm11.01-3.57s.06,0,.08,0c1.08-.13,2.17-.2,3.26-.21.39,0,.7-.32.69-.71,0-.38-.32-.69-.7-.69h0c-1.14,0-2.29.08-3.41.21-.38.05-.66.39-.61.78.04.36.34.62.69.62Zm6.61-.06c1.08.11,2.16.28,3.23.51.05.01.1.02.15.02.32,0,.61-.22.68-.55.08-.38-.16-.75-.54-.83-1.11-.24-2.25-.42-3.38-.54-.39-.05-.73.24-.77.62s.24.73.62.77Zm26.72,21.29c-.1-.37-.49-.59-.86-.49-.37.1-.59.49-.49.86.73,2.59,1.09,5.23,1.09,7.83,0,4.15-.88,8.18-2.61,12,0,.02-.02.03-.03.04-.12.23-.28.59-.45.98-.24.54-.56,1.28-.72,1.51-.02.03-.03.07-.04.11-5.25,9.24-15.06,14.97-25.62,14.97-16.26,0-29.49-13.24-29.49-29.51,0-8.19,3.31-15.82,9.32-21.49.28-.26.29-.71.03-.99-.27-.28-.71-.29-.99-.03-6.29,5.94-9.76,13.93-9.76,22.51,0,17.04,13.86,30.91,30.89,30.91,11.07,0,21.36-6.02,26.85-15.71.02-.03.02-.06.03-.09.2-.33.45-.88.78-1.62.12-.28.23-.53.33-.73.01-.02.04-.03.05-.05,1.88-4.07,2.83-8.37,2.83-12.8,0-2.72-.39-5.48-1.15-8.2Z"/></svg>