<?xml version="1.0" encoding="UTF-8"?><svg id="dark_mode_gradient" xmlns="http://www.w3.org/2000/svg" xmlns:xlink="http://www.w3.org/1999/xlink" viewBox="0 0 80 80"><defs><style>.cls-1{fill:url(#Dark_mode_graident);}</style><linearGradient id="Dark_mode_graident" x1="7.69" y1="13.08" x2="71.37" y2="66.51" gradientUnits="userSpaceOnUse"><stop offset="0" stop-color="#00fff0"/><stop offset=".45" stop-color="#00f6ff"/><stop offset=".9" stop-color="#b896ff"/></linearGradient></defs><path class="cls-1" d="m14.46,16.84c-1.69,0-3.07,1.37-3.07,3.06s1.38,3.06,3.07,3.06,3.07-1.37,3.07-3.06-1.38-3.06-3.07-3.06Zm0,4.73c-.92,0-1.67-.75-1.67-1.66s.75-1.66,1.67-1.66,1.67.75,1.67,1.66-.75,1.66-1.67,1.66Zm7.75-4.73c-1.69,0-3.07,1.37-3.07,3.06s1.38,3.06,3.07,3.06,3.07-1.37,3.07-3.06-1.38-3.06-3.07-3.06Zm0,4.73c-.92,0-1.67-.75-1.67-1.66s.75-1.66,1.67-1.66,1.67.75,1.67,1.66-.75,1.66-1.67,1.66Zm7.74-4.73c-1.69,0-3.07,1.37-3.07,3.06s1.38,3.06,3.07,3.06,3.07-1.37,3.07-3.06-1.38-3.06-3.07-3.06Zm0,4.73c-.92,0-1.67-.75-1.67-1.66s.75-1.66,1.67-1.66,1.67.75,1.67,1.66-.75,1.66-1.67,1.66Zm-12.26,14.69h39.43c.39,0,.7-.31.7-.7s-.31-.7-.7-.7H17.7c-.39,0-.7.31-.7.7s.31.7.7.7Zm39.43,7.19h-11.99c-.39,0-.7.31-.7.7s.31.7.7.7h11.99c.39,0,.7-.31.7-.7s-.31-.7-.7-.7Zm-39.43,1.4h18.57c.39,0,.7-.31.7-.7s-.31-.7-.7-.7h-18.57c-.39,0-.7.31-.7.7s.31.7.7.7Zm39.43,7.19H17.7c-.39,0-.7.31-.7.7s.31.7.7.7h39.43c.39,0,.7-.31.7-.7s-.31-.7-.7-.7Zm-41.13,14.7h-1.28l-.85-.96c-.26-.29-.7-.32-.99-.06-.29.26-.32.7-.06.99l1.06,1.2c.13.15.32.24.53.24h1.6c.39,0,.7-.31.7-.7s-.31-.7-.7-.7Zm12.47,0h-3.12c-.39,0-.7.31-.7.7s.31.7.7.7h3.12c.39,0,.7-.31.7-.7s-.31-.7-.7-.7Zm-6.24,0h-3.12c-.39,0-.7.31-.7.7s.31.7.7.7h3.12c.39,0,.7-.31.7-.7s-.31-.7-.7-.7Zm50.85-38.43c0-.39-.31-.7-.7-.7h0c-.39,0-.7.31-.7.7v3.12c0,.39.3.7.69.7h0c.39,0,.7-.31.7-.7v-3.12Zm-2.05-8.55c.14.15.33.23.52.23.17,0,.34-.06.47-.18.28-.26.3-.7.04-.99l-2.11-2.3c-.26-.28-.7-.3-.99-.04-.28.26-.3.7-.04.99l2.11,2.3Zm1.32,37.33h0c.39,0,.7-.32.7-.7v-3.12c0-.39-.32-.7-.7-.7s-.7.31-.7.7v3.12c0,.39.32.7.7.7Zm.72-22.54c0-.39-.31-.7-.7-.7h0c-.39,0-.7.31-.7.7v3.12c0,.39.31.7.69.7h0c.39,0,.7-.31.7-.7v-3.12Zm-38.36,32.19h-3.12c-.39,0-.7.31-.7.7s.31.7.7.7h3.12c.39,0,.7-.31.7-.7s-.31-.7-.7-.7Zm38.34-16.59v-3.12c0-.39-.31-.66-.7-.66h0c-.39,0-.7.35-.7.74v3.05c0,.39.31.7.7.7s.7-.31.7-.7Zm0-9.36c0-.39-.31-.68-.7-.68h0c-.39,0-.7.33-.7.72v3.08c0,.39.31.7.69.7h0c.39,0,.7-.31.7-.7v-3.12Zm-2.22,24.19c-.6.68-1.37,1.34-1.94,1.77-.33.06-.58.34-.58.69,0,.39.31.7.7.7h.12c.15,0,.29-.05.41-.13.32-.23,1.42-1.05,2.34-2.11.25-.29.23-.73-.07-.99-.29-.25-.73-.23-.99.07Zm1.53-6.18h0c-.39,0-.7.32-.7.7,0,1.39.01,2.46.02,3.13,0,.38.32.69.7.69h.01c.39,0,.69-.33.69-.71-.01-.66-.02-1.73-.02-3.11,0-.39-.31-.7-.7-.7Zm-5.58-45.75c-.08-.09-.18-.14-.28-.18-.62-.62-1.48-1-2.42-1H10.31c-1.89,0-3.43,1.54-3.43,3.42v43.78c0,1.7,1.25,3.11,2.89,3.37-.17.26-.17.6.04.85l1.06,1.2c.14.16.33.24.53.24.17,0,.33-.06.46-.17.29-.26.32-.7.06-.99l-.94-1.07h53.1c1.89,0,3.43-1.54,3.43-3.42V15.37c.11-.03.22-.07.31-.15.28-.26.3-.7.04-.99l-1.08-1.18Zm-.67,46.03c0,1.12-.91,2.02-2.03,2.02H10.31c-1.12,0-2.03-.91-2.03-2.02v-31.34h57.45c.15,0,.27-.05.38-.13v31.47Zm0-32.61c-.11-.08-.24-.13-.38-.13H8.28v-11.04c0-1.12.91-2.02,2.03-2.02h53.77c1.12,0,2.03.91,2.03,2.02v11.17Zm6.29-5.1h0c-.39,0-.7.31-.7.7v3.12c-.01.39.3.7.69.7h0c.39,0,.7-.31.7-.7v-3.12c.01-.39-.3-.7-.69-.7Zm-31.46,45.38h-3.12c-.39,0-.7.31-.7.7s.31.7.7.7h3.12c.39,0,.7-.31.7-.7s-.31-.7-.7-.7Zm6.24,0h-3.12c-.39,0-.7.31-.7.7s.31.7.7.7h3.12c.39,0,.7-.31.7-.7s-.31-.7-.7-.7Zm6.24,0h-3.12c-.39,0-.7.31-.7.7s.31.7.7.7h3.12c.39,0,.7-.31.7-.7s-.31-.7-.7-.7Zm6.24,0h-3.12c-.39,0-.7.31-.7.7s.31.7.7.7h3.12c.39,0,.7-.31.7-.7s-.31-.7-.7-.7Zm6.24,0h-3.12c-.39,0-.7.31-.7.7s.31.7.7.7h3.12c.39,0,.7-.31.7-.7s-.31-.7-.7-.7Z"/></svg>