<?xml version="1.0" encoding="UTF-8"?><svg id="dark_mode_gradient" xmlns="http://www.w3.org/2000/svg" xmlns:xlink="http://www.w3.org/1999/xlink" viewBox="0 0 80 80"><defs><style>.cls-1{fill:url(#Dark_mode_graident);}</style><linearGradient id="Dark_mode_graident" x1="18.57" y1="-44.92" x2="65.09" y2="-5.88" gradientTransform="translate(0 76.19)" gradientUnits="userSpaceOnUse"><stop offset="0" stop-color="#00fff0"/><stop offset=".45" stop-color="#00f6ff"/><stop offset=".9" stop-color="#b896ff"/></linearGradient></defs><path class="cls-1" d="m34.15,34.93c.09,1.95,2.74,3.46,6.11,3.46s6.02-1.51,6.11-3.46c0-.01,0-.03,0-.04v-7.01l-.02-2.29c-.44-4.59-3.56-5.56-6.09-5.56s-5.65.96-6.1,5.62l-.02,9.18s0,0,0,0c0,0,0,0,0,0v.06s0,.03,0,.04Zm1.39-7.04l.02-2.16c.18-1.84.85-4.29,4.7-4.29s4.52,2.45,4.7,4.23l.02,9.17c0,1.02-1.94,2.16-4.71,2.16s-4.71-1.14-4.71-2.16v-6.94Zm4.68-10.24c2.4,0,4.34-1.95,4.34-4.34s-1.95-4.35-4.34-4.35-4.35,1.95-4.35,4.35,1.95,4.34,4.35,4.34Zm0-7.29c1.62,0,2.94,1.32,2.94,2.95s-1.32,2.94-2.94,2.94-2.95-1.32-2.95-2.94,1.32-2.95,2.95-2.95Zm-20.85,42.33c-2.54,0-5.65.96-6.1,5.62l-.02,9.18s0,0,0,0c0,0,0,0,0,0v.06s0,.03,0,.04c.09,1.95,2.74,3.46,6.1,3.46s6.02-1.51,6.11-3.46c0-.01,0-.03,0-.04v-7.01l-.02-2.29c-.44-4.59-3.55-5.56-6.09-5.56Zm0,16.96c-2.78,0-4.71-1.14-4.71-2.16v-9.11c.19-1.84.87-4.29,4.71-4.29s4.52,2.45,4.7,4.23l.02,9.17c0,1.02-1.94,2.16-4.71,2.16Zm-.03-19.34c2.4,0,4.35-1.95,4.35-4.34s-1.95-4.35-4.35-4.35-4.34,1.95-4.34,4.35,1.95,4.34,4.34,4.34Zm0-7.29c1.62,0,2.95,1.32,2.95,2.95s-1.32,2.94-2.95,2.94-2.94-1.32-2.94-2.94,1.32-2.95,2.94-2.95Zm47.37,15.23c-.44-4.59-3.56-5.56-6.09-5.56s-5.65.96-6.1,5.62l-.02,9.18s0,0,0,0c0,0,0,0,0,0v.06s0,.03,0,.04c.09,1.95,2.74,3.46,6.11,3.46s6.02-1.51,6.11-3.46c0-.01,0-.03,0-.04v-7.01l-.02-2.29Zm-6.09,11.4c-2.78,0-4.71-1.14-4.71-2.16v-6.94l.02-2.17c.18-1.84.85-4.29,4.7-4.29s4.52,2.45,4.7,4.23l.02,9.17c0,1.02-1.94,2.16-4.71,2.16Zm-4.38-23.69c0,2.4,1.95,4.34,4.35,4.34s4.34-1.95,4.34-4.34-1.95-4.35-4.34-4.35-4.35,1.95-4.35,4.35Zm7.29,0c0,1.62-1.32,2.94-2.94,2.94s-2.95-1.32-2.95-2.94,1.32-2.95,2.95-2.95,2.94,1.32,2.94,2.95Zm-43.88-11.67c.07.02.14.03.2.03.3,0,.58-.2.67-.5.25-.84.56-1.67.92-2.49.16-.35,0-.77-.36-.92-.35-.15-.77,0-.92.36-.38.86-.71,1.75-.98,2.65-.11.37.1.76.47.87Zm-.59,4.29s.02,0,.02,0c.38,0,.69-.3.7-.68.01-.46.06-.96.15-1.51.06-.38-.21-.74-.59-.8-.39-.05-.74.2-.8.59-.09.6-.15,1.16-.16,1.67-.01.39.29.71.68.72Zm2.64-9.35c.11.07.24.1.36.1.24,0,.47-.12.6-.34.45-.76.96-1.5,1.49-2.19.24-.31.18-.75-.12-.98-.31-.24-.75-.18-.98.12-.57.74-1.11,1.52-1.59,2.33-.2.33-.09.76.24.96Zm6.31-7.16c-.24-.3-.68-.36-.98-.12-.74.58-1.46,1.2-2.12,1.87-.27.27-.27.72,0,.99.14.14.32.21.5.21s.36-.07.5-.21c.62-.62,1.29-1.21,1.99-1.75.31-.24.36-.68.12-.98Zm3.75-2.2c-.17-.34-.6-.48-.94-.31-.5.25-.98.52-1.45.79-.33.2-.44.63-.24.96.13.22.36.34.6.34.12,0,.24-.03.36-.1.44-.26.89-.51,1.36-.75.35-.17.48-.6.31-.94Zm27.03,11.48c.36.81.67,1.65.92,2.49.09.3.37.5.67.5.07,0,.13,0,.2-.03.37-.11.58-.5.47-.87-.27-.89-.6-1.78-.98-2.65-.16-.35-.57-.51-.92-.36-.35.16-.51.57-.36.92Zm1.51,5.06c.08.53.13,1.04.15,1.51.01.38.32.68.7.68,0,0,.02,0,.02,0,.39-.01.69-.34.68-.72-.02-.52-.07-1.08-.16-1.67-.06-.38-.41-.65-.8-.58-.38.06-.64.42-.58.8Zm-4.98-11.59c.27-.27.27-.72,0-.99-.66-.66-1.38-1.29-2.12-1.87-.3-.24-.75-.18-.98.12-.24.31-.18.75.12.98.7.54,1.36,1.13,1.99,1.75.14.14.32.21.5.21s.36-.07.5-.21Zm-4.22-3.49c.2-.33.09-.76-.24-.96-.46-.28-.95-.54-1.45-.79-.35-.17-.77-.04-.94.31s-.04.77.31.94c.47.24.92.49,1.36.75.11.07.24.1.36.1.24,0,.47-.12.6-.34Zm6.47,7.67c.13.22.36.34.6.34.12,0,.25-.03.36-.1.33-.2.44-.63.24-.96-.48-.81-1.02-1.59-1.59-2.33-.24-.3-.67-.36-.98-.12-.31.24-.36.68-.12.98.54.69,1.04,1.43,1.49,2.19Zm-27.8,20.79c-.49-.22-.95-.46-1.36-.7-.33-.19-.76-.08-.96.25-.19.33-.08.76.25.96.45.26.95.52,1.48.76.09.04.19.06.29.06.26,0,.52-.15.64-.41.16-.35,0-.77-.34-.93Zm18.06,1.14c-.96.31-1.97.56-2.98.74-.38.07-.63.43-.56.81.06.34.36.58.69.58.04,0,.08,0,.12-.01,1.08-.19,2.14-.46,3.16-.79.37-.12.57-.51.45-.88-.12-.37-.52-.57-.88-.45Zm4.25-1.85c-.46.26-.92.49-1.38.71-.35.17-.5.58-.33.93.12.25.37.4.63.4.1,0,.2-.02.3-.07.49-.23.98-.48,1.46-.75.34-.19.46-.61.27-.95-.19-.34-.62-.46-.95-.27Zm-16.44,2.53c-1.02-.19-2.03-.44-3-.74-.37-.12-.76.09-.87.46-.11.37.09.76.46.87,1.02.31,2.09.58,3.15.77.04,0,.09.01.13.01.33,0,.62-.24.69-.57.07-.38-.18-.75-.56-.82Zm6.15.42c-1.06.06-2.09.04-3.08-.03-.38-.04-.72.26-.75.65-.03.39.26.72.65.75.61.04,1.24.06,1.87.06.45,0,.91-.01,1.38-.04.39-.02.68-.35.66-.74-.02-.39-.36-.66-.74-.66Z"/></svg>