<svg width="300" height="300" viewBox="0 0 300 300" fill="none" xmlns="http://www.w3.org/2000/svg">
<path fill-rule="evenodd" clip-rule="evenodd" d="M135.658 101.498C141.364 95.5591 149.315 91.8714 158.103 91.8714C169.786 91.8714 179.982 98.3804 185.41 108.043C190.266 105.876 195.527 104.759 200.846 104.766C221.92 104.766 239 121.98 239 143.218C239 164.457 221.92 181.671 200.846 181.671C198.269 181.671 195.757 181.414 193.327 180.925C188.548 189.439 179.434 195.194 168.979 195.194C164.602 195.194 160.461 194.188 156.777 192.388C151.93 203.778 140.638 211.76 127.481 211.76C113.779 211.76 102.098 203.097 97.617 190.951C95.6203 191.372 93.585 191.584 91.5443 191.584C75.2274 191.585 62.0001 178.235 62.0001 161.765C61.9878 156.546 63.3453 151.414 65.9373 146.882C68.5292 142.35 72.265 138.576 76.7722 135.936C74.9023 131.632 73.9402 126.989 73.9459 122.297C73.9459 103.354 89.3376 88 108.324 88C113.613 87.9939 118.832 89.2089 123.574 91.5503C128.315 93.8917 132.451 97.296 135.658 101.498Z" fill="white"/>
<path fill-rule="evenodd" clip-rule="evenodd" d="M87.6351 152.186L88.3512 150.2C88.4655 149.86 88.723 149.972 88.8274 150.036C89.0269 150.154 89.1702 150.26 89.4277 150.411C91.5376 151.744 93.4927 151.757 94.1026 151.757C95.6822 151.757 96.6618 150.922 96.6618 149.794V149.736C96.6618 148.51 95.1517 148.046 93.4076 147.513L93.0205 147.389C90.6259 146.708 88.0648 145.724 88.0648 142.696V142.634C88.0648 139.76 90.3857 137.755 93.7077 137.755L94.0715 137.751C96.0229 137.751 97.9084 138.318 99.2751 139.145C99.399 139.223 99.519 139.366 99.4492 139.555L98.7136 141.541C98.584 141.88 98.2297 141.655 98.2297 141.655C96.8038 140.913 95.226 140.509 93.6186 140.474C92.2094 140.474 91.3034 141.22 91.3034 142.233V142.297C91.3034 143.479 92.856 143.983 94.6562 144.569L94.9659 144.666C97.3528 145.42 99.9004 146.465 99.9004 149.336V149.396C99.9004 152.5 97.6431 154.428 94.0136 154.428C92.2307 154.428 90.5252 154.153 88.721 153.196C88.3804 152.999 88.0435 152.829 87.7106 152.587C87.6757 152.536 87.5228 152.477 87.6331 152.186H87.6351ZM140.786 152.186L141.505 150.2C141.609 149.876 141.913 149.995 141.979 150.036C142.176 150.158 142.323 150.26 142.579 150.411C144.693 151.744 146.644 151.757 147.26 151.757C148.834 151.757 149.815 150.922 149.815 149.794V149.736C149.815 148.51 148.307 148.046 146.563 147.513L146.176 147.389C143.777 146.708 141.216 145.724 141.216 142.696V142.634C141.216 139.76 143.539 137.755 146.861 137.755L147.223 137.751C149.174 137.751 151.062 138.318 152.43 139.145C152.55 139.223 152.672 139.366 152.605 139.555C152.537 139.731 151.933 141.355 151.869 141.541C151.735 141.88 151.385 141.655 151.385 141.655C149.959 140.913 148.38 140.508 146.772 140.474C145.363 140.474 144.457 141.22 144.457 142.233V142.297C144.457 143.479 146.007 143.983 147.81 144.569L148.119 144.666C150.506 145.42 153.052 146.465 153.052 149.336V149.396C153.052 152.5 150.797 154.428 147.167 154.428C145.382 154.428 143.677 154.153 141.874 153.196C141.534 152.999 141.197 152.829 140.862 152.587C140.827 152.536 140.674 152.477 140.786 152.186ZM180.103 142.848C180.401 143.846 180.548 144.943 180.548 146.101C180.548 147.261 180.401 148.354 180.103 149.352C179.83 150.314 179.362 151.21 178.728 151.983C178.093 152.735 177.296 153.334 176.398 153.735C175.468 154.161 174.377 154.374 173.149 154.374C171.922 154.374 170.826 154.161 169.901 153.735C169.002 153.334 168.206 152.735 167.57 151.983C166.937 151.21 166.469 150.315 166.194 149.354C165.89 148.296 165.74 147.201 165.749 146.101C165.749 144.941 165.898 143.846 166.194 142.848C166.492 141.843 166.955 140.957 167.568 140.218C168.205 139.464 169.002 138.86 169.901 138.451C170.828 138.018 171.918 137.799 173.149 137.799C174.38 137.799 175.47 138.018 176.398 138.451C177.323 138.882 178.109 139.476 178.728 140.218C179.344 140.957 179.809 141.843 180.103 142.848ZM177.075 146.101C177.075 144.347 176.75 142.968 176.103 142.001C175.465 141.042 174.497 140.578 173.149 140.578C171.802 140.578 170.842 141.042 170.211 142.001C169.578 142.968 169.254 144.347 169.254 146.101C169.254 147.853 169.578 149.241 170.215 150.216C170.842 151.187 171.802 151.657 173.149 151.657C174.497 151.657 175.465 151.185 176.103 150.216C176.746 149.241 177.075 147.853 177.075 146.101ZM204.993 151.187L205.737 153.24C205.834 153.492 205.615 153.602 205.615 153.602C204.467 154.047 202.874 154.364 201.323 154.364C198.694 154.364 196.681 153.608 195.338 152.115C194.002 150.626 193.32 148.601 193.32 146.089C193.32 144.927 193.489 143.827 193.818 142.831C194.147 141.825 194.641 140.94 195.291 140.201C195.966 139.442 196.799 138.838 197.732 138.434C198.7 138.002 199.838 137.786 201.108 137.786C201.966 137.786 202.728 137.838 203.383 137.935C204.082 138.043 205.013 138.294 205.406 138.447C205.477 138.474 205.677 138.571 205.595 138.805C205.309 139.611 205.113 140.137 204.848 140.872C204.732 141.185 204.496 141.081 204.496 141.081C203.499 140.768 202.543 140.625 201.294 140.625C199.794 140.625 198.667 141.124 197.932 142.1C197.188 143.084 196.772 144.374 196.766 146.089C196.76 147.971 197.233 149.365 198.069 150.228C198.903 151.088 200.069 151.523 201.536 151.523C202.13 151.523 202.692 151.485 203.197 151.405C203.696 151.326 204.165 151.171 204.606 150.999C204.606 150.999 204.891 150.893 204.993 151.187ZM220.499 142.278C221.16 144.587 220.814 146.58 220.804 146.691C220.778 146.954 220.506 146.958 220.506 146.958L210.249 146.95C210.313 148.507 210.687 149.609 211.442 150.357C212.183 151.09 213.36 151.56 214.954 151.562C217.388 151.568 218.428 151.078 219.165 150.806C219.165 150.806 219.445 150.705 219.553 150.984L220.221 152.861C220.355 153.177 220.247 153.287 220.134 153.351C219.491 153.705 217.932 154.366 214.967 154.374C213.529 154.379 212.276 154.174 211.244 153.774C210.264 153.411 209.38 152.827 208.664 152.066C207.978 151.321 207.47 150.43 207.175 149.462C206.857 148.4 206.702 147.297 206.712 146.19C206.712 145.03 206.861 143.927 207.161 142.92C207.461 141.905 207.928 141.009 208.549 140.257C209.193 139.489 210.001 138.875 210.913 138.459C211.854 138.016 213.019 137.799 214.3 137.799C215.399 137.799 216.401 138.035 217.236 138.395C217.879 138.669 218.525 139.166 219.187 139.878C219.605 140.327 220.242 141.309 220.499 142.278ZM210.298 144.419H217.615C217.539 143.479 217.355 142.636 216.934 142.001C216.291 141.042 215.404 140.514 214.059 140.514C212.711 140.514 211.755 141.042 211.122 142.001C210.708 142.636 210.441 143.444 210.296 144.419H210.298ZM138.334 142.278C138.992 144.587 138.653 146.58 138.642 146.691C138.615 146.954 138.344 146.958 138.344 146.958L128.084 146.95C128.15 148.507 128.521 149.609 129.278 150.357C130.02 151.09 131.195 151.56 132.788 151.562C135.223 151.568 136.266 151.078 137.002 150.806C137.002 150.806 137.283 150.705 137.387 150.984L138.057 152.861C138.192 153.177 138.084 153.287 137.972 153.351C137.325 153.705 135.765 154.366 132.803 154.374C131.363 154.379 130.111 154.174 129.081 153.774C128.1 153.411 127.216 152.827 126.498 152.066C125.815 151.32 125.308 150.43 125.014 149.462C124.694 148.401 124.536 147.298 124.547 146.19C124.547 145.03 124.698 143.927 124.996 142.92C125.275 141.948 125.748 141.042 126.386 140.257C127.03 139.49 127.837 138.876 128.748 138.459C129.692 138.016 130.858 137.799 132.135 137.799C133.145 137.797 134.145 138 135.074 138.395C135.717 138.669 136.363 139.166 137.023 139.878C137.441 140.327 138.078 141.309 138.334 142.278ZM128.13 144.419H135.451C135.374 143.479 135.19 142.636 134.77 142.001C134.131 141.042 133.241 140.514 131.895 140.514C130.548 140.514 129.59 141.042 128.961 142.001C128.542 142.636 128.277 143.444 128.128 144.419H128.13ZM110.038 143.929C110.038 143.929 110.847 144.001 111.73 144.128V143.695C111.73 142.328 111.445 141.684 110.886 141.253C110.313 140.816 109.457 140.59 108.35 140.59C108.35 140.59 105.853 140.559 103.878 141.63C103.787 141.684 103.712 141.715 103.712 141.715C103.712 141.715 103.464 141.802 103.375 141.549L102.649 139.6C102.537 139.319 102.74 139.192 102.74 139.192C103.664 138.472 105.901 138.037 105.901 138.037C106.81 137.878 107.73 137.793 108.652 137.784C110.7 137.784 112.286 138.26 113.364 139.201C114.444 140.147 114.994 141.671 114.994 143.724L115 153.099C115 153.099 115.021 153.37 114.763 153.432C114.763 153.432 114.386 153.536 114.047 153.615C113.705 153.695 112.469 153.946 111.461 154.116C110.431 154.289 109.389 154.375 108.344 154.376C107.347 154.376 106.434 154.283 105.628 154.099C104.878 153.942 104.167 153.634 103.54 153.194C102.968 152.779 102.509 152.228 102.204 151.591C101.888 150.947 101.73 150.16 101.73 149.251C101.73 148.36 101.917 147.565 102.279 146.888C102.643 146.215 103.143 145.645 103.77 145.198C104.418 144.742 105.142 144.406 105.909 144.206C106.709 143.993 107.558 143.883 108.437 143.883C109.082 143.883 109.62 143.896 110.038 143.929ZM105.956 151.131C105.95 151.129 106.875 151.856 108.964 151.728C110.431 151.639 111.732 151.361 111.732 151.361V146.7C111.732 146.7 110.42 146.486 108.946 146.465C106.858 146.439 105.967 147.207 105.973 147.205C105.357 147.642 105.057 148.29 105.057 149.187C105.057 149.762 105.16 150.21 105.367 150.523C105.497 150.73 105.553 150.808 105.956 151.131ZM192.786 138.648C192.689 138.929 192.192 140.333 192.012 140.799C191.946 140.977 191.838 141.098 191.638 141.077C191.638 141.077 191.05 140.942 190.512 140.942C190.142 140.942 189.613 140.988 189.137 141.135C188.66 141.282 188.225 141.542 187.871 141.895C187.496 142.257 187.192 142.765 186.971 143.403C186.746 144.045 186.63 145.066 186.63 146.091V153.726C186.631 153.767 186.623 153.807 186.607 153.845C186.592 153.882 186.569 153.917 186.54 153.946C186.511 153.975 186.477 153.998 186.44 154.013C186.402 154.029 186.361 154.037 186.321 154.037H183.628C183.587 154.038 183.546 154.03 183.507 154.015C183.469 153.999 183.434 153.977 183.405 153.948C183.375 153.919 183.352 153.885 183.336 153.847C183.32 153.809 183.311 153.769 183.31 153.728V138.441C183.31 138.269 183.436 138.132 183.608 138.132H186.235C186.41 138.132 186.533 138.269 186.533 138.441V139.691C186.926 139.164 187.631 138.7 188.268 138.414C188.907 138.124 189.621 137.911 190.912 137.989C191.584 138.03 192.457 138.213 192.633 138.281C192.668 138.295 192.699 138.315 192.725 138.341C192.752 138.367 192.773 138.398 192.787 138.432C192.801 138.467 192.808 138.503 192.808 138.54C192.808 138.578 192.801 138.614 192.786 138.648ZM167.485 131.565C167.557 131.594 167.752 131.689 167.675 131.921L166.887 134.073C166.821 134.235 166.779 134.332 166.444 134.232C166.001 134.092 165.539 134.021 165.075 134.019C164.669 134.019 164.301 134.071 163.975 134.179C163.65 134.283 163.355 134.465 163.116 134.709C162.798 135.016 162.552 135.39 162.396 135.804C162.018 136.887 161.873 138.041 161.854 138.114H165.133C165.41 138.114 165.497 138.242 165.47 138.445L165.087 140.576C165.025 140.886 164.744 140.874 164.744 140.874H161.364L159.055 153.938C158.856 155.11 158.554 156.262 158.153 157.38C157.791 158.326 157.417 159.017 156.817 159.676C156.305 160.266 155.653 160.719 154.922 160.995C154.211 161.256 153.348 161.389 152.405 161.389C151.956 161.389 151.472 161.38 150.901 161.244C150.583 161.171 150.269 161.08 149.962 160.97C149.836 160.925 149.734 160.765 149.807 160.56C149.877 160.357 150.485 158.696 150.566 158.477C150.671 158.214 150.938 158.315 150.938 158.315C151.12 158.392 151.248 158.442 151.49 158.491C151.735 158.539 152.064 158.581 152.314 158.581C152.761 158.581 153.168 158.527 153.522 158.407C153.948 158.27 154.2 158.021 154.459 157.688C154.73 157.338 154.951 156.864 155.177 156.228C155.404 155.584 155.611 154.733 155.789 153.703L158.089 140.876H155.824C155.553 140.876 155.46 140.748 155.491 140.543L155.87 138.412C155.93 138.103 156.219 138.114 156.219 138.114H158.544L158.669 137.422C159.018 135.365 159.709 133.8 160.731 132.773C161.759 131.739 163.221 131.217 165.075 131.217C165.606 131.217 166.074 131.252 166.471 131.323C166.86 131.397 167.156 131.464 167.485 131.565ZM121.653 153.726C121.653 153.9 121.533 154.037 121.359 154.037H118.639C118.465 154.037 118.347 153.898 118.347 153.728V131.851C118.347 131.683 118.467 131.544 118.637 131.544H121.359C121.533 131.544 121.653 131.683 121.653 131.853V153.726Z" fill="#060606"/>
</svg>
