<svg width="1101" height="301" viewBox="0 0 1101 301" fill="none" xmlns="http://www.w3.org/2000/svg">
<path fill-rule="evenodd" clip-rule="evenodd" d="M152.246 182.518C154.818 182.518 156.964 180.244 156.964 177.519V104.738C156.964 102.003 154.818 99.7386 152.246 99.7386H81.4062C78.8439 99.7386 76.6933 102.003 76.6933 104.738V177.519C76.6933 180.244 78.8439 182.518 81.4062 182.518H152.246ZM180.155 157.049V238.5C180.155 254.848 167.697 268.062 152.246 268.062H61.1497V243.49H152.246C154.818 243.49 156.964 241.221 156.964 238.5V207.076H81.4062C65.9547 207.076 53.5013 193.885 53.5013 177.519V104.738C53.5013 88.3619 65.9547 75.1763 81.4062 75.1763H152.246C167.697 75.1763 180.155 88.3619 180.155 104.738V157.049Z" fill="#222951"/>
<path fill-rule="evenodd" clip-rule="evenodd" d="M303.996 128.84V104.738C303.996 102.003 301.85 99.7386 299.274 99.7386H228.434C225.867 99.7386 223.726 102.003 223.726 104.738V128.84H303.996ZM327.164 104.738V153.407H223.726V177.519C223.726 180.244 225.867 182.518 228.434 182.518H327.164V207.076H228.434C212.978 207.076 200.524 193.885 200.524 177.519V104.738C200.524 88.3619 212.978 75.1763 228.434 75.1763H299.274C314.72 75.1763 327.164 88.3619 327.164 104.738Z" fill="#222951"/>
<path fill-rule="evenodd" clip-rule="evenodd" d="M476.341 104.738V207.076H453.144V104.738C453.144 102.003 451.008 99.7386 448.436 99.7386H377.596C375.024 99.7386 372.878 102.003 372.878 104.738V207.076H349.691V75.1763H448.436C463.887 75.1763 476.341 88.3619 476.341 104.738Z" fill="#222951"/>
<path fill-rule="evenodd" clip-rule="evenodd" d="M524.201 99.7386C521.62 99.7386 519.479 102.003 519.479 104.738V177.519C519.479 180.244 521.62 182.518 524.201 182.518H595.031C597.594 182.518 599.754 180.244 599.754 177.519V104.738C599.754 102.003 597.594 99.7386 595.031 99.7386H524.201ZM595.031 75.1763C610.488 75.1763 622.931 88.3619 622.931 104.738V177.519C622.931 193.885 610.488 207.076 595.031 207.076H524.201C508.735 207.076 496.297 193.885 496.297 177.519V104.738C496.297 88.3619 508.735 75.1763 524.201 75.1763H595.031Z" fill="#222951"/>
<path fill-rule="evenodd" clip-rule="evenodd" d="M765.439 109.733H742.257V104.738C742.257 102.003 740.111 99.7386 737.539 99.7386H666.709C664.142 99.7386 661.996 102.003 661.996 104.738V123.845C661.996 126.571 664.142 128.84 666.709 128.84H737.539C752.99 128.84 765.439 142.035 765.439 158.402V177.519C765.439 193.885 752.99 207.076 737.539 207.076H666.709C651.267 207.076 638.804 193.885 638.804 177.519V172.514H661.996V177.519C661.996 180.244 664.142 182.518 666.709 182.518H737.539C740.111 182.518 742.257 180.244 742.257 177.519V158.402C742.257 155.682 740.111 153.407 737.539 153.407H666.709C651.267 153.407 638.804 140.222 638.804 123.845V104.738C638.804 88.3619 651.267 75.1763 666.709 75.1763H737.539C752.99 75.1763 765.439 88.3619 765.439 104.738V109.733Z" fill="#222951"/>
<path fill-rule="evenodd" clip-rule="evenodd" d="M786.897 207.071H810.079V75.176H786.897V207.071ZM786.897 56.53H810.079V31.9677H786.897V56.53Z" fill="#222951"/>
<path fill-rule="evenodd" clip-rule="evenodd" d="M854.936 99.7384V177.518C854.936 180.244 857.082 182.518 859.659 182.518H906.028V207.076H859.659C844.208 207.076 831.754 193.885 831.754 177.518V31.9677H854.936V75.1761H906.028V99.7384H854.936Z" fill="#222951"/>
<path fill-rule="evenodd" clip-rule="evenodd" d="M1047.25 157.049V238.5C1047.25 254.848 1034.8 268.062 1019.35 268.062H946.286V243.49H1019.35C1021.93 243.49 1024.07 241.221 1024.07 238.5V207.076H948.519C933.072 207.076 920.619 193.885 920.619 177.519V75.6321H943.801V177.519C943.801 180.244 945.947 182.518 948.519 182.518H1019.35C1021.93 182.518 1024.07 180.244 1024.07 177.519V75.6321H1047.25V156.588C1047.25 156.812 1047.25 157.049 1047.25 157.049Z" fill="#222951"/>
</svg>
