<svg width="156" height="62" viewBox="0 0 156 62" fill="none" xmlns="http://www.w3.org/2000/svg">
<g clip-path="url(#clip0_973_3)">
<path fill-rule="evenodd" clip-rule="evenodd" d="M0 62H30.2159V58.0514H0V62ZM0 53.7094H30.2159V49.7608H0V53.7094ZM8.63393 45.4189H21.5839V41.4722H8.63393V45.4189ZM8.63393 37.1302H21.5839V33.1816H8.63393V37.1302ZM8.63393 28.8397H21.5839V24.893H8.63393V28.8397ZM8.632 20.5491H21.5819V16.6005H8.632V20.5491ZM0 12.2586H30.2159V8.31187H0V12.2586ZM0 3.96994H30.2159V0.0213125H0V3.96994ZM34.5319 58.0533V62H66.3173C70.2277 62.0053 74.0114 60.6057 76.987 58.0533H34.5319ZM34.5319 49.7608V53.7094H80.5885C81.3018 52.4701 81.8521 51.1428 82.2255 49.7608H34.5319ZM43.1639 45.4189H56.1138V41.4722H43.1639V45.4189ZM77.2759 33.1816H43.1639V37.1302H80.4459C79.596 35.6594 78.5276 34.3278 77.2778 33.1816H77.2759ZM43.1658 24.893V28.8377H77.4203C78.6694 27.6922 79.7372 26.3612 80.5865 24.8911H43.1658V24.893ZM82.2236 12.2586C81.8518 10.8766 81.3014 9.54974 80.5865 8.31187H34.5319V12.2586H82.2236ZM76.987 3.96994C74.0114 1.41757 70.2277 0.0179814 66.3173 0.02325H34.5319V3.96994H76.987V3.96994ZM43.1639 20.5491H56.1138V16.6005H43.1639V20.5491ZM68.2799 20.5491H82.3199C82.6352 19.2568 82.7955 17.9312 82.7975 16.6005H68.2799V20.5491ZM68.2799 41.4722V45.4189H82.7975C82.7975 44.0568 82.6242 42.7374 82.3199 41.4722H68.2799ZM110.658 0H86.3296V3.94863H112.021L110.658 0ZM86.3316 62H107.921V58.0514H86.3316V62ZM86.3316 53.7075H107.921V49.7589H86.3316V53.7075ZM94.9655 45.4131H107.921V41.4644H94.9655V45.4131ZM94.9655 37.1206H107.921V33.1719H94.9655V37.1206ZM133.829 62H155.418V58.0514H133.829V62ZM133.829 53.7075H155.418V49.7589H133.829V53.7075ZM133.829 45.4131H146.783V41.4644H133.829V45.4131ZM133.827 37.1206H146.781V33.1719H133.827V37.1206ZM133.829 28.8281H146.783V24.8775H122.5L121.139 28.8261H132.508L133.829 25.0674V28.8281ZM119.246 24.8775H94.9674V28.8281H107.921V25.0693L109.242 28.8281H120.611L119.246 24.8775ZM146.781 16.585H125.36L123.999 20.5336H146.783L146.781 16.585ZM131.079 0L129.719 3.94863H155.418V0H131.079ZM120.865 62L122.252 58.0514H119.494L120.865 62ZM117.971 53.7075H123.777L125.164 49.7589H116.584L117.971 53.7075ZM115.061 45.415H126.687L128.074 41.4644H113.676L115.061 45.415ZM112.151 37.1206H129.599L130.984 33.1719H110.762L112.151 37.1206ZM94.9655 20.5336H117.749L116.388 16.585H94.9655V20.5336ZM126.857 12.2411H155.418V8.2925H128.22L126.857 12.2411ZM113.528 8.2925H86.3316V12.2411H114.889L113.528 8.2925Z" fill="black"/>
</g>
<defs>
<clipPath id="clip0_973_3">
<rect width="156" height="62" fill="white"/>
</clipPath>
</defs>
</svg>
