<svg width="245" height="204" viewBox="0 0 245 204" fill="none" xmlns="http://www.w3.org/2000/svg">
<path fill-rule="evenodd" clip-rule="evenodd" d="M139.788 95.627L139.783 95.6244C139.783 95.6244 139.781 95.6227 139.778 95.6227C139.676 95.5784 139.564 95.5555 139.457 95.5555C139.283 95.5567 139.117 95.6082 138.971 95.6986C138.823 95.7919 138.697 95.9279 138.625 96.0981V96.1022L135.231 105.328L132.614 99.1443L132.61 99.1415C132.537 98.9686 132.405 98.8351 132.256 98.7421C132.105 98.6488 131.931 98.5975 131.748 98.5975C131.57 98.5975 131.403 98.653 131.257 98.7433C131.113 98.8364 130.982 98.9686 130.909 99.1415L130.907 99.1443L128.286 105.332L124.873 96.1103H124.871C124.811 95.932 124.69 95.7931 124.546 95.7013C124.399 95.6082 124.228 95.5567 124.051 95.5555C123.938 95.5555 123.824 95.5784 123.717 95.6227H123.712L123.708 95.627C123.389 95.7743 123.195 96.09 123.194 96.4341C123.194 96.5422 123.216 96.65 123.257 96.7566H123.256L127.454 107.95V107.954C127.487 108.038 127.533 108.12 127.601 108.201C127.65 108.259 127.722 108.308 127.797 108.349C127.811 108.362 127.832 108.381 127.865 108.401C127.9 108.423 127.945 108.438 127.991 108.446C128.065 108.47 128.165 108.506 128.298 108.506C128.468 108.506 128.626 108.446 128.767 108.355C128.899 108.268 129.017 108.136 129.082 107.967L129.093 107.958L131.748 101.657L134.406 107.933H134.408C134.469 108.1 134.577 108.231 134.702 108.324C134.834 108.423 134.982 108.483 135.138 108.506H135.25C135.356 108.506 135.459 108.486 135.546 108.452C135.637 108.418 135.711 108.371 135.772 108.326C135.914 108.218 136.024 108.069 136.092 107.904V107.901L140.264 96.7566C140.304 96.65 140.325 96.5435 140.325 96.4358C140.325 96.0942 140.121 95.7689 139.788 95.627ZM120.598 102.018C120.598 100.703 120.09 99.5124 119.281 98.653C118.468 97.7917 117.367 97.2653 116.172 97.2653C114.975 97.2653 113.872 97.7917 113.061 98.653C112.25 99.5124 111.742 100.703 111.742 102.018C111.742 103.331 112.25 104.51 113.061 105.364C113.872 106.222 114.975 106.74 116.172 106.74C117.367 106.74 118.472 106.222 119.281 105.364C120.09 104.51 120.598 103.331 120.598 102.018ZM120.575 97.4543C121.697 98.6366 122.38 100.259 122.382 102.018C122.38 103.776 121.697 105.397 120.575 106.579C119.461 107.76 117.904 108.506 116.174 108.506C114.458 108.506 112.899 107.76 111.781 106.579C110.661 105.397 109.967 103.776 109.967 102.018C109.967 100.259 110.661 98.6366 111.781 97.4543C112.899 96.2746 114.458 95.5284 116.174 95.5284C117.904 95.5284 119.461 96.2746 120.575 97.4543ZM102.9 95.5513C101.509 95.5513 100.238 96.09 99.2896 96.9495V96.4358C99.2881 96.1994 99.1998 95.9792 99.0446 95.8173C98.8942 95.6581 98.6709 95.5513 98.4265 95.5513C98.1735 95.5513 97.9453 95.6524 97.7865 95.8158C97.63 95.9765 97.5364 96.1994 97.5364 96.4358V107.89L97.573 107.926L97.5745 107.932C97.5841 107.969 97.6082 108.011 97.634 108.052C97.755 108.263 97.9534 108.424 98.1993 108.495L98.2347 108.506H98.4265C98.5544 108.506 98.6832 108.48 98.8056 108.423C98.9077 108.374 99.0026 108.296 99.0789 108.196L99.0815 108.197C99.0909 108.188 99.0938 108.176 99.1046 108.167C99.1088 108.165 99.1128 108.161 99.1154 108.157C99.1629 108.096 99.2025 108.034 99.2271 107.976C99.2529 107.907 99.2691 107.842 99.2815 107.792L99.2896 107.76V100.882C99.3154 99.8985 99.7231 99.0092 100.377 98.3626C101.026 97.7165 101.916 97.3168 102.9 97.3168C103.901 97.3168 104.793 97.7165 105.44 98.3626C106.09 99.0068 106.484 99.8946 106.484 100.873V107.627C106.484 107.873 106.59 108.102 106.751 108.258C106.915 108.414 107.139 108.506 107.373 108.506C107.611 108.506 107.834 108.414 107.997 108.258C108.163 108.102 108.263 107.873 108.263 107.627V100.873C108.263 97.958 105.866 95.5555 102.9 95.5513ZM190.509 100.765C190.003 98.7284 188.202 97.2774 186.147 97.2816C184.041 97.2816 182.265 98.7015 181.714 100.765H190.509ZM192.456 101.599V101.687C192.456 101.931 192.346 102.151 192.178 102.296C192.013 102.441 191.797 102.517 191.564 102.52H181.591C181.845 104.937 183.788 106.721 186.107 106.74H186.696C187.464 106.742 188.212 106.479 188.869 106.043C189.528 105.612 190.098 105.008 190.499 104.344C190.581 104.202 190.7 104.095 190.829 104.028C190.961 103.957 191.103 103.924 191.245 103.924C191.403 103.924 191.559 103.965 191.696 104.047L191.706 104.051L191.717 104.059C191.967 104.242 192.123 104.52 192.123 104.825C192.123 104.98 192.082 105.138 191.996 105.281L191.994 105.286L191.991 105.289C191.434 106.169 190.674 106.972 189.772 107.554C188.868 108.137 187.82 108.506 186.696 108.506H186.098C184.348 108.494 182.766 107.76 181.626 106.586C180.487 105.416 179.787 103.808 179.787 102.042C179.787 100.245 180.494 98.6151 181.641 97.4354C182.788 96.2573 184.382 95.5284 186.147 95.5284C187.833 95.5284 189.346 96.1938 190.467 97.2831C191.589 98.3722 192.321 99.8848 192.452 101.587L192.456 101.599ZM151.544 90.1974C151.301 90.1974 151.079 90.2987 150.919 90.458C150.758 90.6159 150.656 90.8386 150.656 91.0801V107.627C150.656 107.868 150.758 108.089 150.919 108.246C151.079 108.402 151.301 108.506 151.544 108.506C152.048 108.506 152.456 108.112 152.459 107.627V91.0801C152.456 90.593 152.048 90.1974 151.544 90.1974ZM93.4239 101.702C92.7062 101.366 91.892 101.117 91.0797 100.85C90.3322 100.599 89.5736 100.386 89.0327 100.105C88.7609 99.9605 88.5489 99.8082 88.4117 99.6368C88.2716 99.4656 88.2037 99.2913 88.1996 99.0536C88.201 98.7284 88.2962 98.4666 88.4565 98.2344C88.6997 97.8877 89.1074 97.6176 89.5532 97.4432C89.9935 97.2685 90.4705 97.1859 90.8116 97.1859C91.82 97.1874 92.4576 97.5207 92.9469 97.8659C93.1886 98.0403 93.3927 98.2168 93.5857 98.3626C93.6848 98.4384 93.7773 98.5072 93.8847 98.5582C93.9863 98.6083 94.106 98.6488 94.2366 98.6488C94.3195 98.6488 94.4025 98.6339 94.4783 98.6016C94.5585 98.5695 94.628 98.5233 94.6947 98.4666C94.7598 98.4061 94.8156 98.3331 94.855 98.252C94.8904 98.1682 94.9066 98.0821 94.9066 97.9971C94.9066 97.8403 94.8562 97.6934 94.7842 97.5554C94.6497 97.3126 94.4429 97.0806 94.1795 96.8484C93.7881 96.5029 93.2717 96.1735 92.7158 95.9254C92.1584 95.6771 91.5606 95.5081 90.9911 95.5081C89.6715 95.5081 88.5694 95.805 87.7688 96.352C87.3515 96.6379 86.9846 96.951 86.7252 97.3829C86.4614 97.8162 86.3146 98.3507 86.2957 99.0456C86.2944 99.0766 86.2944 99.1076 86.2944 99.1387C86.2918 99.8136 86.5104 100.37 86.8541 100.805C87.3761 101.462 88.1508 101.854 88.9107 102.132C89.669 102.41 90.427 102.576 90.9056 102.735C91.5796 102.958 92.2958 103.2 92.8176 103.52C93.0775 103.683 93.2879 103.858 93.4309 104.051C93.5695 104.25 93.6479 104.455 93.6509 104.714V104.733C93.6494 105.108 93.5383 105.402 93.3546 105.655C93.0775 106.03 92.6167 106.305 92.1271 106.479C91.6395 106.649 91.1325 106.721 90.8062 106.721C89.6552 106.721 88.8848 106.446 88.3262 106.169C88.0462 106.03 87.8192 105.892 87.6138 105.776C87.512 105.721 87.4169 105.669 87.3163 105.629C87.2185 105.589 87.1139 105.563 86.9957 105.563C86.9237 105.563 86.845 105.575 86.7727 105.603C86.6995 105.634 86.6328 105.678 86.5769 105.73C86.4995 105.805 86.4317 105.888 86.3842 105.984C86.3379 106.08 86.3146 106.181 86.3146 106.286C86.3146 106.459 86.3797 106.617 86.4725 106.76C86.6178 106.966 86.8312 107.151 87.0975 107.336C87.3719 107.518 87.6997 107.698 88.0773 107.875C88.9146 108.268 89.9882 108.473 90.8038 108.486H90.8062C92.0745 108.486 93.1697 108.196 94.0925 107.521V107.52H94.0937C94.9961 106.845 95.5575 105.842 95.5575 104.71C95.5575 104.088 95.4107 103.56 95.154 103.128C94.7667 102.474 94.1373 102.042 93.4239 101.702ZM164.947 102.018C164.947 100.691 164.443 99.5017 163.637 98.6437C162.832 97.7878 161.728 97.2685 160.52 97.2655C159.321 97.2655 158.22 97.7878 157.408 98.6437C156.6 99.5017 156.089 100.691 156.089 102.018C156.089 103.343 156.6 104.524 157.408 105.375C158.216 106.227 159.321 106.74 160.52 106.74C161.731 106.74 162.836 106.227 163.64 105.378C164.443 104.524 164.947 103.344 164.947 102.018ZM166.459 95.7743C166.623 95.932 166.725 96.1603 166.725 96.407V107.627C166.725 107.868 166.621 108.089 166.464 108.246C166.304 108.402 166.082 108.506 165.837 108.506C165.593 108.506 165.369 108.402 165.211 108.246C165.051 108.089 164.947 107.868 164.947 107.627V106.532C163.829 107.732 162.258 108.506 160.52 108.506C158.79 108.506 157.232 107.768 156.116 106.586C154.996 105.409 154.312 103.788 154.312 102.018C154.312 100.247 154.996 98.6244 156.116 97.4465C157.232 96.2653 158.79 95.5284 160.52 95.5284C162.257 95.5284 163.829 96.2805 164.947 97.4745V96.407C164.947 96.1603 165.05 95.932 165.214 95.7743C165.378 95.619 165.6 95.5284 165.837 95.5284C166.073 95.5284 166.297 95.619 166.459 95.7743ZM179.007 96.9119C179.183 96.7379 179.279 96.5068 179.279 96.2776C179.279 96.0522 179.183 95.8265 179.005 95.6632H179.007C179.005 95.6581 179.001 95.6581 179.001 95.6581C179 95.6539 178.997 95.6524 178.997 95.6524H178.994C178.823 95.4852 178.603 95.3933 178.376 95.3933C178.146 95.3933 177.922 95.4884 177.751 95.6581L170.802 102.383V91.0801C170.802 90.593 170.392 90.1974 169.887 90.1974C169.644 90.1974 169.421 90.2987 169.263 90.458C169.105 90.6159 168.999 90.8386 168.999 91.0801V107.627C168.999 107.868 169.105 108.089 169.263 108.246C169.421 108.402 169.644 108.506 169.887 108.506C170.392 108.506 170.802 108.112 170.802 107.627V104.896L173.065 102.652L177.678 108.179C177.764 108.305 177.883 108.393 178 108.439C178.133 108.489 178.262 108.506 178.377 108.506C178.536 108.506 178.761 108.473 178.958 108.319L178.969 108.312L178.981 108.3C179.165 108.119 179.27 107.879 179.27 107.633C179.27 107.427 179.193 107.216 179.05 107.048V107.045L174.355 101.376L179.003 96.9119H179.007ZM147.878 90.2367H147.679C147.653 90.2367 147.628 90.2394 147.6 90.2404C147.576 90.2394 147.55 90.2367 147.525 90.2367C147.012 90.2367 146.515 90.2946 146.05 90.4484C145.592 90.5996 145.17 90.8494 144.841 91.2286L144.841 91.2271L144.839 91.2286V91.2298C144.501 91.6037 144.278 92.0505 144.142 92.5582C144.006 93.0683 143.95 93.6431 143.944 94.2963V95.5611H142.54C142.053 95.5638 141.666 95.9511 141.666 96.4194C141.663 96.6717 141.762 96.9039 141.922 97.0714C142.084 97.236 142.306 97.3439 142.551 97.3573H143.944V107.648L143.944 107.672C143.944 107.914 144.045 108.136 144.21 108.296C144.373 108.452 144.602 108.545 144.85 108.545C145.323 108.543 145.712 108.16 145.713 107.672V97.3573H147.223C147.466 97.3439 147.69 97.2425 147.851 97.0792C148.015 96.9161 148.116 96.6868 148.116 96.4382V96.4048C148.111 95.9415 147.72 95.5611 147.232 95.5611H145.713V94.3016C145.723 93.7444 145.781 93.3274 145.865 93.0238C145.946 92.7186 146.058 92.5269 146.159 92.4082C146.256 92.303 146.385 92.2151 146.592 92.1448C146.802 92.0776 147.091 92.0344 147.482 92.0344H147.528C147.552 92.0344 147.576 92.0302 147.598 92.0302C147.625 92.0302 147.651 92.0344 147.679 92.0344H147.793H147.878C148.379 92.0344 148.783 91.6322 148.783 91.1353C148.783 90.6389 148.379 90.2367 147.878 90.2367ZM58.3674 102.602C58.4394 102.376 58.4694 102.144 58.464 101.915C58.4556 101.749 58.434 101.583 58.3866 101.417C58.2437 100.901 57.9054 100.441 57.3983 100.15L50.1872 96.0155C49.1692 95.4337 47.8715 95.7796 47.2872 96.7891C46.6973 97.7971 47.0453 99.0844 48.0632 99.6678L52.0928 101.982L48.0632 104.29C47.0453 104.874 46.6986 106.162 47.2872 107.174C47.8715 108.181 49.1692 108.525 50.1872 107.943L57.3983 103.806C57.885 103.528 58.2152 103.091 58.3674 102.602ZM60.3244 106.477C59.9101 106.441 59.4793 106.528 59.0917 106.752L51.8752 110.884C50.86 111.467 50.5133 112.762 51.0992 113.771C51.6879 114.778 52.9844 115.125 53.9982 114.539L58.0413 112.223V116.851C58.0413 118.017 58.9912 118.962 60.1668 118.962C61.3367 118.962 62.2895 118.017 62.2895 116.851V108.578C62.2895 107.467 61.4225 106.555 60.3244 106.477ZM67.7147 97.485C68.1278 97.519 68.5574 97.4313 68.9449 97.2099L76.16 93.0737C77.1767 92.4903 77.5217 91.2015 76.9373 90.1891C76.3515 89.1814 75.0537 88.8356 74.0384 89.4185L69.998 91.7372V87.1078C69.998 85.945 69.0482 85 67.8726 85C66.6971 85 65.7496 85.945 65.7496 87.1078V95.3812C65.7496 96.4907 66.6142 97.4044 67.7147 97.485ZM51.8752 93.0737L59.0917 97.2099C59.4793 97.4313 59.9101 97.519 60.3244 97.485C61.4225 97.4044 62.2895 96.4907 62.2895 95.3812V87.1078C62.2895 85.945 61.3367 85 60.1668 85C58.9912 85 58.0413 85.945 58.0413 87.1078V91.7372L53.9982 89.4185C52.9844 88.8356 51.6879 89.1814 51.0992 90.1891C50.5133 91.2015 50.86 92.4903 51.8752 93.0737ZM65.4371 101.965C65.4371 101.845 65.3639 101.677 65.2782 101.588L64.4098 100.73C64.3242 100.645 64.1555 100.575 64.0344 100.575H64.0006C63.8796 100.575 63.7112 100.645 63.6269 100.73L62.7584 101.588C62.6714 101.677 62.6048 101.845 62.6048 101.965V101.998C62.6048 102.117 62.6714 102.283 62.7584 102.37L63.6269 103.231C63.7124 103.316 63.8796 103.386 64.0006 103.386H64.0344C64.1555 103.386 64.3242 103.316 64.4098 103.231L65.2782 102.37C65.3639 102.283 65.4371 102.117 65.4371 101.998V101.965ZM67.8345 102.791L64.8351 105.766C64.7493 105.853 64.5836 105.924 64.4587 105.924H64.2411H63.798H63.5767C63.4555 105.924 63.2871 105.853 63.2 105.766L60.2022 102.791C60.1164 102.707 60.047 102.538 60.047 102.419V102.199V101.759V101.542C60.047 101.421 60.1164 101.252 60.2022 101.167L63.2 98.1924C63.2871 98.1048 63.4555 98.0359 63.5767 98.0359H63.798H64.2411H64.4587C64.5809 98.0359 64.7493 98.1048 64.8351 98.1924L67.8345 101.167C67.9201 101.252 67.9894 101.421 67.9894 101.542V101.759V102.199V102.419C67.9894 102.538 67.9201 102.707 67.8345 102.791ZM76.16 110.884L68.9449 106.752C68.5574 106.528 68.1278 106.441 67.7147 106.477C66.6142 106.555 65.7496 107.467 65.7496 108.578V116.851C65.7496 118.017 66.6971 118.962 67.8726 118.962C69.0482 118.962 69.998 118.017 69.998 116.851V112.223L74.0384 114.539C75.0535 115.125 76.3515 114.778 76.9373 113.771C77.5217 112.762 77.1767 111.467 76.16 110.884ZM79.9749 99.6678L75.945 101.982L79.9749 104.29C80.9926 104.874 81.3405 106.162 80.7522 107.174C80.1649 108.181 78.866 108.525 77.8519 107.943L70.6354 103.806C70.1542 103.528 69.82 103.091 69.6717 102.602C69.6012 102.376 69.5685 102.144 69.5766 101.915C69.5808 101.749 69.6051 101.583 69.6513 101.417C69.7957 100.901 70.1341 100.441 70.6354 100.15L77.8519 96.0155C78.866 95.4337 80.1649 95.7796 80.7522 96.7891C81.3405 97.7971 80.9926 99.0844 79.9749 99.6678ZM197 95.5401C197 96.7002 196.218 97.6684 194.912 97.6684C193.614 97.6684 192.842 96.691 192.842 95.5401C192.842 94.38 193.614 93.4116 194.912 93.4116C196.218 93.4116 197 94.38 197 95.5401ZM196.586 95.5401C196.586 94.5537 195.924 93.8042 194.912 93.8042C193.918 93.8042 193.256 94.5168 193.256 95.5401C193.256 96.5174 193.918 97.2755 194.912 97.2755C195.924 97.2755 196.586 96.5266 196.586 95.5401ZM194.093 94.5808H194.985C195.473 94.5808 195.794 94.8456 195.794 95.2566C195.794 95.5125 195.666 95.7042 195.472 95.8232L195.823 96.3254V96.426H195.316L194.976 95.9418H194.581V96.426H194.093V94.5808ZM194.976 95.0285H194.581V95.5125H194.976C195.16 95.5125 195.28 95.4302 195.28 95.2752C195.28 95.1106 195.169 95.0285 194.976 95.0285Z" fill="#24BFF2"/>
</svg>
