<svg width="68" height="68" viewBox="0 0 68 68" fill="none" xmlns="http://www.w3.org/2000/svg">
<g clip-path="url(#clip0_1428_11700)">
<mask id="mask0_1428_11700" style="mask-type:alpha" maskUnits="userSpaceOnUse" x="0" y="0" width="68" height="68">
<circle cx="34" cy="34" r="34" fill="#D9D9D9"/>
</mask>
<g mask="url(#mask0_1428_11700)">
<g filter="url(#filter0_f_1428_11700)">
<ellipse cx="6.34485" cy="72.6339" rx="60.7442" ry="60.7442" transform="rotate(-30 6.34485 72.6339)" fill="#00FFF0"/>
</g>
<g filter="url(#filter1_f_1428_11700)">
<path d="M66.9991 18.097C78.1217 37.362 71.521 61.9959 52.2561 73.1185C32.9912 84.2411 8.35729 77.6404 -2.7653 58.3755C-13.8879 39.1106 -7.28725 14.4767 11.9776 3.3541C31.2426 -7.76849 55.8765 -1.16785 66.9991 18.097Z" fill="#00F6FF"/>
</g>
<g filter="url(#filter2_f_1428_11700)">
<ellipse cx="71.1395" cy="13.0774" rx="51.5084" ry="51.3903" transform="rotate(-30 71.1395 13.0774)" fill="#C3A6FF"/>
</g>
</g>
</g>
<g clip-path="url(#clip1_1428_11700)">
<path d="M44.5802 23.6314C44.4731 23.6314 44.3589 23.5886 44.2803 23.5029C44.1161 23.3387 44.1161 23.0674 44.2803 22.896L49.3069 17.8694C49.4711 17.7052 49.7424 17.7052 49.9138 17.8694C50.078 18.0337 50.078 18.305 49.9138 18.4763L44.8872 23.5029C44.8015 23.5886 44.6945 23.6314 44.5874 23.6314H44.5802Z" fill="black"/>
<path d="M24.2955 23.6314C24.1884 23.6314 24.0742 23.5886 23.9956 23.5029L18.9691 18.4763C18.8049 18.3121 18.8049 18.0408 18.9691 17.8694C19.1333 17.7052 19.4046 17.7052 19.576 17.8694L24.6025 22.896C24.7668 23.0602 24.7668 23.3315 24.6025 23.5029C24.5169 23.5886 24.4098 23.6314 24.3027 23.6314H24.2955Z" fill="black"/>
<path d="M49.6139 51.2133C49.5068 51.2133 49.3926 51.1704 49.314 51.0847L44.2875 46.0582C44.1233 45.894 44.1233 45.6226 44.2875 45.4513C44.4517 45.2871 44.723 45.2871 44.8944 45.4513L49.9209 50.4779C50.0852 50.6421 50.0852 50.9134 49.9209 51.0847C49.8353 51.1704 49.7282 51.2133 49.6211 51.2133H49.6139Z" fill="black"/>
<path d="M19.269 51.2133C19.1619 51.2133 19.0476 51.1704 18.9691 51.0847C18.8049 50.9205 18.8049 50.6492 18.9691 50.4779L23.9956 45.4513C24.1599 45.2871 24.4312 45.2871 24.6025 45.4513C24.7668 45.6155 24.7668 45.8868 24.6025 46.0582L19.576 51.0847C19.4903 51.1704 19.3832 51.2133 19.2761 51.2133H19.269Z" fill="black"/>
<path d="M34.4415 45.4513C28.3011 45.4513 23.3031 40.4533 23.3031 34.3129C23.3031 28.1725 28.3011 23.1745 34.4415 23.1745C40.5819 23.1745 45.5799 28.1725 45.5799 34.3129C45.5799 40.4533 40.5819 45.4513 34.4415 45.4513ZM34.4415 24.0313C28.7723 24.0313 24.1599 28.6437 24.1599 34.3129C24.1599 39.9821 28.7723 44.5945 34.4415 44.5945C40.1107 44.5945 44.7231 39.9821 44.7231 34.3129C44.7231 28.6437 40.1107 24.0313 34.4415 24.0313Z" fill="black"/>
<path d="M25.3523 32.3351C25.2166 32.3351 25.081 32.2709 25.0024 32.1495C24.8668 31.9567 24.9167 31.6854 25.1095 31.5569C25.3451 31.3927 25.6022 31.2356 25.8806 31.0856C26.0877 30.9714 26.3519 31.0571 26.459 31.2641C26.5732 31.4712 26.4875 31.7354 26.2805 31.8425C26.0306 31.9781 25.8021 32.1138 25.595 32.2566C25.5236 32.3066 25.438 32.3351 25.3523 32.3351Z" fill="black"/>
<path d="M41.2673 31.2784C41.2174 31.2784 41.1674 31.2712 41.1245 31.2498C40.6747 31.0856 40.1892 30.9428 39.6751 30.8143C39.4466 30.7572 39.3038 30.5215 39.361 30.2931C39.4181 30.0646 39.6466 29.9218 39.8822 29.9789C40.4177 30.1146 40.9318 30.2645 41.4102 30.4359C41.6315 30.5144 41.7457 30.7643 41.6672 30.9856C41.6029 31.157 41.4387 31.2712 41.2673 31.2712V31.2784ZM27.5086 31.2784C27.3301 31.2784 27.1659 31.1713 27.1087 30.9928C27.0302 30.7714 27.1444 30.5215 27.3658 30.443C27.8442 30.2716 28.3582 30.1146 28.8937 29.9789C29.1222 29.9218 29.3578 30.0646 29.415 30.2931C29.4721 30.5215 29.3293 30.7572 29.1008 30.8143C28.5938 30.9428 28.1083 31.0856 27.6514 31.2498C27.6014 31.2641 27.5514 31.2784 27.5086 31.2784ZM38.2614 30.5215C38.2614 30.5215 38.2114 30.5215 38.19 30.5215C37.7045 30.443 37.1975 30.3716 36.6763 30.3288C36.4407 30.3073 36.2693 30.1003 36.2908 29.8647C36.3122 29.629 36.5193 29.4577 36.7549 29.4791C37.2904 29.5291 37.8187 29.6005 38.3257 29.6862C38.5613 29.7219 38.7184 29.9432 38.6755 30.1788C38.6398 30.3859 38.4613 30.5358 38.2543 30.5358L38.2614 30.5215ZM30.5217 30.5215C30.3146 30.5215 30.1361 30.3716 30.1004 30.1645C30.0647 29.9289 30.2218 29.7076 30.4503 29.6719C30.9572 29.5862 31.4855 29.5219 32.021 29.472C32.2567 29.4577 32.4637 29.6219 32.4852 29.8575C32.5066 30.0931 32.3352 30.3002 32.0996 30.3216C31.5855 30.3716 31.0714 30.4359 30.5859 30.5144C30.5645 30.5144 30.5359 30.5144 30.5145 30.5144L30.5217 30.5215ZM35.1698 30.2288H35.1555C34.9199 30.2217 34.6914 30.2145 34.4558 30.2145H34.3701C34.1202 30.2145 33.8774 30.2145 33.6347 30.2217C33.3919 30.2145 33.1992 30.0432 33.192 29.8075C33.1849 29.5719 33.3705 29.372 33.6061 29.3649C33.8632 29.3577 34.1131 29.3577 34.3701 29.3577H34.4701C34.7057 29.3577 34.9485 29.3577 35.1912 29.372C35.4268 29.3791 35.6125 29.5791 35.6053 29.8147C35.5982 30.0432 35.4054 30.2288 35.1769 30.2288H35.1698Z" fill="black"/>
<path d="M43.4379 32.3351C43.3522 32.3351 43.2737 32.3137 43.1951 32.2637C42.9881 32.1209 42.7596 31.9853 42.5026 31.8496C42.2955 31.7425 42.2098 31.4783 42.3241 31.2713C42.4312 31.0642 42.6882 30.9785 42.9024 31.0928C43.188 31.2427 43.445 31.3998 43.6735 31.5569C43.8663 31.6925 43.9163 31.9567 43.7878 32.1495C43.7021 32.2709 43.5736 32.3351 43.4308 32.3351H43.4379Z" fill="black"/>
<path d="M26.0805 37.3688C26.0091 37.3688 25.9449 37.3545 25.8735 37.3188C25.595 37.1689 25.3308 37.0047 25.1024 36.8476C24.9096 36.7119 24.8596 36.4478 24.9953 36.2478C25.1309 36.0551 25.3951 36.0051 25.595 36.1407C25.7949 36.2835 26.0306 36.4263 26.2805 36.562C26.4875 36.6762 26.5661 36.9333 26.4518 37.1403C26.3733 37.2831 26.2233 37.3617 26.0734 37.3617L26.0805 37.3688Z" fill="black"/>
<path d="M34.5058 39.111H34.4201C34.1631 39.111 33.9132 39.111 33.6704 39.0967C33.4348 39.0895 33.2492 38.8896 33.2563 38.654C33.2563 38.4184 33.4634 38.2327 33.699 38.2399C33.9417 38.247 34.1774 38.2542 34.4273 38.2542H34.5129C34.7628 38.2542 35.0056 38.2542 35.2484 38.2399C35.484 38.2327 35.6839 38.4184 35.691 38.654C35.6982 38.8896 35.5125 39.0895 35.2769 39.0967C35.027 39.1038 34.77 39.111 34.5201 39.111H34.5058ZM36.8192 39.0039C36.5978 39.0039 36.4122 38.8396 36.3908 38.6183C36.3693 38.3827 36.5407 38.1756 36.7763 38.1542C37.2975 38.1042 37.8116 38.04 38.3043 37.9543C38.5328 37.9186 38.7612 38.0757 38.7969 38.3041C38.8326 38.5398 38.6756 38.7611 38.4471 38.7968C37.933 38.8825 37.3975 38.9539 36.862 39.0039C36.8477 39.0039 36.8334 39.0039 36.8192 39.0039ZM32.1139 39.0039C32.1139 39.0039 32.0853 39.0039 32.0711 39.0039C31.5356 38.9539 31.0001 38.8825 30.486 38.7968C30.2504 38.7611 30.0933 38.5398 30.1361 38.3041C30.179 38.0685 30.3932 37.9114 30.6288 37.9543C31.1286 38.04 31.6427 38.1042 32.1567 38.1542C32.3924 38.1756 32.5637 38.3898 32.5423 38.6254C32.5209 38.8468 32.3352 39.011 32.1139 39.011V39.0039ZM39.9179 38.4898C39.7251 38.4898 39.5538 38.3613 39.5038 38.1685C39.4467 37.94 39.5823 37.7044 39.818 37.6473C40.3392 37.5187 40.8247 37.3688 41.2745 37.2046C41.4959 37.126 41.7458 37.2403 41.8243 37.4616C41.9028 37.683 41.7886 37.9329 41.5673 38.0114C41.0889 38.1899 40.5677 38.347 40.025 38.4826C39.9893 38.4898 39.9536 38.4969 39.9179 38.4969V38.4898ZM29.0223 38.4755C29.0223 38.4755 28.9509 38.4755 28.9152 38.4612C28.3725 38.3256 27.8513 38.1613 27.3729 37.99C27.1516 37.9114 27.0374 37.6615 27.1159 37.4402C27.1944 37.2189 27.4443 37.1046 27.6657 37.1832C28.1226 37.3474 28.6153 37.4973 29.1222 37.6258C29.3507 37.683 29.4935 37.9186 29.4364 38.1471C29.3864 38.3398 29.2151 38.4684 29.0223 38.4684V38.4755Z" fill="black"/>
<path d="M42.8595 37.376C42.7096 37.376 42.5597 37.2974 42.4811 37.1546C42.3669 36.9476 42.4454 36.6834 42.6525 36.5691C42.9024 36.4335 43.1308 36.2907 43.3308 36.1479C43.5235 36.0122 43.7877 36.0551 43.9305 36.2478C44.0662 36.4406 44.0234 36.7048 43.8306 36.8476C43.6021 37.0118 43.345 37.176 43.0594 37.326C42.9952 37.3617 42.9238 37.376 42.8524 37.376H42.8595Z" fill="black"/>
<path d="M19.0048 21.8893H18.9977C18.7621 21.8893 18.5764 21.6894 18.5764 21.4537L18.6478 18.0123C18.6478 17.7838 18.8406 17.5981 19.0691 17.591L22.6248 17.5482C22.8604 17.541 23.0532 17.7338 23.0603 17.9694C23.0603 18.205 22.8747 18.3978 22.6391 18.405L19.4975 18.4407L19.4332 21.468C19.4332 21.7036 19.2404 21.8893 19.0048 21.8893Z" fill="black"/>
<path d="M49.8353 21.8893C49.5996 21.8893 49.414 21.7036 49.4069 21.468L49.3426 18.4407L46.201 18.405C45.9654 18.405 45.7726 18.205 45.7797 17.9694C45.7797 17.7338 45.9725 17.5482 46.2081 17.5482L49.7639 17.591C49.9923 17.591 50.1851 17.7766 50.1851 18.0123L50.2565 21.4537C50.2565 21.6894 50.0709 21.8893 49.8353 21.8893Z" fill="black"/>
<path d="M22.639 51.2847L19.0833 51.2418C18.8548 51.2418 18.662 51.0562 18.662 50.8206L18.5906 47.3791C18.5906 47.1435 18.7762 46.9435 19.0119 46.9435C19.2546 46.9435 19.4474 47.1292 19.4474 47.3648L19.5117 50.3922L22.6533 50.4279C22.8889 50.4279 23.0817 50.6278 23.0745 50.8634C23.0745 51.099 22.8817 51.2847 22.6461 51.2847H22.639Z" fill="black"/>
<path d="M46.201 51.2847C45.9654 51.2847 45.7726 51.099 45.7726 50.8634C45.7726 50.6278 45.9583 50.435 46.1939 50.4279L49.3355 50.3922L49.3998 47.3648C49.3998 47.1292 49.5925 46.9435 49.8282 46.9435H49.8353C50.0709 46.9435 50.2566 47.1435 50.2566 47.3791L50.1852 50.8206C50.1852 51.049 49.9924 51.2347 49.7639 51.2418L46.2082 51.2847H46.201Z" fill="black"/>
</g>
<defs>
<filter id="filter0_f_1428_11700" x="-123.915" y="-57.6256" width="260.519" height="260.519" filterUnits="userSpaceOnUse" color-interpolation-filters="sRGB">
<feFlood flood-opacity="0" result="BackgroundImageFix"/>
<feBlend mode="normal" in="SourceGraphic" in2="BackgroundImageFix" result="shape"/>
<feGaussianBlur stdDeviation="34.7526" result="effect1_foregroundBlur_1428_11700"/>
</filter>
<filter id="filter1_f_1428_11700" x="-70.3628" y="-64.2434" width="204.959" height="204.959" filterUnits="userSpaceOnUse" color-interpolation-filters="sRGB">
<feFlood flood-opacity="0" result="BackgroundImageFix"/>
<feBlend mode="normal" in="SourceGraphic" in2="BackgroundImageFix" result="shape"/>
<feGaussianBlur stdDeviation="31.0972" result="effect1_foregroundBlur_1428_11700"/>
</filter>
<filter id="filter2_f_1428_11700" x="-12.1392" y="-70.142" width="166.557" height="166.439" filterUnits="userSpaceOnUse" color-interpolation-filters="sRGB">
<feFlood flood-opacity="0" result="BackgroundImageFix"/>
<feBlend mode="normal" in="SourceGraphic" in2="BackgroundImageFix" result="shape"/>
<feGaussianBlur stdDeviation="15.8955" result="effect1_foregroundBlur_1428_11700"/>
</filter>
<clipPath id="clip0_1428_11700">
<rect width="68" height="68" fill="white"/>
</clipPath>
<clipPath id="clip1_1428_11700">
<rect width="42.84" height="42.84" fill="white" transform="translate(13 13)"/>
</clipPath>
</defs>
</svg>
