<svg width="68" height="68" viewBox="0 0 68 68" fill="none" xmlns="http://www.w3.org/2000/svg">
<g clip-path="url(#clip0_1428_11705)">
<mask id="mask0_1428_11705" style="mask-type:alpha" maskUnits="userSpaceOnUse" x="0" y="0" width="68" height="68">
<circle cx="34" cy="34" r="34" fill="#D9D9D9"/>
</mask>
<g mask="url(#mask0_1428_11705)">
<g filter="url(#filter0_f_1428_11705)">
<ellipse cx="15.6382" cy="-28.0869" rx="150.556" ry="130.715" transform="rotate(-30 15.6382 -28.0869)" fill="#FF7701"/>
</g>
<g filter="url(#filter1_f_1428_11705)">
<ellipse cx="68.7167" cy="103.631" rx="75.331" ry="79.2013" transform="rotate(-30 68.7167 103.631)" fill="#FF4B9B"/>
</g>
</g>
</g>
<g clip-path="url(#clip1_1428_11705)">
<g clip-path="url(#clip2_1428_11705)">
<path d="M45.1371 49.9852C42.7024 49.9852 40.7246 47.9931 40.7246 45.5441C40.7246 45.0443 40.8032 44.5588 40.9674 44.0947H33.0348C32.7992 44.0947 32.6064 43.9019 32.6064 43.6663C32.6064 43.4307 32.7992 43.2379 33.0348 43.2379H41.6171C41.7671 43.2379 41.9099 43.3164 41.9813 43.4449C42.0598 43.5735 42.0598 43.7377 41.9955 43.8662C41.7171 44.3874 41.5743 44.9515 41.5743 45.5441C41.5743 47.5219 43.1665 49.1284 45.13 49.1284C47.0935 49.1284 48.6786 47.5219 48.6786 45.5441C48.6786 44.9515 48.5358 44.3874 48.2573 43.8662C48.1859 43.7305 48.1931 43.5735 48.2716 43.4449C48.3501 43.3164 48.4858 43.2379 48.6357 43.2379H51.6345C52.4128 43.2379 53.0483 42.5953 53.0483 41.8027V26.8944C53.0483 26.109 52.4128 25.4664 51.6345 25.4664H28.0154C27.7798 25.4664 27.587 25.2736 27.587 25.038C27.587 24.8024 27.7798 24.6096 28.0154 24.6096H51.6488C52.8983 24.6096 53.9193 25.6306 53.9193 26.8944V41.8027C53.9193 43.0665 52.8983 44.0947 51.6488 44.0947H49.3069C49.4711 44.5588 49.5497 45.0443 49.5497 45.5441C49.5497 47.9931 47.5719 49.9852 45.1443 49.9852H45.1371Z" fill="black"/>
<path d="M31.0571 44.5373H15.3562C15.1206 44.5373 14.9278 44.3445 14.9278 44.1089V25.0523C14.9278 24.8166 15.1206 24.6239 15.3562 24.6239H20.0043C19.8687 24.1955 19.7973 23.7456 19.7973 23.2887C19.7973 20.8397 21.7751 18.8547 24.2098 18.8547C26.6445 18.8547 28.6295 20.8468 28.6295 23.2887C28.6295 23.7528 28.5581 24.1955 28.4295 24.6239H31.0571C33.349 24.6239 35.2197 26.5017 35.2197 28.8079V29.9646C35.4339 29.9289 35.6552 29.9146 35.8766 29.9146C38.3113 29.9146 40.2962 31.9067 40.2962 34.3557C40.2962 36.8047 38.3113 38.7896 35.8766 38.7896C35.6552 38.7896 35.4339 38.7753 35.2197 38.7396V40.3461C35.2197 42.6524 33.349 44.5373 31.0571 44.5373ZM15.7846 43.6805H31.0571C32.8778 43.6805 34.3629 42.1883 34.3629 40.3461V38.2041C34.3629 38.0685 34.4271 37.94 34.5342 37.8614C34.6413 37.7829 34.7841 37.7543 34.9127 37.7972C35.2197 37.89 35.541 37.94 35.8766 37.94C37.8401 37.94 39.4394 36.3335 39.4394 34.3628C39.4394 32.3922 37.8401 30.7785 35.8766 30.7785C35.5481 30.7785 35.2197 30.8214 34.9055 30.9142C34.777 30.9499 34.6342 30.9285 34.5271 30.8428C34.42 30.7643 34.3557 30.6357 34.3557 30.5001V28.8079C34.3557 26.9729 32.8706 25.4807 31.0499 25.4807H27.7869C27.637 25.4807 27.5013 25.4021 27.4228 25.2736C27.3443 25.1451 27.3371 24.988 27.4014 24.8595C27.6441 24.3811 27.7655 23.8527 27.7655 23.2887C27.7655 21.318 26.1662 19.7115 24.2027 19.7115C22.2392 19.7115 20.6469 21.318 20.6469 23.2887C20.6469 23.8385 20.7683 24.3668 21.0111 24.8595C21.0753 24.9951 21.0682 25.1522 20.9897 25.2736C20.9111 25.395 20.7755 25.4735 20.6255 25.4735H15.7846V43.6805Z" fill="black"/>
<path d="M26.6231 26.8087C26.4946 26.8087 26.3732 26.7516 26.2875 26.6517C26.1376 26.466 26.1662 26.1947 26.3518 26.0519C26.516 25.9162 26.6731 25.7592 26.8159 25.5807C26.9658 25.395 27.2372 25.3665 27.4157 25.5164C27.6013 25.6663 27.6299 25.9377 27.4799 26.1162C27.3014 26.3446 27.1015 26.5446 26.8873 26.7159C26.8088 26.7802 26.7159 26.8087 26.616 26.8087H26.6231Z" fill="black"/>
<path d="M24.2455 27.5585C23.9385 27.5585 23.6386 27.5299 23.3601 27.4728C23.1245 27.43 22.9746 27.2015 23.0174 26.973C23.0602 26.7374 23.2887 26.5874 23.5172 26.6303C24.0027 26.7231 24.5596 26.716 25.0309 26.6303C25.2594 26.5946 25.4878 26.7445 25.5307 26.973C25.5735 27.2086 25.4164 27.43 25.188 27.4728C24.8952 27.5228 24.5811 27.5513 24.2526 27.5513L24.2455 27.5585Z" fill="black"/>
<path d="M21.9107 26.8087C21.8179 26.8087 21.7322 26.7802 21.6537 26.7231C21.4323 26.5588 21.2324 26.3661 21.0468 26.1519C20.8897 25.9734 20.9111 25.702 21.0896 25.545C21.2681 25.3879 21.5394 25.4093 21.6965 25.5878C21.8464 25.7592 22.0107 25.9091 22.182 26.0448C22.3677 26.1876 22.4034 26.4589 22.2606 26.6445C22.1749 26.7516 22.0464 26.8159 21.9178 26.8159L21.9107 26.8087Z" fill="black"/>
<path d="M33.5418 37.8115C33.449 37.8115 33.3633 37.7829 33.2848 37.7258C33.0563 37.5545 32.8492 37.3545 32.6707 37.1475C32.5136 36.969 32.5351 36.6977 32.7136 36.5406C32.8921 36.3835 33.1634 36.4049 33.3205 36.5834C33.4561 36.7476 33.6203 36.8976 33.806 37.0332C33.9916 37.176 34.0273 37.4474 33.8845 37.633C33.7988 37.7472 33.6703 37.8044 33.5418 37.8044V37.8115Z" fill="black"/>
<path d="M32.2566 35.7338C32.0567 35.7338 31.871 35.591 31.8353 35.3839C31.7782 35.084 31.7497 34.7627 31.7497 34.4271C31.7497 34.0916 31.7782 33.7845 31.8425 33.4775C31.8925 33.249 32.1138 33.0991 32.3494 33.1419C32.5779 33.1919 32.7278 33.4133 32.685 33.6489C32.635 33.8916 32.6065 34.1558 32.6065 34.4271C32.6065 34.7127 32.6279 34.9841 32.6779 35.2268C32.7207 35.4624 32.5708 35.6838 32.3351 35.7266C32.3066 35.7266 32.2852 35.7338 32.2566 35.7338Z" fill="black"/>
<path d="M33.0063 32.4136C32.9135 32.4136 32.8135 32.3851 32.735 32.3137C32.5493 32.1637 32.5279 31.8924 32.6778 31.7139C32.8492 31.4997 33.0491 31.2998 33.2705 31.1213C33.4561 30.9713 33.7274 30.9999 33.8702 31.1784C34.0202 31.364 33.9916 31.6282 33.806 31.7782C33.6346 31.921 33.4704 32.078 33.3347 32.2494C33.249 32.3565 33.1277 32.4065 33.0063 32.4065V32.4136Z" fill="black"/>
<path d="M42.2669 43.0166C42.1741 43.0166 42.0884 42.988 42.0099 42.9309C41.8242 42.7881 41.7885 42.5168 41.9313 42.3311C42.1027 42.1026 42.3026 41.8956 42.5097 41.7171C42.6882 41.56 42.9595 41.5814 43.1166 41.7599C43.2736 41.9384 43.2522 42.2097 43.0737 42.3668C42.9095 42.5096 42.7596 42.6667 42.6239 42.8523C42.5382 42.9666 42.4097 43.0237 42.2812 43.0237L42.2669 43.0166Z" fill="black"/>
<path d="M46.0939 41.7385C46.0939 41.7385 46.0368 41.7385 46.0083 41.7313C45.5013 41.6242 44.9087 41.6314 44.4303 41.7313C44.1947 41.7742 43.9734 41.6242 43.9305 41.3886C43.8877 41.153 44.0376 40.9317 44.2732 40.8888C44.8587 40.7817 45.5656 40.7674 46.1796 40.896C46.4081 40.9459 46.558 41.1673 46.5152 41.4029C46.4724 41.6028 46.2939 41.7456 46.0939 41.7456V41.7385Z" fill="black"/>
<path d="M48.2002 43.0166C48.0789 43.0166 47.9503 42.9666 47.8718 42.8595C47.729 42.681 47.5719 42.5239 47.4006 42.3882C47.2149 42.2383 47.1935 41.967 47.3434 41.7885C47.4934 41.6028 47.7647 41.5743 47.9432 41.7314C48.1503 41.9027 48.3502 42.1026 48.5287 42.324C48.6786 42.5096 48.6501 42.7738 48.4716 42.9237C48.393 42.988 48.2931 43.0166 48.2002 43.0166Z" fill="black"/>
</g>
</g>
<defs>
<filter id="filter0_f_1428_11705" x="-254.632" y="-288.437" width="540.54" height="520.701" filterUnits="userSpaceOnUse" color-interpolation-filters="sRGB">
<feFlood flood-opacity="0" result="BackgroundImageFix"/>
<feBlend mode="normal" in="SourceGraphic" in2="BackgroundImageFix" result="shape"/>
<feGaussianBlur stdDeviation="62.1945" result="effect1_foregroundBlur_1428_11705"/>
</filter>
<filter id="filter1_f_1428_11705" x="-62.0115" y="-29.0356" width="261.456" height="265.333" filterUnits="userSpaceOnUse" color-interpolation-filters="sRGB">
<feFlood flood-opacity="0" result="BackgroundImageFix"/>
<feBlend mode="normal" in="SourceGraphic" in2="BackgroundImageFix" result="shape"/>
<feGaussianBlur stdDeviation="27.2" result="effect1_foregroundBlur_1428_11705"/>
</filter>
<clipPath id="clip0_1428_11705">
<rect width="68" height="68" fill="white"/>
</clipPath>
<clipPath id="clip1_1428_11705">
<rect width="42.84" height="42.84" fill="white" transform="translate(13 13)"/>
</clipPath>
<clipPath id="clip2_1428_11705">
<rect width="42.84" height="42.84" fill="white" transform="translate(13 13)"/>
</clipPath>
</defs>
</svg>
