<svg width="68" height="68" viewBox="0 0 68 68" fill="none" xmlns="http://www.w3.org/2000/svg">
<g clip-path="url(#clip0_1428_11710)">
<mask id="mask0_1428_11710" style="mask-type:alpha" maskUnits="userSpaceOnUse" x="0" y="0" width="68" height="68">
<circle cx="34" cy="34" r="34" fill="#D9D9D9"/>
</mask>
<g mask="url(#mask0_1428_11710)">
<g filter="url(#filter0_f_1428_11710)">
<ellipse cx="26.6354" cy="86.4403" rx="194.664" ry="194.664" transform="rotate(-30 26.6354 86.4403)" fill="#AC8EFF"/>
</g>
<g filter="url(#filter1_f_1428_11710)">
<ellipse cx="128.788" cy="30.8012" rx="87.5906" ry="87.3897" transform="rotate(-30 128.788 30.8012)" fill="#39C4FF"/>
</g>
</g>
</g>
<g clip-path="url(#clip1_1428_11710)">
<path d="M26.9864 47.1434H24.566C24.1304 47.1363 23.7592 46.8293 23.6806 46.4152L23.2665 44.3517C23.188 43.959 22.8952 43.6234 22.5239 43.502C21.9742 43.3021 21.4672 43.0665 20.9531 42.7666C20.4462 42.4739 19.9892 42.1526 19.5394 41.7742C19.2324 41.51 18.8111 41.4243 18.4256 41.5528C18.397 41.5671 18.3756 41.5742 18.3542 41.5742L16.4478 42.2168C16.4478 42.2168 16.4264 42.224 16.4121 42.2311C16.0337 42.3596 15.5839 42.1954 15.3625 41.8241L14.1487 39.725C13.9345 39.3537 14.0059 38.8753 14.3344 38.5897L15.9052 37.1974C16.2122 36.9332 16.355 36.5334 16.2836 36.1336C16.0694 34.9769 16.0694 33.8273 16.2836 32.7064C16.355 32.2994 16.2122 31.8995 15.9123 31.6282L14.3272 30.2431C14.0059 29.9646 13.9274 29.4862 14.1416 29.1149L15.3482 27.0229C15.5624 26.6516 16.0123 26.4803 16.4121 26.6159L18.4042 27.2942C18.7897 27.4299 19.2038 27.3442 19.5251 27.08C20.3891 26.3375 21.3815 25.7663 22.4882 25.3664C22.8738 25.2379 23.1523 24.9095 23.2237 24.5168L23.6449 22.4533C23.7306 22.0321 24.1019 21.725 24.5303 21.725H26.9507C27.4006 21.7393 27.7647 22.0392 27.8432 22.4533L28.2574 24.5168C28.3359 24.9095 28.6286 25.2451 28.9999 25.3736C29.5497 25.5735 30.0638 25.8091 30.5707 26.1019C31.0777 26.3946 31.5418 26.723 31.9844 27.0943C32.2843 27.3585 32.7127 27.4442 33.0983 27.3157L35.0903 26.6445C35.4902 26.5017 35.94 26.6731 36.1613 27.0443L37.3751 29.1435C37.5893 29.5148 37.5179 29.9932 37.1895 30.2788L35.6187 31.6711C35.3117 31.9352 35.1689 32.3351 35.2403 32.7349C35.2403 32.7349 35.2403 32.7421 35.2403 32.7492C35.4473 33.8987 35.4473 35.0483 35.2403 36.1621C35.1689 36.5691 35.3117 36.9689 35.6116 37.2403L37.1966 38.6326L37.2109 38.6468C37.5179 38.9253 37.5893 39.3894 37.3823 39.7607L36.1756 41.8527C35.9614 42.224 35.5116 42.3953 35.1118 42.2597L33.1197 41.5814C32.7341 41.4457 32.32 41.5314 31.9987 41.7956C31.1348 42.5381 30.1423 43.1093 29.0356 43.5092C28.6501 43.6377 28.3716 43.9661 28.3002 44.3588L27.8789 46.4294C27.7933 46.8507 27.422 47.1577 26.9936 47.1577L26.9864 47.1434ZM18.804 40.646C19.2895 40.646 19.7393 40.8174 20.0963 41.1244C20.4962 41.46 20.9174 41.7527 21.3815 42.0241C21.8528 42.2954 22.3169 42.5096 22.8095 42.6881C23.4664 42.9094 23.9662 43.4806 24.109 44.1803L24.5231 46.2438L26.9864 46.2866L27.4577 44.1875C27.5862 43.4949 28.0789 42.9166 28.75 42.6881C29.7496 42.3311 30.6564 41.8099 31.4347 41.1387C31.9916 40.6746 32.7199 40.5318 33.391 40.7674L35.3831 41.4457L36.6397 39.3323C36.6397 39.3323 36.604 39.268 36.5897 39.2395L35.0475 37.89C34.512 37.4259 34.2692 36.7262 34.3906 36.0265C34.5834 34.9983 34.5834 33.9487 34.3906 32.8991C34.3906 32.8991 34.3906 32.892 34.3906 32.8849C34.2692 32.1923 34.5191 31.4854 35.0475 31.0356L36.6112 29.6504C36.6112 29.6504 36.6112 29.5719 36.6112 29.5648L35.4116 27.4942C35.4116 27.4942 35.3474 27.4799 35.3402 27.4799L33.3625 28.151C32.6842 28.3724 31.9345 28.2296 31.4132 27.7655C31.0205 27.4299 30.5921 27.1372 30.128 26.8658C29.6639 26.5945 29.1927 26.3803 28.7 26.2018C28.0432 25.9805 27.5434 25.4093 27.4006 24.7096L26.9864 22.6461C26.9864 22.6461 26.9722 22.6033 26.9222 22.6033H24.5231L24.0519 24.7024C23.9234 25.395 23.4307 25.9733 22.7596 26.2018C21.76 26.5588 20.8532 27.08 20.0749 27.7512C19.518 28.2153 18.7897 28.3581 18.1186 28.1225L16.1265 27.4442L14.8699 29.5576C14.8699 29.5576 14.8913 29.6219 14.8984 29.629L16.4621 30.9999C16.9976 31.464 17.2403 32.1637 17.119 32.8634C16.9262 33.8916 16.9262 34.9412 17.119 35.9908C17.2475 36.6905 16.9976 37.4045 16.4621 37.8543L14.8984 39.2395C14.8984 39.2395 14.8984 39.318 14.8984 39.3251L16.0979 41.3957C16.0979 41.3957 16.1551 41.41 16.1693 41.41L18.1471 40.7389C18.1471 40.7389 18.2042 40.7246 18.2328 40.7174C18.4256 40.6675 18.6184 40.6389 18.804 40.6389V40.646ZM25.7655 41.0602C24.616 41.0602 23.4807 40.7603 22.4525 40.1677C20.9174 39.2823 19.8179 37.8543 19.3609 36.1478C18.904 34.4414 19.1324 32.6564 20.0178 31.1213C21.8456 27.9654 25.9012 26.8801 29.0713 28.708C30.6064 29.5933 31.706 31.0213 32.1629 32.7278C32.6199 34.4342 32.3914 36.2192 31.5061 37.7543C30.6207 39.2894 29.1927 40.3819 27.4862 40.8388C26.9222 40.9888 26.3438 41.0673 25.7726 41.0673L25.7655 41.0602ZM25.7655 28.6723C23.7734 28.6723 21.8314 29.7076 20.7675 31.5497C19.9964 32.8849 19.7965 34.4342 20.1963 35.9265C20.5961 37.4116 21.5529 38.654 22.8881 39.4322C24.2233 40.2034 25.7798 40.4104 27.2649 40.0177C28.75 39.6179 29.9995 38.6683 30.7635 37.3331C31.5275 35.9979 31.7345 34.4485 31.3347 32.9563C30.9349 31.4711 29.9781 30.2288 28.6429 29.4505C27.7361 28.9222 26.7365 28.6794 25.7584 28.6794L25.7655 28.6723Z" fill="black"/>
<path d="M47.9923 26.823C46.0859 26.823 44.5437 25.2736 44.5437 23.3744C44.5437 21.4752 46.0931 19.9258 47.9923 19.9258C49.8916 19.9258 51.4409 21.4752 51.4409 23.3744C51.4409 25.2736 49.8916 26.823 47.9923 26.823ZM47.9923 20.7754C46.5643 20.7754 45.4005 21.9393 45.4005 23.3673C45.4005 24.7953 46.5643 25.9591 47.9923 25.9591C49.4203 25.9591 50.5841 24.7953 50.5841 23.3673C50.5841 21.9393 49.4203 20.7754 47.9923 20.7754Z" fill="black"/>
<path d="M47.9923 37.8686C46.0859 37.8686 44.5437 36.3192 44.5437 34.42C44.5437 32.5208 46.0931 30.9714 47.9923 30.9714C49.8916 30.9714 51.4409 32.5208 51.4409 34.42C51.4409 36.3192 49.8916 37.8686 47.9923 37.8686ZM47.9923 31.821C46.5643 31.821 45.4005 32.9849 45.4005 34.4129C45.4005 35.8409 46.5643 37.0118 47.9923 37.0118C49.4203 37.0118 50.5841 35.848 50.5841 34.4129C50.5841 32.9777 49.4203 31.821 47.9923 31.821Z" fill="black"/>
<path d="M47.9923 48.9213C46.0859 48.9213 44.5437 47.3291 44.5437 45.3656C44.5437 43.4021 46.0931 41.8099 47.9923 41.8099C49.8916 41.8099 51.4409 43.4021 51.4409 45.3656C51.4409 47.3291 49.8916 48.9213 47.9923 48.9213ZM47.9923 42.6667C46.5643 42.6667 45.4005 43.8805 45.4005 45.3656C45.4005 46.8507 46.5643 48.0645 47.9923 48.0645C49.4203 48.0645 50.5841 46.8507 50.5841 45.3656C50.5841 43.8805 49.4203 42.6667 47.9923 42.6667Z" fill="black"/>
<path d="M44.5652 45.9011C42.3089 45.9011 40.4739 44.0661 40.4739 41.8099V26.9159C40.4739 24.6096 42.3518 22.7318 44.658 22.7318C44.8936 22.7318 45.0864 22.9246 45.0864 23.1602C45.0864 23.3958 44.8936 23.5886 44.658 23.5886C42.823 23.5886 41.3307 25.0809 41.3307 26.9159V41.8099C41.3307 43.5949 42.7802 45.0443 44.5652 45.0443C44.8008 45.0443 44.9936 45.2371 44.9936 45.4727C44.9936 45.7083 44.8008 45.9011 44.5652 45.9011Z" fill="black"/>
<path d="M25.1586 30.7001C25.1086 30.7001 25.0587 30.6929 25.0087 30.6715C24.7802 30.5858 24.5589 30.5215 24.3375 30.4644C24.109 30.4073 23.9662 30.1788 24.0234 29.9432C24.0805 29.7147 24.309 29.5719 24.5446 29.6291C24.7945 29.6933 25.0515 29.7647 25.3086 29.8647C25.5299 29.9504 25.6441 30.1931 25.5585 30.4144C25.4942 30.5858 25.33 30.6929 25.1586 30.6929V30.7001Z" fill="black"/>
<path d="M27.6576 37.7972C27.5791 37.7972 27.5006 37.7758 27.4292 37.7329C27.2292 37.6044 27.1721 37.3402 27.2935 37.1403C27.5363 36.7548 27.7219 36.3478 27.8361 35.9408C27.9004 35.7123 28.1432 35.5838 28.3645 35.6481C28.593 35.7123 28.7215 35.9479 28.6572 36.1764C28.5216 36.6619 28.3002 37.1403 28.0146 37.5973C27.9361 37.7258 27.7933 37.7972 27.6505 37.7972H27.6576ZM28.4216 35.0554C28.1931 35.0554 28.0075 34.8769 27.9932 34.6485C27.9789 34.3986 27.9432 34.1344 27.8861 33.8773C27.8433 33.6988 27.7933 33.5203 27.7362 33.3633C27.6576 33.1419 27.779 32.892 28.0004 32.8206C28.2217 32.7421 28.4645 32.8635 28.543 33.0848C28.6073 33.2776 28.6715 33.4775 28.7144 33.6917C28.7858 33.9987 28.8286 34.3129 28.8429 34.6199C28.85 34.8555 28.6715 35.0554 28.4359 35.0697H28.4145L28.4216 35.0554ZM27.472 32.3708C27.3435 32.3708 27.215 32.3137 27.1293 32.1994C26.8722 31.8567 26.5581 31.5497 26.1868 31.2927C25.994 31.157 25.9512 30.8857 26.0868 30.6929C26.2225 30.5001 26.4938 30.4573 26.6866 30.5929C27.1221 30.9071 27.5077 31.2712 27.8147 31.6854C27.9575 31.871 27.9218 32.1423 27.729 32.2851C27.6505 32.3422 27.5648 32.3708 27.472 32.3708Z" fill="black"/>
<path d="M26.1868 39.4323C26.0654 39.4323 25.9369 39.3752 25.8512 39.2752C25.7013 39.0896 25.7298 38.8254 25.9155 38.6755C26.094 38.5327 26.2725 38.3756 26.4438 38.2042C26.6152 38.04 26.8865 38.04 27.0507 38.2042C27.215 38.3684 27.215 38.6469 27.0507 38.8111C26.858 39.0039 26.658 39.1753 26.4581 39.3395C26.3796 39.4037 26.2796 39.4323 26.1868 39.4323Z" fill="black"/>
<path d="M23.2522 22.8462C23.0595 22.8462 22.881 22.7105 22.8381 22.5177C22.781 22.2893 22.9238 22.0536 23.1523 22.0037C23.4307 21.9394 23.7021 21.8823 23.9305 21.8537C24.159 21.818 24.3804 21.9894 24.4089 22.225C24.4375 22.4606 24.2733 22.6748 24.0376 22.7034C23.8306 22.7319 23.5878 22.7748 23.3451 22.839C23.3094 22.8462 23.2808 22.8533 23.2451 22.8533L23.2522 22.8462Z" fill="black"/>
<path d="M20.8318 24.6526C20.7889 24.6526 20.7532 24.6526 20.7104 24.6312C20.4819 24.5669 20.3534 24.3241 20.4177 24.0957C20.5033 23.8172 20.6604 23.3103 20.7961 23.0675C20.9032 22.8747 21.1245 22.7105 21.5101 22.532C21.7243 22.432 21.9813 22.532 22.0813 22.7391C22.1812 22.9533 22.0813 23.2103 21.8742 23.3103C21.5958 23.4388 21.5315 23.5102 21.5315 23.5173C21.5029 23.5673 21.3958 23.8243 21.2459 24.3384C21.1888 24.5241 21.0174 24.6454 20.8318 24.6454V24.6526Z" fill="black"/>
<path d="M20.3534 26.9803C20.3534 26.9803 20.3249 26.9803 20.3106 26.9803C20.075 26.9588 19.9036 26.7446 19.925 26.509C19.9464 26.2591 19.9893 26.0021 20.0393 25.7308C20.0821 25.4951 20.3034 25.3452 20.539 25.388C20.7747 25.4309 20.9246 25.6522 20.8818 25.8878C20.8389 26.1306 20.8032 26.3734 20.7818 26.5947C20.7604 26.816 20.5748 26.9803 20.3534 26.9803Z" fill="black"/>
<path d="M14.4414 39.6679C14.2344 39.6679 14.0559 39.518 14.0202 39.3109C13.9916 39.1253 13.9345 38.8825 13.8631 38.6112C13.806 38.3827 13.9488 38.1471 14.1772 38.09C14.4057 38.0329 14.6413 38.1757 14.6985 38.4041C14.7699 38.704 14.8341 38.9682 14.8698 39.1753C14.9055 39.4109 14.7484 39.6322 14.5128 39.6679C14.4914 39.6679 14.47 39.6679 14.4414 39.6679Z" fill="black"/>
<path d="M13.9131 37.4188C13.7132 37.4188 13.5347 37.276 13.4918 37.069C13.4276 36.7262 13.3919 36.4549 13.3919 36.2479C13.3919 36.0122 13.4276 35.8409 13.5132 35.7052C13.5918 35.5696 13.7203 35.4196 13.9059 35.2483C14.0844 35.0912 14.3558 35.1055 14.5128 35.2768C14.6699 35.4553 14.6556 35.7195 14.4843 35.8837C14.3272 36.0265 14.2701 36.1051 14.2558 36.1265C14.2558 36.1265 14.2558 36.1622 14.2558 36.2479C14.2558 36.3978 14.2844 36.6191 14.3415 36.9047C14.3843 37.1404 14.2344 37.3617 14.0059 37.4045C13.9773 37.4045 13.9488 37.4117 13.9202 37.4117L13.9131 37.4188Z" fill="black"/>
<path d="M15.4482 35.0841C15.3054 35.0841 15.1697 35.0127 15.084 34.8841C14.9555 34.6842 15.0198 34.42 15.2197 34.2915C15.4696 34.1344 15.7052 33.9916 15.8766 33.8917C16.0836 33.7774 16.3407 33.8488 16.4621 34.0488C16.5763 34.2558 16.5049 34.5129 16.305 34.6342C16.1336 34.7271 15.9123 34.8627 15.6767 35.0127C15.6053 35.0555 15.5267 35.0769 15.4482 35.0769V35.0841Z" fill="black"/>
<path d="M24.209 46.9792C24.1305 46.9792 24.0591 46.9578 23.9877 46.915C23.8163 46.8079 23.595 46.6936 23.3594 46.5794C23.1452 46.4723 23.0595 46.2152 23.1666 46.0082C23.2737 45.794 23.5307 45.7083 23.7449 45.8154C24.0091 45.9439 24.2447 46.0724 24.4375 46.1867C24.6374 46.3081 24.7017 46.5722 24.5803 46.7722C24.5018 46.9078 24.359 46.9792 24.2162 46.9792H24.209Z" fill="black"/>
<path d="M22.4097 46.0582C22.3455 46.0582 22.2741 46.0439 22.2098 46.0082C21.4601 45.6227 21.1531 45.387 21.046 45.1229C21.0317 45.0872 21.0174 45.0515 21.0032 45.0086C20.9318 44.7801 21.0531 44.5445 21.2816 44.4731C21.5101 44.4017 21.7457 44.5231 21.8171 44.7516C21.8385 44.8016 21.9671 44.9301 22.6025 45.2514C22.8096 45.3585 22.8953 45.6155 22.7882 45.8297C22.7096 45.9797 22.5597 46.0653 22.4097 46.0653V46.0582Z" fill="black"/>
<path d="M21.1817 44.0518C20.9675 44.0518 20.7818 43.8947 20.7604 43.6805C20.7247 43.3878 20.6961 43.1093 20.6747 42.9166C20.6533 42.6809 20.8247 42.4739 21.0603 42.4525C21.2959 42.4382 21.503 42.6024 21.5244 42.838C21.5387 43.0237 21.5672 43.2878 21.6029 43.5663C21.6315 43.8019 21.4673 44.0161 21.2316 44.0447C21.2102 44.0447 21.1959 44.0447 21.1745 44.0447L21.1817 44.0518Z" fill="black"/>
<path d="M44.658 34.8484H35.4831C35.2474 34.8484 35.0547 34.6557 35.0547 34.42C35.0547 34.1844 35.2474 33.9916 35.4831 33.9916H44.658C44.8936 33.9916 45.0864 34.1844 45.0864 34.42C45.0864 34.6557 44.8936 34.8484 44.658 34.8484Z" fill="black"/>
</g>
<defs>
<filter id="filter0_f_1428_11710" x="-292.45" y="-232.645" width="638.171" height="638.171" filterUnits="userSpaceOnUse" color-interpolation-filters="sRGB">
<feFlood flood-opacity="0" result="BackgroundImageFix"/>
<feBlend mode="normal" in="SourceGraphic" in2="BackgroundImageFix" result="shape"/>
<feGaussianBlur stdDeviation="62.1945" result="effect1_foregroundBlur_1428_11710"/>
</filter>
<filter id="filter1_f_1428_11710" x="-22.3496" y="-120.235" width="302.275" height="302.073" filterUnits="userSpaceOnUse" color-interpolation-filters="sRGB">
<feFlood flood-opacity="0" result="BackgroundImageFix"/>
<feBlend mode="normal" in="SourceGraphic" in2="BackgroundImageFix" result="shape"/>
<feGaussianBlur stdDeviation="31.7911" result="effect1_foregroundBlur_1428_11710"/>
</filter>
<clipPath id="clip0_1428_11710">
<rect width="68" height="68" fill="white"/>
</clipPath>
<clipPath id="clip1_1428_11710">
<rect width="42.84" height="42.84" fill="white" transform="translate(11 13)"/>
</clipPath>
</defs>
</svg>
