<svg width="100" height="100" viewBox="0 0 100 100" fill="none" xmlns="http://www.w3.org/2000/svg">
<g clip-path="url(#clip0_43203_31832)">
<mask id="mask0_43203_31832" style="mask-type:alpha" maskUnits="userSpaceOnUse" x="0" y="0" width="100" height="100">
<path d="M50 100C77.6142 100 100 77.6142 100 50C100 22.3858 77.6142 0 50 0C22.3858 0 0 22.3858 0 50C0 77.6142 22.3858 100 50 100Z" fill="#D9D9D9"/>
</mask>
<g mask="url(#mask0_43203_31832)">
<g filter="url(#filter0_f_43203_31832)">
<path d="M27.3941 243.76C60.9534 224.384 72.4517 181.472 53.0762 147.913C33.7007 114.353 -9.21139 102.855 -42.7707 122.231C-76.33 141.606 -87.8283 184.518 -68.4528 218.077C-49.0773 251.637 -6.1652 263.135 27.3941 243.76Z" fill="#00FFD3"/>
</g>
<g filter="url(#filter1_f_43203_31832)">
<path d="M178.328 12.3851C232.381 106.006 200.304 225.719 106.682 279.771C13.0611 333.824 -106.652 301.747 -160.704 208.126C-214.756 114.504 -182.679 -5.20858 -89.058 -59.2608C4.56316 -113.313 124.276 -81.2361 178.328 12.3851Z" fill="#00F6FF"/>
</g>
<g filter="url(#filter2_f_43203_31832)">
<path d="M142.4 84.6802C178.63 63.7631 191.082 17.5039 170.212 -18.6425C149.343 -54.789 103.056 -67.1348 66.826 -46.2176C30.5965 -25.3004 18.1444 20.9587 39.0136 57.1052C59.8827 93.2516 106.17 105.597 142.4 84.6802Z" fill="#C3A6FF"/>
</g>
<g filter="url(#filter3_f_43203_31832)">
<path d="M155.928 256.453C190.636 236.414 202.528 192.033 182.489 157.324C162.45 122.616 118.069 110.724 83.3604 130.763C48.6519 150.802 36.76 195.183 56.7989 229.892C76.8378 264.6 121.219 276.492 155.928 256.453Z" fill="#00FFD3"/>
</g>
<mask id="mask1_43203_31832" style="mask-type:luminance" maskUnits="userSpaceOnUse" x="-91" y="-8" width="234" height="216">
<path d="M142.135 -7.13281H-90.0078V207.153H142.135V-7.13281Z" fill="white"/>
</mask>
<g mask="url(#mask1_43203_31832)">
<path d="M142.135 -7.13281H-90.0078V207.153H142.135V-7.13281Z" fill="black"/>
<g filter="url(#filter4_f_43203_31832)">
</g>
<g filter="url(#filter5_f_43203_31832)">
<path d="M206.293 405.902C343.214 326.851 390.126 151.771 311.075 14.85C232.024 -122.071 56.9439 -168.983 -79.9769 -89.9321C-216.898 -10.8808 -263.81 164.199 -184.759 301.12C-105.708 438.041 69.3723 484.953 206.293 405.902Z" fill="#FF7701"/>
</g>
<g filter="url(#filter6_f_43203_31832)">
<path d="M159.29 253.266C212.276 222.675 230.487 155.021 199.966 102.156C169.445 49.2922 101.749 31.2364 48.7635 61.8278C-4.22224 92.4191 -22.4334 160.073 8.08784 212.937C38.609 265.802 106.305 283.857 159.29 253.266Z" fill="#FF4B9B"/>
</g>
<g filter="url(#filter7_f_43203_31832)">
</g>
<g filter="url(#filter8_f_43203_31832)">
</g>
</g>
</g>
<g clip-path="url(#clip1_43203_31832)">
<path d="M52.17 76.1201C52.06 76.1201 51.95 76.0901 51.85 76.0301L27.38 60.5701C27.25 60.4901 27.15 60.3501 27.12 60.1901C27.09 60.0301 27.12 59.8701 27.2 59.7401L47.32 27.8901C47.4 27.7501 47.54 27.6601 47.7 27.6201L56.28 25.7501C56.43 25.7201 56.59 25.7501 56.73 25.8301L70.92 34.7901C71.06 34.8801 71.16 35.0201 71.19 35.1801L72.9 43.5501C72.93 43.7001 72.9 43.8601 72.82 43.9901L52.69 75.8401C52.61 75.9701 52.47 76.0701 52.31 76.1001C52.27 76.1001 52.22 76.1101 52.18 76.1101L52.17 76.1201ZM28.53 59.8701L51.99 74.6901L71.67 43.5501L70.06 35.6701L56.3 26.9701L48.21 28.7301L28.54 59.8601L28.53 59.8701Z" fill="black"/>
<path d="M63.24 31.25C63.13 31.25 63.02 31.22 62.92 31.16C62.64 30.98 62.56 30.61 62.73 30.33L66.63 24.15C66.81 23.87 67.18 23.78 67.46 23.96C67.74 24.14 67.82 24.51 67.65 24.79L63.75 30.97C63.64 31.15 63.44 31.25 63.24 31.25Z" fill="black"/>
<path d="M56.06 50.86C54.49 50.86 52.9 50.43 51.48 49.53C47.47 46.99 46.26 41.67 48.8 37.65C51.34 33.64 56.67 32.43 60.68 34.97C64.69 37.51 65.9 42.83 63.36 46.85C61.72 49.44 58.93 50.86 56.07 50.86H56.06ZM56.09 34.84C53.63 34.84 51.22 36.06 49.81 38.29C47.63 41.74 48.66 46.33 52.12 48.51C55.58 50.69 60.16 49.66 62.34 46.2C63.4 44.53 63.74 42.54 63.3 40.61C62.86 38.68 61.7 37.03 60.03 35.98C58.8 35.21 57.44 34.84 56.08 34.84H56.09Z" fill="black"/>
<path d="M53.68 38.4C53.61 38.4 53.55 38.39 53.48 38.37C53.17 38.26 52.88 38.17 52.59 38.1C52.27 38.02 52.08 37.69 52.16 37.37C52.24 37.05 52.57 36.86 52.89 36.94C53.2 37.02 53.53 37.12 53.86 37.24C54.17 37.35 54.34 37.69 54.23 38C54.14 38.25 53.91 38.4 53.66 38.4H53.68Z" fill="black"/>
<path d="M59.92 42C59.78 42 59.65 41.96 59.54 41.86C59.1 41.5 58.63 41.14 58.14 40.8C57.87 40.61 57.8 40.24 57.99 39.97C58.18 39.7 58.55 39.63 58.82 39.82C59.34 40.18 59.84 40.56 60.3 40.94C60.55 41.15 60.59 41.53 60.38 41.79C60.26 41.93 60.09 42.01 59.92 42.01V42ZM56.95 39.93C56.85 39.93 56.74 39.9 56.65 39.85C56.14 39.55 55.61 39.27 55.1 39.03C54.8 38.89 54.67 38.53 54.81 38.23C54.95 37.93 55.31 37.8 55.61 37.94C56.16 38.2 56.71 38.49 57.26 38.81C57.55 38.98 57.64 39.35 57.48 39.63C57.37 39.82 57.17 39.93 56.96 39.93H56.95Z" fill="black"/>
<path d="M61.91 43.96C61.74 43.96 61.56 43.89 61.45 43.74C61.27 43.51 61.06 43.28 60.84 43.05C60.61 42.81 60.62 42.43 60.86 42.2C61.1 41.97 61.48 41.97 61.71 42.22C61.96 42.48 62.18 42.73 62.39 42.98C62.6 43.24 62.56 43.61 62.31 43.82C62.2 43.91 62.06 43.96 61.93 43.96H61.91Z" fill="black"/>
<path d="M50.85 42.03C50.69 42.03 50.53 41.97 50.41 41.84C50.17 41.57 49.95 41.31 49.75 41.06C49.55 40.8 49.6 40.42 49.86 40.22C50.12 40.02 50.5 40.07 50.7 40.33C50.88 40.56 51.08 40.79 51.29 41.03C51.51 41.27 51.5 41.65 51.26 41.88C51.14 41.99 51 42.04 50.85 42.04V42.03Z" fill="black"/>
<path d="M57.06 46.43C56.98 46.43 56.89 46.41 56.81 46.37C56.23 46.1 55.65 45.79 55.07 45.46C54.78 45.29 54.69 44.93 54.85 44.64C55.01 44.35 55.38 44.26 55.67 44.42C56.22 44.74 56.77 45.03 57.32 45.28C57.62 45.42 57.75 45.78 57.61 46.08C57.51 46.3 57.29 46.43 57.07 46.43H57.06ZM53.75 44.51C53.63 44.51 53.51 44.47 53.41 44.4C52.86 44.01 52.33 43.61 51.85 43.2C51.6 42.99 51.57 42.61 51.78 42.35C52 42.1 52.37 42.07 52.63 42.28C53.09 42.67 53.58 43.05 54.1 43.41C54.37 43.6 54.44 43.97 54.25 44.24C54.13 44.41 53.95 44.5 53.76 44.5L53.75 44.51Z" fill="black"/>
<path d="M59.78 47.42C59.78 47.42 59.69 47.42 59.64 47.4C59.33 47.32 59 47.23 58.66 47.12C58.35 47.02 58.18 46.68 58.28 46.36C58.39 46.05 58.72 45.88 59.04 45.98C59.35 46.08 59.64 46.17 59.93 46.23C60.25 46.31 60.45 46.63 60.37 46.95C60.3 47.23 60.06 47.41 59.79 47.41L59.78 47.42Z" fill="black"/>
<path d="M52.05 64.7401C51.94 64.7401 51.83 64.7101 51.73 64.6501L37.48 55.6401C37.2 55.4601 37.12 55.0901 37.29 54.8101C37.47 54.5301 37.84 54.4401 38.12 54.6201L52.37 63.6301C52.65 63.8101 52.73 64.1801 52.56 64.4601C52.45 64.6401 52.25 64.7401 52.05 64.7401Z" fill="black"/>
<path d="M49.95 68.07C49.84 68.07 49.73 68.04 49.63 67.98L35.37 58.97C35.09 58.79 35.01 58.42 35.18 58.14C35.36 57.86 35.73 57.77 36.01 57.95L50.27 66.96C50.55 67.14 50.63 67.51 50.46 67.79C50.35 67.97 50.15 68.07 49.95 68.07Z" fill="black"/>
</g>
</g>
<defs>
<filter id="filter0_f_43203_31832" x="-282.293" y="-91.6094" width="549.209" height="549.209" filterUnits="userSpaceOnUse" color-interpolation-filters="sRGB">
<feFlood flood-opacity="0" result="BackgroundImageFix"/>
<feBlend mode="normal" in="SourceGraphic" in2="BackgroundImageFix" result="shape"/>
<feGaussianBlur stdDeviation="102.214" result="effect1_foregroundBlur_43203_31832"/>
</filter>
<filter id="filter1_f_43203_31832" x="-369.886" y="-268.443" width="757.396" height="757.396" filterUnits="userSpaceOnUse" color-interpolation-filters="sRGB">
<feFlood flood-opacity="0" result="BackgroundImageFix"/>
<feBlend mode="normal" in="SourceGraphic" in2="BackgroundImageFix" result="shape"/>
<feGaussianBlur stdDeviation="91.4625" result="effect1_foregroundBlur_43203_31832"/>
</filter>
<filter id="filter2_f_43203_31832" x="-64.6072" y="-149.902" width="338.44" height="338.266" filterUnits="userSpaceOnUse" color-interpolation-filters="sRGB">
<feFlood flood-opacity="0" result="BackgroundImageFix"/>
<feBlend mode="normal" in="SourceGraphic" in2="BackgroundImageFix" result="shape"/>
<feGaussianBlur stdDeviation="46.7516" result="effect1_foregroundBlur_43203_31832"/>
</filter>
<filter id="filter3_f_43203_31832" x="-105.758" y="-31.794" width="450.804" height="450.804" filterUnits="userSpaceOnUse" color-interpolation-filters="sRGB">
<feFlood flood-opacity="0" result="BackgroundImageFix"/>
<feBlend mode="normal" in="SourceGraphic" in2="BackgroundImageFix" result="shape"/>
<feGaussianBlur stdDeviation="76.4113" result="effect1_foregroundBlur_43203_31832"/>
</filter>
<filter id="filter4_f_43203_31832" x="-268.034" y="-42.6962" width="614.122" height="614.122" filterUnits="userSpaceOnUse" color-interpolation-filters="sRGB">
<feFlood flood-opacity="0" result="BackgroundImageFix"/>
<feBlend mode="normal" in="SourceGraphic" in2="BackgroundImageFix" result="shape"/>
<feGaussianBlur stdDeviation="102.214" result="effect1_foregroundBlur_43203_31832"/>
</filter>
<filter id="filter5_f_43203_31832" x="-406.085" y="-311.258" width="938.486" height="938.486" filterUnits="userSpaceOnUse" color-interpolation-filters="sRGB">
<feFlood flood-opacity="0" result="BackgroundImageFix"/>
<feBlend mode="normal" in="SourceGraphic" in2="BackgroundImageFix" result="shape"/>
<feGaussianBlur stdDeviation="91.4625" result="effect1_foregroundBlur_43203_31832"/>
</filter>
<filter id="filter6_f_43203_31832" x="-100.212" y="-46.5652" width="408.479" height="408.224" filterUnits="userSpaceOnUse" color-interpolation-filters="sRGB">
<feFlood flood-opacity="0" result="BackgroundImageFix"/>
<feBlend mode="normal" in="SourceGraphic" in2="BackgroundImageFix" result="shape"/>
<feGaussianBlur stdDeviation="46.7516" result="effect1_foregroundBlur_43203_31832"/>
</filter>
<filter id="filter7_f_43203_31832" x="77.3777" y="-185.502" width="408.479" height="408.224" filterUnits="userSpaceOnUse" color-interpolation-filters="sRGB">
<feFlood flood-opacity="0" result="BackgroundImageFix"/>
<feBlend mode="normal" in="SourceGraphic" in2="BackgroundImageFix" result="shape"/>
<feGaussianBlur stdDeviation="46.7516" result="effect1_foregroundBlur_43203_31832"/>
</filter>
<filter id="filter8_f_43203_31832" x="-33.7253" y="20.9457" width="517.941" height="517.941" filterUnits="userSpaceOnUse" color-interpolation-filters="sRGB">
<feFlood flood-opacity="0" result="BackgroundImageFix"/>
<feBlend mode="normal" in="SourceGraphic" in2="BackgroundImageFix" result="shape"/>
<feGaussianBlur stdDeviation="76.4113" result="effect1_foregroundBlur_43203_31832"/>
</filter>
<clipPath id="clip0_43203_31832">
<rect width="100" height="100" fill="white"/>
</clipPath>
<clipPath id="clip1_43203_31832">
<rect width="60" height="60" fill="white" transform="translate(20 20)"/>
</clipPath>
</defs>
</svg>
