<svg width="100" height="100" viewBox="0 0 100 100" fill="none" xmlns="http://www.w3.org/2000/svg">
<g clip-path="url(#clip0_43203_32066)">
<mask id="mask0_43203_32066" style="mask-type:alpha" maskUnits="userSpaceOnUse" x="0" y="0" width="100" height="100">
<path d="M50 100C77.6142 100 100 77.6142 100 50C100 22.3858 77.6142 0 50 0C22.3858 0 0 22.3858 0 50C0 77.6142 22.3858 100 50 100Z" fill="#D9D9D9"/>
</mask>
<g mask="url(#mask0_43203_32066)">
<g filter="url(#filter0_f_43203_32066)">
<path d="M27.3941 243.76C60.9534 224.384 72.4517 181.472 53.0762 147.913C33.7008 114.353 -9.21136 102.855 -42.7707 122.231C-76.33 141.606 -87.8282 184.518 -68.4528 218.077C-49.0773 251.637 -6.16517 263.135 27.3941 243.76Z" fill="#00FFD3"/>
</g>
<g filter="url(#filter1_f_43203_32066)">
<path d="M178.328 12.3851C232.381 106.006 200.304 225.719 106.682 279.771C13.0611 333.824 -106.652 301.747 -160.704 208.126C-214.756 114.504 -182.679 -5.20858 -89.058 -59.2608C4.56317 -113.313 124.276 -81.2361 178.328 12.3851Z" fill="#00F6FF"/>
</g>
<g filter="url(#filter2_f_43203_32066)">
<path d="M142.4 84.6802C178.63 63.7631 191.082 17.5039 170.212 -18.6425C149.343 -54.789 103.056 -67.1348 66.8261 -46.2176C30.5965 -25.3004 18.1444 20.9587 39.0136 57.1052C59.8827 93.2516 106.17 105.597 142.4 84.6802Z" fill="#C3A6FF"/>
</g>
<g filter="url(#filter3_f_43203_32066)">
<path d="M155.928 256.453C190.636 236.414 202.528 192.033 182.489 157.324C162.45 122.616 118.069 110.724 83.3604 130.763C48.652 150.802 36.76 195.183 56.7989 229.892C76.8378 264.6 121.219 276.492 155.928 256.453Z" fill="#00FFD3"/>
</g>
</g>
<g clip-path="url(#clip1_43203_32066)">
<path d="M50 76.7999C35.3 76.7999 23.34 64.78 23.34 50C23.34 35.22 35.3 23.2 50 23.2C64.7 23.2 76.66 35.22 76.66 50C76.66 64.78 64.7 76.7999 50 76.7999ZM50 24.41C35.96 24.4 24.54 35.89 24.54 50C24.54 64.11 35.96 75.5999 50 75.5999C64.04 75.5999 75.46 64.12 75.46 50C75.46 35.88 64.04 24.4 50 24.4V24.41Z" fill="black"/>
<path d="M49.87 63.3601C42.65 63.3601 36.78 57.4901 36.78 50.2701C36.78 43.0501 42.65 37.1801 49.87 37.1801C57.09 37.1801 62.96 43.0501 62.96 50.2701C62.96 57.4901 57.09 63.3601 49.87 63.3601ZM49.87 38.3701C43.31 38.3701 37.98 43.7101 37.98 50.2601C37.98 56.8101 43.32 62.1501 49.87 62.1501C56.42 62.1501 61.76 56.8101 61.76 50.2601C61.76 43.7101 56.42 38.3701 49.87 38.3701Z" fill="black"/>
<path d="M39.79 48.7C39.56 48.7 39.35 48.57 39.24 48.35C39.1 48.05 39.24 47.69 39.53 47.55C39.88 47.39 40.28 47.23 40.7 47.09C41.01 46.98 41.35 47.15 41.46 47.46C41.57 47.77 41.4 48.12 41.09 48.22C40.71 48.35 40.35 48.49 40.03 48.64C39.95 48.68 39.86 48.7 39.78 48.7H39.79Z" fill="black"/>
<path d="M43.4 47.6C43.12 47.6 42.87 47.4 42.81 47.12C42.75 46.79 42.96 46.48 43.28 46.41C44.1 46.24 44.98 46.11 45.89 46.01C46.21 45.98 46.52 46.21 46.55 46.54C46.59 46.87 46.35 47.17 46.02 47.2C45.14 47.3 44.3 47.42 43.51 47.58C43.47 47.58 43.43 47.59 43.39 47.59L43.4 47.6ZM56.27 47.49C56.27 47.49 56.2 47.49 56.17 47.49C55.37 47.35 54.53 47.24 53.65 47.16C53.32 47.13 53.08 46.84 53.11 46.51C53.14 46.18 53.43 45.93 53.76 45.97C54.66 46.05 55.54 46.17 56.37 46.32C56.7 46.38 56.91 46.69 56.86 47.02C56.81 47.31 56.56 47.52 56.27 47.52V47.49ZM48.53 47.02C48.21 47.02 47.94 46.77 47.93 46.44C47.92 46.11 48.18 45.83 48.51 45.82C49.37 45.79 50.27 45.78 51.14 45.8C51.47 45.8 51.73 46.08 51.72 46.42C51.72 46.75 51.42 47 51.1 47C50.26 46.98 49.38 46.99 48.55 47.02H48.53Z" fill="black"/>
<path d="M59.94 48.47C59.87 48.47 59.79 48.46 59.72 48.43C59.39 48.3 59.02 48.17 58.64 48.06C58.32 47.96 58.14 47.63 58.24 47.31C58.33 46.99 58.67 46.81 58.99 46.91C59.41 47.04 59.81 47.17 60.17 47.32C60.48 47.44 60.63 47.79 60.51 48.1C60.42 48.34 60.19 48.48 59.95 48.48L59.94 48.47Z" fill="black"/>
<path d="M41.05 53.6299C40.99 53.6299 40.93 53.6299 40.87 53.5999C40.45 53.4699 40.05 53.3299 39.69 53.1799C39.38 53.0499 39.24 52.6999 39.36 52.3999C39.49 52.0899 39.84 51.9499 40.14 52.0699C40.47 52.2099 40.83 52.3299 41.22 52.4499C41.54 52.5499 41.71 52.8899 41.61 53.1999C41.53 53.4599 41.29 53.6199 41.04 53.6199L41.05 53.6299Z" fill="black"/>
<path d="M49.87 54.76C49.43 54.76 49 54.76 48.57 54.74C48.24 54.73 47.98 54.45 47.99 54.12C48 53.79 48.27 53.53 48.61 53.54C49.43 53.57 50.29 53.57 51.12 53.54C51.45 53.54 51.73 53.79 51.74 54.12C51.75 54.45 51.49 54.73 51.16 54.74C50.74 54.75 50.31 54.76 49.88 54.76H49.87ZM53.67 54.58C53.36 54.58 53.1 54.35 53.07 54.04C53.04 53.71 53.28 53.42 53.61 53.38C54.47 53.29 55.3 53.18 56.08 53.04C56.41 52.98 56.72 53.2 56.78 53.52C56.84 53.85 56.62 54.16 56.3 54.22C55.49 54.37 54.62 54.49 53.73 54.58C53.71 54.58 53.69 54.58 53.67 54.58ZM46.04 54.58C46.04 54.58 46 54.58 45.98 54.58C45.09 54.49 44.22 54.37 43.41 54.22C43.08 54.16 42.87 53.85 42.93 53.52C42.99 53.19 43.3 52.98 43.63 53.04C44.41 53.18 45.24 53.3 46.1 53.39C46.43 53.42 46.67 53.72 46.64 54.05C46.61 54.36 46.35 54.59 46.04 54.59V54.58Z" fill="black"/>
<path d="M58.68 53.6299C58.42 53.6299 58.19 53.4599 58.11 53.2099C58.01 52.8899 58.19 52.5599 58.5 52.4599C58.89 52.3399 59.25 52.2099 59.58 52.0799C59.89 51.9599 60.24 52.0999 60.36 52.4099C60.48 52.7199 60.34 53.0699 60.03 53.1899C59.67 53.3399 59.28 53.4799 58.85 53.6099C58.79 53.6299 58.73 53.6399 58.67 53.6399L58.68 53.6299Z" fill="black"/>
<path d="M48.52 27.36C48.37 27.36 48.21 27.3 48.1 27.18C47.87 26.95 47.87 26.57 48.1 26.33L51.06 23.37C51.3 23.14 51.68 23.14 51.91 23.37C52.14 23.6 52.14 23.98 51.91 24.22L48.95 27.18C48.83 27.3 48.68 27.36 48.53 27.36H48.52Z" fill="black"/>
<path d="M26.89 51.94C26.74 51.94 26.58 51.88 26.47 51.76L23.51 48.8C23.28 48.5699 23.28 48.19 23.51 47.95C23.74 47.71 24.12 47.72 24.36 47.95L27.32 50.91C27.55 51.14 27.55 51.52 27.32 51.76C27.2 51.88 27.05 51.94 26.9 51.94H26.89Z" fill="black"/>
<path d="M76.06 51.94C75.91 51.94 75.75 51.88 75.64 51.76L72.68 48.8C72.45 48.5699 72.45 48.19 72.68 47.95C72.91 47.71 73.29 47.72 73.53 47.95L76.49 50.91C76.72 51.14 76.72 51.52 76.49 51.76C76.37 51.88 76.22 51.94 76.07 51.94H76.06Z" fill="black"/>
<path d="M34.71 67.85H30.53C30.2 67.85 29.93 67.58 29.93 67.25C29.93 66.92 30.2 66.65 30.53 66.65H34.71C35.04 66.65 35.31 66.92 35.31 67.25C35.31 67.58 35.04 67.85 34.71 67.85Z" fill="black"/>
<path d="M69.47 33.08H65.29C64.96 33.08 64.69 32.81 64.69 32.48C64.69 32.15 64.96 31.88 65.29 31.88H69.47C69.8 31.88 70.07 32.15 70.07 32.48C70.07 32.81 69.8 33.08 69.47 33.08Z" fill="black"/>
<path d="M67.38 69.9401C67.05 69.9401 66.78 69.6701 66.78 69.3401V65.1601C66.78 64.8301 67.05 64.5601 67.38 64.5601C67.71 64.5601 67.98 64.8301 67.98 65.1601V69.3401C67.98 69.6701 67.71 69.9401 67.38 69.9401Z" fill="black"/>
<path d="M32.62 35.17C32.29 35.17 32.02 34.9 32.02 34.57V30.39C32.02 30.06 32.29 29.79 32.62 29.79C32.95 29.79 33.22 30.06 33.22 30.39V34.57C33.22 34.9 32.95 35.17 32.62 35.17Z" fill="black"/>
<path d="M48.52 76.5301C48.37 76.5301 48.21 76.4701 48.1 76.3501C47.87 76.1201 47.87 75.7401 48.1 75.5001L51.06 72.5401C51.3 72.3101 51.68 72.3101 51.91 72.5401C52.14 72.7701 52.14 73.1501 51.91 73.3901L48.95 76.3501C48.83 76.4701 48.68 76.5301 48.53 76.5301H48.52Z" fill="black"/>
</g>
</g>
<defs>
<filter id="filter0_f_43203_32066" x="-282.293" y="-91.6094" width="549.209" height="549.209" filterUnits="userSpaceOnUse" color-interpolation-filters="sRGB">
<feFlood flood-opacity="0" result="BackgroundImageFix"/>
<feBlend mode="normal" in="SourceGraphic" in2="BackgroundImageFix" result="shape"/>
<feGaussianBlur stdDeviation="102.214" result="effect1_foregroundBlur_43203_32066"/>
</filter>
<filter id="filter1_f_43203_32066" x="-369.886" y="-268.443" width="757.396" height="757.396" filterUnits="userSpaceOnUse" color-interpolation-filters="sRGB">
<feFlood flood-opacity="0" result="BackgroundImageFix"/>
<feBlend mode="normal" in="SourceGraphic" in2="BackgroundImageFix" result="shape"/>
<feGaussianBlur stdDeviation="91.4625" result="effect1_foregroundBlur_43203_32066"/>
</filter>
<filter id="filter2_f_43203_32066" x="-64.6072" y="-149.902" width="338.44" height="338.266" filterUnits="userSpaceOnUse" color-interpolation-filters="sRGB">
<feFlood flood-opacity="0" result="BackgroundImageFix"/>
<feBlend mode="normal" in="SourceGraphic" in2="BackgroundImageFix" result="shape"/>
<feGaussianBlur stdDeviation="46.7516" result="effect1_foregroundBlur_43203_32066"/>
</filter>
<filter id="filter3_f_43203_32066" x="-105.758" y="-31.794" width="450.804" height="450.804" filterUnits="userSpaceOnUse" color-interpolation-filters="sRGB">
<feFlood flood-opacity="0" result="BackgroundImageFix"/>
<feBlend mode="normal" in="SourceGraphic" in2="BackgroundImageFix" result="shape"/>
<feGaussianBlur stdDeviation="76.4113" result="effect1_foregroundBlur_43203_32066"/>
</filter>
<clipPath id="clip0_43203_32066">
<rect width="100" height="100" fill="white"/>
</clipPath>
<clipPath id="clip1_43203_32066">
<rect width="60" height="60" fill="white" transform="translate(20 20)"/>
</clipPath>
</defs>
</svg>
