<svg width="100" height="100" viewBox="0 0 100 100" fill="none" xmlns="http://www.w3.org/2000/svg">
<g clip-path="url(#clip0_43203_32098)">
<mask id="mask0_43203_32098" style="mask-type:alpha" maskUnits="userSpaceOnUse" x="0" y="0" width="100" height="100">
<path d="M50 100C77.6142 100 100 77.6142 100 50C100 22.3858 77.6142 0 50 0C22.3858 0 0 22.3858 0 50C0 77.6142 22.3858 100 50 100Z" fill="#D9D9D9"/>
</mask>
<g mask="url(#mask0_43203_32098)">
<g filter="url(#filter0_f_43203_32098)">
<path d="M27.3941 243.76C60.9534 224.384 72.4517 181.472 53.0762 147.913C33.7007 114.353 -9.21139 102.855 -42.7707 122.231C-76.33 141.606 -87.8283 184.518 -68.4528 218.077C-49.0773 251.637 -6.1652 263.135 27.3941 243.76Z" fill="#00FFD3"/>
</g>
<g filter="url(#filter1_f_43203_32098)">
<path d="M178.328 12.3851C232.381 106.006 200.304 225.719 106.682 279.771C13.0611 333.824 -106.652 301.747 -160.704 208.126C-214.756 114.504 -182.679 -5.20858 -89.058 -59.2608C4.56316 -113.313 124.276 -81.2361 178.328 12.3851Z" fill="#00F6FF"/>
</g>
<g filter="url(#filter2_f_43203_32098)">
<path d="M142.4 84.6802C178.63 63.7631 191.082 17.5039 170.212 -18.6425C149.343 -54.789 103.056 -67.1348 66.826 -46.2176C30.5965 -25.3004 18.1444 20.9587 39.0136 57.1052C59.8827 93.2516 106.17 105.597 142.4 84.6802Z" fill="#C3A6FF"/>
</g>
<g filter="url(#filter3_f_43203_32098)">
<path d="M155.928 256.453C190.636 236.414 202.528 192.033 182.489 157.324C162.45 122.616 118.069 110.724 83.3604 130.763C48.6519 150.802 36.76 195.183 56.7989 229.892C76.8378 264.6 121.219 276.492 155.928 256.453Z" fill="#00FFD3"/>
</g>
<mask id="mask1_43203_32098" style="mask-type:luminance" maskUnits="userSpaceOnUse" x="-91" y="-8" width="234" height="216">
<path d="M142.135 -7.13281H-90.0078V207.153H142.135V-7.13281Z" fill="white"/>
</mask>
<g mask="url(#mask1_43203_32098)">
<path d="M142.135 -7.13281H-90.0078V207.153H142.135V-7.13281Z" fill="black"/>
<g filter="url(#filter4_f_43203_32098)">
</g>
<g filter="url(#filter5_f_43203_32098)">
<path d="M206.293 405.902C343.214 326.851 390.126 151.771 311.075 14.85C232.024 -122.071 56.9439 -168.983 -79.9769 -89.9321C-216.898 -10.8808 -263.81 164.199 -184.759 301.12C-105.708 438.041 69.3723 484.953 206.293 405.902Z" fill="#FF7701"/>
</g>
<g filter="url(#filter6_f_43203_32098)">
<path d="M159.29 253.266C212.276 222.675 230.487 155.021 199.966 102.156C169.445 49.2922 101.749 31.2364 48.7635 61.8278C-4.22224 92.4191 -22.4334 160.073 8.08784 212.937C38.609 265.802 106.305 283.857 159.29 253.266Z" fill="#FF4B9B"/>
</g>
<g filter="url(#filter7_f_43203_32098)">
</g>
<g filter="url(#filter8_f_43203_32098)">
</g>
</g>
</g>
<g clip-path="url(#clip1_43203_32098)">
<g clip-path="url(#clip2_43203_32098)">
<path d="M50.01 77.9C49.91 77.9 49.81 77.88 49.72 77.83L48.03 76.9C48.03 76.9 47.96 76.87 47.93 76.86C45.75 75.59 41.46 72.86 37.29 68.87C34.31 66.02 31.9 63.02 30.13 59.98C27.89 56.15 26.59 52.15 26.29 48.11C25.43 36.43 26.81 31.67 26.87 31.47L27.11 30.67C27.16 30.49 27.3 30.34 27.48 30.28L49.78 22.14C49.91 22.09 50.06 22.09 50.2 22.14L51.91 22.77L72.52 30.28C72.7 30.34 72.83 30.49 72.89 30.67L73.13 31.47C73.28 31.97 74.57 36.68 73.73 48.11C73.42 52.16 72.13 56.15 69.89 59.98C68.12 63.02 65.71 66.02 62.73 68.87C58.56 72.86 54.27 75.59 52.09 76.86L50.32 77.83C50.23 77.88 50.13 77.9 50.03 77.9H50.01ZM48.46 75.77C48.46 75.77 48.52 75.79 48.54 75.81L50.01 76.62L51.48 75.81C53.6 74.57 57.8 71.91 61.88 68C64.78 65.23 67.12 62.32 68.84 59.38C70.99 55.7 72.23 51.88 72.52 48.02C73.36 36.62 72.03 32.01 71.97 31.82L71.82 31.31L49.99 23.34L48.49 23.89L28.16 31.3L28.01 31.81C27.95 32 26.64 36.55 27.48 48.01C27.77 51.87 29.01 55.69 31.16 59.36C32.87 62.31 35.22 65.21 38.12 67.99C42.15 71.85 46.3 74.5 48.46 75.76V75.77Z" fill="black"/>
<path d="M29.32 45.26C29.16 45.26 28.99 45.19 28.88 45.06C28.66 44.81 28.67 44.44 28.92 44.21C29.26 43.9 29.64 43.59 30.04 43.29C30.3 43.09 30.68 43.14 30.88 43.41C31.08 43.68 31.03 44.05 30.76 44.25C30.39 44.53 30.04 44.82 29.73 45.1C29.61 45.2 29.47 45.26 29.33 45.26H29.32Z" fill="black"/>
<path d="M32.69 42.92C32.48 42.92 32.27 42.81 32.16 42.61C32 42.32 32.11 41.95 32.4 41.8C33.18 41.38 34.03 40.98 34.92 40.62C35.23 40.5 35.58 40.64 35.7 40.95C35.82 41.26 35.68 41.61 35.37 41.73C34.52 42.08 33.71 42.46 32.97 42.86C32.88 42.91 32.78 42.93 32.68 42.93L32.69 42.92ZM66.89 42.69C66.8 42.69 66.7 42.67 66.62 42.62C65.86 42.23 65.05 41.87 64.2 41.54C63.89 41.42 63.74 41.07 63.86 40.76C63.98 40.45 64.33 40.3 64.64 40.42C65.53 40.76 66.38 41.15 67.18 41.55C67.47 41.7 67.59 42.06 67.44 42.36C67.33 42.57 67.12 42.69 66.91 42.69H66.89ZM37.7 40.86C37.44 40.86 37.21 40.69 37.13 40.44C37.03 40.12 37.21 39.79 37.53 39.69C38.38 39.43 39.28 39.19 40.2 38.98C40.52 38.9 40.85 39.11 40.92 39.43C40.99 39.75 40.79 40.07 40.47 40.15C39.58 40.35 38.71 40.58 37.89 40.83C37.83 40.85 37.77 40.86 37.71 40.86H37.7ZM61.83 40.72C61.77 40.72 61.72 40.72 61.66 40.7C60.83 40.46 59.96 40.24 59.07 40.05C58.75 39.98 58.54 39.66 58.61 39.34C58.68 39.01 59 38.81 59.32 38.88C60.24 39.08 61.14 39.3 62 39.55C62.32 39.64 62.5 39.98 62.41 40.29C62.33 40.55 62.09 40.72 61.83 40.72ZM42.99 39.66C42.7 39.66 42.44 39.45 42.4 39.15C42.35 38.82 42.57 38.52 42.9 38.46C43.8 38.32 44.72 38.21 45.63 38.12C45.96 38.09 46.25 38.33 46.28 38.66C46.31 38.99 46.07 39.28 45.74 39.31C44.85 39.39 43.95 39.5 43.08 39.64C43.05 39.64 43.02 39.64 42.99 39.64V39.66ZM56.53 39.59C56.53 39.59 56.47 39.59 56.44 39.59C55.57 39.47 54.67 39.36 53.78 39.29C53.45 39.26 53.2 38.97 53.23 38.64C53.26 38.31 53.55 38.05 53.88 38.09C54.8 38.17 55.72 38.27 56.62 38.4C56.95 38.45 57.18 38.75 57.13 39.08C57.09 39.38 56.83 39.59 56.54 39.59H56.53ZM48.4 39.16C48.08 39.16 47.81 38.91 47.8 38.58C47.79 38.25 48.05 37.97 48.38 37.96C49.29 37.93 50.21 37.92 51.13 37.95C51.46 37.95 51.72 38.23 51.71 38.56C51.71 38.89 51.43 39.18 51.1 39.14C50.21 39.12 49.31 39.12 48.42 39.15H48.4V39.16Z" fill="black"/>
<path d="M70.34 44.96C70.2 44.96 70.06 44.91 69.95 44.82C69.62 44.54 69.27 44.27 68.89 44C68.62 43.81 68.55 43.44 68.75 43.16C68.94 42.89 69.31 42.82 69.59 43.02C70 43.31 70.38 43.6 70.74 43.91C70.99 44.12 71.02 44.5 70.81 44.76C70.69 44.9 70.52 44.97 70.35 44.97L70.34 44.96Z" fill="black"/>
<path d="M33.49 59.32C33.4 59.32 33.31 59.3 33.23 59.26C32.79 59.04 32.37 58.82 31.96 58.59C31.67 58.42 31.57 58.06 31.74 57.77C31.9 57.48 32.27 57.38 32.56 57.55C32.94 57.77 33.35 57.98 33.76 58.19C34.06 58.34 34.18 58.7 34.03 58.99C33.93 59.2 33.71 59.33 33.49 59.33V59.32Z" fill="black"/>
<path d="M50.01 62.6901C49.34 62.6901 48.68 62.6801 48.02 62.6501C47.69 62.6401 47.43 62.3601 47.44 62.0301C47.45 61.7101 47.72 61.4501 48.04 61.4501H48.06C49.04 61.4901 50.04 61.5001 51.03 61.4801H51.04C51.37 61.4801 51.63 61.7401 51.64 62.0701C51.64 62.4001 51.39 62.6801 51.05 62.6801C50.7 62.6801 50.35 62.6901 50 62.6901H50.01ZM54.05 62.5201C53.74 62.5201 53.48 62.2801 53.45 61.9701C53.42 61.6401 53.67 61.3501 54 61.3201C54.99 61.2401 55.98 61.1201 56.94 60.9701C57.26 60.9201 57.57 61.1401 57.62 61.4701C57.67 61.8001 57.45 62.1001 57.12 62.1501C56.13 62.3001 55.11 62.4301 54.1 62.5101C54.08 62.5101 54.06 62.5101 54.05 62.5101V62.5201ZM45.05 62.4301C45.05 62.4301 45.01 62.4301 44.98 62.4301C43.95 62.3201 42.94 62.1801 41.96 62.0001C41.63 61.9401 41.42 61.6301 41.47 61.3001C41.52 60.9701 41.85 60.7601 42.17 60.8101C43.12 60.9801 44.11 61.1201 45.1 61.2301C45.43 61.2701 45.67 61.5601 45.63 61.8901C45.6 62.2001 45.34 62.4301 45.03 62.4301H45.05ZM59.99 61.5901C59.72 61.5901 59.47 61.4001 59.41 61.1301C59.33 60.8101 59.53 60.4801 59.86 60.4101C60.84 60.1801 61.8 59.9101 62.71 59.6201C63.03 59.5201 63.36 59.6901 63.47 60.0001C63.57 60.3201 63.4 60.6501 63.09 60.7601C62.15 61.0701 61.16 61.3401 60.14 61.5801C60.09 61.5901 60.05 61.6001 60 61.6001L59.99 61.5901ZM39.14 61.3701C39.14 61.3701 39.04 61.3701 38.99 61.3501C37.98 61.0901 36.99 60.7801 36.07 60.4501C35.76 60.3401 35.6 59.9901 35.71 59.6801C35.82 59.3701 36.16 59.2001 36.48 59.3201C37.37 59.6401 38.32 59.9301 39.3 60.1901C39.62 60.2701 39.81 60.6001 39.73 60.9201C39.66 61.1901 39.42 61.3701 39.15 61.3701H39.14Z" fill="black"/>
<path d="M65.69 59.7C65.46 59.7 65.24 59.57 65.14 59.34C65.01 59.04 65.14 58.68 65.44 58.55C65.86 58.36 66.27 58.16 66.67 57.96C66.96 57.81 67.33 57.92 67.48 58.22C67.63 58.52 67.52 58.88 67.22 59.03C66.81 59.24 66.38 59.45 65.93 59.65C65.85 59.69 65.77 59.7 65.68 59.7H65.69Z" fill="black"/>
<path d="M48.48 55.1199C48.34 55.1199 48.2 55.0699 48.09 54.9799L44.93 52.2799C44.68 52.0599 44.65 51.6899 44.86 51.4299C45.08 51.1799 45.46 51.1499 45.71 51.3599L48.39 53.6499L54.21 46.0399C54.41 45.7799 54.79 45.7299 55.05 45.9299C55.31 46.1299 55.36 46.5099 55.16 46.7699L48.96 54.8799C48.86 55.0099 48.71 55.0899 48.55 55.1099C48.53 55.1099 48.51 55.1099 48.49 55.1099L48.48 55.1199Z" fill="black"/>
</g>
</g>
</g>
<defs>
<filter id="filter0_f_43203_32098" x="-282.293" y="-91.6094" width="549.209" height="549.209" filterUnits="userSpaceOnUse" color-interpolation-filters="sRGB">
<feFlood flood-opacity="0" result="BackgroundImageFix"/>
<feBlend mode="normal" in="SourceGraphic" in2="BackgroundImageFix" result="shape"/>
<feGaussianBlur stdDeviation="102.214" result="effect1_foregroundBlur_43203_32098"/>
</filter>
<filter id="filter1_f_43203_32098" x="-369.886" y="-268.443" width="757.396" height="757.396" filterUnits="userSpaceOnUse" color-interpolation-filters="sRGB">
<feFlood flood-opacity="0" result="BackgroundImageFix"/>
<feBlend mode="normal" in="SourceGraphic" in2="BackgroundImageFix" result="shape"/>
<feGaussianBlur stdDeviation="91.4625" result="effect1_foregroundBlur_43203_32098"/>
</filter>
<filter id="filter2_f_43203_32098" x="-64.6072" y="-149.902" width="338.44" height="338.266" filterUnits="userSpaceOnUse" color-interpolation-filters="sRGB">
<feFlood flood-opacity="0" result="BackgroundImageFix"/>
<feBlend mode="normal" in="SourceGraphic" in2="BackgroundImageFix" result="shape"/>
<feGaussianBlur stdDeviation="46.7516" result="effect1_foregroundBlur_43203_32098"/>
</filter>
<filter id="filter3_f_43203_32098" x="-105.758" y="-31.794" width="450.804" height="450.804" filterUnits="userSpaceOnUse" color-interpolation-filters="sRGB">
<feFlood flood-opacity="0" result="BackgroundImageFix"/>
<feBlend mode="normal" in="SourceGraphic" in2="BackgroundImageFix" result="shape"/>
<feGaussianBlur stdDeviation="76.4113" result="effect1_foregroundBlur_43203_32098"/>
</filter>
<filter id="filter4_f_43203_32098" x="-268.034" y="-42.6962" width="614.122" height="614.122" filterUnits="userSpaceOnUse" color-interpolation-filters="sRGB">
<feFlood flood-opacity="0" result="BackgroundImageFix"/>
<feBlend mode="normal" in="SourceGraphic" in2="BackgroundImageFix" result="shape"/>
<feGaussianBlur stdDeviation="102.214" result="effect1_foregroundBlur_43203_32098"/>
</filter>
<filter id="filter5_f_43203_32098" x="-406.085" y="-311.258" width="938.486" height="938.486" filterUnits="userSpaceOnUse" color-interpolation-filters="sRGB">
<feFlood flood-opacity="0" result="BackgroundImageFix"/>
<feBlend mode="normal" in="SourceGraphic" in2="BackgroundImageFix" result="shape"/>
<feGaussianBlur stdDeviation="91.4625" result="effect1_foregroundBlur_43203_32098"/>
</filter>
<filter id="filter6_f_43203_32098" x="-100.212" y="-46.5652" width="408.479" height="408.224" filterUnits="userSpaceOnUse" color-interpolation-filters="sRGB">
<feFlood flood-opacity="0" result="BackgroundImageFix"/>
<feBlend mode="normal" in="SourceGraphic" in2="BackgroundImageFix" result="shape"/>
<feGaussianBlur stdDeviation="46.7516" result="effect1_foregroundBlur_43203_32098"/>
</filter>
<filter id="filter7_f_43203_32098" x="77.3777" y="-185.502" width="408.479" height="408.224" filterUnits="userSpaceOnUse" color-interpolation-filters="sRGB">
<feFlood flood-opacity="0" result="BackgroundImageFix"/>
<feBlend mode="normal" in="SourceGraphic" in2="BackgroundImageFix" result="shape"/>
<feGaussianBlur stdDeviation="46.7516" result="effect1_foregroundBlur_43203_32098"/>
</filter>
<filter id="filter8_f_43203_32098" x="-33.7253" y="20.9457" width="517.941" height="517.941" filterUnits="userSpaceOnUse" color-interpolation-filters="sRGB">
<feFlood flood-opacity="0" result="BackgroundImageFix"/>
<feBlend mode="normal" in="SourceGraphic" in2="BackgroundImageFix" result="shape"/>
<feGaussianBlur stdDeviation="76.4113" result="effect1_foregroundBlur_43203_32098"/>
</filter>
<clipPath id="clip0_43203_32098">
<rect width="100" height="100" fill="white"/>
</clipPath>
<clipPath id="clip1_43203_32098">
<rect width="60" height="60" fill="white" transform="translate(20 20)"/>
</clipPath>
<clipPath id="clip2_43203_32098">
<rect width="60" height="60" fill="white" transform="translate(20 20)"/>
</clipPath>
</defs>
</svg>
