<svg width="100" height="100" viewBox="0 0 100 100" fill="none" xmlns="http://www.w3.org/2000/svg">
<g clip-path="url(#clip0_43203_32028)">
<mask id="mask0_43203_32028" style="mask-type:alpha" maskUnits="userSpaceOnUse" x="0" y="0" width="100" height="100">
<path d="M50 100C77.6142 100 100 77.6142 100 50C100 22.3858 77.6142 0 50 0C22.3858 0 0 22.3858 0 50C0 77.6142 22.3858 100 50 100Z" fill="#D9D9D9"/>
</mask>
<g mask="url(#mask0_43203_32028)">
<g filter="url(#filter0_f_43203_32028)">
<path d="M27.3941 243.76C60.9534 224.384 72.4517 181.472 53.0762 147.913C33.7007 114.353 -9.21139 102.855 -42.7707 122.231C-76.33 141.606 -87.8283 184.518 -68.4528 218.077C-49.0773 251.637 -6.1652 263.135 27.3941 243.76Z" fill="#00FFD3"/>
</g>
<g filter="url(#filter1_f_43203_32028)">
<path d="M178.328 12.3851C232.381 106.006 200.304 225.719 106.682 279.771C13.0611 333.824 -106.652 301.747 -160.704 208.126C-214.756 114.504 -182.679 -5.20858 -89.058 -59.2608C4.56316 -113.313 124.276 -81.2361 178.328 12.3851Z" fill="#00F6FF"/>
</g>
<g filter="url(#filter2_f_43203_32028)">
<path d="M142.4 84.6802C178.63 63.7631 191.082 17.5039 170.212 -18.6425C149.343 -54.789 103.056 -67.1348 66.826 -46.2176C30.5965 -25.3004 18.1444 20.9587 39.0136 57.1052C59.8827 93.2516 106.17 105.597 142.4 84.6802Z" fill="#C3A6FF"/>
</g>
<g filter="url(#filter3_f_43203_32028)">
<path d="M155.928 256.453C190.636 236.414 202.528 192.033 182.489 157.324C162.45 122.616 118.069 110.724 83.3604 130.763C48.6519 150.802 36.76 195.183 56.7989 229.892C76.8378 264.6 121.219 276.492 155.928 256.453Z" fill="#00FFD3"/>
</g>
<mask id="mask1_43203_32028" style="mask-type:luminance" maskUnits="userSpaceOnUse" x="-114" y="-38" width="233" height="215">
<path d="M118.143 -38H-114V176.286H118.143V-38Z" fill="white"/>
</mask>
<g mask="url(#mask1_43203_32028)">
<path d="M118.143 -38H-114V176.286H118.143V-38Z" fill="black"/>
<g filter="url(#filter4_f_43203_32028)">
<path d="M66.3434 322.366C115.424 294.029 132.24 231.271 103.903 182.19C75.5668 133.11 12.8079 116.293 -36.2726 144.63C-85.3531 172.967 -102.169 235.726 -73.8327 284.806C-45.496 333.887 17.2629 350.703 66.3434 322.366Z" fill="#00FFD3"/>
</g>
<g filter="url(#filter5_f_43203_32028)">
<path d="M182.305 375.035C319.226 295.984 366.138 120.904 287.087 -16.017C208.036 -152.938 32.9556 -199.85 -103.965 -120.799C-240.886 -41.7478 -287.799 133.332 -208.747 270.253C-129.696 407.174 45.384 454.086 182.305 375.035Z" fill="#AC8EFF"/>
</g>
<g filter="url(#filter6_f_43203_32028)">
<path d="M260.441 152.519C316.589 120.101 335.887 48.4096 303.544 -7.60946C271.202 -63.6285 199.466 -82.7616 143.318 -50.3444C87.1693 -17.9273 67.8711 53.7645 100.214 109.784C132.556 165.803 204.292 184.936 260.441 152.519Z" fill="#39C4FF"/>
</g>
<g filter="url(#filter7_f_43203_32028)">
</g>
</g>
</g>
<g clip-path="url(#clip1_43203_32028)">
<path d="M72.14 62.24H27.85C25.52 62.24 23.63 60.35 23.63 58.02V35.25C23.63 32.92 25.52 31.03 27.85 31.03H72.14C74.47 31.03 76.36 32.92 76.36 35.25V58.02C76.36 60.35 74.47 62.24 72.14 62.24ZM27.85 32.23C26.18 32.23 24.83 33.59 24.83 35.25V58.02C24.83 59.69 26.19 61.04 27.85 61.04H72.14C73.81 61.04 75.16 59.68 75.16 58.02V35.25C75.16 33.58 73.8 32.23 72.14 32.23H27.85Z" fill="black"/>
<path d="M56.83 68.97H44.1C43.77 68.97 43.5 68.7 43.5 68.37C43.5 68.04 43.77 67.77 44.1 67.77H56.83C57.16 67.77 57.43 68.04 57.43 68.37C57.43 68.7 57.16 68.97 56.83 68.97Z" fill="black"/>
<path d="M50.41 68.3501C50.08 68.3501 49.81 68.0801 49.81 67.7501V62.1601C49.81 61.8301 50.08 61.5601 50.41 61.5601C50.74 61.5601 51.01 61.8301 51.01 62.1601V67.7501C51.01 68.0801 50.74 68.3501 50.41 68.3501Z" fill="black"/>
<path d="M49.07 49.57C48.97 49.57 48.86 49.54 48.77 49.49C48.58 49.38 48.47 49.18 48.47 48.97V44.31C48.47 44.1 48.58 43.9 48.77 43.79C48.96 43.68 49.18 43.68 49.37 43.79L53.41 46.12C53.6 46.23 53.71 46.42 53.71 46.64C53.71 46.86 53.6 47.05 53.41 47.16L49.37 49.49C49.28 49.54 49.17 49.57 49.07 49.57ZM49.67 45.35V47.93L51.91 46.64L49.67 45.35Z" fill="black"/>
<path d="M50.1 57.27C44.06 57.27 39.15 52.36 39.15 46.32C39.15 40.28 44.06 35.37 50.1 35.37C56.14 35.37 61.05 40.28 61.05 46.32C61.05 52.36 56.14 57.27 50.1 57.27ZM50.1 36.57C44.72 36.57 40.35 40.94 40.35 46.32C40.35 51.7 44.72 56.07 50.1 56.07C55.48 56.07 59.85 51.7 59.85 46.32C59.85 40.94 55.48 36.57 50.1 36.57Z" fill="black"/>
<path d="M41.7 44.02C41.51 44.02 41.33 43.93 41.21 43.77C41.02 43.5 41.08 43.12 41.35 42.93C41.68 42.7 42.05 42.47 42.45 42.27C42.75 42.12 43.11 42.24 43.26 42.53C43.41 42.83 43.29 43.19 43 43.34C42.65 43.52 42.33 43.71 42.05 43.91C41.94 43.99 41.82 44.02 41.7 44.02Z" fill="black"/>
<path d="M44.71 42.62C44.45 42.62 44.22 42.45 44.14 42.2C44.04 41.88 44.22 41.55 44.54 41.45C45.21 41.24 45.94 41.07 46.69 40.94C47.02 40.89 47.33 41.11 47.38 41.43C47.44 41.76 47.22 42.07 46.89 42.12C46.19 42.24 45.51 42.4 44.89 42.59C44.83 42.61 44.77 42.62 44.71 42.62ZM55.24 42.54C55.18 42.54 55.13 42.54 55.07 42.52C54.44 42.34 53.76 42.19 53.06 42.08C52.73 42.03 52.51 41.72 52.56 41.4C52.61 41.07 52.91 40.85 53.24 40.9C53.99 41.02 54.72 41.17 55.4 41.37C55.72 41.46 55.9 41.79 55.81 42.11C55.73 42.37 55.49 42.54 55.23 42.54H55.24ZM48.9 41.89C48.58 41.89 48.32 41.64 48.3 41.32C48.28 40.99 48.53 40.71 48.86 40.69C49.58 40.65 50.33 40.64 51.05 40.67C51.38 40.68 51.64 40.96 51.62 41.3C51.6 41.63 51.32 41.88 50.99 41.87C50.31 41.84 49.6 41.85 48.92 41.88C48.91 41.88 48.9 41.88 48.89 41.88L48.9 41.89Z" fill="black"/>
<path d="M58.29 43.88C58.18 43.88 58.06 43.85 57.96 43.78C57.67 43.59 57.34 43.4 56.98 43.23C56.68 43.09 56.56 42.73 56.7 42.43C56.84 42.13 57.2 42.01 57.5 42.15C57.9 42.34 58.28 42.55 58.62 42.78C58.9 42.96 58.97 43.33 58.79 43.61C58.67 43.78 58.48 43.88 58.29 43.88Z" fill="black"/>
<path d="M42.72 50.4601C42.62 50.4601 42.52 50.4401 42.43 50.3901C42.05 50.1801 41.68 49.9601 41.35 49.7201C41.08 49.5301 41.02 49.1501 41.21 48.8801C41.4 48.6101 41.77 48.5401 42.05 48.7401C42.34 48.9501 42.67 49.1501 43.01 49.3301C43.3 49.4901 43.41 49.8501 43.25 50.1401C43.14 50.3401 42.94 50.4501 42.72 50.4501V50.4601Z" fill="black"/>
<path d="M50.1 52.2501C49.67 52.2501 49.25 52.2301 48.84 52.2001C48.51 52.1801 48.26 51.8901 48.29 51.5601C48.32 51.2301 48.61 50.9901 48.93 51.0101C49.61 51.0601 50.32 51.0601 51 51.0301C51.34 51.0001 51.61 51.2601 51.63 51.5901C51.65 51.9201 51.4 52.2001 51.07 52.2201C50.75 52.2401 50.43 52.2501 50.1 52.2501ZM53.17 51.9601C52.89 51.9601 52.64 51.7601 52.58 51.4701C52.52 51.1401 52.73 50.8301 53.06 50.7701C53.74 50.6401 54.42 50.4601 55.06 50.2501C55.37 50.1401 55.71 50.3101 55.82 50.6301C55.93 50.9401 55.76 51.2801 55.44 51.3901C54.74 51.6201 54.02 51.8101 53.28 51.9601C53.24 51.9601 53.2 51.9701 53.17 51.9701V51.9601ZM46.76 51.9101C46.76 51.9101 46.68 51.9101 46.64 51.9001C45.9 51.7501 45.18 51.5401 44.49 51.3001C44.18 51.1901 44.01 50.8501 44.13 50.5301C44.24 50.2201 44.59 50.0601 44.9 50.1701C45.54 50.4001 46.21 50.5801 46.89 50.7301C47.21 50.8001 47.42 51.1101 47.35 51.4401C47.29 51.7201 47.04 51.9201 46.76 51.9201V51.9101Z" fill="black"/>
<path d="M57.25 50.58C57.03 50.58 56.82 50.46 56.72 50.25C56.57 49.96 56.68 49.59 56.98 49.44C57.33 49.26 57.66 49.07 57.96 48.87C58.24 48.69 58.61 48.77 58.79 49.04C58.97 49.32 58.89 49.69 58.62 49.87C58.28 50.09 57.91 50.31 57.53 50.5C57.44 50.54 57.35 50.57 57.26 50.57L57.25 50.58Z" fill="black"/>
</g>
</g>
<defs>
<filter id="filter0_f_43203_32028" x="-282.293" y="-91.6094" width="549.209" height="549.209" filterUnits="userSpaceOnUse" color-interpolation-filters="sRGB">
<feFlood flood-opacity="0" result="BackgroundImageFix"/>
<feBlend mode="normal" in="SourceGraphic" in2="BackgroundImageFix" result="shape"/>
<feGaussianBlur stdDeviation="102.214" result="effect1_foregroundBlur_43203_32028"/>
</filter>
<filter id="filter1_f_43203_32028" x="-369.886" y="-268.443" width="757.396" height="757.396" filterUnits="userSpaceOnUse" color-interpolation-filters="sRGB">
<feFlood flood-opacity="0" result="BackgroundImageFix"/>
<feBlend mode="normal" in="SourceGraphic" in2="BackgroundImageFix" result="shape"/>
<feGaussianBlur stdDeviation="91.4625" result="effect1_foregroundBlur_43203_32028"/>
</filter>
<filter id="filter2_f_43203_32028" x="-64.6072" y="-149.902" width="338.44" height="338.266" filterUnits="userSpaceOnUse" color-interpolation-filters="sRGB">
<feFlood flood-opacity="0" result="BackgroundImageFix"/>
<feBlend mode="normal" in="SourceGraphic" in2="BackgroundImageFix" result="shape"/>
<feGaussianBlur stdDeviation="46.7516" result="effect1_foregroundBlur_43203_32028"/>
</filter>
<filter id="filter3_f_43203_32028" x="-105.758" y="-31.794" width="450.804" height="450.804" filterUnits="userSpaceOnUse" color-interpolation-filters="sRGB">
<feFlood flood-opacity="0" result="BackgroundImageFix"/>
<feBlend mode="normal" in="SourceGraphic" in2="BackgroundImageFix" result="shape"/>
<feGaussianBlur stdDeviation="76.4113" result="effect1_foregroundBlur_43203_32028"/>
</filter>
<filter id="filter4_f_43203_32028" x="-292.026" y="-73.5631" width="614.122" height="614.122" filterUnits="userSpaceOnUse" color-interpolation-filters="sRGB">
<feFlood flood-opacity="0" result="BackgroundImageFix"/>
<feBlend mode="normal" in="SourceGraphic" in2="BackgroundImageFix" result="shape"/>
<feGaussianBlur stdDeviation="102.214" result="effect1_foregroundBlur_43203_32028"/>
</filter>
<filter id="filter5_f_43203_32028" x="-430.073" y="-342.125" width="938.486" height="938.486" filterUnits="userSpaceOnUse" color-interpolation-filters="sRGB">
<feFlood flood-opacity="0" result="BackgroundImageFix"/>
<feBlend mode="normal" in="SourceGraphic" in2="BackgroundImageFix" result="shape"/>
<feGaussianBlur stdDeviation="91.4625" result="effect1_foregroundBlur_43203_32028"/>
</filter>
<filter id="filter6_f_43203_32028" x="-8.96944" y="-159.626" width="421.697" height="421.426" filterUnits="userSpaceOnUse" color-interpolation-filters="sRGB">
<feFlood flood-opacity="0" result="BackgroundImageFix"/>
<feBlend mode="normal" in="SourceGraphic" in2="BackgroundImageFix" result="shape"/>
<feGaussianBlur stdDeviation="46.7516" result="effect1_foregroundBlur_43203_32028"/>
</filter>
<filter id="filter7_f_43203_32028" x="-57.7093" y="16.1888" width="517.941" height="517.941" filterUnits="userSpaceOnUse" color-interpolation-filters="sRGB">
<feFlood flood-opacity="0" result="BackgroundImageFix"/>
<feBlend mode="normal" in="SourceGraphic" in2="BackgroundImageFix" result="shape"/>
<feGaussianBlur stdDeviation="76.4113" result="effect1_foregroundBlur_43203_32028"/>
</filter>
<clipPath id="clip0_43203_32028">
<rect width="100" height="100" fill="white"/>
</clipPath>
<clipPath id="clip1_43203_32028">
<rect width="60" height="60" fill="white" transform="translate(20 20)"/>
</clipPath>
</defs>
</svg>
