<svg width="100" height="100" viewBox="0 0 100 100" fill="none" xmlns="http://www.w3.org/2000/svg">
<g clip-path="url(#clip0_43212_24459)">
<mask id="mask0_43212_24459" style="mask-type:alpha" maskUnits="userSpaceOnUse" x="0" y="0" width="100" height="100">
<path d="M50 100C77.6142 100 100 77.6142 100 50C100 22.3858 77.6142 0 50 0C22.3858 0 0 22.3858 0 50C0 77.6142 22.3858 100 50 100Z" fill="#D9D9D9"/>
</mask>
<g mask="url(#mask0_43212_24459)">
<g filter="url(#filter0_f_43212_24459)">
<path d="M27.3941 243.76C60.9534 224.384 72.4517 181.472 53.0762 147.913C33.7007 114.353 -9.21139 102.855 -42.7707 122.231C-76.33 141.606 -87.8283 184.518 -68.4528 218.077C-49.0773 251.637 -6.1652 263.135 27.3941 243.76Z" fill="#00FFD3"/>
</g>
<g filter="url(#filter1_f_43212_24459)">
<path d="M178.328 12.3851C232.381 106.006 200.304 225.719 106.682 279.771C13.0611 333.824 -106.652 301.747 -160.704 208.126C-214.756 114.504 -182.679 -5.20858 -89.058 -59.2608C4.56315 -113.313 124.276 -81.2361 178.328 12.3851Z" fill="#00F6FF"/>
</g>
<g filter="url(#filter2_f_43212_24459)">
<path d="M142.4 84.6802C178.63 63.7631 191.082 17.5039 170.212 -18.6425C149.343 -54.789 103.056 -67.1348 66.826 -46.2176C30.5965 -25.3004 18.1444 20.9587 39.0136 57.1052C59.8827 93.2516 106.17 105.597 142.4 84.6802Z" fill="#C3A6FF"/>
</g>
<g filter="url(#filter3_f_43212_24459)">
<path d="M155.928 256.453C190.636 236.414 202.528 192.033 182.489 157.324C162.45 122.616 118.069 110.724 83.3604 130.763C48.6519 150.802 36.76 195.183 56.7989 229.892C76.8378 264.6 121.219 276.492 155.928 256.453Z" fill="#00FFD3"/>
</g>
</g>
<g clip-path="url(#clip1_43212_24459)">
<g clip-path="url(#clip2_43212_24459)">
<path d="M72.37 54.9899H62C59.53 54.9899 57.52 52.9799 57.52 50.5099V40.4199C57.52 37.9499 59.53 35.9399 62 35.9399H72.37C74.84 35.9399 76.85 37.9499 76.85 40.4199V50.5099C76.85 52.9799 74.84 54.9899 72.37 54.9899ZM62 37.1399C60.19 37.1399 58.72 38.6099 58.72 40.4199V50.5099C58.72 52.3199 60.19 53.7899 62 53.7899H72.37C74.18 53.7899 75.65 52.3199 75.65 50.5099V40.4199C75.65 38.6099 74.18 37.1399 72.37 37.1399H62Z" fill="black"/>
<path d="M74.54 44.8201C74.45 44.8201 74.36 44.8001 74.28 44.7601C73.92 44.5901 73.51 44.4301 73.06 44.2901C72.74 44.1901 72.57 43.8601 72.66 43.5401C72.76 43.2201 73.09 43.0401 73.41 43.1401C73.92 43.3001 74.39 43.4801 74.8 43.6701C75.1 43.8101 75.23 44.1701 75.08 44.4701C74.98 44.6901 74.76 44.8101 74.54 44.8101V44.8201Z" fill="black"/>
<path d="M70.86 43.79C70.86 43.79 70.8 43.79 70.77 43.79C70.02 43.68 69.23 43.6 68.42 43.56C68.09 43.54 67.83 43.26 67.85 42.93C67.87 42.6 68.15 42.38 68.48 42.36C69.34 42.4 70.17 42.48 70.96 42.6C71.29 42.65 71.51 42.96 71.46 43.28C71.42 43.58 71.16 43.79 70.87 43.79H70.86ZM63.6 43.79C63.31 43.79 63.05 43.58 63.01 43.28C62.96 42.95 63.19 42.65 63.51 42.6C64.3 42.48 65.14 42.4 65.99 42.36C66.32 42.35 66.6 42.6 66.62 42.93C66.64 43.26 66.38 43.54 66.05 43.56C65.24 43.6 64.45 43.67 63.7 43.79C63.67 43.79 63.64 43.79 63.61 43.79H63.6Z" fill="black"/>
<path d="M59.91 44.8201C59.69 44.8201 59.47 44.6901 59.37 44.4801C59.23 44.1801 59.35 43.8201 59.65 43.6801C60.06 43.4801 60.53 43.3001 61.04 43.1501C61.36 43.0501 61.69 43.2301 61.79 43.5501C61.89 43.8701 61.71 44.2001 61.39 44.3001C60.93 44.4401 60.52 44.6001 60.17 44.7701C60.09 44.8101 60 44.8301 59.91 44.8301V44.8201Z" fill="black"/>
<path d="M73.23 48.94C72.97 48.94 72.74 48.77 72.66 48.52C72.56 48.2 72.74 47.87 73.06 47.77C73.52 47.63 73.93 47.47 74.28 47.3C74.58 47.16 74.94 47.28 75.08 47.58C75.22 47.88 75.1 48.24 74.8 48.38C74.39 48.58 73.92 48.76 73.41 48.91C73.35 48.93 73.29 48.94 73.23 48.94Z" fill="black"/>
<path d="M66.15 49.71H66.13C65.3 49.68 64.48 49.6 63.7 49.49C63.37 49.44 63.14 49.14 63.19 48.81C63.24 48.48 63.54 48.26 63.87 48.3C64.61 48.41 65.39 48.48 66.18 48.51C66.51 48.52 66.77 48.8 66.76 49.13C66.75 49.45 66.48 49.71 66.16 49.71H66.15ZM68.53 49.71C68.21 49.71 67.95 49.46 67.93 49.14C67.91 48.81 68.17 48.53 68.5 48.51C69.3 48.47 70.08 48.39 70.81 48.28C71.13 48.23 71.44 48.45 71.49 48.78C71.54 49.11 71.32 49.41 70.99 49.46C70.22 49.58 69.4 49.66 68.56 49.71H68.53Z" fill="black"/>
<path d="M61.44 49.01C61.39 49.01 61.33 49.01 61.27 48.99C60.76 48.84 60.29 48.68 59.88 48.49C59.58 48.36 59.44 48 59.57 47.7C59.7 47.4 60.06 47.26 60.36 47.39C60.73 47.55 61.14 47.7 61.6 47.83C61.92 47.92 62.1 48.25 62.01 48.57C61.93 48.83 61.69 49 61.43 49L61.44 49.01Z" fill="black"/>
<path d="M71.03 37.14C70.7 37.14 70.43 36.87 70.43 36.54V28.02C70.43 27.69 70.7 27.42 71.03 27.42C71.36 27.42 71.63 27.69 71.63 28.02V36.54C71.63 36.87 71.36 37.14 71.03 37.14ZM63.34 37.14C63.01 37.14 62.74 36.87 62.74 36.54V28.02C62.74 27.69 63.01 27.42 63.34 27.42C63.67 27.42 63.94 27.69 63.94 28.02V36.54C63.94 36.87 63.67 37.14 63.34 37.14Z" fill="black"/>
<path d="M30.22 54.88C30.11 54.88 30 54.85 29.9 54.79C28.31 53.78 27.26 52.43 27.21 52.37C27 52.14 21.63 45.88 23.57 34.62C23.62 34.3 23.91 34.08 24.24 34.13C28.04 34.66 31.29 35.75 33.89 37.36C34.17 37.53 34.26 37.9 34.08 38.19C33.91 38.47 33.54 38.56 33.25 38.38C30.92 36.94 28.03 35.94 24.65 35.4C23.09 45.7 28.07 51.54 28.12 51.6C28.15 51.64 29.12 52.88 30.53 53.77C30.81 53.95 30.89 54.32 30.71 54.6C30.6 54.78 30.4 54.88 30.2 54.88H30.22Z" fill="black"/>
<path d="M35.85 57.01C34.78 57.01 33.6 56.78 32.31 56.23C24.97 53.1 27.83 45.38 28.01 44.92C29.97 39.24 34.73 35.05 42.16 32.47C42.47 32.36 42.81 32.53 42.92 32.84C47.36 45.42 43.83 51.42 43.67 51.67C43.67 51.69 41.02 57.01 35.84 57.01H35.85ZM41.99 33.8C35.24 36.27 30.92 40.14 29.14 45.32C29.14 45.33 29.14 45.34 29.13 45.35C29.01 45.64 26.35 52.38 32.78 55.13C39.24 57.88 42.49 51.37 42.63 51.09C42.69 50.99 45.92 45.4 41.99 33.8Z" fill="black"/>
<path d="M34.11 42.4299C34.11 42.4299 34.06 42.4299 34.03 42.4299C33.57 42.3699 33.13 42.3499 32.72 42.3499C32.39 42.3499 32.12 42.0799 32.12 41.7499C32.12 41.4199 32.38 41.1499 32.72 41.1499C33.18 41.1199 33.68 41.1799 34.19 41.2399C34.52 41.2799 34.75 41.5799 34.71 41.9099C34.67 42.2099 34.41 42.4299 34.12 42.4299H34.11Z" fill="black"/>
<path d="M39.06 43.96C38.97 43.96 38.88 43.94 38.8 43.9C38.47 43.74 38.12 43.59 37.77 43.44C37.33 43.26 36.9 43.11 36.47 42.97C36.15 42.87 35.98 42.53 36.08 42.22C36.18 41.9 36.52 41.73 36.83 41.83C37.29 41.97 37.76 42.14 38.23 42.33C38.61 42.48 38.98 42.65 39.33 42.82C39.63 42.96 39.75 43.32 39.61 43.62C39.51 43.83 39.29 43.96 39.07 43.96H39.06Z" fill="black"/>
<path d="M42.39 46.1599C42.24 46.1599 42.1 46.1099 41.98 45.9999C41.67 45.7099 41.33 45.4299 40.95 45.1699C40.68 44.9799 40.62 44.5999 40.81 44.3299C41 44.0599 41.38 43.9999 41.65 44.1899C42.07 44.4899 42.45 44.7999 42.8 45.1199C43.04 45.3499 43.06 45.7299 42.83 45.9699C42.71 46.0999 42.55 46.1599 42.39 46.1599Z" fill="black"/>
<path d="M31.71 47.5199C31.58 47.5199 31.45 47.4799 31.34 47.3899C30.92 47.0599 30.56 46.7199 30.24 46.3899C30.01 46.1499 30.03 45.7699 30.27 45.5399C30.51 45.3099 30.89 45.3299 31.12 45.5699C31.39 45.8599 31.72 46.1599 32.09 46.4499C32.35 46.6599 32.39 47.0299 32.19 47.2899C32.07 47.4399 31.9 47.5199 31.72 47.5199H31.71Z" fill="black"/>
<path d="M36.89 50.1699C36.83 50.1699 36.77 50.1699 36.71 50.1399C36.23 49.9899 35.75 49.8199 35.26 49.6199C34.79 49.4299 34.34 49.2199 33.91 49.0099C33.61 48.8599 33.49 48.4999 33.64 48.1999C33.79 47.8999 34.15 47.7799 34.45 47.9299C34.85 48.1299 35.28 48.3199 35.71 48.4999C36.17 48.6799 36.62 48.8499 37.06 48.9799C37.38 49.0799 37.55 49.4099 37.46 49.7299C37.38 49.9899 37.14 50.1499 36.89 50.1499V50.1699Z" fill="black"/>
<path d="M40.7 50.8099C40.38 50.8099 40.04 50.7899 39.7 50.7599C39.37 50.7299 39.13 50.4299 39.16 50.0999C39.19 49.7699 39.5 49.5599 39.82 49.5599C40.28 49.5999 40.72 49.6099 41.12 49.5899C41.46 49.5799 41.73 49.8199 41.75 50.1499C41.77 50.4799 41.52 50.7599 41.19 50.7799C41.03 50.7799 40.87 50.7899 40.71 50.7899L40.7 50.8099Z" fill="black"/>
<path d="M63.94 72.58H37.74C35.09 72.58 32.93 70.42 32.93 67.77V56.32C32.93 55.99 33.2 55.72 33.53 55.72C33.86 55.72 34.13 55.99 34.13 56.32V67.77C34.13 69.76 35.75 71.38 37.74 71.38H63.94C65.93 71.38 67.55 69.76 67.55 67.77V55.22C67.55 54.89 67.82 54.62 68.15 54.62C68.48 54.62 68.75 54.89 68.75 55.22V67.77C68.75 70.42 66.59 72.58 63.94 72.58Z" fill="black"/>
</g>
</g>
</g>
<defs>
<filter id="filter0_f_43212_24459" x="-282.293" y="-91.6094" width="549.209" height="549.209" filterUnits="userSpaceOnUse" color-interpolation-filters="sRGB">
<feFlood flood-opacity="0" result="BackgroundImageFix"/>
<feBlend mode="normal" in="SourceGraphic" in2="BackgroundImageFix" result="shape"/>
<feGaussianBlur stdDeviation="102.214" result="effect1_foregroundBlur_43212_24459"/>
</filter>
<filter id="filter1_f_43212_24459" x="-369.886" y="-268.443" width="757.396" height="757.396" filterUnits="userSpaceOnUse" color-interpolation-filters="sRGB">
<feFlood flood-opacity="0" result="BackgroundImageFix"/>
<feBlend mode="normal" in="SourceGraphic" in2="BackgroundImageFix" result="shape"/>
<feGaussianBlur stdDeviation="91.4625" result="effect1_foregroundBlur_43212_24459"/>
</filter>
<filter id="filter2_f_43212_24459" x="-64.6072" y="-149.902" width="338.44" height="338.266" filterUnits="userSpaceOnUse" color-interpolation-filters="sRGB">
<feFlood flood-opacity="0" result="BackgroundImageFix"/>
<feBlend mode="normal" in="SourceGraphic" in2="BackgroundImageFix" result="shape"/>
<feGaussianBlur stdDeviation="46.7516" result="effect1_foregroundBlur_43212_24459"/>
</filter>
<filter id="filter3_f_43212_24459" x="-105.758" y="-31.794" width="450.804" height="450.804" filterUnits="userSpaceOnUse" color-interpolation-filters="sRGB">
<feFlood flood-opacity="0" result="BackgroundImageFix"/>
<feBlend mode="normal" in="SourceGraphic" in2="BackgroundImageFix" result="shape"/>
<feGaussianBlur stdDeviation="76.4113" result="effect1_foregroundBlur_43212_24459"/>
</filter>
<clipPath id="clip0_43212_24459">
<rect width="100" height="100" fill="white"/>
</clipPath>
<clipPath id="clip1_43212_24459">
<rect width="60" height="60" fill="white" transform="translate(20 20)"/>
</clipPath>
<clipPath id="clip2_43212_24459">
<rect width="60" height="60" fill="white" transform="translate(20 20)"/>
</clipPath>
</defs>
</svg>
