<?xml version="1.0" encoding="UTF-8"?>
<svg id="Layer_1" data-name="Layer 1" xmlns="http://www.w3.org/2000/svg" viewBox="0 0 80 80">
  <path d="m65.7,67.68H19.2c-9.5,0-17.22-7.74-17.22-17.25,0-7.67,5.04-14.39,12.32-16.55-.06-.61-.09-1.22-.09-1.84,0-10.87,8.82-19.71,19.67-19.71,8.47,0,16.07,5.55,18.68,13.56.47-.05.97-.07,1.51-.07,9.16,0,16.61,7.47,16.61,16.64,0,.56-.02,1.07-.07,1.55,4.46,1.94,7.42,6.42,7.42,11.32,0,6.81-5.53,12.35-12.33,12.35ZM33.88,13.72c-10.07,0-18.27,8.21-18.27,18.31,0,.76.05,1.53.14,2.27.04.35-.18.68-.52.77-6.98,1.81-11.86,8.13-11.86,15.36,0,8.74,7.1,15.85,15.82,15.85h46.5c6.02,0,10.93-4.91,10.93-10.95,0-4.51-2.82-8.62-7.03-10.22-.31-.12-.49-.43-.44-.76.09-.57.13-1.19.13-1.89,0-8.4-6.82-15.24-15.21-15.24-.7,0-1.33.04-1.9.13-.34.05-.68-.16-.78-.5-2.26-7.72-9.46-13.12-17.51-13.12Z"/>
  <g>
    <g>
      <path d="m8.6,43.11c-.29,0-.57-.19-.67-.48-.12-.37.08-.76.45-.88.49-.16,1.01-.32,1.57-.47.37-.1.76.12.86.49.1.37-.12.76-.49.86-.53.14-1.03.29-1.5.45-.07.02-.15.04-.22.04Z"/>
      <path d="m62.19,42.68c-.05,0-.11,0-.16-.02-1-.23-2.06-.46-3.17-.66-.38-.07-.63-.43-.56-.82.07-.38.43-.63.82-.56,1.13.21,2.22.44,3.24.67.38.09.61.47.52.84-.08.32-.36.54-.68.54Zm-48.87-.76c-.33,0-.62-.23-.69-.56-.08-.38.17-.75.55-.82,1.02-.2,2.12-.39,3.26-.56.38-.05.74.21.8.59.06.38-.21.74-.59.8-1.12.17-2.2.35-3.2.55-.05,0-.09.01-.14.01Zm42.43-.43s-.07,0-.1,0c-1.04-.15-2.11-.29-3.23-.42-.38-.04-.66-.39-.62-.78.04-.38.38-.66.78-.62,1.13.13,2.22.27,3.27.42.38.06.65.41.59.79-.05.35-.35.6-.69.6Zm-35.95-.55c-.35,0-.65-.26-.69-.62-.04-.38.23-.73.62-.77,1.06-.12,2.15-.23,3.28-.32.4-.04.72.25.76.64.03.39-.25.72-.64.76-1.12.09-2.2.2-3.24.32-.03,0-.05,0-.08,0Zm29.45-.21s-.04,0-.06,0c-1.06-.09-2.14-.18-3.25-.25-.39-.03-.68-.36-.65-.74s.36-.67.74-.65c1.12.07,2.21.16,3.28.25.38.03.67.37.63.76-.03.36-.34.64-.7.64Zm-22.92-.34c-.37,0-.68-.29-.7-.66-.02-.39.27-.72.66-.74,1.07-.06,2.17-.11,3.29-.15,0,0,.02,0,.02,0,.38,0,.69.3.7.68.01.39-.29.71-.67.72-1.11.04-2.2.09-3.26.15-.01,0-.03,0-.04,0Zm16.38-.09s-.02,0-.03,0c-1.07-.05-2.16-.08-3.26-.11-.39,0-.69-.33-.68-.72,0-.39.3-.71.72-.68,1.11.03,2.21.07,3.29.11.39.02.69.34.67.73-.02.38-.33.67-.7.67Zm-9.83-.14c-.38,0-.69-.31-.7-.69,0-.39.3-.7.69-.71.81-.01,1.62-.02,2.45-.02h.84c.39,0,.7.32.7.7,0,.39-.31.7-.7.7h-.84c-.82,0-1.63,0-2.43.02h0Z"/>
      <path d="m66.86,44.08c-.08,0-.17-.02-.25-.05-.45-.18-.94-.35-1.46-.52-.37-.12-.57-.51-.45-.88.12-.37.51-.58.88-.45.55.18,1.07.36,1.55.55.36.14.54.55.4.91-.11.28-.37.45-.65.45Z"/>
    </g>
    <g>
      <path d="m9.38,50.22c-.07,0-.14-.01-.21-.03-.55-.18-1.07-.36-1.55-.55-.36-.14-.54-.55-.4-.91.14-.36.55-.54.91-.4.45.18.94.35,1.46.52.37.12.57.51.45.88-.1.3-.37.49-.67.49Z"/>
      <path d="m39.45,53.65h-.27c-.39,0-.7-.31-.7-.7s.31-.7.7-.7h.27c1.03,0,2.06,0,3.06-.03h.01c.38,0,.69.3.7.69,0,.39-.3.71-.69.71-1.02.02-2.05.03-3.09.03Zm-3.61-.04h-.02c-1.13-.03-2.25-.06-3.36-.11-.39-.02-.69-.34-.67-.73.02-.38.33-.67.7-.67.01,0,.02,0,.03,0,1.09.05,2.2.08,3.33.11.39,0,.69.33.68.72,0,.38-.32.68-.7.68Zm10.03-.09c-.37,0-.68-.29-.7-.67-.02-.39.29-.71.67-.73,1.13-.05,2.24-.1,3.32-.17.38-.02.72.27.74.65.03.39-.27.72-.65.74-1.09.07-2.21.13-3.36.17,0,0-.02,0-.03,0Zm-16.71-.19s-.03,0-.04,0c-1.14-.07-2.26-.16-3.35-.25-.39-.03-.67-.37-.64-.76s.38-.66.76-.64c1.08.09,2.19.18,3.32.25.39.02.68.36.65.74-.02.37-.33.66-.7.66Zm23.39-.24c-.36,0-.66-.27-.7-.64-.04-.38.25-.73.63-.76,1.14-.1,2.24-.22,3.3-.35.38-.06.73.22.78.61.05.38-.23.73-.61.78-1.07.13-2.19.25-3.35.36-.02,0-.04,0-.06,0Zm-30.05-.34s-.05,0-.08,0c-1.15-.13-2.26-.27-3.34-.43-.38-.05-.65-.41-.59-.79.05-.38.4-.66.79-.59,1.06.15,2.16.29,3.3.42.38.04.66.39.62.77-.04.36-.34.62-.69.62Zm36.69-.47c-.34,0-.63-.24-.69-.59-.06-.38.2-.74.58-.8,1.15-.19,2.25-.39,3.25-.61.37-.08.75.16.83.54.08.38-.16.75-.54.83-1.03.22-2.15.43-3.32.62-.04,0-.08,0-.11,0Zm-43.3-.49s-.08,0-.13-.01c-1.17-.21-2.29-.44-3.31-.69-.38-.09-.61-.47-.52-.84.09-.38.46-.61.84-.52,1,.24,2.09.46,3.24.67.38.07.63.43.56.81-.06.34-.36.58-.69.58Z"/>
      <path d="m65.72,50.81c-.3,0-.58-.19-.67-.49-.12-.37.09-.76.46-.88.53-.16,1.02-.33,1.46-.51.36-.14.77.04.91.4.14.36-.04.77-.4.91-.48.19-1,.36-1.55.54-.07.02-.14.03-.21.03Z"/>
    </g>
  </g>
</svg>