<?xml version="1.0" encoding="UTF-8"?>
<svg id="Layer_1" data-name="Layer 1" xmlns="http://www.w3.org/2000/svg" viewBox="0 0 80 80">
  <path d="m51.5,38.47c-.38,0-.69-.3-.7-.68-.07-3.05-.26-5.99-.58-8.73-.04-.38.23-.73.62-.78.38-.05.73.23.78.61.32,2.78.52,5.76.59,8.85,0,.39-.3.71-.68.72,0,0-.01,0-.02,0Z"/>
  <path d="m31.56,38.03s-.01,0-.02,0c-.39,0-.69-.33-.68-.72.44-17.09,5.02-29.98,10.66-29.98,3.38,0,6.36,4.31,8.38,12.13.1.37-.13.76-.5.85-.37.09-.75-.13-.85-.5-1.79-6.94-4.42-11.08-7.03-11.08-4.1,0-8.8,10.94-9.26,28.62,0,.38-.32.68-.7.68Z"/>
  <path d="m41.54,72.67c-4.55,0-8.37-7.92-9.97-20.67-.05-.38.22-.73.61-.78.38-.05.73.22.78.61,1.44,11.45,4.97,19.45,8.58,19.45,2.51,0,5.07-3.91,6.86-10.46.1-.37.48-.59.86-.49.37.1.59.49.49.86-2.02,7.41-4.93,11.49-8.21,11.49Z"/>
  <path d="m63.35,59.32c-6.46,0-16.95-3.9-27.41-10.35-15.56-9.57-25.29-21.09-22.16-26.23,2.09-3.43,9.25-3.15,19.15.75.36.14.54.55.4.91s-.55.54-.91.4c-8.94-3.51-15.78-4.03-17.44-1.32-2.35,3.85,5.81,14.53,21.69,24.3,11.6,7.14,23.54,11.21,29.04,9.9,1.14-.27,1.94-.77,2.38-1.48,1.43-2.33-1.08-7.17-6.54-12.63-.27-.27-.27-.72,0-.99.27-.27.72-.27.99,0,6.12,6.12,8.58,11.35,6.74,14.35-.64,1.04-1.73,1.75-3.24,2.11-.79.19-1.69.28-2.68.28Z"/>
  <g>
    <path d="m20.87,44.13c-.18,0-.36-.07-.49-.2-.27-.27-.28-.72,0-.99.37-.38.76-.75,1.16-1.13.28-.27.72-.26.99.02.27.28.26.72-.02.99-.39.37-.77.74-1.13,1.1-.14.14-.32.21-.5.21Z"/>
    <path d="m18.6,59.41s-.03,0-.04,0c-1.5-.09-2.71-.44-3.6-1.05-.32-.22-.4-.65-.18-.97.22-.32.65-.4.97-.18.67.46,1.65.73,2.89.8.39.02.68.35.66.74-.02.37-.33.66-.7.66Zm3.41-.18c-.34,0-.64-.25-.69-.6-.05-.38.21-.74.6-.79,1.01-.14,2.11-.36,3.28-.65.37-.09.75.14.85.51.09.38-.14.75-.51.85-1.22.3-2.37.53-3.42.67-.03,0-.07,0-.1,0Zm-8.13-3.68c-.39,0-.7-.31-.7-.69,0-1.07.3-2.27.91-3.58.16-.35.58-.5.93-.34.35.16.51.58.34.93-.52,1.13-.78,2.13-.78,2.98,0,.39-.31.71-.7.71Zm2.56-6.22c-.14,0-.28-.04-.4-.13-.32-.22-.39-.66-.17-.97.62-.88,1.34-1.81,2.15-2.75.25-.29.69-.33.99-.07.29.25.33.69.07.99-.78.9-1.47,1.79-2.06,2.63-.14.2-.35.3-.58.3Z"/>
    <path d="m28.65,57.63c-.3,0-.57-.19-.67-.49-.12-.37.08-.76.45-.88.5-.16,1-.33,1.5-.51.37-.13.76.06.89.43.13.36-.06.76-.43.89-.51.18-1.02.35-1.54.52-.07.02-.14.03-.21.03Z"/>
  </g>
  <path d="m41.62,44.68c-2.31,0-4.18-1.88-4.18-4.18s1.88-4.18,4.18-4.18,4.18,1.88,4.18,4.18-1.88,4.18-4.18,4.18Zm0-6.97c-1.54,0-2.78,1.25-2.78,2.78s1.25,2.78,2.78,2.78,2.78-1.25,2.78-2.78-1.25-2.78-2.78-2.78Z"/>
  <g>
    <path d="m46.76,49.3c-.24,0-.46-.12-.6-.33-.2-.33-.1-.76.23-.96.46-.28.9-.56,1.35-.85.33-.21.76-.11.97.21.21.33.11.76-.21.97-.45.29-.91.57-1.37.86-.11.07-.24.1-.37.1Z"/>
    <path d="m50.79,46.69c-.22,0-.44-.11-.58-.31-.22-.32-.14-.75.18-.97.89-.61,1.75-1.22,2.59-1.83.31-.23.75-.16.98.15.23.31.16.75-.15.98-.85.62-1.73,1.25-2.63,1.86-.12.08-.26.12-.39.12Zm5.16-3.79c-.21,0-.41-.09-.55-.27-.24-.3-.19-.74.11-.98.85-.67,1.67-1.35,2.45-2.02.29-.25.73-.22.99.08.25.29.22.74-.08.99-.79.68-1.63,1.37-2.49,2.05-.13.1-.28.15-.43.15Zm4.85-4.17c-.19,0-.37-.07-.51-.22-.27-.28-.25-.72.03-.99.79-.75,1.55-1.5,2.24-2.23.27-.28.71-.29.99-.03.28.27.29.71.03.99-.71.75-1.48,1.52-2.29,2.28-.14.13-.31.19-.48.19Zm4.39-4.65c-.16,0-.31-.05-.44-.16-.3-.24-.34-.69-.1-.98.7-.86,1.33-1.71,1.85-2.51.21-.32.64-.42.97-.21.32.21.42.64.21.97-.55.85-1.2,1.74-1.94,2.64-.14.17-.34.26-.54.26Zm-24.71-4.3c-.25,0-.49-.13-.61-.36-.19-.34-.06-.76.27-.95.96-.53,1.91-1.03,2.85-1.51.34-.18.77-.04.94.31.17.34.04.77-.31.94-.93.47-1.86.97-2.8,1.49-.11.06-.22.09-.34.09Zm28.11-1.1c-.09,0-.18-.02-.26-.05-.36-.14-.53-.55-.39-.91.37-.92.56-1.75.56-2.47,0-.11,0-.22-.01-.33-.03-.39.25-.72.64-.76.38-.04.72.25.76.64.01.15.02.29.02.44,0,.9-.22,1.9-.66,2.99-.11.27-.37.44-.65.44Zm-22.41-1.8c-.26,0-.52-.15-.63-.41-.16-.35-.01-.77.34-.93,1-.46,1.99-.9,2.95-1.3.36-.15.77.02.92.38.15.36-.02.77-.38.92-.95.4-1.92.82-2.9,1.28-.1.04-.2.07-.29.07Zm5.91-2.45c-.29,0-.55-.18-.66-.46-.13-.36.06-.77.42-.9,1.05-.38,2.08-.72,3.07-1.02.37-.11.76.1.87.47.11.37-.1.76-.47.87-.96.29-1.97.62-3,1-.08.03-.16.04-.24.04Zm15.51-1.5c-.13,0-.26-.04-.38-.11-.66-.43-1.58-.7-2.72-.8-.39-.04-.67-.38-.63-.76.04-.39.38-.67.76-.63,1.37.13,2.5.47,3.35,1.02.32.21.42.64.21.97-.13.21-.36.32-.59.32Zm-9.38-.32c-.32,0-.61-.22-.68-.55-.08-.38.16-.75.53-.83,1.14-.25,2.23-.43,3.23-.54.37-.04.73.24.77.62.04.38-.24.73-.62.77-.95.1-1.99.28-3.08.52-.05.01-.1.02-.15.02Z"/>
    <path d="m36.3,32.2c-.24,0-.46-.12-.6-.33-.2-.33-.1-.76.23-.96.46-.28.92-.56,1.38-.84.33-.2.76-.09.96.24.2.33.09.76-.24.96-.45.27-.91.54-1.36.83-.11.07-.24.1-.37.1Z"/>
  </g>
</svg>