<svg width="100" height="100" viewBox="0 0 100 100" fill="none" xmlns="http://www.w3.org/2000/svg">
<mask id="mask0_40701_24995" style="mask-type:alpha" maskUnits="userSpaceOnUse" x="0" y="0" width="100" height="100">
<circle cx="50" cy="50" r="50" fill="#D9D9D9"/>
</mask>
<g mask="url(#mask0_40701_24995)">
<g filter="url(#filter0_f_40701_24995)">
<ellipse cx="-7.68829" cy="182.995" rx="70.1648" ry="70.1648" transform="rotate(-30 -7.68829 182.995)" fill="#00FFD3"/>
</g>
<g filter="url(#filter1_f_40701_24995)">
<path d="M178.328 12.3851C232.381 106.006 200.304 225.719 106.682 279.771C13.0611 333.824 -106.652 301.747 -160.704 208.126C-214.756 114.504 -182.679 -5.20861 -89.058 -59.2608C4.56315 -113.313 124.276 -81.2361 178.328 12.3851Z" fill="#00F6FF"/>
</g>
<g filter="url(#filter2_f_40701_24995)">
<ellipse cx="104.613" cy="19.2313" rx="75.7477" ry="75.5739" transform="rotate(-30 104.613 19.2313)" fill="#C3A6FF"/>
</g>
<g filter="url(#filter3_f_40701_24995)">
<circle cx="119.644" cy="193.608" r="72.5673" transform="rotate(-30 119.644 193.608)" fill="#00FFD3"/>
</g>
<g clip-path="url(#clip0_40701_24995)">
<rect width="232.143" height="214.286" transform="translate(-90.0078 -7.13281)" fill="black"/>
<g filter="url(#filter4_f_40701_24995)">
<ellipse cx="39.0276" cy="264.365" rx="102.616" ry="102.616" transform="rotate(-30 39.0276 264.365)" fill="#00FFD3"/>
</g>
<g filter="url(#filter5_f_40701_24995)">
<ellipse cx="63.1581" cy="157.985" rx="286.27" ry="286.27" transform="rotate(-30 63.1581 157.985)" fill="#FF7701"/>
</g>
<g filter="url(#filter6_f_40701_24995)">
<ellipse cx="104.027" cy="157.547" rx="110.781" ry="110.527" transform="rotate(-30 104.027 157.547)" fill="#FF4B9B"/>
</g>
<g filter="url(#filter7_f_40701_24995)">
<ellipse cx="281.617" cy="18.6098" rx="110.781" ry="110.527" transform="rotate(-30 281.617 18.6098)" fill="#FF4B9B"/>
</g>
<g filter="url(#filter8_f_40701_24995)">
<ellipse cx="225.245" cy="279.916" rx="106.13" ry="106.13" transform="rotate(-30 225.245 279.916)" fill="#E26CFF"/>
</g>
</g>
</g>
<g clip-path="url(#clip1_40701_24995)">
<path d="M49.99 49.0599C49.93 49.0599 49.86 49.0599 49.8 49.0299L24.39 40.7099C24.14 40.6299 23.98 40.3999 23.98 40.1399V36.8599C23.98 36.5899 24.16 36.3599 24.42 36.2799L49.84 29.0899C49.95 29.0599 50.06 29.0599 50.17 29.0899L75.6 36.2799C75.86 36.3499 76.04 36.5899 76.04 36.8599V40.2599C76.04 40.5199 75.87 40.7499 75.62 40.8299L50.19 49.0199C50.13 49.0399 50.07 49.0499 50.01 49.0499L49.99 49.0599ZM25.17 39.7099L49.99 47.8299L74.82 39.8299V37.3199L49.99 30.2999L25.17 37.3199V39.7099Z" fill="black"/>
<path d="M35.12 58.1301C34.79 58.1301 34.52 57.8601 34.52 57.5301V44.4501C34.52 44.1201 34.79 43.8501 35.12 43.8501C35.45 43.8501 35.72 44.1201 35.72 44.4501V57.5301C35.72 57.8601 35.45 58.1301 35.12 58.1301Z" fill="black"/>
<path d="M64.4501 58.1299C64.1201 58.1299 63.8501 57.8599 63.8501 57.5299V44.2399C63.8501 43.9099 64.1201 43.6399 64.4501 43.6399C64.7801 43.6399 65.0501 43.9099 65.0501 44.2399V57.5299C65.0501 57.8599 64.7801 58.1299 64.4501 58.1299Z" fill="black"/>
<path d="M49.8798 61.93C49.5298 61.93 49.2198 61.68 49.2198 61.33C49.2198 61 49.4898 60.73 49.8198 60.73C49.8198 60.73 49.8598 60.73 49.8798 60.73C50.6798 60.73 51.4698 60.71 52.2298 60.67C52.5998 60.67 52.8398 60.91 52.8598 61.24C52.8798 61.57 52.6198 61.85 52.2898 61.87C51.5098 61.91 50.6998 61.93 49.8798 61.93ZM47.3798 61.88H47.3498C46.4998 61.84 45.6798 61.78 44.8798 61.71C44.5498 61.68 44.3098 61.38 44.3398 61.05C44.3698 60.72 44.6698 60.48 44.9998 60.51C45.7698 60.58 46.5798 60.64 47.4098 60.68C47.7398 60.7 47.9998 60.98 47.9798 61.31C47.9698 61.63 47.6998 61.88 47.3798 61.88ZM54.6998 61.71C54.3998 61.71 54.1298 61.48 54.0998 61.17C54.0698 60.84 54.3098 60.55 54.6398 60.51C55.4698 60.43 56.2698 60.33 57.0298 60.21C57.3598 60.15 57.6598 60.38 57.7198 60.71C57.7698 61.04 57.5498 61.34 57.2198 61.4C56.4398 61.52 55.6098 61.63 54.7598 61.71C54.7398 61.71 54.7198 61.71 54.6998 61.71ZM42.5198 61.41C42.5198 61.41 42.4598 61.41 42.4298 61.41C41.5598 61.27 40.7398 61.11 39.9798 60.93C39.6598 60.85 39.4598 60.53 39.5398 60.21C39.6198 59.89 39.9398 59.69 40.2598 59.77C40.9798 59.94 41.7698 60.1 42.6098 60.23C42.9398 60.28 43.1598 60.59 43.1098 60.92C43.0598 61.22 42.8098 61.43 42.5198 61.43V61.41ZM59.5198 60.93C59.2498 60.93 58.9998 60.75 58.9398 60.47C58.8598 60.15 59.0598 59.82 59.3798 59.75C60.2398 59.54 60.9898 59.31 61.6398 59.05C61.9498 58.93 62.2998 59.08 62.4198 59.39C62.5398 59.7 62.3898 60.05 62.0798 60.17C61.3898 60.44 60.5798 60.69 59.6698 60.91C59.6198 60.92 59.5798 60.93 59.5298 60.93H59.5198ZM37.7798 60.23C37.7098 60.23 37.6298 60.22 37.5598 60.19C36.5398 59.79 35.7598 59.34 35.2598 58.85C35.0198 58.62 35.0198 58.24 35.2498 58C35.4798 57.76 35.8598 57.76 36.0998 57.99C36.4798 58.36 37.1398 58.74 37.9998 59.07C38.3098 59.19 38.4598 59.54 38.3398 59.85C38.2498 60.09 38.0198 60.23 37.7798 60.23ZM63.9498 58.98C63.7998 58.98 63.6398 58.92 63.5298 58.81C63.2898 58.58 63.2898 58.2 63.5298 57.96C63.7498 57.74 63.8698 57.52 63.8698 57.33C63.8698 57.14 63.7498 56.92 63.5198 56.69C63.2798 56.46 63.2798 56.08 63.5198 55.84C63.7498 55.6 64.1298 55.6 64.3698 55.84C64.8398 56.3 65.0798 56.81 65.0798 57.34C65.0798 57.87 64.8498 58.36 64.3998 58.82C64.2798 58.94 64.1298 59 63.9698 59L63.9498 58.98ZM35.6198 56.9C35.4698 56.9 35.3198 56.84 35.1998 56.73C34.9598 56.5 34.9598 56.12 35.1898 55.88C35.6798 55.38 36.4498 54.91 37.4798 54.5C37.7898 54.38 38.1398 54.53 38.2598 54.84C38.3798 55.15 38.2298 55.5 37.9198 55.62C37.0598 55.96 36.4098 56.34 36.0398 56.72C35.9198 56.84 35.7698 56.9 35.6098 56.9H35.6198ZM61.8298 55.64C61.7598 55.64 61.6798 55.63 61.6098 55.6C60.9698 55.35 60.2098 55.11 59.3498 54.91C59.0298 54.83 58.8298 54.51 58.9098 54.19C58.9898 53.87 59.3098 53.67 59.6298 53.75C60.5398 53.97 61.3498 54.22 62.0398 54.49C62.3498 54.61 62.4998 54.96 62.3798 55.27C62.2898 55.51 62.0598 55.65 61.8198 55.65L61.8298 55.64ZM40.0398 54.94C39.7698 54.94 39.5198 54.76 39.4598 54.48C39.3798 54.16 39.5798 53.83 39.8998 53.75C40.6498 53.57 41.4698 53.4 42.3398 53.26C42.6698 53.21 42.9798 53.43 43.0298 53.76C43.0798 54.09 42.8598 54.39 42.5298 54.45C41.6898 54.58 40.8998 54.74 40.1798 54.92C40.1298 54.93 40.0798 54.94 40.0398 54.94ZM57.0998 54.46C57.0998 54.46 57.0398 54.46 57.0098 54.46C56.2498 54.34 55.4398 54.24 54.6198 54.16C54.2898 54.13 54.0498 53.83 54.0798 53.5C54.1098 53.17 54.4198 52.95 54.7398 52.96C55.5798 53.04 56.4098 53.15 57.1998 53.27C57.5298 53.32 57.7498 53.63 57.6998 53.96C57.6498 54.26 57.3998 54.47 57.1098 54.47L57.0998 54.46ZM44.8598 54.16C44.5598 54.16 44.2898 53.93 44.2598 53.62C44.2298 53.29 44.4698 53 44.7998 52.96C45.5898 52.88 46.4198 52.82 47.2698 52.78C47.6298 52.76 47.8798 53.02 47.8998 53.35C47.9198 53.68 47.6598 53.96 47.3298 53.98C46.4998 54.02 45.6998 54.08 44.9198 54.15C44.8998 54.15 44.8798 54.15 44.8598 54.15V54.16ZM52.2398 53.98H52.2098C51.4198 53.94 50.6198 53.93 49.7898 53.93C49.4598 53.93 49.1598 53.66 49.1598 53.33C49.1598 53 49.3998 52.73 49.7298 52.73C49.7598 52.73 49.8498 52.73 49.8698 52.73C50.6598 52.73 51.4698 52.75 52.2498 52.78C52.5798 52.8 52.8398 53.08 52.8198 53.41C52.8098 53.73 52.5398 53.98 52.2198 53.98H52.2398Z" fill="black"/>
<path d="M72.89 70.92C72.56 70.92 72.29 70.65 72.29 70.32V42.14C72.29 41.81 72.56 41.54 72.89 41.54C73.22 41.54 73.49 41.81 73.49 42.14V70.32C73.49 70.65 73.22 70.92 72.89 70.92Z" fill="black"/>
</g>
<defs>
<filter id="filter0_f_40701_24995" x="-282.292" y="-91.609" width="549.207" height="549.207" filterUnits="userSpaceOnUse" color-interpolation-filters="sRGB">
<feFlood flood-opacity="0" result="BackgroundImageFix"/>
<feBlend mode="normal" in="SourceGraphic" in2="BackgroundImageFix" result="shape"/>
<feGaussianBlur stdDeviation="102.214" result="effect1_foregroundBlur_40701_24995"/>
</filter>
<filter id="filter1_f_40701_24995" x="-369.886" y="-268.443" width="757.396" height="757.396" filterUnits="userSpaceOnUse" color-interpolation-filters="sRGB">
<feFlood flood-opacity="0" result="BackgroundImageFix"/>
<feBlend mode="normal" in="SourceGraphic" in2="BackgroundImageFix" result="shape"/>
<feGaussianBlur stdDeviation="91.4625" result="effect1_foregroundBlur_40701_24995"/>
</filter>
<filter id="filter2_f_40701_24995" x="-64.6072" y="-149.902" width="338.44" height="338.266" filterUnits="userSpaceOnUse" color-interpolation-filters="sRGB">
<feFlood flood-opacity="0" result="BackgroundImageFix"/>
<feBlend mode="normal" in="SourceGraphic" in2="BackgroundImageFix" result="shape"/>
<feGaussianBlur stdDeviation="46.7516" result="effect1_foregroundBlur_40701_24995"/>
</filter>
<filter id="filter3_f_40701_24995" x="-105.758" y="-31.7938" width="450.804" height="450.804" filterUnits="userSpaceOnUse" color-interpolation-filters="sRGB">
<feFlood flood-opacity="0" result="BackgroundImageFix"/>
<feBlend mode="normal" in="SourceGraphic" in2="BackgroundImageFix" result="shape"/>
<feGaussianBlur stdDeviation="76.4113" result="effect1_foregroundBlur_40701_24995"/>
</filter>
<filter id="filter4_f_40701_24995" x="-268.033" y="-42.6954" width="614.12" height="614.12" filterUnits="userSpaceOnUse" color-interpolation-filters="sRGB">
<feFlood flood-opacity="0" result="BackgroundImageFix"/>
<feBlend mode="normal" in="SourceGraphic" in2="BackgroundImageFix" result="shape"/>
<feGaussianBlur stdDeviation="102.214" result="effect1_foregroundBlur_40701_24995"/>
</filter>
<filter id="filter5_f_40701_24995" x="-406.085" y="-311.258" width="938.486" height="938.486" filterUnits="userSpaceOnUse" color-interpolation-filters="sRGB">
<feFlood flood-opacity="0" result="BackgroundImageFix"/>
<feBlend mode="normal" in="SourceGraphic" in2="BackgroundImageFix" result="shape"/>
<feGaussianBlur stdDeviation="91.4625" result="effect1_foregroundBlur_40701_24995"/>
</filter>
<filter id="filter6_f_40701_24995" x="-100.213" y="-46.5647" width="408.479" height="408.224" filterUnits="userSpaceOnUse" color-interpolation-filters="sRGB">
<feFlood flood-opacity="0" result="BackgroundImageFix"/>
<feBlend mode="normal" in="SourceGraphic" in2="BackgroundImageFix" result="shape"/>
<feGaussianBlur stdDeviation="46.7516" result="effect1_foregroundBlur_40701_24995"/>
</filter>
<filter id="filter7_f_40701_24995" x="77.3772" y="-185.502" width="408.479" height="408.224" filterUnits="userSpaceOnUse" color-interpolation-filters="sRGB">
<feFlood flood-opacity="0" result="BackgroundImageFix"/>
<feBlend mode="normal" in="SourceGraphic" in2="BackgroundImageFix" result="shape"/>
<feGaussianBlur stdDeviation="46.7516" result="effect1_foregroundBlur_40701_24995"/>
</filter>
<filter id="filter8_f_40701_24995" x="-33.7245" y="20.9464" width="517.94" height="517.94" filterUnits="userSpaceOnUse" color-interpolation-filters="sRGB">
<feFlood flood-opacity="0" result="BackgroundImageFix"/>
<feBlend mode="normal" in="SourceGraphic" in2="BackgroundImageFix" result="shape"/>
<feGaussianBlur stdDeviation="76.4113" result="effect1_foregroundBlur_40701_24995"/>
</filter>
<clipPath id="clip0_40701_24995">
<rect width="232.143" height="214.286" fill="white" transform="translate(-90.0078 -7.13281)"/>
</clipPath>
<clipPath id="clip1_40701_24995">
<rect width="60" height="60" fill="white" transform="translate(20 20)"/>
</clipPath>
</defs>
</svg>
