<svg width="100" height="100" viewBox="0 0 100 100" fill="none" xmlns="http://www.w3.org/2000/svg">
<mask id="mask0_40701_25052" style="mask-type:alpha" maskUnits="userSpaceOnUse" x="0" y="0" width="100" height="100">
<circle cx="50" cy="50" r="50" fill="#D9D9D9"/>
</mask>
<g mask="url(#mask0_40701_25052)">
<g filter="url(#filter0_f_40701_25052)">
<ellipse cx="-7.68829" cy="182.995" rx="70.1648" ry="70.1648" transform="rotate(-30 -7.68829 182.995)" fill="#00FFD3"/>
</g>
<g filter="url(#filter1_f_40701_25052)">
<path d="M178.328 12.3851C232.381 106.006 200.304 225.719 106.682 279.771C13.0611 333.824 -106.652 301.747 -160.704 208.126C-214.756 114.504 -182.679 -5.20861 -89.058 -59.2608C4.56315 -113.313 124.276 -81.2361 178.328 12.3851Z" fill="#00F6FF"/>
</g>
<g filter="url(#filter2_f_40701_25052)">
<ellipse cx="104.613" cy="19.2313" rx="75.7477" ry="75.5739" transform="rotate(-30 104.613 19.2313)" fill="#C3A6FF"/>
</g>
<g filter="url(#filter3_f_40701_25052)">
<circle cx="119.644" cy="193.608" r="72.5673" transform="rotate(-30 119.644 193.608)" fill="#00FFD3"/>
</g>
<g clip-path="url(#clip0_40701_25052)">
<rect width="232.143" height="214.286" transform="translate(-116 -39)" fill="black"/>
<g filter="url(#filter4_f_40701_25052)">
<ellipse cx="13.0354" cy="232.498" rx="102.616" ry="102.616" transform="rotate(-30 13.0354 232.498)" fill="#00FFD3"/>
</g>
<g filter="url(#filter5_f_40701_25052)">
<ellipse cx="37.1698" cy="126.118" rx="286.27" ry="286.27" transform="rotate(-30 37.1698 126.118)" fill="#AC8EFF"/>
</g>
<g filter="url(#filter6_f_40701_25052)">
<ellipse cx="199.879" cy="50.0871" rx="117.393" ry="117.123" transform="rotate(-30 199.879 50.0871)" fill="#39C4FF"/>
</g>
<g filter="url(#filter7_f_40701_25052)">
<ellipse cx="199.261" cy="274.159" rx="106.13" ry="106.13" transform="rotate(-30 199.261 274.159)" fill="#5463ED"/>
</g>
</g>
</g>
<g clip-path="url(#clip1_40701_25052)">
<path d="M46.8101 68.7301H29.4701C29.1401 68.7301 28.8701 68.4601 28.8701 68.1301V34.4101C28.8701 34.0801 29.1401 33.8101 29.4701 33.8101H31.8901C32.2201 33.8101 32.4901 34.0801 32.4901 34.4101C32.4901 34.7401 32.2201 35.0101 31.8901 35.0101H30.0601V67.5301H46.2001V35.0101H44.3701C44.0401 35.0101 43.7701 34.7401 43.7701 34.4101C43.7701 34.0801 44.0401 33.8101 44.3701 33.8101H46.7901C47.1201 33.8101 47.3901 34.0801 47.3901 34.4101V68.1301C47.3901 68.4601 47.1201 68.7301 46.7901 68.7301H46.8101Z" fill="black"/>
<path d="M66.4701 68.73H45.9301C45.6001 68.73 45.3301 68.46 45.3301 68.13C45.3301 67.8 45.6001 67.53 45.9301 67.53H65.8701V42.97H47.0901C46.7601 42.97 46.4901 42.7 46.4901 42.37C46.4901 42.04 46.7601 41.77 47.0901 41.77H66.4701C66.8001 41.77 67.0701 42.04 67.0701 42.37V68.13C67.0701 68.46 66.8001 68.73 66.4701 68.73Z" fill="black"/>
<path d="M44.3898 35.01H31.8998C31.5698 35.01 31.2998 34.74 31.2998 34.41V31.09C31.2998 29.69 32.4398 28.55 33.8298 28.55H42.4498C43.8498 28.55 44.9898 29.69 44.9898 31.09V34.41C44.9898 34.74 44.7198 35.01 44.3898 35.01ZM32.4998 33.81H43.7898V31.09C43.7898 30.35 43.1898 29.75 42.4498 29.75H33.8298C33.0898 29.75 32.4998 30.35 32.4998 31.09V33.81Z" fill="black"/>
<path d="M38.14 29.7601C37.81 29.7601 37.54 29.4901 37.54 29.1601V26.6801C37.54 26.3501 37.81 26.0801 38.14 26.0801C38.47 26.0801 38.74 26.3501 38.74 26.6801V29.1601C38.74 29.4901 38.47 29.7601 38.14 29.7601Z" fill="black"/>
<path d="M32.2598 71.25C32.1198 71.25 31.9698 71.2 31.8598 71.1L31.0298 70.35C30.7798 70.13 30.7698 69.75 30.9898 69.5C31.2098 69.25 31.5898 69.24 31.8398 69.46L32.6698 70.21C32.9198 70.43 32.9298 70.81 32.7098 71.06C32.5898 71.19 32.4298 71.26 32.2598 71.26V71.25Z" fill="black"/>
<path d="M67.1598 73.93H64.9098C64.5798 73.93 64.3098 73.66 64.3098 73.33C64.3098 73 64.5798 72.73 64.9098 72.73H67.1598C67.4898 72.73 67.7598 73 67.7598 73.33C67.7598 73.66 67.4898 73.93 67.1598 73.93ZM62.6698 73.93H60.4198C60.0898 73.93 59.8198 73.66 59.8198 73.33C59.8198 73 60.0898 72.73 60.4198 72.73H62.6698C62.9998 72.73 63.2698 73 63.2698 73.33C63.2698 73.66 62.9998 73.93 62.6698 73.93ZM58.1798 73.93H55.9298C55.5998 73.93 55.3298 73.66 55.3298 73.33C55.3298 73 55.5998 72.73 55.9298 72.73H58.1798C58.5098 72.73 58.7798 73 58.7798 73.33C58.7798 73.66 58.5098 73.93 58.1798 73.93ZM53.6898 73.93H51.4398C51.1098 73.93 50.8398 73.66 50.8398 73.33C50.8398 73 51.1098 72.73 51.4398 72.73H53.6898C54.0198 72.73 54.2898 73 54.2898 73.33C54.2898 73.66 54.0198 73.93 53.6898 73.93ZM49.1998 73.93H46.9498C46.6198 73.93 46.3498 73.66 46.3498 73.33C46.3498 73 46.6198 72.73 46.9498 72.73H49.1998C49.5298 72.73 49.7998 73 49.7998 73.33C49.7998 73.66 49.5298 73.93 49.1998 73.93ZM44.7098 73.93H42.4598C42.1298 73.93 41.8598 73.66 41.8598 73.33C41.8598 73 42.1298 72.73 42.4598 72.73H44.7098C45.0398 72.73 45.3098 73 45.3098 73.33C45.3098 73.66 45.0398 73.93 44.7098 73.93ZM40.2198 73.93H37.9698C37.6398 73.93 37.3698 73.66 37.3698 73.33C37.3698 73 37.6398 72.73 37.9698 72.73H40.2198C40.5498 72.73 40.8198 73 40.8198 73.33C40.8198 73.66 40.5498 73.93 40.2198 73.93ZM35.7298 73.93H35.2198C35.0698 73.93 34.9298 73.88 34.8198 73.78L33.5298 72.62C33.2798 72.4 33.2698 72.02 33.4898 71.77C33.7098 71.52 34.0898 71.51 34.3398 71.73L35.4598 72.74H35.7398C36.0698 72.74 36.3398 73.01 36.3398 73.34C36.3398 73.67 36.0698 73.94 35.7398 73.94L35.7298 73.93Z" fill="black"/>
<path d="M70.5296 73.9301H69.4096C69.0796 73.9301 68.8096 73.6601 68.8096 73.3301C68.8096 73.0001 69.0796 72.7301 69.4096 72.7301H69.9396V72.2001C69.9396 71.8701 70.2096 71.6001 70.5396 71.6001C70.8696 71.6001 71.1396 71.8701 71.1396 72.2001V73.3201C71.1396 73.6501 70.8696 73.9201 70.5396 73.9201L70.5296 73.9301Z" fill="black"/>
<path d="M70.5297 70.5301C70.1997 70.5301 69.9297 70.2601 69.9297 69.9301V67.6501C69.9297 67.3201 70.1997 67.0501 70.5297 67.0501C70.8597 67.0501 71.1297 67.3201 71.1297 67.6501V69.9301C71.1297 70.2601 70.8597 70.5301 70.5297 70.5301ZM70.5297 65.9801C70.1997 65.9801 69.9297 65.7101 69.9297 65.3801V63.1001C69.9297 62.7701 70.1997 62.5001 70.5297 62.5001C70.8597 62.5001 71.1297 62.7701 71.1297 63.1001V65.3801C71.1297 65.7101 70.8597 65.9801 70.5297 65.9801ZM70.5297 61.4301C70.1997 61.4301 69.9297 61.1601 69.9297 60.8301V58.5501C69.9297 58.2201 70.1997 57.9501 70.5297 57.9501C70.8597 57.9501 71.1297 58.2201 71.1297 58.5501V60.8301C71.1297 61.1601 70.8597 61.4301 70.5297 61.4301ZM70.5297 56.8801C70.1997 56.8801 69.9297 56.6101 69.9297 56.2801V54.0001C69.9297 53.6701 70.1997 53.4001 70.5297 53.4001C70.8597 53.4001 71.1297 53.6701 71.1297 54.0001V56.2801C71.1297 56.6101 70.8597 56.8801 70.5297 56.8801ZM70.5297 52.3301C70.1997 52.3301 69.9297 52.0601 69.9297 51.7301V49.4501C69.9297 49.1201 70.1997 48.8501 70.5297 48.8501C70.8597 48.8501 71.1297 49.1201 71.1297 49.4501V51.7301C71.1297 52.0601 70.8597 52.3301 70.5297 52.3301Z" fill="black"/>
<path d="M70.5297 47.77C70.1997 47.77 69.9297 47.5 69.9297 47.17V46.31L69.2997 45.72C69.0597 45.49 69.0397 45.11 69.2697 44.87C69.4897 44.63 69.8797 44.61 70.1197 44.84L70.9397 45.61C71.0597 45.72 71.1297 45.88 71.1297 46.05V47.17C71.1297 47.5 70.8597 47.77 70.5297 47.77Z" fill="black"/>
<path d="M68.4496 44.71C68.2996 44.71 68.1596 44.66 68.0396 44.55L67.2196 43.78C66.9796 43.55 66.9596 43.17 67.1896 42.93C67.4196 42.69 67.7896 42.67 68.0396 42.9L68.8596 43.67C69.0996 43.9 69.1196 44.28 68.8896 44.52C68.7696 44.65 68.6096 44.71 68.4496 44.71Z" fill="black"/>
<path d="M50.3498 38.4399C50.0198 38.4399 49.7498 38.1699 49.7498 37.8399V37.0299L48.3598 36.0599C48.0898 35.8699 48.0198 35.4999 48.2098 35.2299C48.3998 34.9599 48.7698 34.8899 49.0398 35.0799L50.6898 36.2299C50.8498 36.3399 50.9498 36.5199 50.9498 36.7199V37.8399C50.9498 38.1699 50.6798 38.4399 50.3498 38.4399Z" fill="black"/>
<path d="M50.35 42.2299C50.02 42.2299 49.75 41.9599 49.75 41.6299V40.5099C49.75 40.1799 50.02 39.9099 50.35 39.9099C50.68 39.9099 50.95 40.1799 50.95 40.5099V41.6299C50.95 41.9599 50.68 42.2299 50.35 42.2299Z" fill="black"/>
<path d="M52.5999 48.5401H51.4799C51.1499 48.5401 50.8799 48.2701 50.8799 47.9401C50.8799 47.6101 51.1499 47.3401 51.4799 47.3401H52.5999C52.9299 47.3401 53.1999 47.6101 53.1999 47.9401C53.1999 48.2701 52.9299 48.5401 52.5999 48.5401Z" fill="black"/>
<path d="M57.4497 48.5401H55.0297C54.6997 48.5401 54.4297 48.2701 54.4297 47.9401C54.4297 47.6101 54.6997 47.3401 55.0297 47.3401H57.4497C57.7797 47.3401 58.0497 47.6101 58.0497 47.9401C58.0497 48.2701 57.7797 48.5401 57.4497 48.5401Z" fill="black"/>
<path d="M60.9998 48.5401H59.8798C59.5498 48.5401 59.2798 48.2701 59.2798 47.9401C59.2798 47.6101 59.5498 47.3401 59.8798 47.3401H60.9998C61.3298 47.3401 61.5998 47.6101 61.5998 47.9401C61.5998 48.2701 61.3298 48.5401 60.9998 48.5401Z" fill="black"/>
<path d="M52.5999 55.7601H51.4799C51.1499 55.7601 50.8799 55.4901 50.8799 55.1601C50.8799 54.8301 51.1499 54.5601 51.4799 54.5601H52.5999C52.9299 54.5601 53.1999 54.8301 53.1999 55.1601C53.1999 55.4901 52.9299 55.7601 52.5999 55.7601Z" fill="black"/>
<path d="M57.4497 55.7601H55.0297C54.6997 55.7601 54.4297 55.4901 54.4297 55.1601C54.4297 54.8301 54.6997 54.5601 55.0297 54.5601H57.4497C57.7797 54.5601 58.0497 54.8301 58.0497 55.1601C58.0497 55.4901 57.7797 55.7601 57.4497 55.7601Z" fill="black"/>
<path d="M60.9998 55.7601H59.8798C59.5498 55.7601 59.2798 55.4901 59.2798 55.1601C59.2798 54.8301 59.5498 54.5601 59.8798 54.5601H60.9998C61.3298 54.5601 61.5998 54.8301 61.5998 55.1601C61.5998 55.4901 61.3298 55.7601 60.9998 55.7601Z" fill="black"/>
<path d="M52.5999 62.7701H51.4799C51.1499 62.7701 50.8799 62.5001 50.8799 62.1701C50.8799 61.8401 51.1499 61.5701 51.4799 61.5701H52.5999C52.9299 61.5701 53.1999 61.8401 53.1999 62.1701C53.1999 62.5001 52.9299 62.7701 52.5999 62.7701Z" fill="black"/>
<path d="M57.4497 62.7701H55.0297C54.6997 62.7701 54.4297 62.5001 54.4297 62.1701C54.4297 61.8401 54.6997 61.5701 55.0297 61.5701H57.4497C57.7797 61.5701 58.0497 61.8401 58.0497 62.1701C58.0497 62.5001 57.7797 62.7701 57.4497 62.7701Z" fill="black"/>
<path d="M60.9998 62.7701H59.8798C59.5498 62.7701 59.2798 62.5001 59.2798 62.1701C59.2798 61.8401 59.5498 61.5701 59.8798 61.5701H60.9998C61.3298 61.5701 61.5998 61.8401 61.5998 62.1701C61.5998 62.5001 61.3298 62.7701 60.9998 62.7701Z" fill="black"/>
</g>
<defs>
<filter id="filter0_f_40701_25052" x="-282.292" y="-91.609" width="549.207" height="549.207" filterUnits="userSpaceOnUse" color-interpolation-filters="sRGB">
<feFlood flood-opacity="0" result="BackgroundImageFix"/>
<feBlend mode="normal" in="SourceGraphic" in2="BackgroundImageFix" result="shape"/>
<feGaussianBlur stdDeviation="102.214" result="effect1_foregroundBlur_40701_25052"/>
</filter>
<filter id="filter1_f_40701_25052" x="-369.886" y="-268.443" width="757.396" height="757.396" filterUnits="userSpaceOnUse" color-interpolation-filters="sRGB">
<feFlood flood-opacity="0" result="BackgroundImageFix"/>
<feBlend mode="normal" in="SourceGraphic" in2="BackgroundImageFix" result="shape"/>
<feGaussianBlur stdDeviation="91.4625" result="effect1_foregroundBlur_40701_25052"/>
</filter>
<filter id="filter2_f_40701_25052" x="-64.6072" y="-149.902" width="338.44" height="338.266" filterUnits="userSpaceOnUse" color-interpolation-filters="sRGB">
<feFlood flood-opacity="0" result="BackgroundImageFix"/>
<feBlend mode="normal" in="SourceGraphic" in2="BackgroundImageFix" result="shape"/>
<feGaussianBlur stdDeviation="46.7516" result="effect1_foregroundBlur_40701_25052"/>
</filter>
<filter id="filter3_f_40701_25052" x="-105.758" y="-31.7938" width="450.804" height="450.804" filterUnits="userSpaceOnUse" color-interpolation-filters="sRGB">
<feFlood flood-opacity="0" result="BackgroundImageFix"/>
<feBlend mode="normal" in="SourceGraphic" in2="BackgroundImageFix" result="shape"/>
<feGaussianBlur stdDeviation="76.4113" result="effect1_foregroundBlur_40701_25052"/>
</filter>
<filter id="filter4_f_40701_25052" x="-294.025" y="-74.5626" width="614.12" height="614.12" filterUnits="userSpaceOnUse" color-interpolation-filters="sRGB">
<feFlood flood-opacity="0" result="BackgroundImageFix"/>
<feBlend mode="normal" in="SourceGraphic" in2="BackgroundImageFix" result="shape"/>
<feGaussianBlur stdDeviation="102.214" result="effect1_foregroundBlur_40701_25052"/>
</filter>
<filter id="filter5_f_40701_25052" x="-432.073" y="-343.125" width="938.486" height="938.486" filterUnits="userSpaceOnUse" color-interpolation-filters="sRGB">
<feFlood flood-opacity="0" result="BackgroundImageFix"/>
<feBlend mode="normal" in="SourceGraphic" in2="BackgroundImageFix" result="shape"/>
<feGaussianBlur stdDeviation="91.4625" result="effect1_foregroundBlur_40701_25052"/>
</filter>
<filter id="filter6_f_40701_25052" x="-10.969" y="-160.626" width="421.696" height="421.427" filterUnits="userSpaceOnUse" color-interpolation-filters="sRGB">
<feFlood flood-opacity="0" result="BackgroundImageFix"/>
<feBlend mode="normal" in="SourceGraphic" in2="BackgroundImageFix" result="shape"/>
<feGaussianBlur stdDeviation="46.7516" result="effect1_foregroundBlur_40701_25052"/>
</filter>
<filter id="filter7_f_40701_25052" x="-59.7088" y="15.1886" width="517.94" height="517.94" filterUnits="userSpaceOnUse" color-interpolation-filters="sRGB">
<feFlood flood-opacity="0" result="BackgroundImageFix"/>
<feBlend mode="normal" in="SourceGraphic" in2="BackgroundImageFix" result="shape"/>
<feGaussianBlur stdDeviation="76.4113" result="effect1_foregroundBlur_40701_25052"/>
</filter>
<clipPath id="clip0_40701_25052">
<rect width="232.143" height="214.286" fill="white" transform="translate(-116 -39)"/>
</clipPath>
<clipPath id="clip1_40701_25052">
<rect width="60" height="60" fill="white" transform="translate(20 20)"/>
</clipPath>
</defs>
</svg>
