<svg width="100" height="100" viewBox="0 0 100 100" fill="none" xmlns="http://www.w3.org/2000/svg">
<mask id="mask0_40702_25454" style="mask-type:alpha" maskUnits="userSpaceOnUse" x="0" y="0" width="100" height="100">
<circle cx="50" cy="50" r="50" fill="#D9D9D9"/>
</mask>
<g mask="url(#mask0_40702_25454)">
<g filter="url(#filter0_f_40702_25454)">
<ellipse cx="-7.68829" cy="182.995" rx="70.1648" ry="70.1648" transform="rotate(-30 -7.68829 182.995)" fill="#00FFD3"/>
</g>
<g filter="url(#filter1_f_40702_25454)">
<path d="M178.328 12.3851C232.381 106.006 200.304 225.719 106.682 279.771C13.0611 333.824 -106.652 301.747 -160.704 208.126C-214.756 114.504 -182.679 -5.20861 -89.058 -59.2608C4.56315 -113.313 124.276 -81.2361 178.328 12.3851Z" fill="#00F6FF"/>
</g>
<g filter="url(#filter2_f_40702_25454)">
<ellipse cx="104.613" cy="19.2313" rx="75.7477" ry="75.5739" transform="rotate(-30 104.613 19.2313)" fill="#C3A6FF"/>
</g>
<g filter="url(#filter3_f_40702_25454)">
<circle cx="119.644" cy="193.608" r="72.5673" transform="rotate(-30 119.644 193.608)" fill="#00FFD3"/>
</g>
</g>
<g clip-path="url(#clip0_40702_25454)">
<path d="M55.0801 60.6301H44.8401C44.6201 60.6301 44.4201 60.5101 44.3101 60.3201C44.2101 60.1301 34.1901 41.1001 49.1201 26.9801C49.3401 26.7701 49.6901 26.7601 49.9301 26.9601C65.1101 40.3001 55.7101 60.0901 55.6201 60.2901C55.5201 60.5001 55.3101 60.6301 55.0801 60.6301ZM45.2101 59.4301H54.6901C55.8201 56.8401 62.4201 40.0101 49.5501 28.2301C36.8801 40.6801 44.0201 56.9701 45.2101 59.4301Z" fill="black"/>
<path d="M32.9198 64.3101C32.7898 64.3101 32.6498 64.2701 32.5498 64.1801C32.3698 64.0401 32.2898 63.8001 32.3398 63.5701L35.0698 52.1101C35.0998 51.9801 35.1698 51.8701 35.2698 51.7901L40.9098 47.1401C41.1598 46.9301 41.5398 46.9701 41.7498 47.2201C41.9598 47.4701 41.9198 47.8501 41.6698 48.0601L36.1798 52.5801L33.7898 62.6101L43.7498 57.7101C44.0398 57.5701 44.4098 57.6901 44.5498 57.9801C44.6998 58.2801 44.5698 58.6401 44.2798 58.7801L33.1798 64.2401C33.0998 64.2801 33.0098 64.3001 32.9198 64.3001V64.3101Z" fill="black"/>
<path d="M67.0798 64.3101C66.9898 64.3101 66.8998 64.2901 66.8198 64.2501L55.7198 58.7901C55.4198 58.6401 55.2998 58.2801 55.4498 57.9901C55.5998 57.6901 55.9598 57.5701 56.2498 57.7201L66.2098 62.6201L63.8198 52.5901L58.3298 48.0701C58.0698 47.8601 58.0398 47.4801 58.2498 47.2301C58.4598 46.9801 58.8398 46.9401 59.0898 47.1501L64.7298 51.8001C64.8298 51.8801 64.8998 52.0001 64.9298 52.1201L67.6598 63.5801C67.7098 63.8101 67.6298 64.0401 67.4498 64.1901C67.3398 64.2801 67.2098 64.3201 67.0798 64.3201V64.3101Z" fill="black"/>
<path d="M49.7602 81.1899C49.4302 81.1899 49.1602 80.9199 49.1602 80.5899V64.7899C49.1602 64.4599 49.4302 64.1899 49.7602 64.1899C50.0902 64.1899 50.3602 64.4599 50.3602 64.7899V80.5899C50.3602 80.9199 50.0902 81.1899 49.7602 81.1899Z" fill="black"/>
<path d="M44.85 68.5799C44.52 68.5799 44.25 68.3099 44.25 67.9799V67.0099C44.25 66.6799 44.52 66.4099 44.85 66.4099C45.18 66.4099 45.45 66.6799 45.45 67.0099V67.9799C45.45 68.3099 45.18 68.5799 44.85 68.5799Z" fill="black"/>
<path d="M44.85 73.4598C44.52 73.4598 44.25 73.1898 44.25 72.8598V70.4198C44.25 70.0898 44.52 69.8198 44.85 69.8198C45.18 69.8198 45.45 70.0898 45.45 70.4198V72.8598C45.45 73.1898 45.18 73.4598 44.85 73.4598Z" fill="black"/>
<path d="M44.85 76.8699C44.52 76.8699 44.25 76.6 44.25 76.27V75.2999C44.25 74.9699 44.52 74.7 44.85 74.7C45.18 74.7 45.45 74.9699 45.45 75.2999V76.27C45.45 76.6 45.18 76.8699 44.85 76.8699Z" fill="black"/>
<path d="M54.6601 68.5799C54.3301 68.5799 54.0601 68.3099 54.0601 67.9799V67.0099C54.0601 66.6799 54.3301 66.4099 54.6601 66.4099C54.9901 66.4099 55.2601 66.6799 55.2601 67.0099V67.9799C55.2601 68.3099 54.9901 68.5799 54.6601 68.5799Z" fill="black"/>
<path d="M54.6601 73.4598C54.3301 73.4598 54.0601 73.1898 54.0601 72.8598V70.4198C54.0601 70.0898 54.3301 69.8198 54.6601 69.8198C54.9901 69.8198 55.2601 70.0898 55.2601 70.4198V72.8598C55.2601 73.1898 54.9901 73.4598 54.6601 73.4598Z" fill="black"/>
<path d="M54.6601 76.8699C54.3301 76.8699 54.0601 76.6 54.0601 76.27V75.2999C54.0601 74.9699 54.3301 74.7 54.6601 74.7C54.9901 74.7 55.2601 74.9699 55.2601 75.2999V76.27C55.2601 76.6 54.9901 76.8699 54.6601 76.8699Z" fill="black"/>
<path d="M43.17 43.5102C43 43.5102 42.82 43.4302 42.7 43.2902C42.49 43.0302 42.53 42.6502 42.79 42.4502C43.1 42.2002 43.45 41.9702 43.82 41.7702C44.11 41.6102 44.48 41.7202 44.63 42.0102C44.79 42.3002 44.68 42.6702 44.39 42.8202C44.08 42.9902 43.8 43.1702 43.54 43.3802C43.43 43.4702 43.3 43.5102 43.16 43.5102H43.17Z" fill="black"/>
<path d="M46.2202 42.1101C45.9502 42.1101 45.7002 41.9201 45.6402 41.6501C45.5602 41.3301 45.7602 41.0001 46.0902 40.9301C46.8002 40.7601 47.5902 40.6501 48.4202 40.5901C48.7302 40.5701 49.0402 40.8201 49.0602 41.1501C49.0802 41.4801 48.8302 41.7701 48.5002 41.7901C47.7302 41.8401 47.0102 41.9501 46.3602 42.1001C46.3102 42.1101 46.2702 42.1201 46.2202 42.1201V42.1101ZM52.9702 42.0201C52.9702 42.0201 52.8902 42.0201 52.8502 42.0101C52.1902 41.8801 51.4602 41.7901 50.6902 41.7601C50.3602 41.7401 50.1002 41.4601 50.1202 41.1301C50.1402 40.8001 50.3902 40.5801 50.7502 40.5601C51.5802 40.6001 52.3602 40.6901 53.0902 40.8301C53.4202 40.9001 53.6302 41.2101 53.5602 41.5401C53.5002 41.8301 53.2502 42.0201 52.9702 42.0201Z" fill="black"/>
<path d="M56.13 43.2301C56.02 43.2301 55.91 43.2001 55.81 43.1301C55.53 42.9501 55.22 42.7801 54.9 42.6401C54.6 42.5001 54.46 42.1502 54.6 41.8502C54.74 41.5502 55.09 41.4101 55.39 41.5501C55.77 41.7201 56.13 41.9101 56.46 42.1301C56.74 42.3101 56.82 42.6801 56.64 42.9601C56.53 43.1401 56.33 43.2301 56.14 43.2301H56.13Z" fill="black"/>
<path d="M43.7701 48.12C43.6601 48.12 43.5501 48.09 43.4501 48.03C43.0801 47.8 42.7501 47.53 42.4601 47.24C42.2301 47 42.2301 46.62 42.4601 46.39C42.7001 46.16 43.0801 46.16 43.3101 46.39C43.5301 46.61 43.7901 46.82 44.0801 47C44.3601 47.18 44.4501 47.55 44.2701 47.83C44.1601 48.01 43.9601 48.11 43.7601 48.11L43.7701 48.12Z" fill="black"/>
<path d="M50.88 49.3501C50.57 49.3501 50.3 49.1001 50.28 48.7901C50.26 48.4601 50.51 48.1701 50.84 48.1601C51.65 48.1101 52.43 48.0001 53.16 47.8401C53.48 47.7601 53.8 47.9701 53.87 48.3001C53.94 48.6201 53.74 48.9401 53.41 49.0101C52.62 49.1801 51.78 49.3001 50.9 49.3501C50.89 49.3501 50.88 49.3501 50.86 49.3501H50.88ZM48.45 49.3501C48.45 49.3501 48.42 49.3501 48.41 49.3501C47.49 49.2901 46.64 49.1801 45.9 49.0001C45.58 48.9201 45.38 48.6001 45.45 48.2801C45.53 47.9601 45.86 47.7601 46.17 47.8301C46.85 47.9901 47.63 48.0901 48.48 48.1501C48.81 48.1701 49.06 48.4501 49.04 48.7901C49.02 49.1101 48.76 49.3501 48.44 49.3501H48.45Z" fill="black"/>
<path d="M55.6201 48.2601C55.3901 48.2601 55.1801 48.1301 55.0801 47.9101C54.9401 47.6101 55.0801 47.2501 55.3701 47.1101C55.7001 46.9601 56.0001 46.7901 56.2601 46.6101C56.5301 46.4201 56.9101 46.4901 57.0901 46.7701C57.2801 47.0401 57.2101 47.4201 56.9301 47.6001C56.6101 47.8201 56.2601 48.0201 55.8601 48.2001C55.7801 48.2401 55.6901 48.2601 55.6101 48.2601H55.6201Z" fill="black"/>
</g>
<defs>
<filter id="filter0_f_40702_25454" x="-282.292" y="-91.609" width="549.207" height="549.207" filterUnits="userSpaceOnUse" color-interpolation-filters="sRGB">
<feFlood flood-opacity="0" result="BackgroundImageFix"/>
<feBlend mode="normal" in="SourceGraphic" in2="BackgroundImageFix" result="shape"/>
<feGaussianBlur stdDeviation="102.214" result="effect1_foregroundBlur_40702_25454"/>
</filter>
<filter id="filter1_f_40702_25454" x="-369.886" y="-268.443" width="757.396" height="757.396" filterUnits="userSpaceOnUse" color-interpolation-filters="sRGB">
<feFlood flood-opacity="0" result="BackgroundImageFix"/>
<feBlend mode="normal" in="SourceGraphic" in2="BackgroundImageFix" result="shape"/>
<feGaussianBlur stdDeviation="91.4625" result="effect1_foregroundBlur_40702_25454"/>
</filter>
<filter id="filter2_f_40702_25454" x="-64.6072" y="-149.902" width="338.44" height="338.266" filterUnits="userSpaceOnUse" color-interpolation-filters="sRGB">
<feFlood flood-opacity="0" result="BackgroundImageFix"/>
<feBlend mode="normal" in="SourceGraphic" in2="BackgroundImageFix" result="shape"/>
<feGaussianBlur stdDeviation="46.7516" result="effect1_foregroundBlur_40702_25454"/>
</filter>
<filter id="filter3_f_40702_25454" x="-105.758" y="-31.7938" width="450.804" height="450.804" filterUnits="userSpaceOnUse" color-interpolation-filters="sRGB">
<feFlood flood-opacity="0" result="BackgroundImageFix"/>
<feBlend mode="normal" in="SourceGraphic" in2="BackgroundImageFix" result="shape"/>
<feGaussianBlur stdDeviation="76.4113" result="effect1_foregroundBlur_40702_25454"/>
</filter>
<clipPath id="clip0_40702_25454">
<rect width="60" height="60" fill="white" transform="translate(20 24)"/>
</clipPath>
</defs>
</svg>
