<svg width="100" height="100" viewBox="0 0 100 100" fill="none" xmlns="http://www.w3.org/2000/svg">
<mask id="mask0_40701_25022" style="mask-type:alpha" maskUnits="userSpaceOnUse" x="0" y="0" width="100" height="100">
<circle cx="50" cy="50" r="50" fill="#D9D9D9"/>
</mask>
<g mask="url(#mask0_40701_25022)">
<g filter="url(#filter0_f_40701_25022)">
<ellipse cx="-7.68829" cy="182.995" rx="70.1648" ry="70.1648" transform="rotate(-30 -7.68829 182.995)" fill="#00FFD3"/>
</g>
<g filter="url(#filter1_f_40701_25022)">
<path d="M178.328 12.3851C232.381 106.006 200.304 225.719 106.682 279.771C13.0611 333.824 -106.652 301.747 -160.704 208.126C-214.756 114.504 -182.679 -5.20861 -89.058 -59.2608C4.56315 -113.313 124.276 -81.2361 178.328 12.3851Z" fill="#00F6FF"/>
</g>
<g filter="url(#filter2_f_40701_25022)">
<ellipse cx="104.613" cy="19.2313" rx="75.7477" ry="75.5739" transform="rotate(-30 104.613 19.2313)" fill="#C3A6FF"/>
</g>
<g filter="url(#filter3_f_40701_25022)">
<circle cx="119.644" cy="193.608" r="72.5673" transform="rotate(-30 119.644 193.608)" fill="#00FFD3"/>
</g>
<g clip-path="url(#clip0_40701_25022)">
<rect width="232.143" height="214.286" transform="translate(-90.0078 -7.13281)" fill="black"/>
<g filter="url(#filter4_f_40701_25022)">
<ellipse cx="39.0276" cy="264.365" rx="102.616" ry="102.616" transform="rotate(-30 39.0276 264.365)" fill="#00FFD3"/>
</g>
<g filter="url(#filter5_f_40701_25022)">
<ellipse cx="63.1581" cy="157.985" rx="286.27" ry="286.27" transform="rotate(-30 63.1581 157.985)" fill="#FF7701"/>
</g>
<g filter="url(#filter6_f_40701_25022)">
<ellipse cx="104.027" cy="157.547" rx="110.781" ry="110.527" transform="rotate(-30 104.027 157.547)" fill="#FF4B9B"/>
</g>
<g filter="url(#filter7_f_40701_25022)">
<ellipse cx="281.617" cy="18.6098" rx="110.781" ry="110.527" transform="rotate(-30 281.617 18.6098)" fill="#FF4B9B"/>
</g>
<g filter="url(#filter8_f_40701_25022)">
<ellipse cx="225.245" cy="279.916" rx="106.13" ry="106.13" transform="rotate(-30 225.245 279.916)" fill="#E26CFF"/>
</g>
</g>
</g>
<path d="M54.6699 67.8501C48.5899 67.8501 43.6499 62.8501 43.6499 56.7101C43.6499 50.5701 48.5899 45.5701 54.6699 45.5701C60.7499 45.5701 65.6899 50.5701 65.6899 56.7101C65.6899 62.8501 60.7499 67.8501 54.6699 67.8501ZM54.6699 46.7701C49.2499 46.7701 44.8499 51.2301 44.8499 56.7101C44.8499 62.1901 49.2599 66.6501 54.6699 66.6501C60.0799 66.6501 64.4899 62.1901 64.4899 56.7101C64.4899 51.2301 60.0799 46.7701 54.6699 46.7701Z" fill="black"/>
<path d="M46.8901 61.0801C46.8301 61.0801 46.7701 61.0801 46.7201 61.0501C46.4001 60.9601 46.2201 60.6201 46.3201 60.3001C46.4301 59.9201 46.5801 59.5201 46.7501 59.1101C46.8801 58.8001 47.2301 58.6601 47.5401 58.7901C47.8501 58.9201 47.9901 59.2701 47.8601 59.5801C47.7001 59.9501 47.5701 60.3101 47.4701 60.6501C47.3901 60.9101 47.1501 61.0801 46.9001 61.0801H46.8901Z" fill="black"/>
<path d="M48.2499 58.0701C48.1499 58.0701 48.0399 58.0401 47.9499 57.9901C47.6599 57.8201 47.5699 57.4601 47.7299 57.1701C48.0899 56.5601 48.4899 55.9501 48.9199 55.3601C49.1199 55.0901 49.4899 55.0401 49.7599 55.2301C50.0299 55.4301 50.0799 55.8001 49.8899 56.0701C49.4799 56.6201 49.0999 57.1901 48.7699 57.7701C48.6599 57.9601 48.4599 58.0701 48.2499 58.0701ZM50.7499 54.6901C50.5999 54.6901 50.4599 54.6401 50.3399 54.5301C50.0999 54.3101 50.0799 53.9301 50.3099 53.6801C50.5399 53.4301 50.7699 53.1901 51.0099 52.9601C51.2899 52.6901 51.5799 52.4301 51.8699 52.1701C52.1199 51.9501 52.4999 51.9801 52.7199 52.2301C52.9399 52.4801 52.9099 52.8601 52.6599 53.0801C52.3899 53.3201 52.1199 53.5601 51.8499 53.8101C51.6199 54.0301 51.3999 54.2601 51.1899 54.4901C51.0699 54.6201 50.9099 54.6801 50.7499 54.6801V54.6901ZM53.9399 51.9501C53.7499 51.9501 53.5599 51.8601 53.4399 51.6901C53.2499 51.4201 53.3199 51.0401 53.5999 50.8601C54.1999 50.4501 54.8199 50.0701 55.4499 49.7401C55.7399 49.5801 56.1099 49.7001 56.2599 49.9901C56.4199 50.2801 56.3099 50.6501 56.0099 50.8001C55.4199 51.1201 54.8299 51.4701 54.2699 51.8601C54.1699 51.9301 54.0499 51.9601 53.9299 51.9601L53.9399 51.9501Z" fill="black"/>
<path d="M57.6503 49.9901C57.4103 49.9901 57.1802 49.8401 57.0902 49.6001C56.9702 49.2901 57.1302 48.9401 57.4402 48.8301C57.8602 48.6701 58.2602 48.5401 58.6402 48.4401C58.9602 48.3501 59.2902 48.5501 59.3702 48.8701C59.4502 49.1901 59.2702 49.5201 58.9402 49.6001C58.6002 49.6901 58.2403 49.8101 57.8603 49.9501C57.7903 49.9801 57.7203 49.9901 57.6503 49.9901Z" fill="black"/>
<path d="M50.4799 64.7802C50.2099 64.7802 49.9599 64.5902 49.8999 64.3202C49.8199 64.0002 50.0199 63.6702 50.3499 63.6002C50.6899 63.5202 51.0499 63.4102 51.4199 63.2702C51.7299 63.1502 52.0799 63.3102 52.1899 63.6202C52.3099 63.9302 52.1499 64.2802 51.8399 64.3902C51.4199 64.5502 51.0099 64.6802 50.6199 64.7702C50.5699 64.7802 50.5299 64.7902 50.4799 64.7902V64.7802Z" fill="black"/>
<path d="M53.5002 63.53C53.2902 63.53 53.0902 63.4201 52.9802 63.2301C52.8202 62.9401 52.9202 62.5801 53.2002 62.4101C53.7602 62.0901 54.3202 61.7201 54.8902 61.3101C55.1602 61.1101 55.5302 61.17 55.7302 61.44C55.9302 61.71 55.8702 62.08 55.6002 62.28C55.0002 62.72 54.4002 63.1101 53.8002 63.4501C53.7102 63.5001 53.6002 63.53 53.5002 63.53ZM56.8602 61.0901C56.6902 61.0901 56.5302 61.0201 56.4102 60.8901C56.1902 60.6401 56.2102 60.2601 56.4602 60.0401C56.7102 59.8101 56.9702 59.5801 57.2202 59.3301C57.4602 59.1001 57.6902 58.86 57.9102 58.62C58.1402 58.38 58.5202 58.3701 58.7602 58.5901C59.0002 58.8201 59.0102 59.2 58.7902 59.44C58.5502 59.69 58.3102 59.94 58.0602 60.19C57.8002 60.45 57.5302 60.6901 57.2602 60.9301C57.1502 61.0301 57.0002 61.0801 56.8602 61.0801V61.0901ZM59.7002 58.0601C59.5702 58.0601 59.4402 58.02 59.3302 57.94C59.0702 57.74 59.0202 57.36 59.2202 57.1C59.6502 56.55 60.0302 55.9901 60.3702 55.4501C60.5402 55.1701 60.9102 55.0801 61.1902 55.2501C61.4702 55.4201 61.5602 55.7901 61.3902 56.0701C61.0302 56.6601 60.6202 57.2501 60.1702 57.8301C60.0502 57.9801 59.8702 58.0601 59.7002 58.0601Z" fill="black"/>
<path d="M61.8401 54.4901C61.7601 54.4901 61.6901 54.4701 61.6101 54.4401C61.3001 54.3101 61.1601 53.9601 61.2901 53.6601C61.4401 53.3001 61.5601 52.9401 61.6601 52.6001C61.7501 52.2801 62.0801 52.0901 62.4001 52.1801C62.7201 52.2701 62.9101 52.6001 62.8201 52.9201C62.7201 53.3101 62.5701 53.7101 62.4001 54.1301C62.3001 54.3601 62.0801 54.5001 61.8501 54.5001L61.8401 54.4901Z" fill="black"/>
<path d="M73.35 73.7201C73.22 73.7201 73.09 73.6801 72.98 73.5901L61.72 64.7301C61.46 64.5201 61.41 64.1501 61.62 63.8901C61.82 63.6301 62.2 63.5901 62.46 63.7901L73.72 72.6501C73.98 72.8601 74.03 73.2301 73.82 73.4901C73.7 73.6401 73.53 73.7201 73.35 73.7201Z" fill="black"/>
<path d="M47.01 64.85H29.04C27.39 64.85 26.04 63.51 26.04 61.85V29.28C26.04 27.63 27.38 26.28 29.04 26.28H54.67C56.32 26.28 57.67 27.62 57.67 29.28V46.05C57.67 46.38 57.4 46.65 57.07 46.65C56.74 46.65 56.47 46.38 56.47 46.05V29.28C56.47 28.29 55.66 27.48 54.67 27.48H29.04C28.05 27.48 27.24 28.29 27.24 29.28V61.86C27.24 62.85 28.05 63.66 29.04 63.66H47.01C47.34 63.66 47.61 63.93 47.61 64.26C47.61 64.59 47.34 64.86 47.01 64.86V64.85Z" fill="black"/>
<path d="M33.4099 38.74C33.2499 38.74 33.0999 38.68 32.9799 38.56L31.2399 36.8C31.0099 36.56 31.0099 36.18 31.2399 35.95C31.4799 35.72 31.8599 35.72 32.0899 35.95L33.3999 37.28L36.7499 33.88C36.9799 33.64 37.3599 33.64 37.5999 33.88C37.8399 34.11 37.8399 34.49 37.5999 34.73L33.8299 38.56C33.7199 38.67 33.5599 38.74 33.3999 38.74H33.4099Z" fill="black"/>
<path d="M33.4099 48.08C33.2499 48.08 33.0999 48.02 32.9799 47.9L31.2399 46.14C31.0099 45.9 31.0099 45.52 31.2399 45.29C31.4699 45.06 31.8599 45.06 32.0899 45.29L33.3999 46.62L36.7499 43.22C36.9799 42.98 37.3599 42.98 37.5999 43.22C37.8399 43.45 37.8399 43.83 37.5999 44.07L33.8299 47.9C33.7199 48.01 33.5599 48.08 33.3999 48.08H33.4099Z" fill="black"/>
<path d="M33.4102 57.19C33.2602 57.19 33.1102 57.14 33.0002 57.02L31.2602 55.37C31.0202 55.14 31.0102 54.76 31.2402 54.52C31.4702 54.28 31.8502 54.27 32.0902 54.5L33.4102 55.76L36.7702 52.56C37.0102 52.33 37.3902 52.34 37.6202 52.58C37.8502 52.82 37.8402 53.2 37.6002 53.43L33.8302 57.02C33.7102 57.13 33.5702 57.19 33.4202 57.19H33.4102Z" fill="black"/>
<path d="M49.8802 37.0701H40.3002C39.9702 37.0701 39.7002 36.8001 39.7002 36.4701C39.7002 36.1401 39.9702 35.8701 40.3002 35.8701H49.8802C50.2102 35.8701 50.4802 36.1401 50.4802 36.4701C50.4802 36.8001 50.2102 37.0701 49.8802 37.0701Z" fill="black"/>
<path d="M47.4799 46.65H40.2899C39.9599 46.65 39.6899 46.3799 39.6899 46.0499C39.6899 45.7199 39.9599 45.45 40.2899 45.45H47.4799C47.8099 45.45 48.0799 45.7199 48.0799 46.0499C48.0799 46.3799 47.8099 46.65 47.4799 46.65Z" fill="black"/>
<defs>
<filter id="filter0_f_40701_25022" x="-282.292" y="-91.609" width="549.207" height="549.207" filterUnits="userSpaceOnUse" color-interpolation-filters="sRGB">
<feFlood flood-opacity="0" result="BackgroundImageFix"/>
<feBlend mode="normal" in="SourceGraphic" in2="BackgroundImageFix" result="shape"/>
<feGaussianBlur stdDeviation="102.214" result="effect1_foregroundBlur_40701_25022"/>
</filter>
<filter id="filter1_f_40701_25022" x="-369.886" y="-268.443" width="757.396" height="757.396" filterUnits="userSpaceOnUse" color-interpolation-filters="sRGB">
<feFlood flood-opacity="0" result="BackgroundImageFix"/>
<feBlend mode="normal" in="SourceGraphic" in2="BackgroundImageFix" result="shape"/>
<feGaussianBlur stdDeviation="91.4625" result="effect1_foregroundBlur_40701_25022"/>
</filter>
<filter id="filter2_f_40701_25022" x="-64.6072" y="-149.902" width="338.44" height="338.266" filterUnits="userSpaceOnUse" color-interpolation-filters="sRGB">
<feFlood flood-opacity="0" result="BackgroundImageFix"/>
<feBlend mode="normal" in="SourceGraphic" in2="BackgroundImageFix" result="shape"/>
<feGaussianBlur stdDeviation="46.7516" result="effect1_foregroundBlur_40701_25022"/>
</filter>
<filter id="filter3_f_40701_25022" x="-105.758" y="-31.7938" width="450.804" height="450.804" filterUnits="userSpaceOnUse" color-interpolation-filters="sRGB">
<feFlood flood-opacity="0" result="BackgroundImageFix"/>
<feBlend mode="normal" in="SourceGraphic" in2="BackgroundImageFix" result="shape"/>
<feGaussianBlur stdDeviation="76.4113" result="effect1_foregroundBlur_40701_25022"/>
</filter>
<filter id="filter4_f_40701_25022" x="-268.033" y="-42.6954" width="614.12" height="614.12" filterUnits="userSpaceOnUse" color-interpolation-filters="sRGB">
<feFlood flood-opacity="0" result="BackgroundImageFix"/>
<feBlend mode="normal" in="SourceGraphic" in2="BackgroundImageFix" result="shape"/>
<feGaussianBlur stdDeviation="102.214" result="effect1_foregroundBlur_40701_25022"/>
</filter>
<filter id="filter5_f_40701_25022" x="-406.085" y="-311.258" width="938.486" height="938.486" filterUnits="userSpaceOnUse" color-interpolation-filters="sRGB">
<feFlood flood-opacity="0" result="BackgroundImageFix"/>
<feBlend mode="normal" in="SourceGraphic" in2="BackgroundImageFix" result="shape"/>
<feGaussianBlur stdDeviation="91.4625" result="effect1_foregroundBlur_40701_25022"/>
</filter>
<filter id="filter6_f_40701_25022" x="-100.213" y="-46.5647" width="408.479" height="408.224" filterUnits="userSpaceOnUse" color-interpolation-filters="sRGB">
<feFlood flood-opacity="0" result="BackgroundImageFix"/>
<feBlend mode="normal" in="SourceGraphic" in2="BackgroundImageFix" result="shape"/>
<feGaussianBlur stdDeviation="46.7516" result="effect1_foregroundBlur_40701_25022"/>
</filter>
<filter id="filter7_f_40701_25022" x="77.3772" y="-185.502" width="408.479" height="408.224" filterUnits="userSpaceOnUse" color-interpolation-filters="sRGB">
<feFlood flood-opacity="0" result="BackgroundImageFix"/>
<feBlend mode="normal" in="SourceGraphic" in2="BackgroundImageFix" result="shape"/>
<feGaussianBlur stdDeviation="46.7516" result="effect1_foregroundBlur_40701_25022"/>
</filter>
<filter id="filter8_f_40701_25022" x="-33.7245" y="20.9464" width="517.94" height="517.94" filterUnits="userSpaceOnUse" color-interpolation-filters="sRGB">
<feFlood flood-opacity="0" result="BackgroundImageFix"/>
<feBlend mode="normal" in="SourceGraphic" in2="BackgroundImageFix" result="shape"/>
<feGaussianBlur stdDeviation="76.4113" result="effect1_foregroundBlur_40701_25022"/>
</filter>
<clipPath id="clip0_40701_25022">
<rect width="232.143" height="214.286" fill="white" transform="translate(-90.0078 -7.13281)"/>
</clipPath>
</defs>
</svg>
