<svg width="70" height="55" viewBox="0 0 70 55" fill="none" xmlns="http://www.w3.org/2000/svg">
<path d="M27.0902 53.5567C35.7829 53.5567 42.8298 46.4986 42.8298 37.792C42.8298 29.0854 35.7829 22.0273 27.0902 22.0273C18.3975 22.0273 11.3506 29.0854 11.3506 37.792C11.3506 46.4986 18.3975 53.5567 27.0902 53.5567Z" stroke="black" stroke-width="1.22554" stroke-linecap="round" stroke-linejoin="round"/>
<path d="M46.6416 39.7666C55.9957 38.3416 63.1542 30.2516 63.1542 20.5011C63.1542 9.72949 54.4386 1 43.6953 1C33.9939 1 25.9392 8.11375 24.4717 17.4155" stroke="black" stroke-width="1.22554" stroke-linecap="round" stroke-linejoin="round"/>
<path d="M56.9561 34.7617L68.9988 46.8237" stroke="black" stroke-width="1.22554" stroke-linecap="round" stroke-linejoin="round"/>
<path d="M8.46143 17.9531L27.0913 37.7908" stroke="black" stroke-width="1.22554" stroke-linecap="round" stroke-linejoin="round"/>
<path d="M43.3268 27.6159C54.0667 28.1851 62.9552 25.2117 63.1797 20.9746C63.4043 16.7376 54.8799 12.8414 44.14 12.2722C33.4001 11.7031 24.7544 13.065 24.5298 17.302" stroke="black" stroke-width="1.22554" stroke-linecap="round" stroke-dasharray="2.45 2.45"/>
<path d="M43.0131 38.242C42.8798 42.1816 35.6938 45.1359 26.9627 44.8405C18.2316 44.5451 11.2616 41.112 11.3949 37.1724C11.5282 33.2328 18.7142 30.2785 27.4453 30.5739C36.1764 30.8693 43.1464 34.3024 43.0131 38.242Z" stroke="black" stroke-width="1.22554" stroke-linecap="round" stroke-dasharray="2.45 2.45"/>
<path d="M13.0103 23.0579L6.0247 22.5677L1 17.543L8.59833 17.9106" stroke="black" stroke-width="0.980429" stroke-linejoin="round"/>
<path d="M13.1129 23.0876L13.5165 16.0965L9.17285 10.4727L8.5696 18.0559" stroke="black" stroke-width="0.980429" stroke-linejoin="round"/>
</svg>
