<svg width="42" height="54" viewBox="0 0 42 54" fill="none" xmlns="http://www.w3.org/2000/svg">
<path d="M5.51561 33.2523L20.8219 52.4376L36.3135 33.0541C37.4512 31.6271 38.4434 30.1076 39.1445 28.4295C40.2426 25.8265 40.785 22.9197 40.6395 19.8807C40.1764 9.81235 31.9213 1.52778 21.8406 1.02569C15.2656 0.695362 9.35211 3.5758 5.51561 8.22679C5.51561 8.22679 -4.64451 19.6957 5.51561 33.2523Z" stroke="black" stroke-width="1.23" stroke-linecap="round" stroke-linejoin="round"/>
<path d="M20.8325 33.5393C27.3356 33.5393 32.6073 28.1981 32.6073 21.6095C32.6073 15.0208 27.3356 9.67969 20.8325 9.67969C14.3294 9.67969 9.05762 15.0208 9.05762 21.6095C9.05762 28.1981 14.3294 33.5393 20.8325 33.5393Z" stroke="black" stroke-width="1.23" stroke-linecap="round" stroke-linejoin="round"/>
<path d="M21 26C27.0751 26 32 23.9853 32 21.5C32 19.0147 27.0751 17 21 17C14.9249 17 10 19.0147 10 21.5C10 23.9853 14.9249 26 21 26Z" stroke="black" stroke-width="1.23" stroke-linecap="round" stroke-linejoin="round" stroke-dasharray="3.1 3.1"/>
</svg>
