<svg width="61" height="66" viewBox="0 0 61 66" fill="none" xmlns="http://www.w3.org/2000/svg">
<path d="M49.7858 10.3459C49.5457 10.5861 49.5457 10.9755 49.7858 11.2157C50.026 11.4558 50.4154 11.4558 50.6556 11.2157L49.7858 10.3459ZM60.6165 1C60.6165 0.660345 60.3411 0.385 60.0015 0.385H54.4665C54.1268 0.385 53.8515 0.660345 53.8515 1C53.8515 1.33966 54.1268 1.615 54.4665 1.615H59.3865V6.535C59.3865 6.87466 59.6618 7.15 60.0015 7.15C60.3411 7.15 60.6165 6.87466 60.6165 6.535V1ZM50.6556 11.2157L60.4364 1.43487L59.5666 0.565129L49.7858 10.3459L50.6556 11.2157Z" fill="black"/>
<path d="M11.2156 10.3459C11.4558 10.5861 11.4558 10.9755 11.2156 11.2157C10.9755 11.4558 10.5861 11.4558 10.3459 11.2157L11.2156 10.3459ZM0.384978 1C0.384978 0.660345 0.660323 0.385 0.999978 0.385H6.53498C6.87463 0.385 7.14998 0.660345 7.14998 1C7.14998 1.33966 6.87463 1.615 6.53498 1.615H1.61498V6.535C1.61498 6.87466 1.33963 7.15 0.999978 7.15C0.660323 7.15 0.384978 6.87466 0.384978 6.535V1ZM10.3459 11.2157L0.565107 1.43487L1.43485 0.565129L11.2156 10.3459L10.3459 11.2157Z" fill="black"/>
<path d="M49.7858 55.0721C49.5457 54.8319 49.5457 54.4425 49.7858 54.2023C50.026 53.9621 50.4154 53.9621 50.6556 54.2023L49.7858 55.0721ZM60.6165 64.418C60.6165 64.7576 60.3411 65.033 60.0015 65.033H54.4665C54.1268 65.033 53.8515 64.7576 53.8515 64.418C53.8515 64.0783 54.1268 63.803 54.4665 63.803H59.3865V58.883C59.3865 58.5433 59.6618 58.268 60.0015 58.268C60.3411 58.268 60.6165 58.5433 60.6165 58.883V64.418ZM50.6556 54.2023L60.4364 63.9831L59.5666 64.8528L49.7858 55.0721L50.6556 54.2023Z" fill="black"/>
<path d="M11.2156 55.0721C11.4558 54.8319 11.4558 54.4425 11.2156 54.2023C10.9755 53.9621 10.5861 53.9621 10.3459 54.2023L11.2156 55.0721ZM0.384978 64.418C0.384978 64.7576 0.660323 65.033 0.999978 65.033H6.53498C6.87463 65.033 7.14998 64.7576 7.14998 64.418C7.14998 64.0783 6.87463 63.803 6.53498 63.803H1.61498V58.883C1.61498 58.5433 1.33963 58.268 0.999978 58.268C0.660323 58.268 0.384978 58.5433 0.384978 58.883V64.418ZM10.3459 54.2023L0.565107 63.9831L1.43485 64.8528L11.2156 55.0721L10.3459 54.2023Z" fill="black"/>
<circle cx="30.5015" cy="32.3936" r="20.9974" stroke="black" stroke-width="1.23"/>
<path d="M51.0795 32.2931C51.0628 37.074 41.829 40.9174 30.4552 40.8776C19.0815 40.8377 9.87479 36.9297 9.89154 32.1488C9.9083 27.3679 19.1421 23.5245 30.5159 23.5643C41.8896 23.6042 51.0963 27.5122 51.0795 32.2931Z" stroke="black" stroke-width="1.23" stroke-linecap="round" stroke-dasharray="3.16 3.16"/>
</svg>
