<svg width="100" height="100" viewBox="0 0 100 100" fill="none" xmlns="http://www.w3.org/2000/svg">
<mask id="mask0_40702_25394" style="mask-type:alpha" maskUnits="userSpaceOnUse" x="0" y="0" width="100" height="100">
<circle cx="50" cy="50" r="50" fill="#D9D9D9"/>
</mask>
<g mask="url(#mask0_40702_25394)">
<g filter="url(#filter0_f_40702_25394)">
<ellipse cx="-7.68829" cy="182.995" rx="70.1648" ry="70.1648" transform="rotate(-30 -7.68829 182.995)" fill="#00FFD3"/>
</g>
<g filter="url(#filter1_f_40702_25394)">
<path d="M178.328 12.3851C232.381 106.006 200.304 225.719 106.682 279.771C13.0611 333.824 -106.652 301.747 -160.704 208.126C-214.756 114.504 -182.679 -5.20861 -89.058 -59.2608C4.56315 -113.313 124.276 -81.2361 178.328 12.3851Z" fill="#00F6FF"/>
</g>
<g filter="url(#filter2_f_40702_25394)">
<ellipse cx="104.613" cy="19.2313" rx="75.7477" ry="75.5739" transform="rotate(-30 104.613 19.2313)" fill="#C3A6FF"/>
</g>
<g filter="url(#filter3_f_40702_25394)">
<circle cx="119.644" cy="193.608" r="72.5673" transform="rotate(-30 119.644 193.608)" fill="#00FFD3"/>
</g>
</g>
<g clip-path="url(#clip0_40702_25394)">
<path d="M63.3 44.0701H53.73C53.35 44.0701 53.02 43.8301 52.9 43.4801C52.78 43.1201 52.9 42.7301 53.2 42.5101L68.31 31.2201C68.71 30.9201 69.28 31.0001 69.59 31.4001L72.43 35.2001C72.72 35.5701 72.66 36.1201 72.31 36.4301L63.87 43.8701C63.72 44.0101 63.51 44.0901 63.29 44.0901L63.3 44.0701ZM63.09 42.9501C63.09 42.9501 63.09 42.9501 63.08 42.9501H63.09ZM54.72 42.8601H63.18L71.33 35.6801L68.82 32.3201L54.73 42.8501L54.72 42.8601Z" fill="black"/>
<path d="M56.1399 68.9801H53.7499C53.4199 68.9801 53.1499 68.7101 53.1499 68.3801C53.1499 68.0501 53.4199 67.7801 53.7499 67.7801H56.1399C56.4699 67.7801 56.7399 68.0501 56.7399 68.3801C56.7399 68.7101 56.4699 68.9801 56.1399 68.9801ZM51.3699 68.9801H48.9799C48.6499 68.9801 48.3799 68.7101 48.3799 68.3801C48.3799 68.0501 48.6499 67.7801 48.9799 67.7801H51.3699C51.6999 67.7801 51.9699 68.0501 51.9699 68.3801C51.9699 68.7101 51.6999 68.9801 51.3699 68.9801ZM46.5999 68.9801H44.2099C43.8799 68.9801 43.6099 68.7101 43.6099 68.3801C43.6099 68.0501 43.8799 67.7801 44.2099 67.7801H46.5999C46.9299 67.7801 47.1999 68.0501 47.1999 68.3801C47.1999 68.7101 46.9299 68.9801 46.5999 68.9801ZM41.8299 68.9801H39.4399C39.1099 68.9801 38.8399 68.7101 38.8399 68.3801C38.8399 68.0501 39.1099 67.7801 39.4399 67.7801H41.8299C42.1599 67.7801 42.4299 68.0501 42.4299 68.3801C42.4299 68.7101 42.1599 68.9801 41.8299 68.9801ZM37.0699 68.8701C37.0199 68.8701 36.9699 68.8701 36.9099 68.8501C36.3699 68.7001 35.8599 68.4301 35.4399 68.0701C35.1899 67.8501 34.9399 67.6201 34.6899 67.3901C34.4499 67.1601 34.4399 66.7801 34.6699 66.5401C34.8999 66.3001 35.2799 66.2901 35.5199 66.5201C35.7499 66.7401 35.9799 66.9501 36.2199 67.1601C36.4999 67.4101 36.8399 67.5801 37.2199 67.6901C37.5399 67.7801 37.7299 68.1101 37.6399 68.4301C37.5699 68.7001 37.3299 68.8701 37.0599 68.8701H37.0699ZM58.5199 68.7701C58.2799 68.7701 58.0499 68.6201 57.9599 68.3901C57.8399 68.0801 57.9899 67.7301 58.2999 67.6101C58.5699 67.5001 58.8199 67.3601 59.0399 67.1701C59.3599 66.8901 59.6699 66.6001 59.9799 66.3001C60.2099 66.0701 60.5899 66.0701 60.8299 66.3001C61.0599 66.5401 61.0599 66.9201 60.8299 67.1501C60.5099 67.4701 60.1799 67.7801 59.8399 68.0701C59.5199 68.3501 59.1499 68.5701 58.7499 68.7301C58.6799 68.7601 58.6099 68.7701 58.5299 68.7701H58.5199ZM33.4899 65.8101C33.3199 65.8101 33.1499 65.7401 33.0299 65.5901C32.5099 64.9701 32.0199 64.3001 31.5699 63.6201C31.3899 63.3401 31.4599 62.9701 31.7399 62.7901C32.0199 62.6101 32.3899 62.6801 32.5699 62.9601C32.9999 63.6001 33.4599 64.2301 33.9499 64.8201C34.1599 65.0701 34.1299 65.4501 33.8699 65.6601C33.7599 65.7501 33.6199 65.8001 33.4899 65.8001V65.8101ZM61.9899 65.5501C61.8599 65.5501 61.7199 65.5101 61.6099 65.4201C61.3499 65.2101 61.3099 64.8301 61.5199 64.5801C61.9999 63.9901 62.4499 63.3601 62.8799 62.7001C63.0599 62.4201 63.4299 62.3401 63.7099 62.5201C63.9899 62.7001 64.0699 63.0701 63.8899 63.3501C63.4399 64.0401 62.9599 64.7101 62.4599 65.3401C62.3399 65.4901 62.1699 65.5601 61.9899 65.5601V65.5501ZM30.8399 61.8401C30.6199 61.8401 30.4199 61.7201 30.3099 61.5201C29.9399 60.8101 29.5899 60.0601 29.2799 59.3001C29.1599 58.9901 29.2999 58.6401 29.6099 58.5201C29.9199 58.4001 30.2699 58.5401 30.3899 58.8501C30.6799 59.5701 31.0099 60.2801 31.3699 60.9601C31.5199 61.2501 31.4099 61.6201 31.1199 61.7701C31.0299 61.8201 30.9399 61.8401 30.8399 61.8401ZM64.5699 61.5401C64.4799 61.5401 64.3899 61.5201 64.2999 61.4701C64.0099 61.3201 63.8899 60.9601 64.0399 60.6601C64.3899 59.9801 64.7099 59.2601 64.9899 58.5401C65.1099 58.2301 65.4499 58.0801 65.7699 58.2001C66.0799 58.3201 66.2299 58.6701 66.1099 58.9801C65.8099 59.7401 65.4799 60.5001 65.1099 61.2101C64.9999 61.4201 64.7899 61.5401 64.5699 61.5401ZM29.0499 57.4201C28.7899 57.4201 28.5499 57.2501 28.4699 56.9901C28.2399 56.2201 28.0499 55.4201 27.8899 54.6201C27.8299 54.2901 28.0399 53.9801 28.3599 53.9101C28.6799 53.8401 28.9999 54.0601 29.0699 54.3801C29.2199 55.1501 29.4099 55.9101 29.6299 56.6401C29.7199 56.9601 29.5399 57.2901 29.2299 57.3901C29.1699 57.4101 29.1199 57.4201 29.0599 57.4201H29.0499ZM66.2999 57.1001C66.2499 57.1001 66.1899 57.1001 66.1399 57.0801C65.8199 56.9901 65.6399 56.6601 65.7299 56.3401C65.9399 55.6001 66.1199 54.8401 66.2599 54.0701C66.3199 53.7401 66.6399 53.5301 66.9599 53.5901C67.2899 53.6501 67.4999 53.9601 67.4399 54.2901C67.2899 55.0901 67.1099 55.8901 66.8899 56.6701C66.8199 56.9301 66.5699 57.1101 66.3099 57.1101L66.2999 57.1001ZM28.1199 52.7401C27.8199 52.7401 27.5599 52.5101 27.5199 52.2001C27.4399 51.4001 27.3899 50.5801 27.3799 49.7601C27.3799 49.4301 27.6399 49.1601 27.9699 49.1501C28.2799 49.1801 28.5699 49.4101 28.5799 49.7401C28.5899 50.5201 28.6399 51.3001 28.7099 52.0701C28.7399 52.4001 28.4999 52.6901 28.1699 52.7301C28.1499 52.7301 28.1299 52.7301 28.1099 52.7301L28.1199 52.7401ZM67.1599 52.4101C67.1599 52.4101 67.1199 52.4101 67.1099 52.4101C66.7799 52.3801 66.5399 52.0901 66.5699 51.7601C66.6399 50.9901 66.6699 50.2101 66.6699 49.4301C66.6699 49.1001 66.9399 48.8101 67.2699 48.8101C67.5999 48.8101 67.8699 49.0601 67.8699 49.3901V49.4301C67.8699 50.2401 67.8299 51.0601 67.7599 51.8701C67.7299 52.1801 67.4699 52.4201 67.1599 52.4201V52.4101ZM28.0599 47.9801C28.0599 47.9801 28.0299 47.9801 28.0099 47.9801C27.6799 47.9501 27.4299 47.6701 27.4599 47.3401C27.4799 47.0701 27.5099 46.7901 27.5399 46.5201C27.5999 46.0101 28.0299 45.6201 28.5399 45.6201H29.5299C29.8599 45.6201 30.1299 45.8901 30.1299 46.2201C30.1299 46.5501 29.8599 46.8201 29.5299 46.8201H28.7099C28.6899 47.0201 28.6699 47.2201 28.6599 47.4201C28.6399 47.7301 28.3699 47.9701 28.0599 47.9701V47.9801ZM67.1499 47.6101C66.8399 47.6101 66.5799 47.3801 66.5499 47.0701L66.5299 46.8301H65.3399C65.0099 46.8301 64.7399 46.5601 64.7399 46.2301C64.7399 45.9001 65.0099 45.6301 65.3399 45.6301H66.7099C67.2199 45.6301 67.6499 46.0101 67.7099 46.5201L67.7499 46.9601C67.7799 47.2901 67.5399 47.5801 67.2099 47.6201C67.1899 47.6201 67.1699 47.6201 67.1499 47.6201V47.6101ZM62.9499 46.8201H60.5599C60.2299 46.8201 59.9599 46.5501 59.9599 46.2201C59.9599 45.8901 60.2299 45.6201 60.5599 45.6201H62.9499C63.2799 45.6201 63.5499 45.8901 63.5499 46.2201C63.5499 46.5501 63.2799 46.8201 62.9499 46.8201ZM58.1799 46.8201H55.7899C55.4599 46.8201 55.1899 46.5501 55.1899 46.2201C55.1899 45.8901 55.4599 45.6201 55.7899 45.6201H58.1799C58.5099 45.6201 58.7799 45.8901 58.7799 46.2201C58.7799 46.5501 58.5099 46.8201 58.1799 46.8201ZM53.4099 46.8201H51.0199C50.6899 46.8201 50.4199 46.5501 50.4199 46.2201C50.4199 45.8901 50.6899 45.6201 51.0199 45.6201H53.4099C53.7399 45.6201 54.0099 45.8901 54.0099 46.2201C54.0099 46.5501 53.7399 46.8201 53.4099 46.8201ZM48.6399 46.8201H46.2499C45.9199 46.8201 45.6499 46.5501 45.6499 46.2201C45.6499 45.8901 45.9199 45.6201 46.2499 45.6201H48.6399C48.9699 45.6201 49.2399 45.8901 49.2399 46.2201C49.2399 46.5501 48.9699 46.8201 48.6399 46.8201ZM43.8599 46.8201H41.4699C41.1399 46.8201 40.8699 46.5501 40.8699 46.2201C40.8699 45.8901 41.1399 45.6201 41.4699 45.6201H43.8599C44.1899 45.6201 44.4599 45.8901 44.4599 46.2201C44.4599 46.5501 44.1899 46.8201 43.8599 46.8201ZM39.0899 46.8201H36.6999C36.3699 46.8201 36.0999 46.5501 36.0999 46.2201C36.0999 45.8901 36.3699 45.6201 36.6999 45.6201H39.0899C39.4199 45.6201 39.6899 45.8901 39.6899 46.2201C39.6899 46.5501 39.4199 46.8201 39.0899 46.8201ZM34.3199 46.8201H31.9299C31.5999 46.8201 31.3299 46.5501 31.3299 46.2201C31.3299 45.8901 31.5999 45.6201 31.9299 45.6201H34.3199C34.6499 45.6201 34.9199 45.8901 34.9199 46.2201C34.9199 46.5501 34.6499 46.8201 34.3199 46.8201Z" fill="black"/>
<path d="M49.92 64.2601H45.46C45.08 64.2601 44.78 63.9401 44.78 63.5501V60.7101H41.94C41.55 60.7101 41.23 60.4001 41.23 60.0301V55.5701C41.23 55.1901 41.55 54.8901 41.94 54.8901H44.78V52.0501C44.78 51.6601 45.08 51.3401 45.46 51.3401H49.92C50.3 51.3401 50.6 51.6601 50.6 52.0501V54.8901H53.44C53.83 54.8901 54.15 55.1901 54.15 55.5701V60.0301C54.15 60.4101 53.83 60.7101 53.44 60.7101H50.6V63.5501C50.6 63.9401 50.29 64.2601 49.92 64.2601ZM45.98 63.0601H49.41V60.4301C49.41 59.9201 49.82 59.5101 50.33 59.5101H52.96V56.0801H50.33C49.82 56.0801 49.41 55.6701 49.41 55.1601V52.5301H45.98V55.1601C45.98 55.6701 45.57 56.0801 45.06 56.0801H42.43V59.5101H45.06C45.57 59.5101 45.98 59.9201 45.98 60.4301V63.0601Z" fill="black"/>
</g>
<defs>
<filter id="filter0_f_40702_25394" x="-282.292" y="-91.609" width="549.207" height="549.207" filterUnits="userSpaceOnUse" color-interpolation-filters="sRGB">
<feFlood flood-opacity="0" result="BackgroundImageFix"/>
<feBlend mode="normal" in="SourceGraphic" in2="BackgroundImageFix" result="shape"/>
<feGaussianBlur stdDeviation="102.214" result="effect1_foregroundBlur_40702_25394"/>
</filter>
<filter id="filter1_f_40702_25394" x="-369.886" y="-268.443" width="757.396" height="757.396" filterUnits="userSpaceOnUse" color-interpolation-filters="sRGB">
<feFlood flood-opacity="0" result="BackgroundImageFix"/>
<feBlend mode="normal" in="SourceGraphic" in2="BackgroundImageFix" result="shape"/>
<feGaussianBlur stdDeviation="91.4625" result="effect1_foregroundBlur_40702_25394"/>
</filter>
<filter id="filter2_f_40702_25394" x="-64.6072" y="-149.902" width="338.44" height="338.266" filterUnits="userSpaceOnUse" color-interpolation-filters="sRGB">
<feFlood flood-opacity="0" result="BackgroundImageFix"/>
<feBlend mode="normal" in="SourceGraphic" in2="BackgroundImageFix" result="shape"/>
<feGaussianBlur stdDeviation="46.7516" result="effect1_foregroundBlur_40702_25394"/>
</filter>
<filter id="filter3_f_40702_25394" x="-105.758" y="-31.7938" width="450.804" height="450.804" filterUnits="userSpaceOnUse" color-interpolation-filters="sRGB">
<feFlood flood-opacity="0" result="BackgroundImageFix"/>
<feBlend mode="normal" in="SourceGraphic" in2="BackgroundImageFix" result="shape"/>
<feGaussianBlur stdDeviation="76.4113" result="effect1_foregroundBlur_40702_25394"/>
</filter>
<clipPath id="clip0_40702_25394">
<rect width="60" height="60" fill="white" transform="translate(20 20)"/>
</clipPath>
</defs>
</svg>
