<svg width="100" height="100" viewBox="0 0 100 100" fill="none" xmlns="http://www.w3.org/2000/svg">
<mask id="mask0_40701_25074" style="mask-type:alpha" maskUnits="userSpaceOnUse" x="0" y="0" width="100" height="100">
<circle cx="50" cy="50" r="50" fill="#D9D9D9"/>
</mask>
<g mask="url(#mask0_40701_25074)">
<g filter="url(#filter0_f_40701_25074)">
<ellipse cx="-7.68829" cy="182.995" rx="70.1648" ry="70.1648" transform="rotate(-30 -7.68829 182.995)" fill="#00FFD3"/>
</g>
<g filter="url(#filter1_f_40701_25074)">
<path d="M178.328 12.3851C232.381 106.006 200.304 225.719 106.682 279.771C13.0611 333.824 -106.652 301.747 -160.704 208.126C-214.756 114.504 -182.679 -5.20861 -89.058 -59.2608C4.56315 -113.313 124.276 -81.2361 178.328 12.3851Z" fill="#00F6FF"/>
</g>
<g filter="url(#filter2_f_40701_25074)">
<ellipse cx="104.613" cy="19.2313" rx="75.7477" ry="75.5739" transform="rotate(-30 104.613 19.2313)" fill="#C3A6FF"/>
</g>
<g filter="url(#filter3_f_40701_25074)">
<circle cx="119.644" cy="193.608" r="72.5673" transform="rotate(-30 119.644 193.608)" fill="#00FFD3"/>
</g>
<g clip-path="url(#clip0_40701_25074)">
<rect width="232.143" height="214.286" transform="translate(-114 -38)" fill="black"/>
<g filter="url(#filter4_f_40701_25074)">
<ellipse cx="15.0354" cy="233.498" rx="102.616" ry="102.616" transform="rotate(-30 15.0354 233.498)" fill="#00FFD3"/>
</g>
<g filter="url(#filter5_f_40701_25074)">
<ellipse cx="39.1698" cy="127.118" rx="286.27" ry="286.27" transform="rotate(-30 39.1698 127.118)" fill="#AC8EFF"/>
</g>
<g filter="url(#filter6_f_40701_25074)">
<ellipse cx="201.879" cy="51.0871" rx="117.393" ry="117.123" transform="rotate(-30 201.879 51.0871)" fill="#39C4FF"/>
</g>
<g filter="url(#filter7_f_40701_25074)">
<ellipse cx="201.261" cy="275.159" rx="106.13" ry="106.13" transform="rotate(-30 201.261 275.159)" fill="#5463ED"/>
</g>
</g>
<g clip-path="url(#clip1_40701_25074)">
<path d="M54.2498 46.7599C53.9198 46.7599 53.6498 46.4899 53.6498 46.1599V39.2399C53.5098 37.9399 53.0098 36.1399 50.1898 36.1399C47.3698 36.1399 46.8698 37.9399 46.7398 39.2899V46.1599C46.7298 46.4899 46.4598 46.7599 46.1298 46.7599C45.7998 46.7599 45.5298 46.4899 45.5298 46.1599V39.2299C45.8798 35.6799 48.2498 34.9399 50.1898 34.9399C52.1298 34.9399 54.4998 35.6699 54.8298 39.1799L54.8498 46.1599C54.8498 46.4899 54.5798 46.7599 54.2498 46.7599Z" fill="black"/>
<path d="M50.1898 48.86C47.5298 48.86 45.5298 47.68 45.5298 46.12C45.5298 45.79 45.7998 45.52 46.1298 45.52C46.4598 45.52 46.7298 45.79 46.7298 46.12C46.7298 46.85 48.2098 47.66 50.1898 47.66C52.1698 47.66 53.6498 46.84 53.6498 46.12C53.6498 45.79 53.9198 45.52 54.2498 45.52C54.5798 45.52 54.8498 45.79 54.8498 46.12C54.8498 47.68 52.8498 48.86 50.1898 48.86Z" fill="black"/>
<path d="M50.1698 33.3099C48.3298 33.3099 46.8398 31.8099 46.8398 29.9799C46.8398 28.1499 48.3398 26.6499 50.1698 26.6499C51.9998 26.6499 53.4998 28.1499 53.4998 29.9799C53.4998 31.8099 51.9998 33.3099 50.1698 33.3099ZM50.1698 27.8399C48.9898 27.8399 48.0398 28.7999 48.0398 29.9699C48.0398 31.1399 48.9998 32.0999 50.1698 32.0999C51.3398 32.0999 52.2998 31.1399 52.2998 29.9699C52.2998 28.7999 51.3398 27.8399 50.1698 27.8399Z" fill="black"/>
<path d="M38.5901 71.2599C38.2601 71.2599 37.9901 70.9899 37.9901 70.6599V63.7399C37.8501 62.4399 37.3501 60.6399 34.5301 60.6399C31.7101 60.6399 31.2101 62.4399 31.0801 63.7899V70.6599C31.0701 70.9899 30.8001 71.2599 30.4701 71.2599C30.1401 71.2599 29.8701 70.9899 29.8701 70.6599V63.7299C30.2201 60.1799 32.6001 59.4399 34.5301 59.4399C36.4601 59.4399 38.8401 60.1699 39.1701 63.6799L39.1901 70.6599C39.1901 70.9899 38.9201 71.2599 38.5901 71.2599Z" fill="black"/>
<path d="M34.5301 73.36C31.9201 73.36 29.8701 72.15 29.8701 70.62C29.8701 70.29 30.1401 70.02 30.4701 70.02C30.8001 70.02 31.0701 70.29 31.0701 70.62C31.0701 71.35 32.5501 72.16 34.5301 72.16C36.5101 72.16 37.9901 71.34 37.9901 70.62C37.9901 70.29 38.2601 70.02 38.5901 70.02C38.9201 70.02 39.1901 70.29 39.1901 70.62C39.1901 72.16 37.1401 73.36 34.5301 73.36Z" fill="black"/>
<path d="M34.5102 57.7999C32.6702 57.7999 31.1802 56.2999 31.1802 54.4699C31.1802 52.6399 32.6802 51.1399 34.5102 51.1399C36.3402 51.1399 37.8402 52.6399 37.8402 54.4699C37.8402 56.2999 36.3402 57.7999 34.5102 57.7999ZM34.5102 52.3299C33.3302 52.3299 32.3802 53.2899 32.3802 54.4599C32.3802 55.6299 33.3402 56.5899 34.5102 56.5899C35.6802 56.5899 36.6402 55.6299 36.6402 54.4599C36.6402 53.2899 35.6802 52.3299 34.5102 52.3299Z" fill="black"/>
<path d="M69.5301 71.2599C69.2001 71.2599 68.9301 70.9899 68.9301 70.6599V63.7399C68.7901 62.4399 68.2901 60.6399 65.4701 60.6399C62.6501 60.6399 62.1501 62.4399 62.0201 63.7899V70.6599C62.0101 70.9899 61.7401 71.2599 61.4101 71.2599C61.0801 71.2599 60.8101 70.9899 60.8101 70.6599V63.7299C61.1601 60.1799 63.5301 59.4399 65.4701 59.4399C67.4101 59.4399 69.7801 60.1699 70.1101 63.6799L70.1301 70.6599C70.1301 70.9899 69.8601 71.2599 69.5301 71.2599Z" fill="black"/>
<path d="M65.4701 73.36C62.8101 73.36 60.8101 72.18 60.8101 70.62C60.8101 70.29 61.0801 70.02 61.4101 70.02C61.7401 70.02 62.0101 70.29 62.0101 70.62C62.0101 71.35 63.4901 72.16 65.4701 72.16C67.4501 72.16 68.9301 71.34 68.9301 70.62C68.9301 70.29 69.2001 70.02 69.5301 70.02C69.8601 70.02 70.1301 70.29 70.1301 70.62C70.1301 72.18 68.1301 73.36 65.4701 73.36Z" fill="black"/>
<path d="M65.4399 57.7999C63.5999 57.7999 62.1099 56.2999 62.1099 54.4699C62.1099 52.6399 63.6099 51.1399 65.4399 51.1399C67.2699 51.1399 68.7699 52.6399 68.7699 54.4699C68.7699 56.2999 67.2699 57.7999 65.4399 57.7999ZM65.4399 52.3299C64.2599 52.3299 63.3099 53.2899 63.3099 54.4599C63.3099 55.6299 64.2699 56.5899 65.4399 56.5899C66.6099 56.5899 67.5699 55.6299 67.5699 54.4599C67.5699 53.2899 66.6099 52.3299 65.4399 52.3299Z" fill="black"/>
<path d="M34.32 49.0001H34.3C33.97 48.9901 33.71 48.7101 33.72 48.3801C33.74 47.9001 33.79 47.3701 33.89 46.8101C33.95 46.4801 34.27 46.2701 34.59 46.3201C34.92 46.3801 35.13 46.6901 35.08 47.0201C34.99 47.5201 34.94 48.0101 34.92 48.4201C34.91 48.7401 34.64 49.0001 34.32 49.0001Z" fill="black"/>
<path d="M35.2201 44.86C35.1501 44.86 35.0801 44.85 35.0101 44.82C34.7001 44.71 34.5401 44.36 34.6601 44.05C34.9901 43.16 35.3901 42.29 35.8601 41.47C36.0201 41.18 36.3901 41.08 36.6801 41.24C36.9701 41.4 37.0701 41.77 36.9101 42.06C36.4701 42.83 36.1001 43.64 35.7901 44.47C35.7001 44.71 35.4701 44.86 35.2301 44.86H35.2201ZM37.9301 40.09C37.8001 40.09 37.6601 40.05 37.5501 39.96C37.2901 39.75 37.2501 39.37 37.4601 39.12C38.0601 38.38 38.7201 37.69 39.4401 37.06C39.6901 36.84 40.0701 36.87 40.2901 37.12C40.5101 37.37 40.4801 37.75 40.2301 37.97C39.5701 38.55 38.9501 39.19 38.3901 39.88C38.2701 40.03 38.1001 40.1 37.9201 40.1L37.9301 40.09Z" fill="black"/>
<path d="M42.0602 36.46C41.8602 36.46 41.6602 36.36 41.5502 36.18C41.3802 35.9 41.4602 35.53 41.7402 35.35C42.1702 35.08 42.6202 34.83 43.0902 34.59C43.3802 34.44 43.7502 34.56 43.9002 34.85C44.0502 35.15 43.9302 35.51 43.6402 35.66C43.2002 35.88 42.7802 36.12 42.3802 36.37C42.2802 36.43 42.1702 36.46 42.0702 36.46H42.0602Z" fill="black"/>
<path d="M65.87 49.0001C65.55 49.0001 65.28 48.7401 65.27 48.4201C65.26 48.0001 65.2 47.5201 65.11 47.0201C65.05 46.6901 65.27 46.3801 65.6 46.3201C65.92 46.2701 66.24 46.4801 66.3 46.8101C66.4 47.3701 66.46 47.9001 66.47 48.3801C66.48 48.7101 66.22 48.9901 65.89 49.0001H65.87Z" fill="black"/>
<path d="M64.9802 44.8601C64.7402 44.8601 64.5101 44.7101 64.4201 44.4701C64.1101 43.6401 63.7402 42.8301 63.3002 42.0601C63.1402 41.7701 63.2402 41.4101 63.5302 41.2401C63.8202 41.0701 64.1902 41.1801 64.3502 41.4701C64.8202 42.3001 65.2202 43.1701 65.5502 44.0501C65.6702 44.3601 65.5102 44.7101 65.2002 44.8201C65.1302 44.8501 65.0602 44.8601 64.9902 44.8601H64.9802ZM62.2702 40.0901C62.1002 40.0901 61.9202 40.0101 61.8002 39.8701C61.2402 39.1801 60.6202 38.5401 59.9602 37.9601C59.7102 37.7401 59.6902 37.3601 59.9002 37.1101C60.1202 36.8601 60.5002 36.8401 60.7502 37.0501C61.4602 37.6801 62.1302 38.3701 62.7302 39.1101C62.9402 39.3701 62.9002 39.7501 62.6402 39.9501C62.5302 40.0401 62.3901 40.0801 62.2601 40.0801L62.2702 40.0901Z" fill="black"/>
<path d="M58.1399 36.46C58.0299 36.46 57.9199 36.43 57.8299 36.37C57.4299 36.12 57.0099 35.89 56.5699 35.66C56.2799 35.51 56.1599 35.15 56.3099 34.85C56.4599 34.56 56.8199 34.44 57.1199 34.59C57.5899 34.83 58.0399 35.08 58.4699 35.35C58.7499 35.52 58.8399 35.89 58.6599 36.18C58.5499 36.36 58.3499 36.46 58.1499 36.46H58.1399Z" fill="black"/>
<path d="M42.3902 58.5199C42.3102 58.5199 42.2302 58.4999 42.1502 58.4699C41.6402 58.2499 41.1702 58.0099 40.7502 57.7699C40.4602 57.5999 40.3702 57.2399 40.5302 56.9499C40.6902 56.6599 41.0602 56.5699 41.3502 56.7299C41.7302 56.9499 42.1602 57.1599 42.6302 57.3699C42.9302 57.4999 43.0702 57.8599 42.9402 58.1599C42.8402 58.3899 42.6202 58.5199 42.3902 58.5199Z" fill="black"/>
<path d="M51.7902 60.0999C51.4802 60.0999 51.2202 59.8599 51.1902 59.5399C51.1702 59.2099 51.4102 58.9199 51.7402 58.8999C52.7802 58.8199 53.8102 58.6599 54.8002 58.4099C55.1202 58.3299 55.4502 58.5299 55.5302 58.8499C55.6102 59.1699 55.4202 59.4999 55.0902 59.5799C54.0302 59.8499 52.9302 60.0199 51.8202 60.1099C51.8102 60.1099 51.7902 60.1099 51.7802 60.1099L51.7902 60.0999ZM48.5902 60.0699C48.5902 60.0699 48.5502 60.0699 48.5402 60.0699C47.4502 59.9699 46.3602 59.7899 45.2902 59.5199C44.9702 59.4399 44.7702 59.1199 44.8502 58.7899C44.9302 58.4699 45.2502 58.2699 45.5802 58.3499C46.5902 58.5999 47.6202 58.7699 48.6502 58.8599C48.9802 58.8899 49.2202 59.1799 49.1902 59.5099C49.1602 59.8199 48.9002 60.0599 48.5902 60.0599V60.0699Z" fill="black"/>
<path d="M57.9903 58.5298C57.7603 58.5298 57.5403 58.3998 57.4403 58.1798C57.3003 57.8798 57.4403 57.5198 57.7403 57.3898C58.1703 57.1898 58.6003 56.9798 59.0403 56.7298C59.3303 56.5698 59.6903 56.6698 59.8603 56.9598C60.0203 57.2498 59.9203 57.6098 59.6303 57.7798C59.1703 58.0398 58.7103 58.2698 58.2503 58.4798C58.1703 58.5198 58.0803 58.5298 58.0003 58.5298H57.9903Z" fill="black"/>
</g>
</g>
<defs>
<filter id="filter0_f_40701_25074" x="-282.292" y="-91.609" width="549.207" height="549.207" filterUnits="userSpaceOnUse" color-interpolation-filters="sRGB">
<feFlood flood-opacity="0" result="BackgroundImageFix"/>
<feBlend mode="normal" in="SourceGraphic" in2="BackgroundImageFix" result="shape"/>
<feGaussianBlur stdDeviation="102.214" result="effect1_foregroundBlur_40701_25074"/>
</filter>
<filter id="filter1_f_40701_25074" x="-369.886" y="-268.443" width="757.396" height="757.396" filterUnits="userSpaceOnUse" color-interpolation-filters="sRGB">
<feFlood flood-opacity="0" result="BackgroundImageFix"/>
<feBlend mode="normal" in="SourceGraphic" in2="BackgroundImageFix" result="shape"/>
<feGaussianBlur stdDeviation="91.4625" result="effect1_foregroundBlur_40701_25074"/>
</filter>
<filter id="filter2_f_40701_25074" x="-64.6072" y="-149.902" width="338.44" height="338.266" filterUnits="userSpaceOnUse" color-interpolation-filters="sRGB">
<feFlood flood-opacity="0" result="BackgroundImageFix"/>
<feBlend mode="normal" in="SourceGraphic" in2="BackgroundImageFix" result="shape"/>
<feGaussianBlur stdDeviation="46.7516" result="effect1_foregroundBlur_40701_25074"/>
</filter>
<filter id="filter3_f_40701_25074" x="-105.758" y="-31.7938" width="450.804" height="450.804" filterUnits="userSpaceOnUse" color-interpolation-filters="sRGB">
<feFlood flood-opacity="0" result="BackgroundImageFix"/>
<feBlend mode="normal" in="SourceGraphic" in2="BackgroundImageFix" result="shape"/>
<feGaussianBlur stdDeviation="76.4113" result="effect1_foregroundBlur_40701_25074"/>
</filter>
<filter id="filter4_f_40701_25074" x="-292.025" y="-73.5626" width="614.12" height="614.12" filterUnits="userSpaceOnUse" color-interpolation-filters="sRGB">
<feFlood flood-opacity="0" result="BackgroundImageFix"/>
<feBlend mode="normal" in="SourceGraphic" in2="BackgroundImageFix" result="shape"/>
<feGaussianBlur stdDeviation="102.214" result="effect1_foregroundBlur_40701_25074"/>
</filter>
<filter id="filter5_f_40701_25074" x="-430.073" y="-342.125" width="938.486" height="938.486" filterUnits="userSpaceOnUse" color-interpolation-filters="sRGB">
<feFlood flood-opacity="0" result="BackgroundImageFix"/>
<feBlend mode="normal" in="SourceGraphic" in2="BackgroundImageFix" result="shape"/>
<feGaussianBlur stdDeviation="91.4625" result="effect1_foregroundBlur_40701_25074"/>
</filter>
<filter id="filter6_f_40701_25074" x="-8.969" y="-159.626" width="421.696" height="421.427" filterUnits="userSpaceOnUse" color-interpolation-filters="sRGB">
<feFlood flood-opacity="0" result="BackgroundImageFix"/>
<feBlend mode="normal" in="SourceGraphic" in2="BackgroundImageFix" result="shape"/>
<feGaussianBlur stdDeviation="46.7516" result="effect1_foregroundBlur_40701_25074"/>
</filter>
<filter id="filter7_f_40701_25074" x="-57.7088" y="16.1886" width="517.94" height="517.94" filterUnits="userSpaceOnUse" color-interpolation-filters="sRGB">
<feFlood flood-opacity="0" result="BackgroundImageFix"/>
<feBlend mode="normal" in="SourceGraphic" in2="BackgroundImageFix" result="shape"/>
<feGaussianBlur stdDeviation="76.4113" result="effect1_foregroundBlur_40701_25074"/>
</filter>
<clipPath id="clip0_40701_25074">
<rect width="232.143" height="214.286" fill="white" transform="translate(-114 -38)"/>
</clipPath>
<clipPath id="clip1_40701_25074">
<rect width="60" height="60" fill="white" transform="translate(20 20)"/>
</clipPath>
</defs>
</svg>
