<svg width="100" height="100" viewBox="0 0 100 100" fill="none" xmlns="http://www.w3.org/2000/svg">
<mask id="mask0_40702_25455" style="mask-type:alpha" maskUnits="userSpaceOnUse" x="0" y="0" width="100" height="100">
<circle cx="50" cy="50" r="50" fill="#D9D9D9"/>
</mask>
<g mask="url(#mask0_40702_25455)">
<g filter="url(#filter0_f_40702_25455)">
<ellipse cx="-7.68829" cy="182.995" rx="70.1648" ry="70.1648" transform="rotate(-30 -7.68829 182.995)" fill="#00FFD3"/>
</g>
<g filter="url(#filter1_f_40702_25455)">
<path d="M178.328 12.3851C232.381 106.006 200.304 225.719 106.682 279.771C13.0611 333.824 -106.652 301.747 -160.704 208.126C-214.756 114.504 -182.679 -5.20861 -89.058 -59.2608C4.56315 -113.313 124.276 -81.2361 178.328 12.3851Z" fill="#00F6FF"/>
</g>
<g filter="url(#filter2_f_40702_25455)">
<ellipse cx="104.613" cy="19.2313" rx="75.7477" ry="75.5739" transform="rotate(-30 104.613 19.2313)" fill="#C3A6FF"/>
</g>
<g filter="url(#filter3_f_40702_25455)">
<circle cx="119.644" cy="193.608" r="72.5673" transform="rotate(-30 119.644 193.608)" fill="#00FFD3"/>
</g>
</g>
<g clip-path="url(#clip0_40702_25455)">
<path d="M65.7699 27.9H34.2299C33.8999 27.9 33.6299 27.63 33.6299 27.3C33.6299 26.97 33.8999 26.7 34.2299 26.7H65.7599C66.0899 26.7 66.3599 26.97 66.3599 27.3C66.3599 27.63 66.0899 27.9 65.7599 27.9H65.7699Z" fill="black"/>
<path d="M65.7699 73.3001H34.2299C33.8999 73.3001 33.6299 73.0301 33.6299 72.7001C33.6299 72.3701 33.8999 72.1001 34.2299 72.1001H65.7599C66.0899 72.1001 66.3599 72.3701 66.3599 72.7001C66.3599 73.0301 66.0899 73.3001 65.7599 73.3001H65.7699Z" fill="black"/>
<path d="M64.32 73.2999C64.32 73.2999 64.3 73.2999 64.28 73.2999C63.95 73.2799 63.7 72.9999 63.72 72.6699C63.76 72.0599 63.78 71.4399 63.78 70.8199C63.78 59.6799 57.6 50.6099 50 50.6099C42.4 50.6099 36.21 59.6799 36.21 70.8199C36.21 71.4399 36.23 72.0599 36.27 72.6699C36.29 72.9999 36.04 73.2899 35.71 73.2999C35.38 73.3199 35.09 73.0699 35.08 72.7399C35.04 72.1099 35.02 71.4599 35.02 70.8199C35.02 59.0099 41.75 49.4099 50.01 49.4099C58.27 49.4099 64.99 59.0099 64.99 70.8199C64.99 71.4599 64.97 72.1099 64.93 72.7399C64.91 73.0599 64.65 73.2999 64.33 73.2999H64.32Z" fill="black"/>
<path d="M49.9998 50.6001C41.7298 50.6001 35.0098 41.0001 35.0098 29.1901C35.0098 28.5501 35.0298 27.9001 35.0698 27.2701C35.0898 26.9401 35.3798 26.6901 35.6998 26.7101C36.0298 26.7301 36.2798 27.0101 36.2598 27.3401C36.2198 27.9501 36.1998 28.5701 36.1998 29.1901C36.1998 40.3301 42.3898 49.4001 49.9898 49.4001C57.5898 49.4001 63.7698 40.3301 63.7698 29.1901C63.7698 28.5701 63.7498 27.9501 63.7098 27.3401C63.6898 27.0101 63.9398 26.7201 64.2698 26.7101C64.5998 26.6901 64.8898 26.9401 64.8998 27.2701C64.9398 27.9001 64.9598 28.5501 64.9598 29.1901C64.9598 41.0001 58.2398 50.6001 49.9798 50.6001H49.9998Z" fill="black"/>
<path d="M38.4102 35.9399C38.1802 35.9399 37.9602 35.8099 37.8602 35.5899C37.7202 35.2899 37.8602 34.9299 38.1602 34.7999C38.5002 34.6499 38.9002 34.4899 39.3402 34.3499C39.6602 34.2399 39.9902 34.4199 40.1002 34.7299C40.2002 35.0499 40.0302 35.3799 39.7202 35.4899C39.3302 35.6199 38.9702 35.7499 38.6602 35.8899C38.5802 35.9299 38.5002 35.9399 38.4102 35.9399Z" fill="black"/>
<path d="M41.8004 34.94C41.5204 34.94 41.2704 34.74 41.2104 34.46C41.1504 34.13 41.3604 33.82 41.6804 33.75C42.4204 33.6 43.2104 33.48 44.0504 33.37C44.3804 33.33 44.6804 33.56 44.7204 33.89C44.7604 34.22 44.5304 34.52 44.2004 34.56C43.3904 34.66 42.6304 34.78 41.9204 34.92C41.8804 34.92 41.8404 34.93 41.8004 34.93V34.94ZM58.1804 34.94C58.1804 34.94 58.1004 34.94 58.0604 34.93C57.3504 34.79 56.5904 34.67 55.7804 34.57C55.4504 34.53 55.2204 34.23 55.2604 33.9C55.3004 33.57 55.6004 33.34 55.9304 33.38C56.7604 33.48 57.5604 33.61 58.3004 33.76C58.6204 33.82 58.8404 34.14 58.7704 34.47C58.7104 34.76 58.4604 34.95 58.1804 34.95V34.94ZM46.4604 34.35C46.1504 34.35 45.8804 34.11 45.8604 33.79C45.8404 33.46 46.0904 33.17 46.4204 33.15C47.1904 33.1 47.9804 33.06 48.8004 33.04C49.1504 33.01 49.4104 33.29 49.4104 33.63C49.4104 33.96 49.1604 34.24 48.8204 34.24C48.0204 34.26 47.2504 34.29 46.5004 34.35C46.4904 34.35 46.4704 34.35 46.4604 34.35ZM53.5204 34.35C53.5204 34.35 53.4904 34.35 53.4804 34.35C52.7304 34.3 51.9604 34.26 51.1604 34.24C50.8304 34.24 50.5704 33.96 50.5704 33.63C50.5704 33.3 50.8704 33 51.1804 33.04C52.0004 33.06 52.7904 33.09 53.5604 33.15C53.8904 33.17 54.1404 33.46 54.1204 33.79C54.1004 34.11 53.8304 34.35 53.5204 34.35Z" fill="black"/>
<path d="M61.5902 35.9399C61.5102 35.9399 61.4202 35.9199 61.3402 35.8899C61.0302 35.7499 60.6702 35.6199 60.2802 35.4899C59.9602 35.3899 59.7902 35.0499 59.9002 34.7299C60.0102 34.4099 60.3402 34.2399 60.6602 34.3499C61.1002 34.4899 61.5002 34.6399 61.8402 34.7999C62.1402 34.9399 62.2802 35.2899 62.1402 35.5899C62.0402 35.8099 61.8202 35.9399 61.5902 35.9399Z" fill="black"/>
<path d="M40.2701 39.8499C40.2201 39.8499 40.1601 39.8499 40.1101 39.8299C39.6801 39.7099 39.2901 39.5899 38.9201 39.4599C38.6101 39.3499 38.4501 38.9999 38.5601 38.6899C38.6701 38.3799 39.0201 38.2199 39.3301 38.3299C39.6601 38.4499 40.0301 38.5699 40.4301 38.6699C40.7501 38.7599 40.9401 39.0899 40.8501 39.4099C40.7801 39.6799 40.5301 39.8499 40.2701 39.8499Z" fill="black"/>
<path d="M51.0803 40.9099C50.7503 40.9099 50.4903 40.6499 50.4803 40.3199C50.4803 39.9899 50.7403 39.7099 51.0703 39.7099C51.8103 39.6899 52.5303 39.6599 53.2203 39.6199C53.5503 39.5899 53.8403 39.8499 53.8603 40.1799C53.8803 40.5099 53.6303 40.7999 53.3003 40.8199C52.5803 40.8699 51.8503 40.8999 51.0903 40.9099H51.0803ZM48.9003 40.9099H48.8903C48.1403 40.8999 47.4003 40.8599 46.6803 40.8199C46.3503 40.7999 46.1003 40.5099 46.1203 40.1799C46.1403 39.8499 46.4603 39.6099 46.7603 39.6199C47.4603 39.6599 48.1803 39.6999 48.9103 39.7099C49.2403 39.7099 49.5003 39.9899 49.5003 40.3199C49.5003 40.6499 49.2303 40.9099 48.9003 40.9099ZM55.4303 40.6299C55.1303 40.6299 54.8703 40.3999 54.8303 40.0999C54.7903 39.7699 55.0303 39.4699 55.3603 39.4399C56.1103 39.3599 56.8203 39.2499 57.4803 39.1399C57.8103 39.0899 58.1203 39.2999 58.1803 39.6299C58.2403 39.9599 58.0203 40.2699 57.6903 40.3299C57.0103 40.4499 56.2703 40.5599 55.4903 40.6499C55.4703 40.6499 55.4403 40.6499 55.4203 40.6499L55.4303 40.6299ZM44.5503 40.6299C44.5503 40.6299 44.5003 40.6299 44.4803 40.6299C43.7103 40.5399 42.9703 40.4399 42.2903 40.3199C41.9603 40.2599 41.7503 39.9499 41.8003 39.6199C41.8503 39.2899 42.1803 39.0799 42.5003 39.1299C43.1603 39.2499 43.8703 39.3499 44.6203 39.4299C44.9503 39.4699 45.1903 39.7599 45.1503 40.0899C45.1203 40.3999 44.8603 40.6199 44.5603 40.6199L44.5503 40.6299Z" fill="black"/>
<path d="M59.7401 39.8499C59.4801 39.8499 59.2301 39.6699 59.1601 39.4099C59.0701 39.0899 59.2601 38.7599 59.5801 38.6699C59.9801 38.5599 60.3401 38.4499 60.6801 38.3299C60.9901 38.2199 61.3401 38.3799 61.4501 38.6899C61.5601 38.9999 61.4001 39.3499 61.0901 39.4599C60.7301 39.5899 60.3301 39.7099 59.9001 39.8299C59.8501 39.8399 59.7901 39.8499 59.7401 39.8499Z" fill="black"/>
<path d="M39.1999 61.3601C38.9599 61.3601 38.7399 61.2201 38.6499 60.9901C38.5199 60.6801 38.6699 60.3301 38.9799 60.2101C39.3399 60.0601 39.7299 59.9201 40.1699 59.7901C40.4899 59.6901 40.8199 59.8701 40.9199 60.1901C41.0199 60.5101 40.8399 60.8401 40.5199 60.9401C40.1299 61.0601 39.7699 61.1901 39.4399 61.3201C39.3599 61.3501 39.2899 61.3701 39.2099 61.3701L39.1999 61.3601Z" fill="black"/>
<path d="M42.97 60.35C42.68 60.35 42.43 60.14 42.38 59.85C42.32 59.52 42.54 59.21 42.87 59.16C43.73 59.01 44.65 58.89 45.6 58.8C45.93 58.77 46.22 59.01 46.25 59.34C46.28 59.67 46.04 59.96 45.71 59.99C44.79 60.08 43.9 60.19 43.07 60.34C43.04 60.34 43 60.34 42.97 60.34V60.35ZM56.47 60.26C56.47 60.26 56.41 60.26 56.38 60.26C55.56 60.13 54.66 60.03 53.73 59.95C53.4 59.92 53.15 59.63 53.18 59.3C53.21 58.97 53.5 58.71 53.83 58.75C54.79 58.83 55.71 58.93 56.56 59.07C56.89 59.12 57.11 59.43 57.06 59.75C57.01 60.05 56.76 60.26 56.47 60.26ZM48.36 59.83C48.04 59.83 47.77 59.57 47.76 59.25C47.75 58.92 48.01 58.64 48.34 58.63C49.24 58.6 50.18 58.59 51.08 58.61C51.41 58.61 51.67 58.89 51.67 59.22C51.67 59.55 51.4 59.81 51.07 59.81H51.06C50.18 59.79 49.26 59.8 48.38 59.83H48.36Z" fill="black"/>
<path d="M60.28 61.16C60.21 61.16 60.15 61.15 60.08 61.12C59.74 61 59.37 60.89 58.98 60.78C58.66 60.69 58.47 60.36 58.56 60.05C58.64 59.73 58.97 59.54 59.29 59.63C59.72 59.74 60.12 59.87 60.48 60C60.79 60.11 60.96 60.45 60.85 60.77C60.76 61.02 60.53 61.17 60.28 61.17V61.16Z" fill="black"/>
<path d="M39.7501 65.1501C39.6801 65.1501 39.6201 65.1401 39.5501 65.1201C39.1001 64.9601 38.7101 64.8001 38.3701 64.6301C38.0701 64.4801 37.9601 64.1201 38.1101 63.8201C38.2601 63.5201 38.6201 63.4101 38.9201 63.5601C39.2101 63.7101 39.5601 63.8501 39.9501 63.9901C40.2601 64.1001 40.4301 64.4401 40.3201 64.7601C40.2301 65.0101 40.0001 65.1601 39.7501 65.1601V65.1501Z" fill="black"/>
<path d="M50.8501 66.4901C50.5201 66.4901 50.2601 66.2301 50.2501 65.9001C50.2501 65.5701 50.5101 65.3001 50.8401 65.2901C51.6001 65.2801 52.3401 65.2501 53.0601 65.2001C53.3901 65.1801 53.6801 65.4301 53.7001 65.7601C53.7201 66.0901 53.4701 66.3801 53.1401 66.4001C52.4001 66.4501 51.6401 66.4801 50.8701 66.4901H50.8601H50.8501ZM48.6001 66.4801H48.5801C47.8001 66.4601 47.0401 66.4201 46.3101 66.3601C45.9801 66.3301 45.7301 66.0501 45.7601 65.7201C45.7901 65.3901 46.0801 65.1501 46.4001 65.1701C47.1101 65.2301 47.8501 65.2601 48.6101 65.2901C48.9401 65.2901 49.2001 65.5801 49.1901 65.9101C49.1901 66.2401 48.9101 66.4901 48.5901 66.4901L48.6001 66.4801ZM55.3301 66.2001C55.0301 66.2001 54.7701 65.9801 54.7401 65.6701C54.7001 65.3401 54.9401 65.0401 55.2601 65.0001C56.0201 64.9101 56.7501 64.8001 57.4401 64.6701C57.7601 64.6001 58.0801 64.8201 58.1401 65.1501C58.2001 65.4801 57.9901 65.7901 57.6601 65.8501C56.9501 65.9901 56.1901 66.1001 55.4001 66.2001C55.3801 66.2001 55.3501 66.2001 55.3301 66.2001ZM44.1201 66.1301C44.1201 66.1301 44.0701 66.1301 44.0401 66.1301C43.2401 66.0201 42.4801 65.8901 41.7801 65.7401C41.4601 65.6701 41.2501 65.3501 41.3201 65.0301C41.3901 64.7001 41.7201 64.5001 42.0301 64.5701C42.7001 64.7101 43.4301 64.8401 44.2001 64.9401C44.5301 64.9801 44.7601 65.2901 44.7101 65.6201C44.6701 65.9201 44.4101 66.1401 44.1201 66.1401V66.1301Z" fill="black"/>
<path d="M59.75 65.3201C59.49 65.3201 59.26 65.1501 59.18 64.9001C59.08 64.5801 59.26 64.2501 59.58 64.1501C59.97 64.0301 60.33 63.9001 60.65 63.7701C60.95 63.6401 61.31 63.7801 61.44 64.0901C61.57 64.4001 61.43 64.7501 61.12 64.8801C60.76 65.0301 60.37 65.1701 59.93 65.3101C59.87 65.3301 59.81 65.3401 59.75 65.3401V65.3201Z" fill="black"/>
</g>
<defs>
<filter id="filter0_f_40702_25455" x="-282.292" y="-91.609" width="549.207" height="549.207" filterUnits="userSpaceOnUse" color-interpolation-filters="sRGB">
<feFlood flood-opacity="0" result="BackgroundImageFix"/>
<feBlend mode="normal" in="SourceGraphic" in2="BackgroundImageFix" result="shape"/>
<feGaussianBlur stdDeviation="102.214" result="effect1_foregroundBlur_40702_25455"/>
</filter>
<filter id="filter1_f_40702_25455" x="-369.886" y="-268.443" width="757.396" height="757.396" filterUnits="userSpaceOnUse" color-interpolation-filters="sRGB">
<feFlood flood-opacity="0" result="BackgroundImageFix"/>
<feBlend mode="normal" in="SourceGraphic" in2="BackgroundImageFix" result="shape"/>
<feGaussianBlur stdDeviation="91.4625" result="effect1_foregroundBlur_40702_25455"/>
</filter>
<filter id="filter2_f_40702_25455" x="-64.6072" y="-149.902" width="338.44" height="338.266" filterUnits="userSpaceOnUse" color-interpolation-filters="sRGB">
<feFlood flood-opacity="0" result="BackgroundImageFix"/>
<feBlend mode="normal" in="SourceGraphic" in2="BackgroundImageFix" result="shape"/>
<feGaussianBlur stdDeviation="46.7516" result="effect1_foregroundBlur_40702_25455"/>
</filter>
<filter id="filter3_f_40702_25455" x="-105.758" y="-31.7938" width="450.804" height="450.804" filterUnits="userSpaceOnUse" color-interpolation-filters="sRGB">
<feFlood flood-opacity="0" result="BackgroundImageFix"/>
<feBlend mode="normal" in="SourceGraphic" in2="BackgroundImageFix" result="shape"/>
<feGaussianBlur stdDeviation="76.4113" result="effect1_foregroundBlur_40702_25455"/>
</filter>
<clipPath id="clip0_40702_25455">
<rect width="60" height="60" fill="white" transform="translate(20 20)"/>
</clipPath>
</defs>
</svg>
