<svg width="100" height="100" viewBox="0 0 100 100" fill="none" xmlns="http://www.w3.org/2000/svg">
<mask id="mask0_40701_25036" style="mask-type:alpha" maskUnits="userSpaceOnUse" x="0" y="0" width="100" height="100">
<circle cx="50" cy="50" r="50" fill="#D9D9D9"/>
</mask>
<g mask="url(#mask0_40701_25036)">
<g filter="url(#filter0_f_40701_25036)">
<ellipse cx="-7.68829" cy="182.995" rx="70.1648" ry="70.1648" transform="rotate(-30 -7.68829 182.995)" fill="#00FFD3"/>
</g>
<g filter="url(#filter1_f_40701_25036)">
<path d="M178.328 12.3851C232.381 106.006 200.304 225.719 106.682 279.771C13.0611 333.824 -106.652 301.747 -160.704 208.126C-214.756 114.504 -182.679 -5.20861 -89.058 -59.2608C4.56315 -113.313 124.276 -81.2361 178.328 12.3851Z" fill="#00F6FF"/>
</g>
<g filter="url(#filter2_f_40701_25036)">
<ellipse cx="104.613" cy="19.2313" rx="75.7477" ry="75.5739" transform="rotate(-30 104.613 19.2313)" fill="#C3A6FF"/>
</g>
<g filter="url(#filter3_f_40701_25036)">
<circle cx="119.644" cy="193.608" r="72.5673" transform="rotate(-30 119.644 193.608)" fill="#00FFD3"/>
</g>
<g clip-path="url(#clip0_40701_25036)">
<rect width="232.143" height="214.286" transform="translate(-90.0078 -7.13281)" fill="black"/>
<g filter="url(#filter4_f_40701_25036)">
<ellipse cx="39.0276" cy="264.365" rx="102.616" ry="102.616" transform="rotate(-30 39.0276 264.365)" fill="#00FFD3"/>
</g>
<g filter="url(#filter5_f_40701_25036)">
<ellipse cx="63.1581" cy="157.985" rx="286.27" ry="286.27" transform="rotate(-30 63.1581 157.985)" fill="#FF7701"/>
</g>
<g filter="url(#filter6_f_40701_25036)">
<ellipse cx="104.027" cy="157.547" rx="110.781" ry="110.527" transform="rotate(-30 104.027 157.547)" fill="#FF4B9B"/>
</g>
<g filter="url(#filter7_f_40701_25036)">
<ellipse cx="281.617" cy="18.6098" rx="110.781" ry="110.527" transform="rotate(-30 281.617 18.6098)" fill="#FF4B9B"/>
</g>
<g filter="url(#filter8_f_40701_25036)">
<ellipse cx="225.245" cy="279.916" rx="106.13" ry="106.13" transform="rotate(-30 225.245 279.916)" fill="#E26CFF"/>
</g>
</g>
</g>
<g clip-path="url(#clip1_40701_25036)">
<path d="M49.9901 76.0099C49.8101 76.0099 49.6301 75.9299 49.5201 75.7799L34.4001 56.8199H34.3901C24.1801 43.1799 34.3201 31.4399 34.4201 31.3199C38.5201 26.3499 44.5701 23.6799 51.0301 23.9999C61.2901 24.5099 69.7001 32.9499 70.1701 43.1999C70.3201 46.2399 69.8001 49.1599 68.6501 51.9099C68.0001 53.4599 67.0601 54.9999 65.7701 56.6199L50.4701 75.7699C50.3601 75.9099 50.1801 75.9899 50.0001 75.9899L49.9901 76.0099ZM35.3401 56.0899L49.9901 74.4499L64.8301 55.8899C66.0501 54.3599 66.9401 52.9099 67.5401 51.4599C68.6301 48.8799 69.1101 46.1299 68.9701 43.2799C68.5301 33.6299 60.6201 25.6999 50.9701 25.2199C44.8901 24.9099 39.2001 27.4299 35.3401 32.1199C34.9301 32.5799 25.7401 43.2699 35.3501 56.0899H35.3401Z" fill="black"/>
<path d="M50 57.3301C43.25 57.3301 37.77 51.77 37.77 44.94C37.77 38.11 43.26 32.55 50 32.55C56.74 32.55 62.23 38.11 62.23 44.94C62.23 51.77 56.74 57.3301 50 57.3301ZM50 33.76C43.92 33.76 38.97 38.78 38.97 44.95C38.97 51.12 43.92 56.14 50 56.14C56.08 56.14 61.03 51.12 61.03 44.95C61.03 38.78 56.08 33.76 50 33.76Z" fill="black"/>
<path d="M40.3602 43.37C40.1502 43.37 39.9502 43.26 39.8402 43.07C39.6802 42.78 39.7802 42.41 40.0702 42.25C40.4202 42.05 40.8002 41.87 41.2202 41.7C41.5302 41.57 41.8802 41.72 42.0002 42.03C42.1302 42.34 41.9802 42.69 41.6702 42.81C41.3002 42.96 40.9602 43.13 40.6602 43.3C40.5702 43.35 40.4602 43.38 40.3702 43.38L40.3602 43.37Z" fill="black"/>
<path d="M43.7602 42.1099C43.4902 42.1099 43.2402 41.9299 43.1802 41.6499C43.1002 41.3299 43.3002 40.9999 43.6202 40.9299C44.4002 40.7399 45.2302 40.5899 46.0902 40.4699C46.4102 40.4199 46.7202 40.6599 46.7602 40.9899C46.8002 41.3199 46.5702 41.6199 46.2402 41.6599C45.4202 41.7699 44.6402 41.9099 43.9002 42.0899C43.8502 42.0999 43.8102 42.1099 43.7602 42.1099ZM55.8902 42.0299C55.8902 42.0299 55.8002 42.0299 55.7602 42.0199C55.0202 41.8499 54.2302 41.7199 53.4102 41.6199C53.0802 41.5799 52.8502 41.2799 52.8902 40.9499C52.9302 40.6199 53.2302 40.3899 53.5602 40.4299C54.4202 40.5299 55.2502 40.6699 56.0302 40.8499C56.3502 40.9199 56.5602 41.2399 56.4902 41.5699C56.4302 41.8499 56.1802 42.0399 55.9102 42.0399L55.8902 42.0299ZM48.6002 41.4499C48.2802 41.4499 48.0202 41.1999 48.0002 40.8799C47.9802 40.5499 48.2402 40.2699 48.5702 40.2499C49.3902 40.2099 50.2402 40.2099 51.0602 40.2399C51.3902 40.2499 51.6502 40.5299 51.6402 40.8599C51.6302 41.1899 51.3202 41.4099 51.0202 41.4399C50.2302 41.4099 49.4102 41.4199 48.6302 41.4499H48.6002Z" fill="black"/>
<path d="M59.34 43.2098C59.25 43.2098 59.15 43.1898 59.07 43.1398C58.75 42.9798 58.41 42.8198 58.03 42.6798C57.72 42.5598 57.57 42.2098 57.68 41.8998C57.8 41.5898 58.15 41.4398 58.46 41.5498C58.88 41.7098 59.26 41.8798 59.61 42.0598C59.9 42.2098 60.02 42.5698 59.87 42.8698C59.76 43.0798 59.55 43.1998 59.34 43.1998V43.2098Z" fill="black"/>
<path d="M41.7301 48.8399C41.6501 48.8399 41.5701 48.8199 41.4901 48.7899C41.0801 48.6099 40.7001 48.4199 40.3601 48.2199C40.0701 48.0499 39.9701 47.6899 40.1401 47.3999C40.3001 47.1099 40.6701 47.0099 40.9601 47.1799C41.2701 47.3599 41.6101 47.5299 41.9701 47.6899C42.2701 47.8199 42.4101 48.1799 42.2801 48.4799C42.1801 48.7099 41.9601 48.8399 41.7301 48.8399Z" fill="black"/>
<path d="M50.0001 50.2898C49.5701 50.2898 49.1501 50.2898 48.7301 50.2598C48.4001 50.2498 48.1401 49.9698 48.1501 49.6398C48.1601 49.3098 48.4201 49.0598 48.7701 49.0598C49.5401 49.0898 50.3501 49.0898 51.1201 49.0598C51.4401 49.0498 51.7301 49.3098 51.7401 49.6398C51.7501 49.9698 51.4901 50.2498 51.1601 50.2598C50.7701 50.2698 50.3801 50.2798 49.9801 50.2798L50.0001 50.2898ZM53.5501 50.0798C53.2501 50.0798 52.9901 49.8598 52.9601 49.5498C52.9201 49.2198 53.1501 48.9198 53.4801 48.8798C54.2801 48.7798 55.0601 48.6498 55.7901 48.4898C56.1101 48.4098 56.4301 48.6198 56.5101 48.9398C56.5801 49.2598 56.3801 49.5798 56.0601 49.6598C55.2901 49.8298 54.4801 49.9698 53.6301 50.0798C53.6101 50.0798 53.5801 50.0798 53.5601 50.0798H53.5501ZM46.3601 50.0598C46.3601 50.0598 46.3101 50.0598 46.2801 50.0598C45.4201 49.9398 44.6101 49.7898 43.8501 49.5898C43.5301 49.5098 43.3401 49.1798 43.4201 48.8598C43.5001 48.5398 43.8301 48.3398 44.1501 48.4298C44.8601 48.6098 45.6301 48.7598 46.4401 48.8698C46.7701 48.9098 47.0001 49.2198 46.9501 49.5498C46.9101 49.8498 46.6501 50.0698 46.3601 50.0698V50.0598Z" fill="black"/>
<path d="M58.2401 48.9899C58.0001 48.9899 57.7701 48.8399 57.6801 48.5999C57.5601 48.2899 57.7201 47.9399 58.0301 47.8199C58.4001 47.6799 58.7501 47.5199 59.0701 47.3599C59.3601 47.2099 59.7301 47.3199 59.8801 47.6199C60.0301 47.9099 59.9101 48.2799 59.6201 48.4299C59.2701 48.6099 58.8801 48.7799 58.4701 48.9399C58.4001 48.9699 58.3301 48.9799 58.2601 48.9799L58.2401 48.9899Z" fill="black"/>
</g>
<defs>
<filter id="filter0_f_40701_25036" x="-282.292" y="-91.609" width="549.207" height="549.207" filterUnits="userSpaceOnUse" color-interpolation-filters="sRGB">
<feFlood flood-opacity="0" result="BackgroundImageFix"/>
<feBlend mode="normal" in="SourceGraphic" in2="BackgroundImageFix" result="shape"/>
<feGaussianBlur stdDeviation="102.214" result="effect1_foregroundBlur_40701_25036"/>
</filter>
<filter id="filter1_f_40701_25036" x="-369.886" y="-268.443" width="757.396" height="757.396" filterUnits="userSpaceOnUse" color-interpolation-filters="sRGB">
<feFlood flood-opacity="0" result="BackgroundImageFix"/>
<feBlend mode="normal" in="SourceGraphic" in2="BackgroundImageFix" result="shape"/>
<feGaussianBlur stdDeviation="91.4625" result="effect1_foregroundBlur_40701_25036"/>
</filter>
<filter id="filter2_f_40701_25036" x="-64.6072" y="-149.902" width="338.44" height="338.266" filterUnits="userSpaceOnUse" color-interpolation-filters="sRGB">
<feFlood flood-opacity="0" result="BackgroundImageFix"/>
<feBlend mode="normal" in="SourceGraphic" in2="BackgroundImageFix" result="shape"/>
<feGaussianBlur stdDeviation="46.7516" result="effect1_foregroundBlur_40701_25036"/>
</filter>
<filter id="filter3_f_40701_25036" x="-105.758" y="-31.7938" width="450.804" height="450.804" filterUnits="userSpaceOnUse" color-interpolation-filters="sRGB">
<feFlood flood-opacity="0" result="BackgroundImageFix"/>
<feBlend mode="normal" in="SourceGraphic" in2="BackgroundImageFix" result="shape"/>
<feGaussianBlur stdDeviation="76.4113" result="effect1_foregroundBlur_40701_25036"/>
</filter>
<filter id="filter4_f_40701_25036" x="-268.033" y="-42.6954" width="614.12" height="614.12" filterUnits="userSpaceOnUse" color-interpolation-filters="sRGB">
<feFlood flood-opacity="0" result="BackgroundImageFix"/>
<feBlend mode="normal" in="SourceGraphic" in2="BackgroundImageFix" result="shape"/>
<feGaussianBlur stdDeviation="102.214" result="effect1_foregroundBlur_40701_25036"/>
</filter>
<filter id="filter5_f_40701_25036" x="-406.085" y="-311.258" width="938.486" height="938.486" filterUnits="userSpaceOnUse" color-interpolation-filters="sRGB">
<feFlood flood-opacity="0" result="BackgroundImageFix"/>
<feBlend mode="normal" in="SourceGraphic" in2="BackgroundImageFix" result="shape"/>
<feGaussianBlur stdDeviation="91.4625" result="effect1_foregroundBlur_40701_25036"/>
</filter>
<filter id="filter6_f_40701_25036" x="-100.213" y="-46.5647" width="408.479" height="408.224" filterUnits="userSpaceOnUse" color-interpolation-filters="sRGB">
<feFlood flood-opacity="0" result="BackgroundImageFix"/>
<feBlend mode="normal" in="SourceGraphic" in2="BackgroundImageFix" result="shape"/>
<feGaussianBlur stdDeviation="46.7516" result="effect1_foregroundBlur_40701_25036"/>
</filter>
<filter id="filter7_f_40701_25036" x="77.3772" y="-185.502" width="408.479" height="408.224" filterUnits="userSpaceOnUse" color-interpolation-filters="sRGB">
<feFlood flood-opacity="0" result="BackgroundImageFix"/>
<feBlend mode="normal" in="SourceGraphic" in2="BackgroundImageFix" result="shape"/>
<feGaussianBlur stdDeviation="46.7516" result="effect1_foregroundBlur_40701_25036"/>
</filter>
<filter id="filter8_f_40701_25036" x="-33.7245" y="20.9464" width="517.94" height="517.94" filterUnits="userSpaceOnUse" color-interpolation-filters="sRGB">
<feFlood flood-opacity="0" result="BackgroundImageFix"/>
<feBlend mode="normal" in="SourceGraphic" in2="BackgroundImageFix" result="shape"/>
<feGaussianBlur stdDeviation="76.4113" result="effect1_foregroundBlur_40701_25036"/>
</filter>
<clipPath id="clip0_40701_25036">
<rect width="232.143" height="214.286" fill="white" transform="translate(-90.0078 -7.13281)"/>
</clipPath>
<clipPath id="clip1_40701_25036">
<rect width="60" height="60" fill="white" transform="translate(20 20)"/>
</clipPath>
</defs>
</svg>
