<svg width="100" height="100" viewBox="0 0 100 100" fill="none" xmlns="http://www.w3.org/2000/svg">
<mask id="mask0_40701_25089" style="mask-type:alpha" maskUnits="userSpaceOnUse" x="0" y="0" width="100" height="100">
<circle cx="50" cy="50" r="50" fill="#D9D9D9"/>
</mask>
<g mask="url(#mask0_40701_25089)">
<g filter="url(#filter0_f_40701_25089)">
<ellipse cx="-7.68829" cy="182.995" rx="70.1648" ry="70.1648" transform="rotate(-30 -7.68829 182.995)" fill="#00FFD3"/>
</g>
<g filter="url(#filter1_f_40701_25089)">
<path d="M178.328 12.3851C232.381 106.006 200.304 225.719 106.682 279.771C13.0611 333.824 -106.652 301.747 -160.704 208.126C-214.756 114.504 -182.679 -5.20861 -89.058 -59.2608C4.56315 -113.313 124.276 -81.2361 178.328 12.3851Z" fill="#00F6FF"/>
</g>
<g filter="url(#filter2_f_40701_25089)">
<ellipse cx="104.613" cy="19.2313" rx="75.7477" ry="75.5739" transform="rotate(-30 104.613 19.2313)" fill="#C3A6FF"/>
</g>
<g filter="url(#filter3_f_40701_25089)">
<circle cx="119.644" cy="193.608" r="72.5673" transform="rotate(-30 119.644 193.608)" fill="#00FFD3"/>
</g>
<g clip-path="url(#clip0_40701_25089)">
<rect width="232.143" height="214.286" transform="translate(-114 -38)" fill="black"/>
<g filter="url(#filter4_f_40701_25089)">
<ellipse cx="15.0354" cy="233.498" rx="102.616" ry="102.616" transform="rotate(-30 15.0354 233.498)" fill="#00FFD3"/>
</g>
<g filter="url(#filter5_f_40701_25089)">
<ellipse cx="39.1698" cy="127.118" rx="286.27" ry="286.27" transform="rotate(-30 39.1698 127.118)" fill="#AC8EFF"/>
</g>
<g filter="url(#filter6_f_40701_25089)">
<ellipse cx="201.879" cy="51.0871" rx="117.393" ry="117.123" transform="rotate(-30 201.879 51.0871)" fill="#39C4FF"/>
</g>
<g filter="url(#filter7_f_40701_25089)">
<ellipse cx="201.261" cy="275.159" rx="106.13" ry="106.13" transform="rotate(-30 201.261 275.159)" fill="#5463ED"/>
</g>
</g>
<g clip-path="url(#clip1_40701_25089)">
<path d="M31.7101 61.29C31.5801 61.29 31.4401 61.25 31.3301 61.16C31.0701 60.95 31.0301 60.57 31.2401 60.32L32.1201 59.24C32.3301 58.98 32.7101 58.95 32.9601 59.15C33.2201 59.36 33.2601 59.74 33.0501 59.99L32.1701 61.07C32.0501 61.22 31.8801 61.29 31.7101 61.29Z" fill="black"/>
<path d="M34.63 57.6999C34.5 57.6999 34.36 57.6599 34.25 57.5699C33.99 57.3599 33.95 56.9799 34.16 56.7299L36.2 54.2299C36.41 53.9699 36.79 53.9299 37.04 54.1399C37.3 54.3499 37.34 54.7299 37.13 54.9799L35.09 57.4799C34.97 57.6299 34.8 57.6999 34.63 57.6999ZM38.71 52.6899C38.58 52.6899 38.44 52.6499 38.33 52.5599C38.07 52.3499 38.03 51.9699 38.24 51.7199L40.28 49.2199C40.49 48.9599 40.87 48.9299 41.12 49.1299C41.38 49.3399 41.42 49.7199 41.21 49.9699L39.17 52.4699C39.05 52.6199 38.88 52.6899 38.71 52.6899Z" fill="black"/>
<path d="M42.7999 47.6898C42.6699 47.6898 42.5299 47.6498 42.4199 47.5598C42.1599 47.3498 42.1199 46.9698 42.3299 46.7198L43.2099 45.6398C43.4199 45.3898 43.7899 45.3498 44.0399 45.5398L45.1499 46.3998C45.4099 46.5998 45.4599 46.9798 45.2599 47.2398C45.0599 47.4998 44.6799 47.5498 44.4199 47.3498L43.7699 46.8498L43.2499 47.4798C43.1299 47.6298 42.9599 47.6998 42.7899 47.6998L42.7999 47.6898Z" fill="black"/>
<path d="M50.0999 51.5598C49.9699 51.5598 49.8399 51.5198 49.7299 51.4398L47.0799 49.3898C46.8199 49.1898 46.7699 48.8098 46.9699 48.5498C47.1699 48.2898 47.5499 48.2398 47.8099 48.4398L50.4599 50.4898C50.7199 50.6898 50.7699 51.0698 50.5699 51.3298C50.4499 51.4798 50.2699 51.5598 50.0999 51.5598Z" fill="black"/>
<path d="M53.8602 54.46C53.7302 54.46 53.6002 54.42 53.4902 54.34L52.3802 53.48C52.1202 53.28 52.0702 52.9 52.2702 52.64C52.4702 52.38 52.8502 52.33 53.1102 52.53L53.7702 53.04L54.3302 52.41C54.5502 52.16 54.9302 52.14 55.1802 52.36C55.4302 52.58 55.4502 52.96 55.2302 53.21L54.3002 54.26C54.1802 54.39 54.0202 54.46 53.8502 54.46H53.8602Z" fill="black"/>
<path d="M56.57 51.42C56.43 51.42 56.29 51.37 56.17 51.27C55.92 51.05 55.9 50.67 56.12 50.42L57.9 48.42C58.12 48.17 58.5 48.15 58.75 48.37C59 48.59 59.02 48.97 58.8 49.22L57.02 51.22C56.9 51.35 56.74 51.42 56.57 51.42ZM60.12 47.42C59.98 47.42 59.84 47.37 59.72 47.27C59.47 47.05 59.45 46.67 59.67 46.42L61.45 44.42C61.67 44.17 62.05 44.15 62.3 44.37C62.55 44.59 62.57 44.97 62.35 45.22L60.57 47.22C60.45 47.35 60.29 47.42 60.12 47.42ZM63.67 43.42C63.53 43.42 63.39 43.37 63.27 43.27C63.02 43.05 63 42.67 63.22 42.42L65 40.42C65.22 40.17 65.6 40.15 65.85 40.37C66.1 40.59 66.12 40.97 65.9 41.22L64.12 43.22C64 43.35 63.84 43.42 63.67 43.42Z" fill="black"/>
<path d="M67.2399 39.4099C67.0999 39.4099 66.9599 39.3599 66.8399 39.2599C66.5899 39.0399 66.5699 38.6599 66.7899 38.4099L67.7199 37.3599C67.9399 37.1099 68.3199 37.0899 68.5699 37.3099C68.8199 37.5299 68.8399 37.9099 68.6199 38.1599L67.6899 39.2099C67.5699 39.3399 67.4099 39.4099 67.2399 39.4099Z" fill="black"/>
<path d="M72.5001 39.23C72.2901 39.23 72.0801 39.12 71.9701 38.91L69.8801 35.05L65.6901 34.92C65.3601 34.92 65.1001 34.63 65.1101 34.3C65.1101 33.98 65.3901 33.72 65.7101 33.72H65.7301L70.2601 33.86C70.4701 33.86 70.6701 33.99 70.7701 34.17L73.0201 38.33C73.1801 38.62 73.0701 38.99 72.7801 39.14C72.6901 39.19 72.5901 39.21 72.5001 39.21V39.23Z" fill="black"/>
<path d="M75.0901 72.2001H24.9101C24.5801 72.2001 24.3101 71.93 24.3101 71.6V28.4C24.3101 28.07 24.5801 27.8 24.9101 27.8C25.2401 27.8 25.5101 28.07 25.5101 28.4V71H75.0901C75.4201 71 75.6901 71.27 75.6901 71.6C75.6901 71.93 75.4201 72.2001 75.0901 72.2001Z" fill="black"/>
</g>
</g>
<defs>
<filter id="filter0_f_40701_25089" x="-282.292" y="-91.609" width="549.207" height="549.207" filterUnits="userSpaceOnUse" color-interpolation-filters="sRGB">
<feFlood flood-opacity="0" result="BackgroundImageFix"/>
<feBlend mode="normal" in="SourceGraphic" in2="BackgroundImageFix" result="shape"/>
<feGaussianBlur stdDeviation="102.214" result="effect1_foregroundBlur_40701_25089"/>
</filter>
<filter id="filter1_f_40701_25089" x="-369.886" y="-268.443" width="757.396" height="757.396" filterUnits="userSpaceOnUse" color-interpolation-filters="sRGB">
<feFlood flood-opacity="0" result="BackgroundImageFix"/>
<feBlend mode="normal" in="SourceGraphic" in2="BackgroundImageFix" result="shape"/>
<feGaussianBlur stdDeviation="91.4625" result="effect1_foregroundBlur_40701_25089"/>
</filter>
<filter id="filter2_f_40701_25089" x="-64.6072" y="-149.902" width="338.44" height="338.266" filterUnits="userSpaceOnUse" color-interpolation-filters="sRGB">
<feFlood flood-opacity="0" result="BackgroundImageFix"/>
<feBlend mode="normal" in="SourceGraphic" in2="BackgroundImageFix" result="shape"/>
<feGaussianBlur stdDeviation="46.7516" result="effect1_foregroundBlur_40701_25089"/>
</filter>
<filter id="filter3_f_40701_25089" x="-105.758" y="-31.7938" width="450.804" height="450.804" filterUnits="userSpaceOnUse" color-interpolation-filters="sRGB">
<feFlood flood-opacity="0" result="BackgroundImageFix"/>
<feBlend mode="normal" in="SourceGraphic" in2="BackgroundImageFix" result="shape"/>
<feGaussianBlur stdDeviation="76.4113" result="effect1_foregroundBlur_40701_25089"/>
</filter>
<filter id="filter4_f_40701_25089" x="-292.025" y="-73.5626" width="614.12" height="614.12" filterUnits="userSpaceOnUse" color-interpolation-filters="sRGB">
<feFlood flood-opacity="0" result="BackgroundImageFix"/>
<feBlend mode="normal" in="SourceGraphic" in2="BackgroundImageFix" result="shape"/>
<feGaussianBlur stdDeviation="102.214" result="effect1_foregroundBlur_40701_25089"/>
</filter>
<filter id="filter5_f_40701_25089" x="-430.073" y="-342.125" width="938.486" height="938.486" filterUnits="userSpaceOnUse" color-interpolation-filters="sRGB">
<feFlood flood-opacity="0" result="BackgroundImageFix"/>
<feBlend mode="normal" in="SourceGraphic" in2="BackgroundImageFix" result="shape"/>
<feGaussianBlur stdDeviation="91.4625" result="effect1_foregroundBlur_40701_25089"/>
</filter>
<filter id="filter6_f_40701_25089" x="-8.969" y="-159.626" width="421.696" height="421.427" filterUnits="userSpaceOnUse" color-interpolation-filters="sRGB">
<feFlood flood-opacity="0" result="BackgroundImageFix"/>
<feBlend mode="normal" in="SourceGraphic" in2="BackgroundImageFix" result="shape"/>
<feGaussianBlur stdDeviation="46.7516" result="effect1_foregroundBlur_40701_25089"/>
</filter>
<filter id="filter7_f_40701_25089" x="-57.7088" y="16.1886" width="517.94" height="517.94" filterUnits="userSpaceOnUse" color-interpolation-filters="sRGB">
<feFlood flood-opacity="0" result="BackgroundImageFix"/>
<feBlend mode="normal" in="SourceGraphic" in2="BackgroundImageFix" result="shape"/>
<feGaussianBlur stdDeviation="76.4113" result="effect1_foregroundBlur_40701_25089"/>
</filter>
<clipPath id="clip0_40701_25089">
<rect width="232.143" height="214.286" fill="white" transform="translate(-114 -38)"/>
</clipPath>
<clipPath id="clip1_40701_25089">
<rect width="60" height="60" fill="white" transform="translate(20 20)"/>
</clipPath>
</defs>
</svg>
