<svg width="100" height="100" viewBox="0 0 100 100" fill="none" xmlns="http://www.w3.org/2000/svg">
<mask id="mask0_1_169" style="mask-type:alpha" maskUnits="userSpaceOnUse" x="0" y="0" width="100" height="100">
<circle cx="50" cy="50" r="50" fill="#D9D9D9"/>
</mask>
<g mask="url(#mask0_1_169)">
<g filter="url(#filter0_f_1_169)">
<ellipse cx="-7.68829" cy="182.995" rx="70.1648" ry="70.1648" transform="rotate(-30 -7.68829 182.995)" fill="#00FFD3"/>
</g>
<g filter="url(#filter1_f_1_169)">
<path d="M178.328 12.3851C232.381 106.006 200.304 225.719 106.682 279.771C13.0611 333.824 -106.652 301.747 -160.704 208.126C-214.756 114.504 -182.679 -5.20861 -89.058 -59.2608C4.56316 -113.313 124.276 -81.2361 178.328 12.3851Z" fill="#00F6FF"/>
</g>
<g filter="url(#filter2_f_1_169)">
<ellipse cx="104.613" cy="19.2313" rx="75.7477" ry="75.5739" transform="rotate(-30 104.613 19.2313)" fill="#C3A6FF"/>
</g>
<g filter="url(#filter3_f_1_169)">
<circle cx="119.644" cy="193.608" r="72.5673" transform="rotate(-30 119.644 193.608)" fill="#00FFD3"/>
</g>
<g clip-path="url(#clip0_1_169)">
<rect width="232.143" height="214.286" transform="translate(-114 -38)" fill="white"/>
<g filter="url(#filter4_f_1_169)">
<ellipse cx="15.0354" cy="233.498" rx="102.616" ry="102.616" transform="rotate(-30 15.0354 233.498)" fill="#00FFD3"/>
</g>
<g filter="url(#filter5_f_1_169)">
<ellipse cx="39.1698" cy="127.118" rx="286.27" ry="286.27" transform="rotate(-30 39.1698 127.118)" fill="#AC8EFF"/>
</g>
<g filter="url(#filter6_f_1_169)">
<ellipse cx="201.879" cy="51.0871" rx="117.393" ry="117.123" transform="rotate(-30 201.879 51.0871)" fill="#39C4FF"/>
</g>
<g filter="url(#filter7_f_1_169)">
<ellipse cx="201.261" cy="275.159" rx="106.13" ry="106.13" transform="rotate(-30 201.261 275.159)" fill="#5463ED"/>
</g>
</g>
</g>
<g clip-path="url(#clip1_1_169)">
<path d="M66.91 38.88L69.86 37.73C70.22 37.59 70.4 37.18 70.26 36.82C70.12 36.46 69.71 36.28 69.35 36.42L66.4 37.57C66.04 37.71 65.86 38.12 66 38.48C66.11 38.76 66.37 38.93 66.65 38.93C66.73 38.93 66.82 38.91 66.9 38.88H66.91Z" fill="black"/>
<path d="M55.11 43.49L58.06 42.34C58.42 42.2 58.6 41.79 58.46 41.43C58.32 41.07 57.91 40.89 57.55 41.03L54.6 42.18C54.24 42.32 54.06 42.73 54.2 43.09C54.31 43.37 54.57 43.54 54.85 43.54C54.93 43.54 55.02 43.52 55.1 43.49H55.11Z" fill="black"/>
<path d="M72.55 36.62C72.63 36.62 72.72 36.6 72.8 36.57L75.75 35.42C76.11 35.28 76.29 34.87 76.15 34.51C76.01 34.15 75.6 33.97 75.24 34.11L72.29 35.26C71.93 35.4 71.75 35.81 71.89 36.17C72 36.45 72.26 36.62 72.54 36.62H72.55Z" fill="black"/>
<path d="M61.01 41.18L63.96 40.03C64.32 39.89 64.5 39.48 64.36 39.12C64.22 38.76 63.81 38.58 63.45 38.72L60.5 39.87C60.14 40.01 59.96 40.42 60.1 40.78C60.21 41.06 60.47 41.23 60.75 41.23C60.83 41.23 60.92 41.21 61 41.18H61.01Z" fill="black"/>
<path d="M80.34 32.45C80.34 32.45 80.31 32.45 80.29 32.43C80.22 32.35 80.14 32.28 80.03 32.23L50.39 20.05C50.22 19.98 50.03 19.98 49.86 20.05L20.43 32.24C20.43 32.24 20.38 32.27 20.36 32.29C20.34 32.29 20.32 32.29 20.3 32.31C20.28 32.32 20.28 32.34 20.26 32.35C20.2 32.4 20.16 32.45 20.12 32.51C20.1 32.54 20.08 32.56 20.07 32.59C20.03 32.68 20 32.78 20 32.89V67.01C20 67.3 20.18 67.56 20.44 67.66L49.64 79.2C49.71 79.24 49.78 79.27 49.86 79.29L50.47 79.53C50.6 79.67 50.78 79.75 50.97 79.75C51.06 79.75 51.15 79.73 51.24 79.7L52.72 79.09C53.08 78.94 53.25 78.53 53.1 78.18C52.95 77.82 52.54 77.65 52.19 77.8L51.06 78.26L50.73 78.13L50.95 45.13L52.18 44.65C52.54 44.51 52.72 44.1 52.58 43.74C52.44 43.38 52.03 43.2 51.67 43.34L50.52 43.79C50.52 43.79 50.52 43.79 50.5 43.79L22.58 32.87L50.12 21.46L78.16 32.99C77.83 33.14 77.66 33.53 77.8 33.87C77.94 34.23 78.35 34.41 78.71 34.27L79.25 34.06V34.64C79.25 35.03 79.56 35.34 79.95 35.34C80.34 35.34 80.65 35.03 80.65 34.64V33.04C80.65 32.81 80.54 32.59 80.34 32.46V32.45ZM49.32 77.56L21.4 66.53V33.91L49.53 44.9L49.32 77.56Z" fill="black"/>
<path d="M79.94 37.37C79.55 37.37 79.24 37.68 79.24 38.07V41.51C79.24 41.9 79.55 42.21 79.94 42.21C80.33 42.21 80.64 41.9 80.64 41.51V38.07C80.64 37.68 80.33 37.37 79.94 37.37Z" fill="black"/>
<path d="M79.94 57.98C79.55 57.98 79.24 58.29 79.24 58.68V62.12C79.24 62.51 79.55 62.82 79.94 62.82C80.33 62.82 80.64 62.51 80.64 62.12V58.68C80.64 58.29 80.33 57.98 79.94 57.98Z" fill="black"/>
<path d="M79.94 51.11C79.55 51.11 79.24 51.42 79.24 51.81V55.25C79.24 55.64 79.55 55.95 79.94 55.95C80.33 55.95 80.64 55.64 80.64 55.25V51.81C80.64 51.42 80.33 51.11 79.94 51.11Z" fill="black"/>
<path d="M79.94 44.24C79.55 44.24 79.24 44.55 79.24 44.94V48.38C79.24 48.77 79.55 49.08 79.94 49.08C80.33 49.08 80.64 48.77 80.64 48.38V44.94C80.64 44.55 80.33 44.24 79.94 44.24Z" fill="black"/>
<path d="M79.94 64.85C79.55 64.85 79.24 65.16 79.24 65.55V66.68L78.19 67.11C77.83 67.26 77.66 67.67 77.81 68.02C77.92 68.29 78.18 68.45 78.46 68.45C78.55 68.45 78.64 68.43 78.73 68.4L80.21 67.79C80.47 67.68 80.64 67.43 80.64 67.14V65.54C80.64 65.15 80.33 64.84 79.94 64.84V64.85Z" fill="black"/>
<path d="M75.31 68.3L72.42 69.49C72.06 69.64 71.89 70.05 72.04 70.4C72.15 70.67 72.41 70.83 72.69 70.83C72.78 70.83 72.87 70.81 72.96 70.78L75.85 69.59C76.21 69.44 76.38 69.03 76.23 68.68C76.08 68.32 75.67 68.15 75.32 68.3H75.31Z" fill="black"/>
<path d="M63.74 73.04L60.85 74.23C60.49 74.38 60.32 74.79 60.47 75.14C60.58 75.41 60.84 75.57 61.12 75.57C61.21 75.57 61.3 75.55 61.39 75.52L64.28 74.33C64.64 74.18 64.81 73.77 64.66 73.42C64.51 73.06 64.1 72.89 63.75 73.04H63.74Z" fill="black"/>
<path d="M57.96 75.42L55.07 76.61C54.71 76.76 54.54 77.17 54.69 77.52C54.8 77.79 55.06 77.95 55.34 77.95C55.43 77.95 55.52 77.93 55.61 77.9L58.5 76.71C58.86 76.56 59.03 76.15 58.88 75.8C58.73 75.44 58.32 75.27 57.97 75.42H57.96Z" fill="black"/>
<path d="M69.52 70.67L66.63 71.86C66.27 72.01 66.1 72.42 66.25 72.77C66.36 73.04 66.62 73.2 66.9 73.2C66.99 73.2 67.08 73.18 67.17 73.15L70.06 71.96C70.42 71.81 70.59 71.4 70.44 71.05C70.29 70.69 69.88 70.52 69.53 70.67H69.52Z" fill="black"/>
</g>
<defs>
<filter id="filter0_f_1_169" x="-282.292" y="-91.609" width="549.207" height="549.207" filterUnits="userSpaceOnUse" color-interpolation-filters="sRGB">
<feFlood flood-opacity="0" result="BackgroundImageFix"/>
<feBlend mode="normal" in="SourceGraphic" in2="BackgroundImageFix" result="shape"/>
<feGaussianBlur stdDeviation="102.214" result="effect1_foregroundBlur_1_169"/>
</filter>
<filter id="filter1_f_1_169" x="-369.886" y="-268.443" width="757.396" height="757.396" filterUnits="userSpaceOnUse" color-interpolation-filters="sRGB">
<feFlood flood-opacity="0" result="BackgroundImageFix"/>
<feBlend mode="normal" in="SourceGraphic" in2="BackgroundImageFix" result="shape"/>
<feGaussianBlur stdDeviation="91.4625" result="effect1_foregroundBlur_1_169"/>
</filter>
<filter id="filter2_f_1_169" x="-64.6072" y="-149.902" width="338.44" height="338.266" filterUnits="userSpaceOnUse" color-interpolation-filters="sRGB">
<feFlood flood-opacity="0" result="BackgroundImageFix"/>
<feBlend mode="normal" in="SourceGraphic" in2="BackgroundImageFix" result="shape"/>
<feGaussianBlur stdDeviation="46.7516" result="effect1_foregroundBlur_1_169"/>
</filter>
<filter id="filter3_f_1_169" x="-105.758" y="-31.7937" width="450.804" height="450.804" filterUnits="userSpaceOnUse" color-interpolation-filters="sRGB">
<feFlood flood-opacity="0" result="BackgroundImageFix"/>
<feBlend mode="normal" in="SourceGraphic" in2="BackgroundImageFix" result="shape"/>
<feGaussianBlur stdDeviation="76.4113" result="effect1_foregroundBlur_1_169"/>
</filter>
<filter id="filter4_f_1_169" x="-292.025" y="-73.5627" width="614.12" height="614.12" filterUnits="userSpaceOnUse" color-interpolation-filters="sRGB">
<feFlood flood-opacity="0" result="BackgroundImageFix"/>
<feBlend mode="normal" in="SourceGraphic" in2="BackgroundImageFix" result="shape"/>
<feGaussianBlur stdDeviation="102.214" result="effect1_foregroundBlur_1_169"/>
</filter>
<filter id="filter5_f_1_169" x="-430.073" y="-342.125" width="938.486" height="938.486" filterUnits="userSpaceOnUse" color-interpolation-filters="sRGB">
<feFlood flood-opacity="0" result="BackgroundImageFix"/>
<feBlend mode="normal" in="SourceGraphic" in2="BackgroundImageFix" result="shape"/>
<feGaussianBlur stdDeviation="91.4625" result="effect1_foregroundBlur_1_169"/>
</filter>
<filter id="filter6_f_1_169" x="-8.96922" y="-159.626" width="421.697" height="421.427" filterUnits="userSpaceOnUse" color-interpolation-filters="sRGB">
<feFlood flood-opacity="0" result="BackgroundImageFix"/>
<feBlend mode="normal" in="SourceGraphic" in2="BackgroundImageFix" result="shape"/>
<feGaussianBlur stdDeviation="46.7516" result="effect1_foregroundBlur_1_169"/>
</filter>
<filter id="filter7_f_1_169" x="-57.709" y="16.1886" width="517.94" height="517.94" filterUnits="userSpaceOnUse" color-interpolation-filters="sRGB">
<feFlood flood-opacity="0" result="BackgroundImageFix"/>
<feBlend mode="normal" in="SourceGraphic" in2="BackgroundImageFix" result="shape"/>
<feGaussianBlur stdDeviation="76.4113" result="effect1_foregroundBlur_1_169"/>
</filter>
<clipPath id="clip0_1_169">
<rect width="232.143" height="214.286" fill="white" transform="translate(-114 -38)"/>
</clipPath>
<clipPath id="clip1_1_169">
<rect width="60.64" height="59.74" fill="white" transform="translate(20 20)"/>
</clipPath>
</defs>
</svg>
