<svg width="100" height="100" viewBox="0 0 100 100" fill="none" xmlns="http://www.w3.org/2000/svg">
<mask id="mask0_1_205" style="mask-type:alpha" maskUnits="userSpaceOnUse" x="0" y="0" width="100" height="100">
<circle cx="50" cy="50" r="50" fill="#D9D9D9"/>
</mask>
<g mask="url(#mask0_1_205)">
<g filter="url(#filter0_f_1_205)">
<ellipse cx="-7.68829" cy="182.995" rx="70.1648" ry="70.1648" transform="rotate(-30 -7.68829 182.995)" fill="#00FFD3"/>
</g>
<g filter="url(#filter1_f_1_205)">
<path d="M178.328 12.3851C232.381 106.006 200.304 225.719 106.682 279.771C13.0611 333.824 -106.652 301.747 -160.704 208.126C-214.756 114.504 -182.679 -5.20861 -89.058 -59.2608C4.56316 -113.313 124.276 -81.2361 178.328 12.3851Z" fill="#00F6FF"/>
</g>
<g filter="url(#filter2_f_1_205)">
<ellipse cx="104.613" cy="19.2313" rx="75.7477" ry="75.5739" transform="rotate(-30 104.613 19.2313)" fill="#C3A6FF"/>
</g>
<g filter="url(#filter3_f_1_205)">
<circle cx="119.644" cy="193.608" r="72.5673" transform="rotate(-30 119.644 193.608)" fill="#00FFD3"/>
</g>
</g>
<g clip-path="url(#clip0_1_205)">
<path d="M53.38 77.41H47.98C47.59 77.41 47.28 77.72 47.28 78.11C47.28 78.5 47.59 78.81 47.98 78.81H53.38C53.77 78.81 54.08 78.5 54.08 78.11C54.08 77.72 53.77 77.41 53.38 77.41Z" fill="black"/>
<path d="M61.54 32.41L38.86 32.53C37.28 32.53 36 33.81 36 35.39V80.03C36 81.61 37.28 82.89 38.86 82.89H61.54C63.12 82.89 64.4 81.61 64.4 80.03V35.27C64.4 33.69 63.12 32.41 61.54 32.41ZM63 80.03C63 80.85 62.36 81.49 61.54 81.49H38.86C38.04 81.49 37.4 80.85 37.4 80.03V35.39C37.4 34.57 38.04 33.93 38.86 33.93L61.54 33.81C62.36 33.81 63 34.45 63 35.27V80.03Z" fill="black"/>
<path d="M40.67 24.67C40.38 24.93 40.36 25.37 40.62 25.66C40.76 25.81 40.95 25.89 41.14 25.89C41.31 25.89 41.47 25.83 41.61 25.71C45.97 21.79 53.02 20.27 58.91 25.71C59.19 25.97 59.64 25.95 59.9 25.67C60.16 25.39 60.14 24.94 59.86 24.68C53.32 18.65 45.51 20.33 40.68 24.68L40.67 24.67Z" fill="black"/>
<path d="M37.51 20.32C45.33 13.78 55.1 13.78 63.01 20.32C63.14 20.43 63.3 20.48 63.46 20.48C63.66 20.48 63.86 20.39 64 20.23C64.25 19.93 64.21 19.49 63.91 19.24C55.44 12.24 44.99 12.24 36.62 19.24C36.32 19.49 36.28 19.93 36.53 20.23C36.78 20.53 37.22 20.57 37.52 20.32H37.51Z" fill="black"/>
<path d="M46.23 48.32C47.09 47.93 47.69 47.16 47.86 46.25C48.02 45.39 47.76 44.55 47.13 43.92C46.26 43.15 44.79 43 43.85 42.99L44.05 41.18H46.78C47.17 41.18 47.48 40.87 47.48 40.48C47.48 40.09 47.17 39.78 46.78 39.78H43.42C43.06 39.78 42.76 40.05 42.72 40.4L42.36 43.64C42.34 43.85 42.41 44.06 42.56 44.21C42.71 44.36 42.92 44.44 43.12 44.42C43.98 44.34 45.57 44.42 46.16 44.94C46.43 45.21 46.55 45.6 46.48 46C46.4 46.46 46.09 46.85 45.66 47.04C44.43 47.57 43.44 46.72 43.41 46.69C43.12 46.43 42.68 46.45 42.42 46.74C42.16 47.03 42.18 47.47 42.47 47.73C42.52 47.78 43.47 48.62 44.85 48.62C45.28 48.62 45.74 48.54 46.23 48.33V48.32Z" fill="black"/>
<path d="M57.22 43.74H55.3C54.91 43.74 54.6 44.05 54.6 44.44C54.6 44.83 54.91 45.14 55.3 45.14H56.54C56.51 45.71 56.33 46.46 55.68 46.83C55.09 47.16 53.1 47.7 51.8 45.96C50.9 44.66 51.02 42.54 52.05 41.61C53.67 40.19 55.7 41.07 56.34 41.53C56.66 41.75 57.09 41.68 57.32 41.37C57.55 41.06 57.47 40.62 57.16 40.39C55.87 39.47 53.19 38.75 51.12 40.56C49.57 41.97 49.35 44.87 50.67 46.78C51.68 48.12 53.02 48.57 54.22 48.57C55.06 48.57 55.84 48.35 56.37 48.05C57.53 47.41 58.11 46.03 57.93 44.36C57.89 44.01 57.59 43.74 57.23 43.74H57.22Z" fill="black"/>
<path d="M40.54 55.4C39.97 55.6 39.45 55.82 38.98 56.05C38.63 56.22 38.49 56.64 38.67 56.99C38.79 57.24 39.04 57.38 39.3 57.38C39.4 57.38 39.51 57.36 39.61 57.31C40.02 57.1 40.49 56.91 41 56.73C41.37 56.6 41.56 56.2 41.43 55.84C41.3 55.48 40.9 55.28 40.54 55.41V55.4Z" fill="black"/>
<path d="M43.73 55.28C43.79 55.62 44.08 55.87 44.42 55.87C44.46 55.87 44.5 55.87 44.53 55.87C45.69 55.68 46.92 55.56 48.2 55.5C48.59 55.48 48.89 55.16 48.87 54.77C48.85 54.38 48.49 54.05 48.14 54.1C46.81 54.16 45.52 54.29 44.31 54.48C43.93 54.54 43.67 54.9 43.73 55.28Z" fill="black"/>
<path d="M55.81 54.57C54.6 54.36 53.31 54.21 51.99 54.13C51.63 54.13 51.27 54.4 51.25 54.79C51.23 55.18 51.52 55.51 51.91 55.53C53.18 55.61 54.41 55.75 55.57 55.95C55.61 55.95 55.65 55.96 55.69 55.96C56.02 55.96 56.32 55.72 56.38 55.38C56.45 55 56.19 54.64 55.81 54.57Z" fill="black"/>
<path d="M59.11 56.86C59.61 57.04 60.08 57.24 60.5 57.45C60.6 57.5 60.71 57.53 60.82 57.53C61.08 57.53 61.32 57.39 61.44 57.15C61.61 56.81 61.48 56.38 61.13 56.21C60.66 55.97 60.14 55.75 59.58 55.55C59.22 55.42 58.82 55.61 58.68 55.97C58.55 56.33 58.74 56.73 59.1 56.87L59.11 56.86Z" fill="black"/>
<path d="M41 62.08C40.5 61.9 40.03 61.69 39.61 61.48C39.26 61.3 38.84 61.44 38.67 61.78C38.49 62.12 38.63 62.55 38.97 62.72C39.44 62.96 39.96 63.18 40.51 63.39C40.59 63.42 40.67 63.43 40.75 63.43C41.04 63.43 41.3 63.25 41.41 62.97C41.54 62.61 41.36 62.21 40.99 62.07L41 62.08Z" fill="black"/>
<path d="M48.14 64.82C48.51 64.82 48.81 64.53 48.84 64.16C48.86 63.77 48.57 63.44 48.18 63.42C46.91 63.34 45.67 63.2 44.52 62.99C44.14 62.92 43.78 63.17 43.71 63.55C43.64 63.93 43.9 64.29 44.28 64.36C45.49 64.58 46.78 64.73 48.1 64.81C48.11 64.81 48.13 64.81 48.14 64.81V64.82Z" fill="black"/>
<path d="M55.55 63.11C54.39 63.29 53.16 63.41 51.88 63.46C51.49 63.48 51.19 63.8 51.21 64.19C51.22 64.57 51.54 64.86 51.91 64.86C51.91 64.86 51.93 64.86 51.94 64.86C53.27 64.81 54.56 64.68 55.77 64.49C56.15 64.43 56.41 64.07 56.35 63.69C56.29 63.31 55.93 63.04 55.55 63.11Z" fill="black"/>
<path d="M60.51 61.68C60.1 61.88 59.63 62.07 59.11 62.25C58.74 62.38 58.55 62.77 58.68 63.14C58.78 63.43 59.05 63.61 59.34 63.61C59.42 63.61 59.49 63.6 59.57 63.57C60.15 63.37 60.67 63.16 61.13 62.93C61.48 62.76 61.62 62.34 61.45 61.99C61.28 61.64 60.86 61.5 60.51 61.67V61.68Z" fill="black"/>
</g>
<defs>
<filter id="filter0_f_1_205" x="-282.292" y="-91.609" width="549.207" height="549.207" filterUnits="userSpaceOnUse" color-interpolation-filters="sRGB">
<feFlood flood-opacity="0" result="BackgroundImageFix"/>
<feBlend mode="normal" in="SourceGraphic" in2="BackgroundImageFix" result="shape"/>
<feGaussianBlur stdDeviation="102.214" result="effect1_foregroundBlur_1_205"/>
</filter>
<filter id="filter1_f_1_205" x="-369.886" y="-268.443" width="757.396" height="757.396" filterUnits="userSpaceOnUse" color-interpolation-filters="sRGB">
<feFlood flood-opacity="0" result="BackgroundImageFix"/>
<feBlend mode="normal" in="SourceGraphic" in2="BackgroundImageFix" result="shape"/>
<feGaussianBlur stdDeviation="91.4625" result="effect1_foregroundBlur_1_205"/>
</filter>
<filter id="filter2_f_1_205" x="-64.6072" y="-149.902" width="338.44" height="338.266" filterUnits="userSpaceOnUse" color-interpolation-filters="sRGB">
<feFlood flood-opacity="0" result="BackgroundImageFix"/>
<feBlend mode="normal" in="SourceGraphic" in2="BackgroundImageFix" result="shape"/>
<feGaussianBlur stdDeviation="46.7516" result="effect1_foregroundBlur_1_205"/>
</filter>
<filter id="filter3_f_1_205" x="-105.758" y="-31.7937" width="450.804" height="450.804" filterUnits="userSpaceOnUse" color-interpolation-filters="sRGB">
<feFlood flood-opacity="0" result="BackgroundImageFix"/>
<feBlend mode="normal" in="SourceGraphic" in2="BackgroundImageFix" result="shape"/>
<feGaussianBlur stdDeviation="76.4113" result="effect1_foregroundBlur_1_205"/>
</filter>
<clipPath id="clip0_1_205">
<rect width="28.4" height="68.89" fill="white" transform="translate(36 14)"/>
</clipPath>
</defs>
</svg>
