<svg width="100" height="100" viewBox="0 0 100 100" fill="none" xmlns="http://www.w3.org/2000/svg">
<mask id="mask0_11_2" style="mask-type:alpha" maskUnits="userSpaceOnUse" x="0" y="0" width="100" height="100">
<circle cx="50" cy="50" r="50" fill="#D9D9D9"/>
</mask>
<g mask="url(#mask0_11_2)">
<g filter="url(#filter0_f_11_2)">
<ellipse cx="-7.68829" cy="182.995" rx="70.1648" ry="70.1648" transform="rotate(-30 -7.68829 182.995)" fill="#00FFD3"/>
</g>
<g filter="url(#filter1_f_11_2)">
<path d="M178.328 12.3851C232.381 106.006 200.304 225.719 106.682 279.771C13.0611 333.824 -106.652 301.747 -160.704 208.126C-214.756 114.504 -182.679 -5.20861 -89.058 -59.2608C4.56315 -113.313 124.276 -81.2361 178.328 12.3851Z" fill="#00F6FF"/>
</g>
<g filter="url(#filter2_f_11_2)">
<ellipse cx="104.613" cy="19.2313" rx="75.7477" ry="75.5739" transform="rotate(-30 104.613 19.2313)" fill="#C3A6FF"/>
</g>
<g filter="url(#filter3_f_11_2)">
<circle cx="119.644" cy="193.608" r="72.5673" transform="rotate(-30 119.644 193.608)" fill="#00FFD3"/>
</g>
<g clip-path="url(#clip0_11_2)">
<rect width="232.143" height="214.286" transform="translate(-90.0078 -7.13281)" fill="white"/>
<g filter="url(#filter4_f_11_2)">
<ellipse cx="39.0276" cy="264.365" rx="102.616" ry="102.616" transform="rotate(-30 39.0276 264.365)" fill="#00FFD3"/>
</g>
<g filter="url(#filter5_f_11_2)">
<ellipse cx="63.1581" cy="157.985" rx="286.27" ry="286.27" transform="rotate(-30 63.1581 157.985)" fill="#FF7701"/>
</g>
<g filter="url(#filter6_f_11_2)">
<ellipse cx="104.027" cy="157.547" rx="110.781" ry="110.527" transform="rotate(-30 104.027 157.547)" fill="#FF4B9B"/>
</g>
<g filter="url(#filter7_f_11_2)">
<ellipse cx="281.617" cy="18.6098" rx="110.781" ry="110.527" transform="rotate(-30 281.617 18.6098)" fill="#FF4B9B"/>
</g>
<g filter="url(#filter8_f_11_2)">
<ellipse cx="225.245" cy="279.916" rx="106.13" ry="106.13" transform="rotate(-30 225.245 279.916)" fill="#E26CFF"/>
</g>
</g>
</g>
<g clip-path="url(#clip1_11_2)">
<path d="M76.33 30.3C76.33 30.3 76.3 30.28 76.29 30.27C75.04 28.88 73.23 28 71.22 28H35.72C33.56 28 29.64 30.32 26.6 33.4C24.86 35.15 23.64 36.93 22.98 38.61C22.75 39.15 22.59 39.73 22.5 40.33C22.5 40.37 22.49 40.41 22.48 40.46C22.45 40.74 22.42 41.02 22.42 41.31V51.61C18.23 53.41 16 55.59 16 57.94C16 64.61 33.35 68.61 50.12 68.63C50.12 68.63 50.16 68.62 50.18 68.62C50.2 68.62 50.22 68.63 50.24 68.63C50.63 68.63 51.01 68.63 51.4 68.63L46.35 74.02C46.09 74.3 46.1 74.74 46.38 75.01C46.51 75.14 46.69 75.2 46.86 75.2C47.05 75.2 47.23 75.13 47.37 74.98L53.51 68.43C53.77 68.15 53.76 67.72 53.49 67.46L47.35 61.31C47.08 61.04 46.63 61.04 46.36 61.31C46.09 61.58 46.09 62.03 46.36 62.3L51.3 67.24C50.94 67.24 50.59 67.24 50.23 67.24C50.21 67.24 50.19 67.25 50.17 67.25C50.15 67.25 50.13 67.24 50.11 67.24C30.54 67.22 17.39 62.42 17.39 57.95C17.39 56.31 19.19 54.61 22.45 53.13C22.8 56.57 25.72 59.26 29.25 59.26H41.35C42.74 59.26 43.87 58.13 43.87 56.74V55.53C43.87 54.26 44.9 53.23 46.17 53.23H47.7C48.97 53.23 50 54.26 50 55.53V56.73C50 58.12 51.13 59.25 52.52 59.25H64.75C64.79 59.25 64.84 59.25 64.88 59.25C65.29 59.25 65.7 59.2 66.11 59.11C66.12 59.11 66.13 59.11 66.14 59.11C66.32 59.07 66.49 59.03 66.67 58.97C66.74 58.95 66.82 58.92 66.89 58.9C69.13 58.16 71.19 56.42 72.39 55.26C73.42 54.26 74.38 53.15 75.2 52.03C75.62 52.17 76.05 52.32 76.45 52.47C76.53 52.5 76.62 52.52 76.7 52.52C76.98 52.52 77.25 52.35 77.35 52.07C77.49 51.71 77.31 51.3 76.95 51.17C76.66 51.06 76.34 50.95 76.03 50.85C77.26 48.96 78.03 47.16 78.03 45.97V34.84C78.03 33.12 77.39 31.55 76.33 30.35C76.32 30.34 76.31 30.32 76.3 30.3H76.33ZM51.41 56.72V55.52C51.41 53.48 49.75 51.82 47.71 51.82H46.18C44.14 51.82 42.48 53.48 42.48 55.52V56.73C42.48 57.35 41.98 57.85 41.36 57.85H29.26C26.26 57.85 23.82 55.41 23.82 52.41V41.3C23.82 41.3 23.82 41.29 23.82 41.28C23.82 41.06 23.84 40.83 23.87 40.6C23.87 40.55 23.88 40.5 23.89 40.46C23.96 40.05 24.09 39.62 24.25 39.17C25.08 37.23 27.01 35.87 29.25 35.87H64.75C67.75 35.87 70.19 38.31 70.19 41.31V52.42C70.19 54.96 68.44 57.09 66.09 57.68C65.99 57.71 65.89 57.73 65.79 57.75C65.65 57.78 65.52 57.8 65.38 57.81C65.31 57.81 65.25 57.82 65.18 57.83C65.04 57.84 64.9 57.85 64.76 57.85H52.53C51.91 57.85 51.41 57.35 51.41 56.73V56.72ZM76.66 45.95C76.66 46.93 75.84 48.75 74.46 50.71C74.44 50.73 74.43 50.75 74.41 50.77C73.59 51.93 72.59 53.13 71.44 54.24C71.4 54.28 71.35 54.32 71.31 54.36C71.5 53.74 71.6 53.08 71.6 52.4V41.29C71.6 37.52 68.53 34.45 64.76 34.45H29.26C28.55 34.45 27.87 34.56 27.23 34.76C27.35 34.63 27.46 34.5 27.59 34.37C30.64 31.29 34.18 29.39 35.72 29.39H71.22C72.59 29.39 73.84 29.91 74.8 30.75L71.3 33.99C71.02 34.25 71 34.7 71.26 34.98C71.4 35.13 71.59 35.2 71.77 35.2C71.94 35.2 72.11 35.14 72.25 35.01L75.73 31.79C76.31 32.66 76.66 33.7 76.66 34.82V45.93V45.95Z" fill="black"/>
<path d="M68.17 65.66C66.9 65.9 65.57 66.12 64.19 66.31C63.81 66.36 63.54 66.72 63.59 67.1C63.64 67.45 63.94 67.7 64.28 67.7C64.31 67.7 64.34 67.7 64.38 67.7C65.77 67.51 67.14 67.29 68.43 67.04C68.81 66.97 69.06 66.6 68.99 66.22C68.92 65.84 68.55 65.59 68.17 65.66Z" fill="black"/>
<path d="M60.18 66.77C58.86 66.89 57.51 66.99 56.15 67.06C55.76 67.08 55.47 67.41 55.49 67.8C55.51 68.17 55.82 68.46 56.19 68.46C56.2 68.46 56.22 68.46 56.23 68.46C57.6 68.39 58.98 68.29 60.31 68.16C60.7 68.12 60.98 67.78 60.94 67.4C60.9 67.02 60.55 66.72 60.18 66.77Z" fill="black"/>
<path d="M82.43 59.67C81.84 60.47 80.86 61.26 79.52 62.01C79.18 62.2 79.06 62.63 79.25 62.96C79.38 63.19 79.62 63.32 79.86 63.32C79.98 63.32 80.09 63.29 80.2 63.23C81.72 62.38 82.85 61.46 83.56 60.5C83.79 60.19 83.72 59.75 83.41 59.52C83.1 59.29 82.66 59.36 82.43 59.67Z" fill="black"/>
<path d="M83.94 55.95C83.35 54.89 82.28 53.88 80.75 52.95C80.42 52.75 79.99 52.85 79.79 53.18C79.59 53.51 79.69 53.94 80.02 54.14C81.34 54.94 82.24 55.78 82.71 56.62C82.84 56.85 83.08 56.98 83.32 56.98C83.43 56.98 83.55 56.95 83.66 56.89C84 56.7 84.12 56.28 83.93 55.94L83.94 55.95Z" fill="black"/>
<path d="M75.91 63.61C74.75 64.03 73.46 64.42 72.09 64.78C71.72 64.88 71.49 65.26 71.59 65.63C71.67 65.95 71.96 66.15 72.27 66.15C72.33 66.15 72.39 66.15 72.45 66.13C73.87 65.76 75.2 65.36 76.4 64.92C76.76 64.79 76.95 64.39 76.82 64.02C76.69 63.66 76.29 63.47 75.92 63.6L75.91 63.61Z" fill="black"/>
</g>
<defs>
<filter id="filter0_f_11_2" x="-282.292" y="-91.609" width="549.207" height="549.207" filterUnits="userSpaceOnUse" color-interpolation-filters="sRGB">
<feFlood flood-opacity="0" result="BackgroundImageFix"/>
<feBlend mode="normal" in="SourceGraphic" in2="BackgroundImageFix" result="shape"/>
<feGaussianBlur stdDeviation="102.214" result="effect1_foregroundBlur_11_2"/>
</filter>
<filter id="filter1_f_11_2" x="-369.886" y="-268.443" width="757.396" height="757.396" filterUnits="userSpaceOnUse" color-interpolation-filters="sRGB">
<feFlood flood-opacity="0" result="BackgroundImageFix"/>
<feBlend mode="normal" in="SourceGraphic" in2="BackgroundImageFix" result="shape"/>
<feGaussianBlur stdDeviation="91.4625" result="effect1_foregroundBlur_11_2"/>
</filter>
<filter id="filter2_f_11_2" x="-64.6072" y="-149.902" width="338.44" height="338.266" filterUnits="userSpaceOnUse" color-interpolation-filters="sRGB">
<feFlood flood-opacity="0" result="BackgroundImageFix"/>
<feBlend mode="normal" in="SourceGraphic" in2="BackgroundImageFix" result="shape"/>
<feGaussianBlur stdDeviation="46.7516" result="effect1_foregroundBlur_11_2"/>
</filter>
<filter id="filter3_f_11_2" x="-105.758" y="-31.7937" width="450.804" height="450.804" filterUnits="userSpaceOnUse" color-interpolation-filters="sRGB">
<feFlood flood-opacity="0" result="BackgroundImageFix"/>
<feBlend mode="normal" in="SourceGraphic" in2="BackgroundImageFix" result="shape"/>
<feGaussianBlur stdDeviation="76.4113" result="effect1_foregroundBlur_11_2"/>
</filter>
<filter id="filter4_f_11_2" x="-268.033" y="-42.6955" width="614.12" height="614.12" filterUnits="userSpaceOnUse" color-interpolation-filters="sRGB">
<feFlood flood-opacity="0" result="BackgroundImageFix"/>
<feBlend mode="normal" in="SourceGraphic" in2="BackgroundImageFix" result="shape"/>
<feGaussianBlur stdDeviation="102.214" result="effect1_foregroundBlur_11_2"/>
</filter>
<filter id="filter5_f_11_2" x="-406.085" y="-311.258" width="938.486" height="938.486" filterUnits="userSpaceOnUse" color-interpolation-filters="sRGB">
<feFlood flood-opacity="0" result="BackgroundImageFix"/>
<feBlend mode="normal" in="SourceGraphic" in2="BackgroundImageFix" result="shape"/>
<feGaussianBlur stdDeviation="91.4625" result="effect1_foregroundBlur_11_2"/>
</filter>
<filter id="filter6_f_11_2" x="-100.212" y="-46.5646" width="408.478" height="408.224" filterUnits="userSpaceOnUse" color-interpolation-filters="sRGB">
<feFlood flood-opacity="0" result="BackgroundImageFix"/>
<feBlend mode="normal" in="SourceGraphic" in2="BackgroundImageFix" result="shape"/>
<feGaussianBlur stdDeviation="46.7516" result="effect1_foregroundBlur_11_2"/>
</filter>
<filter id="filter7_f_11_2" x="77.3773" y="-185.502" width="408.478" height="408.224" filterUnits="userSpaceOnUse" color-interpolation-filters="sRGB">
<feFlood flood-opacity="0" result="BackgroundImageFix"/>
<feBlend mode="normal" in="SourceGraphic" in2="BackgroundImageFix" result="shape"/>
<feGaussianBlur stdDeviation="46.7516" result="effect1_foregroundBlur_11_2"/>
</filter>
<filter id="filter8_f_11_2" x="-33.7246" y="20.9464" width="517.94" height="517.94" filterUnits="userSpaceOnUse" color-interpolation-filters="sRGB">
<feFlood flood-opacity="0" result="BackgroundImageFix"/>
<feBlend mode="normal" in="SourceGraphic" in2="BackgroundImageFix" result="shape"/>
<feGaussianBlur stdDeviation="76.4113" result="effect1_foregroundBlur_11_2"/>
</filter>
<clipPath id="clip0_11_2">
<rect width="232.143" height="214.286" fill="white" transform="translate(-90.0078 -7.13281)"/>
</clipPath>
<clipPath id="clip1_11_2">
<rect width="68.03" height="47.17" fill="white" transform="translate(16 28)"/>
</clipPath>
</defs>
</svg>
