<svg width="100" height="100" viewBox="0 0 100 100" fill="none" xmlns="http://www.w3.org/2000/svg">
<mask id="mask0_1_13" style="mask-type:alpha" maskUnits="userSpaceOnUse" x="0" y="0" width="100" height="100">
<circle cx="50" cy="50" r="50" fill="#D9D9D9"/>
</mask>
<g mask="url(#mask0_1_13)">
<g filter="url(#filter0_f_1_13)">
<ellipse cx="-7.68829" cy="182.995" rx="70.1648" ry="70.1648" transform="rotate(-30 -7.68829 182.995)" fill="#00FFD3"/>
</g>
<g filter="url(#filter1_f_1_13)">
<path d="M178.328 12.3851C232.381 106.006 200.304 225.719 106.682 279.771C13.0611 333.824 -106.652 301.747 -160.704 208.126C-214.756 114.504 -182.679 -5.20861 -89.058 -59.2608C4.56316 -113.313 124.276 -81.2361 178.328 12.3851Z" fill="#00F6FF"/>
</g>
<g filter="url(#filter2_f_1_13)">
<ellipse cx="104.613" cy="19.2313" rx="75.7477" ry="75.5739" transform="rotate(-30 104.613 19.2313)" fill="#C3A6FF"/>
</g>
<g filter="url(#filter3_f_1_13)">
<circle cx="119.644" cy="193.608" r="72.5673" transform="rotate(-30 119.644 193.608)" fill="#00FFD3"/>
</g>
</g>
<g clip-path="url(#clip0_1_13)">
<path d="M68.9 69.37C68.76 69.01 68.36 68.83 68 68.97C67.64 69.11 67.46 69.51 67.6 69.87L68.6 72.48C68.57 72.83 68.8 73.15 69.15 73.23C69.2 73.24 69.25 73.25 69.3 73.25C69.62 73.25 69.91 73.03 69.98 72.7L70.01 72.55C70.03 72.42 70.02 72.29 69.98 72.17L68.91 69.38L68.9 69.37Z" fill="black"/>
<path d="M68.4 74.79C68.07 74.58 67.64 74.68 67.43 75C66.9 75.82 66.26 76.57 65.54 77.22C65.25 77.48 65.23 77.92 65.48 78.21C65.62 78.37 65.81 78.44 66 78.44C66.17 78.44 66.33 78.38 66.47 78.26C67.29 77.53 68.01 76.68 68.61 75.75C68.82 75.42 68.72 74.99 68.4 74.78V74.79Z" fill="black"/>
<path d="M51.16 76.42C50.99 76.07 50.58 75.92 50.23 76.08C49.88 76.24 49.73 76.66 49.89 77.01L51.22 79.83C51.34 80.08 51.59 80.23 51.85 80.23C51.95 80.23 52.05 80.21 52.15 80.16C52.5 80 52.65 79.58 52.49 79.23L51.16 76.41V76.42Z" fill="black"/>
<path d="M63.12 78.85C62.49 79.16 61.81 79.42 61.1 79.62C60.84 79.7 60.58 79.77 60.33 79.83C59.95 79.93 59.73 80.31 59.82 80.68C59.9 81 60.19 81.21 60.5 81.21C60.56 81.21 60.62 81.21 60.67 81.19C60.93 81.12 61.2 81.05 61.48 80.97C62.27 80.75 63.03 80.46 63.74 80.1C64.09 79.93 64.23 79.51 64.06 79.16C63.89 78.81 63.47 78.67 63.12 78.84V78.85Z" fill="black"/>
<path d="M57.36 80.4C56.84 80.46 56.34 80.49 55.89 80.49H55.88C55.37 80.49 54.89 80.45 54.45 80.38C54.07 80.32 53.71 80.58 53.65 80.96C53.59 81.34 53.85 81.7 54.23 81.76C54.74 81.84 55.35 81.89 55.9 81.89C56.41 81.89 56.96 81.86 57.53 81.79C57.91 81.75 58.19 81.4 58.15 81.02C58.11 80.64 57.75 80.36 57.38 80.4H57.36Z" fill="black"/>
<path d="M48.34 26.83L48.9 28.24C48.84 28.47 48.72 28.84 48.49 29.32C48.32 29.67 48.47 30.09 48.81 30.26C48.91 30.31 49.01 30.33 49.12 30.33C49.38 30.33 49.63 30.18 49.75 29.94C50.03 29.37 50.23 28.79 50.32 28.32C50.35 28.19 50.33 28.05 50.28 27.93L49.64 26.32C49.5 25.96 49.09 25.79 48.73 25.93C48.37 26.07 48.2 26.48 48.34 26.84V26.83Z" fill="black"/>
<path d="M46.71 31.74C46.37 32.06 46.01 32.35 45.63 32.6C45.31 32.81 45.22 33.25 45.44 33.57C45.57 33.77 45.8 33.88 46.02 33.88C46.15 33.88 46.29 33.84 46.41 33.76C46.86 33.46 47.28 33.12 47.68 32.75C47.96 32.49 47.97 32.04 47.71 31.76C47.45 31.48 47 31.46 46.72 31.73L46.71 31.74Z" fill="black"/>
<path d="M35.72 35.02C36.11 35.26 36.53 35.45 37 35.58C37.06 35.6 37.13 35.61 37.19 35.61C37.5 35.61 37.78 35.41 37.86 35.1C37.96 34.73 37.75 34.34 37.38 34.24C37.11 34.16 36.87 34.07 36.64 33.94L35.84 32.17C35.68 31.82 35.27 31.66 34.91 31.82C34.56 31.98 34.4 32.39 34.56 32.75L35.45 34.72C35.51 34.85 35.6 34.95 35.72 35.02Z" fill="black"/>
<path d="M40.63 35.71C41.12 35.64 41.64 35.55 42.17 35.43C42.55 35.35 42.79 34.97 42.7 34.59C42.62 34.21 42.24 33.98 41.86 34.06C41.35 34.17 40.87 34.26 40.44 34.32C40.06 34.37 39.79 34.72 39.84 35.11C39.89 35.46 40.19 35.72 40.53 35.72C40.56 35.72 40.59 35.72 40.62 35.72L40.63 35.71Z" fill="black"/>
<path d="M75.47 34.79C74.84 35.47 74.1 36.04 73.28 36.49C72.94 36.67 72.81 37.1 73 37.44C73.13 37.67 73.37 37.81 73.62 37.81C73.73 37.81 73.85 37.78 73.95 37.73C74.91 37.21 75.77 36.55 76.5 35.75C76.76 35.47 76.74 35.02 76.46 34.76C76.17 34.5 75.73 34.51 75.47 34.8V34.79Z" fill="black"/>
<path d="M64.97 37.41L64.03 35.33C63.87 34.98 63.45 34.82 63.1 34.98C62.75 35.14 62.59 35.55 62.75 35.91L63.78 38.19C63.84 38.32 63.93 38.42 64.05 38.49C64.2 38.58 64.37 38.68 64.58 38.77C64.67 38.81 64.77 38.83 64.87 38.83C65.13 38.83 65.39 38.68 65.51 38.42C65.67 38.07 65.51 37.65 65.17 37.49C65.1 37.46 65.04 37.43 64.98 37.39L64.97 37.41Z" fill="black"/>
<path d="M76.61 30.2L77.23 31.73C77.18 31.91 77.11 32.16 76.97 32.48C76.82 32.84 76.99 33.25 77.34 33.4C77.43 33.44 77.52 33.46 77.61 33.46C77.88 33.46 78.14 33.3 78.25 33.03C78.44 32.58 78.57 32.16 78.64 31.8C78.67 31.67 78.65 31.53 78.6 31.4L77.89 29.67C77.74 29.31 77.33 29.14 76.98 29.29C76.62 29.44 76.45 29.85 76.6 30.2H76.61Z" fill="black"/>
<path d="M70.62 37.44C69.57 37.7 68.61 37.85 67.78 37.89C67.39 37.91 67.1 38.24 67.11 38.62C67.13 38.99 67.44 39.29 67.81 39.29C67.82 39.29 67.83 39.29 67.85 39.29C68.77 39.25 69.82 39.08 70.95 38.8C71.33 38.71 71.56 38.33 71.46 37.95C71.37 37.57 70.98 37.35 70.61 37.44H70.62Z" fill="black"/>
<path d="M28.96 52.96C28.33 53.64 27.59 54.21 26.77 54.66C26.43 54.84 26.3 55.27 26.49 55.61C26.62 55.84 26.86 55.98 27.11 55.98C27.22 55.98 27.34 55.95 27.44 55.9C28.4 55.38 29.26 54.72 29.99 53.92C30.25 53.64 30.23 53.19 29.95 52.93C29.67 52.67 29.22 52.69 28.96 52.97V52.96Z" fill="black"/>
<path d="M24.96 56.13C24.87 55.75 24.48 55.52 24.11 55.62C23.06 55.88 22.11 56.03 21.27 56.07C20.88 56.09 20.59 56.42 20.6 56.8C20.62 57.17 20.93 57.47 21.3 57.47C21.31 57.47 21.32 57.47 21.34 57.47C22.26 57.43 23.31 57.26 24.44 56.98C24.82 56.89 25.05 56.51 24.95 56.13H24.96Z" fill="black"/>
<path d="M18.65 55.68C18.58 55.65 18.52 55.62 18.46 55.58L17.52 53.5C17.36 53.15 16.95 52.99 16.59 53.15C16.24 53.31 16.08 53.72 16.24 54.08L17.27 56.36C17.33 56.49 17.42 56.59 17.54 56.66C17.69 56.75 17.86 56.85 18.06 56.94C18.15 56.98 18.25 57 18.35 57C18.61 57 18.87 56.85 18.99 56.59C19.15 56.24 18.99 55.82 18.65 55.66V55.68Z" fill="black"/>
<path d="M30.84 51.57C30.93 51.61 31.02 51.63 31.11 51.63C31.38 51.63 31.64 51.47 31.75 51.2C31.94 50.75 32.08 50.33 32.14 49.97C32.17 49.84 32.15 49.7 32.1 49.57L31.39 47.84C31.24 47.48 30.83 47.31 30.48 47.46C30.12 47.61 29.95 48.02 30.1 48.37L30.72 49.89C30.68 50.07 30.6 50.32 30.46 50.65C30.31 51.01 30.48 51.42 30.83 51.57H30.84Z" fill="black"/>
<path d="M27.26 72.91C27.1 72.56 26.69 72.4 26.34 72.56C25.99 72.72 25.83 73.13 25.99 73.48L27.18 76.14C27.24 76.27 27.36 76.39 27.48 76.47C27.48 76.47 27.56 76.52 27.57 76.52C27.67 76.58 27.78 76.61 27.89 76.61C28.12 76.61 28.34 76.47 28.48 76.25C28.62 76.02 28.58 75.72 28.43 75.5L27.28 72.92L27.26 72.91Z" fill="black"/>
<path d="M33.66 75.48C32.6 75.72 31.64 75.85 30.81 75.86C30.42 75.86 30.11 76.18 30.12 76.57C30.12 76.95 30.44 77.26 30.82 77.26C31.74 77.25 32.8 77.11 33.96 76.85C34.34 76.76 34.57 76.39 34.49 76.01C34.41 75.63 34.02 75.4 33.65 75.48H33.66Z" fill="black"/>
<path d="M41.41 67.91C41.27 67.55 40.86 67.38 40.5 67.52C40.14 67.67 39.97 68.07 40.11 68.43L40.61 69.67C40.55 69.89 40.44 70.24 40.23 70.7C40.06 71.05 40.21 71.47 40.56 71.63C40.66 71.68 40.76 71.7 40.86 71.7C41.12 71.7 41.37 71.55 41.49 71.3C41.75 70.75 41.94 70.2 42.03 69.74C42.06 69.61 42.04 69.47 41.99 69.35L41.41 67.91Z" fill="black"/>
<path d="M38.63 72.97C37.98 73.63 37.22 74.17 36.37 74.59C36.02 74.76 35.88 75.18 36.05 75.53C36.17 75.78 36.42 75.92 36.68 75.92C36.78 75.92 36.89 75.9 36.99 75.85C37.97 75.37 38.86 74.73 39.62 73.96C39.89 73.69 39.89 73.24 39.62 72.97C39.35 72.7 38.91 72.7 38.63 72.97Z" fill="black"/>
<path d="M72.38 58.36C72.31 58.33 72.25 58.3 72.19 58.26L71.25 56.18C71.09 55.83 70.67 55.67 70.32 55.83C69.97 55.99 69.81 56.4 69.97 56.76L71 59.04C71.06 59.16 71.15 59.27 71.26 59.34C71.41 59.43 71.58 59.53 71.79 59.63C71.88 59.67 71.98 59.69 72.08 59.69C72.34 59.69 72.6 59.54 72.72 59.28C72.88 58.93 72.72 58.51 72.38 58.35V58.36Z" fill="black"/>
<path d="M82.68 55.64C82.05 56.32 81.32 56.89 80.49 57.34C80.15 57.52 80.02 57.95 80.21 58.29C80.34 58.52 80.58 58.66 80.83 58.66C80.94 58.66 81.06 58.63 81.16 58.58C82.12 58.06 82.98 57.4 83.71 56.6C83.97 56.32 83.95 55.87 83.67 55.61C83.39 55.35 82.94 55.36 82.68 55.65V55.64Z" fill="black"/>
<path d="M77.84 58.29C76.79 58.55 75.83 58.7 75 58.74C74.61 58.76 74.32 59.09 74.33 59.47C74.35 59.84 74.66 60.14 75.03 60.14C75.04 60.14 75.05 60.14 75.06 60.14C75.98 60.1 77.03 59.93 78.16 59.65C78.54 59.56 78.77 59.18 78.67 58.8C78.58 58.42 78.19 58.19 77.82 58.29H77.84Z" fill="black"/>
<path d="M85.83 52.24L85.12 50.51C84.97 50.15 84.56 49.98 84.21 50.13C83.85 50.28 83.68 50.69 83.83 51.04L84.45 52.57C84.4 52.75 84.33 53 84.19 53.32C84.04 53.68 84.21 54.09 84.56 54.24C84.65 54.28 84.74 54.3 84.83 54.3C85.1 54.3 85.36 54.14 85.47 53.87C85.66 53.42 85.79 53 85.86 52.64C85.89 52.51 85.87 52.37 85.82 52.24H85.83Z" fill="black"/>
<path d="M82.62 51C83.18 50.21 83.52 49.39 83.66 48.6C83.97 48.43 84.12 48.06 83.99 47.72L83.55 46.64C83.53 46.56 83.51 46.49 83.48 46.41C82.94 45 81.63 43.99 79.79 43.55C77.95 43.11 75.8 43.31 73.73 44.09C71.66 44.88 69.93 46.16 68.84 47.71C68.52 48.17 68.27 48.64 68.09 49.11L56.08 46.12C56.16 46.01 56.25 45.9 56.33 45.79C56.79 45.13 57.13 44.46 57.37 43.79C57.37 43.87 57.37 43.94 57.41 44.02L57.94 45.42C58.05 45.7 58.31 45.87 58.6 45.87C58.68 45.87 58.77 45.86 58.85 45.83C59.21 45.69 59.39 45.29 59.26 44.93L58.73 43.53C58.59 43.17 58.19 42.98 57.83 43.12C57.7 43.17 57.6 43.26 57.52 43.37C57.64 42.94 57.72 42.51 57.75 42.09C57.94 41.9 58.02 41.61 57.92 41.34L57.51 40.24C57.48 40.16 57.47 40.08 57.44 40C57.32 39.68 57.16 39.39 56.98 39.1L62.97 33.75C63.42 33.98 63.93 34.18 64.49 34.31C65.13 34.46 65.82 34.54 66.52 34.54C67.83 34.54 69.2 34.28 70.55 33.77C72.62 32.98 74.35 31.7 75.44 30.15C76 29.36 76.34 28.54 76.48 27.75C76.79 27.58 76.94 27.21 76.8 26.88L76.36 25.81C76.34 25.73 76.32 25.65 76.29 25.57C75.75 24.16 74.44 23.15 72.6 22.71C70.76 22.27 68.61 22.47 66.54 23.25C64.47 24.04 62.74 25.32 61.65 26.87C60.56 28.42 60.26 30.05 60.79 31.46C60.81 31.52 60.84 31.57 60.87 31.63C60.87 31.69 60.88 31.75 60.91 31.8L61.53 33.17L56.07 38.05C55.24 37.29 54.13 36.72 52.79 36.41C50.76 35.93 48.43 36.06 46.13 36.76L43.33 29.82C44.9 29.04 46.22 27.96 47.1 26.7C47.69 25.86 48.04 24.99 48.16 24.15C48.45 23.98 48.59 23.62 48.46 23.3L47.9 21.91C47.87 21.83 47.82 21.76 47.76 21.7C47.14 20.51 45.92 19.64 44.26 19.25C42.42 18.81 40.27 19.01 38.2 19.79C36.13 20.58 34.4 21.86 33.31 23.41C32.22 24.96 31.92 26.59 32.45 28C32.47 28.06 32.5 28.11 32.53 28.17C32.53 28.23 32.54 28.28 32.57 28.34L33.19 29.71C33.31 29.97 33.56 30.12 33.83 30.12C33.93 30.12 34.03 30.1 34.12 30.06C34.13 30.06 34.14 30.04 34.15 30.04C34.71 30.41 35.38 30.69 36.15 30.87C36.79 31.02 37.48 31.1 38.18 31.1C39.43 31.1 40.75 30.85 42.03 30.39L44.8 37.26C42.34 38.26 40.27 39.82 38.96 41.69C38.23 42.73 37.79 43.79 37.63 44.82L30.22 44.8V44.95L29.83 44C29.81 43.93 29.79 43.85 29.76 43.78C29.22 42.37 27.91 41.36 26.07 40.92C24.24 40.49 22.08 40.68 20.01 41.46C17.94 42.25 16.21 43.53 15.12 45.08C14.03 46.63 13.73 48.26 14.26 49.67C14.28 49.73 14.31 49.78 14.34 49.84C14.35 49.9 14.35 49.95 14.38 50L15 51.37C15.12 51.63 15.37 51.78 15.64 51.78C15.74 51.78 15.84 51.76 15.93 51.72C15.94 51.72 15.95 51.7 15.96 51.7C16.52 52.07 17.19 52.35 17.95 52.53C18.59 52.68 19.28 52.76 19.98 52.76C21.28 52.76 22.66 52.5 24.01 51.99C26.08 51.2 27.81 49.92 28.9 48.37C29.46 47.58 29.8 46.76 29.94 45.97C30.05 45.91 30.14 45.82 30.2 45.72V46.21L37.57 46.23C37.61 46.66 37.71 47.08 37.86 47.49C37.91 47.61 37.97 47.72 38.02 47.84C38.02 47.86 38.02 47.88 38.03 47.89L38.68 49.24C38.8 49.49 39.05 49.64 39.31 49.64C39.34 49.64 39.38 49.62 39.41 49.62C40.22 50.29 41.26 50.8 42.51 51.1C42.67 51.14 42.85 51.16 43.02 51.19L36.75 60.96C36.49 60.87 36.23 60.78 35.95 60.72C34.11 60.28 31.96 60.48 29.89 61.26C27.82 62.05 26.09 63.33 25 64.88C23.91 66.43 23.61 68.06 24.14 69.47C24.21 69.65 24.29 69.83 24.39 69.99L24.74 70.77C24.86 71.03 25.11 71.19 25.38 71.19C25.38 71.19 25.4 71.19 25.41 71.19C26.05 71.72 26.87 72.11 27.84 72.34C28.48 72.49 29.17 72.57 29.87 72.57C31.18 72.57 32.55 72.31 33.9 71.8C35.97 71.01 37.7 69.73 38.79 68.18C39.27 67.5 39.59 66.8 39.76 66.11C39.81 66.11 39.86 66.11 39.91 66.08C40.27 65.93 40.44 65.53 40.3 65.17L39.74 63.78C39.74 63.78 39.71 63.74 39.7 63.72C39.68 63.67 39.68 63.63 39.66 63.58C39.36 62.78 38.79 62.11 38.03 61.59L44.6 51.36C44.77 51.36 44.93 51.39 45.1 51.39C46.59 51.39 48.15 51.11 49.69 50.58L51.51 55.37C51.34 55.16 51.07 55.06 50.79 55.13C49.95 55.34 49.09 55.5 48.25 55.6C47.87 55.65 47.59 55.99 47.64 56.38C47.68 56.74 47.98 57 48.33 57C48.36 57 48.38 57 48.41 57C49.31 56.89 50.23 56.72 51.13 56.5C51.47 56.41 51.68 56.09 51.64 55.75L54.09 62.19C51.82 63.19 49.92 64.68 48.69 66.43C47.32 68.39 46.93 70.44 47.61 72.22C47.71 72.47 47.82 72.71 47.96 72.94L48.58 74.26C48.7 74.51 48.95 74.66 49.21 74.66C49.3 74.66 49.39 74.64 49.48 74.6C50.24 75.15 51.17 75.58 52.26 75.83C53.07 76.02 53.93 76.12 54.82 76.12C56.47 76.12 58.21 75.79 59.9 75.15C62.51 74.16 64.7 72.54 66.07 70.58C66.8 69.54 67.24 68.47 67.4 67.43C67.76 67.29 67.93 66.89 67.8 66.53L67.26 65.13C67.26 65.13 67.26 65.12 67.25 65.11C67.22 65 67.19 64.89 67.15 64.79C66.47 63.01 64.82 61.73 62.5 61.18C60.34 60.67 57.83 60.85 55.39 61.68L53.01 55.43C53.14 55.55 53.3 55.64 53.48 55.64C53.58 55.64 53.68 55.62 53.78 55.57C54.64 55.17 55.46 54.67 56.19 54.08C56.49 53.84 56.55 53.4 56.31 53.1C56.07 52.8 55.63 52.75 55.33 52.98C54.68 53.49 53.96 53.94 53.19 54.3C52.96 54.41 52.83 54.62 52.8 54.85L50.99 50.08C52.55 49.38 53.94 48.45 55.05 47.37L67.77 50.53C67.71 51.16 67.77 51.78 68 52.36C68.02 52.42 68.05 52.47 68.08 52.53C68.09 52.59 68.09 52.64 68.12 52.69L68.74 54.06C68.86 54.32 69.11 54.47 69.38 54.47C69.48 54.47 69.58 54.45 69.67 54.41C69.68 54.41 69.69 54.39 69.7 54.39C70.26 54.76 70.93 55.04 71.69 55.22C72.33 55.37 73.02 55.45 73.72 55.45C75.03 55.45 76.4 55.19 77.75 54.68C79.82 53.89 81.55 52.61 82.64 51.06L82.62 51ZM27.75 47.52C26.82 48.84 25.32 49.95 23.51 50.63C21.7 51.32 19.85 51.49 18.27 51.12C16.89 50.79 15.93 50.08 15.57 49.12C15.2 48.16 15.45 46.99 16.26 45.83C17.19 44.51 18.69 43.4 20.5 42.72C21.68 42.27 22.89 42.04 24.03 42.04C24.62 42.04 25.2 42.1 25.74 42.23C27.07 42.55 28 43.22 28.39 44.14C28.39 44.16 28.39 44.17 28.39 44.19L28.5 44.45C28.76 45.37 28.5 46.45 27.74 47.52H27.75ZM37.64 67.3C36.71 68.62 35.21 69.73 33.4 70.41C31.59 71.1 29.73 71.27 28.16 70.9C26.85 70.59 25.93 69.92 25.53 69.03L25.43 68.8C25.12 67.86 25.37 66.73 26.15 65.61C27.07 64.29 28.58 63.18 30.39 62.5C31.56 62.05 32.79 61.82 33.93 61.82C34.52 61.82 35.09 61.88 35.62 62.01C37 62.34 37.96 63.05 38.32 64.01C38.69 64.97 38.44 66.14 37.63 67.3H37.64ZM62.77 27.67C63.69 26.35 65.2 25.24 67.01 24.56C68.19 24.11 69.4 23.88 70.54 23.88C71.14 23.88 71.71 23.94 72.25 24.07C73.58 24.38 74.51 25.06 74.9 25.97C74.9 25.99 74.9 26 74.9 26.02L75.01 26.29C75.26 27.21 75.01 28.28 74.25 29.35C73.32 30.67 71.82 31.78 70.01 32.46C68.2 33.15 66.34 33.32 64.77 32.95C63.39 32.62 62.43 31.91 62.07 30.95C61.7 29.99 61.95 28.82 62.77 27.66V27.67ZM36.45 29.48C35.07 29.15 34.11 28.44 33.75 27.48C33.39 26.52 33.63 25.35 34.44 24.19C35.37 22.87 36.87 21.76 38.68 21.08C39.86 20.63 41.07 20.4 42.21 20.4C42.81 20.4 43.38 20.46 43.92 20.59C45.3 20.92 46.26 21.63 46.62 22.59C46.99 23.55 46.74 24.72 45.92 25.88C45 27.2 43.49 28.31 41.68 28.99C39.87 29.68 38.01 29.85 36.44 29.48H36.45ZM59.93 62.22C60.71 62.22 61.46 62.3 62.17 62.47C64.03 62.91 65.33 63.88 65.84 65.21C66.34 66.54 66.02 68.13 64.92 69.7C63.71 71.43 61.75 72.87 59.4 73.76C57.05 74.65 54.63 74.88 52.58 74.39C50.72 73.95 49.42 72.97 48.91 71.65C48.41 70.32 48.73 68.73 49.83 67.16C51.04 65.43 53 63.99 55.35 63.1C56.89 62.52 58.46 62.22 59.93 62.22ZM49.67 49.05C47.32 49.94 44.9 50.17 42.85 49.68C40.99 49.24 39.69 48.26 39.18 46.94C38.68 45.61 39 44.02 40.1 42.45C41.31 40.72 43.27 39.28 45.62 38.39C47.16 37.81 48.73 37.51 50.2 37.51C50.98 37.51 51.73 37.59 52.44 37.76C54.25 38.19 55.52 39.13 56.06 40.4C56.06 40.41 56.06 40.42 56.06 40.44L56.17 40.73C56.56 42.01 56.23 43.52 55.19 45C53.98 46.73 52.02 48.17 49.67 49.06V49.05ZM72 53.8C70.62 53.47 69.66 52.76 69.3 51.8C68.93 50.84 69.18 49.67 69.99 48.51C70.92 47.19 72.42 46.08 74.23 45.4C75.41 44.95 76.62 44.72 77.76 44.72C78.36 44.72 78.93 44.78 79.47 44.91C80.8 45.23 81.73 45.9 82.12 46.81C82.12 46.83 82.12 46.84 82.12 46.86L82.23 47.12C82.49 48.04 82.23 49.12 81.47 50.19C80.54 51.51 79.04 52.62 77.23 53.3C75.45 53.98 73.54 54.15 71.99 53.79L72 53.8Z" fill="black"/>
<path d="M40.97 53.05C41.07 53.05 41.17 53.03 41.27 52.98C41.62 52.81 41.77 52.39 41.6 52.05L40.95 50.7C40.78 50.35 40.37 50.2 40.02 50.37C39.67 50.54 39.52 50.96 39.69 51.3L40.34 52.65C40.46 52.9 40.71 53.05 40.97 53.05Z" fill="black"/>
<path d="M45.66 55.66C45.15 55.64 44.68 55.6 44.25 55.54C43.86 55.48 43.51 55.74 43.45 56.12C43.39 56.5 43.65 56.86 44.03 56.92C44.51 56.99 45.04 57.04 45.61 57.06H45.63C46.01 57.06 46.32 56.76 46.33 56.38C46.34 55.99 46.04 55.67 45.65 55.66H45.66Z" fill="black"/>
<path d="M57.89 49.99C57.65 50.39 57.38 50.78 57.09 51.15C56.85 51.45 56.9 51.89 57.21 52.13C57.34 52.23 57.49 52.28 57.64 52.28C57.85 52.28 58.05 52.19 58.19 52.01C58.52 51.6 58.82 51.16 59.09 50.7C59.29 50.37 59.18 49.94 58.85 49.74C58.52 49.54 58.09 49.65 57.89 49.98V49.99Z" fill="black"/>
</g>
<defs>
<filter id="filter0_f_1_13" x="-282.292" y="-91.609" width="549.207" height="549.207" filterUnits="userSpaceOnUse" color-interpolation-filters="sRGB">
<feFlood flood-opacity="0" result="BackgroundImageFix"/>
<feBlend mode="normal" in="SourceGraphic" in2="BackgroundImageFix" result="shape"/>
<feGaussianBlur stdDeviation="102.214" result="effect1_foregroundBlur_1_13"/>
</filter>
<filter id="filter1_f_1_13" x="-369.886" y="-268.443" width="757.396" height="757.396" filterUnits="userSpaceOnUse" color-interpolation-filters="sRGB">
<feFlood flood-opacity="0" result="BackgroundImageFix"/>
<feBlend mode="normal" in="SourceGraphic" in2="BackgroundImageFix" result="shape"/>
<feGaussianBlur stdDeviation="91.4625" result="effect1_foregroundBlur_1_13"/>
</filter>
<filter id="filter2_f_1_13" x="-64.6072" y="-149.902" width="338.44" height="338.266" filterUnits="userSpaceOnUse" color-interpolation-filters="sRGB">
<feFlood flood-opacity="0" result="BackgroundImageFix"/>
<feBlend mode="normal" in="SourceGraphic" in2="BackgroundImageFix" result="shape"/>
<feGaussianBlur stdDeviation="46.7516" result="effect1_foregroundBlur_1_13"/>
</filter>
<filter id="filter3_f_1_13" x="-105.758" y="-31.7937" width="450.804" height="450.804" filterUnits="userSpaceOnUse" color-interpolation-filters="sRGB">
<feFlood flood-opacity="0" result="BackgroundImageFix"/>
<feBlend mode="normal" in="SourceGraphic" in2="BackgroundImageFix" result="shape"/>
<feGaussianBlur stdDeviation="76.4113" result="effect1_foregroundBlur_1_13"/>
</filter>
<clipPath id="clip0_1_13">
<rect width="71.88" height="62.88" fill="white" transform="translate(14 19)"/>
</clipPath>
</defs>
</svg>
