<svg width="100" height="100" viewBox="0 0 100 100" fill="none" xmlns="http://www.w3.org/2000/svg">
<mask id="mask0_1_143" style="mask-type:alpha" maskUnits="userSpaceOnUse" x="0" y="0" width="100" height="100">
<circle cx="50" cy="50" r="50" fill="#D9D9D9"/>
</mask>
<g mask="url(#mask0_1_143)">
<g filter="url(#filter0_f_1_143)">
<ellipse cx="-7.68829" cy="182.995" rx="70.1648" ry="70.1648" transform="rotate(-30 -7.68829 182.995)" fill="#00FFD3"/>
</g>
<g filter="url(#filter1_f_1_143)">
<path d="M178.328 12.3851C232.381 106.006 200.304 225.719 106.682 279.771C13.0611 333.824 -106.652 301.747 -160.704 208.126C-214.756 114.504 -182.679 -5.20861 -89.058 -59.2608C4.56316 -113.313 124.276 -81.2361 178.328 12.3851Z" fill="#00F6FF"/>
</g>
<g filter="url(#filter2_f_1_143)">
<ellipse cx="104.613" cy="19.2313" rx="75.7477" ry="75.5739" transform="rotate(-30 104.613 19.2313)" fill="#C3A6FF"/>
</g>
<g filter="url(#filter3_f_1_143)">
<circle cx="119.644" cy="193.608" r="72.5673" transform="rotate(-30 119.644 193.608)" fill="#00FFD3"/>
</g>
<g clip-path="url(#clip0_1_143)">
<rect width="232.143" height="214.286" transform="translate(-90.0078 -7.13281)" fill="white"/>
<g filter="url(#filter4_f_1_143)">
<ellipse cx="39.0276" cy="264.365" rx="102.616" ry="102.616" transform="rotate(-30 39.0276 264.365)" fill="#00FFD3"/>
</g>
<g filter="url(#filter5_f_1_143)">
<ellipse cx="63.1581" cy="157.985" rx="286.27" ry="286.27" transform="rotate(-30 63.1581 157.985)" fill="#FF7701"/>
</g>
<g filter="url(#filter6_f_1_143)">
<ellipse cx="104.027" cy="157.547" rx="110.781" ry="110.527" transform="rotate(-30 104.027 157.547)" fill="#FF4B9B"/>
</g>
<g filter="url(#filter7_f_1_143)">
<ellipse cx="281.617" cy="18.6098" rx="110.781" ry="110.527" transform="rotate(-30 281.617 18.6098)" fill="#FF4B9B"/>
</g>
<g filter="url(#filter8_f_1_143)">
<ellipse cx="225.245" cy="279.916" rx="106.13" ry="106.13" transform="rotate(-30 225.245 279.916)" fill="#E26CFF"/>
</g>
</g>
</g>
<g clip-path="url(#clip1_1_143)">
<path d="M76.15 42.31H73.69V30.85C73.69 28.48 71.75 26.55 69.37 26.55H64.56L61.04 19.39C60.92 19.15 60.68 19 60.41 19H38.95C38.68 19 38.44 19.15 38.32 19.39L34.8 26.55H30.32C27.94 26.55 26 28.48 26 30.85V69.62C26 71.99 27.94 73.92 30.32 73.92H34.8L38.32 81.08C38.44 81.32 38.68 81.47 38.95 81.47H60.42C60.69 81.47 60.93 81.32 61.05 81.08L64.57 73.92H69.38C71.76 73.92 73.7 71.99 73.7 69.62V58.16H76.16C77.7 58.16 78.95 56.85 78.95 55.25V45.22C78.95 43.62 77.7 42.31 76.16 42.31H76.15ZM39.38 20.4H59.98L63 26.55H36.36L39.38 20.4ZM59.98 80.07H39.38L36.36 73.92H63L59.98 80.07ZM72.29 69.62C72.29 71.22 70.98 72.52 69.37 72.52H30.32C28.71 72.52 27.4 71.22 27.4 69.62V30.85C27.4 29.25 28.71 27.95 30.32 27.95H69.37C70.98 27.95 72.29 29.25 72.29 30.85V69.62ZM77.54 55.25C77.54 56.08 76.92 56.76 76.15 56.76H73.69V43.72H76.15C76.92 43.72 77.54 44.4 77.54 45.23V55.26V55.25Z" fill="black"/>
<path d="M57.59 47.85L52.37 47.58V40.55C52.37 40.26 52.19 39.99 51.91 39.89C51.63 39.79 51.33 39.87 51.13 40.09L41.73 51.16C41.56 51.36 41.52 51.65 41.62 51.89C41.72 52.13 41.96 52.3 42.23 52.31L48.18 52.58L46.97 59.71C46.92 60.02 47.08 60.32 47.36 60.46C47.46 60.51 47.56 60.53 47.66 60.53C47.86 60.53 48.05 60.45 48.19 60.29L58.07 49C58.25 48.8 58.29 48.51 58.19 48.27C58.09 48.03 57.85 47.86 57.58 47.84L57.59 47.85ZM48.78 57.51L49.71 52.03C49.74 51.83 49.69 51.63 49.56 51.47C49.43 51.31 49.25 51.22 49.05 51.21L43.74 50.97L50.98 42.44V48.23C50.98 48.6 51.27 48.91 51.64 48.93L56.08 49.16L48.78 57.5V57.51Z" fill="black"/>
<path d="M43.56 35.67C43.65 35.67 43.74 35.65 43.83 35.62C44.78 35.22 45.77 34.92 46.79 34.71C47.17 34.63 47.41 34.27 47.34 33.89C47.26 33.51 46.88 33.26 46.52 33.34C45.42 33.56 44.33 33.89 43.3 34.33C42.94 34.48 42.78 34.89 42.92 35.25C43.03 35.52 43.29 35.68 43.57 35.68L43.56 35.67Z" fill="black"/>
<path d="M49.91 34.41C50.93 34.41 51.95 34.51 52.94 34.7C52.98 34.7 53.03 34.71 53.07 34.71C53.4 34.71 53.69 34.48 53.76 34.14C53.83 33.76 53.59 33.39 53.21 33.32C52.13 33.11 51.02 33 49.91 33H49.86C49.47 33 49.19 33.31 49.19 33.7C49.19 34.09 49.53 34.4 49.92 34.4L49.91 34.41Z" fill="black"/>
<path d="M38.22 39.27C38.4 39.27 38.58 39.2 38.72 39.06C39.45 38.33 40.25 37.66 41.11 37.09C41.43 36.87 41.52 36.44 41.3 36.12C41.09 35.8 40.65 35.71 40.33 35.93C39.4 36.56 38.53 37.28 37.74 38.07C37.47 38.34 37.47 38.79 37.74 39.06C37.88 39.2 38.06 39.26 38.23 39.26L38.22 39.27Z" fill="black"/>
<path d="M65.39 47.05C65.46 47.38 65.75 47.61 66.08 47.61C66.13 47.61 66.17 47.61 66.22 47.6C66.6 47.52 66.84 47.15 66.77 46.78C66.55 45.68 66.22 44.6 65.78 43.56C65.63 43.2 65.22 43.04 64.86 43.19C64.5 43.34 64.34 43.75 64.48 44.11C64.88 45.06 65.19 46.06 65.39 47.07V47.05Z" fill="black"/>
<path d="M63.01 41.37C63.15 41.57 63.37 41.68 63.59 41.68C63.72 41.68 63.86 41.64 63.98 41.56C64.3 41.34 64.39 40.91 64.17 40.59C63.54 39.66 62.82 38.79 62.02 38C61.75 37.73 61.3 37.73 61.03 38C60.76 38.27 60.76 38.72 61.03 38.99C61.76 39.72 62.43 40.52 63 41.37H63.01Z" fill="black"/>
<path d="M55.91 35.58C56.86 35.97 57.78 36.46 58.64 37.03C58.76 37.11 58.89 37.15 59.03 37.15C59.26 37.15 59.48 37.04 59.61 36.84C59.82 36.52 59.74 36.08 59.41 35.87C58.47 35.25 57.47 34.72 56.43 34.29C56.07 34.14 55.66 34.31 55.52 34.67C55.37 35.03 55.54 35.44 55.9 35.58H55.91Z" fill="black"/>
<path d="M34.39 44.57C34.48 44.61 34.57 44.62 34.66 44.62C34.93 44.62 35.2 44.46 35.31 44.19C35.7 43.24 36.19 42.32 36.76 41.46C36.97 41.14 36.89 40.7 36.56 40.49C36.24 40.28 35.81 40.36 35.59 40.68C34.97 41.61 34.44 42.61 34.01 43.65C33.86 44.01 34.03 44.42 34.39 44.56V44.57Z" fill="black"/>
<path d="M49.91 65.98C48.88 65.98 47.85 65.88 46.85 65.68C46.48 65.61 46.1 65.85 46.03 66.23C45.95 66.61 46.2 66.98 46.58 67.05C47.67 67.26 48.79 67.37 49.91 67.37H49.93C50.32 67.37 50.62 67.06 50.62 66.67C50.62 66.28 50.3 65.97 49.91 65.97V65.98Z" fill="black"/>
<path d="M61.08 61.35C60.35 62.08 59.55 62.74 58.69 63.32C58.37 63.54 58.28 63.97 58.5 64.29C58.63 64.49 58.86 64.6 59.08 64.6C59.21 64.6 59.35 64.56 59.47 64.48C60.4 63.85 61.28 63.13 62.07 62.34C62.34 62.07 62.34 61.62 62.07 61.35C61.8 61.08 61.35 61.08 61.08 61.35Z" fill="black"/>
<path d="M55.97 64.78C55.02 65.18 54.02 65.48 53.01 65.68C52.63 65.76 52.38 66.12 52.46 66.5C52.53 66.83 52.82 67.06 53.15 67.06C53.19 67.06 53.24 67.06 53.29 67.05C54.39 66.83 55.48 66.5 56.51 66.07C56.87 65.92 57.04 65.51 56.89 65.15C56.74 64.79 56.33 64.62 55.97 64.77V64.78Z" fill="black"/>
<path d="M65.42 55.85C65.06 55.7 64.65 55.87 64.5 56.23C64.1 57.18 63.61 58.1 63.04 58.96C62.83 59.28 62.91 59.72 63.23 59.93C63.35 60.01 63.48 60.05 63.62 60.05C63.85 60.05 64.07 59.94 64.2 59.74C64.82 58.81 65.36 57.81 65.79 56.77C65.94 56.41 65.77 56 65.41 55.86L65.42 55.85Z" fill="black"/>
<path d="M66.4 49.46C66.01 49.46 65.7 49.81 65.7 50.19C65.7 51.23 65.6 52.26 65.4 53.27C65.32 53.65 65.57 54.02 65.95 54.09C66 54.09 66.04 54.1 66.09 54.1C66.42 54.1 66.71 53.87 66.78 53.54C67 52.45 67.11 51.32 67.11 50.19V50.12C67.11 49.73 66.8 49.45 66.41 49.45L66.4 49.46Z" fill="black"/>
<path d="M36.8 58.99C36.58 58.67 36.15 58.58 35.83 58.8C35.51 59.02 35.42 59.45 35.64 59.77C36.27 60.7 36.99 61.58 37.78 62.37C37.92 62.51 38.1 62.57 38.27 62.57C38.44 62.57 38.63 62.5 38.77 62.36C39.04 62.09 39.04 61.64 38.77 61.37C38.04 60.64 37.38 59.84 36.8 58.98V58.99Z" fill="black"/>
<path d="M34.43 53.31C34.35 52.93 33.99 52.69 33.61 52.76C33.23 52.84 32.99 53.21 33.06 53.58C33.28 54.68 33.61 55.77 34.04 56.8C34.15 57.07 34.41 57.23 34.69 57.23C34.78 57.23 34.87 57.21 34.96 57.18C35.32 57.03 35.49 56.62 35.34 56.26C34.94 55.31 34.64 54.31 34.44 53.3L34.43 53.31Z" fill="black"/>
<path d="M34.12 50.19C34.12 49.17 34.22 48.14 34.41 47.14C34.48 46.76 34.24 46.39 33.86 46.32C33.49 46.25 33.11 46.49 33.04 46.87C32.83 47.96 32.72 49.07 32.72 50.19V50.22C32.72 50.61 33.03 50.9 33.42 50.9C33.81 50.9 34.12 50.57 34.12 50.18V50.19Z" fill="black"/>
<path d="M43.89 64.79C42.94 64.4 42.02 63.91 41.16 63.33C40.84 63.11 40.4 63.2 40.19 63.52C39.98 63.84 40.06 64.28 40.38 64.49C41.31 65.11 42.31 65.65 43.35 66.08C43.44 66.12 43.53 66.13 43.62 66.13C43.89 66.13 44.16 65.97 44.27 65.7C44.42 65.34 44.25 64.93 43.89 64.79Z" fill="black"/>
</g>
<defs>
<filter id="filter0_f_1_143" x="-282.292" y="-91.609" width="549.207" height="549.207" filterUnits="userSpaceOnUse" color-interpolation-filters="sRGB">
<feFlood flood-opacity="0" result="BackgroundImageFix"/>
<feBlend mode="normal" in="SourceGraphic" in2="BackgroundImageFix" result="shape"/>
<feGaussianBlur stdDeviation="102.214" result="effect1_foregroundBlur_1_143"/>
</filter>
<filter id="filter1_f_1_143" x="-369.886" y="-268.443" width="757.396" height="757.396" filterUnits="userSpaceOnUse" color-interpolation-filters="sRGB">
<feFlood flood-opacity="0" result="BackgroundImageFix"/>
<feBlend mode="normal" in="SourceGraphic" in2="BackgroundImageFix" result="shape"/>
<feGaussianBlur stdDeviation="91.4625" result="effect1_foregroundBlur_1_143"/>
</filter>
<filter id="filter2_f_1_143" x="-64.6072" y="-149.902" width="338.44" height="338.266" filterUnits="userSpaceOnUse" color-interpolation-filters="sRGB">
<feFlood flood-opacity="0" result="BackgroundImageFix"/>
<feBlend mode="normal" in="SourceGraphic" in2="BackgroundImageFix" result="shape"/>
<feGaussianBlur stdDeviation="46.7516" result="effect1_foregroundBlur_1_143"/>
</filter>
<filter id="filter3_f_1_143" x="-105.758" y="-31.7937" width="450.804" height="450.804" filterUnits="userSpaceOnUse" color-interpolation-filters="sRGB">
<feFlood flood-opacity="0" result="BackgroundImageFix"/>
<feBlend mode="normal" in="SourceGraphic" in2="BackgroundImageFix" result="shape"/>
<feGaussianBlur stdDeviation="76.4113" result="effect1_foregroundBlur_1_143"/>
</filter>
<filter id="filter4_f_1_143" x="-268.033" y="-42.6955" width="614.12" height="614.12" filterUnits="userSpaceOnUse" color-interpolation-filters="sRGB">
<feFlood flood-opacity="0" result="BackgroundImageFix"/>
<feBlend mode="normal" in="SourceGraphic" in2="BackgroundImageFix" result="shape"/>
<feGaussianBlur stdDeviation="102.214" result="effect1_foregroundBlur_1_143"/>
</filter>
<filter id="filter5_f_1_143" x="-406.085" y="-311.258" width="938.486" height="938.486" filterUnits="userSpaceOnUse" color-interpolation-filters="sRGB">
<feFlood flood-opacity="0" result="BackgroundImageFix"/>
<feBlend mode="normal" in="SourceGraphic" in2="BackgroundImageFix" result="shape"/>
<feGaussianBlur stdDeviation="91.4625" result="effect1_foregroundBlur_1_143"/>
</filter>
<filter id="filter6_f_1_143" x="-100.212" y="-46.5646" width="408.478" height="408.224" filterUnits="userSpaceOnUse" color-interpolation-filters="sRGB">
<feFlood flood-opacity="0" result="BackgroundImageFix"/>
<feBlend mode="normal" in="SourceGraphic" in2="BackgroundImageFix" result="shape"/>
<feGaussianBlur stdDeviation="46.7516" result="effect1_foregroundBlur_1_143"/>
</filter>
<filter id="filter7_f_1_143" x="77.3773" y="-185.502" width="408.478" height="408.224" filterUnits="userSpaceOnUse" color-interpolation-filters="sRGB">
<feFlood flood-opacity="0" result="BackgroundImageFix"/>
<feBlend mode="normal" in="SourceGraphic" in2="BackgroundImageFix" result="shape"/>
<feGaussianBlur stdDeviation="46.7516" result="effect1_foregroundBlur_1_143"/>
</filter>
<filter id="filter8_f_1_143" x="-33.7246" y="20.9464" width="517.94" height="517.94" filterUnits="userSpaceOnUse" color-interpolation-filters="sRGB">
<feFlood flood-opacity="0" result="BackgroundImageFix"/>
<feBlend mode="normal" in="SourceGraphic" in2="BackgroundImageFix" result="shape"/>
<feGaussianBlur stdDeviation="76.4113" result="effect1_foregroundBlur_1_143"/>
</filter>
<clipPath id="clip0_1_143">
<rect width="232.143" height="214.286" fill="white" transform="translate(-90.0078 -7.13281)"/>
</clipPath>
<clipPath id="clip1_1_143">
<rect width="52.95" height="62.47" fill="white" transform="translate(26 19)"/>
</clipPath>
</defs>
</svg>
