<svg width="60" height="59" viewBox="0 0 60 59" fill="none" xmlns="http://www.w3.org/2000/svg">
<path d="M58.284 29.4943C58.284 45.3957 45.3939 58.2862 29.4932 58.2862C13.5925 58.2862 0.702363 45.3957 0.702363 29.4943C0.702363 13.5929 13.5925 0.702363 29.4932 0.702363C45.3939 0.702363 58.284 13.5929 58.284 29.4943Z" stroke="black" stroke-width="1.40473"/>
<path d="M58.2989 29.4968C58.2989 29.7334 58.1963 30.023 57.8815 30.3717C57.563 30.7244 57.0602 31.0983 56.3544 31.4765C54.9437 32.2323 52.8561 32.9348 50.217 33.5328C44.95 34.7264 37.6391 35.471 29.5397 35.471C21.4403 35.471 14.1295 34.7264 8.86246 33.5328C6.22329 32.9348 4.13573 32.2323 2.72507 31.4765C2.01921 31.0983 1.51648 30.7244 1.19797 30.3717C0.883167 30.023 0.780488 29.7334 0.780488 29.4968C0.780488 29.2602 0.883167 28.9706 1.19797 28.622C1.51648 28.2693 2.01921 27.8953 2.72507 27.5171C4.13573 26.7613 6.22329 26.0589 8.86246 25.4608C14.1295 24.2672 21.4403 23.5227 29.5397 23.5227C37.6391 23.5227 44.95 24.2672 50.217 25.4608C52.8561 26.0589 54.9437 26.7613 56.3544 27.5171C57.0602 27.8953 57.563 28.2693 57.8815 28.622C58.1963 28.9706 58.2989 29.2602 58.2989 29.4968Z" stroke="black" stroke-width="1.40473"/>
<path d="M27.6038 1.39062C22.8719 3.98166 15.1289 12.9905 15.1289 28.2975C15.1289 47.4313 24.8507 57.0979 26.2272 57.3969" stroke="black" stroke-width="1.32714" stroke-linecap="round" stroke-dasharray="2.65 2.65"/>
<path d="M31.3224 1.39062C36.4388 3.98166 44.3281 12.5919 44.3281 27.8989C44.3281 47.0327 34.2992 57.0979 32.8108 57.3969" stroke="black" stroke-width="1.32714" stroke-linecap="round" stroke-dasharray="2.65 2.65"/>
</svg>
