<svg width="78" height="62" viewBox="0 0 78 62" fill="none" xmlns="http://www.w3.org/2000/svg">
<path d="M26.0801 12.4297H72.9098C74.9326 12.4297 76.5559 14.0786 76.5559 16.104V45.6413C76.5559 47.6797 74.9326 49.3286 72.9098 49.3286H66.9704C67.5631 50.4452 67.8981 51.7046 67.8981 53.0549C67.8981 57.4433 64.3679 61.0008 60.0132 61.0008C55.6585 61.0008 52.1155 57.4433 52.1155 53.0549C52.1155 51.7046 52.4505 50.4452 53.0432 49.3286H36.0314" stroke="black" stroke-width="1.4" stroke-linecap="round" stroke-linejoin="round"/>
<path d="M39.5139 23.2212V19.8725C39.5139 15.7709 36.2002 12.4351 32.1128 12.4351H25.6401C26.1688 11.3838 26.4524 10.2026 26.4524 8.94357C26.4524 4.55643 22.9195 1 18.5485 1C14.1775 1 10.6575 4.55643 10.6575 8.94357C10.6575 10.2026 10.954 11.3838 11.4698 12.4351H1V50.206H32.1128C36.2002 50.206 39.5139 46.8702 39.5139 42.7557V38.5113C40.1973 38.719 40.9193 38.8228 41.6672 38.8228C46.0253 38.8228 49.5711 35.2664 49.5711 30.8792C49.5711 26.4921 46.0253 22.9227 41.6672 22.9227C40.9193 22.9227 40.1973 23.0265 39.5139 23.2212Z" stroke="black" stroke-width="1.4" stroke-linecap="round" stroke-linejoin="round"/>
<path d="M24.492 13.8594C23.0712 15.7238 21.1435 16.5578 18.6185 16.5578C16.1898 16.5578 14.1724 15.6033 12.7461 13.8594" stroke="black" stroke-width="1.4" stroke-linecap="round" stroke-dasharray="3.07 3.07"/>
<path d="M37.0312 36.8749C35.1668 35.454 34.3329 33.5263 34.3329 31.0013C34.3329 28.5726 35.2873 26.5552 37.0312 25.1289" stroke="black" stroke-width="1.4" stroke-linecap="round" stroke-dasharray="3.07 3.07"/>
<path d="M54.3322 47.1914C55.753 45.327 57.6807 44.493 60.2058 44.493C62.6344 44.493 64.6518 45.4475 66.0781 47.1914" stroke="black" stroke-width="1.4" stroke-linecap="round" stroke-dasharray="3.07 3.07"/>
</svg>
