<svg width="67" height="52" viewBox="0 0 67 52" fill="none" xmlns="http://www.w3.org/2000/svg">
<path d="M47.6843 40.7443L53.0655 39.0477C54.5292 37.6423 57.573 35.6908 59.0002 34.9334C61.01 33.914 63.6023 33.6955 65.379 34.8606C66.0198 35.2757 66.0562 35.7417 65.9616 36.3534C65.9106 36.6884 65.7431 37.016 65.4591 37.2855L57.9735 43.6716C53.517 46.3877 49.7596 48.3902 44.4876 50.6548C43.4827 51.0917 42.3322 51.2519 41.1962 51.1136L15.1566 47.3707C13.7221 47.1668 12.2512 47.3052 10.8967 47.7858L7.25586 49.0747" stroke="white" stroke-width="1.5" stroke-linecap="round" stroke-linejoin="round"/>
<path d="M1 36.3536C2.36169 36.0551 3.98553 35.3051 5.3181 34.5914C9.14103 32.5526 13.3062 31.2054 17.617 30.7831C25.2265 30.0331 29.6975 32.3487 31.9694 33.5793C35.0496 35.2322 38.8361 35.2177 42.2367 36.1061C44.2319 36.6231 47.0645 37.3221 47.6398 39.3028C48.1277 41.0067 46.8242 43.0674 44.4358 42.7762L28.0737 40.7664" stroke="white" stroke-width="1.5" stroke-linecap="round" stroke-linejoin="round"/>
<path d="M47.6775 5.06539C46.1216 2.60708 43.5332 1 40.6104 1C35.8554 1 32.002 5.24151 32.002 10.4663C32.002 10.8553 32.0238 11.2369 32.0674 11.6111C32.0892 11.7872 32.111 11.9634 32.1401 12.1395C33.0635 18.2082 38.8218 24.1082 47.6775 29.9127C56.5332 24.1082 62.2916 18.2009 63.215 12.1395C63.244 11.9634 63.2659 11.7872 63.2877 11.6111C63.3313 11.2369 63.3531 10.8553 63.3531 10.4663C63.3531 5.24151 59.4996 1 54.7446 1C51.8145 1 49.2335 2.60708 47.6775 5.06539Z" stroke="white" stroke-width="1.5" stroke-linecap="round" stroke-linejoin="round"/>
<path d="M37.5762 17.889C40.161 18.646 43.7328 19.1142 47.6782 19.1142C51.6237 19.1142 55.1954 18.646 57.7803 17.889M57.7803 11.9791C55.1954 11.2221 51.6237 10.7539 47.6782 10.7539C43.7328 10.7539 40.161 11.2221 37.5762 11.9791" stroke="white" stroke-width="1.5" stroke-linecap="round" stroke-dasharray="3.14 3.14"/>
</svg>
