<svg width="63" height="56" viewBox="0 0 63 56" fill="none" xmlns="http://www.w3.org/2000/svg">
<path d="M26.3929 23.2657C26.3929 23.2657 31.9453 31.0122 24.7231 36.3543C17.5009 41.6965 11.4905 34.2888 11.4905 34.2888C11.4905 34.2888 5.83372 28.5796 7.48274 13.2151C18.3187 14.3304 23.6632 18.9408 26.3929 23.2657Z" stroke="white" stroke-width="1.4" stroke-linecap="round" stroke-linejoin="round"/>
<path d="M25.7539 36.4844C28.1134 38.6803 30.9784 45.437 30.9784 54.0517" stroke="white" stroke-width="1.4" stroke-linecap="round" stroke-linejoin="round"/>
<ellipse cx="9.00178" cy="3.90025" rx="9.00178" ry="3.90025" transform="matrix(0.814416 -0.580282 0.578533 0.815659 7.71484 28.7422)" stroke="white" stroke-width="1.4" stroke-linecap="round" stroke-dasharray="3.13 3.13"/>
<path d="M34.9886 17.9873C34.9886 17.9873 29.7883 26.9124 38.1237 31.9359C46.4591 36.9595 52.1881 28.353 52.1881 28.353C52.1881 28.353 57.7085 21.6151 54.3639 5.20926C42.7881 7.52172 37.4925 13.0424 34.9886 17.9873Z" stroke="white" stroke-width="1.4" stroke-linecap="round" stroke-linejoin="round"/>
<path d="M37.7207 31.9883C34.6762 34.7332 30.9794 43.179 30.9794 53.9474" stroke="white" stroke-width="1.4" stroke-linecap="round" stroke-linejoin="round"/>
<path d="M24.9102 54.5625H37.3816" stroke="white" stroke-width="1.4" stroke-linecap="round" stroke-linejoin="round"/>
<ellipse cx="9.75231" cy="4.22708" rx="9.75231" ry="4.22708" transform="matrix(-0.865533 -0.500852 -0.499148 0.866517 55.6133 21.7109)" stroke="white" stroke-width="1.4" stroke-linecap="round" stroke-dasharray="3.13 3.13"/>
</svg>
