<?xml version="1.0" encoding="UTF-8"?>
<svg id="Layer_1" data-name="Layer 1" xmlns="http://www.w3.org/2000/svg" viewBox="0 0 80 80">
  <path d="m72.03,65.63H7.97c-2.92,0-5.29-2.38-5.29-5.3v-2.88c0-.39.31-.7.7-.7h73.25c.39,0,.7.31.7.7v2.88c0,2.92-2.38,5.3-5.29,5.3ZM4.08,58.15v2.18c0,2.15,1.75,3.9,3.89,3.9h64.06c2.15,0,3.89-1.75,3.89-3.9v-2.18H4.08Z"/>
  <g>
    <path d="m72.31,58.16h-1.6c-.39,0-.7-.31-.7-.7s.31-.7.7-.7h.9v-.9c0-.39.31-.7.7-.7s.7.31.7.7v1.6c0,.39-.31.7-.7.7Z"/>
    <path d="m67.48,58.16h-3.23c-.39,0-.7-.31-.7-.7s.31-.7.7-.7h3.23c.39,0,.7.31.7.7s-.31.7-.7.7Zm-6.47,0h-3.23c-.39,0-.7-.31-.7-.7s.31-.7.7-.7h3.23c.39,0,.7.31.7.7s-.31.7-.7.7Zm-6.46,0h-3.23c-.39,0-.7-.31-.7-.7s.31-.7.7-.7h3.23c.39,0,.7.31.7.7s-.31.7-.7.7Zm-6.47,0h-3.23c-.39,0-.7-.31-.7-.7s.31-.7.7-.7h3.23c.39,0,.7.31.7.7s-.31.7-.7.7Zm-6.46,0h-3.23c-.39,0-.7-.31-.7-.7s.31-.7.7-.7h3.23c.39,0,.7.31.7.7s-.31.7-.7.7Zm-6.47,0h-3.23c-.39,0-.7-.31-.7-.7s.31-.7.7-.7h3.23c.39,0,.7.31.7.7s-.31.7-.7.7Zm-6.46,0h-3.23c-.39,0-.7-.31-.7-.7s.31-.7.7-.7h3.23c.39,0,.7.31.7.7s-.31.7-.7.7Zm-6.47,0h-3.23c-.39,0-.7-.31-.7-.7s.31-.7.7-.7h3.23c.39,0,.7.31.7.7s-.31.7-.7.7Zm-6.46,0h-3.23c-.39,0-.7-.31-.7-.7s.31-.7.7-.7h3.23c.39,0,.7.31.7.7s-.31.7-.7.7Z"/>
    <path d="m9.29,58.16h-1.6c-.39,0-.7-.31-.7-.7v-1.6c0-.39.31-.7.7-.7s.7.31.7.7v.9h.9c.39,0,.7.31.7.7s-.31.7-.7.7Z"/>
    <path d="m7.69,53.38c-.39,0-.7-.31-.7-.7v-3.18c0-.39.31-.7.7-.7s.7.31.7.7v3.18c0,.39-.31.7-.7.7Zm64.62-.02c-.39,0-.7-.31-.7-.7v-3.18c0-.39.31-.7.7-.7s.7.31.7.7v3.18c0,.39-.31.7-.7.7ZM7.69,47.02c-.39,0-.7-.31-.7-.7v-3.18c0-.39.31-.7.7-.7s.7.31.7.7v3.18c0,.39-.31.7-.7.7Zm64.62-.02c-.39,0-.7-.31-.7-.7v-3.18c0-.39.31-.7.7-.7s.7.31.7.7v3.18c0,.39-.31.7-.7.7ZM7.69,40.66c-.39,0-.7-.31-.7-.7v-3.18c0-.39.31-.7.7-.7s.7.31.7.7v3.18c0,.39-.31.7-.7.7Zm64.62-.02c-.39,0-.7-.31-.7-.7v-3.18c0-.39.31-.7.7-.7s.7.31.7.7v3.18c0,.39-.31.7-.7.7ZM7.69,34.31c-.39,0-.7-.31-.7-.7v-3.18c0-.39.31-.7.7-.7s.7.31.7.7v3.18c0,.39-.31.7-.7.7Zm64.62-.02c-.39,0-.7-.31-.7-.7v-3.18c0-.39.31-.7.7-.7s.7.31.7.7v3.18c0,.39-.31.7-.7.7ZM7.69,27.95c-.39,0-.7-.31-.7-.7v-3.18c0-.39.31-.7.7-.7s.7.31.7.7v3.18c0,.39-.31.7-.7.7Zm64.62-.02c-.39,0-.7-.31-.7-.7v-3.18c0-.39.31-.7.7-.7s.7.31.7.7v3.18c0,.39-.31.7-.7.7ZM7.69,21.59c-.39,0-.7-.31-.7-.7v-2.17c0-.4.06-.8.17-1.18.1-.37.5-.59.86-.48.37.11.59.49.48.86-.07.26-.11.53-.11.8v2.17c0,.39-.31.7-.7.7Zm64.62-.02c-.39,0-.7-.31-.7-.7v-2.15c0-.28-.04-.56-.12-.82-.11-.37.11-.76.48-.87.38-.11.76.11.87.48.11.39.17.79.17,1.21v2.15c0,.39-.31.7-.7.7Zm-62.47-5.48c-.27,0-.52-.15-.64-.41-.16-.35,0-.77.35-.93.56-.25,1.14-.41,1.78-.38h1.64c.39,0,.7.31.7.7s-.31.7-.7.7h-1.64c-.45.02-.82.08-1.2.26-.09.04-.19.06-.29.06Zm60.31,0c-.1,0-.19-.02-.28-.06-.38-.17-.77-.25-1.19-.25h-1.67c-.39,0-.7-.31-.7-.7s.31-.7.7-.7h1.67c.61,0,1.2.12,1.75.37.35.16.51.57.36.92-.12.26-.37.42-.64.42Zm-6.31-.31h-3.18c-.39,0-.7-.31-.7-.7s.31-.7.7-.7h3.18c.39,0,.7.31.7.7s-.31.7-.7.7Zm-6.36,0h-3.18c-.39,0-.7-.31-.7-.7s.31-.7.7-.7h3.18c.39,0,.7.31.7.7s-.31.7-.7.7Zm-6.36,0h-3.18c-.39,0-.7-.31-.7-.7s.31-.7.7-.7h3.18c.39,0,.7.31.7.7s-.31.7-.7.7Zm-6.36,0h-3.18c-.39,0-.7-.31-.7-.7s.31-.7.7-.7h3.18c.39,0,.7.31.7.7s-.31.7-.7.7Zm-6.36,0h-3.18c-.39,0-.7-.31-.7-.7s.31-.7.7-.7h3.18c.39,0,.7.31.7.7s-.31.7-.7.7Zm-6.36,0h-3.18c-.39,0-.7-.31-.7-.7s.31-.7.7-.7h3.18c.39,0,.7.31.7.7s-.31.7-.7.7Zm-6.36,0h-3.18c-.39,0-.7-.31-.7-.7s.31-.7.7-.7h3.18c.39,0,.7.31.7.7s-.31.7-.7.7Zm-6.36,0h-3.18c-.39,0-.7-.31-.7-.7s.31-.7.7-.7h3.18c.39,0,.7.31.7.7s-.31.7-.7.7Z"/>
  </g>
  <path d="m40.94,52.41h-2.61c-.87,0-1.61-.62-1.77-1.47l-.44-2.26c-.03-.15-.13-.27-.28-.32-1.25-.45-2.42-1.13-3.46-2.03-.11-.1-.24-.12-.36-.08l-2.18.74c-.82.28-1.73-.07-2.15-.83l-1.3-2.29c-.42-.79-.26-1.72.38-2.28l1.7-1.52c.11-.1.16-.25.13-.38-.12-.69-.18-1.35-.18-2.05s.06-1.36.18-2.03c.03-.15-.03-.31-.13-.41l-1.7-1.52c-.64-.56-.8-1.51-.38-2.27l1.31-2.3c.42-.75,1.33-1.1,2.15-.82l2.16.73c.13.05.28.02.38-.07,1.04-.9,2.21-1.58,3.47-2.03.14-.05.24-.17.27-.32l.44-2.26c.16-.85.91-1.46,1.77-1.46h2.61c.86,0,1.61.62,1.77,1.47l.44,2.26c.03.15.13.27.28.32,1.25.45,2.41,1.13,3.46,2.03.11.1.24.12.36.08l2.18-.74c.82-.27,1.73.07,2.15.83l1.3,2.29s0,0,0,0c.42.76.26,1.71-.38,2.27l-1.7,1.52c-.11.09-.16.25-.13.38.12.69.18,1.35.18,2.05s-.06,1.36-.18,2.04c-.03.15.02.31.13.4l1.7,1.52c.63.56.8,1.51.38,2.27l-1.31,2.3c-.42.75-1.33,1.11-2.15.82l-2.16-.73c-.14-.05-.28-.02-.38.07-1.05.9-2.21,1.58-3.47,2.03-.13.05-.24.17-.26.32l-.44,2.26c-.16.85-.91,1.47-1.77,1.47Zm-8.8-7.58c.42,0,.84.16,1.17.45.9.77,1.92,1.37,3.01,1.76.61.23,1.05.74,1.17,1.37l.44,2.26c.04.2.21.33.4.33h2.61c.19,0,.36-.14.4-.33l.44-2.27c.12-.63.56-1.14,1.16-1.37,1.1-.39,2.12-.99,3.03-1.77.49-.42,1.16-.55,1.76-.33l2.14.72c.18.06.39-.02.48-.19l1.31-2.3c.1-.17.06-.41-.08-.53l-1.71-1.52c-.48-.43-.7-1.09-.58-1.71.1-.57.15-1.16.15-1.77s-.05-1.2-.16-1.79c-.12-.6.09-1.26.58-1.69l1.71-1.52c.15-.13.19-.36.09-.54l-1.3-2.29c-.1-.18-.3-.25-.49-.19l-2.16.73c-.59.22-1.27.09-1.75-.35-.9-.78-1.92-1.37-3.01-1.76-.61-.23-1.05-.74-1.17-1.37l-.44-2.26c-.04-.19-.21-.33-.4-.33h-2.61c-.19,0-.36.14-.4.33l-.44,2.26c-.12.63-.56,1.14-1.16,1.37-1.1.39-2.12.99-3.03,1.77-.49.42-1.17.55-1.76.33l-2.14-.72c-.19-.06-.39.02-.48.19l-1.31,2.3c-.1.17-.06.41.08.53l1.71,1.52c.48.43.7,1.09.58,1.71-.1.58-.15,1.16-.15,1.77s.05,1.2.16,1.79c.12.61-.1,1.26-.58,1.69l-1.71,1.52c-.15.13-.18.36-.08.55l1.3,2.28c.1.18.3.25.49.19l2.16-.73c.19-.07.39-.11.59-.11Zm7.5-.3c-3.74,0-6.79-3.09-6.79-6.89s3.05-6.89,6.79-6.89,6.79,3.09,6.79,6.89-3.05,6.89-6.79,6.89Zm0-12.38c-2.97,0-5.39,2.46-5.39,5.49s2.42,5.49,5.39,5.49,5.39-2.46,5.39-5.49-2.42-5.49-5.39-5.49Z"/>
</svg>