<svg width="73" height="95" viewBox="0 0 73 95" fill="none" xmlns="http://www.w3.org/2000/svg">
<path d="M21.6002 33.1449C18.7805 34.6335 17.7296 38.1729 19.2175 40.8794C20.7574 43.6797 24.5031 44.6582 27.2916 42.8573C27.0211 43.8358 26.4905 48.2079 26.4905 48.2079H30.5067C30.5795 48.2079 32.057 43.9815 32.2963 43.5339C33.5865 41.1501 36.0421 39.5157 38.6953 39.0785C40.0583 38.8495 41.3173 39.0681 42.6179 38.4956C43.8561 37.9647 44.9069 37.007 45.4792 35.7786C45.5416 35.6537 46.9151 32.5724 44.8861 30.2093C43.5751 28.6895 41.4213 28.1066 39.4444 28.7624" stroke="#FFC000" stroke-width="3" stroke-linecap="round" stroke-linejoin="round"/>
<path d="M51.2539 34.6439C55.0828 34.2796 57.9025 31.2191 57.9338 27.8879C57.9546 25.3063 56.3002 22.86 53.751 21.6629C53.699 21.2465 53.1476 17.374 49.5267 15.3337C46.1659 13.4391 42.826 14.6466 42.3786 14.8236C42.3162 14.605 41.2133 10.6493 37.3115 9.47296C34.471 8.60895 31.3183 9.58747 29.3518 11.9401C27.0628 10.6285 24.2639 10.618 22.0789 11.9401C20.0499 13.1684 18.8118 15.3857 18.7181 17.78C18.6661 19.0292 17.584 19.9869 16.3354 19.9556C15.1389 19.9244 13.7342 19.6121 12.6729 18.5816C10.7689 16.7286 11.1746 13.7722 11.2683 13.1789C12.3504 6.756 23.1089 2.61289 30.8605 1.74888C33.8363 1.41576 41.0884 1.05142 48.7567 5.06961C50.4735 5.96485 57.4135 9.25436 60.8159 16.4475C61.8252 18.5711 64.3743 22.8808 64.8113 30.0532C65.1339 35.1956 66.372 40.234 68.5987 44.8768C70.0345 47.8644 71.2623 50.5189 71.3767 51.0185C71.6473 52.2469 70.971 54.0062 67.0275 54.1519C63.0841 54.2872 64.4055 57.0979 64.1246 60.5019C63.8853 63.3542 60.639 63.2813 60.0667 63.2501C60.0459 63.2501 60.0355 63.2501 60.0147 63.2501C59.9939 63.2501 59.9731 63.2501 59.9731 63.2501H60.0147C60.0147 63.2501 60.0459 63.2501 60.0667 63.2501C60.6494 63.3125 64.0102 63.8018 63.4067 66.2065C61.8147 72.5981 66.7362 77.1784 58.5476 77.9592C51.025 78.6878 44.7509 76.4705 43.263 77.6989C41.7647 78.9273 39.9959 87.6299 40.8179 91.4399C41.6295 95.2499 14.0151 94.5732 14.5666 80.8219C14.7019 77.4803 17.199 74.9299 17.2302 71.5155C17.2927 65.2384 12.9226 60.658 11.7885 54.714C11.7885 54.6828 11.6116 54.0374 11.414 53.3087C11.1122 52.174 9.95728 51.487 8.80235 51.7472C6.41965 52.2885 2.62191 52.0283 1.71669 45.3348C0.93633 39.5469 3.27741 38.1416 5.35837 37.975C6.69018 37.8709 8.01159 36.3719 7.26244 35.2581C5.84739 33.1553 5.83699 31.8332 6.27399 29.3869C6.54451 27.8879 7.66823 26.3369 9.29138 25.7851C11.1538 25.1501 13.3596 25.9309 14.4209 27.3258C15.6903 29.0122 14.5458 30.5945 15.6487 33.1657C16.3666 34.8417 17.5944 35.9139 18.4788 36.5385" stroke="#FFC000" stroke-width="3" stroke-linecap="round" stroke-linejoin="round"/>
<path d="M25.2942 34.4669C24.1184 34.925 22.7762 34.6023 21.9542 33.6654C21.1531 32.7493 20.9866 31.4273 21.5484 30.3342" stroke="#FFC000" stroke-width="3" stroke-linecap="round" stroke-linejoin="round"/>
<path d="M27.3958 20.6115C28.1137 18.6232 29.9969 17.2908 32.0987 17.2908C34.1381 17.2908 35.9797 18.5504 36.7497 20.4554" stroke="#FFC000" stroke-width="3" stroke-linecap="round" stroke-linejoin="round"/>
</svg>
