<svg width="68" height="97" viewBox="0 0 68 97" fill="none" xmlns="http://www.w3.org/2000/svg">
<path d="M38.4693 46.7597C41.4071 46.7597 43.7877 44.3791 43.7877 41.4412C43.7877 38.5034 41.4071 36.1228 38.4693 36.1228C35.5315 36.1228 33.1509 38.5034 33.1509 41.4412C33.1509 44.3791 35.5315 46.7597 38.4693 46.7597Z" stroke="#FEC010" stroke-width="3" stroke-miterlimit="10" stroke-linecap="round" stroke-linejoin="round"/>
<path d="M11.9975 55.7337C9.55449 55.016 7.63308 54.0798 6.17531 52.6042C1.81536 48.1997 0.0321477 39.2613 4.98056 28.5442H10.6601L11.9975 34.2059L19.1437 36.0872L25.7728 27.9424" stroke="#FEC010" stroke-width="3" stroke-miterlimit="10" stroke-linecap="round" stroke-linejoin="round"/>
<path d="M38.447 73.0531C43.4043 74.0874 46.6809 70.7439 48.3081 66.3928C51.5001 57.8602 51.188 46.8533 49.9888 37.9373C48.7495 28.727 43.168 17.6755 33.3514 15.2727C29.629 14.3588 25.7104 14.1715 21.9344 14.8759C17.8018 15.6471 14.9086 17.6532 11.409 19.7485C9.79077 20.7204 7.74007 21.612 5.84541 20.9388C5.60914 20.8541 4.96272 20.5554 4.35197 19.967C1.93572 17.6443 4.53029 12.1966 4.69078 11.8712C8.70301 3.67287 21.6937 1.4394 30.1194 2.11256C46.2753 3.40093 54.0456 14.7778 55.3117 17.4526C56.3504 19.6415 58.994 24.0995 59.4487 31.5177C59.7786 36.8317 61.067 42.0476 63.3673 46.8533C64.8518 49.9472 66.1268 52.6889 66.2383 53.2015C66.5192 54.4676 65.8148 56.2999 61.7357 56.4381C57.6566 56.5763 59.0252 59.4874 58.7354 63.0047C58.468 66.2413 54.4513 65.8356 54.4513 65.8356C54.4513 65.8356 58.6775 66.1744 57.9954 68.9027C56.3504 75.514 61.437 80.2484 52.9712 81.0598C44.18 81.9023 40.199 79.067 37.1541 80.7878C35.2104 81.8845 33.4451 85.1611 34.622 95" stroke="#FEC010" stroke-width="3" stroke-miterlimit="10" stroke-linecap="round" stroke-linejoin="round"/>
<path d="M38.447 73.0531C38.2865 71.7246 37.0516 62.0596 35.0098 60.2808C31.9828 57.6461 28.6839 58.9122 20.5792 57.5124C17.2045 56.9239 14.3558 56.4336 11.993 55.7336" stroke="#FEC010" stroke-width="3" stroke-miterlimit="10" stroke-linecap="round" stroke-linejoin="round"/>
<path d="M30.4938 27.5635C30.2442 27.8399 29.9499 28.0806 29.6245 28.2634" stroke="#FEC010" stroke-width="3" stroke-miterlimit="10" stroke-linecap="round" stroke-linejoin="round"/>
<path d="M25.7728 27.9424C25.0016 27.3139 24.5067 26.3554 24.5067 25.281C24.5067 23.3863 26.0447 21.8528 27.9349 21.8528C29.8251 21.8528 31.3632 23.3908 31.3632 25.281C31.3632 26.1592 31.0333 26.9572 30.4938 27.5635" stroke="#FEC010" stroke-width="3" stroke-miterlimit="10" stroke-linecap="round" stroke-linejoin="round"/>
</svg>
