<svg width="245" height="204" viewBox="0 0 245 204" fill="none" xmlns="http://www.w3.org/2000/svg">
<path fill-rule="evenodd" clip-rule="evenodd" d="M77 124.523H122.486L167 80H77V124.523Z" fill="url(#paint0_linear_202_1014)"/>
<path fill-rule="evenodd" clip-rule="evenodd" d="M130.414 88.3728L121.554 88.3668V109.431L113.814 88.3668H106.142L99.5334 105.984C98.8303 101.542 94.2356 100.007 90.6199 98.8574C88.2334 98.0908 85.7005 96.9629 85.7248 95.7178C85.7445 94.6949 87.0823 93.7451 89.7361 93.8868C91.5183 93.9819 93.0906 94.126 96.2193 95.6348L99.2967 90.2747C96.4402 88.822 92.495 87.904 89.2612 87.9004H89.243C85.471 87.9004 82.3289 89.1211 80.3807 91.1353C79.0232 92.5415 78.2908 94.3274 78.2615 96.3038C78.2127 99.021 79.2088 100.95 81.3035 102.488C83.0723 103.784 85.3342 104.627 87.3277 105.244C89.7873 106.006 91.7942 106.668 91.7722 108.081C91.7527 108.594 91.5574 109.074 91.1876 109.463C90.5759 110.096 89.6336 110.333 88.3323 110.359C85.8237 110.41 83.9622 110.018 80.9971 108.267L78.2615 113.701C81.2181 115.382 84.7191 116.368 88.2908 116.368L88.7498 116.365C91.8601 116.309 94.3687 115.421 96.3731 113.809C96.4891 113.716 96.5916 113.623 96.699 113.529L95.8091 115.902H103.857L105.207 111.794C106.621 112.277 108.23 112.544 109.938 112.544C111.601 112.544 113.167 112.29 114.555 111.835L115.857 115.902H128.982V107.398H131.843C138.764 107.398 142.856 103.872 142.856 97.9688C142.856 91.3917 138.879 88.3728 130.414 88.3728ZM109.938 106.397C108.905 106.397 107.936 106.216 107.099 105.9L109.907 97.041H109.961L112.719 105.925C111.891 106.221 110.943 106.397 109.938 106.397ZM130.934 101.306H128.982V94.1675H130.934C133.535 94.1675 135.613 95.0318 135.613 97.6893C135.613 100.44 133.535 101.306 130.934 101.306Z" fill="white"/>
<defs>
<linearGradient id="paint0_linear_202_1014" x1="122" y1="80" x2="122" y2="124.523" gradientUnits="userSpaceOnUse">
<stop stop-color="#00B9F2"/>
<stop offset="0.20494" stop-color="#00A3E1"/>
<stop offset="0.51463" stop-color="#0088CC"/>
<stop offset="0.78974" stop-color="#0077C0"/>
<stop offset="1" stop-color="#0072BC"/>
</linearGradient>
</defs>
</svg>
