<svg width="100" height="100" viewBox="0 0 100 100" fill="none" xmlns="http://www.w3.org/2000/svg">
<g clip-path="url(#clip0_15_856)">
<mask id="mask0_15_856" style="mask-type:alpha" maskUnits="userSpaceOnUse" x="0" y="0" width="100" height="100">
<circle cx="50" cy="50" r="50" fill="#D9D9D9"/>
</mask>
<g mask="url(#mask0_15_856)">
<g filter="url(#filter0_f_15_856)">
<ellipse cx="9.33063" cy="106.815" rx="89.3297" ry="89.3297" transform="rotate(-30 9.33063 106.815)" fill="#00FFF0"/>
</g>
<g filter="url(#filter1_f_15_856)">
<path d="M98.528 26.6136C114.885 54.9443 105.178 91.1707 76.8472 107.527C48.5165 123.884 12.2901 114.177 -4.06668 85.8467C-20.4234 57.5159 -10.7166 21.2895 17.6141 4.93279C45.9449 -11.424 82.1712 -1.71714 98.528 26.6136Z" fill="#00F6FF"/>
</g>
<g filter="url(#filter2_f_15_856)">
<ellipse cx="104.617" cy="19.2313" rx="75.7477" ry="75.5739" transform="rotate(-30 104.617 19.2313)" fill="#C3A6FF"/>
</g>
</g>
</g>
<path d="M60.34 48.5501C55.67 48.5501 52.09 47.2701 49.69 44.7501C46.4 41.2801 46.59 36.7701 46.6 36.5701V24.4301C46.6 24.1001 46.87 23.8301 47.2 23.8301H54.24C54.57 23.8301 54.84 24.1001 54.84 24.4301C54.84 24.7601 54.57 25.0301 54.24 25.0301H47.8V36.6101C47.8 36.6801 47.63 40.8501 50.57 43.9401C52.73 46.2101 56.02 47.3601 60.34 47.3601C63.49 47.3601 66.02 46.4201 67.87 44.5601C71.25 41.1501 71.24 35.7401 71.24 35.6801V25.0201H64.9C64.57 25.0201 64.3 24.7501 64.3 24.4201C64.3 24.0901 64.57 23.8201 64.9 23.8201H71.84C72.17 23.8201 72.44 24.0901 72.44 24.4201V35.6601C72.44 35.9001 72.46 41.6101 68.73 45.3801C66.65 47.4801 63.83 48.5501 60.35 48.5501H60.34Z" fill="black"/>
<path d="M60.27 50.0501C59.94 50.0501 59.67 49.7801 59.67 49.4501V47.9501C59.67 47.6201 59.94 47.3501 60.27 47.3501C60.6 47.3501 60.87 47.6201 60.87 47.9501V49.4501C60.87 49.7801 60.6 50.0501 60.27 50.0501Z" fill="black"/>
<path d="M49.18 76.17C48.39 76.17 47.61 76.13 46.89 76.06C46.56 76.03 46.32 75.73 46.35 75.4C46.38 75.07 46.68 74.83 47.01 74.86C47.9 74.95 48.85 74.98 49.85 74.96C50.22 74.94 50.46 75.21 50.47 75.54C50.47 75.87 50.22 76.15 49.89 76.16C49.65 76.16 49.42 76.16 49.19 76.16L49.18 76.17ZM52.74 75.79C52.47 75.79 52.23 75.61 52.16 75.34C52.08 75.02 52.27 74.69 52.6 74.61C53.52 74.38 54.37 74.03 55.12 73.57C55.4 73.4 55.77 73.49 55.94 73.77C56.11 74.05 56.02 74.42 55.74 74.59C54.89 75.11 53.93 75.5 52.89 75.76C52.84 75.77 52.79 75.78 52.74 75.78V75.79ZM44.09 75.52C44.03 75.52 43.98 75.52 43.92 75.49C42.89 75.18 41.94 74.76 41.12 74.25C40.84 74.07 40.75 73.7 40.93 73.42C41.1 73.14 41.48 73.05 41.76 73.23C42.49 73.69 43.34 74.06 44.27 74.34C44.59 74.43 44.77 74.77 44.67 75.09C44.59 75.35 44.35 75.52 44.09 75.52ZM57.62 72.8C57.48 72.8 57.35 72.75 57.24 72.66C56.99 72.45 56.95 72.07 57.16 71.82C57.72 71.15 58.2 70.36 58.59 69.49C58.72 69.19 59.08 69.05 59.38 69.18C59.68 69.31 59.82 69.67 59.69 69.97C59.26 70.95 58.72 71.83 58.08 72.59C57.96 72.73 57.79 72.8 57.62 72.8ZM39.27 72.42C39.09 72.42 38.92 72.34 38.8 72.19C38.18 71.4 37.67 70.49 37.31 69.48C37.2 69.17 37.36 68.82 37.67 68.71C37.98 68.59 38.33 68.76 38.44 69.07C38.76 69.96 39.2 70.76 39.75 71.44C39.96 71.7 39.91 72.08 39.65 72.28C39.54 72.37 39.41 72.41 39.28 72.41L39.27 72.42ZM60 67.54C60 67.54 59.92 67.54 59.88 67.53C59.55 67.47 59.34 67.15 59.41 66.82C59.65 65.62 59.67 64.69 59.67 64.35V64.03C59.67 63.7 59.94 63.43 60.27 63.43C60.6 63.43 60.87 63.7 60.87 64.03V64.35C60.87 64.73 60.84 65.76 60.59 67.06C60.53 67.35 60.28 67.54 60 67.54ZM60.27 61.72C59.94 61.72 59.67 61.45 59.67 61.12V58.2C59.67 57.87 59.94 57.6 60.27 57.6C60.6 57.6 60.87 57.87 60.87 58.2V61.12C60.87 61.45 60.6 61.72 60.27 61.72ZM60.27 55.89C59.94 55.89 59.67 55.62 59.67 55.29V52.37C59.67 52.04 59.94 51.77 60.27 51.77C60.6 51.77 60.87 52.04 60.87 52.37V55.29C60.87 55.62 60.6 55.89 60.27 55.89Z" fill="black"/>
<path d="M37.21 67.0001C36.91 67.0001 36.65 66.7701 36.61 66.4701C36.56 65.9801 36.52 65.4601 36.51 64.9201C36.51 64.5901 36.77 64.3101 37.1 64.3101C37.42 64.3301 37.71 64.5701 37.71 64.9001C37.72 65.3901 37.75 65.8701 37.8 66.3401C37.84 66.6701 37.6 66.9601 37.27 67.0001C37.25 67.0001 37.23 67.0001 37.2 67.0001H37.21Z" fill="black"/>
<path d="M37.12 64.9701C31.85 64.9701 27.56 60.6801 27.56 55.4101C27.56 50.1401 31.85 45.8501 37.12 45.8501C42.39 45.8501 46.68 50.1401 46.68 55.4101C46.68 60.6801 42.39 64.9701 37.12 64.9701ZM37.12 47.0501C32.51 47.0501 28.76 50.8001 28.76 55.4101C28.76 60.0201 32.51 63.7701 37.12 63.7701C41.73 63.7701 45.48 60.0201 45.48 55.4101C45.48 50.8001 41.73 47.0501 37.12 47.0501Z" fill="black"/>
<path d="M38.8 34.5501H29.84C29.51 34.5501 29.24 34.2801 29.24 33.9501C29.24 33.6201 29.51 33.3501 29.84 33.3501H38.8C39.13 33.3501 39.4 33.6201 39.4 33.9501C39.4 34.2801 39.13 34.5501 38.8 34.5501Z" fill="black"/>
<path d="M34.32 39.0301C33.99 39.0301 33.72 38.7601 33.72 38.4301V29.4701C33.72 29.1401 33.99 28.8701 34.32 28.8701C34.65 28.8701 34.92 29.1401 34.92 29.4701V38.4301C34.92 38.7601 34.65 39.0301 34.32 39.0301Z" fill="black"/>
<defs>
<filter id="filter0_f_15_856" x="-182.228" y="-84.7433" width="383.116" height="383.116" filterUnits="userSpaceOnUse" color-interpolation-filters="sRGB">
<feFlood flood-opacity="0" result="BackgroundImageFix"/>
<feBlend mode="normal" in="SourceGraphic" in2="BackgroundImageFix" result="shape"/>
<feGaussianBlur stdDeviation="51.1068" result="effect1_foregroundBlur_15_856"/>
</filter>
<filter id="filter1_f_15_856" x="-103.475" y="-94.4754" width="301.411" height="301.411" filterUnits="userSpaceOnUse" color-interpolation-filters="sRGB">
<feFlood flood-opacity="0" result="BackgroundImageFix"/>
<feBlend mode="normal" in="SourceGraphic" in2="BackgroundImageFix" result="shape"/>
<feGaussianBlur stdDeviation="45.7312" result="effect1_foregroundBlur_15_856"/>
</filter>
<filter id="filter2_f_15_856" x="-17.8517" y="-103.15" width="244.937" height="244.763" filterUnits="userSpaceOnUse" color-interpolation-filters="sRGB">
<feFlood flood-opacity="0" result="BackgroundImageFix"/>
<feBlend mode="normal" in="SourceGraphic" in2="BackgroundImageFix" result="shape"/>
<feGaussianBlur stdDeviation="23.3758" result="effect1_foregroundBlur_15_856"/>
</filter>
<clipPath id="clip0_15_856">
<rect width="100" height="100" fill="white"/>
</clipPath>
</defs>
</svg>
