<?xml version="1.0" encoding="UTF-8"?>
<svg id="Layer_1" data-name="Layer 1" xmlns="http://www.w3.org/2000/svg" viewBox="0 0 80 80">
  <path d="m39.63,43.92c-.39,0-.7-.31-.7-.7v-12.94c0-.39.31-.7.7-.7s.7.31.7.7v12.94c0,.39-.31.7-.7.7Z"/>
  <path d="m46.69,43.92c-.39,0-.7-.31-.7-.7v-18.52c0-.39.31-.7.7-.7s.7.31.7.7v18.52c0,.39-.31.7-.7.7Z"/>
  <path d="m32.87,43.92c-.39,0-.7-.31-.7-.7v-7.35c0-.39.31-.7.7-.7s.7.31.7.7v7.35c0,.39-.31.7-.7.7Z"/>
  <path d="m26.99,43.92c-.39,0-.7-.31-.7-.7v-13.23c0-.39.31-.7.7-.7s.7.31.7.7v13.23c0,.39-.31.7-.7.7Z"/>
  <path d="m53.16,43.92c-.39,0-.7-.31-.7-.7v-7.64c0-.39.31-.7.7-.7s.7.31.7.7v7.64c0,.39-.31.7-.7.7Z"/>
  <g>
    <path d="m17.73,40.1c-.39,0-.7-.31-.7-.7v-1.3c0-.39.31-.7.7-.7s.7.31.7.7v1.3c0,.39-.31.7-.7.7Z"/>
    <path d="m17.73,36.4c-.39,0-.7-.31-.7-.7v-2.4c0-.39.31-.7.7-.7s.7.31.7.7v2.4c0,.39-.31.7-.7.7Zm0-4.79c-.39,0-.7-.31-.7-.7v-2.4c0-.39.31-.7.7-.7s.7.31.7.7v2.4c0,.39-.31.7-.7.7Z"/>
    <path d="m17.73,26.82c-.39,0-.7-.31-.7-.7v-1.3c0-.39.31-.7.7-.7s.7.31.7.7v1.3c0,.39-.31.7-.7.7Z"/>
  </g>
  <path d="m11.26,40.1c-.39,0-.7-.31-.7-.7v-4c0-.39.31-.7.7-.7s.7.31.7.7v4c0,.39-.31.7-.7.7Zm0-8c-.39,0-.7-.31-.7-.7v-.23c0-.39.31-.7.7-.7s.7.31.7.7v.23c0,.39-.31.7-.7.7Z"/>
  <g>
    <path d="m5.67,40.1c-.39,0-.7-.31-.7-.7v-1.3c0-.39.31-.7.7-.7s.7.31.7.7v1.3c0,.39-.31.7-.7.7Z"/>
    <path d="m5.67,35.75c-.39,0-.7-.31-.7-.7v-3.05c0-.39.31-.7.7-.7s.7.31.7.7v3.05c0,.39-.31.7-.7.7Z"/>
    <path d="m5.67,29.64c-.39,0-.7-.31-.7-.7v-1.3c0-.39.31-.7.7-.7s.7.31.7.7v1.3c0,.39-.31.7-.7.7Z"/>
  </g>
  <g>
    <path d="m68.16,40.1c-.39,0-.7-.31-.7-.7v-1.3c0-.39.31-.7.7-.7s.7.31.7.7v1.3c0,.39-.31.7-.7.7Z"/>
    <path d="m68.16,36.4c-.39,0-.7-.31-.7-.7v-2.4c0-.39.31-.7.7-.7s.7.31.7.7v2.4c0,.39-.31.7-.7.7Zm0-4.79c-.39,0-.7-.31-.7-.7v-2.4c0-.39.31-.7.7-.7s.7.31.7.7v2.4c0,.39-.31.7-.7.7Z"/>
    <path d="m68.16,26.82c-.39,0-.7-.31-.7-.7v-1.3c0-.39.31-.7.7-.7s.7.31.7.7v1.3c0,.39-.31.7-.7.7Z"/>
  </g>
  <path d="m62.27,40.1c-.39,0-.7-.31-.7-.7v-4c0-.39.31-.7.7-.7s.7.31.7.7v4c0,.39-.31.7-.7.7Z"/>
  <path d="m39.86,54.52c-10.8,0-19.59-8.79-19.59-19.59s8.79-19.59,19.59-19.59,19.59,8.79,19.59,19.59-8.79,19.59-19.59,19.59Zm0-37.77c-10.03,0-18.19,8.16-18.19,18.19s8.16,18.19,18.19,18.19,18.19-8.16,18.19-18.19-8.16-18.19-18.19-18.19Z"/>
  <path d="m72.94,64.65c-.15,0-.3-.05-.43-.15l-19.77-15.47c-.3-.24-.36-.68-.12-.98.24-.3.68-.36.98-.12l19.77,15.47c.3.24.36.68.12.98-.14.18-.34.27-.55.27Z"/>
  <g>
    <path d="m74.33,40.1c-.39,0-.7-.31-.7-.7v-1.3c0-.39.31-.7.7-.7s.7.31.7.7v1.3c0,.39-.31.7-.7.7Z"/>
    <path d="m74.33,35.75c-.39,0-.7-.31-.7-.7v-3.05c0-.39.31-.7.7-.7s.7.31.7.7v3.05c0,.39-.31.7-.7.7Z"/>
    <path d="m74.33,29.64c-.39,0-.7-.31-.7-.7v-1.3c0-.39.31-.7.7-.7s.7.31.7.7v1.3c0,.39-.31.7-.7.7Z"/>
  </g>
</svg>