<?xml version="1.0" encoding="UTF-8"?>
<svg id="figma_components" data-name="figma components" xmlns="http://www.w3.org/2000/svg" viewBox="0 0 80 80">
  <path d="m40.01,77.1c-.12,0-.23-.03-.34-.09l-2.27-1.24s-.08-.03-.12-.05c-2.91-1.69-8.61-5.32-14.17-10.64-3.97-3.8-7.18-7.78-9.54-11.83-2.98-5.1-4.7-10.41-5.11-15.78-1.14-15.54.69-21.88.77-22.15l.32-1.07c.06-.21.22-.38.43-.46L39.75,2.94c.16-.06.33-.06.49,0l2.27.84,27.48,10.02c.21.08.37.24.43.46l.32,1.06c.2.67,1.91,6.94.79,22.15-.41,5.38-2.12,10.69-5.11,15.79-2.36,4.05-5.57,8.03-9.54,11.83-5.56,5.32-11.26,8.95-14.17,10.64l-2.36,1.29c-.1.06-.22.09-.34.09Zm-2.11-2.65s.07.03.1.05l2.01,1.1,2.01-1.1c2.84-1.65,8.44-5.21,13.89-10.43,3.87-3.71,7-7.58,9.29-11.52,2.88-4.91,4.53-10.02,4.92-15.18,1.12-15.21-.66-21.38-.74-21.64l-.22-.73-29.18-10.65-2.03.75L10.81,15l-.22.73c-.08.25-1.84,6.36-.71,21.64.39,5.16,2.04,10.27,4.92,15.18,2.29,3.94,5.42,7.82,9.29,11.52,5.39,5.16,10.93,8.7,13.81,10.38Z"/>
  <g>
    <g>
      <path d="m12.43,33.58c-.19,0-.38-.08-.52-.23-.26-.29-.24-.73.04-.99.39-.36.82-.72,1.27-1.06.31-.24.75-.18.98.13.24.31.18.75-.13.98-.42.32-.82.65-1.18.99-.13.12-.3.18-.47.18Z"/>
      <path d="m16.35,30.78c-.24,0-.48-.13-.61-.35-.19-.34-.08-.76.26-.96.91-.52,1.9-1.02,2.95-1.48.36-.15.77,0,.92.36.16.35,0,.77-.36.92-1,.44-1.95.92-2.82,1.42-.11.06-.23.09-.35.09Zm46.77-.31c-.11,0-.23-.03-.33-.08-.88-.48-1.84-.94-2.85-1.36-.36-.15-.52-.56-.38-.92.15-.36.56-.52.92-.38,1.05.44,2.05.92,2.97,1.42.34.18.47.61.28.95-.13.23-.37.37-.62.37Zm-40.88-2.31c-.29,0-.56-.18-.66-.47-.12-.37.07-.76.43-.89,1.01-.35,2.06-.67,3.14-.95.38-.1.76.12.86.5.1.37-.12.76-.5.86-1.04.28-2.07.59-3.04.92-.08.03-.15.04-.23.04Zm34.95-.2c-.07,0-.15-.01-.22-.04-.98-.32-2.01-.62-3.05-.88-.38-.09-.6-.47-.51-.85.09-.38.48-.6.85-.51,1.08.27,2.14.58,3.15.91.37.12.57.51.45.88-.1.3-.37.48-.67.48Zm-28.71-1.46c-.33,0-.62-.23-.69-.56-.08-.38.17-.75.55-.82,1.05-.21,2.14-.39,3.22-.54.37-.06.74.21.79.6s-.21.74-.6.79c-1.06.15-2.12.32-3.14.52-.05,0-.09.01-.14.01Zm22.46-.12s-.08,0-.13-.01c-1.04-.19-2.1-.36-3.15-.49-.38-.05-.66-.4-.61-.78s.41-.66.78-.61c1.08.14,2.17.31,3.23.5.38.07.63.44.56.82-.06.34-.36.57-.69.57Zm-16.07-.76c-.36,0-.67-.28-.7-.64-.03-.39.25-.72.64-.75,1.06-.09,2.16-.15,3.26-.18.38-.04.71.29.72.68.01.39-.29.71-.68.72-1.07.03-2.15.09-3.19.18-.02,0-.04,0-.06,0Zm9.67-.05s-.03,0-.05,0c-1.05-.08-2.12-.12-3.19-.15-.39,0-.69-.33-.69-.71s.34-.7.71-.69c1.09.02,2.19.07,3.26.15.39.03.68.36.65.75-.03.37-.33.65-.7.65Z"/>
      <path d="m67.12,33.18c-.16,0-.32-.05-.45-.17-.38-.32-.79-.64-1.21-.95-.31-.23-.38-.67-.16-.98.23-.31.66-.38.98-.16.46.33.89.67,1.3,1.02.29.25.33.69.08.99-.14.16-.34.25-.53.25Z"/>
    </g>
    <g>
      <path d="m17.74,52.2c-.11,0-.21-.02-.31-.07-.5-.25-.98-.51-1.44-.77-.34-.19-.45-.62-.26-.96.19-.34.62-.45.96-.26.44.25.9.5,1.38.74.34.17.48.59.31.94-.12.24-.37.39-.63.39Z"/>
      <path d="m41.11,56.82c-.38,0-.69-.31-.7-.69,0-.39.3-.71.69-.71,1.13-.02,2.27-.07,3.39-.15.38-.02.72.26.75.65.03.39-.26.72-.65.75-1.15.08-2.32.13-3.47.15h-.01Zm-3.43-.03s-.02,0-.03,0c-1.15-.04-2.32-.12-3.46-.22-.38-.04-.67-.38-.63-.76.04-.38.36-.68.76-.63,1.12.1,2.26.18,3.39.22.39.01.69.34.67.72-.01.38-.32.67-.7.67Zm10.28-.46c-.35,0-.65-.26-.69-.61-.05-.38.22-.73.6-.78,1.14-.15,2.26-.33,3.34-.54.37-.07.75.17.82.55.07.38-.17.75-.55.82-1.11.22-2.27.4-3.43.55-.03,0-.06,0-.09,0Zm-17.11-.17s-.07,0-.11,0c-1.17-.18-2.32-.39-3.42-.63-.38-.08-.62-.46-.53-.83.08-.38.45-.62.83-.53,1.08.23,2.2.44,3.33.61.38.06.64.42.59.8-.05.35-.35.59-.69.59Zm23.84-1.14c-.31,0-.59-.21-.68-.52-.1-.37.12-.76.5-.86,1.11-.29,2.2-.62,3.23-.99.37-.12.76.07.89.43s-.07.76-.43.89c-1.07.37-2.19.71-3.33,1.02-.06.02-.12.02-.18.02Zm-30.55-.33c-.06,0-.13,0-.2-.03-1.14-.33-2.25-.71-3.31-1.11-.36-.14-.54-.54-.4-.9s.54-.54.9-.4c1.02.39,2.1.75,3.2,1.08.37.11.58.5.48.87-.09.31-.37.5-.67.5Z"/>
      <path d="m61.16,52.73c-.27,0-.52-.15-.64-.41-.16-.35,0-.77.35-.93.48-.22.95-.45,1.41-.68.35-.18.77-.04.94.3.18.34.04.77-.3.94-.47.25-.96.48-1.47.71-.09.04-.19.06-.29.06Z"/>
    </g>
  </g>
  <path d="m37.97,46.73c-.17,0-.33-.06-.46-.17l-4.21-3.6c-.29-.25-.33-.69-.08-.99.25-.29.69-.33.99-.08l3.65,3.12,7.82-10.23c.23-.31.67-.37.98-.13.31.23.37.67.13.98l-8.27,10.82c-.12.15-.29.25-.48.27-.02,0-.05,0-.07,0Z"/>
</svg>