<svg width="77" height="61" viewBox="0 0 77 61" fill="none" xmlns="http://www.w3.org/2000/svg">
<path d="M42.0518 26.0014C42.0518 26.0014 40.7081 24.7122 38.4863 24.8434C36.2645 24.9746 35.1978 26.4292 35.2567 27.6614C35.3156 28.8936 35.7576 29.5667 38.3095 30.7761C40.8613 31.9854 42.0872 32.6472 42.0577 34.3471C42.0282 36.0471 40.9026 37.0568 38.4922 37.0853C36.0818 37.1138 34.7734 35.4595 34.7734 35.4595" stroke="black" stroke-width="1.4" stroke-linecap="round" stroke-linejoin="round"/>
<path d="M38.75 22.5166V39.404" stroke="black" stroke-width="1.4" stroke-linecap="round" stroke-linejoin="round"/>
<path d="M38.5847 58.2778C54.2206 58.2778 66.896 45.6024 66.896 29.9665C66.896 14.3307 54.2206 1.65527 38.5847 1.65527C22.9488 1.65527 10.2734 14.3307 10.2734 29.9665C10.2734 45.6024 22.9488 58.2778 38.5847 58.2778Z" stroke="black" stroke-width="1.4" stroke-linecap="round" stroke-linejoin="round"/>
<path d="M23.4511 53.7907C29.0847 57.456 40.5194 49.8715 48.9912 36.8503C57.463 23.829 59.7638 10.3019 54.1302 6.63661C48.4966 2.97131 37.0619 10.5558 28.5901 23.577C20.1183 36.5983 17.8175 50.1254 23.4511 53.7907Z" stroke="black" stroke-width="1.4" stroke-linecap="round" stroke-linejoin="round" stroke-dasharray="3.31 3.31"/>
<path d="M0.504974 17.3859C0.231607 17.6593 0.231607 18.1025 0.504974 18.3758L4.95975 22.8306C5.23311 23.104 5.67633 23.104 5.9497 22.8306C6.22306 22.5572 6.22306 22.114 5.9497 21.8407L1.9899 17.8809L5.9497 13.9211C6.22306 13.6477 6.22306 13.2045 5.9497 12.9311C5.67633 12.6577 5.23311 12.6577 4.95975 12.9311L0.504974 17.3859ZM21.6953 18.5809C22.0819 18.5809 22.3953 18.2675 22.3953 17.8809C22.3953 17.4943 22.0819 17.1809 21.6953 17.1809L21.6953 18.5809ZM0.999948 18.5809L21.6953 18.5809L21.6953 17.1809L0.999949 17.1809L0.999948 18.5809Z" fill="black"/>
<path d="M76.495 41.5545C76.7684 41.2812 76.7684 40.838 76.495 40.5646L72.0403 36.1098C71.7669 35.8365 71.3237 35.8365 71.0503 36.1098C70.7769 36.3832 70.7769 36.8264 71.0503 37.0998L75.0101 41.0596L71.0503 45.0194C70.7769 45.2927 70.7769 45.7359 71.0503 46.0093C71.3237 46.2827 71.7669 46.2827 72.0403 46.0093L76.495 41.5545ZM55.3047 40.3596C54.9181 40.3596 54.6047 40.673 54.6047 41.0596C54.6047 41.4462 54.9181 41.7596 55.3047 41.7596L55.3047 40.3596ZM76.0001 40.3596L55.3047 40.3596L55.3047 41.7596L76.0001 41.7596L76.0001 40.3596Z" fill="black"/>
</svg>
