<svg width="88" height="51" viewBox="0 0 88 51" fill="none" xmlns="http://www.w3.org/2000/svg">
<path d="M45.2283 48.3248C43.5342 50.3427 40.4725 50.5669 38.4722 48.8344L17.2852 30.3271M44.4527 41.2725L49.8005 45.5528C50.8415 46.3681 51.0456 47.8356 50.27 48.9159C49.4331 50.0981 47.7594 50.3427 46.6163 49.4459L39.1253 43.5961M55.4544 43.3719C56.5158 44.2891 56.3934 45.3898 55.5769 46.5108C54.6584 47.7745 52.8418 48.0191 51.6171 47.0407L43.1464 40.2738" stroke="black" stroke-width="1.4" stroke-linecap="round" stroke-linejoin="round"/>
<path d="M70.1594 31.1475L59.0938 39.3442" stroke="black" stroke-width="1.4" stroke-linecap="round" stroke-linejoin="round"/>
<path d="M60.3183 16.7567L58.9919 17.2885C56.8493 17.2885 54.7475 16.7363 52.8906 15.7138L52.5233 15.5093C50.6664 14.4663 48.5646 13.9346 46.422 13.9346C42.9123 13.9346 39.5657 15.407 37.1987 17.9633L33.3828 22.1148C31.9952 23.6281 32.1789 26.0004 33.7705 27.2887C35.1785 28.434 37.2395 28.3522 38.5659 27.1047L43.5652 22.3806L59.4408 39.8045C60.3183 40.7656 60.3795 42.1767 59.6041 43.1992C59.0735 43.915 58.2573 44.2627 57.4411 44.2627C56.8085 44.2627 56.1759 44.0377 55.6658 43.6082L47.0546 36.1438" stroke="black" stroke-width="1.4" stroke-linecap="round" stroke-linejoin="round"/>
<path d="M37.3674 16.8031C37.3674 16.8031 35.6435 14.2075 31.9727 14.5718C28.3019 14.9361 27.5312 13.5244 27.5312 13.5244" stroke="black" stroke-width="1.4" stroke-linecap="round" stroke-linejoin="round"/>
<path d="M12.1748 13.6655C15.6761 8.16319 17.2083 2.87406 15.597 1.8519C13.9857 0.829732 9.84106 4.46161 6.33973 9.96393C2.83839 15.4662 1.30622 20.7554 2.91752 21.7775C4.52882 22.7997 8.67343 19.1678 12.1748 13.6655Z" stroke="black" stroke-width="1.4" stroke-linecap="round" stroke-linejoin="round" stroke-dasharray="4.1 4.1"/>
<path d="M2.94141 21.8242L14.5463 30.7174C14.5463 30.7174 18.5304 31.5447 23.8016 22.5067C29.0729 13.4687 27.2136 10.5319 27.2136 10.5319L15.6087 1.63867" stroke="black" stroke-width="1.4" stroke-linecap="round" stroke-linejoin="round"/>
<path d="M84.4368 23.151C86.0481 22.1289 84.5159 16.8397 81.0146 11.3374C77.5133 5.8351 73.3687 2.20322 71.7574 3.22538C70.1461 4.24755 71.6782 9.53668 75.1796 15.039C78.6809 20.5413 82.8255 24.1732 84.4368 23.151Z" stroke="black" stroke-width="1.4" stroke-linecap="round" stroke-linejoin="round" stroke-dasharray="4.1 4.1"/>
<path d="M84.5005 23.1796L72.8956 31.9475C72.8956 31.9475 68.9115 32.7632 63.6403 23.8525C58.369 14.9418 60.2283 12.0463 60.2283 12.0463L71.8332 3.27832" stroke="black" stroke-width="1.4" stroke-linecap="round" stroke-linejoin="round"/>
</svg>
