<svg width="245" height="204" viewBox="0 0 245 204" fill="none" xmlns="http://www.w3.org/2000/svg">
<path d="M68.4243 84H53V120.888L68.4243 84Z" fill="white"/>
<path d="M79.2773 84H94.6815V120.888L79.2773 84Z" fill="white"/>
<path d="M73.8499 97.5952L83.6671 120.887H77.2261L74.292 113.472H67.1074L73.8499 97.5952Z" fill="white"/>
<path d="M119.844 107.458L121.663 112.673C121.723 112.803 121.813 112.864 121.974 112.864H125.471C125.662 112.864 125.692 112.773 125.662 112.582L118.437 92.5156C118.407 92.3549 118.377 92.3247 118.216 92.3247H113.875C113.755 92.3247 113.684 92.4151 113.684 92.5458C113.624 93.6009 113.533 93.9224 113.403 94.2339L106.962 112.552C106.932 112.773 107.002 112.864 107.183 112.864H110.308C110.499 112.864 110.589 112.803 110.66 112.612L112.378 107.458H119.844ZM113.373 104.051C114.317 101.197 115.563 97.5398 116.066 95.4498H116.096C116.719 97.6403 118.186 101.981 118.849 104.051H113.373Z" fill="white"/>
<path d="M134.95 113.175C136.829 113.175 138.829 112.833 140.858 111.959C141.019 111.899 141.049 111.829 141.049 111.678C140.989 111.115 140.919 110.301 140.919 109.678V90.7873C140.919 90.6667 140.919 90.6064 140.768 90.6064H137.361C137.231 90.6064 137.171 90.6667 137.171 90.8275V97.2283C136.638 97.168 136.266 97.1379 135.824 97.1379C130.328 97.1379 126.951 100.765 126.951 105.297C126.951 110.552 130.418 113.175 134.95 113.175ZM137.171 109.678C136.608 109.859 135.985 109.929 135.352 109.929C132.86 109.929 130.82 108.523 130.82 105.106C130.82 102.082 132.92 100.293 135.703 100.293C136.266 100.293 136.759 100.353 137.171 100.514V109.678Z" fill="white"/>
<path d="M151.917 97.1377C147.224 97.1377 144.32 100.735 144.32 105.176C144.32 109.146 146.631 113.175 151.847 113.175C156.258 113.175 159.353 109.929 159.353 105.076C159.353 100.795 156.73 97.1377 151.917 97.1377ZM151.726 100.293C154.379 100.293 155.504 102.574 155.504 105.176C155.504 108.392 153.846 109.99 151.917 109.99C149.535 109.99 148.129 107.99 148.129 105.106C148.129 102.142 149.626 100.293 151.726 100.293Z" fill="white"/>
<path d="M162.873 90.6064C162.743 90.6064 162.652 90.6667 162.652 90.8275V112.21C162.652 112.301 162.743 112.462 162.873 112.492C164.371 112.954 165.938 113.175 167.556 113.175C172.188 113.175 176.69 110.301 176.69 104.513C176.69 100.323 173.816 97.1379 169.314 97.1379C168.279 97.1379 167.315 97.2987 166.471 97.58L166.431 90.8577C166.431 90.6366 166.37 90.6064 166.149 90.6064H162.873ZM172.841 104.895C172.841 108.362 170.47 109.99 167.908 109.99C167.375 109.99 166.903 109.96 166.471 109.829V100.705C166.963 100.514 167.556 100.353 168.651 100.353C171.123 100.353 172.841 101.921 172.841 104.895Z" fill="white"/>
<path d="M189.401 106.02C190.928 106.02 192.184 105.99 192.617 105.89C192.777 105.86 192.838 105.799 192.868 105.669C192.958 105.327 192.998 104.614 192.998 103.739C192.998 100.765 191.21 97.1377 186.588 97.1377C181.865 97.1377 179.242 100.986 179.242 105.327C179.242 109.176 181.272 113.175 186.959 113.175C189.09 113.175 190.466 112.833 191.652 112.271C191.773 112.21 191.833 112.11 191.833 111.929V109.326C191.833 109.176 191.742 109.146 191.652 109.206C190.466 109.708 189.18 109.959 187.773 109.959C184.588 109.959 183.141 108.201 183.051 106.02H189.401ZM183.051 103.327C183.302 101.8 184.266 100.142 186.427 100.142C188.808 100.142 189.431 102.142 189.431 103.046C189.431 103.076 189.431 103.207 189.431 103.297C189.301 103.327 188.899 103.327 187.713 103.327H183.051Z" fill="white"/>
</svg>
