<svg width="245" height="204" viewBox="0 0 245 204" fill="none" xmlns="http://www.w3.org/2000/svg">
<path d="M63.9074 136.833C66.4112 136.808 67.2212 134.832 67.2212 132.672C67.1967 130.708 66.3498 128.499 63.8828 128.499C61.4895 128.523 60.5444 130.696 60.5444 132.672C60.5444 134.918 61.5508 136.833 63.9074 136.833ZM63.9074 126.449C67.8227 126.474 69.5655 129.334 69.5655 132.672C69.5655 136.01 68.0681 138.858 63.8828 138.882C59.7834 138.833 58.2247 135.937 58.2247 132.672C58.2124 129.334 59.9798 126.498 63.9074 126.449" fill="black"/>
<path d="M85.7913 138.674V130.991C85.7913 129.052 85.0549 128.512 83.803 128.512C82.9561 128.512 81.9987 128.978 81.1273 129.69C81.1764 129.948 81.1887 130.463 81.1887 130.61V138.674H78.7462V130.917C78.7462 128.978 78.1571 128.512 76.9175 128.512C76.132 128.512 75.0396 129.027 74.1068 129.702V138.674H71.7012V126.671H74.1191V127.689C74.8555 127.112 76.0338 126.45 77.3225 126.437C79.0163 126.413 79.9981 126.99 80.5505 127.886C81.5569 126.965 83.0297 126.462 84.1712 126.437C88.1601 126.376 88.2215 129.506 88.2215 130.831V138.674H85.7913V138.674Z" fill="black"/>
<path d="M104.964 138.674V130.991C104.964 129.052 104.227 128.512 102.975 128.512C102.129 128.512 101.171 128.978 100.3 129.69C100.349 129.948 100.361 130.463 100.361 130.61V138.674H97.9187V130.917C97.9187 128.978 97.3295 128.512 96.0899 128.512C95.3044 128.512 94.212 129.027 93.2792 129.702V138.674H90.8613V126.671H93.2792V127.689C94.0156 127.112 95.1939 126.45 96.4826 126.437C98.1764 126.413 99.1583 126.99 99.7106 127.886C100.717 126.965 102.19 126.462 103.331 126.437C107.32 126.376 107.382 129.506 107.382 130.831V138.674H104.964V138.674Z" fill="black"/>
<path d="M111.738 131.273H117.113C117.028 128.843 115.788 128.352 114.634 128.352C112.793 128.328 111.946 129.543 111.738 131.273M118.66 136.477L119.028 138.416C117.936 138.785 116.438 138.944 115.26 138.944C110.424 138.944 109.246 135.765 109.246 132.586C109.246 129.408 110.682 126.462 114.732 126.462C117.236 126.462 119.323 127.972 119.347 131.838L119.323 133.102H111.615C111.664 135.446 112.94 136.87 115.358 136.87C116.328 136.882 117.334 136.772 118.66 136.477" fill="black"/>
<path d="M128.247 128.868C127.621 128.721 127.068 128.696 126.676 128.696C125.178 128.671 124.393 129.396 123.828 129.972V138.674H121.41V126.671H123.828V127.739C124.454 127.1 125.424 126.548 126.663 126.524C127.166 126.499 127.989 126.585 128.688 126.843L128.247 128.868Z" fill="black"/>
<path d="M135.315 136.822C136.296 136.822 136.861 136.76 138.101 136.503L138.407 138.552C137.45 138.81 136.382 138.933 135.315 138.933C130.54 138.933 129.178 136.012 129.178 132.6C129.227 129.274 131.264 126.463 135.302 126.463C136.37 126.463 137.291 126.586 138.395 126.868L137.978 128.893C136.8 128.635 136.1 128.599 135.364 128.599C132.835 128.635 131.596 130.476 131.559 132.612C131.547 134.711 132.357 136.822 135.315 136.822" fill="black"/>
<path d="M141.882 131.273H147.258C147.172 128.843 145.932 128.352 144.779 128.352C142.938 128.328 142.091 129.543 141.882 131.273M148.804 136.477L149.173 138.416C148.08 138.785 146.583 138.944 145.405 138.944C140.569 138.944 139.391 135.765 139.391 132.586C139.391 129.408 140.827 126.462 144.877 126.462C147.381 126.462 149.467 127.972 149.492 131.838L149.467 133.102H141.759C141.809 135.446 143.085 136.87 145.503 136.87C146.473 136.882 147.479 136.772 148.804 136.477" fill="black"/>
<path d="M157.691 128.623H154.364V134.441C154.364 135.656 154.512 136.515 155.776 136.675C156.476 136.736 157.187 136.675 157.887 136.589L158.034 138.639C157.31 138.761 156.291 138.786 155.874 138.786C153.027 138.675 151.959 137.252 151.959 135.018V128.623H150.191V126.979L151.959 126.782V123.996H154.352V126.659H157.678V128.623H157.691V128.623Z" fill="black"/>
<path d="M164.722 136.833C167.226 136.808 168.036 134.832 168.036 132.672C168.011 130.708 167.164 128.499 164.697 128.499C162.304 128.523 161.359 130.696 161.359 132.672C161.371 134.918 162.365 136.833 164.722 136.833M164.722 126.449C168.637 126.474 170.38 129.334 170.38 132.672C170.38 136.01 168.883 138.858 164.697 138.882C160.598 138.833 159.039 135.937 159.039 132.672C159.039 129.407 160.806 126.498 164.722 126.449" fill="black"/>
<path d="M177.745 136.833C180.249 136.808 181.059 134.832 181.059 132.672C181.035 130.708 180.188 128.499 177.721 128.499C175.327 128.523 174.382 130.696 174.382 132.672C174.394 134.918 175.401 136.833 177.745 136.833ZM177.745 126.449C181.66 126.474 183.403 129.334 183.403 132.672C183.403 136.01 181.906 138.858 177.721 138.882C173.621 138.833 172.062 135.937 172.062 132.672C172.062 129.407 173.83 126.498 177.745 126.449" fill="black"/>
<path d="M54.1368 136.822C55.1187 136.822 55.6833 136.76 56.9229 136.503L57.2298 138.552C56.2724 138.81 55.2046 138.933 54.1368 138.933C49.3624 138.933 48 136.012 48 132.6C48.0491 129.274 50.0865 126.463 54.1245 126.463C55.1923 126.463 56.1006 126.586 57.2175 126.868L56.8002 128.893C55.6219 128.635 54.9223 128.599 54.1859 128.599C51.6575 128.635 50.4179 130.476 50.3688 132.612C50.3688 134.711 51.1789 136.822 54.1368 136.822" fill="black"/>
<path d="M187.662 122.375H185.33V138.662H187.662V122.375Z" fill="black"/>
<path d="M190.117 136.342C191.491 136.686 192.768 136.858 193.578 136.858C194.535 136.858 195.517 136.662 195.578 135.532C195.64 134.342 194.376 133.974 192.94 133.385C191.307 132.722 189.54 131.826 189.589 129.616C189.638 128.512 190.313 126.327 193.921 126.438C195.014 126.462 196.315 126.634 197.407 126.904L196.99 128.868C195.701 128.573 194.744 128.438 193.811 128.414C192.768 128.414 191.958 128.733 191.921 129.69C191.896 130.5 192.547 130.93 194.167 131.568C195.799 132.231 198.107 133.078 197.996 135.594C197.935 137.189 196.867 138.944 193.578 138.895C192.535 138.871 190.853 138.748 189.613 138.319L190.117 136.342V136.342Z" fill="black"/>
<path d="M101.454 103.131C101.073 103.303 100.84 103.671 100.84 104.076C100.84 104.481 101.073 104.849 101.454 105.021L122.085 114.472C122.368 114.595 122.662 114.668 122.957 114.668V93.5576C122.65 93.5576 122.343 93.619 122.061 93.754L101.454 103.131V103.131Z" fill="#FF761C"/>
<path d="M122.957 93.5703V114.681C123.276 114.693 123.595 114.62 123.89 114.485L144.46 105.058C144.841 104.887 145.074 104.518 145.074 104.113C145.074 103.708 144.829 103.34 144.46 103.168L123.853 93.7667C123.571 93.6317 123.264 93.5703 122.957 93.5703" fill="#FF8C1E"/>
<path d="M100.84 75.5154C100.84 75.9327 101.073 76.2887 101.454 76.4605L122.085 85.9112C122.368 86.0339 122.662 86.1076 122.957 86.1076C123.215 86.1076 123.485 86.0708 123.73 85.9726C123.927 85.8866 123.89 85.8989 124.307 85.7148C126.443 84.7452 125.031 85.3957 144.46 76.485C144.841 76.3132 145.074 75.945 145.074 75.54C145.074 75.1349 144.829 74.7667 144.46 74.5949L123.853 65.1933C123.288 64.9356 122.626 64.9356 122.061 65.1933L101.454 74.5704C101.085 74.7422 100.84 75.1104 100.84 75.5154Z" fill="#00C1AD"/>
<path d="M122.957 87.2983V93.5701C122.65 93.5701 122.343 93.6315 122.061 93.7665L101.454 103.131C101.073 103.303 100.84 103.671 100.84 104.076V75.5156C100.84 75.9207 101.073 76.2889 101.454 76.4607L122.085 85.9114C122.368 86.0341 122.662 86.1078 122.957 86.1078C123.215 86.1078 123.485 86.0709 123.73 85.9728L123.693 85.985C123.055 86.2919 122.957 86.5742 122.957 87.2983" fill="#D1D1D1"/>
</svg>
