<svg width="245" height="204" viewBox="0 0 245 204" fill="none" xmlns="http://www.w3.org/2000/svg">
<g clip-path="url(#clip0_210_1089)">
<path d="M60.7105 107.259C59.1958 105.744 58.3438 103.662 58.3438 101.484C58.3438 99.3069 59.1958 97.2242 60.7105 95.7095C62.0358 94.5735 62.1305 92.4909 60.9945 91.1655C59.8585 89.8402 57.8705 89.8402 56.5452 90.9762C56.4505 91.0709 56.3558 91.1655 56.2612 91.2602C50.5812 96.9402 50.5812 106.123 56.1665 111.803C57.3025 113.128 59.3852 113.223 60.7105 112.087C62.0358 110.951 62.1305 108.868 60.9945 107.543C60.8998 107.354 60.8052 107.354 60.7105 107.259Z" fill="#FFDA00"/>
<path d="M60.8039 95.7091C64.0226 92.5851 69.1346 92.5851 72.2586 95.7091C73.3946 97.0344 75.4772 97.1291 76.8026 95.9931C78.1279 94.8571 78.2226 92.7744 77.0866 91.4491C76.9919 91.3544 76.8972 91.2597 76.8026 91.1651C71.2172 85.4851 62.0346 85.3904 56.3546 91.0704C56.3546 91.0704 56.3546 91.0704 56.2599 91.1651C54.9346 92.3957 54.8399 94.3837 55.9759 95.7091C57.1119 97.0344 59.1946 97.2237 60.5199 95.9931C60.6146 95.8984 60.7092 95.8037 60.8039 95.7091Z" fill="#67B3FF"/>
<path d="M72.2577 107.258C70.743 108.773 68.6604 109.625 66.483 109.625C64.3057 109.625 62.223 108.773 60.7084 107.258C59.5724 105.933 57.4897 105.838 56.259 106.974C55.0284 108.11 54.839 110.193 55.975 111.518C56.0697 111.613 56.0697 111.613 56.1644 111.708C61.7497 117.388 70.9324 117.482 76.6124 111.802C77.843 110.572 77.843 108.489 76.6124 107.258C75.4764 106.028 73.4884 106.028 72.2577 107.258Z" fill="#EB5A68"/>
<path d="M60.6135 95.9934C59.3828 97.224 57.3002 97.224 56.0695 95.9934C54.8388 94.7627 54.8388 92.68 56.0695 91.4494C57.3002 90.2187 59.3828 90.2187 60.6135 91.4494C61.8442 92.68 61.8442 94.668 60.6135 95.9934Z" fill="#47A1FF"/>
<path d="M60.6135 111.613C59.3828 112.844 57.3002 112.844 56.0695 111.613C54.8388 110.383 54.8388 108.3 56.0695 107.069C57.3002 105.839 59.3828 105.839 60.6135 107.069C61.8442 108.395 61.8442 110.383 60.6135 111.613Z" fill="#D5465F"/>
<path fill-rule="evenodd" clip-rule="evenodd" d="M91.002 104.608C91.9487 103.945 92.0433 104.324 92.8007 105.081C93.1793 105.46 94.2207 106.122 93.558 106.69C92.138 107.921 90.8127 108.394 88.9193 108.394C84.754 108.394 81.7247 105.27 82.0087 101.105C82.1033 99.2118 82.8607 97.5078 84.2807 96.2771C85.606 95.1411 87.31 94.6678 89.014 94.6678C89.866 94.6678 90.718 94.8571 91.4753 95.1411C92.0433 95.3305 92.5167 95.6145 92.99 95.8985C93.9367 96.6558 93.4633 97.0345 92.8007 97.7918C92.6113 97.9811 92.5167 98.0758 92.3273 98.2651C91.9487 98.6438 91.6647 98.9278 91.1913 98.5491C90.2447 97.8864 89.014 97.5078 87.9727 97.7918C84.3753 98.7385 84.47 105.176 88.9193 105.176C89.6767 105.27 90.434 105.081 91.002 104.608ZM191.633 108.489C191.065 108.489 190.497 108.016 190.497 107.353L190.591 93.0585C190.591 92.4905 191.065 91.9225 191.727 91.9225H192.958C193.526 91.9225 194.094 92.3958 194.094 93.0585L193.999 107.353C193.999 107.921 193.526 108.489 192.863 108.489H191.633ZM185.385 106.88C184.059 108.11 182.829 108.773 181.03 108.773C177.338 108.773 175.539 105.744 175.539 102.336V96.5611C175.539 95.9931 176.013 95.4251 176.675 95.4251H177.906C178.474 95.4251 179.042 95.8985 179.042 96.5611V102.336C179.042 104.229 180.083 105.744 182.071 105.744C184.059 105.744 185.29 104.04 185.29 102.146V100.064C185.29 99.9691 185.29 99.8745 185.29 99.7798V96.4665C185.29 95.8985 185.763 95.3305 186.426 95.3305H187.562C188.13 95.3305 188.698 95.8038 188.698 96.4665V107.448C188.698 108.016 188.225 108.489 187.562 108.489H186.521C185.953 108.489 185.479 108.016 185.479 107.448L185.385 106.88ZM171.279 95.3305H173.551C174.119 95.3305 174.687 95.8038 174.593 96.4665V97.2238C174.593 97.7918 174.119 98.3598 173.457 98.3598H171.279V107.353C171.279 107.921 170.806 108.489 170.143 108.489H168.913C168.345 108.489 167.777 108.016 167.777 107.353V94.8571C167.777 92.1118 169.386 90.0291 172.131 89.7451C172.226 89.7451 172.226 89.7451 172.321 89.7451C172.51 89.7451 172.605 89.7451 172.794 89.7451H173.835C174.403 89.7451 174.971 90.2185 174.877 90.8811V91.5438C174.877 92.1118 174.403 92.6798 173.741 92.6798H172.889C171.563 92.6798 170.995 93.7211 170.995 94.9518L171.279 95.3305ZM163.043 95.3305H165.599C166.167 95.3305 166.641 95.8038 166.641 96.4665V97.2238C166.641 97.7918 166.167 98.2651 165.505 98.2651H162.949V103.756C162.949 104.797 163.422 105.46 164.558 105.46H165.031C165.599 105.46 166.073 105.933 166.073 106.596V107.353C166.073 107.921 165.599 108.394 164.937 108.394H163.99C163.801 108.394 163.611 108.394 163.422 108.394C160.677 108.205 159.541 106.501 159.541 103.756C159.541 100.158 159.541 96.6558 159.541 93.0585C159.541 92.4905 160.014 92.0171 160.677 92.0171H161.813C162.381 92.0171 162.854 92.4905 162.854 93.1531L163.043 95.3305ZM126.691 95.1411H129.247C129.815 95.1411 130.289 95.6145 130.289 96.2771V97.0345C130.289 97.6025 129.815 98.0758 129.153 98.0758H126.597V103.566C126.597 104.608 127.07 105.27 128.206 105.27H128.679C129.247 105.27 129.721 105.744 129.721 106.406V107.164C129.721 107.732 129.247 108.205 128.585 108.205H127.827C124.893 108.205 123.094 106.88 123.094 103.566C123.094 99.9691 123.094 96.4665 123.094 92.8691C123.094 92.3011 123.567 91.8278 124.23 91.8278H125.366C125.934 91.8278 126.407 92.3011 126.407 92.9638L126.691 95.1411ZM111.923 96.7505C113.154 95.6145 114.479 94.8571 116.089 94.8571C119.781 94.8571 121.674 97.8865 121.674 101.294V107.069C121.674 107.637 121.201 108.205 120.538 108.205H119.307C118.739 108.205 118.171 107.732 118.171 107.069V101.294C118.171 99.4011 117.13 97.8865 115.142 97.8865C113.154 97.8865 111.923 99.4958 111.923 101.389V106.974C111.923 107.542 111.45 108.016 110.787 108.016H109.746C109.178 108.016 108.705 107.542 108.705 106.88C108.705 103.377 108.705 99.8745 108.705 96.3718V96.1825C108.705 95.6145 109.178 95.0465 109.841 95.0465H110.882C111.45 95.0465 111.923 95.5198 111.923 96.0878V96.7505ZM148.37 96.8451C149.601 95.7091 150.926 94.9518 152.535 94.9518C156.227 94.9518 158.121 97.9811 158.121 101.389V107.258C158.121 107.826 157.647 108.394 156.985 108.394H155.754C155.186 108.394 154.618 107.921 154.618 107.258V101.484C154.618 99.5905 153.577 98.0758 151.589 98.0758C149.601 98.0758 148.37 99.6851 148.37 101.578V107.164C148.37 107.732 147.897 108.205 147.234 108.205H146.098C145.53 108.205 145.057 107.732 145.057 107.069V96.0878C145.057 95.5198 145.53 94.9518 146.193 94.9518H147.234C147.802 94.9518 148.275 95.4251 148.275 96.0878L148.37 96.8451ZM100.753 94.7625C96.7767 94.7625 93.9367 97.6025 93.9367 101.578C93.9367 105.554 96.682 108.394 100.753 108.489C104.823 108.489 107.569 105.649 107.663 101.673C107.663 97.6971 104.729 94.7625 100.753 94.7625ZM133.886 102.998C134.17 104.892 135.969 105.554 137.673 105.649C138.525 105.649 139.377 105.46 140.134 105.081C140.229 104.986 140.418 104.986 140.513 104.892C140.891 104.702 141.27 104.513 141.649 104.892C141.838 105.081 142.027 105.27 142.217 105.46C142.406 105.649 142.595 105.838 142.785 106.028C143.353 106.69 142.974 106.88 142.311 107.353C140.986 108.3 139.187 108.678 137.578 108.678C133.223 108.678 130.383 106.028 130.383 101.673C130.383 97.5078 133.223 94.7625 137.389 94.8571C141.649 94.8571 144.015 97.3185 144.11 101.578C144.11 102.714 144.205 103.093 142.974 103.093L133.886 102.998ZM100.753 97.8865C102.835 97.8865 104.161 99.6851 104.161 101.673C104.161 103.756 102.835 105.365 100.658 105.365C98.4807 105.365 97.25 103.661 97.25 101.578C97.25 99.4958 98.67 97.8865 100.753 97.8865ZM133.981 100.158H140.797C140.513 98.4545 139.187 97.7918 137.483 97.7918C135.874 97.7918 134.454 98.5491 133.981 100.158Z" fill="white"/>
</g>
<defs>
<clipPath id="clip0_210_1089">
<rect width="142" height="29.0627" fill="white" transform="translate(52 87)"/>
</clipPath>
</defs>
</svg>
