<svg width="245" height="204" viewBox="0 0 245 204" fill="none" xmlns="http://www.w3.org/2000/svg">
<g clip-path="url(#clip0_203_1053)">
<path d="M49.6 95H48V93.2H49.6V91.2C49.6 89.4 50.1 88 52.6 88C53.1 88 53.7 88.1 54.1 88.2V89.9C53.6 89.9 53.2 89.9 52.8 89.9C52 89.9 51.9 90.3 51.9 91V93.1H53.9V95H51.9V106.5H49.6V95Z" fill="white"/>
<path d="M55.8 106.5H58V88.2002H55.8V106.5Z" fill="white"/>
<path d="M60.3 103.9V93H62.6V102.9C62.6 103.4 62.6 104.9 64.3 104.9C65.5 104.9 66.1 103.6 66.1 102.4V93H68.3V106.5H66.2V104.9C65.7 106.1 64.5 106.8 63.3 106.8C61.8 106.9 60.5 105.7 60.5 104.1C60.3 104.1 60.3 103.9 60.3 103.9Z" fill="white"/>
<path d="M76.2999 98.4002V96.4002C76.2999 95.3002 75.6999 94.4002 74.4999 94.4002C73.2999 94.4002 72.5999 95.3002 72.5999 96.4002V98.3002L76.2999 98.4002ZM70.3999 102.9V96.9002C70.3999 94.3002 71.9999 92.7002 74.6999 92.7002C77.3999 92.7002 78.4999 94.4002 78.4999 96.9002V100.1H72.6999V102.7C72.6999 104 73.1999 104.9 74.5999 104.9C75.4999 105 76.2999 104.2 76.3999 103.3C76.3999 103.2 76.3999 103.1 76.3999 103V102.1H78.4999V102.8C78.4999 105.1 77.1999 106.8 74.5999 106.8C71.9999 106.8 70.3999 105.5 70.3999 102.9Z" fill="white"/>
<path d="M80.6001 93.0001H82.8001V94.5001H82.9001C83.4001 93.4001 84.5001 92.6001 85.8001 92.6001C87.3001 92.5001 88.6001 93.7001 88.7001 95.2001C88.7001 95.3001 88.7001 95.4001 88.7001 95.5001V106.4H86.4001V96.6001C86.4001 96.1001 86.3001 94.7001 84.7001 94.7001C83.5001 94.7001 82.9001 96.0001 82.9001 97.1001V106.5H80.6001V93.0001Z" fill="white"/>
<path d="M91.6001 103.8V94.9998H90.1001V93.1998L91.6001 93.0998V89.8998L93.9001 88.7998V92.9998H96.3001V94.8998H93.9001V103.1C93.9001 103.8 94.0001 104.4 95.1001 104.4C95.5001 104.4 95.8001 104.3 96.2001 104.3V106.2C95.6001 106.4 94.9001 106.5 94.3001 106.5C92.2001 106.7 91.7001 105.6 91.6001 103.8Z" fill="white"/>
<path d="M98.5 103V96.7998C98.5 94.0998 100.2 92.7998 102.4 92.7998C104.5 92.7998 106 93.7998 106 96.3998V97.3998H104.5V96.5998C104.5 95.2998 104 94.0998 102.3 94.0998C101 94.0998 100 95.0998 100 96.3998C100 96.4998 100 96.4998 100 96.4998V103C100 104 100.3 105.4 102.3 105.4C103.4 105.4 104.4 104.5 104.4 103.4V102.2H106V103.3C106 105.6 104.5 106.9 102.4 106.9C99.9 106.9 98.5 105.8 98.5 103Z" fill="white"/>
<path d="M113.8 102.9V96.5002C113.8 95.0002 113 94.2002 111.5 94.2002C110 94.2002 109.3 95.3002 109.3 96.7002V103C109.3 104.4 110 105.4 111.5 105.4C113 105.4 113.8 104.5 113.8 102.9ZM107.8 103.1V96.6002C107.8 94.4002 109.1 92.7002 111.7 92.7002C114.2 92.7002 115.5 94.3002 115.5 96.3002V102.6C115.5 105.1 114.2 106.8 111.6 106.8C109 106.9 107.8 105.6 107.8 103.1Z" fill="white"/>
<path d="M117.2 92.9999H118.8V94.4999H118.9C119.4 93.3999 120.6 92.5999 121.9 92.5999C123.2 92.4999 124.4 93.3999 124.6 94.6999C125.5 93.2999 126.4 92.5999 127.7 92.5999C130 92.5999 130.4 94.2999 130.4 95.4999V106.4H128.8V96.3999C128.8 95.7999 128.9 94.0999 126.9 94.0999C125.5 94.0999 124.7 95.6999 124.7 96.9999V106.4H123.1V96.1999C123.1 95.4999 122.9 94.1999 121.2 94.1999C119.8 94.1999 119 95.7999 119 97.0999V106.5H117.4L117.2 92.9999Z" fill="white"/>
<path d="M132.1 92.9999H133.7V94.4999H133.8C134.3 93.3999 135.5 92.5999 136.8 92.5999C138.1 92.4999 139.3 93.3999 139.5 94.6999C140.4 93.2999 141.2 92.5999 142.6 92.5999C144.9 92.5999 145.4 94.2999 145.4 95.4999V106.4H143.8V96.3999C143.8 95.7999 143.9 94.0999 141.9 94.0999C140.6 94.0999 139.7 95.6999 139.7 96.9999V106.4H138V96.1999C138 95.4999 137.8 94.1999 136.1 94.1999C134.7 94.1999 133.9 95.7999 133.9 97.0999V106.5H132.3L132.1 92.9999Z" fill="white"/>
<path d="M153 98.7002V96.5002C153 95.2002 152.3 94.1002 150.8 94.1002C149.3 94.1002 148.5 95.2002 148.5 96.6002V98.7002H153ZM146.9 103.1V96.9002C146.9 94.3002 148.4 92.7002 151 92.7002C153.6 92.7002 154.6 94.4002 154.6 96.9002V100H148.6V102.7C148.6 104.2 149.1 105.4 150.9 105.4C152.3 105.4 153.1 104.5 153.1 103.1V102.2H154.6V102.8C154.6 105.2 153.5 107 150.9 107C148.3 107 146.9 105.7 146.9 103.1Z" fill="white"/>
<path d="M156.5 92.9998H158.1V95.3998H158.2C158.9 93.6998 159.9 92.7998 161.1 92.7998C161.4 92.7998 161.6 92.7998 161.9 92.8998V94.5998C161.6 94.4998 161.2 94.4998 160.9 94.4998C159 94.4998 158.2 97.5998 158.2 99.2998V106.5H156.5V92.9998Z" fill="white"/>
<path d="M163.2 103V96.7998C163.2 94.0998 164.9 92.7998 167.1 92.7998C169.2 92.7998 170.7 93.7998 170.7 96.3998V97.3998H169.2V96.5998C169.2 95.2998 168.7 94.0998 167.1 94.0998C165.9 94.0998 164.8 94.9998 164.8 96.2998C164.8 96.3998 164.8 96.3998 164.8 96.4998V103C164.8 104 165.1 105.4 167.1 105.4C168.2 105.4 169.2 104.5 169.2 103.4V102.2H170.7V103.3C170.7 105.6 169.2 106.9 167.1 106.9C164.5 106.9 163.2 105.8 163.2 103Z" fill="white"/>
<path d="M178.4 98.7002V96.5002C178.4 95.2002 177.7 94.1002 176.2 94.1002C174.7 94.1002 173.9 95.2002 173.9 96.6002V98.7002H178.4ZM172.4 103.1V96.9002C172.4 94.3002 173.9 92.7002 176.5 92.7002C179.1 92.7002 180.1 94.4002 180.1 96.9002V100H174.1V102.7C174.1 104.2 174.6 105.4 176.4 105.4C177.8 105.4 178.6 104.5 178.6 103.1V102.2H180.1V102.8C180.1 105.2 179 107 176.5 107C173.8 106.9 172.4 105.7 172.4 103.1Z" fill="white"/>
<path d="M183.1 105.6C182.8 104.9 183.1 104 183.8 103.7C184 103.6 184.2 103.6 184.4 103.6C185.2 103.6 185.9 104.3 185.9 105.1C185.9 105.9 185.2 106.6 184.4 106.6C184 106.6 183.7 106.5 183.3 106.2C183.3 106 183.2 105.8 183.1 105.6Z" fill="white"/>
<path d="M196.5 96H184.4C183.6 96 182.9 95.3 182.9 94.5C182.9 93.7 183.6 93 184.4 93H196.5C197.3 93 198 93.7 198 94.5C198.1 95.4 197.4 96 196.5 96Z" fill="white"/>
<path d="M184.5 98.2002H190.5C191.3 98.2002 192 98.9002 192 99.7002C192 100.5 191.3 101.2 190.5 101.2H184.5C183.7 101.2 183 100.5 183 99.7002C183 98.9002 183.7 98.2002 184.5 98.2002Z" fill="white"/>
<path d="M50.3 109.9C50.6 109.9 51 110 51.3 110.1C51.6 110.2 51.8 110.4 52 110.6C52.2 110.9 52.3 111.1 52.5 111.4C52.7 112.1 52.8 112.8 52.6 113.5C52.5 113.8 52.3 114.1 52.1 114.3C51.9 114.6 51.6 114.8 51.4 114.8C51 114.9 50.7 115 50.4 115C50.1 115 49.7 114.9 49.4 114.8C49.1 114.7 48.9 114.5 48.7 114.3C48.5 114.1 48.3 113.8 48.2 113.5C48 112.8 48 112.1 48.2 111.4C48.3 111.1 48.5 110.9 48.7 110.6C48.9 110.4 49.2 110.2 49.4 110.1C49.7 109.9 50 109.8 50.3 109.9ZM50.3 114.3C50.7 114.4 51.2 114.2 51.4 113.8C51.7 113.4 51.8 112.9 51.7 112.5C51.8 112 51.6 111.6 51.4 111.2C51.1 110.9 50.7 110.7 50.3 110.7C50.1 110.7 49.8 110.8 49.7 110.8C49.5 110.9 49.4 111 49.2 111.1C49.1 111.3 49 111.5 48.9 111.7C48.8 112 48.8 112.2 48.8 112.5C48.8 112.8 48.9 113 48.9 113.2C49 113.4 49 113.6 49.2 113.8C49.3 113.9 49.5 114.1 49.7 114.1C49.9 114.3 50.1 114.3 50.3 114.3Z" fill="white"/>
<path d="M53.8 114.9V110H54.3C54.4 110 54.4 110 54.5 110.1C54.6 110.2 54.6 110.2 54.6 110.3V111C54.7 110.7 55 110.4 55.3 110.2C55.5 110 55.8 110 56.1 110C56.2 110 56.4 110 56.4 110.1L56.7 110.2L56.6 110.9C56.6 111 56.5 111 56.5 111C56.4 111 56.4 111 56.3 110.9C56.1 110.8 56 110.8 55.8 110.8C55.5 110.8 55.3 110.9 55.1 111.1C54.9 111.3 54.7 111.6 54.6 111.9V115H53.8V114.9Z" fill="white"/>
<path d="M61.1 114.9C61 114.9 60.9 114.8 60.9 114.7L60.8 114.2C60.6 114.5 60.3 114.7 60.1 114.8C59.8 114.9 59.5 115 59.2 115C58.9 115 58.7 114.9 58.5 114.8C58.3 114.7 58.1 114.5 57.9 114.3C57.7 114.1 57.6 113.8 57.6 113.5C57.6 113.2 57.5 112.8 57.5 112.4C57.5 112 57.6 111.7 57.6 111.4C57.7 111.1 57.9 110.9 58 110.6C58.2 110.4 58.4 110.2 58.7 110.1C59 110 59.3 109.9 59.6 109.9C59.9 109.9 60.1 110 60.4 110C60.6 110.1 60.8 110.3 61 110.4V107.7H61.9V114.9H61.1ZM59.4 114.2C59.7 114.2 59.9 114.1 60.1 114C60.4 113.9 60.6 113.7 60.7 113.5V111.2C60.6 111 60.4 110.9 60.2 110.7C60 110.6 59.8 110.6 59.5 110.6C59.1 110.5 58.6 110.7 58.4 111.1C58.1 111.5 58 112 58.1 112.5C58.1 112.8 58.2 113 58.2 113.3C58.3 113.5 58.3 113.7 58.4 113.8C58.5 113.9 58.7 114.1 58.8 114.1C59.1 114.3 59.2 114.3 59.4 114.2Z" fill="white"/>
<path d="M64.9001 109.9C65.2001 109.9 65.4001 110 65.7001 110C66.0001 110.1 66.2001 110.2 66.4001 110.4C66.6001 110.6 66.7001 110.8 66.8001 111.1C66.9001 111.4 66.9001 111.7 66.9001 112C66.9001 112.1 66.9001 112.2 66.8001 112.3C66.7001 112.4 66.7001 112.4 66.6001 112.4H63.3001C63.3001 112.7 63.4001 112.9 63.4001 113.2C63.5001 113.4 63.6001 113.6 63.7001 113.8C63.8001 113.9 64.0001 114.1 64.2001 114.1C64.4001 114.2 64.6001 114.2 64.9001 114.2C65.1001 114.2 65.3001 114.2 65.4001 114.1C65.5001 114 65.7001 114 65.8001 113.9C65.9001 113.8 66.0001 113.8 66.1001 113.7C66.2001 113.6 66.2001 113.6 66.3001 113.6C66.4001 113.6 66.4001 113.7 66.5001 113.7L66.7001 114C66.6001 114.1 66.5001 114.3 66.4001 114.3C66.3001 114.4 66.1001 114.5 65.9001 114.5L65.4001 114.7C65.2001 114.8 65.1001 114.8 64.9001 114.8C64.6001 114.8 64.2001 114.7 64.0001 114.6C63.7001 114.5 63.5001 114.3 63.3001 114.1C63.1001 113.9 62.9001 113.6 62.8001 113.3C62.7001 113 62.6001 112.6 62.6001 112.2C62.6001 111.9 62.7001 111.5 62.7001 111.3C62.8001 111 63.0001 110.8 63.2001 110.5C63.4001 110.3 63.6001 110.1 63.9001 110C64.2001 109.9 64.5001 109.9 64.9001 109.9ZM64.9001 110.5C64.6001 110.5 64.2001 110.6 63.9001 110.8C63.6001 111.1 63.5001 111.4 63.4001 111.8H66.1001C66.1001 111.6 66.0001 111.4 66.0001 111.3C66.0001 111.2 66.0001 111 65.9001 110.8C65.8001 110.7 65.6001 110.5 65.5001 110.5C65.3001 110.6 65.1001 110.5 64.9001 110.5Z" fill="white"/>
<path d="M68 114.9V110H68.5C68.6 110 68.6 110 68.7 110.1C68.8 110.2 68.8 110.2 68.8 110.3V111C68.9 110.7 69.2 110.4 69.5 110.2C69.7 110 70 110 70.3 110C70.4 110 70.6 110 70.6 110.1L70.9 110.2L70.8 110.9C70.8 111 70.7 111 70.7 111C70.6 111 70.6 111 70.5 110.9C70.1 110.8 69.6 110.9 69.3 111.1C69.1 111.3 68.9 111.6 68.8 111.9V115L68 114.9Z" fill="white"/>
<path d="M73.7 114.9V110H74.2C74.3 110 74.4 110.1 74.4 110.2L74.5 110.7C74.6 110.5 74.8 110.3 75.1 110.2C75.3 110.1 75.5999 110 75.7999 110C76.0999 110 76.4 110.1 76.6 110.3C76.8 110.5 77 110.8 77.1 111.1C77.2 110.9 77.2 110.8 77.4 110.6C77.5 110.5 77.6 110.3 77.7 110.3C77.8 110.2 78 110.2 78.2 110.1C78.3 110 78.5 110 78.7 110C78.9 110 79.2 110.1 79.4 110.1C79.6 110.2 79.7 110.3 79.9 110.4C80 110.6 80.2 110.8 80.2 111C80.3 111.3 80.2999 111.5 80.2999 111.8V115H79.4V111.9C79.4 111.6 79.3 111.3 79.1 111C78.9 110.8 78.6 110.7 78.4 110.7C78.3 110.7 78.1 110.8 78 110.8C77.9 110.9 77.7 110.9 77.7 111C77.6 111.1 77.5 111.2 77.5 111.3C77.4 111.4 77.4 111.6 77.4 111.8V114.9H76.6V111.8C76.7 111.5 76.5 111.2 76.4 110.9C76.3 110.7 76 110.6 75.7 110.6C75.5 110.6 75.3 110.7 75.1 110.8C74.9 110.9 74.8 111.1 74.6 111.3V115L73.7 114.9Z" fill="white"/>
<path d="M85.2 114.9H84.9C84.8 114.9 84.8 114.9 84.7 114.8C84.6 114.7 84.6 114.7 84.6 114.6L84.5 114.1C84.4 114.2 84.3 114.3 84.2 114.4C84.1 114.5 84 114.6 83.9 114.6C83.8 114.7 83.6 114.7 83.4 114.7C83.3 114.8 83.1 114.8 82.9 114.8C82.7 114.8 82.6 114.7 82.4 114.7C82.3 114.6 82.1 114.6 81.9 114.5C81.8 114.4 81.6 114.2 81.6 114.1C81.5 113.9 81.5 113.7 81.5 113.5C81.5 113.3 81.6 113.1 81.6 113C81.7 112.8 81.9 112.7 82.1 112.5C82.4 112.4 82.7 112.2 83 112.2C83.5 112.1 83.9 112.1 84.4 112.1V111.8C84.5 111.5 84.3 111.2 84.2 110.9C84 110.7 83.7 110.6 83.5 110.6C83.3 110.6 83.2 110.7 83 110.7C82.9 110.7 82.7 110.8 82.7 110.9L82.6 111C82.5 111.1 82.5 111.1 82.4 111.1C82.3 111.1 82.3 111.1 82.3 111H82.2L82 110.7C82.3 110.4 82.5 110.2 82.9 110.1C83.2 110 83.6 109.9 84 109.9C84.3 109.9 84.5 110 84.7 110C84.9 110.1 85.1 110.2 85.2 110.3C85.3 110.5 85.5 110.7 85.5 110.9C85.6 111.2 85.6 111.4 85.6 111.7L85.2 114.9ZM83 114.3C83.1 114.3 83.3 114.3 83.4 114.2C83.5 114.1 83.6 114.1 83.7 114.1C83.8 114 83.9 114 84 113.9C84.1 113.8 84.2 113.7 84.3 113.6V112.6C84 112.6 83.6 112.6 83.3 112.7C83.1 112.8 82.8 112.8 82.6 112.9C82.5 113 82.3 113 82.3 113.2C82.2 113.3 82.2 113.4 82.2 113.5C82.2 113.6 82.2 113.7 82.3 113.8C82.3 113.9 82.4 114 82.5 114L82.8 114.1C82.8 114.3 82.8 114.3 83 114.3Z" fill="white"/>
<path d="M86.5 114.9V110H87C87.1 110 87.2 110.1 87.2 110.2L87.3 110.7C87.5 110.5 87.8 110.3 88 110.2C88.3 110.1 88.6 110 88.9 110C89.2 110 89.4 110.1 89.6 110.1C89.8 110.2 89.9 110.3 90.1 110.4C90.2 110.6 90.4 110.8 90.4 111C90.5 111.3 90.5 111.5 90.5 111.8V115H89.6V111.9C89.6 111.6 89.5 111.3 89.3 111C89.1 110.8 88.8 110.7 88.5 110.7C88.2 110.7 88 110.8 87.8 110.9C87.6 111 87.4 111.2 87.2 111.4V115L86.5 114.9Z" fill="white"/>
<path d="M95.4 114.9H95C94.9 114.9 94.9 114.9 94.8 114.8C94.7 114.7 94.7 114.7 94.7 114.6L94.6 114.1C94.5 114.2 94.4 114.3 94.3 114.4C94.2 114.5 94.1 114.6 93.9 114.6C93.8 114.7 93.6 114.7 93.4 114.7C93.3 114.8 93.1 114.8 92.9 114.8C92.7 114.8 92.5 114.7 92.4 114.7C92.3 114.6 92.1 114.6 91.9 114.5C91.8 114.4 91.6 114.2 91.6 114.1C91.5 113.9 91.5 113.7 91.5 113.5C91.5 113.3 91.6 113.1 91.6 113C91.7 112.8 91.9 112.7 92.1 112.5C92.4 112.4 92.7 112.2 93 112.2C93.5 112.1 93.9 112.1 94.4 112.1V111.8C94.5 111.5 94.3 111.2 94.2 110.9C94 110.7 93.7 110.6 93.5 110.6C93.3 110.6 93.1 110.7 93 110.7C92.9 110.8 92.7 110.8 92.7 110.9L92.5 111C92.4 111.1 92.4 111.1 92.3 111.1C92.2 111.1 92.2 111.1 92.2 111H92.1L92 110.7C92.3 110.4 92.5 110.2 92.9 110.1C93.2 110 93.6 109.9 94 109.9C94.3 109.9 94.5 110 94.7 110C94.9 110.1 95.1 110.2 95.2 110.3C95.3 110.5 95.5 110.7 95.5 110.9C95.6 111.2 95.6 111.4 95.6 111.7L95.4 114.9ZM93.2 114.3C93.3 114.3 93.5 114.3 93.6 114.2C93.7 114.1 93.8 114.1 93.9 114.1C94 114 94.1 114 94.2 113.9C94.3 113.8 94.4 113.7 94.5 113.6V112.6C94.2 112.6 93.8 112.6 93.5 112.7C93.3 112.8 93 112.8 92.8 112.9C92.7 113 92.5 113 92.5 113.2C92.4 113.3 92.4 113.4 92.4 113.5C92.4 113.6 92.4 113.7 92.5 113.8C92.5 113.9 92.6 114 92.7 114C92.8 114.1 92.9 114.1 93 114.1C93 114.3 93.1 114.3 93.2 114.3Z" fill="white"/>
<path d="M98.3999 109.9C98.5999 109.9 98.7999 110 98.9999 110C99.1999 110 99.2999 110.1 99.4999 110.2H100.8V110.5C100.8 110.6 100.7 110.7 100.6 110.7L100.1 110.8C100.2 111 100.3 111.3 100.3 111.5C100.3 111.9 100.1 112.4 99.7999 112.6C99.5999 112.7 99.3999 112.9 99.1999 112.9C98.8999 113 98.6999 113 98.4999 113C98.2999 113 97.9999 113 97.7999 112.9C97.6999 113 97.5999 113 97.5999 113.1C97.4999 113.2 97.4999 113.2 97.4999 113.3C97.4999 113.4 97.5999 113.5 97.5999 113.6C97.6999 113.7 97.7999 113.7 97.8999 113.7C98.0999 113.8 98.1999 113.8 98.3999 113.8H98.9999C99.1999 113.8 99.3999 113.8 99.5999 113.9C99.7999 114 99.9999 114 100.2 114.1C100.5 114.3 100.7 114.6 100.7 115C100.7 115.2 100.6 115.5 100.6 115.6C100.5 115.8 100.3 116 100.1 116.1C99.8999 116.2 99.5999 116.4 99.3999 116.4C99.0999 116.5 98.7999 116.5 98.4999 116.5C98.1999 116.5 97.7999 116.4 97.5999 116.4C97.2999 116.3 97.0999 116.3 96.8999 116.1C96.6999 116 96.5999 115.9 96.4999 115.7C96.3999 115.6 96.3999 115.4 96.3999 115.2C96.3999 114.9 96.4999 114.7 96.5999 114.5C96.7999 114.3 96.9999 114.2 97.1999 114.1C97.0999 114 96.8999 114 96.8999 113.8C96.7999 113.7 96.7999 113.5 96.7999 113.3C96.7999 113.2 96.7999 113.2 96.8999 113.1C96.9999 113 96.9999 112.9 96.9999 112.9C97.0999 112.9 97.0999 112.8 97.1999 112.7C97.2999 112.6 97.3999 112.6 97.4999 112.5C97.2999 112.4 97.0999 112.2 96.8999 112C96.7999 111.8 96.5999 111.5 96.6999 111.2C96.6999 111 96.7999 110.7 96.7999 110.5C96.8999 110.3 96.9999 110.2 97.0999 110C97.2999 109.9 97.4999 109.7 97.6999 109.7C97.7999 109.9 98.0999 109.8 98.3999 109.9ZM99.8999 115.1C99.8999 115 99.7999 114.9 99.7999 114.8C99.6999 114.7 99.5999 114.7 99.4999 114.6C99.3999 114.5 99.1999 114.5 99.0999 114.5C98.8999 114.5 98.7999 114.4 98.5999 114.4H98.0999C97.8999 114.4 97.7999 114.4 97.5999 114.3C97.3999 114.4 97.2999 114.5 97.0999 114.6C96.9999 114.9 96.9999 115 96.9999 115.2C96.9999 115.3 97.0999 115.4 97.0999 115.5C97.1999 115.6 97.1999 115.7 97.3999 115.7C97.4999 115.8 97.6999 115.8 97.8999 115.9C98.2999 116 98.7999 116 99.1999 115.9C99.2999 115.8 99.4999 115.8 99.6999 115.7C99.7999 115.6 99.8999 115.6 99.9999 115.4C99.8999 115.4 99.8999 115.3 99.8999 115.1ZM98.3999 112.5C98.4999 112.5 98.6999 112.4 98.8999 112.4C98.9999 112.4 99.0999 112.3 99.1999 112.2C99.2999 112.1 99.2999 112 99.3999 111.9C99.4999 111.8 99.4999 111.6 99.4999 111.5C99.4999 111.2 99.3999 111 99.1999 110.8C98.6999 110.4 98.0999 110.4 97.5999 110.8C97.3999 111 97.2999 111.2 97.2999 111.5C97.2999 111.6 97.2999 111.8 97.3999 111.9C97.4999 112 97.4999 112.1 97.5999 112.2C97.6999 112.3 97.7999 112.3 97.8999 112.4C97.9999 112.5 98.1999 112.5 98.3999 112.5Z" fill="white"/>
<path d="M103.5 109.9C103.8 109.9 104 110 104.3 110C104.6 110.1 104.8 110.2 104.9 110.4C105.1 110.6 105.2 110.8 105.3 111.1C105.4 111.4 105.4 111.7 105.4 112C105.4 112.1 105.4 112.2 105.3 112.3C105.2 112.4 105.2 112.4 105.1 112.4H102C102 112.7 102.1 112.9 102.1 113.2C102.2 113.4 102.3 113.6 102.4 113.8C102.5 113.9 102.7 114.1 102.9 114.1C103.1 114.2 103.4 114.2 103.6 114.2C103.8 114.2 104 114.2 104.1 114.1C104.2 114 104.4 114 104.5 113.9C104.6 113.8 104.7 113.8 104.8 113.7C104.9 113.6 104.9 113.6 105 113.6C105.1 113.6 105.1 113.7 105.2 113.7L105.4 114C105.3 114.1 105.2 114.3 105.1 114.3C105 114.4 104.8 114.5 104.6 114.5L104.1 114.7C104 114.7 103.8 114.8 103.6 114.7C103.3 114.7 102.9 114.6 102.7 114.5C102.4 114.4 102.2 114.2 102 114C101.8 113.8 101.6 113.5 101.5 113.2C101.4 112.9 101.3 112.5 101.3 112.1C101.3 111.8 101.4 111.4 101.4 111.2C101.5 110.9 101.7 110.7 101.9 110.4C102.1 110.2 102.4 110 102.6 109.9C102.9 109.9 103.2 109.9 103.5 109.9ZM103.5 110.5C103.2 110.5 102.8 110.6 102.5 110.8C102.2 111.1 102.1 111.4 102 111.8H104.7C104.7 111.6 104.6 111.4 104.6 111.3C104.5 111.2 104.5 111 104.4 110.8C104.3 110.7 104.1 110.5 104 110.5C103.9 110.6 103.7 110.5 103.5 110.5Z" fill="white"/>
<path d="M106.6 114.9V110H107.1C107.2 110 107.3 110.1 107.3 110.2L107.4 110.7C107.5 110.5 107.7 110.3 108 110.2C108.2 110.1 108.5 110 108.8 110C109.1 110 109.4 110.1 109.6 110.3C109.8 110.5 110 110.8 110.1 111.1C110.2 110.9 110.2 110.8 110.4 110.6C110.5 110.5 110.6 110.3 110.8 110.3C110.9 110.2 111.1 110.2 111.3 110.1C111.4 110 111.6 110 111.8 110C112 110 112.3 110.1 112.5 110.1C112.7 110.2 112.9 110.3 113 110.4C113.1 110.6 113.3 110.8 113.3 111C113.4 111.3 113.4 111.5 113.4 111.8V115H112.4V111.9C112.4 111.6 112.3 111.3 112.1 111C111.9 110.8 111.6 110.7 111.4 110.7C111.3 110.7 111.1 110.8 111 110.8C110.9 110.9 110.7 110.9 110.7 111C110.6 111.1 110.5 111.2 110.5 111.3C110.4 111.5 110.4 111.7 110.4 111.8V114.9H109.5V111.8C109.6 111.5 109.5 111.2 109.3 110.9C109.2 110.7 108.9 110.6 108.6 110.6C108.4 110.6 108.2 110.7 108 110.8C107.8 110.9 107.7 111.1 107.5 111.3V115L106.6 114.9Z" fill="white"/>
<path d="M116.5 109.9C116.8 109.9 117 110 117.3 110C117.6 110.1 117.8 110.2 118 110.4C118.2 110.6 118.3 110.8 118.4 111.1C118.5 111.4 118.5 111.7 118.5 112C118.5 112.1 118.5 112.2 118.4 112.3C118.3 112.4 118.3 112.4 118.2 112.4H114.9C114.9 112.7 115 112.9 115 113.2C115.1 113.4 115.2 113.6 115.3 113.8C115.4 113.9 115.6 114.1 115.8 114.1C116 114.2 116.3 114.2 116.5 114.2C116.7 114.2 116.9 114.2 117 114.1C117.1 114 117.3 114 117.4 113.9C117.5 113.8 117.6 113.8 117.7 113.7C117.8 113.6 117.9 113.6 118 113.6C118 113.6 118.1 113.6 118.1 113.7L118.3 114C118.2 114.1 118.1 114.3 118 114.3C117.9 114.4 117.7 114.4 117.5 114.5L117 114.7C116.8 114.8 116.7 114.8 116.5 114.8C116.2 114.8 115.8 114.7 115.6 114.6C115.3 114.5 115.1 114.3 114.8 114.1C114.6 113.9 114.4 113.6 114.3 113.3C114.2 113 114.1 112.6 114.1 112.2C114.1 111.9 114.2 111.5 114.3 111.3C114.4 111 114.6 110.8 114.8 110.5C115 110.3 115.3 110.1 115.5 110C115.9 110 116.2 109.9 116.5 109.9ZM116.5 110.5C116.2 110.5 115.8 110.6 115.5 110.8C115.2 111.1 115.1 111.4 115 111.8H117.7C117.7 111.6 117.6 111.4 117.6 111.3C117.5 111.2 117.5 111 117.4 110.8C117.3 110.7 117.1 110.5 117 110.5C116.9 110.6 116.7 110.5 116.5 110.5Z" fill="white"/>
<path d="M119.6 114.9V110H120.1C120.2 110 120.3 110.1 120.3 110.2L120.4 110.7C120.6 110.5 120.9 110.3 121.1 110.2C121.4 110 121.7 110 122 110C122.3 110 122.5 110.1 122.7 110.1C122.9 110.2 123 110.3 123.2 110.4C123.3 110.6 123.5 110.8 123.5 111C123.6 111.3 123.6 111.5 123.6 111.8V115H122.7V111.9C122.7 111.6 122.6 111.3 122.4 111C122.2 110.8 121.9 110.7 121.6 110.7C121.3 110.7 121.1 110.8 120.9 110.8C120.6 110.9 120.4 111.1 120.2 111.3V114.9H119.6Z" fill="white"/>
<path d="M126.4 115C126.1 115.1 125.7 114.9 125.5 114.7C125.3 114.4 125.2 114.1 125.2 113.8V110.8H124.6C124.5 110.8 124.5 110.8 124.5 110.7C124.4 110.6 124.4 110.6 124.4 110.6V110.3L125.2 110.2L125.4 108.7C125.4 108.6 125.5 108.6 125.5 108.6C125.6 108.6 125.6 108.5 125.6 108.5H126V110.2H127.4V110.9H126V113.8C126 113.9 126.1 114.1 126.1 114.3C126.2 114.4 126.4 114.4 126.5 114.4C126.6 114.4 126.7 114.4 126.7 114.3C126.8 114.3 126.8 114.2 126.8 114.2L126.9 114.1C127 114.1 127 114 127 114L127.1 114.1L127.4 114.5C127.3 114.6 127.1 114.8 126.9 114.8C126.9 114.9 126.7 115 126.4 115Z" fill="white"/>
<path d="M128.3 114.3C128.3 114.2 128.3 114.2 128.4 114.1C128.5 114 128.5 114 128.5 113.9C128.6 113.8 128.6 113.8 128.7 113.8C128.8 113.7 128.8 113.7 128.9 113.7C129 113.7 129.1 113.7 129.1 113.8C129.2 113.8 129.2 113.9 129.3 113.9C129.4 114 129.4 114 129.4 114.1C129.5 114.2 129.5 114.4 129.4 114.6C129.4 114.7 129.3 114.7 129.3 114.8C129.2 114.9 129.2 114.9 129.1 114.9C129 115 128.9 115 128.9 115C128.8 115 128.8 115 128.7 114.9C128.6 114.8 128.6 114.8 128.5 114.8C128.4 114.7 128.4 114.7 128.4 114.6C128.3 114.5 128.3 114.4 128.3 114.3Z" fill="white"/>
<path d="M136 114.9H135.6C135.5 114.9 135.5 114.9 135.4 114.8C135.3 114.7 135.3 114.7 135.3 114.6L135.2 114.1C135.1 114.2 134.9 114.3 134.9 114.4C134.8 114.5 134.6 114.6 134.5 114.6C134.4 114.7 134.2 114.7 134 114.7C133.9 114.8 133.7 114.8 133.5 114.8C133.3 114.8 133.2 114.7 133 114.7C132.9 114.6 132.7 114.6 132.6 114.5C132.5 114.4 132.3 114.2 132.3 114.1C132.2 113.9 132.2 113.7 132.2 113.5C132.2 113.3 132.3 113.1 132.4 113C132.5 112.8 132.7 112.7 132.9 112.5C133.2 112.4 133.5 112.2 133.8 112.2C134.3 112.1 134.7 112.1 135.2 112.1V111.8C135.3 111.5 135.1 111.2 135 110.9C134.8 110.7 134.5 110.6 134.3 110.6C134.1 110.6 133.9 110.7 133.8 110.7C133.7 110.8 133.5 110.8 133.5 110.9C133.4 111 133.3 111 133.2 111.1C133.1 111.2 133.1 111.2 133 111.2C132.9 111.2 132.9 111.2 132.9 111.1L132.8 111L132.6 110.7C132.9 110.4 133.1 110.2 133.5 110.1C133.8 110 134.2 109.9 134.6 109.9C134.9 109.9 135.1 110 135.3 110C135.5 110.1 135.7 110.2 135.8 110.3C135.9 110.5 136.1 110.7 136.1 110.9C136.2 111.2 136.2 111.4 136.2 111.7L136 114.9ZM133.7 114.3C133.8 114.3 134 114.3 134.1 114.2C134.2 114.1 134.3 114.1 134.4 114.1C134.5 114 134.6 114 134.7 113.9C134.8 113.8 134.9 113.7 135 113.6V112.6C134.7 112.6 134.3 112.6 134 112.7C133.8 112.8 133.5 112.8 133.3 112.9C133.2 113 133 113 133 113.2C132.9 113.3 132.9 113.4 132.9 113.5C132.9 113.6 132.9 113.7 133 113.8C133 113.9 133.1 114 133.2 114C133.3 114.1 133.4 114.1 133.5 114.1C133.5 114.3 133.6 114.3 133.7 114.3Z" fill="white"/>
<path d="M140.7 110.8C140.7 110.9 140.6 110.9 140.7 110.8C140.6 110.9 140.6 110.9 140.6 110.9C140.5 110.9 140.5 110.8 140.4 110.8C140.3 110.7 140.3 110.7 140.2 110.7C140.1 110.6 140 110.6 139.9 110.6C139.6 110.5 139.2 110.5 138.8 110.7C138.6 110.8 138.5 110.9 138.3 111C138.2 111.2 138.1 111.4 138 111.6C137.9 111.9 137.9 112.1 137.9 112.4C137.9 112.7 138 113 138 113.3C138.1 113.5 138.1 113.7 138.3 113.9C138.4 114 138.6 114.2 138.8 114.2C139 114.3 139.2 114.3 139.4 114.3C139.6 114.3 139.7 114.3 139.9 114.2C140 114.1 140.2 114.1 140.2 114C140.3 113.9 140.3 113.9 140.4 113.8C140.5 113.7 140.5 113.7 140.6 113.7C140.7 113.7 140.7 113.8 140.8 113.8L141 114.1C140.8 114.4 140.5 114.6 140.2 114.7C139.9 114.8 139.5 114.9 139.2 114.9C138.9 114.9 138.6 114.8 138.3 114.7C138 114.6 137.8 114.4 137.6 114.2C137.4 113.9 137.3 113.7 137.1 113.4C137 113.1 137 112.7 137 112.4C137 112.1 137.1 111.7 137.1 111.4C137.2 111.1 137.4 110.9 137.6 110.6C137.8 110.4 138.1 110.2 138.3 110.1C138.6 110 139 109.9 139.3 109.9C139.6 109.9 139.9 110 140.2 110.1C140.5 110.2 140.7 110.4 140.9 110.6L140.7 110.8Z" fill="white"/>
<path d="M145.1 110.8C145.1 110.9 145 110.9 145.1 110.8C145 110.9 145 110.9 145 110.9C144.9 110.9 144.9 110.8 144.8 110.8C144.7 110.7 144.7 110.7 144.6 110.7L144.3 110.6C144 110.5 143.6 110.5 143.2 110.7C143 110.8 142.9 110.9 142.7 111C142.6 111.2 142.5 111.4 142.4 111.6C142.3 111.9 142.3 112.1 142.3 112.4C142.3 112.7 142.4 112.9 142.4 113.2C142.5 113.4 142.5 113.6 142.7 113.8C142.8 113.9 143 114.1 143.2 114.1C143.4 114.2 143.6 114.2 143.8 114.2C144 114.2 144.1 114.2 144.3 114.1C144.4 114 144.6 114 144.7 113.9C144.8 113.8 144.8 113.8 144.9 113.7C145 113.6 145 113.6 145.1 113.6C145.2 113.6 145.2 113.7 145.3 113.7L145.5 114C145.3 114.3 145 114.5 144.7 114.6C144.4 114.7 144 114.8 143.7 114.8C143.4 114.8 143.1 114.7 142.8 114.6C142.5 114.5 142.3 114.3 142.1 114.1C141.9 113.8 141.8 113.6 141.6 113.3C141.5 113 141.4 112.6 141.4 112.2C141.4 111.8 141.5 111.5 141.5 111.2C141.6 110.9 141.8 110.7 142 110.4C142.2 110.2 142.5 110 142.7 109.9C143 109.8 143.4 109.7 143.7 109.7C144 109.7 144.3 109.8 144.6 109.9C144.9 110 145.1 110.2 145.3 110.4L145.1 110.8Z" fill="white"/>
<path d="M148.2 109.9C148.5 109.9 148.7 110 149 110C149.3 110.1 149.5 110.2 149.6 110.4C149.8 110.6 149.9 110.8 150 111.1C150.1 111.4 150.1 111.7 150.1 112C150.1 112.1 150.1 112.2 150 112.3C149.9 112.4 149.9 112.4 149.8 112.4H146.6C146.6 112.7 146.7 112.9 146.7 113.2C146.8 113.4 146.8 113.6 147 113.8C147.1 113.9 147.3 114.1 147.5 114.1C147.7 114.2 147.9 114.2 148.1 114.2C148.3 114.2 148.5 114.2 148.6 114.1C148.7 114 148.9 114 149 113.9C149.1 113.8 149.2 113.8 149.3 113.7C149.4 113.6 149.4 113.6 149.5 113.6C149.6 113.6 149.6 113.7 149.7 113.7L149.9 114C149.8 114.1 149.7 114.3 149.6 114.3C149.3 114.5 148.9 114.6 148.6 114.6C148.4 114.7 148.3 114.7 148.1 114.7C147.8 114.7 147.4 114.6 147.2 114.5C146.9 114.4 146.7 114.2 146.5 114C146.3 113.7 146.1 113.5 146 113.2C145.9 112.9 145.8 112.5 145.8 112.1C145.8 111.8 145.9 111.4 146 111.2C146.1 110.9 146.3 110.7 146.5 110.4C146.7 110.2 147 110 147.2 109.9C147.5 110 147.9 109.9 148.2 109.9ZM148.2 110.5C147.8 110.5 147.5 110.6 147.2 110.8C146.9 111.1 146.8 111.4 146.7 111.8H149.4C149.4 111.6 149.3 111.4 149.3 111.3C149.2 111.2 149.2 111 149.1 110.8C149 110.7 148.8 110.5 148.7 110.5C148.6 110.6 148.4 110.5 148.2 110.5Z" fill="white"/>
<path d="M152.2 107.8V115H151.3V107.8H152.2Z" fill="white"/>
<path d="M155.7 109.9C156 109.9 156.2 110 156.5 110C156.8 110.1 157 110.2 157.2 110.4C157.4 110.6 157.5 110.8 157.6 111.1C157.7 111.4 157.7 111.7 157.7 112C157.7 112.1 157.7 112.2 157.6 112.3C157.5 112.4 157.5 112.4 157.4 112.4H154.1C154.1 112.7 154.2 112.9 154.2 113.2C154.3 113.4 154.3 113.6 154.5 113.8C154.6 113.9 154.8 114.1 155 114.1C155.2 114.1 155.4 114.2 155.6 114.2C155.8 114.2 156 114.2 156.1 114.1C156.2 114 156.4 114 156.5 113.9C156.6 113.8 156.7 113.8 156.8 113.7C156.9 113.6 156.9 113.6 157 113.6C157.1 113.6 157.1 113.7 157.2 113.7L157.4 114C157.3 114.1 157.1 114.3 157 114.3C156.9 114.4 156.7 114.5 156.5 114.5L156 114.6C155.8 114.7 155.7 114.7 155.5 114.7C155.2 114.7 154.8 114.6 154.6 114.5C154.3 114.4 154.1 114.2 153.9 114C153.7 113.7 153.6 113.5 153.4 113.2C153.3 112.9 153.2 112.5 153.2 112.1C153.2 111.8 153.3 111.4 153.3 111.2C153.4 110.9 153.6 110.7 153.8 110.4C154 110.2 154.3 110 154.5 109.9C155 110 155.3 109.9 155.7 109.9ZM155.7 110.5C155.3 110.5 155 110.6 154.7 110.8C154.4 111.1 154.3 111.4 154.2 111.8H156.9C156.9 111.6 156.8 111.4 156.8 111.3C156.7 111.2 156.7 111 156.6 110.8C156.5 110.7 156.3 110.5 156.2 110.5C156 110.6 155.8 110.5 155.7 110.5Z" fill="white"/>
<path d="M158.7 114.9V110H159.2C159.3 110 159.3 110 159.4 110.1C159.5 110.2 159.5 110.2 159.5 110.3L159.6 111.1C159.7 110.8 159.9 110.5 160.2 110.3C160.5 110.1 160.7 110 161.1 110C161.2 110 161.4 110 161.4 110.1L161.7 110.2L161.6 110.9C161.6 111 161.5 111 161.5 111C161.4 111 161.3 110.9 161.2 110.9C161.1 110.8 160.9 110.8 160.8 110.8C160.5 110.8 160.3 110.9 160 111.1C159.8 111.3 159.6 111.6 159.5 111.9V115L158.7 114.9Z" fill="white"/>
<path d="M166 114.9H165.7C165.6 114.9 165.6 114.9 165.5 114.8C165.4 114.7 165.4 114.7 165.4 114.6L165.3 114.1C165.2 114.2 165.1 114.3 164.9 114.4C164.8 114.5 164.6 114.6 164.5 114.6C164.4 114.7 164.2 114.7 164.1 114.7C164 114.8 163.8 114.8 163.6 114.8C163.4 114.8 163.3 114.7 163.1 114.7C163 114.6 162.8 114.6 162.7 114.5C162.6 114.4 162.4 114.2 162.4 114.1C162.3 113.9 162.3 113.7 162.3 113.5C162.3 113.3 162.4 113.1 162.5 113C162.6 112.8 162.8 112.7 163 112.5C163.3 112.4 163.6 112.2 163.9 112.2C164.4 112.1 164.8 112.1 165.3 112.1V111.8C165.4 111.5 165.2 111.2 165.1 110.9C164.9 110.7 164.6 110.6 164.4 110.6C164.2 110.6 164 110.7 163.9 110.7C163.8 110.8 163.6 110.8 163.6 110.9L163.3 111.1C163.2 111.2 163.2 111.2 163.1 111.2C163 111.2 163 111.2 163 111.1C162.9 111 162.9 111 162.9 111L162.8 110.7C163.1 110.4 163.3 110.2 163.7 110.1C164 110 164.4 109.9 164.8 109.9C165.1 109.9 165.3 110 165.5 110C165.7 110.1 165.9 110.2 166 110.3C166.1 110.5 166.3 110.7 166.3 110.9C166.4 111.2 166.4 111.4 166.4 111.7V114.8L166 114.9ZM163.8 114.3C163.9 114.3 164.1 114.3 164.2 114.2C164.3 114.1 164.4 114.1 164.6 114.1C164.7 114 164.8 114 164.9 113.9L165.2 113.6V112.6C164.9 112.6 164.5 112.6 164.2 112.7C164 112.8 163.7 112.8 163.5 112.9C163.4 113 163.2 113 163.1 113.2C163 113.3 163 113.4 163 113.5C163 113.6 163 113.7 163.1 113.8C163.2 113.9 163.2 114 163.3 114C163.4 114.1 163.5 114.1 163.6 114.1C163.6 114.3 163.7 114.3 163.8 114.3Z" fill="white"/>
<path d="M168.8 115C168.5 115 168.1 114.9 167.9 114.7C167.7 114.5 167.6 114.1 167.6 113.8V110.8H167C166.9 110.8 166.9 110.8 166.9 110.7C166.9 110.6 166.8 110.6 166.8 110.6V110.3L167.6 110.2L167.8 108.7C167.8 108.6 167.9 108.6 167.9 108.6C168 108.6 168 108.5 168 108.5H168.5V110.2H169.9V110.9H168.5V113.8C168.5 113.9 168.6 114.1 168.6 114.3C168.7 114.4 168.9 114.4 169 114.4C169.1 114.4 169.1 114.4 169.2 114.3C169.3 114.3 169.3 114.2 169.4 114.2L169.5 114.1C169.6 114.1 169.6 114 169.6 114L169.7 114.1L169.9 114.5C169.8 114.6 169.6 114.8 169.4 114.8C169.3 114.9 169.1 115 168.8 115Z" fill="white"/>
<path d="M172.9 109.9C173.2 109.9 173.4 110 173.7 110C174 110.1 174.2 110.2 174.3 110.4C174.5 110.6 174.6 110.8 174.7 111.1C174.8 111.4 174.8 111.7 174.8 112C174.8 112.1 174.8 112.2 174.7 112.3C174.6 112.4 174.6 112.4 174.5 112.4H171.2C171.2 112.7 171.3 112.9 171.3 113.2C171.4 113.4 171.5 113.6 171.6 113.8C171.7 113.9 171.9 114.1 172.1 114.1C172.3 114.2 172.6 114.2 172.8 114.2C173 114.2 173.2 114.2 173.3 114.1C173.4 114 173.6 114 173.7 113.9C173.8 113.8 173.9 113.8 174 113.7C174.1 113.6 174.1 113.6 174.2 113.6C174.3 113.6 174.3 113.7 174.4 113.7L174.6 114C174.5 114.1 174.4 114.3 174.3 114.3C174.2 114.4 174 114.4 173.8 114.5L173.3 114.6C173.1 114.7 173 114.7 172.8 114.7C172.5 114.7 172.1 114.6 171.9 114.5C171.6 114.4 171.4 114.2 171.2 114C171 113.7 170.8 113.5 170.7 113.2C170.6 112.9 170.5 112.5 170.5 112.1C170.5 111.8 170.6 111.4 170.7 111.2C170.8 110.9 171 110.7 171.2 110.4C171.4 110.2 171.7 110 171.9 109.9C172.1 110 172.5 109.9 172.9 109.9ZM172.9 110.5C172.5 110.5 172.2 110.6 171.9 110.8C171.6 111.1 171.5 111.4 171.4 111.8H174.1C174.1 111.6 174 111.4 174 111.3C173.9 111.2 173.9 111 173.8 110.8C173.7 110.7 173.5 110.5 173.4 110.5C173.2 110.6 173 110.5 172.9 110.5Z" fill="white"/>
<path d="M179.4 114.9C179.3 114.9 179.2 114.8 179.2 114.7L179.1 114.1C178.9 114.4 178.6 114.6 178.4 114.7C178.1 114.8 177.8 114.9 177.5 114.9C177.2 114.9 177 114.8 176.7 114.7C176.4 114.6 176.2 114.4 176.1 114.2C175.9 114 175.8 113.7 175.8 113.4C175.7 113.1 175.7 112.7 175.7 112.3C175.7 111.9 175.8 111.6 175.8 111.3C175.9 111 176 110.7 176.2 110.5C176.4 110.3 176.6 110.1 176.9 110C177.2 109.9 177.5 109.8 177.8 109.8C178.1 109.8 178.3 109.9 178.6 109.9C178.8 110 179 110.1 179.1 110.3V107.6H180V114.8L179.4 114.9ZM177.7 114.2C178 114.2 178.2 114.1 178.4 114C178.6 113.9 178.8 113.7 179 113.5V111.2C178.9 111 178.7 110.9 178.5 110.7C178.3 110.6 178.1 110.6 177.9 110.6C177.5 110.6 177.1 110.7 176.8 111.1C176.5 111.5 176.4 112 176.5 112.5C176.5 112.8 176.6 113 176.6 113.3C176.7 113.5 176.7 113.7 176.8 113.8C176.9 113.9 177.1 114.1 177.2 114.1C177.4 114.2 177.6 114.3 177.7 114.2Z" fill="white"/>
<path d="M181 114.3C181 114.2 181 114.2 181.1 114.1C181.2 114 181.2 114 181.2 113.9C181.3 113.8 181.3 113.8 181.4 113.8C181.5 113.7 181.5 113.7 181.6 113.7C181.7 113.7 181.7 113.7 181.8 113.8C181.9 113.9 181.9 113.9 182 113.9C182.1 114 182.1 114 182.1 114.1C182.2 114.2 182.2 114.4 182.1 114.6C182.1 114.7 182 114.7 182 114.8C181.9 114.9 181.9 114.9 181.8 114.9C181.7 115 181.7 115 181.6 115C181.5 115 181.4 115 181.4 114.9C181.3 114.8 181.3 114.8 181.2 114.8C181.1 114.7 181.1 114.7 181.1 114.6C181 114.5 181 114.4 181 114.3Z" fill="white"/>
</g>
<defs>
<clipPath id="clip0_203_1053">
<rect width="150" height="28.6" fill="white" transform="translate(48 88)"/>
</clipPath>
</defs>
</svg>
