<svg width="245" height="204" viewBox="0 0 245 204" fill="none" xmlns="http://www.w3.org/2000/svg">
<path fill-rule="evenodd" clip-rule="evenodd" d="M152.945 92.2782H156.027V108.068H169.388L167.426 111.152H152.945V92.2782V92.2782ZM128.745 111.152L117.346 93.1659C116.645 91.9983 114.777 91.9983 113.982 93.2128L102.677 111.152H106.414L109.825 105.733H117.113L119.029 102.649H111.741L115.712 96.4365L125.009 111.152H128.745V111.152ZM135.681 92.2842C130.473 92.2842 127.045 96.5065 127.045 101.715C127.045 106.923 130.474 111.147 135.681 111.147L148.345 111.132L150.327 108.075H135.774C132.264 108.075 130.209 105.227 130.209 101.715C130.209 98.2032 132.263 95.3559 135.774 95.3559H148.738L150.652 92.2748L135.681 92.2842V92.2842ZM56.6374 95.3559H69.998C73.5101 95.3559 75.5636 98.2032 75.5636 101.715C75.5636 105.227 73.511 108.075 69.998 108.075H56.6374C53.1252 108.075 51.0726 105.227 51.0726 101.715C51.0726 98.2032 53.1252 95.3559 56.6374 95.3559ZM56.6374 92.2842C51.4285 92.2842 48 96.5065 48 101.715C48 106.923 51.4285 111.147 56.6374 111.147H69.998C75.2069 111.147 78.6353 106.923 78.6353 101.715C78.6353 96.5065 75.2069 92.2842 69.998 92.2842H56.6374ZM172.682 103.211C173.184 106.002 175.104 108.075 178.102 108.075H192.655L190.671 111.132L178.009 111.147C172.799 111.147 169.372 106.923 169.372 101.715C169.372 96.5065 172.8 92.2842 178.009 92.2842L192.978 92.2757L191.066 95.3568H178.102C175.147 95.3568 173.218 97.3949 172.683 100.128H190.973L189.011 103.212H172.682V103.211V103.211ZM96.0663 103.484C97.5345 103.458 98.9339 102.857 99.9632 101.81C100.992 100.762 101.569 99.3524 101.569 97.884C101.569 96.4156 100.992 95.0058 99.9632 93.9585C98.9339 92.9111 97.5345 92.3098 96.0663 92.2842L80.3457 92.2774V111.152H83.8032V95.3568H96.0663C96.7365 95.3568 97.3793 95.6231 97.8533 96.097C98.3272 96.5709 98.5935 97.2137 98.5935 97.884C98.5935 98.5543 98.3272 99.1971 97.8533 99.671C97.3793 100.145 96.7365 100.411 96.0663 100.411H86.2323L97.326 111.13H101.789L93.8472 103.491L96.0663 103.484V103.484ZM196.208 92.2953C197.009 92.2953 197.643 92.9286 197.643 93.7684C197.643 94.6219 197.01 95.2501 196.208 95.2501C195.396 95.2501 194.764 94.6219 194.764 93.7684C194.764 92.9286 195.396 92.2953 196.208 92.2953V92C195.232 92 194.408 92.7502 194.408 93.7676C194.408 94.7952 195.233 95.5454 196.208 95.5454C197.175 95.5454 198 94.7952 198 93.7676C198 92.7502 197.175 92 196.208 92V92.2953Z" fill="white"/>
<path fill-rule="evenodd" clip-rule="evenodd" d="M195.833 93.0121H196.256C196.471 93.0121 196.701 93.0591 196.701 93.3126C196.701 93.6267 196.466 93.6463 196.203 93.6463H195.832V93.9092H196.189L196.729 94.7959H197.076L196.494 93.8955C196.794 93.858 197.024 93.6992 197.024 93.3331C197.024 92.9294 196.784 92.751 196.302 92.751H195.521V94.7959H195.831V93.0121H195.833V93.0121Z" fill="white"/>
</svg>
