<?xml version="1.0" encoding="UTF-8"?>
<svg id="Layer_1" data-name="Layer 1" xmlns="http://www.w3.org/2000/svg" viewBox="0 0 80 80">
  <path d="m45.93,42.32s-.07,0-.1,0c-.58-.03-1.14-.29-1.54-.73l-1.43-1.58c-.43-.48-.62-1.13-.54-1.77.08-.64.43-1.21.95-1.56l32.9-22.46c.3-.21.72-.14.95.15.23.29.19.71-.09.95l-29.66,26.45c-.39.36-.9.56-1.44.56Zm22.09-20.84l-23.96,16.36c-.19.13-.32.34-.35.58-.03.24.04.48.2.66l1.42,1.58c.15.16.34.26.56.27.2.02.39-.06.54-.19l21.59-19.25Z"/>
  <path d="m31.86,52.55c-2.5,0-4.97-.62-7.03-1.61-.29-.14-.45-.47-.38-.79.07-.32.36-.54.68-.54h.13c.28,0,.42,0,.53.02,2.66.07,4.1-1.15,4.28-3.6.09-1.49.7-2.85,1.77-3.92.51-.5,1.18-.96,2.04-1.39,2.23-1.1,4.9-.59,6.5,1.23.05.06.09.12.12.19,1.88,2.24,1.71,5.54-.41,7.43-2.35,2.12-5.31,2.97-8.24,2.97Zm-3.67-1.87c3.65.94,7.91.61,10.97-2.14,1.59-1.42,1.67-3.92.19-5.58-.01-.02-.06-.08-.08-.1-.03-.04-.05-.08-.07-.12-1.2-1.23-3.1-1.54-4.7-.76-.73.36-1.27.73-1.67,1.12-.82.82-1.29,1.86-1.36,3.02-.16,2.32-1.33,3.9-3.28,4.56Z"/>
  <path d="m18.37,65.9H3.44c-.39,0-.7-.31-.7-.7v-27.19c0-.39.31-.7.7-.7h14.93c.39,0,.7.31.7.7v27.19c0,.39-.31.7-.7.7Zm-14.23-1.4h13.53v-25.79H4.14v25.79Z"/>
  <g>
    <path d="m64.49,32.88c-.39,0-.7-.31-.7-.7v-1.6c0-.39.31-.7.7-.7s.7.31.7.7v1.6c0,.39-.31.7-.7.7Z"/>
    <path d="m64.49,57.02c-.39,0-.7-.31-.7-.7v-3.02c0-.39.31-.7.7-.7s.7.31.7.7v3.02c0,.39-.31.7-.7.7Zm0-6.03c-.39,0-.7-.31-.7-.7v-3.02c0-.39.31-.7.7-.7s.7.31.7.7v3.02c0,.39-.31.7-.7.7Zm0-6.03c-.39,0-.7-.31-.7-.7v-3.02c0-.39.31-.7.7-.7s.7.31.7.7v3.02c0,.39-.31.7-.7.7Zm0-6.03c-.39,0-.7-.31-.7-.7v-3.02c0-.39.31-.7.7-.7s.7.31.7.7v3.02c0,.39-.31.7-.7.7Z"/>
    <path d="m64.49,61.64h-1.6c-.39,0-.7-.31-.7-.7s.31-.7.7-.7h.9v-.9c0-.39.31-.7.7-.7s.7.31.7.7v1.6c0,.39-.31.7-.7.7Z"/>
    <path d="m59.83,61.64h-3.06c-.39,0-.7-.31-.7-.7s.31-.7.7-.7h3.06c.39,0,.7.31.7.7s-.31.7-.7.7Zm-6.11,0h-3.06c-.39,0-.7-.31-.7-.7s.31-.7.7-.7h3.06c.39,0,.7.31.7.7s-.31.7-.7.7Zm-6.11,0h-3.06c-.39,0-.7-.31-.7-.7s.31-.7.7-.7h3.06c.39,0,.7.31.7.7s-.31.7-.7.7Zm-6.11,0h-3.06c-.39,0-.7-.31-.7-.7s.31-.7.7-.7h3.06c.39,0,.7.31.7.7s-.31.7-.7.7Zm-6.11,0h-3.06c-.39,0-.7-.31-.7-.7s.31-.7.7-.7h3.06c.39,0,.7.31.7.7s-.31.7-.7.7Zm-6.11,0h-3.06c-.39,0-.7-.31-.7-.7s.31-.7.7-.7h3.06c.39,0,.7.31.7.7s-.31.7-.7.7Z"/>
    <path d="m23.15,61.64h-1.6c-.39,0-.7-.31-.7-.7s.31-.7.7-.7h1.6c.39,0,.7.31.7.7s-.31.7-.7.7Z"/>
  </g>
  <g>
    <path d="m8.24,34.5c-.39,0-.7-.31-.7-.7v-1.6c0-.39.31-.7.7-.7s.7.31.7.7v1.6c0,.39-.31.7-.7.7Z"/>
    <path d="m8.24,29.5c-.39,0-.7-.31-.7-.7v-3.39c0-.39.31-.7.7-.7s.7.31.7.7v3.39c0,.39-.31.7-.7.7Z"/>
    <path d="m8.24,22.72c-.39,0-.7-.31-.7-.7v-1.6c0-.39.31-.7.7-.7h1.6c.39,0,.7.31.7.7s-.31.7-.7.7h-.9v.9c0,.39-.31.7-.7.7Z"/>
    <path d="m56.61,21.11h-3.34c-.39,0-.7-.31-.7-.7s.31-.7.7-.7h3.34c.39,0,.7.31.7.7s-.31.7-.7.7Zm-6.68,0h-3.34c-.39,0-.7-.31-.7-.7s.31-.7.7-.7h3.34c.39,0,.7.31.7.7s-.31.7-.7.7Zm-6.68,0h-3.34c-.39,0-.7-.31-.7-.7s.31-.7.7-.7h3.34c.39,0,.7.31.7.7s-.31.7-.7.7Zm-6.68,0h-3.34c-.39,0-.7-.31-.7-.7s.31-.7.7-.7h3.34c.39,0,.7.31.7.7s-.31.7-.7.7Zm-6.68,0h-3.34c-.39,0-.7-.31-.7-.7s.31-.7.7-.7h3.34c.39,0,.7.31.7.7s-.31.7-.7.7Zm-6.68,0h-3.34c-.39,0-.7-.31-.7-.7s.31-.7.7-.7h3.34c.39,0,.7.31.7.7s-.31.7-.7.7Zm-6.68,0h-3.34c-.39,0-.7-.31-.7-.7s.31-.7.7-.7h3.34c.39,0,.7.31.7.7s-.31.7-.7.7Z"/>
    <path d="m61.55,21.11h-1.6c-.39,0-.7-.31-.7-.7s.31-.7.7-.7h1.6c.39,0,.7.31.7.7s-.31.7-.7.7Z"/>
  </g>
  <path d="m12.24,61.64h-2.67c-.39,0-.7-.31-.7-.7s.31-.7.7-.7h2.67c.39,0,.7.31.7.7s-.31.7-.7.7Z"/>
</svg>