<?xml version="1.0" encoding="UTF-8"?>
<svg id="figma_components" data-name="figma components" xmlns="http://www.w3.org/2000/svg" viewBox="0 0 80 80">
  <g>
    <g>
      <path d="m23.12,37.01c-.19,0-.39-.08-.53-.24-.25-.29-.22-.73.07-.99.4-.35.88-.69,1.42-1,.33-.2.76-.08.96.25.19.33.08.76-.25.96-.46.27-.86.55-1.2.84-.13.12-.3.17-.46.17Z"/>
      <path d="m27.1,34.9c-.29,0-.56-.18-.66-.47-.12-.37.07-.76.44-.89.88-.3,1.85-.57,2.9-.8.37-.09.75.16.83.53.08.38-.16.75-.53.83-1,.22-1.92.47-2.75.75-.08.03-.15.04-.23.04Zm26.02-.02c-.07,0-.14-.01-.21-.03-.85-.27-1.79-.51-2.77-.72-.38-.08-.62-.45-.54-.83.08-.38.45-.62.83-.54,1.03.22,2,.47,2.89.75.37.12.57.51.46.88-.09.3-.37.49-.67.49Zm-5.71-1.24s-.07,0-.1,0c-.92-.13-1.88-.24-2.87-.31-.39-.03-.67-.37-.64-.75.03-.39.38-.65.75-.64,1.01.08,2.01.19,2.95.32.38.05.65.41.59.79-.05.35-.35.6-.69.6Zm-14.6-.02c-.34,0-.64-.25-.69-.61-.05-.38.22-.74.6-.79.94-.13,1.93-.23,2.95-.31.39-.02.72.26.75.65s-.26.72-.65.75c-.99.07-1.96.17-2.87.3-.03,0-.06,0-.1,0Zm5.84-.45c-.38,0-.69-.3-.7-.68,0-.39.3-.71.68-.72.51-.01,1.02-.02,1.54-.02h.3c.37,0,.75,0,1.12.02.39,0,.69.33.68.72,0,.38-.32.68-.7.68h-.02c-.36,0-.73-.01-1.1-.02h-.29c-.51,0-1.01,0-1.51.02h-.02Z"/>
      <path d="m57.25,36.73c-.13,0-.26-.04-.38-.11-.38-.25-.83-.5-1.32-.73-.35-.17-.5-.59-.33-.93.17-.35.58-.49.93-.33.54.26,1.04.54,1.47.82.32.21.42.65.21.97-.13.21-.36.32-.59.32Z"/>
    </g>
    <g>
      <path d="m24.42,43.27c-.12,0-.25-.03-.36-.1-.53-.32-1-.66-1.4-1.01-.29-.26-.32-.7-.06-.99.26-.29.7-.32.99-.06.33.29.73.58,1.19.86.33.2.44.63.24.96-.13.22-.36.34-.6.34Z"/>
      <path d="m40.64,46.44h-.24c-.67,0-1.33-.02-1.98-.04-.39-.01-.69-.34-.67-.72.01-.38.32-.67.7-.67,0,0,.02,0,.03,0,.63.02,1.28.04,1.93.04h.93c.42-.02.7.3.71.69s-.3.7-.69.71h-.71Zm3.6-.11c-.37,0-.67-.28-.7-.65-.03-.39.27-.72.65-.75.97-.07,1.93-.16,2.84-.27.38-.05.73.22.78.61s-.22.73-.61.78c-.94.12-1.93.21-2.93.28-.02,0-.03,0-.05,0Zm-8.69-.11s-.04,0-.06,0c-.99-.09-1.98-.21-2.92-.36-.38-.06-.64-.42-.58-.8.06-.38.42-.65.8-.58.92.14,1.87.26,2.83.34.38.04.67.38.63.76-.03.36-.34.64-.7.64Zm14.44-.63c-.33,0-.62-.23-.69-.56-.08-.38.17-.75.55-.82.97-.19,1.9-.42,2.76-.67.37-.11.76.11.87.48.11.37-.1.76-.48.87-.89.26-1.86.5-2.88.7-.05,0-.09.01-.14.01Zm-20.16-.27c-.05,0-.11,0-.16-.02-1.02-.24-1.98-.53-2.86-.84-.36-.13-.55-.53-.42-.9.13-.36.53-.55.9-.42.82.3,1.73.57,2.7.8.38.09.61.47.52.84-.08.32-.36.54-.68.54Z"/>
      <path d="m55.54,43.91c-.27,0-.52-.15-.64-.42-.16-.35,0-.77.35-.92.49-.22.94-.45,1.35-.69.33-.2.76-.09.96.24.2.33.09.76-.24.96-.46.27-.96.53-1.49.77-.09.04-.19.06-.29.06Z"/>
    </g>
  </g>
  <g>
    <g>
      <path d="m32.66,61.23c-.26,0-.51-.15-.63-.4-.17-.35-.02-.77.33-.93.39-.18.82-.35,1.3-.5.37-.11.76.09.88.45.12.37-.08.76-.45.88-.42.13-.79.28-1.12.44-.1.05-.2.07-.3.07Z"/>
      <path d="m44.21,60.23s-.08,0-.12,0c-.8-.13-1.65-.23-2.52-.27-.39-.02-.68-.35-.66-.74.02-.39.38-.64.74-.66.92.05,1.82.15,2.67.29.38.06.64.42.58.81-.06.34-.35.58-.69.58Zm-7.8-.05c-.34,0-.64-.25-.69-.59-.06-.38.2-.74.59-.8.84-.13,1.74-.21,2.67-.25.37-.04.71.28.73.67.02.39-.28.71-.67.73-.88.04-1.73.12-2.52.24-.04,0-.07,0-.11,0Z"/>
      <path d="m47.94,61.35c-.11,0-.21-.02-.31-.08-.33-.17-.7-.32-1.11-.46-.37-.12-.56-.52-.44-.89.12-.37.52-.56.89-.44.47.16.9.34,1.29.53.35.17.48.6.31.94-.12.24-.37.38-.63.38Z"/>
    </g>
    <g>
      <path d="m34.26,65.6c-.08,0-.17-.01-.25-.05-.44-.17-.87-.36-1.27-.58-.34-.18-.47-.61-.28-.95.18-.34.61-.47.95-.28.34.19.71.35,1.1.5.36.14.54.54.41.9-.11.28-.37.45-.65.45Z"/>
      <path d="m41.42,66.48c-.38,0-.69-.3-.7-.67-.01-.39.29-.71.67-.72.84-.03,1.62-.1,2.33-.21.38-.05.74.21.8.59.06.38-.21.74-.59.8-.76.12-1.6.19-2.49.22,0,0-.02,0-.03,0Zm-2.42-.01s-.02,0-.04,0c-.9-.04-1.73-.13-2.49-.26-.38-.07-.64-.43-.57-.81.07-.38.43-.64.81-.57.7.12,1.48.2,2.32.24.39.02.68.35.67.73-.02.37-.33.67-.7.67Z"/>
      <path d="m46.19,65.7c-.29,0-.56-.18-.66-.47-.13-.37.07-.76.43-.89.39-.13.77-.29,1.11-.46s.76-.03.94.31c.17.35.03.77-.31.94-.4.2-.83.38-1.28.54-.08.03-.15.04-.23.04Z"/>
    </g>
  </g>
  <path d="m40,12.5c-.39,0-.7-.31-.7-.7v-5.98c0-.39.31-.7.7-.7s.7.31.7.7v5.98c0,.39-.31.7-.7.7Z"/>
  <path d="m13.48,37.9h-5.98c-.39,0-.7-.31-.7-.7s.31-.7.7-.7h5.98c.39,0,.7.31.7.7s-.31.7-.7.7Z"/>
  <path d="m14.89,59.73c-.2,0-.4-.08-.53-.25-.25-.29-.21-.74.08-.99l4.77-4.04c.29-.25.74-.21.99.08.25.29.21.74-.08.99l-4.77,4.04c-.13.11-.29.17-.45.17Z"/>
  <path d="m21.3,19.17c-.18,0-.36-.07-.5-.21l-4.42-4.42c-.27-.27-.27-.72,0-.99s.72-.27.99,0l4.42,4.42c.27.27.27.72,0,.99-.14.14-.32.21-.5.21Z"/>
  <path d="m72.5,37.9h-6.35c-.39,0-.7-.31-.7-.7s.31-.7.7-.7h6.35c.39,0,.7.31.7.7s-.31.7-.7.7Z"/>
  <path d="m65,59.73c-.16,0-.32-.05-.45-.17l-4.77-4.04c-.29-.25-.33-.69-.08-.99.25-.3.69-.33.99-.08l4.77,4.04c.29.25.33.69.08.99-.14.16-.34.25-.53.25Z"/>
  <path d="m58.59,19.17c-.18,0-.36-.07-.5-.21-.27-.27-.27-.72,0-.99l4.42-4.42c.27-.27.72-.27.99,0s.27.72,0,.99l-4.42,4.42c-.14.14-.32.21-.5.21Z"/>
  <path d="m40.17,74.88c-2.56,0-4.71-1.93-5-4.39-2.9-1.17-5.1-4.61-5.1-8.06v-7.16c-6.05-3.53-9.79-10-9.79-16.98,0-10.88,8.93-19.73,19.9-19.73s19.91,8.85,19.91,19.73c0,6.98-3.75,13.45-9.8,16.98v7.16c0,3.45-2.21,6.88-5.1,8.06-.29,2.46-2.44,4.39-5.01,4.39Zm0-54.91c-10.2,0-18.5,8.22-18.5,18.33,0,6.61,3.61,12.73,9.43,15.96.22.12.36.36.36.61v7.56c0,3,2.05,6.09,4.58,6.88.29.09.49.36.49.66.03,1.93,1.66,3.5,3.63,3.5s3.61-1.57,3.64-3.5c0-.3.2-.57.49-.66,2.53-.79,4.58-3.88,4.58-6.88v-7.56c0-.25.14-.49.36-.61,5.82-3.24,9.44-9.36,9.44-15.96,0-10.11-8.3-18.33-18.51-18.33Z"/>
</svg>