<?xml version="1.0" encoding="utf-8"?>
<!-- Generator: Adobe Illustrator 27.7.0, SVG Export Plug-In . SVG Version: 6.00 Build 0)  -->
<svg version="1.1" id="Layer_1" xmlns="http://www.w3.org/2000/svg" xmlns:xlink="http://www.w3.org/1999/xlink" x="0px" y="0px"
	 viewBox="0 0 386 128" style="enable-background:new 0 0 386 128;" xml:space="preserve">
<style type="text/css">
	.st0{fill-rule:evenodd;clip-rule:evenodd;}
</style>
<path class="st0" d="M46.6,105.2h26l13.5,17l-2.3,5.8H50.2l0.8-5.8l-7.9-12.5C43.1,109.7,46.6,105.2,46.6,105.2z M65.2,30.4l13.9,0
	l62.7,74.8L137,128h-26.9l1.7-6.4L53.2,51.6C53.2,51.6,65.2,30.4,65.2,30.4z M89.8,0L119,22.9l-3.7,3.9l5.1,7v7.5l-14.5,11.9
	L81.3,24.3H67.1l5.7-10.5L89.8,0z M28.7,73.5L49,55.8l27,32.5l-7.7,11.9H43.4l-17.2,22.6l-3.9,5.2H0v-27.7l20.8-26.8H28.7z
	 M244,95.3c-5,0-7.7-0.8-9.8-3.1c-3.2-3.3-4.5-7.8-4.5-21.9c0-14.2,1.3-18.6,4.5-22c2.1-2.2,4.8-3,9.8-3h16.8c5,0,7.7,0.8,9.8,3
	c3.2,3.4,4.5,7.8,4.5,22c0,14.2-1.3,18.6-4.5,21.9c-2.2,2.3-4.8,3.1-9.8,3.1H244L244,95.3z M243.4,84.3h18.1v-28h-18.1L243.4,84.3
	L243.4,84.3z M316.1,61.2L316.1,61.2l0-4.6h-16.9v4.6h0v34.1h-13.8V45.4h9.1v0h4.7v6.3l6.9-6.3h4c0.7-0.1,1.4-0.1,2-0.1h6
	c4.2,0,6.9,0.9,8.8,2.8c2.1,2,2.9,4.6,2.9,12v35.2h-13.8V61.8C316.1,61.6,316.1,61.4,316.1,61.2L316.1,61.2z M208.1,31.6h16.4
	l-23.6,30l24.6,33.9h-17.4l-18.7-26.6l-4.4,0v26.6h-14.8V31.6H185v24.8h4.4L208.1,31.6z M372.1,45.4l13.9,0v52
	c0,8.6-0.9,10.1-3.2,12.4c-1.8,1.9-4.7,2.8-9.7,2.8l-20.3,0l-6.3-7l0-2.9h25.6l0-7.1l-17.5,0c-5.3,0-8-1-10.2-3.2
	c-2.9-3-4.1-9.5-4.1-21.8c0-12.3,1.4-19.1,4.4-22.2c2.3-2.2,5.1-3.1,10.1-3.1l10.4,0.1l6.9,6.3V45.4L372.1,45.4z M354.1,84.4h18.1
	v-28h-18.1C354.1,56.4,354.1,84.4,354.1,84.4z"/>
</svg>
