<svg width="300" height="300" viewBox="0 0 300 300" fill="none" xmlns="http://www.w3.org/2000/svg">
<g clip-path="url(#clip0_12600_40241)">
<path d="M121.259 153.786L112.101 134.068H107.281V165.649H112.101V144.488L119.492 159.878H123.027L130.257 144.488V165.809H135.077V134.068H130.257L121.259 153.786Z" fill="white"/>
<path d="M153.071 156.991C153.071 160.518 150.821 161.961 148.411 161.961C146.001 161.961 143.913 160.518 143.913 156.991V143.205H139.414V157.633C139.414 160.197 139.896 162.281 141.824 164.045C143.109 165.327 145.037 166.129 147.287 166.129C149.697 166.129 151.625 165.327 153.392 163.564V165.968H157.73V143.205H153.231L153.071 156.991Z" fill="white"/>
<path d="M166.405 159.397V134.068H161.906V159.557C161.906 162.923 163.674 165.809 168.172 165.809H171.064V161.961H168.976C167.048 161.801 166.405 161 166.405 159.397Z" fill="white"/>
<path d="M181.831 142.887C176.208 142.887 172.191 147.055 172.191 154.429C172.191 162.925 176.69 165.971 182.313 165.971C186.169 165.971 188.419 164.849 190.668 162.444L187.776 159.719C186.169 161.322 184.884 162.123 182.474 162.123C178.779 162.123 176.851 159.558 176.851 155.711H191.471V153.627C191.15 147.375 187.776 142.887 181.831 142.887ZM176.851 152.665C176.851 151.383 177.011 150.581 177.333 149.62C178.136 147.856 179.903 146.734 181.831 146.734C183.599 146.734 185.527 147.696 186.169 149.62C186.651 150.581 186.812 151.704 186.812 152.665H176.851Z" fill="white"/>
<path d="M213.481 150.259C212.196 149.137 210.429 148.496 207.537 147.855L204.002 147.374C202.717 147.213 201.431 146.732 200.467 145.931C199.664 145.29 199.343 144.168 199.343 142.885C199.343 140 201.431 138.076 204.966 138.076C207.697 138.076 209.786 138.557 211.875 140.641L214.927 137.595C212.196 135.03 209.304 134.068 205.127 134.068C198.539 134.068 194.523 137.916 194.523 143.366C194.523 145.931 195.326 147.855 196.933 149.458C198.218 150.74 200.307 151.702 203.038 152.023L206.733 152.503C208.501 152.824 209.465 152.984 210.268 153.786C211.071 154.427 211.393 155.549 211.393 157.152C211.393 160.198 208.983 161.961 204.805 161.961C201.592 161.961 199.182 161.32 196.772 158.916L193.559 162.122C196.611 165.168 199.985 166.29 204.805 166.29C211.393 166.29 216.213 162.763 216.213 156.992C216.213 153.946 215.409 151.862 213.481 150.259Z" fill="white"/>
<path d="M228.104 142.887C225.052 142.887 222.963 144.009 221.356 145.612C219.107 147.856 218.625 150.581 218.625 154.429C218.625 158.276 219.107 161.162 221.356 163.245C222.802 164.688 225.052 165.971 228.104 165.971C231.157 165.971 233.246 164.849 234.852 163.245C237.102 161.001 237.584 158.276 237.584 154.429C237.584 150.581 237.102 147.696 234.852 145.612C233.246 144.169 231.157 142.887 228.104 142.887ZM231.478 160.681C230.675 161.482 229.39 161.963 228.104 161.963C226.98 161.963 225.694 161.482 224.73 160.681C223.445 159.398 223.284 156.994 223.284 154.429C223.284 151.864 223.445 149.62 224.73 148.177C225.534 147.375 226.819 146.894 228.104 146.894C229.229 146.894 230.675 147.375 231.478 148.177C232.764 149.459 232.924 151.864 232.924 154.429C232.924 156.994 232.764 159.398 231.478 160.681Z" fill="white"/>
<path d="M242.082 140.16V143.687H239.512V147.214H242.082V165.969H246.581V147.053H251.08V143.527H246.581V140.32C246.581 138.717 247.384 137.595 249.152 137.595H251.24V133.908H248.348C244.01 133.908 242.082 136.954 242.082 140.16Z" fill="white"/>
<path d="M261.038 136.793H256.539V143.686H253.969V147.213H256.539V159.556C256.539 162.762 258.628 165.969 262.805 165.969H265.537V162.121H263.769C262.163 162.121 261.199 161.159 261.199 159.396V147.213H265.537V143.686H261.199V136.793H261.038Z" fill="white"/>
<path d="M270.839 140.322C270.678 140.001 270.518 139.841 270.357 139.52C270.196 139.2 269.875 139.2 269.554 139.039C269.232 138.879 268.911 138.879 268.59 138.879C268.268 138.879 267.947 138.879 267.626 139.039C267.304 139.2 267.144 139.36 266.822 139.52C266.662 139.68 266.501 140.001 266.34 140.322C266.18 140.642 266.18 140.963 266.18 141.283C266.18 142.245 266.822 143.047 267.626 143.688C267.947 143.848 268.268 143.848 268.59 143.848C269.232 143.848 269.875 143.688 270.196 143.207C270.357 143.047 270.518 142.726 270.678 142.406C270.839 142.085 270.839 141.764 270.839 141.444C271 140.963 271 140.642 270.839 140.322ZM270.357 142.085C270.196 142.566 269.875 142.887 269.393 143.207C269.232 143.367 268.911 143.367 268.59 143.367C268.268 143.367 268.108 143.367 267.786 143.207C267.626 143.047 267.304 143.047 267.144 142.726C266.983 142.566 266.822 142.406 266.822 142.085C266.662 141.764 266.662 141.604 266.662 141.283C266.662 140.963 266.662 140.803 266.822 140.482C266.983 140.161 266.983 140.001 267.144 139.841C267.465 139.52 267.947 139.2 268.59 139.2C268.911 139.2 269.072 139.2 269.393 139.36C269.554 139.52 269.875 139.52 270.036 139.841C270.196 140.001 270.357 140.161 270.357 140.482C270.518 140.642 270.518 140.963 270.518 141.283C270.518 141.604 270.518 141.764 270.357 142.085Z" fill="white"/>
<path d="M269.552 141.122C269.713 140.962 269.713 140.802 269.713 140.641C269.713 140.481 269.713 140.16 269.552 140C269.392 139.84 269.07 139.84 268.749 139.84H267.785V142.725H268.106V141.443H268.588L269.392 142.565H269.874L269.07 141.283C269.231 141.443 269.392 141.283 269.552 141.122ZM268.588 141.122H268.106V140.321H268.749H268.91H269.07C269.07 140.321 269.231 140.321 269.231 140.481V140.641C269.231 140.802 269.231 140.802 269.231 140.962L269.07 141.122H268.91C268.749 141.122 268.749 141.122 268.588 141.122Z" fill="white"/>
<path d="M61.4907 179.435C45.7453 179.435 32.7313 166.611 32.7313 150.58C32.7313 134.55 45.424 121.725 61.4907 121.725C77.5573 121.725 90.25 134.55 90.25 150.58C90.25 166.611 77.3967 179.435 61.4907 179.435ZM61.4907 119C44.1387 119 30 133.107 30 150.42C30 167.733 44.1387 181.84 61.4907 181.84C78.8427 181.84 92.9813 167.733 92.9813 150.42C92.9813 133.107 79.0033 119 61.4907 119Z" fill="white"/>
<path d="M53.4602 164.526C48.8008 162.121 45.4268 157.152 45.4268 151.541C45.4268 148.496 46.3908 145.61 47.9975 143.205L58.4408 158.755H64.7068L74.9895 143.045C76.4355 145.45 77.5602 148.335 77.5602 151.381C77.5602 156.831 74.6682 161.641 70.3302 164.045L72.4188 171.579C79.9702 167.572 85.1115 159.717 85.1115 150.419C85.1115 141.121 80.2915 134.389 73.3828 130.381L61.3328 148.976L49.4435 130.221C42.3742 134.389 37.7148 141.923 37.7148 150.579C37.7148 160.198 43.1775 168.213 51.3715 172.06L53.4602 164.526Z" fill="white"/>
</g>
<defs>
<clipPath id="clip0_12600_40241">
<rect width="241" height="63" fill="white" transform="translate(30 119)"/>
</clipPath>
</defs>
</svg>
