<svg width="300" height="300" viewBox="0 0 300 300" fill="none" xmlns="http://www.w3.org/2000/svg">
<g clip-path="url(#clip0_12600_40240)">
<path d="M60.9133 132.704V179.234H53.7067V132.704H35V125.816H79.4667V132.704H60.9133ZM88.0533 179.081V125.816H95.26V178.928H88.0533V179.081ZM145.86 164.081C145.86 172.959 139.727 179.081 125.927 179.081H107.833V125.816H125.467C138.347 125.816 144.02 131.632 144.02 140.05C144.02 145.561 140.953 149.387 134.82 151.683C142.027 153.367 145.86 157.959 145.86 164.081ZM126.08 132.397H115.193V148.928H125.007C132.673 148.928 136.813 145.561 136.813 140.357C136.813 135.153 133.133 132.397 126.08 132.397ZM125.467 155.663H115.04V172.346H126.693C134.513 172.346 138.5 169.438 138.5 163.928C138.653 157.959 133.133 155.663 125.467 155.663ZM192.933 135.612C188.947 132.55 184.04 130.867 178.52 130.867H178.367C166.713 130.867 159.047 138.979 159.047 151.989C159.047 164.999 166.713 173.571 178.367 173.571C184.04 173.418 189.407 171.428 193.547 168.214L194.62 175.408C189.867 178.01 184.347 179.693 178.367 179.693C162.727 179.693 151.687 168.979 151.687 152.142C151.687 134.999 162.88 124.285 178.367 124.285C184.5 124.285 190.327 125.969 195.233 128.724H195.08C195.08 128.571 192.933 135.612 192.933 135.612ZM239.393 128.418C238.473 128.112 237.86 127.499 236.94 127.04C229.887 140.357 217.313 156.275 200.6 165.153C201.52 167.448 202.9 169.285 204.433 170.969C219.307 159.795 231.113 145.561 239.087 128.877L239.393 128.418Z" fill="white"/>
<path d="M236.176 126.888C232.956 125.357 228.969 124.439 224.983 124.439H224.676C208.883 124.439 197.996 136.378 197.996 152.296V152.908C197.996 155.357 198.303 157.806 198.916 160.255V160.102C214.556 153.367 228.816 138.98 236.176 126.888ZM239.703 128.724C232.649 147.092 222.069 162.704 208.729 175.408C212.869 178.316 218.083 180 223.756 180H224.523C240.316 180.153 251.356 168.061 251.356 152.143C251.356 141.582 246.909 133.316 239.703 128.724ZM251.356 127.041C251.356 123.214 254.423 120.153 258.256 120H258.409C262.089 120 265.003 122.908 265.003 126.429V126.735C265.003 130.561 261.936 133.622 258.103 133.776H257.949C254.269 133.776 251.356 130.867 251.356 127.347V127.041ZM264.236 127.041C264.236 126.888 264.236 126.888 264.236 127.041C264.236 123.673 261.629 120.918 258.409 120.918H258.103C254.729 120.918 251.969 123.52 251.969 127.041C251.969 130.255 254.883 133.163 258.103 133.163C261.323 133.163 264.083 130.255 264.236 127.041ZM255.496 123.214H258.563C260.096 123.214 261.169 123.827 261.169 125.357V125.51C261.169 126.429 260.556 127.194 259.636 127.653L261.476 130.255H259.943L258.256 127.806H256.723V130.255H255.343C255.496 130.255 255.496 123.214 255.496 123.214ZM258.563 126.888C259.483 126.888 260.096 126.582 260.096 125.816C260.096 125.051 259.789 124.745 258.563 124.745H256.876V127.041H258.563V126.888Z" fill="white"/>
</g>
<defs>
<clipPath id="clip0_12600_40240">
<rect width="230" height="60" fill="white" transform="translate(35 120)"/>
</clipPath>
</defs>
</svg>
