<svg width="245" height="204" viewBox="0 0 245 204" fill="none" xmlns="http://www.w3.org/2000/svg">
<g clip-path="url(#clip0_43201_19918)">
<path d="M106.962 109.369L104.308 116.912H109.617L106.962 109.369ZM108.918 106.016L115.624 123.898H112.131L110.595 119.427H103.47L101.933 123.898H98.5801L105.286 106.016C105.426 106.016 108.918 106.016 108.918 106.016Z" fill="white"/>
<path d="M117.162 111.046H127.361V112.303L120.655 121.524H127.361V123.899H116.604V122.502L123.309 113.561H117.162V111.046Z" fill="white"/>
<path d="M140.775 111.046V123.899H137.701V122.222C137.282 122.781 136.724 123.2 136.165 123.619C135.466 123.899 134.768 124.178 133.929 124.178C132.393 124.178 131.275 123.759 130.577 122.921C129.738 122.082 129.459 120.825 129.459 119.009V111.046H132.532V118.45C132.532 119.568 132.812 120.406 133.231 120.825C133.65 121.384 134.349 121.663 135.187 121.663C136.025 121.663 136.724 121.384 137.282 120.825C137.841 120.266 138.121 119.428 138.121 118.45V111.046H140.775Z" fill="white"/>
<path d="M149.433 110.906C149.713 110.906 149.852 110.906 150.132 110.906C150.271 110.906 150.551 111.046 150.551 111.046V114.119C150.411 113.98 150.132 113.84 149.852 113.84C149.573 113.7 149.154 113.7 148.735 113.7C148.036 113.7 147.338 113.98 146.918 114.678C146.36 115.237 146.22 116.215 146.22 117.612V124.038H143.146V111.046H146.22V113.002C146.499 112.303 146.918 111.744 147.477 111.325C148.036 111.046 148.735 110.906 149.433 110.906Z" fill="white"/>
<path d="M159.632 116.216C159.632 115.238 159.353 114.4 158.934 113.981C158.515 113.422 157.816 113.143 156.978 113.143C156.28 113.143 155.581 113.422 155.022 113.981C154.463 114.54 154.044 115.238 153.905 116.216H159.632ZM161.588 120.687V123.201C161.029 123.481 160.471 123.76 159.632 123.9C158.794 124.039 157.956 124.179 156.978 124.179C155.022 124.179 153.485 123.62 152.368 122.503C151.25 121.385 150.691 119.709 150.691 117.613C150.691 115.657 151.25 113.981 152.368 112.723C153.485 111.466 155.022 110.768 156.838 110.768C158.654 110.768 160.052 111.326 161.029 112.444C162.007 113.562 162.566 115.098 162.566 116.915V118.312H153.765C153.905 119.569 154.324 120.547 155.022 120.966C155.721 121.525 156.559 121.664 157.677 121.664C158.375 121.664 159.074 121.525 159.772 121.385C160.471 121.385 161.029 120.966 161.588 120.687Z" fill="white"/>
<path d="M191.118 89.0216H186.841V98.9141H183.9V89.0216H181.894V86.6153H183.9V84.8774C183.9 83.5405 184.301 82.4711 185.103 81.669C185.905 80.8669 186.974 80.4658 188.311 80.4658C188.712 80.4658 188.98 80.4658 189.247 80.4658C189.514 80.4658 189.782 80.5995 189.915 80.5995V83.1395C189.782 83.1395 189.648 83.0058 189.381 82.8721C189.113 82.7384 188.846 82.7384 188.578 82.7384C187.91 82.7384 187.509 82.8721 187.242 83.2732C186.974 83.6742 186.707 84.209 186.707 85.0111V86.4816H190.985V83.8079L193.926 82.8721V86.4816H196.867V88.8879H193.926V94.7699C193.926 95.572 194.06 96.1068 194.327 96.3741C194.594 96.6415 194.995 96.7752 195.664 96.7752C195.797 96.7752 196.065 96.7752 196.332 96.6415C196.6 96.5078 196.733 96.5078 197.001 96.3741V98.7805C196.867 98.9141 196.466 98.9141 196.065 99.0478C195.664 99.1815 195.263 99.1815 194.862 99.1815C193.658 99.1815 192.723 98.9141 192.054 98.2457C191.386 97.5773 191.118 96.6415 191.118 95.3047V89.0216ZM171.868 92.8984C171.868 94.2352 172.135 95.171 172.804 95.8394C173.339 96.5078 174.274 96.9089 175.344 96.9089C176.413 96.9089 177.215 96.5078 177.75 95.8394C178.285 95.171 178.552 94.1015 178.552 92.7647C178.552 91.4279 178.285 90.4921 177.75 89.8237C177.215 89.1552 176.413 88.7542 175.344 88.7542C174.274 88.7542 173.472 89.1552 172.938 89.8237C172.135 90.4921 171.868 91.5615 171.868 92.8984ZM168.927 92.8984C168.927 90.8931 169.462 89.2889 170.665 88.0858C171.868 86.8826 173.472 86.3479 175.478 86.3479C177.349 86.3479 178.953 86.8826 180.023 88.0858C181.092 89.2889 181.627 90.7594 181.627 92.7647C181.627 94.7699 181.092 96.3741 179.889 97.5773C178.686 98.7805 177.215 99.3152 175.21 99.3152C173.339 99.3152 171.734 98.7805 170.665 97.5773C169.462 96.3741 168.927 94.9036 168.927 92.8984ZM162.377 89.8237C162.377 90.2247 162.51 90.6258 162.778 90.7594C163.045 91.0268 163.58 91.2942 164.515 91.6952C165.719 92.0963 166.521 92.631 166.922 93.2994C167.323 93.8342 167.59 94.6363 167.59 95.4384C167.59 96.6415 167.189 97.5773 166.253 98.2457C165.318 98.9141 164.114 99.3152 162.644 99.3152C162.109 99.3152 161.574 99.3152 160.906 99.1815C160.238 99.0478 159.703 98.9141 159.302 98.6468V95.8394C159.837 96.2405 160.371 96.5078 161.04 96.7752C161.708 97.0426 162.243 97.0426 162.644 97.0426C163.312 97.0426 163.713 96.9089 164.114 96.7752C164.382 96.6415 164.515 96.2405 164.515 95.8394C164.515 95.4384 164.382 95.0373 163.981 94.7699C163.713 94.5026 163.045 94.2352 162.109 93.8342C161.04 93.4331 160.238 92.8984 159.837 92.3636C159.436 91.8289 159.168 91.1605 159.168 90.2247C159.168 89.1552 159.569 88.2195 160.505 87.551C161.441 86.8826 162.51 86.4816 163.981 86.4816C164.382 86.4816 164.917 86.4816 165.451 86.6153C165.986 86.7489 166.387 86.8826 166.788 87.0163V89.8237C166.387 89.5563 165.986 89.2889 165.451 89.1552C164.917 89.0216 164.382 88.8879 163.981 88.8879C163.446 88.8879 163.045 89.0216 162.644 89.1552C162.51 89.1552 162.377 89.4226 162.377 89.8237ZM148.473 92.8984C148.473 94.2352 148.741 95.171 149.409 95.8394C149.944 96.5078 150.88 96.9089 151.949 96.9089C153.019 96.9089 153.821 96.5078 154.356 95.8394C154.89 95.171 155.158 94.1015 155.158 92.7647C155.158 91.4279 154.89 90.4921 154.356 89.8237C153.821 89.1552 153.019 88.7542 151.949 88.7542C150.88 88.7542 150.078 89.1552 149.543 89.8237C148.741 90.4921 148.473 91.5615 148.473 92.8984ZM145.399 92.8984C145.399 90.8931 145.933 89.2889 147.137 88.0858C148.34 86.8826 149.944 86.3479 151.949 86.3479C153.821 86.3479 155.425 86.8826 156.494 88.0858C157.564 89.2889 158.099 90.7594 158.099 92.7647C158.099 94.7699 157.564 96.3741 156.361 97.5773C155.158 98.7805 153.687 99.3152 151.682 99.3152C149.81 99.3152 148.206 98.7805 147.137 97.5773C145.933 96.3741 145.399 94.9036 145.399 92.8984ZM144.196 86.4816C144.463 86.4816 144.597 86.4816 144.864 86.4816C144.998 86.4816 145.265 86.6153 145.265 86.6153V89.5563C145.131 89.4226 144.864 89.2889 144.597 89.2889C144.329 89.1552 143.928 89.1552 143.527 89.1552C142.859 89.1552 142.19 89.4226 141.789 90.091C141.255 90.6258 141.121 91.5615 141.121 92.8984V99.0478H138.18V86.6153H141.121V88.4868C141.388 87.8184 141.789 87.2837 142.324 86.8826C142.859 86.6153 143.394 86.4816 144.196 86.4816ZM133.1 96.7752C133.501 96.7752 134.036 96.6415 134.57 96.5078C135.105 96.3741 135.506 96.1068 136.041 95.7057V98.3794C135.64 98.6468 135.105 98.7805 134.437 98.9141C133.902 99.0478 133.234 99.1815 132.565 99.1815C130.694 99.1815 129.223 98.6468 128.154 97.4436C127.084 96.2405 126.416 94.9036 126.416 93.0321C126.416 91.0268 126.95 89.4226 128.154 88.0858C129.357 86.7489 130.961 86.2142 133.1 86.2142C133.635 86.2142 134.169 86.3479 134.704 86.4816C135.239 86.6153 135.64 86.7489 136.041 87.0163V89.8237C135.64 89.5563 135.105 89.2889 134.704 89.0216C134.303 88.8879 133.768 88.7542 133.234 88.7542C132.03 88.7542 131.228 89.1552 130.426 89.8237C129.758 90.6258 129.357 91.5615 129.357 92.7647C129.357 93.9678 129.758 95.0373 130.426 95.7057C130.961 96.5078 131.897 96.7752 133.1 96.7752ZM121.469 98.9141H124.41V86.6153H121.469V98.9141ZM121.068 83.1395C121.068 82.6048 121.202 82.2037 121.603 81.9363C122.004 81.5353 122.405 81.4016 122.94 81.4016C123.475 81.4016 123.876 81.5353 124.143 81.9363C124.544 82.2037 124.678 82.6048 124.678 83.1395C124.678 83.6742 124.544 83.9416 124.143 84.3426C123.742 84.61 123.341 84.8774 122.94 84.8774C122.405 84.8774 122.004 84.7437 121.737 84.3426C121.336 83.9416 121.068 83.5405 121.068 83.1395ZM118.662 81.8027V98.9141H115.721V85.4121L110.374 98.9141H108.368L102.887 85.4121V98.9141H100.08V81.8027H104.358L109.304 94.5026H109.438L114.652 81.8027H118.662Z" fill="white"/>
<path d="M47 101.153H66.0981V82.0547H47V101.153Z" fill="white"/>
<path d="M68 101.098H87.0981V82H68V101.098Z" fill="white"/>
<path d="M47 122.123H66.0981V103.025H47V122.123Z" fill="white"/>
<path d="M67.9707 122.123H87.0688V103.025H67.9707V122.123Z" fill="white"/>
</g>
<defs>
<clipPath id="clip0_43201_19918">
<rect width="150" height="44.1783" fill="white" transform="translate(47 80)"/>
</clipPath>
</defs>
</svg>
