<?xml version="1.0" encoding="utf-8"?>
<!-- Generator: Adobe Illustrator 27.2.0, SVG Export Plug-In . SVG Version: 6.00 Build 0)  -->
<svg version="1.1" id="Layer_1" xmlns="http://www.w3.org/2000/svg" xmlns:xlink="http://www.w3.org/1999/xlink" x="0px" y="0px"
	 viewBox="0 0 150 37" style="enable-background:new 0 0 150 37;" xml:space="preserve">
<style type="text/css">
	.st0{fill-rule:evenodd;clip-rule:evenodd;fill:#FFFFFF;}
	.st1{fill-rule:evenodd;clip-rule:evenodd;fill:#E80D8C;}
	.st2{fill-rule:evenodd;clip-rule:evenodd;fill:#ED6CA5;}
	.st3{fill-rule:evenodd;clip-rule:evenodd;fill:#8C2E87;}
	.st4{fill-rule:evenodd;clip-rule:evenodd;fill:#E62966;}
</style>
<g id="M001-Header">
	<g id="M001-D" transform="translate(-169.000000, -51.000000)">
		<g id="Multipart-logo" transform="translate(165.000000, 51.000000)">
			
				<g id="final-logo" transform="translate(112.500000, 26.500000) rotate(-90.000000) translate(-112.500000, -26.500000) translate(85.000000, -82.000000)">
				<path id="Fill-17" class="st0" d="M38.2,93.3c0,0.6,0.5,1,1.1,1c0.6,0,1.1-0.5,1.1-1c0-0.6-0.5-1-1.1-1
					C38.7,92.3,38.2,92.7,38.2,93.3"/>
				<path id="Fill-19" class="st0" d="M40.4,41.3v-1.4l-18.5-7.4V34l6.1,2.4v8.3l-6.1,2.4v1.6L40.4,41.3z M38.3,40.4v0.2l-9,3.6
					v-7.3L38.3,40.4z M21.9,51.1v1.4h6.8c3.5,0,5,1.8,5,3.9c0,2.3-1.1,3.1-3,3.1h-8.8v1.4h6.8c3.5,0,5,1.8,5,3.8
					c0,2.3-1.1,3.1-3,3.1h-8.8V69h8.8c2.3,0,3.9-0.8,3.9-4c0-1.9-1.2-3.8-3.4-4.4v-0.1c2-0.1,3.4-1.1,3.4-3.8c0-1.9-1.2-3.7-3.4-4.3
					v-0.1h3v-1.2H21.9z M17,74.1h7.7v0.1c-2,0.7-3.1,2.3-3.1,4.6c0,2.9,1.9,5.6,6.6,5.6c4.7,0,6.5-2.7,6.5-5.6c0-2-1.2-3.9-3.5-4.5
					v-0.2h3.2v-1.3H17V74.1z M28.1,74.3c3.8,0,5.5,2.1,5.5,4.4c0,2.7-2,4.4-5.5,4.4c-3.5,0-5.6-1.6-5.6-4.5
					C22.5,76.3,24.1,74.3,28.1,74.3L28.1,74.3z M21.9,87.4v1.4h18.4v-1.4H21.9z M21.9,92.7V94h12.4v-1.4H21.9z M22.6,103
					c0-2.6,2.1-4.5,5.5-4.5v10.1c4.2-0.1,6.6-2.3,6.6-5.7c0-3.4-2.7-5.9-6.5-5.9c-3.9,0-6.6,2.4-6.6,5.9c0,3.6,2,5.1,4.3,5.8
					l0.4-1.1C24.3,107.1,22.6,106,22.6,103L22.6,103z M33.6,103c0,2.7-1.9,4-4.6,4.2v-8.6C31.8,98.9,33.6,100.6,33.6,103L33.6,103z
					 M21.9,111.8v1.4h6.8c3.5,0,4.9,2.2,4.9,4.2c0,2.3-1.2,3.2-3.1,3.2h-8.7v1.4h8.8c2.3,0,4-1,4-4.2c0-1.9-1.2-4-3.4-4.6V113h3
					v-1.2H21.9z M28.1,124.8c-3.9,0-6.6,2.5-6.6,6c0,3.1,2.2,5,4.7,5.5l0.5-1c-2.2-0.5-4.1-1.7-4.1-4.5c0-2.7,2.1-4.5,5.5-4.5
					c3.4,0,5.5,1.9,5.5,4.6c0,2.5-1.8,3.8-4.2,4l0.5,1c2.5-0.2,4.7-2,4.7-5.1C34.7,127.2,32,124.8,28.1,124.8L28.1,124.8z
					 M22.6,144.3c0-2.6,2.1-4.5,5.5-4.5v10.1c4.2-0.1,6.6-2.3,6.6-5.7c0-3.4-2.7-5.9-6.5-5.9c-3.9,0-6.6,2.4-6.6,5.9
					c0,3.6,2,5.1,4.3,5.8l0.4-1.1C24.3,148.4,22.6,147.3,22.6,144.3L22.6,144.3z M33.6,144.2c0,2.7-1.9,4-4.6,4.2v-8.6
					C31.8,140.2,33.6,141.9,33.6,144.2L33.6,144.2z"/>
				<g id="star" transform="translate(7.537607, 0.683886)">
					<polygon id="Fill-20" class="st1" points="33.7,15.6 38.2,11 43.6,25.2 					"/>
					<polygon id="Fill-21" class="st1" points="27.2,15.5 22.7,20.1 17.4,5.9 					"/>
					<polygon id="Fill-22" class="st2" points="32.7,17.9 39.1,17.9 33,31.7 					"/>
					<polygon id="Fill-23" class="st2" points="27.9,-0.7 21.8,13.2 28.2,13.2 					"/>
					<polygon id="Fill-24" class="st3" points="30.4,18.8 35,23.4 20.9,28.8 					"/>
					<polygon id="Fill-25" class="st3" points="30.5,12.2 26,7.7 40,2.3 					"/>
					<polygon id="Fill-26" class="st4" points="28.1,17.8 28.1,24.3 14.5,18.1 					"/>
					<polygon id="Fill-27" class="st4" points="46.5,13 32.8,6.7 32.8,13.2 					"/>
				</g>
			</g>
		</g>
	</g>
</g>
</svg>
