<?xml version="1.0" encoding="utf-8"?>
<!-- Generator: Adobe Illustrator 27.2.0, SVG Export Plug-In . SVG Version: 6.00 Build 0)  -->
<svg version="1.1" id="Layer_1" xmlns="http://www.w3.org/2000/svg" xmlns:xlink="http://www.w3.org/1999/xlink" x="0px" y="0px"
	 viewBox="0 0 150 32.4" style="enable-background:new 0 0 150 32.4;" xml:space="preserve">
<style type="text/css">
	.st0{fill:#FFFFFF;}
	.st1{fill:#FFD500;}
	.st2{fill:#002840;}
</style>
<g transform="translate(46.47 9.194)">
	<path class="st0" d="M7.7-1.4v14.7H5.3V-1.4H7.7z"/>
	<path class="st0" d="M50.1,7.2v6.1h-2.4V7.6c0-1.3-1-2.4-2.3-2.5c-1.3,0-2.4,1-2.5,2.3v0.1v5.7h-2.4V7.6c0.1-1.3-0.9-2.4-2.1-2.4
		c-0.1,0-0.2,0-0.3,0c-1.3,0-2.4,1.1-2.4,2.4v0.1v5.7h-2.4V3.2H36v1.2C36.7,3.5,37.8,3,39,3c1.3,0,2.6,0.6,3.4,1.7
		C43.2,3.6,44.5,3,45.9,3c2.3-0.1,4.2,1.7,4.3,3.9C50.1,7,50.1,7.1,50.1,7.2z"/>
	<path class="st0" d="M57.9,3v2.5c-2.3-0.2-3.4,1-3.4,2.6v5.2h-2.4V3.2h2.4v1.4C55.3,3.6,56.5,3,57.9,3z"/>
	<path class="st0" d="M68.5,9.1h-8c0.3,1.4,1.6,2.4,3,2.3c1.2,0,2.3-0.6,2.8-1.6l2,0.8c-0.9,1.8-2.7,2.9-4.7,2.9
		c-2.9,0.1-5.3-2.1-5.4-5c0-0.1,0-0.2,0-0.3c-0.1-2.8,2.2-5.2,5-5.2c0.1,0,0.1,0,0.2,0c2.8,0,5.1,2.2,5.1,5
		C68.6,8.3,68.6,8.7,68.5,9.1z M60.6,7.3h5.8c-0.3-1.3-1.5-2.2-2.8-2.2C62.2,5,60.9,5.9,60.6,7.3L60.6,7.3z"/>
	<path class="st0" d="M80.5,3.2v10.1h-2.4v-1.4c-0.8,1-2.1,1.6-3.4,1.5c-2.8,0-4.9-2.2-4.9-5.2S71.9,3,74.7,3c1.3,0,2.6,0.5,3.4,1.5
		V3.2H80.5z M78.1,8.2c0.1-1.7-1.2-3-2.9-3.1h-0.1c-1.7,0.1-3,1.6-2.9,3.3c0.1,1.6,1.4,2.8,2.9,2.9C76.8,11.3,78.1,9.9,78.1,8.2
		C78.1,8.3,78.1,8.3,78.1,8.2L78.1,8.2z"/>
	<path class="st0" d="M82.1,8.2C82,5.4,84.3,3,87.1,3c0.1,0,0.1,0,0.2,0c2.2-0.1,4.1,1.2,4.9,3.2L90.1,7c-0.5-1.1-1.5-1.8-2.7-1.8
		c-1.6,0-2.9,1.3-2.9,2.9c0,0.1,0,0.1,0,0.2c-0.1,1.6,1.2,3,2.8,3.1c1.3,0.1,2.4-0.7,2.9-1.9l2.1,0.8c-0.8,2-2.8,3.3-4.9,3.3
		c-2.8,0.1-5.2-2.2-5.2-5C82.1,8.4,82.1,8.3,82.1,8.2z"/>
	<path class="st0" d="M103.5,7.4v5.9h-2.4V7.8c0.1-1.4-1-2.6-2.3-2.6c-0.1,0-0.2,0-0.3,0c-1.4,0-2.6,1.1-2.6,2.5c0,0.1,0,0.1,0,0.2
		v5.4h-2.4V-1.4H96v5.9c1.5-1.8,4.2-2,6.1-0.5C103,4.9,103.6,6.1,103.5,7.4L103.5,7.4z"/>
	<path class="st0" d="M-4.8,3.9L-4.8,3.9v-5.3h-2.4v14.7h2.4v-0.7l0,0c0.9,0.5,1.9,0.8,2.9,0.8c0.7,0,1.4-0.1,2-0.4
		c2.6-1.2,3.8-4.3,2.6-7C2.2,4.9,1.3,4,0.1,3.4C-0.5,3.2-1.2,3-1.9,3C-2.9,3.1-3.9,3.3-4.8,3.9L-4.8,3.9 M-2.1,11.3
		c-1.1,0-2.1-0.6-2.6-1.6s-0.5-2.1,0-3c0.5-1,1.5-1.6,2.6-1.6c1.7,0,3,1.5,3,3.2C0.8,9.9-0.5,11.2-2.1,11.3z"/>
	<g transform="translate(19.536 5.177)">
		<path class="st0" d="M-10.1,3c0-2.9,2.3-5.4,5.2-5.4s5.4,2.3,5.4,5.2s-2.3,5.4-5.2,5.4h-0.1c-2.9,0.1-5.2-2.2-5.3-5
			C-10.1,3.2-10.1,3.1-10.1,3z M-4.8,6.1c1.7,0.1,3.1-1.3,3.2-3S-2.9,0-4.6,0c-1.7-0.1-3.1,1.3-3.2,3v0.1C-7.8,4.7-6.5,6.1-4.8,6.1
			L-4.8,6.1L-4.8,6.1z"/>
	</g>
	<g transform="translate(33.532 5.177)">
		<path class="st0" d="M-12.2,3C-12.3,0.1-9.9-2.3-7-2.4c3,0,5.4,2.3,5.4,5.3c0.1,2.9-2.3,5.4-5.2,5.4h-0.1c-2.9,0.1-5.2-2.2-5.3-5
			C-12.2,3.2-12.2,3.1-12.2,3z M-6.9,6.1c1.7,0.1,3.1-1.3,3.2-3C-3.7,1.4-5,0-6.7,0c-1.7-0.1-3.1,1.3-3.2,3v0.1
			C-9.9,4.7-8.6,6.1-6.9,6.1C-7,6.1-6.9,6.1-6.9,6.1L-6.9,6.1z"/>
	</g>
</g>
<ellipse class="st1" cx="16.2" cy="16.2" rx="16.2" ry="16.2"/>
<g transform="translate(14.248 9.194)">
	<path class="st2" d="M5.3,3.6l-0.8,2c0.9,0.6,1.4,1.5,1.4,2.5c0,1.6-1.4,2.8-3,2.8s-2.8-1.4-2.8-3c0-1.5,1.2-2.7,2.8-2.8L3.6,3
		C0.9,2.7-1.7,4.6-2.1,7.3c0,0.3-0.1,0.5-0.1,0.8l0,0v5.2h2.3v-0.8C1,13,2,13.3,3,13.3c2.8,0.1,5.1-2.1,5.2-4.9c0-0.1,0-0.1,0-0.2
		C8.2,6.3,7.1,4.5,5.3,3.6z"/>
	<path class="st2" d="M-2.2,3.4c0.6-0.7,1.4-1.2,2.3-1.5v-3.3h-2.3V3.4z"/>
</g>
</svg>
