<svg width="72" height="98" viewBox="0 0 72 98" fill="none" xmlns="http://www.w3.org/2000/svg">
<path d="M8.44657 37.6483C8.9835 40.3875 8.46754 42.2877 8.46754 42.2877C8.46754 42.2877 0.845639 39.4101 2.15021 49.0623C3.45479 58.7144 10.9676 54.6078 10.9676 54.6078C11.018 54.6791 11.9366 58.0978 11.9534 58.1817C13.0608 63.9663 17.3143 68.4295 17.2556 74.5329C17.222 77.8552 14.7933 80.3385 14.6674 83.5894C14.1389 96.9624 41.019 97.6251 40.2262 93.917C39.4333 90.2088 41.1532 81.7353 42.6088 80.544C44.0644 79.3527 50.5663 83.2748 57.4918 80.7999C67.5425 77.2092 58.314 58.6725 64.5223 58.8403C68.3647 58.9452 70.2397 55.7823 69.9755 54.5868C69.8706 54.1086 68.6709 51.5288 67.274 48.6134C65.1095 44.0957 63.8931 39.1878 63.5868 34.1876C63.1548 27.2075 60.6673 23.0127 59.6941 20.9531C54.6729 10.3655 44.2364 2.9869 32.4742 2.50869C26.6435 2.27378 20.5695 3.41057 15.9552 7.14391C12.1254 10.2439 9.40717 14.6945 8.40462 19.5143C7.7796 22.5178 7.83832 25.6596 8.66889 28.6211C11.0389 37.0988 19.1474 42.9757 27.9313 42.6443C38.1162 42.2583 46.3212 33.7933 46.4051 23.6C46.4302 20.5462 45.7423 17.6518 44.5006 15.0804C44.5006 15.0804 44.4964 15.0804 44.488 15.0846C42.5081 15.6803 40.6582 16.6367 39.0264 17.9119C35.2805 20.8273 27.7048 27.0649 24.8439 31.8427C23.5352 27.9752 20.1751 26.4608 20.1751 26.4608" stroke="#FEC010" stroke-width="3" stroke-miterlimit="10" stroke-linecap="round" stroke-linejoin="round"/>
</svg>
