<svg width="103" height="99" viewBox="0 0 103 99" fill="none" xmlns="http://www.w3.org/2000/svg">
<path d="M19.6478 78.945L11.0596 77.5623L10.2322 86.2237" stroke="#FEC010" stroke-width="3" stroke-miterlimit="10" stroke-linecap="round" stroke-linejoin="round"/>
<path d="M89.8188 59.689L93.7201 67.4626L101.227 63.074" stroke="#FEC010" stroke-width="3" stroke-miterlimit="10" stroke-linecap="round" stroke-linejoin="round"/>
<path d="M93.72 67.4625C97.4548 58.2368 98.3793 47.5684 95.4349 36.53C91.1547 20.4695 78.4804 7.87725 62.404 3.67369C30.6027 -4.63634 2 19.1469 2 49.6123C2 51.4066 2.10169 53.1824 2.2912 54.9258C2.79041 59.4253 7.3711 62.4496 11.6005 60.8496C12.8254 60.3872 13.7545 59.5964 13.9671 58.2877C13.9763 58.2045 13.9856 58.1212 13.9948 58.0333C14.0318 57.631 14.0734 57.2426 14.1196 56.8588C14.5588 53.1315 15.192 50.1488 16.1257 48.7846C18.7604 44.8955 23.5815 44.4515 28.8647 42.8515C30.1127 42.4723 31.6381 41.3671 31.9108 38.4352C28.2361 36.3542 25.68 31.6743 25.68 26.2361C25.68 18.8602 30.3808 14.3005 36.1818 14.3005C36.3759 14.3005 36.5747 14.3052 36.7735 14.319C36.9722 14.3052 37.171 14.3005 37.3697 14.3005C43.1661 14.3005 47.867 18.8602 47.867 26.2361C47.867 31.6743 45.3108 36.3542 41.6361 38.4352C41.9134 41.3671 43.4342 42.4723 44.6822 42.8515C46.9194 43.5313 49.0734 43.9983 51.0147 44.6134C51.8791 44.8862 52.3413 45.7972 52.0779 46.6666C51.6757 47.9753 51.4585 49.4366 51.4585 51.0228C51.4585 56.4611 54.0146 61.1409 57.6893 63.2219C57.412 66.1584 55.8866 67.259 54.6386 67.6382C49.3553 69.2382 44.5389 69.6822 41.8996 73.5713C40.9705 74.9401 40.3326 77.9182 39.8935 81.6455C39.8519 82.0293 39.8103 82.4224 39.7687 82.8201C39.7595 82.9079 39.7548 82.9912 39.7456 83.0744" stroke="#FEC010" stroke-width="3" stroke-miterlimit="10" stroke-linecap="round" stroke-linejoin="round"/>
<path d="M11.0596 77.562C19.7079 89.4745 33.7458 97.2203 49.591 97.2203C61.387 97.2203 72.1801 92.9289 80.4956 85.8166C83.7496 83.0373 85.0485 78.5517 83.6341 74.5099C83.4908 74.103 83.3475 73.77 83.2042 73.5666C80.5649 69.6775 75.7485 69.2335 70.4652 67.6335C69.2172 67.2543 67.6918 66.1537 67.4145 63.2172C71.0892 61.1362 73.6453 56.4563 73.6453 51.0181C73.6453 43.6422 68.9491 39.0825 63.1481 39.0825C62.9494 39.0825 62.7506 39.0871 62.5565 39.101C62.3577 39.0871 62.1589 39.0825 61.9602 39.0825C60.6983 39.0825 59.4919 39.2999 58.3733 39.7114" stroke="#FEC010" stroke-width="3" stroke-miterlimit="10" stroke-linecap="round" stroke-linejoin="round"/>
</svg>
