<svg width="105" height="97" viewBox="0 0 105 97" fill="none" xmlns="http://www.w3.org/2000/svg">
<path d="M64.0927 63.7974C49.9601 77.8639 27.018 77.8639 12.8811 63.7974C-1.2558 49.7309 -1.25153 26.8962 12.8811 12.8254C27.0138 -1.24536 49.9558 -1.24111 64.0927 12.8254C73.6754 22.3633 76.7728 35.9493 73.3849 48.0895C66.293 39.9039 50.3617 33.5085 50.3617 33.5085C50.9171 35.001 51.2503 36.5999 51.2503 38.3093C51.2503 45.266 45.816 50.9513 39.1043 50.9513C32.3925 50.9513 26.9582 45.266 26.9582 38.3093C26.9582 31.3526 30.1368 25.7396 39.1043 25.6673C54.8006 25.6673 68.553 37.0336 68.553 37.0336C68.553 37.0336 59.3463 50.9513 39.1043 50.9513C18.5846 50.9513 10.4288 38.3093 10.4288 38.3093C10.4288 38.3093 14.7908 33.5042 23.6771 29.1669" stroke="#FEC010" stroke-width="3" stroke-miterlimit="10" stroke-linecap="round" stroke-linejoin="round"/>
<path d="M72.7057 72.4678L95.0667 94.7242L102.714 87.1127L79.2892 63.7974C75.128 59.6557 68.254 59.6557 64.0928 63.7974" stroke="#FEC010" stroke-width="3" stroke-miterlimit="10" stroke-linecap="round" stroke-linejoin="round"/>
</svg>
