<svg width="218" height="196" viewBox="0 0 218 196" fill="none" xmlns="http://www.w3.org/2000/svg">
<g clip-path="url(#clip0_19531_46031)">
<path d="M184.32 150.66L174.27 153C185.98 136.71 192.34 117.06 192.34 96.8205C192.34 43.7005 149.12 0.480469 96.0002 0.480469C42.8802 0.480469 -0.339844 43.7005 -0.339844 96.8205C-0.339844 119.4 7.63015 141.35 22.1002 158.63C22.1502 158.69 22.2202 158.76 22.2702 158.82C22.2902 158.84 22.3502 158.9 22.3802 158.93C22.4002 158.95 22.4302 158.96 22.4502 158.98C26.0602 162.52 30.1802 164.42 34.0702 164.42C35.4202 164.42 36.7402 164.19 38.0002 163.73C42.3802 162.12 45.3202 157.86 45.9702 152.27C45.9702 152.25 45.9802 152.23 45.9802 152.21L46.0402 151.62C47.4502 137.74 49.4302 133.07 50.4902 131.52C54.7302 125.26 61.9102 123.38 71.0102 120.99C73.4302 120.36 75.9202 119.7 78.4902 118.92C81.5602 117.99 86.8402 115.08 87.6902 106.07C87.8002 104.89 87.2101 103.76 86.1801 103.18C78.3101 98.7305 73.2202 88.6305 73.2202 77.4605C73.2202 62.9005 82.0201 52.7305 94.6201 52.7305C95.0201 52.7305 95.4101 52.7305 95.8102 52.7605C95.9401 52.7605 96.0602 52.7605 96.1902 52.7605C96.5902 52.7305 96.9802 52.7305 97.3802 52.7305C109.98 52.7305 118.78 62.9005 118.78 77.4605C118.78 88.6305 113.69 98.7305 105.82 103.18C104.79 103.76 104.2 104.89 104.31 106.07C105.16 115.08 110.43 117.99 113.51 118.92C116.08 119.7 118.58 120.35 120.99 120.99C130.08 123.38 137.26 125.27 141.51 131.53C143.07 133.82 145.86 141.5 147.06 167.21C147.18 169.76 145.93 172.17 143.79 173.51C129.49 182.45 112.96 187.17 96.0002 187.17C80.6301 187.17 65.6702 183.3 52.3602 175.94L64.1002 171.76C65.6602 171.2 66.4801 169.49 65.9202 167.93C65.3602 166.37 63.6402 165.55 62.0902 166.11L44.3702 172.42C44.3202 172.44 44.2702 172.47 44.2202 172.49C44.2102 172.49 44.1902 172.5 44.1802 172.51C44.0102 172.58 43.8502 172.67 43.7002 172.77C43.7002 172.77 43.6902 172.77 43.6802 172.78C43.5202 172.89 43.3702 173.01 43.2402 173.15C43.1002 173.29 42.9802 173.45 42.8702 173.62C42.8702 173.62 42.8702 173.63 42.8602 173.64C42.7802 173.77 42.7002 173.9 42.6302 174.04C42.6102 174.07 42.6102 174.11 42.6002 174.15C42.5902 174.18 42.5802 174.2 42.5702 174.23C42.5102 174.39 42.4602 174.55 42.4302 174.72C42.4302 174.76 42.4302 174.8 42.4202 174.84C42.4002 174.99 42.3802 175.15 42.3802 175.3C42.3802 175.35 42.3902 175.4 42.4002 175.45C42.4002 175.59 42.4202 175.73 42.4502 175.87C42.4802 176.01 42.5302 176.15 42.5802 176.29C42.6002 176.33 42.6002 176.38 42.6202 176.42L50.0502 193.71C50.5402 194.85 51.6502 195.53 52.8102 195.53C53.2102 195.53 53.6102 195.45 53.9902 195.29C55.5102 194.64 56.2202 192.87 55.5602 191.35L51.7102 182.39C65.3402 189.46 80.4702 193.18 96.0002 193.18C114.09 193.18 131.71 188.14 146.97 178.6C150.95 176.11 153.28 171.64 153.06 166.93C152.07 145.91 149.92 133.23 146.48 128.16C140.97 120.04 132.01 117.68 122.52 115.19C120.16 114.57 117.71 113.93 115.25 113.18C112.79 112.43 111.21 110.46 110.55 107.3C119.25 101.39 124.78 89.9305 124.78 77.4605C124.78 59.6505 113.26 46.7305 97.3802 46.7305C96.9202 46.7305 96.4602 46.7305 96.0002 46.7705C95.5402 46.7405 95.0801 46.7305 94.6201 46.7305C78.7402 46.7305 67.2202 59.6505 67.2202 77.4605C67.2202 89.9305 72.7402 101.39 81.4501 107.3C80.7901 110.46 79.2102 112.43 76.7502 113.18C74.2902 113.93 71.8502 114.57 69.4802 115.19C59.9902 117.68 51.0302 120.04 45.5302 128.16C43.0602 131.8 41.2702 139.28 40.0702 151.03V151.09C39.7702 154.68 38.2702 157.24 35.9202 158.1C33.2502 159.08 29.7602 157.79 26.5902 154.65C13.0902 138.47 5.65016 117.94 5.65016 96.8205C5.65016 47.0105 46.1802 6.48047 95.9902 6.48047C145.8 6.48047 186.33 47.0105 186.33 96.8205C186.33 116.29 180.03 135.16 168.51 150.66L166.53 138.8C166.26 137.17 164.7 136.06 163.08 136.33C161.45 136.6 160.34 138.15 160.61 139.78L163.7 158.34C163.7 158.34 163.72 158.39 163.72 158.42C163.74 158.53 163.77 158.64 163.81 158.74C163.85 158.85 163.89 158.97 163.94 159.07C163.96 159.1 163.97 159.14 163.99 159.17C164.22 159.63 164.56 160.04 165 160.34C165.5 160.67 166.08 160.84 166.67 160.84C166.9 160.84 167.13 160.81 167.35 160.76L185.67 156.49C187.28 156.11 188.29 154.5 187.91 152.89C187.53 151.28 185.92 150.28 184.31 150.65L184.32 150.66Z" fill="url(#paint0_linear_19531_46031)"/>
</g>
<defs>
<linearGradient id="paint0_linear_19531_46031" x1="19.7302" y1="37.9005" x2="175.97" y2="169" gradientUnits="userSpaceOnUse">
<stop stop-color="#FEC010"/>
<stop offset="0.7" stop-color="#F06516"/>
<stop offset="1" stop-color="#F03016"/>
</linearGradient>
<clipPath id="clip0_19531_46031">
<rect width="218" height="196" fill="white"/>
</clipPath>
</defs>
</svg>
