<svg width="300" height="300" viewBox="0 0 300 300" fill="none" xmlns="http://www.w3.org/2000/svg">
<path d="M141.885 132.462C140.434 132.417 139.256 133.551 139.21 134.958C139.21 135.003 139.21 135.094 139.21 135.139V148.024C133 143.033 123.888 144.031 118.902 150.247C116.862 152.833 115.729 156.009 115.729 159.32C115.593 167.305 121.939 173.884 129.917 174.02C137.896 174.156 144.469 167.804 144.605 159.82C144.605 159.638 144.605 159.502 144.605 159.32V135.139C144.605 134.413 144.333 133.733 143.834 133.234C143.29 132.734 142.61 132.462 141.885 132.462ZM138.485 162.814C137.579 164.992 135.856 166.716 133.68 167.668C131.413 168.621 128.875 168.621 126.608 167.668C124.432 166.761 122.755 164.992 121.848 162.859C120.897 160.636 120.897 158.096 121.848 155.827C122.755 153.649 124.478 151.925 126.608 151.018C128.875 150.065 131.413 150.065 133.68 151.018C135.856 151.971 137.579 153.695 138.485 155.872C139.437 158.05 139.437 160.591 138.485 162.814Z" fill="white"/>
<path d="M172.031 149.112C166.41 143.486 157.253 143.486 151.632 149.112C148.912 151.834 147.416 155.509 147.416 159.32C147.28 167.305 153.627 173.883 161.605 174.019C169.583 174.155 176.156 167.804 176.292 159.819C176.292 159.637 176.292 159.501 176.292 159.32C176.292 157.414 175.93 155.554 175.204 153.785C174.479 152.015 173.391 150.428 172.031 149.112ZM170.173 162.768C169.719 163.857 169.039 164.809 168.223 165.626C167.407 166.443 166.41 167.123 165.368 167.577C163.101 168.53 160.562 168.53 158.296 167.577C156.12 166.67 154.397 164.9 153.491 162.768C152.539 160.545 152.539 158.004 153.491 155.736C154.397 153.558 156.12 151.879 158.296 150.927C160.562 149.974 163.101 149.974 165.368 150.927C166.455 151.38 167.407 152.061 168.223 152.877C169.039 153.694 169.719 154.692 170.173 155.736C171.125 158.049 171.125 160.59 170.173 162.768Z" fill="white"/>
<path d="M231.736 147.523C231.736 147.16 231.645 146.797 231.509 146.48C231.373 146.162 231.146 145.89 230.92 145.618C230.693 145.391 230.376 145.164 230.058 145.028C229.741 144.892 229.378 144.801 229.016 144.801C228.517 144.801 228.018 144.937 227.565 145.21L212.152 155.236V135.183C212.152 134.457 211.88 133.777 211.382 133.278C210.883 132.779 210.203 132.461 209.478 132.461C207.982 132.461 206.803 133.641 206.758 135.138C206.758 135.138 206.758 135.138 206.758 135.183V171.024C206.758 171.75 207.03 172.431 207.528 172.93C208.027 173.474 208.707 173.746 209.432 173.746C210.158 173.746 210.838 173.474 211.336 172.93C211.835 172.431 212.152 171.75 212.107 171.024V161.724L215.235 159.682L227.157 173.066C227.656 173.52 228.29 173.792 228.97 173.746C229.333 173.746 229.696 173.701 230.013 173.52C230.33 173.383 230.602 173.202 230.874 172.93C231.101 172.658 231.328 172.385 231.464 172.068C231.6 171.75 231.69 171.387 231.69 171.024C231.69 170.344 231.418 169.663 230.965 169.164L219.904 156.688L230.693 149.656C231.418 149.202 231.781 148.385 231.736 147.523Z" fill="white"/>
<path d="M186.992 152.877C187.808 152.061 188.806 151.38 189.894 150.927C191.027 150.473 192.206 150.201 193.43 150.201C194.517 150.201 195.56 150.382 196.557 150.745C197.555 151.153 198.507 151.698 199.323 152.424C199.821 152.832 200.456 153.014 201.091 153.014C201.816 153.059 202.541 152.787 203.04 152.242C203.538 151.743 203.81 151.017 203.81 150.291C203.81 149.52 203.493 148.749 202.858 148.25C200.275 145.936 196.92 144.666 193.43 144.757C185.451 144.757 178.969 151.244 178.969 159.229C178.969 167.214 185.406 173.656 193.339 173.702C196.829 173.702 200.184 172.477 202.813 170.208C203.357 169.709 203.674 168.983 203.674 168.212C203.72 166.76 202.586 165.581 201.181 165.535C201.136 165.535 201.045 165.535 201 165.535C200.365 165.535 199.776 165.717 199.277 166.08C198.461 166.806 197.555 167.35 196.557 167.758C195.56 168.121 194.472 168.303 193.43 168.303C192.206 168.303 191.027 168.076 189.894 167.577C188.806 167.123 187.854 166.443 186.992 165.626C183.457 162.087 183.457 156.371 186.947 152.832C186.992 152.923 186.992 152.923 186.992 152.877Z" fill="white"/>
<path d="M285.269 146.662C284.725 146.163 284.136 145.8 283.456 145.573C282.685 145.301 281.869 145.119 281.053 145.029C280.237 144.938 279.421 144.893 278.605 144.893C276.973 144.893 275.296 145.165 273.755 145.755C272.214 146.299 270.808 147.116 269.539 148.114V147.569C269.494 146.072 268.224 144.938 266.728 144.983C265.323 145.029 264.19 146.163 264.145 147.569V171.116C264.19 172.613 265.459 173.747 266.955 173.702C268.36 173.656 269.494 172.522 269.539 171.116V159.365C269.539 158.14 269.766 156.961 270.264 155.826C270.718 154.738 271.352 153.785 272.214 152.968C273.03 152.152 274.027 151.471 275.069 151.017C276.203 150.564 277.381 150.291 278.605 150.291C279.829 150.291 281.008 150.518 282.141 150.927C282.504 151.108 282.866 151.199 283.274 151.199C283.637 151.199 284 151.153 284.317 150.972C284.634 150.836 284.906 150.654 285.178 150.382C285.405 150.155 285.632 149.838 285.768 149.52C285.904 149.203 285.994 148.84 285.994 148.477C286.04 147.796 285.768 147.161 285.269 146.662Z" fill="white"/>
<path d="M260.248 153.785C257.936 148.431 252.677 144.938 246.875 144.893C238.896 144.893 232.459 151.335 232.414 159.32C232.414 167.305 238.896 173.792 246.875 173.792C250.32 173.792 253.675 172.567 256.304 170.299C256.349 170.254 256.394 170.208 256.394 170.208C256.621 170.027 256.848 169.8 256.984 169.528C257.845 168.257 257.528 166.579 256.304 165.717C255.261 165.036 253.901 165.172 252.995 166.034C252.904 166.125 252.632 166.352 252.632 166.397L252.587 166.443C251.816 167.078 250.955 167.622 250.003 167.94C249.005 168.303 247.963 168.484 246.875 168.439C245.878 168.439 244.926 168.303 243.974 167.985C243.067 167.668 242.206 167.259 241.435 166.67C240.664 166.125 239.984 165.445 239.44 164.673C238.851 163.902 238.443 162.995 238.171 162.087H258.57C259.296 162.087 259.976 161.815 260.474 161.316C261.018 160.817 261.29 160.136 261.245 159.411C261.29 157.46 260.928 155.554 260.248 153.785ZM238.171 156.688C238.443 155.736 238.851 154.874 239.44 154.102C239.984 153.331 240.664 152.651 241.435 152.106C242.206 151.562 243.067 151.108 243.974 150.79C244.88 150.473 245.878 150.337 246.829 150.337C247.781 150.337 248.779 150.473 249.685 150.79C251.499 151.38 253.085 152.56 254.219 154.102C254.808 154.874 255.216 155.781 255.533 156.688H238.171Z" fill="white"/>
<path d="M276.07 169.844C275.027 169.844 274.211 170.706 274.211 171.749C274.211 172.793 275.072 173.609 276.115 173.609C277.157 173.609 277.973 172.747 277.973 171.749C277.973 170.66 277.112 169.844 276.07 169.844ZM276.07 173.201C275.254 173.246 274.574 172.611 274.528 171.795C274.483 170.978 275.118 170.297 275.934 170.252C276.75 170.207 277.429 170.842 277.475 171.658C277.475 171.704 277.475 171.704 277.475 171.749C277.52 172.521 276.885 173.201 276.115 173.201C276.115 173.201 276.115 173.201 276.07 173.201Z" fill="white"/>
<path d="M276.522 171.75C276.749 171.705 276.885 171.523 276.885 171.296C276.885 171.115 276.84 170.979 276.704 170.888C276.522 170.797 276.296 170.752 276.069 170.752C275.842 170.752 275.57 170.752 275.344 170.797V172.657H275.752V171.932H275.933C276.16 171.932 276.296 172.022 276.341 172.204C276.386 172.34 276.432 172.521 276.477 172.657H276.93C276.84 172.521 276.794 172.34 276.794 172.204C276.84 172.022 276.704 171.841 276.522 171.75ZM275.978 171.614H275.752V171.07C275.842 171.07 275.933 171.07 275.978 171.07C276.25 171.07 276.386 171.206 276.386 171.342C276.432 171.523 276.205 171.659 275.978 171.614Z" fill="white"/>
<path d="M110.789 138.54C110.517 138.313 108.069 136.453 102.81 136.453C101.451 136.453 100.045 136.589 98.6853 136.816C97.688 129.875 91.9309 126.518 91.7042 126.336L90.299 125.52L89.3923 126.835C88.259 128.605 87.3977 130.601 86.8991 132.642C85.9471 136.589 86.5364 140.31 88.531 143.485C86.1285 144.847 82.2299 145.164 81.414 145.21H17.0431C15.3659 145.21 14.0059 146.571 14.0059 148.249C13.9153 153.875 14.8672 159.501 16.8165 164.809C19.0377 170.616 22.3469 174.926 26.6081 177.557C31.4132 180.506 39.2556 182.185 48.0953 182.185C52.0844 182.185 56.0736 181.822 60.0175 181.096C65.5026 180.098 70.761 178.192 75.6115 175.425C79.6007 173.111 83.1819 170.162 86.2191 166.714C91.3416 160.952 94.3788 154.51 96.6 148.794C96.9174 148.794 97.1894 148.794 97.5067 148.794C103.082 148.794 106.528 146.571 108.432 144.665C109.701 143.485 110.653 142.034 111.333 140.4L111.741 139.221L110.789 138.54Z" fill="white"/>
<path d="M23.0284 143.351H31.6414C32.0494 143.351 32.4121 143.033 32.4121 142.58V134.867C32.4121 134.459 32.0948 134.096 31.6414 134.096H23.0284C22.6205 134.096 22.2578 134.413 22.2578 134.867V142.58C22.3031 143.033 22.6205 143.351 23.0284 143.351Z" fill="white"/>
<path d="M34.9034 143.351H43.5164C43.9244 143.351 44.2871 143.033 44.2871 142.58V134.867C44.2871 134.459 43.9698 134.096 43.5164 134.096H34.9034C34.4955 134.096 34.1328 134.413 34.1328 134.867V142.58C34.1781 143.033 34.4955 143.351 34.9034 143.351Z" fill="white"/>
<path d="M47.005 143.351H55.618C56.026 143.351 56.3886 143.033 56.3886 142.58V134.867C56.3886 134.459 56.0713 134.096 55.618 134.096H47.005C46.597 134.096 46.2344 134.413 46.2344 134.867V142.58C46.2344 143.033 46.5517 143.351 47.005 143.351Z" fill="white"/>
<path d="M58.9308 143.351H67.5438C67.9518 143.351 68.3144 143.033 68.3144 142.58V134.867C68.3144 134.459 67.9971 134.096 67.5438 134.096H58.9308C58.5228 134.096 58.1602 134.413 58.1602 134.867V142.58C58.1602 143.033 58.5228 143.351 58.9308 143.351Z" fill="white"/>
<path d="M34.9034 132.326H43.5164C43.9244 132.326 44.2871 131.963 44.2871 131.554V123.842C44.2871 123.433 43.9698 123.07 43.5164 123.07H34.9034C34.4955 123.07 34.1328 123.388 34.1328 123.842V131.554C34.1781 131.963 34.4955 132.326 34.9034 132.326Z" fill="white"/>
<path d="M47.005 132.326H55.618C56.026 132.326 56.3886 131.963 56.3886 131.554V123.842C56.3886 123.433 56.0713 123.07 55.618 123.07H47.005C46.597 123.07 46.2344 123.388 46.2344 123.842V131.554C46.2344 131.963 46.5517 132.326 47.005 132.326Z" fill="white"/>
<path d="M58.9308 132.326H67.5438C67.9518 132.326 68.3144 131.963 68.3144 131.554V123.842C68.3144 123.433 67.9518 123.07 67.5438 123.07H58.9308C58.5228 123.07 58.1602 123.388 58.1602 123.842V131.554C58.1602 131.963 58.5228 132.326 58.9308 132.326Z" fill="white"/>
<path d="M58.9308 121.255H67.5438C67.9518 121.255 68.3144 120.938 68.3144 120.484V112.771C68.3144 112.363 67.9518 112 67.5438 112H58.9308C58.5228 112 58.1602 112.318 58.1602 112.771V120.484C58.1602 120.892 58.5228 121.255 58.9308 121.255Z" fill="white"/>
<path d="M70.9425 143.351H79.5555C79.9635 143.351 80.3261 143.033 80.3261 142.58V134.867C80.3261 134.459 80.0088 134.096 79.5555 134.096H70.9425C70.5345 134.096 70.1719 134.413 70.1719 134.867V142.58C70.2172 143.033 70.5345 143.351 70.9425 143.351Z" fill="white"/>
</svg>
