<svg width="300" height="300" viewBox="0 0 300 300" fill="none" xmlns="http://www.w3.org/2000/svg">
<path d="M201.284 209.556H200.5V209.119H202.613V209.556H201.833V211.737H201.284V209.556ZM205.498 209.67H205.486L204.708 211.738H204.352L203.58 209.67H203.57V211.738H203.053V209.12H203.814L204.531 210.974L205.245 209.12H206.003V211.738H205.498L205.498 209.67Z" fill="white"/>
<path d="M131.026 156.019C131.026 156.019 125.566 159.18 134.912 160.25C146.234 161.536 152.02 161.352 164.497 159.001C164.497 159.001 167.778 161.049 172.359 162.822C144.389 174.758 109.056 162.131 131.026 156.019ZM127.608 140.443C127.608 140.443 121.484 144.957 130.837 145.92C142.931 147.163 152.483 147.264 169.011 144.095C169.011 144.095 171.297 146.403 174.892 147.665C141.073 157.511 103.406 148.441 127.608 140.443Z" fill="white"/>
<path d="M156.427 114.023C163.319 121.923 154.616 129.033 154.616 129.033C154.616 129.033 172.115 120.038 164.079 108.775C156.573 98.2701 150.817 93.0514 181.978 75.0566C181.979 75.0563 133.065 87.22 156.427 114.023Z" fill="white"/>
<path d="M193.42 167.54C193.42 167.54 197.461 170.856 188.971 173.42C172.826 178.29 121.774 179.76 107.592 173.614C102.494 171.406 112.054 168.341 115.061 167.698C118.198 167.021 119.99 167.147 119.99 167.147C114.32 163.17 83.3441 174.955 104.256 178.331C161.284 187.539 208.213 174.184 193.42 167.54ZM133.657 124.306C133.657 124.306 107.689 130.447 124.461 132.677C131.543 133.622 145.66 133.408 158.81 132.311C169.557 131.408 180.348 129.49 180.348 129.49C180.348 129.49 176.559 131.105 173.817 132.969C147.447 139.875 96.5044 136.662 111.17 129.598C123.573 123.629 133.657 124.306 133.657 124.306ZM180.241 150.232C207.048 136.363 194.654 123.034 186.002 124.83C183.882 125.269 182.937 125.65 182.937 125.65C182.937 125.65 183.724 124.422 185.227 123.891C202.341 117.9 215.504 141.56 179.702 150.932C179.702 150.932 180.118 150.563 180.241 150.232Z" fill="white"/>
<path d="M164.079 46C164.079 46 178.924 60.7865 149.998 83.5249C126.802 101.764 144.708 112.164 149.988 124.047C136.449 111.883 126.512 101.175 133.178 91.2095C142.962 76.5807 170.068 69.488 164.079 46Z" fill="white"/>
<path d="M136.286 187.815C162.017 189.455 201.53 186.905 202.466 174.783C202.466 174.783 200.667 179.378 181.2 183.028C159.239 187.143 132.152 186.663 116.086 184.026C116.087 184.025 119.375 186.736 136.286 187.815Z" fill="white"/>
<path d="M132.073 234.137C129.645 236.233 127.082 237.41 124.781 237.41C121.497 237.41 119.723 235.45 119.723 232.305C119.723 228.903 121.624 226.416 129.25 226.416H132.072L132.073 234.137ZM138.77 241.662V218.37C138.77 212.42 135.362 208.494 127.145 208.494C122.347 208.494 118.145 209.674 114.73 211.178L115.715 215.301C118.405 214.318 121.886 213.403 125.302 213.403C130.036 213.403 132.073 215.301 132.073 219.224V222.168H129.71C118.209 222.168 113.021 226.614 113.021 233.286C113.021 239.044 116.439 242.317 122.877 242.317C127.015 242.317 130.104 240.616 132.991 238.127L133.516 241.662L138.77 241.662ZM161.123 241.662H152.77L142.716 209.084H150.012L156.25 229.099L157.636 235.119C160.792 226.416 163.025 217.586 164.141 209.084H171.238C169.336 219.811 165.915 231.586 161.123 241.662ZM193.17 234.137C190.738 236.233 188.17 237.41 185.869 237.41C182.591 237.41 180.812 235.45 180.812 232.305C180.812 228.903 182.717 226.416 190.343 226.416H193.17V234.137ZM199.867 241.662V218.37C199.867 212.42 196.45 208.494 188.242 208.494C183.441 208.494 179.238 209.674 175.824 211.178L176.808 215.301C179.498 214.318 182.986 213.403 186.4 213.403C191.13 213.403 193.17 215.301 193.17 219.224V222.168H190.803C179.298 222.168 174.112 226.614 174.112 233.286C174.112 239.044 177.528 242.317 183.965 242.317C188.105 242.317 191.193 240.616 194.085 238.127L194.611 241.662L199.867 241.662ZM105.676 247.194C103.767 249.969 100.683 252.165 97.3069 253.408L94 249.533C96.5698 248.22 98.7738 246.1 99.7978 244.125C100.684 242.368 101.05 240.104 101.05 234.69V197.498H108.166V234.181C108.166 241.418 107.585 244.342 105.676 247.194Z" fill="white"/>
</svg>
