<svg width="300" height="300" viewBox="0 0 300 300" fill="none" xmlns="http://www.w3.org/2000/svg">
<g clip-path="url(#clip0_12600_40241)">
<path d="M116.311 147.635C116.311 139.288 113.916 134.999 109.121 134.764C107.216 134.673 105.352 134.976 103.54 135.676C102.098 136.192 101.122 136.696 100.609 137.212V157.14C103.673 159.049 106.397 159.938 108.769 159.8C113.789 159.468 116.305 155.42 116.305 147.635H116.311ZM122.221 147.979C122.221 152.221 121.222 155.741 119.208 158.539C116.963 161.709 113.853 163.337 109.877 163.429C106.876 163.526 103.788 162.592 100.614 160.637V178.747L95.4727 176.924V136.725C96.3152 135.699 97.4001 134.816 98.7159 134.065C101.774 132.293 105.497 131.382 109.871 131.336L109.946 131.41C113.945 131.359 117.027 132.993 119.191 136.301C121.211 139.333 122.221 143.226 122.221 147.979V147.979Z" fill="white"/>
<path d="M153.643 159.863C153.643 165.55 153.072 169.489 151.923 171.685C150.769 173.875 148.576 175.623 145.339 176.924C142.713 177.951 139.874 178.512 136.821 178.604L135.972 175.388C139.071 174.97 141.253 174.551 142.522 174.133C145.015 173.295 146.724 172.011 147.664 170.286C148.42 168.881 148.79 166.204 148.79 162.242V160.912C145.275 162.5 141.588 163.286 137.738 163.286C135.205 163.286 132.972 162.5 131.05 160.912C128.892 159.187 127.812 156.997 127.812 154.342V133.09L132.954 131.342V152.737C132.954 155.025 133.699 156.785 135.182 158.017C136.665 159.25 138.592 159.846 140.947 159.8C143.301 159.749 145.829 158.843 148.513 157.071V132.11H153.654V159.863H153.643Z" fill="white"/>
<path d="M173.716 163.154C173.104 163.205 172.539 163.228 172.025 163.228C169.117 163.228 166.849 162.54 165.233 161.159C163.617 159.777 162.809 157.874 162.809 155.443V135.32H159.289V132.11H162.809V123.579L167.945 121.762V132.11H173.722V135.32H167.945V155.299C167.945 157.214 168.465 158.573 169.498 159.37C170.386 160.023 171.8 160.396 173.722 160.493V163.154H173.716Z" fill="white"/>
<path d="M204.842 162.73H199.7V143.02C199.7 141.014 199.227 139.288 198.286 137.843C197.201 136.209 195.695 135.395 193.756 135.395C191.402 135.395 188.453 136.628 184.915 139.099V162.73H179.773V115.611L184.915 114V135.464C188.199 133.091 191.788 131.898 195.689 131.898C198.413 131.898 200.618 132.81 202.303 134.627C203.994 136.444 204.842 138.709 204.842 141.409V162.73V162.73Z" fill="white"/>
<path d="M232.169 146.826C232.169 143.622 231.557 140.973 230.334 138.875C228.885 136.324 226.629 134.976 223.576 134.833C217.938 135.16 215.128 139.167 215.128 146.861C215.128 150.387 215.71 153.333 216.894 155.695C218.4 158.705 220.662 160.196 223.68 160.144C229.341 160.098 232.169 155.661 232.169 146.826V146.826ZM237.801 146.861C237.801 151.424 236.624 155.225 234.281 158.258C231.702 161.657 228.135 163.36 223.582 163.36C219.029 163.36 215.555 161.657 213.016 158.258C210.713 155.225 209.57 151.424 209.57 146.861C209.57 142.567 210.811 138.961 213.298 136.02C215.924 132.901 219.381 131.336 223.645 131.336C227.91 131.336 231.39 132.901 234.068 136.02C236.555 138.961 237.796 142.567 237.796 146.861H237.801Z" fill="white"/>
<path d="M267.271 162.73H262.129V141.902C262.129 139.614 261.437 137.831 260.052 136.547C258.667 135.269 256.826 134.65 254.523 134.695C252.082 134.741 249.756 135.532 247.552 137.069V162.73H242.41V136.438C245.371 134.3 248.089 132.901 250.576 132.247C252.919 131.64 254.991 131.336 256.774 131.336C257.997 131.336 259.14 131.451 260.219 131.686C262.239 132.15 263.883 133.01 265.147 134.271C266.561 135.67 267.259 137.344 267.259 139.305V162.724L267.271 162.73Z" fill="white"/>
<path d="M44.6954 115.8C42.0523 115.811 39.5247 116.035 37.3029 116.425C30.753 117.571 29.5642 119.979 29.5642 124.416V130.276H45.0359V132.23H23.7587C19.2632 132.23 15.3218 134.913 14.0926 140.022C12.6729 145.875 12.6095 149.532 14.0926 155.644C15.1948 160.196 17.8205 163.435 22.316 163.435H27.6368V156.412C27.6368 151.338 32.0572 146.861 37.3029 146.861H52.7573C57.0565 146.861 60.496 143.341 60.496 139.053V124.416C60.496 120.249 56.9584 117.124 52.7573 116.425C50.0969 115.983 47.3384 115.783 44.6954 115.8V115.8ZM36.3276 120.512C37.9262 120.512 39.2304 121.831 39.2304 123.448C39.2304 125.064 37.9262 126.366 36.3276 126.366C34.7291 126.366 33.4249 125.059 33.4249 123.448C33.4249 121.837 34.7234 120.512 36.3276 120.512V120.512Z" fill="white"/>
<path d="M62.4217 132.225V139.053C62.4217 144.344 57.9031 148.799 52.7555 148.799H37.3012C33.0654 148.799 29.5625 152.399 29.5625 156.607V171.243C29.5625 175.411 33.2097 177.859 37.3012 179.051C42.2007 180.485 46.8981 180.743 52.7555 179.051C56.6509 177.933 60.4943 175.675 60.4943 171.243V165.384H45.0399V163.429H68.233C72.7285 163.429 74.4078 160.31 75.9717 155.638C77.5875 150.822 77.5183 146.19 75.9717 140.016C74.8579 135.567 72.74 132.225 68.233 132.225H62.4275H62.4217ZM53.7308 169.294C55.3351 169.294 56.6336 170.601 56.6336 172.212C56.6336 173.823 55.3351 175.147 53.7308 175.147C52.1265 175.147 50.8281 173.829 50.8281 172.212C50.8281 170.595 52.1323 169.294 53.7308 169.294Z" fill="white"/>
<path d="M277.284 127.559H278.184V121.94H280.319V121.27H275.148V121.94H277.284V127.559ZM281.121 127.559H281.889V122.428L283.562 127.559H284.422L286.165 122.445V127.559H287.008V121.27H285.894L283.989 126.653L282.368 121.27H281.127V127.553" fill="white"/>
<path opacity="0.2" d="M65.9498 189.01C65.9498 191.217 56.6645 193.005 45.2151 193.005C33.7658 193.005 24.4805 191.217 24.4805 189.01C24.4805 186.802 33.7658 185.014 45.2151 185.014C56.6645 185.014 65.9498 186.802 65.9498 189.01Z" fill="white"/>
</g>
<defs>
<clipPath id="clip0_12600_40241">
<rect width="274" height="79" fill="white" transform="translate(13 114)"/>
</clipPath>
</defs>
</svg>
