<svg width="101" height="100" viewBox="0 0 101 100" fill="none" xmlns="http://www.w3.org/2000/svg">
<g clip-path="url(#clip0_0_2685)">
<mask id="mask0_0_2685" style="mask-type:alpha" maskUnits="userSpaceOnUse" x="0" y="0" width="101" height="100">
<circle cx="50.5" cy="50" r="50" fill="#D9D9D9"/>
</mask>
<g mask="url(#mask0_0_2685)">
<g filter="url(#filter0_f_0_2685)">
<ellipse cx="39.6698" cy="127.118" rx="286.27" ry="286.27" transform="rotate(-30 39.6698 127.118)" fill="#AC8EFF"/>
</g>
<g filter="url(#filter1_f_0_2685)">
<ellipse cx="189.894" cy="45.2959" rx="128.81" ry="128.514" transform="rotate(-30 189.894 45.2959)" fill="#39C4FF"/>
</g>
</g>
<g clip-path="url(#clip1_0_2685)">
<path d="M48.9057 75.659C47.1604 74.6415 43.2453 72.1887 39.4447 68.5566C36.8167 66.0364 34.6806 63.4084 33.1038 60.686C31.1226 57.3032 29.9906 53.7857 29.721 50.248C28.9596 39.8369 30.1725 35.6725 30.2264 35.5041L30.442 34.7898L48.9596 28.0377L50.4892 27.4717L52.0189 28.0377L70.5364 34.7898L70.752 35.5041C70.7992 35.6725 72.0323 39.8572 71.2709 50.2547C71.0013 53.7857 69.8693 57.3032 67.8881 60.6927C66.3046 63.4084 64.155 66.0634 61.5472 68.5634C57.7534 72.1954 53.8383 74.6483 52.0863 75.6658L50.5027 76.5351L48.9191 75.6658H48.9057V75.659Z" stroke="black" stroke-width="1.4" stroke-linecap="round" stroke-linejoin="round"/>
<path d="M31.9178 47.2022C32.1739 46.9663 32.4501 46.7372 32.7466 46.5081" stroke="black" stroke-width="1.4" stroke-linecap="round" stroke-linejoin="round"/>
<path d="M34.5526 45.3154C38.434 43.0984 44.1415 41.69 50.496 41.69C57.1739 41.69 62.3558 43.5096 68.7574 46.8788" stroke="black" stroke-width="1.4" stroke-linecap="round" stroke-linejoin="round" stroke-dasharray="2.8 2.8"/>
<path d="M34.5526 59.2439C34.8558 59.4191 35.1725 59.5876 35.5027 59.7561" stroke="black" stroke-width="1.4" stroke-linecap="round" stroke-linejoin="round"/>
<path d="M37.6186 60.6792C41.19 62.0472 45.6577 62.8625 50.5027 62.8625C55.3477 62.8625 62.1064 61.124 65.725 59.6819" stroke="black" stroke-width="1.4" stroke-linecap="round" stroke-linejoin="round" stroke-dasharray="2.8 2.8"/>
<path d="M46.2911 53.6375L49.128 56.0701L54.7008 48.779" stroke="black" stroke-width="1.4" stroke-linecap="round" stroke-linejoin="round"/>
</g>
</g>
<defs>
<filter id="filter0_f_0_2685" x="-429.573" y="-342.125" width="938.486" height="938.486" filterUnits="userSpaceOnUse" color-interpolation-filters="sRGB">
<feFlood flood-opacity="0" result="BackgroundImageFix"/>
<feBlend mode="normal" in="SourceGraphic" in2="BackgroundImageFix" result="shape"/>
<feGaussianBlur stdDeviation="91.4625" result="effect1_foregroundBlur_0_2685"/>
</filter>
<filter id="filter1_f_0_2685" x="-32.3669" y="-176.817" width="444.521" height="444.225" filterUnits="userSpaceOnUse" color-interpolation-filters="sRGB">
<feFlood flood-opacity="0" result="BackgroundImageFix"/>
<feBlend mode="normal" in="SourceGraphic" in2="BackgroundImageFix" result="shape"/>
<feGaussianBlur stdDeviation="46.7516" result="effect1_foregroundBlur_0_2685"/>
</filter>
<clipPath id="clip0_0_2685">
<rect width="100" height="100" fill="white" transform="translate(0.5)"/>
</clipPath>
<clipPath id="clip1_0_2685">
<rect width="42.9919" height="50" fill="white" transform="translate(29 27)"/>
</clipPath>
</defs>
</svg>
