<svg width="245" height="204" viewBox="0 0 245 204" fill="none" xmlns="http://www.w3.org/2000/svg">
<g clip-path="url(#clip0_43201_19957)">
<path d="M58.4258 110.066C59.8124 109.853 61.0924 109.426 62.2658 108.786C65.1458 107.186 66.8524 104.413 66.9591 100.893V100.573H71.0124C70.7991 98.5464 69.9458 96.6264 68.8791 95.0264L64.7191 97.7997C65.9991 99.8264 66.1058 101.96 65.1458 104.093C64.0791 106.76 61.4124 109 58.4258 110.066Z" fill="white"/>
<path d="M71.119 101.32H67.599C67.3857 104.84 65.5724 107.72 62.5857 109.32C60.879 110.28 58.959 110.707 56.9324 110.707C55.439 110.707 53.839 110.387 52.3457 109.854C54.159 110.92 56.1857 111.56 58.2124 111.56C61.9457 111.56 65.359 109.534 67.279 106.227L67.4924 105.907L69.839 107.4C70.6924 105.8 71.119 103.987 71.119 102.067C71.119 101.96 71.119 101.64 71.119 101.32Z" fill="white"/>
<path d="M58.3192 112.307C54.5859 112.307 50.9592 110.387 48.5059 107.294C50.4259 111.347 54.4792 114.12 59.2792 114.12C63.6525 114.12 67.4925 111.774 69.6259 108.147L67.8125 106.974C65.5725 110.28 62.1592 112.307 58.3192 112.307Z" fill="white"/>
<path d="M59.1733 114.76C52.24 114.76 46.6933 109.213 46.6933 102.28C46.6933 95.3467 52.24 89.8 59.1733 89.8C66.1067 89.8 71.6533 95.3467 71.6533 102.28C71.76 109.107 66.1067 114.76 59.1733 114.76ZM59.1733 85C49.68 85 42 92.68 42 102.173C42 111.667 49.68 119.347 59.1733 119.347C68.6667 119.347 76.4533 111.667 76.4533 102.173C76.4533 92.68 68.6667 85 59.1733 85Z" fill="white"/>
<path d="M196.56 108.574V105.587H189.946V102.6H195.813V99.9335H189.946V97.2668H196.24V94.2802H186.64V108.467H196.56V108.574ZM178.64 99.5068C178.533 99.7202 178.32 99.9335 178 100.04C177.786 100.147 177.466 100.254 177.253 100.254C176.933 100.254 176.613 100.36 176.4 100.36H174.8V97.0535H176.613C176.826 97.0535 177.146 97.0535 177.36 97.1602C177.573 97.2668 177.893 97.2668 178.106 97.3735C178.32 97.4802 178.533 97.6935 178.64 97.9068C178.746 98.1202 178.853 98.4402 178.853 98.6535C178.96 98.9735 178.853 99.2935 178.64 99.5068ZM183.12 108.574L179.386 102.494C180.346 102.174 180.986 101.747 181.52 101.107C182.053 100.467 182.266 99.6135 182.266 98.6535C182.266 97.8002 182.16 97.1602 181.84 96.6268C181.52 96.0935 181.093 95.6668 180.56 95.3468C180.026 95.0268 179.493 94.8135 178.853 94.6002C178.213 94.4935 177.573 94.3868 176.826 94.3868H171.386V108.467H174.8V102.814H175.973L179.066 108.467H183.12V108.574ZM163.706 103.134C163.493 103.667 163.173 104.094 162.853 104.52C162.533 104.947 162.106 105.267 161.573 105.374C161.04 105.587 160.506 105.694 159.973 105.694C159.333 105.694 158.8 105.587 158.373 105.374C157.84 105.16 157.413 104.84 157.093 104.52C156.773 104.094 156.453 103.667 156.24 103.134C156.026 102.6 155.92 101.96 155.92 101.32C155.92 100.68 156.026 100.147 156.24 99.6135C156.453 99.0802 156.773 98.6535 157.093 98.2268C157.413 97.8002 157.84 97.4802 158.373 97.3735C158.906 97.2668 159.44 97.0535 159.973 97.0535C160.506 97.0535 161.146 97.1602 161.68 97.3735C162.213 97.5868 162.64 97.9068 162.96 98.2268C163.28 98.6535 163.6 99.0802 163.813 99.6135C164.026 100.147 164.133 100.68 164.133 101.32C164.026 101.96 163.92 102.6 163.706 103.134ZM167.12 98.2268C166.693 97.3735 166.16 96.5202 165.52 95.8802C164.773 95.2402 164.026 94.7068 163.066 94.3868C162.106 94.0668 161.04 93.8535 159.973 93.8535C158.906 93.8535 157.84 94.0668 156.88 94.3868C155.92 94.7068 155.066 95.2402 154.426 95.8802C153.68 96.5202 153.253 97.2668 152.826 98.2268C152.4 99.0802 152.186 100.147 152.186 101.32C152.186 102.387 152.4 103.454 152.826 104.414C153.253 105.374 153.786 106.12 154.426 106.76C155.173 107.4 155.92 107.934 156.88 108.254C157.84 108.574 158.906 108.787 159.973 108.787C161.04 108.787 162.106 108.574 163.066 108.254C164.026 107.934 164.88 107.4 165.52 106.76C166.266 106.12 166.693 105.267 167.12 104.414C167.546 103.454 167.76 102.494 167.76 101.32C167.76 100.147 167.44 99.1868 167.12 98.2268ZM150.16 106.547L147.813 104.307C147.493 104.734 147.066 105.054 146.64 105.374C146.106 105.694 145.573 105.8 144.826 105.8C144.186 105.8 143.653 105.694 143.226 105.48C142.693 105.267 142.266 104.947 141.946 104.627C141.413 104.2 141.2 103.667 140.986 103.134C140.773 102.6 140.666 102.067 140.666 101.32C140.666 100.68 140.773 100.147 140.986 99.6135C141.2 99.0802 141.52 98.6535 141.84 98.2268C142.16 97.8002 142.586 97.4802 143.12 97.3735C143.653 97.1602 144.186 97.0535 144.826 97.0535C145.36 97.0535 145.893 97.1602 146.426 97.3735C146.96 97.5868 147.386 97.9068 147.706 98.3335L150.053 95.9868C149.413 95.2402 148.666 94.8135 147.706 94.3868C146.746 94.0668 145.786 93.8535 144.72 93.8535C143.653 93.8535 142.586 94.0668 141.733 94.3868C140.773 94.7068 139.92 95.2402 139.28 95.8802C138.533 96.5202 138 97.2668 137.68 98.2268C137.36 99.1868 136.933 100.147 136.933 101.32C136.933 102.387 137.146 103.454 137.573 104.414C138 105.374 138.533 106.12 139.173 106.76C139.92 107.4 140.666 107.934 141.626 108.254C142.586 108.574 143.546 108.787 144.72 108.787C145.893 108.787 146.96 108.574 147.92 108.147C148.666 107.827 149.52 107.294 150.16 106.547ZM133.733 108.574V105.587H127.12V102.6H132.986V99.9335H127.12V97.2668H133.413V94.2802H123.813V108.467H133.733V108.574ZM119.973 97.1602V94.2802H108.56V97.2668H112.613V108.467H116.026V97.1602H119.973ZM104.826 94.2802H101.306V108.467H104.826V94.2802ZM97.1464 95.6668C96.5064 95.0268 95.7597 94.7068 95.013 94.3868C94.1597 94.0668 93.3064 93.9602 92.5597 93.9602C91.9197 93.9602 91.2797 94.0668 90.533 94.1735C89.893 94.3868 89.253 94.6002 88.7197 94.9202C88.1864 95.2402 87.7597 95.7735 87.4397 96.3068C87.1197 96.8402 86.9064 97.5868 86.9064 98.3335C86.9064 98.9735 87.0131 99.5068 87.2264 99.9335C87.4397 100.36 87.7597 100.787 88.0797 101.107C88.3997 101.427 88.8264 101.747 89.253 101.854C89.6797 102.067 90.1064 102.28 90.6397 102.387C91.0664 102.494 91.493 102.707 91.9197 102.814C92.3464 102.92 92.5597 103.134 92.8797 103.24C93.093 103.347 93.3064 103.56 93.5197 103.774C93.6264 103.987 93.733 104.2 93.733 104.52C93.733 104.84 93.6264 105.054 93.5197 105.267C93.413 105.48 93.3064 105.587 93.093 105.8C92.8797 105.907 92.6664 106.014 92.453 106.12C92.2397 106.227 91.9197 106.227 91.7064 106.227C91.173 106.227 90.533 106.12 89.9997 105.8C89.4664 105.48 88.933 105.16 88.613 104.734L86.373 106.974C87.013 107.614 87.7597 108.147 88.7197 108.467C89.6797 108.787 90.6397 109 91.7064 109C92.453 109 93.093 108.894 93.733 108.68C94.373 108.467 95.013 108.147 95.4397 107.827C95.973 107.4 96.293 106.974 96.613 106.334C96.933 105.694 97.0397 105.054 97.0397 104.2C97.0397 103.454 96.933 102.92 96.613 102.387C96.293 101.854 95.973 101.534 95.5464 101.214C95.1197 100.894 94.693 100.574 94.1597 100.467C93.6264 100.254 93.093 100.04 92.6664 99.9335C92.3464 99.8268 92.0264 99.7202 91.813 99.6135C91.493 99.5068 91.2797 99.4002 91.0664 99.2935C90.853 99.1868 90.7464 98.9735 90.6397 98.8668C90.533 98.6535 90.533 98.5468 90.533 98.2268C90.533 97.9068 90.6397 97.6935 90.7464 97.4802C90.853 97.2668 91.0664 97.1602 91.2797 97.0535C91.493 96.9468 91.7064 96.8402 91.9197 96.8402C92.133 96.8402 92.3464 96.7335 92.6664 96.7335C93.093 96.7335 93.5197 96.8402 94.053 97.0535C94.5864 97.2668 94.9064 97.5868 95.2264 97.9068L97.1464 95.6668Z" fill="white"/>
<path d="M200.292 95.6667V95.1334H200.506C200.612 95.1334 200.612 95.1334 200.719 95.1334C200.826 95.1334 200.826 95.2401 200.826 95.3467C200.826 95.4534 200.826 95.5601 200.719 95.5601C200.612 95.5601 200.612 95.5601 200.506 95.5601L200.292 95.6667ZM199.972 96.5201H200.292V95.8801H200.506L200.932 96.5201H201.252L200.826 95.7734C200.932 95.7734 201.039 95.6667 201.146 95.6667C201.252 95.5601 201.252 95.4534 201.252 95.3467C201.252 95.2401 201.252 95.1334 201.252 95.1334C201.252 95.0267 201.146 95.0267 201.146 95.0267C201.146 95.0267 201.039 94.9201 200.932 94.9201C200.826 94.9201 200.826 94.9201 200.719 94.9201H200.186L199.972 96.5201ZM199.439 95.2401C199.546 95.1334 199.546 94.9201 199.652 94.8134C199.759 94.7067 199.866 94.6001 200.079 94.6001C200.186 94.4934 200.399 94.4934 200.506 94.4934C200.719 94.4934 200.826 94.4934 200.932 94.6001C201.039 94.7067 201.252 94.7067 201.359 94.8134C201.466 94.9201 201.572 95.0267 201.572 95.2401C201.679 95.3467 201.679 95.5601 201.679 95.6667C201.679 95.8801 201.679 95.9867 201.572 96.0934C201.466 96.2001 201.466 96.4134 201.359 96.5201C201.252 96.6267 201.146 96.7334 200.932 96.7334C200.826 96.8401 200.612 96.8401 200.506 96.8401C200.292 96.8401 200.186 96.8401 200.079 96.7334C199.972 96.6267 199.759 96.6267 199.652 96.5201C199.546 96.4134 199.439 96.3067 199.439 96.0934C199.332 95.9867 199.332 95.7734 199.332 95.6667C199.332 95.5601 199.439 95.4534 199.439 95.2401ZM199.226 96.3067C199.332 96.5201 199.439 96.6267 199.546 96.7334C199.652 96.8401 199.866 96.9467 199.972 97.0534C200.186 97.1601 200.292 97.1601 200.506 97.1601C200.719 97.1601 200.932 97.1601 201.039 97.0534C201.252 96.9467 201.359 96.8401 201.466 96.7334C201.572 96.6267 201.679 96.4134 201.786 96.3067C201.892 96.0934 201.892 95.9867 201.892 95.7734C201.892 95.5601 201.892 95.3467 201.786 95.2401C201.679 95.0267 201.572 94.9201 201.466 94.8134C201.359 94.7067 201.146 94.6001 201.039 94.4934C200.826 94.3867 200.719 94.3867 200.506 94.3867C200.292 94.3867 200.079 94.3867 199.972 94.4934C199.759 94.6001 199.652 94.7067 199.546 94.8134C199.439 94.9201 199.332 95.1334 199.226 95.2401C199.119 95.4534 199.119 95.5601 199.119 95.7734C199.119 95.9867 199.226 96.0934 199.226 96.3067Z" fill="white"/>
</g>
<defs>
<clipPath id="clip0_43201_19957">
<rect width="160" height="34.4533" fill="white" transform="translate(42 85)"/>
</clipPath>
</defs>
</svg>
