<svg xmlns="http://www.w3.org/2000/svg" class="svg-hidden-sprite">
  <defs>
    <g id="icon-fb">
        <path id="facebook-path-1" fill-rule="evenodd" d="M11.333,12.506 C11.333,12.506 11.863,8.418 11.863,8.418 C11.863,8.418 7.793,8.418 7.793,8.418 C7.793,8.418 7.793,5.808 7.793,5.808 C7.793,4.624 8.123,3.818 9.830,3.818 C9.830,3.818 12.007,3.817 12.007,3.817 C12.007,3.817 12.007,0.161 12.007,0.161 C11.630,0.110 10.338,-0.001 8.835,-0.001 C5.697,-0.001 3.548,1.905 3.548,5.403 C3.548,5.403 3.548,8.418 3.548,8.418 C3.548,8.418 -0.002,8.418 -0.002,8.418 C-0.002,8.418 -0.002,12.506 -0.002,12.506 C-0.002,12.506 3.548,12.506 3.548,12.506 C3.548,12.506 3.548,22.996 3.548,22.996 C3.548,22.996 7.793,22.996 7.793,22.996 C7.793,22.996 7.793,12.506 7.793,12.506 C7.793,12.506 11.333,12.506 11.333,12.506 Z"/>
    </g>
    <g id="icon-tw">
        <path id="twitter-path-1" fill-rule="evenodd" d="M21.006,2.077 C20.233,2.428 19.402,2.665 18.529,2.772 C19.420,2.225 20.104,1.360 20.426,0.329 C19.592,0.835 18.669,1.203 17.687,1.401 C16.900,0.543 15.780,0.006 14.539,0.006 C12.157,0.006 10.227,1.983 10.227,4.421 C10.227,4.767 10.265,5.104 10.338,5.427 C6.754,5.243 3.577,3.485 1.450,0.814 C1.078,1.466 0.866,2.225 0.866,3.034 C0.866,4.565 1.627,5.916 2.784,6.708 C2.077,6.686 1.412,6.487 0.831,6.156 C0.831,6.175 0.830,6.193 0.830,6.212 C0.830,8.351 2.317,10.135 4.290,10.541 C3.928,10.641 3.547,10.695 3.154,10.695 C2.876,10.695 2.606,10.668 2.342,10.616 C2.891,12.370 4.484,13.647 6.371,13.682 C4.895,14.866 3.035,15.572 1.015,15.572 C0.667,15.572 0.324,15.551 -0.014,15.510 C1.895,16.763 4.162,17.493 6.597,17.493 C14.529,17.493 18.867,10.767 18.867,4.933 C18.867,4.741 18.863,4.552 18.854,4.362 C19.697,3.739 20.428,2.962 21.006,2.077 Z" />
    </g>
    <g id="icon-li">
        <path id="linkedin-path-1" fill-rule="evenodd" d="M16.648,20.993 C16.648,20.993 16.648,14.178 16.648,14.178 C16.648,12.551 16.616,10.461 14.388,10.461 C12.125,10.461 11.779,12.232 11.779,14.060 C11.779,14.060 11.779,20.993 11.779,20.993 C11.779,20.993 7.432,20.993 7.432,20.993 C7.432,20.993 7.432,6.978 7.432,6.978 C7.432,6.978 11.604,6.978 11.604,6.978 C11.604,6.978 11.604,8.893 11.604,8.893 C11.604,8.893 11.663,8.893 11.663,8.893 C12.244,7.791 13.663,6.629 15.779,6.629 C20.179,6.629 20.992,9.531 20.992,13.305 C20.992,13.305 20.992,20.993 20.992,20.993 C20.992,20.993 16.648,20.993 16.648,20.993 ZM2.529,5.062 C1.135,5.062 0.008,3.930 0.008,2.536 C0.008,1.143 1.135,0.011 2.529,0.011 C3.919,0.011 5.049,1.143 5.049,2.536 C5.049,3.930 3.919,5.062 2.529,5.062 ZM4.704,20.993 C4.704,20.993 0.353,20.993 0.353,20.993 C0.353,20.993 0.353,6.978 0.353,6.978 C0.353,6.978 4.704,6.978 4.704,6.978 C4.704,6.978 4.704,20.993 4.704,20.993 Z"/>
    </g>
    <g id="icon-vk">
          <path fill-rule="evenodd" d="m 12.257 0.076 c 1.18 -0.135 2.2 -0.061 3.256 0 0.111 0.025 0.319 0.037 0.492 0.061 1.032 0.184 1.364 0.455 1.536 1.487 0.061 0.356 0.049 0.737 0.049 1.094 -0.025 1.438 -0.061 2.875 -0.074 4.313 0 0.319 0.086 0.664 0.221 0.946 0.221 0.479 0.664 0.565 1.069 0.209 0.307 -0.283 0.614 -0.578 0.872 -0.909 1.327 -1.696 2.298 -3.6 3.097 -5.591 0.307 -0.774 0.442 -0.872 1.278 -0.872 1.511 0 3.023 -0.025 4.522 0.025 0.455 0.012 0.897 0.061 1.352 0.393 0.135 0.27 0 0.492 0 0.737 -0.627 1.585 -1.61 2.949 -2.63 4.289 -0.676 0.885 -1.339 1.782 -1.966 2.703 -0.356 0.528 -0.406 1.106 0.098 1.622 0.332 0.344 0.651 0.688 0.983 1.008 1.339 1.253 2.654 2.519 3.527 4.178 0.086 0.295 0.074 0.541 0 0.737 -0.184 0.381 -0.504 0.578 -0.946 0.627 -1.757 0 -3.613 0.16 -5.259 0 -0.516 -0.037 -1.548 -0.946 -2.519 -1.929 -0.578 -0.578 -1.106 -1.217 -1.733 -1.733 -0.59 -0.504 -1.229 -0.344 -1.511 0.369 -0.233 0.59 -0.344 1.18 -0.418 1.856 -0.086 0.836 -0.233 1.352 -0.762 1.438 -0.737 0.037 -2.04 0.012 -3.035 -0.012 -0.098 -0.012 -0.147 -0.012 -0.209 -0.025 -2.519 -0.356 -4.571 -1.585 -6.304 -3.416 -1.745 -1.843 -3.109 -3.981 -4.313 -6.206 -1.02 -1.88 -1.929 -3.809 -2.875 -5.714 -0.074 -0.221 -0.074 -0.393 0 -0.528 0.307 -0.283 0.676 -0.381 1.02 -0.393 1.327 -0.049 2.667 -0.012 3.994 -0.025 0.676 0 1.106 0.319 1.364 0.922 0.344 0.786 0.639 1.585 1.069 2.31 0.786 1.327 1.622 2.605 2.507 3.858 0.197 0.283 0.664 0.528 0.995 0.516 0.442 -0.012 0.553 -0.504 0.639 -0.909 0.32 -1.524 0.246 -3.06 0.074 -4.596 -0.086 -0.823 -0.59 -1.352 -1.401 -1.561 -0.111 -0.025 -0.221 -0.049 -0.344 -0.086 0.135 -0.516 0.528 -0.737 0.934 -0.872 0.442 -0.135 0.897 -0.258 1.352 -0.319 z"/>
    </g>
    <g id="icon-em">
        <circle cx="15" cy="15" r="15"/>
        <path fill="#FFFFFF" d="m 6,9 v 13 h 18 v -13 h -18 z m 16.4,1.3 -7.3,5.9 -7.3,-5.9 h 14.6 z m 0.2,10.3 h -15.3 v -8.9 l 7.9,6.4 7.5,-6.4 v 8.9 z"/>
    </g>
    <g id="icon-pr">
        <circle id="circle-1" cx="15" cy="15" r="15"/>
        <path id="print-path-1" fill-rule="evenodd" fill="#FFFFFF" d="m 24,15 h -2.8 v -5.4 l -3.5,-4.1 h -8.9 l 0,0 v 9.5 h -2.7 l 0,7.5 0,0 0,0 h 18 l -0.1,-7.5 0,0 z m -6.5,-8 2.3,2.6 h -2.3 v -2.6 z m -7.3,-0.1 h 6.2 v 4 h 3.5 v 4.1 h -9.7 v -8.1 z m 12.4,14.2 h -15.2 v -4.7 h 15.2 v 4.7 z"/>
    </g>
    <g id="icon-search">
		<path d="M13.7,2.3c-3.1-3.1-8.2-3.1-11.3,0s-3.1,8.2,0,11.3c2.7,2.7,6.9,3.1,10,1.1l4.5,4.5c0.6,0.6,1.7,0.6,2.4,0
				s0.6-1.7,0-2.4l-4.5-4.5C16.7,9.3,16.4,5.1,13.7,2.3z M11.9,11.9c-2.1,2.1-5.6,2.1-7.7,0C2,9.7,2,6.3,4.1,4.1C6.3,2,9.7,2,11.9,4.1
				C14,6.3,14,9.7,11.9,11.9z"/>
    </g>
    <g id="icon-glob">
    	<path id="path-1_27_" d="M657,285.6c-6.3-102.8-88.8-184-190.4-191.7l0,0H440l0,0c-102.8,6.3-184,88.8-191.7,191.7
    		l0,0v26.7l0,0c6.3,102.8,88.8,184,191.7,190.4l0,0h26.7l0,0c102.8-6.3,184-88.8,190.4-190.4l0,0V285.6L657,285.6z M375.3,139.6
    		c-12.7,17.8-24.1,39.3-31.7,64.7h-40.6C319.4,176.4,344.8,153.6,375.3,139.6L375.3,139.6z M287.7,231h48.2
    		c-3.8,17.8-6.3,35.5-6.3,54.6H275C276.3,266.5,281.3,248.8,287.7,231L287.7,231z M275,313.5h54.6c1.3,19,2.5,38.1,6.3,54.6h-48.2
    		C281.3,351.6,276.3,332.5,275,313.5L275,313.5z M301.6,396h40.6c7.6,25.4,19,47,31.7,64.7C344.8,445.5,319.4,422.7,301.6,396
    		L301.6,396z M438.7,476c-27.9-7.6-52-38.1-67.3-80h67.3V476z M438.7,368.1h-74.9c-3.8-16.5-6.3-35.5-7.6-54.6h82.5V368.1z
    		 M438.7,285.6h-82.5c1.3-19,3.8-38.1,7.6-54.6h74.9V285.6z M438.7,204.3h-67.3c15.2-43.2,39.3-72.3,67.3-80V204.3z M601.2,204.3
    		h-40.6c-7.6-25.4-19-47-31.7-64.7C558,153.6,583.4,176.4,601.2,204.3L601.2,204.3z M465.4,123.1c27.9,7.6,52,38.1,67.3,80h-67.3
    		V123.1z M465.4,231h74.9c3.8,16.5,6.3,35.5,7.6,54.6h-82.5V231z M465.4,313.5h82.5c-1.3,19-3.8,38.1-7.6,54.6h-74.9V313.5z
    		 M465.4,476v-80h67.3C517.4,437.9,493.3,468.4,465.4,476L465.4,476z M528.8,460.7c12.7-17.8,24.1-39.3,31.7-64.7h40.6
    		C583.4,422.7,558,445.5,528.8,460.7L528.8,460.7z M616.4,368.1h-48.2c3.8-17.8,6.3-35.5,6.3-54.6h54.6
    		C627.8,332.5,622.8,351.6,616.4,368.1L616.4,368.1z M574.5,285.6c-1.3-19-2.5-38.1-6.3-54.6h48.2c7.6,16.5,11.4,35.5,12.7,54.6
    		H574.5z"/>
    </g>
    <g id="icon-book-meeting">
		<path d="M8.5,125.1V26.4h13.2v0c0,5.8,4.7,9.8,10.6,9.8c5.8,0,10.6-4,10.6-9.8v0h50.1v0
			c0,5.8,4.7,9.8,10.6,9.8c5.8,0,10.6-4,10.6-9.8v0h14.2v98.6H8.5z M117.8,43.8H19v70.8h98.8V43.8z M50.5,75.8H29.8v-21h20.7V75.8z
			 M50.5,103.9H29.8V83h20.7V103.9z M78.7,75.8H58.1v-21h20.6V75.8z M78.7,103.8H58.1V83h20.6V103.8z M106.8,75.8H86.1v-21h20.7V75.8z
			 M106.8,103.9H86.1V83h20.7V103.9z M103.5,31.4c-3.2,0-5.7-2.6-5.7-5.7V10.8c0-3.2,2.6-5.7,5.7-5.7c3.2,0,5.7,2.6,5.7,5.7v14.9
			C109.2,28.8,106.7,31.4,103.5,31.4z M32.3,31.4c-3.2,0-5.7-2.6-5.7-5.7V10.8c0-3.2,2.6-5.7,5.7-5.7c3.2,0,5.7,2.6,5.7,5.7v14.9
			C38,28.8,35.4,31.4,32.3,31.4z"/>
    </g>
    <g id="icon-contact-us">
          <polygon points="422.6,286.1 369.8,286.1 396.2,309.5 "/>
          <polygon points="422.9,322.7 422.9,289.1 405,304.9 "/>
          <polygon points="369.6,289.1 369.6,322.7 387.4,304.9 "/>
          <polygon points="396.2,313.1 388.8,306.5 370.1,325.3 422.1,325.3 403.3,306.5 "/>
    </g>
    <g id="training-portal-link">
      <path d="M2.419 8.98v5.625h1.65V9.86l-1.65-.88zm12.154
       7.275l-.37.197-.368-.197-7.683-4.09v4.751c0 1.307 3.605 4.722 8.052 4.722 4.447 0 8.052-3.415
        8.052-4.722v-4.752l-7.683 4.091zM14.203 0L0 7.563l2.42 1.291 11.8-2.228v1.295L4.2
         9.813l10.005 5.315 14.203-7.565L14.203 0z"/>
    </g>
    <g id="icon-headquarters">
        <path id="path-1_14_" fill="#39C2D7" d="M31.8,6.2c-7,0-12.5,5.7-12.5,12.7c0,6.7,11.4,22.4,11.9,23l0.5,0.6l0.2,0.2
		c0.2,0,0.2,0,0.2-0.2l0.5-0.6c0.5-0.6,11.9-16.3,11.9-23C44.5,11.9,38.8,6.2,31.8,6.2z M31.8,23.4c-2.5,0-4.4-2.1-4.4-4.6
		s2.1-4.6,4.4-4.6c2.5,0,4.4,2.1,4.4,4.6C36.4,21.3,34.4,23.4,31.8,23.4z"/>
    </g>
      <g id="icon-social">
          <g>
              <path fill="#38C2D6" d="M54.2,24.9c0-6-5.9-10.9-13.1-10.9c-0.1,0-0.2,0-0.3,0c-3.5-3.3-8.6-5.4-14.3-5.4
			C16,8.7,7.4,15.8,7.4,24.5c0,3.5,1.4,6.9,3.9,9.6L8,44l10.4-5.1c2.5,1,5.4,1.5,8.2,1.5c5.3,0,10.1-1.8,13.5-4.6
			c0.4,0,0.7,0.1,1.1,0.1c1.9,0,3.7-0.3,5.4-1l7.6,3.8l-2.4-7.3C53.3,29.5,54.2,27.3,54.2,24.9z M36.3,34.5
			c-2.7,1.7-6.1,2.8-9.8,2.8c-2.6,0-5.1-0.5-7.4-1.5l-0.5-0.2l-5.5,2.7l1.7-5.1l-0.6-0.5c-2.3-2.2-3.5-5.1-3.5-8
			c0-7,7.1-12.6,15.8-12.6c4.1,0,7.7,1.2,10.5,3.3c0.8,0.6,1.6,1.3,2.3,2c1.9,2.1,3,4.6,3,7.3c0,3-1.3,5.8-3.6,8
			C38,33.3,37.2,33.9,36.3,34.5z M49.6,33.5l-3-1.5l-0.6,0.2c-1.1,0.4-2.2,0.7-3.4,0.8c1.9-2.5,3-5.4,3-8.5c0-2.8-0.9-5.4-2.4-7.7
			c4.7,0.8,8.3,4.1,8.3,8.1c0,1.9-0.8,3.7-2.3,5.2l-0.6,0.6L49.6,33.5z"/>
              <circle fill="#38C2D6" cx="18.7" cy="25.2" r="2"/>
              <circle fill="#38C2D6" cx="26.5" cy="25.2" r="2"/>
              <circle fill="#38C2D6" cx="34.4" cy="25.2" r="2"/>
          </g>
      </g>
      <g id="icon-events">
          <path id="path-1_3_" fill="#2BC0D6" d="M16.6,39.7V13h3.6v0c0,1.6,1.3,2.7,2.9,2.7c1.6,0,2.9-1.1,2.9-2.7v0h13.6v0
		c0,1.6,1.3,2.7,2.9,2.7c1.6,0,2.9-1.1,2.9-2.7v0h3.8v26.8H16.6z M46.2,17.7H19.4v19.2h26.8V17.7z M28,26.4h-5.6v-5.7H28V26.4z
		 M28,34h-5.6v-5.7H28V34z M35.6,26.4H30v-5.7h5.6V26.4z M35.6,34H30v-5.6h5.6V34z M43.3,26.4h-5.6v-5.7h5.6V26.4z M43.3,34h-5.6
		v-5.7h5.6V34z M42.4,14.3c-0.9,0-1.6-0.7-1.6-1.6v-4c0-0.9,0.7-1.6,1.6-1.6c0.9,0,1.6,0.7,1.6,1.6v4C43.9,13.6,43.2,14.3,42.4,14.3
		z M23,14.3c-0.9,0-1.6-0.7-1.6-1.6v-4c0-0.9,0.7-1.6,1.6-1.6c0.9,0,1.6,0.7,1.6,1.6v4C24.6,13.6,23.9,14.3,23,14.3z"/>
      </g>
      <g id="icon-global-menu">
      	<g>
      		<path class="st0" d="M22.6,22c-0.9,0-1.6,0.7-1.6,1.6c0,0.9,0.7,1.6,1.6,1.6c0.9,0,1.6-0.7,1.6-1.6C24.3,22.7,23.5,22,22.6,22z
      			 M30,22c-0.9,0-1.6,0.7-1.6,1.6c0,0.9,0.7,1.6,1.6,1.6c0.9,0,1.6-0.7,1.6-1.6C31.6,22.7,30.9,22,30,22z M37.4,25.3
      			c0.9,0,1.6-0.7,1.6-1.6c0-0.9-0.7-1.6-1.6-1.6c-0.9,0-1.6,0.7-1.6,1.6C35.7,24.5,36.5,25.3,37.4,25.3z M22.6,29.4
      			c-0.9,0-1.6,0.7-1.6,1.6s0.7,1.6,1.6,1.6c0.9,0,1.6-0.7,1.6-1.6S23.5,29.4,22.6,29.4z M30,29.4c-0.9,0-1.6,0.7-1.6,1.6
      			s0.7,1.6,1.6,1.6c0.9,0,1.6-0.7,1.6-1.6S30.9,29.4,30,29.4z M37.4,29.4c-0.9,0-1.6,0.7-1.6,1.6s0.7,1.6,1.6,1.6
      			c0.9,0,1.6-0.7,1.6-1.6S38.3,29.4,37.4,29.4z M22.6,36.7c-0.9,0-1.6,0.7-1.6,1.6c0,0.9,0.7,1.6,1.6,1.6c0.9,0,1.6-0.7,1.6-1.6
      			C24.3,37.5,23.5,36.7,22.6,36.7z M30,36.7c-0.9,0-1.6,0.7-1.6,1.6c0,0.9,0.7,1.6,1.6,1.6c0.9,0,1.6-0.7,1.6-1.6
      			C31.6,37.5,30.9,36.7,30,36.7z M37.4,36.7c-0.9,0-1.6,0.7-1.6,1.6c0,0.9,0.7,1.6,1.6,1.6c0.9,0,1.6-0.7,1.6-1.6
      			C39,37.5,38.3,36.7,37.4,36.7z"/>
      	</g>
      </g>
      <g id="icon-geolocation">
          <g>
              <path d="M3.134 7.765c0-3.342 3.73-6.64 7.071-6.64 3.342 0 6.929 3.298 6.929 6.64 0 3.342-3.587 7.11-6.929 7.11s-7.071-3.768-7.071-7.11zM10.205 0A8.205 8.205 0 0 0 2 8.205c0 4.532 6.773 11.538 8.205 11.538 1.41 0 8.205-7.006 8.205-11.538A8.205 8.205 0 0 0 10.205 0"/>
          </g>
      </g>
      <g id="icon-experience">
          <g>
              <path d="M12.632 14c.322.254.562.094 1.052 0-.144 0-.04 0 0 0 .185 0 .386.057 1.053 0-.26.313-.091.54 0 1 .035.017-.015.295 0 1-.329-.242-.566-.085-1.053 0-.015.033-.314-.015-1.052 0 .26-.305.09-.532 0-1-.036-.01.016-.293 0-1m1.052-5c-.145 0-.04 0 0 0 .185 0 .386.057 1.053 0-.261.313-.092.54 0 1 .036.042-.012.306 0 1-.315-.243-.55-.086-1.053 0-.013.033-.306-.014-1.052 0 .256-.311.091-.535 0-1-.104-.307.252-.84 1.052-1m0-6c.59 0 1.053.439 1.053 1 0 .561-.462 1-1.053 1-.59 0-1.052-.439-1.052-1 0-.561.462-1 1.052-1m4.21 6c-.041-.178-.041-.024 0 0 .002.241.06.401 0 0 .761.75 1.053 1.23 1.053 2 0 .257-.268.71-1.052 1l-3.158-2c.268-.124.267-.406 0-1 .166.18.102.018 0 0l3.158-2c.038.229.297.622 0 1 .297.233.222.458 0 1m-1.053-5c-.284-.014-.113.092 0 0 .629.172 1.053.661 1.053 1 0 .455-.07.66 0 1l-3.158 2c-.269-.097-.426-.164-1.053 0V5c1.077.451 1.95-.404 2.105-1-.154-1.021-.436-1.571-1.052-2 .285.022.416 0 1.052 0 .162 0 .7.525 1.053 1-.353.262-.353.342 0 0-.43.568-.388.685 0 1m1.053 11c-.178.275-.254.275 0 0-.518.2-.714.268-1.053 0 .042.702.06.916 0 1 .361.31.449.566 0 1 .449.478-.049 1-1.053 1 .055 0-.246-.154 0 0l-1.052-1c.372-.395.444-.478 0-1 .767-.006.858-.533 1.052-1-.404-.489-.677-.905-1.052-1-.342-.425-.68-.529-1.053-1l1.053-1c-.169-.593.102-.768 0-1l3.158 2c.162-.021.207-.004 0 0 .762.208 1.052.64 1.052 1-.028.75-.54 1.275-1.052 1M20 11c0-1.027-.32-1.696-1.053-2 .3-.41.357-.684 0-1 .357-.643.01-1.28-1.052-2 .64.044.713-.263 1.052-1-.34-.448-.881-1.216-2.105-2 .357-.743-.665-1.692-2.105-2-.035.308-.268.345 0 0-.897-.438-1.787-1-3.158-1-.188 0-.724.191-1.053 1-.271-.322-.33-.192 0 0-.33.079-.271.208 0 0 .052.511.392.511 1.053 0-.194.103.073.004 0 0 1.016.004 1.56.412 2.105 1-1.432-.021-2.304.808-2.105 2-.199.326.073.862 0 1l1.053 3c-.367-.026-.748.236-1.053 1-.278.043-.377.549 0 1-.151.467.14.868 1.053 1-.318.265-.146.336 0 0l-1.053 3c.196-.203.065-.063 0 0-.313.503-.412 1.01 0 1-.186.927.106 1.328 1.053 2-.18-.18.201-.074 1.052 0-.356-.074-.23-.074 0 0 .016-.139.02-.14 0 0 .168 1.315-.582 1.964-1.052 2-1.335-.036-2.071-.676-2.106-2V2c-.182-.659-.89-2-2.105-2C7.066 0 6.16.574 5.263 1c.268.345.035.308 0 0-1.439.308-2.459 1.255-2.105 2-1.212.749-1.766 1.534-2.105 2 .34.724.418 1.051 1.052 1-1.061.751-1.409 1.386-1.052 2-.357.316-.3.589 0 1C.319 9.304 0 9.973 0 11c0 .284.264.888 1.053 1C.27 12.743 0 13.318 0 14c0 .93.768 1.802 2.105 2-.33.192-.365.364 0 1-.365.726.663 1.692 2.106 2 .19-.308.566-.402 1.052-1 .293 1.376 1.297 2 2.105 2 .92 0 1.527-.193 2.106-1 .078.362.153.237 0 0 .196-.044.161-.184 0 0-.002-.389-.136-.46 0 0-.434-.5-.583-.467-1.053 0 .05-.157-.315-.036-1.053 0-.561-.036-1.297-.676-1.052-2-.306.345-.358.229 0 0-.513.083-.59.012-1.053 0 .126-.035-.13.015 0 0-.503.505-.829.656-1.052 1-.8-.344-1.333-.845-1.053-1-.28-.72-.187-.967 0-1 .132-.293.162-.539 0-1-.076.015-.358-.036-1.053 0 .397.04.316.04 0 0-.434.04-.967-.46-1.052-1 .085-.53.395-.945 1.052-1 0-.152.146-.344 0-1 .146.197.017.002 0 0-.649-.299-.967-.785-1.052-1 .085-.76.281-1.146 1.052-1-.111-.446 1.104-.453 2.106 0 .086 1.111-.114 1.953-1.053 3-.254.012-.254.298 0 1 .076-.392.199-.343 0 0 .475-.343.636-.396 1.053-1 1.451-1.133.898-2.56 0-3-.303-1.252-1.585-1.415-2.106-1-.196-.587-.272-.766 0-1-.272-.426.043-.85 0-1 .647-.038.77-.166 1.053 0-.163-.504-.213-.71 0-1-.526-.004-.629-.27-1.053-1 .424-.114.844-.581 1.053-1 .505.338.625.226 1.053 0-.232.042-.201-.125 0 0-.29-.374-.29-.45 0-1-.29-.155.244-.656 1.052-1 .073.344.31.422 0 1 .848-.127 1.627.713 1.053 2 .124.459-.653.88-2.105 1-.163-.18-.393.009 0 0-.452.551-.252.768 0 1 2.612-.177 3.31-1.453 3.157-2 .678-1.462-.197-2.497-1.052-3 .604-.465 1.152-.898 2.105-1 .78.102 1.041 1.251 1.053 1v5c-1.656-.212-2.686.45-3.158 1-1.22 1.444-.25 3.31 0 3-.116.504.051.597 0 1 .27-.403.378-.403 0 0 .597-.52.695-.63 1.052-1-.28.118-.302-.01 0 0-.443-.26-.999-1.52 0-2 .223-.978 1.017-1.106 2.106-1v5c-1.692-.261-2.72.4-3.158 1-1.254 1.393-.284 3.26 0 3-.151.455.016.548 0 1 .236-.452.343-.452 0-1 .562.43.66.321 1.052 0-.316.068-.337-.06 0 0-.478-.31-1.036-1.568 0-2 .189-1.028.982-1.155 2.106-1v4c-.023.201.297.816 1.052 1 .295.718.974.967 2.106 1 .685-.033 1.708-.67 2.105-2 .38.566.757.66 1.052 1 1.338-.34 2.367-1.306 2.106-2 .26-.681.24-.847 0-1 1.226-.21 2-1.092 2.105-2-.012-.616-.242-1.18-1.053-2 .785-.104 1.053-.712 1.053-1"/>
          </g>
      </g>
      <g id="icon-project">
          <g>
              <path d="M1 0v20h23.491l4.763-15.14h-4.763V0H1zm1.2 1.2H23.29v3.66h-2.503l-1.252 3.175H4.757L2.2 16.179V1.2zm3.438 8.035h14.715l.3-.76.952-2.415h6.014l-3.128 9.942-.88 2.798H2.634l3.004-9.565z"/>
          </g>
      </g>
      <g id="icon-relocation">
          <g>
              <path fill-rule="nonzero" d="M19.863 15.564l-1.69 1.69-5.526-7.536-5.115 4.476 1.096 4.567-1.005 1.004-2.831-4.201L.59 12.732l1.005-1.005 4.567 1.096 4.475-5.115-7.535-5.526 1.69-1.69 8.86 4.202 3.014-3.014s1.507-1.507 2.512-.502c1.004 1.004-.503 2.512-.503 2.512L15.844 6.52l4.019 9.043z"/>
          </g>
      </g>
  </defs>
</svg>
