<?xml version="1.0" encoding="UTF-8"?><svg id="Layer_1" xmlns="http://www.w3.org/2000/svg" xmlns:xlink="http://www.w3.org/1999/xlink" viewBox="0 0 245 204"><defs><style>.cls-1{mask:url(#mask);}.cls-2{fill:#00bfb3;}.cls-2,.cls-3,.cls-4,.cls-5{fill-rule:evenodd;stroke-width:0px;}.cls-3{fill:#343741;}.cls-4{fill:#fff;}.cls-5{fill:#fec514;}.cls-6{mask:url(#mask-1);}</style><mask id="mask" x="79.7" y="47.63" width="91.19" height="30.58" maskUnits="userSpaceOnUse"><g id="mask-2"><polygon id="path-1" class="cls-4" points="79.7 47.63 170.89 47.63 170.89 78.21 79.7 78.21 79.7 47.63"/></g></mask><mask id="mask-1" x="79.7" y="125.79" width="91.19" height="30.58" maskUnits="userSpaceOnUse"><g id="mask-4"><polygon id="path-3" class="cls-4" points="79.7 125.79 170.89 125.79 170.89 156.37 79.7 156.37 79.7 125.79"/></g></mask></defs><path id="Fill-1" class="cls-3" d="m74.11,102c0,4.7.66,9.24,1.78,13.59h66.18c7.51,0,13.59-6.09,13.59-13.59s-6.09-13.59-13.59-13.59h-66.18c-1.12,4.35-1.78,8.89-1.78,13.59"/><g class="cls-1"><path id="Fill-3" class="cls-5" d="m165.6,73.66c1.9-1.75,3.67-3.63,5.29-5.64-9.97-12.42-25.25-20.39-42.41-20.39-21.48,0-39.97,12.49-48.78,30.58h74.31c4.3,0,8.44-1.63,11.6-4.55"/></g><g class="cls-6"><path id="Fill-6" class="cls-2" d="m154,125.79h-74.31c8.82,18.08,27.3,30.58,48.78,30.58,17.16,0,32.44-7.97,42.41-20.39-1.62-2.02-3.39-3.9-5.29-5.65-3.16-2.92-7.3-4.55-11.6-4.55"/></g></svg>