<?xml version="1.0" encoding="UTF-8"?><svg id="Layer_1" xmlns="http://www.w3.org/2000/svg" viewBox="0 0 245 204"><defs><style>.cls-1{fill:#fff;stroke-width:0px;}</style></defs><path class="cls-1" d="m111.73,50.75c-.81-.83-1.95-1.34-3.2-1.34-1.2,0-2.35.48-3.18,1.34h-.02c-.81.83-1.32,1.98-1.32,3.25,0,1.21.46,2.38,1.32,3.24l.02.02c.84.86,1.98,1.34,3.18,1.33,1.26,0,2.39-.5,3.2-1.33v-.02c.82-.82,1.31-1.96,1.31-3.24,0-1.21-.46-2.38-1.31-3.25h0,.02Zm-3.2,62.94c1.26,0,2.39-.52,3.2-1.34v-.02c.82-.82,1.31-1.97,1.31-3.23s-.5-2.43-1.3-3.26h0c-.81-.84-1.95-1.35-3.2-1.35-1.2,0-2.35.48-3.18,1.35h-.02c-.85.87-1.32,2.04-1.32,3.26,0,1.21.47,2.37,1.32,3.23l.02.02c.84.86,1.98,1.34,3.18,1.34h0Zm24.62-13.93c1.17-.31,2.16-1.08,2.75-2.14l.08-.16c.53-1.03.66-2.21.36-3.33-.3-1.15-1.01-2.16-2.11-2.8l-.06-.04c-1.02-.58-2.23-.72-3.36-.41-1.12.29-2.13,1.05-2.75,2.14-.6,1.06-.76,2.31-.46,3.49.31,1.17,1.07,2.17,2.11,2.8h0c1.08.63,2.3.74,3.43.43h0Zm-19.98-22.91c-1.19-1.2-2.82-1.96-4.63-1.96-1.74,0-3.41.71-4.63,1.96-1.18,1.2-1.91,2.86-1.91,4.7,0,1.76.68,3.46,1.91,4.72,1.18,1.2,2.82,1.95,4.61,1.95s3.45-.75,4.63-1.95c1.23-1.27,1.92-2.96,1.91-4.73,0-1.76-.68-3.45-1.91-4.7h.01Zm-2.59-7.84c2.59.44,4.97,1.69,6.79,3.57h.01c.29.3.57.61.83.93l4.51-2.68c-.59-1.83-.64-3.79-.15-5.64.64-2.45,2.2-4.64,4.54-6.01l.08-.05c2.21-1.29,4.85-1.63,7.32-.96,2.51.69,4.63,2.35,5.91,4.61h0c1.34,2.37,1.61,5.08.98,7.52-.64,2.45-2.2,4.65-4.54,6.02l-.62.37h-.06c-2.16,1.05-4.54,1.21-6.72.63-1.83-.5-3.47-1.53-4.72-2.95l-4.51,2.65c.54,1.43.81,2.95.8,4.48,0,1.58-.29,3.1-.8,4.5l4.5,2.64c1.29-1.47,2.93-2.45,4.72-2.95,2.41-.67,5.07-.38,7.4,1l.15.07h0c2.18,1.35,3.75,3.48,4.39,5.96.67,2.53.32,5.23-.98,7.51l-.08.17h0c-1.29,2.18-3.38,3.78-5.82,4.47-2.41.65-5.07.37-7.4-.99v-.02c-2.25-1.32-3.88-3.49-4.54-6.02-.5-1.85-.45-3.81.15-5.64l-4.51-2.65c-.26.32-.54.63-.83.92h-.01c-1.8,1.86-4.18,3.14-6.79,3.57v5.3c1.85.4,3.54,1.33,4.87,2.69h0c1.76,1.8,2.85,4.29,2.85,7.02,0,2.61-1.02,5.12-2.85,6.99v.03c-1.78,1.79-4.21,2.9-6.9,2.9s-5.11-1.11-6.88-2.9h0v-.03c-1.83-1.86-2.86-4.37-2.86-6.99,0-2.73,1.1-5.22,2.86-7h0s0-.01,0-.01c1.32-1.36,3.01-2.3,4.86-2.69v-5.3c-2.63-.43-4.99-1.71-6.77-3.55h-.02c-2.35-2.41-3.66-5.63-3.66-8.99,0-3.5,1.41-6.67,3.66-8.97h.02c1.82-1.88,4.2-3.13,6.79-3.57v-5.28c-1.85-.41-3.53-1.35-4.86-2.7h0c-1.84-1.88-2.86-4.4-2.86-7.02,0-2.62,1.02-5.13,2.86-7h0c1.77-1.81,4.21-2.92,6.88-2.92s5.12,1.11,6.89,2.91h0s0,0,0,0c1.76,1.79,2.85,4.28,2.85,7,0,2.62-1.02,5.13-2.85,7h0c-1.31,1.35-2.99,2.3-4.87,2.71v5.32Zm25.34-3.52l-.04-.06c-.6-1.02-1.57-1.77-2.71-2.08-1.16-.32-2.4-.15-3.44.46h0c-1.08.63-1.81,1.65-2.11,2.8-.31,1.18-.15,2.43.46,3.49l.02.03c.62,1.08,1.62,1.81,2.73,2.1,1.11.32,2.36.18,3.43-.45l.06-.03c1.05-.64,1.76-1.65,2.05-2.76.3-1.15.18-2.4-.44-3.49m-68.26,62.47h5.44v16.9l7.85-8.83h6.52l-9.47,10.23,9.51,12.97h-6.23l-8.18-11.58v11.58h-5.44v-31.27m26.13,19.77c0,2.88,2.03,7.06,6.93,7.06,3.03,0,5.04-1.61,6.06-3.71.54-1.01.79-2.12.87-3.25.04-1.1-.17-2.25-.63-3.26-.95-2.19-3.07-4.09-6.35-4.09-4.4,0-6.89,3.63-6.89,7.22v.04h0Zm19.27,11.5h-5.44v-3.34c-1.45,2.7-4.47,4.05-7.68,4.05-7.31,0-11.58-5.79-11.58-12.34,0-7.31,5.19-12.29,11.58-12.29,4.15,0,6.69,2.24,7.68,4.1v-3.39h5.44v23.2m6.16-18.93h-2.83v-4.27h2.82v-1.31c0-6.89,5.15-7.31,9.06-7.35v4.26c-1.37,0-3.61,0-3.61,3.26v1.15h3.61v4.27h-3.61v18.92h-5.44v-18.93m12.77-12.34h5.44v16.9l7.85-8.83h6.52l-9.47,10.23,9.51,12.97h-6.22l-8.18-11.58v11.58h-5.44v-31.27m26.13,19.77c0,2.88,2.02,7.06,6.93,7.06,3.03,0,5.02-1.61,6.06-3.71.54-1.01.79-2.12.88-3.25.04-1.1-.17-2.25-.63-3.26-.95-2.19-3.07-4.09-6.35-4.09-4.4,0-6.89,3.63-6.89,7.22,0,0,0,.04,0,.04Zm19.26,11.5h-5.44v-3.34c-1.45,2.7-4.47,4.05-7.68,4.05-7.31,0-11.58-5.79-11.58-12.34,0-7.31,5.19-12.29,11.58-12.29,4.15,0,6.69,2.24,7.68,4.1v-3.39h5.44v23.2"/></svg>