<?xml version="1.0" encoding="UTF-8"?><svg id="Layer_1" xmlns="http://www.w3.org/2000/svg" viewBox="0 0 245 204"><defs><style>.cls-1{stroke-width:0px;}</style></defs><path class="cls-1" d="m125.17,78.3v19.71h4.33v-6.35l2.48-2.51,5.94,8.86h5.44l-8.45-11.93,7.7-7.79h-5.41l-7.7,8.17v-8.17h-4.33Z"/><path class="cls-1" d="m144.54,88.13c.06-.92.29-1.68.69-2.29.4-.61.92-1.1,1.55-1.46.63-.37,1.33-.63,2.1-.77.79-.17,1.58-.25,2.37-.25.72,0,1.44.06,2.18.17.74.09,1.41.29,2.02.58.61.29,1.1.71,1.49,1.24.39.52.58,1.21.58,2.07v7.43c0,.64.04,1.26.11,1.85.07.59.2,1.03.39,1.33h-3.98c-.07-.22-.14-.44-.19-.66-.04-.24-.06-.48-.08-.72-.63.64-1.36,1.1-2.21,1.35-.85.26-1.71.39-2.6.39-.68,0-1.32-.08-1.9-.25-.59-.17-1.1-.42-1.55-.77-.44-.35-.79-.79-1.05-1.33-.24-.53-.36-1.17-.36-1.9,0-.81.14-1.47.41-1.99.29-.53.66-.96,1.1-1.27.46-.31.98-.54,1.55-.69.59-.17,1.18-.29,1.77-.39.59-.09,1.17-.17,1.74-.22.57-.06,1.08-.14,1.52-.25.44-.11.79-.27,1.05-.47.26-.22.38-.53.36-.94,0-.42-.07-.75-.22-.99-.13-.26-.31-.45-.55-.58-.22-.15-.49-.24-.8-.28-.29-.06-.62-.08-.97-.08-.77,0-1.38.17-1.82.5-.44.33-.7.88-.77,1.66h-3.92Zm9.06,2.9c-.17.15-.38.27-.64.36-.24.07-.51.14-.8.19-.28.06-.57.1-.88.14-.31.04-.63.08-.94.14-.29.06-.59.13-.88.22-.28.09-.52.22-.75.39-.2.15-.37.34-.5.58-.13.24-.19.54-.19.91s.06.64.19.88c.13.24.3.43.52.58.22.13.48.22.77.28.29.06.6.08.91.08.77,0,1.37-.13,1.79-.39.42-.26.74-.56.94-.91.2-.37.32-.74.36-1.1.06-.37.08-.66.08-.88v-1.46Z"/><path class="cls-1" d="m160.56,83.74v14.27h3.92v-6.43c0-.64.06-1.24.19-1.79.13-.55.34-1.03.64-1.44.31-.42.72-.75,1.21-.99s1.1-.36,1.82-.36c.24,0,.49.02.75.06.26.02.48.05.66.08v-3.64c-.31-.09-.6-.14-.86-.14-.5,0-.98.07-1.44.22-.46.15-.89.36-1.3.64-.4.26-.76.58-1.08.97-.31.37-.56.77-.75,1.21h-.06v-2.65h-3.73Z"/><path class="cls-1" d="m171.13,88.13c.06-.92.28-1.68.69-2.29.4-.61.92-1.1,1.55-1.46.63-.37,1.33-.63,2.1-.77.79-.17,1.58-.25,2.37-.25.72,0,1.44.06,2.18.17.74.09,1.41.29,2.01.58.61.29,1.1.71,1.49,1.24.39.52.58,1.21.58,2.07v7.43c0,.64.04,1.26.11,1.85.07.59.2,1.03.39,1.33h-3.98c-.07-.22-.14-.44-.19-.66-.04-.24-.06-.48-.08-.72-.63.64-1.36,1.1-2.21,1.35-.85.26-1.71.39-2.59.39-.68,0-1.32-.08-1.9-.25-.59-.17-1.1-.42-1.55-.77-.44-.35-.79-.79-1.05-1.33-.24-.53-.36-1.17-.36-1.9,0-.81.14-1.47.41-1.99.3-.53.66-.96,1.1-1.27.46-.31.98-.54,1.55-.69.59-.17,1.18-.29,1.77-.39.59-.09,1.17-.17,1.74-.22.57-.06,1.08-.14,1.52-.25.44-.11.79-.27,1.05-.47.26-.22.38-.53.36-.94,0-.42-.07-.75-.22-.99-.13-.26-.31-.45-.55-.58-.22-.15-.49-.24-.8-.28-.29-.06-.62-.08-.97-.08-.77,0-1.38.17-1.82.5-.44.33-.7.88-.77,1.66h-3.92Zm9.06,2.9c-.16.15-.38.27-.63.36-.24.07-.51.14-.8.19-.28.06-.57.1-.88.14-.31.04-.63.08-.94.14-.29.06-.59.13-.88.22-.28.09-.52.22-.75.39-.2.15-.37.34-.5.58-.13.24-.19.54-.19.91s.06.64.19.88c.13.24.3.43.52.58.22.13.48.22.77.28.29.06.6.08.91.08.77,0,1.37-.13,1.79-.39.42-.26.74-.56.94-.91.2-.37.32-.74.36-1.1.06-.37.08-.66.08-.88v-1.46Z"/><path class="cls-1" d="m192.12,83.74v-4.28h-3.92v4.28h-2.37v2.62h2.37v8.42c0,.72.12,1.3.36,1.74.24.44.56.78.97,1.02.42.24.9.4,1.44.47.55.09,1.13.14,1.74.14.39,0,.78,0,1.19-.03.41-.02.77-.06,1.1-.11v-3.04c-.18.04-.38.06-.58.08-.2.02-.41.03-.63.03-.66,0-1.1-.11-1.33-.33-.22-.22-.33-.66-.33-1.33v-7.07h2.87v-2.62h-2.87Z"/><path class="cls-1" d="m206.46,89.34h-6.38c.02-.28.07-.59.17-.94.11-.35.28-.68.52-.99.26-.31.59-.57.99-.77.42-.22.95-.33,1.57-.33.96,0,1.67.26,2.13.77.48.52.81,1.27.99,2.26Zm-6.38,2.48h10.3c.07-1.1-.02-2.16-.28-3.18-.26-1.01-.68-1.91-1.27-2.71-.57-.79-1.31-1.42-2.21-1.88-.9-.48-1.96-.72-3.18-.72-1.08,0-2.08.19-2.98.58-.88.39-1.65.92-2.29,1.6-.64.66-1.14,1.45-1.49,2.37-.35.92-.52,1.91-.52,2.98s.16,2.12.5,3.04c.35.92.84,1.71,1.46,2.37.63.66,1.39,1.18,2.29,1.55.9.35,1.91.52,3.04.52,1.62,0,3-.37,4.14-1.1,1.14-.74,1.99-1.96,2.54-3.67h-3.45c-.13.44-.48.87-1.05,1.27-.57.39-1.25.58-2.04.58-1.1,0-1.95-.29-2.54-.86-.59-.57-.91-1.49-.97-2.76Z"/><path class="cls-1" d="m125.17,105.63v19.71h13.94v-3.64h-9.61v-16.07h-4.33Z"/><path class="cls-1" d="m140.98,115.46c.06-.92.29-1.68.69-2.29.4-.61.92-1.1,1.55-1.46.63-.37,1.33-.63,2.1-.77.79-.17,1.58-.25,2.37-.25.72,0,1.44.06,2.18.17.74.09,1.41.29,2.02.58.61.29,1.1.71,1.49,1.24.39.52.58,1.21.58,2.07v7.43c0,.64.04,1.26.11,1.85.07.59.2,1.03.39,1.33h-3.98c-.07-.22-.14-.44-.19-.66-.04-.24-.06-.48-.08-.72-.63.64-1.36,1.1-2.21,1.35-.85.26-1.71.39-2.6.39-.68,0-1.32-.08-1.9-.25-.59-.17-1.1-.42-1.55-.77-.44-.35-.79-.79-1.05-1.33-.24-.53-.36-1.17-.36-1.9,0-.81.14-1.47.41-1.99.29-.53.66-.96,1.1-1.27.46-.31.98-.54,1.55-.69.59-.17,1.18-.29,1.77-.39.59-.09,1.17-.17,1.74-.22.57-.06,1.08-.14,1.52-.25.44-.11.79-.27,1.05-.47.26-.22.38-.53.36-.94,0-.42-.07-.75-.22-.99-.13-.26-.31-.45-.55-.58-.22-.15-.49-.24-.8-.28-.29-.06-.62-.08-.97-.08-.77,0-1.38.17-1.82.5-.44.33-.7.88-.77,1.66h-3.92Zm9.06,2.9c-.17.15-.38.27-.63.36-.24.07-.51.14-.8.19-.28.06-.57.1-.88.14-.31.04-.63.08-.94.14-.29.06-.59.13-.88.22-.28.09-.52.22-.75.39-.2.15-.37.34-.5.58-.13.24-.19.54-.19.91s.06.64.19.88c.13.24.3.43.52.58.22.13.48.22.77.28.29.06.6.08.91.08.77,0,1.37-.13,1.79-.39.42-.26.74-.56.94-.91.2-.37.32-.74.36-1.1.06-.37.08-.66.08-.88v-1.46Z"/><path class="cls-1" d="m167.47,118.22c0,.59-.06,1.16-.19,1.71-.13.55-.33,1.04-.61,1.46-.28.42-.63.76-1.05,1.02-.4.24-.9.36-1.49.36s-1.07-.12-1.49-.36c-.42-.26-.77-.6-1.05-1.02-.28-.42-.48-.91-.61-1.46-.13-.55-.19-1.12-.19-1.71s.06-1.19.19-1.74c.13-.55.33-1.04.61-1.46.28-.42.63-.75,1.05-.99.42-.26.92-.39,1.49-.39s1.09.13,1.49.39c.42.24.77.57,1.05.99.28.42.48.91.61,1.46.13.55.19,1.13.19,1.74Zm-10.46-12.59v19.71h3.73v-1.82h.06c.42.79,1.05,1.35,1.88,1.68.83.33,1.77.5,2.82.5.72,0,1.43-.15,2.13-.44.7-.29,1.32-.75,1.88-1.35.57-.61,1.03-1.38,1.38-2.32.35-.96.52-2.09.52-3.4s-.18-2.43-.52-3.37c-.35-.96-.81-1.74-1.38-2.35-.55-.61-1.18-1.06-1.88-1.35-.7-.29-1.41-.44-2.13-.44-.88,0-1.74.17-2.57.52-.81.33-1.45.87-1.93,1.6h-.06v-7.18h-3.92Z"/><path class="cls-1" d="m176.92,120.7h-3.73c.04.96.25,1.76.63,2.4.41.63.91,1.13,1.52,1.52.63.39,1.33.66,2.13.83.79.17,1.6.25,2.43.25s1.6-.08,2.37-.25c.79-.15,1.49-.41,2.1-.8.61-.39,1.1-.89,1.46-1.52.39-.64.58-1.44.58-2.37,0-.66-.13-1.21-.39-1.66-.26-.46-.6-.84-1.02-1.13-.42-.31-.91-.56-1.46-.75-.53-.18-1.09-.34-1.66-.47-.55-.13-1.1-.25-1.63-.36-.53-.11-1.01-.23-1.44-.36-.4-.15-.74-.33-.99-.55-.26-.22-.39-.51-.39-.86,0-.29.07-.52.22-.69.15-.18.32-.32.52-.41.22-.09.46-.15.72-.17.26-.04.5-.06.72-.06.7,0,1.31.14,1.82.41.52.26.8.76.86,1.52h3.73c-.07-.88-.3-1.61-.69-2.18-.37-.59-.84-1.06-1.41-1.41-.57-.35-1.22-.6-1.96-.75-.72-.15-1.46-.22-2.24-.22s-1.53.07-2.26.22c-.74.13-1.4.37-1.99.72-.59.33-1.07.79-1.44,1.38-.35.59-.52,1.34-.52,2.26,0,.63.13,1.16.39,1.6.26.42.6.78,1.02,1.08.42.28.9.51,1.44.69.55.17,1.11.31,1.68.44,1.4.29,2.48.59,3.26.88.79.29,1.19.74,1.19,1.33,0,.35-.08.64-.25.88-.17.22-.38.4-.64.55-.24.13-.52.23-.83.3-.3.06-.58.08-.86.08-.39,0-.76-.05-1.13-.14-.35-.09-.66-.23-.94-.41-.28-.2-.51-.45-.69-.75-.16-.31-.25-.68-.25-1.1Z"/><path class="cls-1" d="m75.6,60.99c-10.88,0-21.31,4.32-29,12.01-7.69,7.69-12.01,18.12-12.01,29,0,10.88,4.32,21.31,12.01,29,7.69,7.69,18.12,12.01,29,12.01s21.31-4.32,29-12.01c7.69-7.69,12.01-18.12,12.01-29s-4.32-21.31-12.01-29c-7.69-7.69-18.12-12.01-29-12.01Zm2.18,10.3c.64,0,1.07.03,1.47.1.99.19,1.06.32.65,1.21-.41.88-.39.68-.4,3.87-.01,2.68-.07,3.69-.21,3.84-.01.01-.31.1-.65.19-1.14.3-1.11.26-1.24,1.58-.06.57-.1,1.04-.1,1.05,0,0,1.17.25,2.59.55l2.58.54,1.4.79,1.4.79,1.03,1.69c.56.93,1.03,1.69,1.04,1.69s.81-.3,1.78-.68c.97-.37,1.77-.67,1.78-.66.03.03.87,5.8.85,5.81-.12.1-5.79,1.78-5.93,1.75-.09-.02-1.11-.32-2.26-.67-1.15-.35-2.09-.63-2.11-.62-.01.01-.07,1.19-.13,2.63-.06,1.43-.11,2.61-.12,2.62,0,0-.48.39-1.04.86l-1.03.85-.8-.03c-.44-.02-2.53-.05-4.64-.09l-3.83-.06-1.24-.77c-.68-.42-1.41-.87-1.62-1-.46-.28-.46-.14.04-1.25.23-.51.42-.96.42-1,0-.05,1.66-.65,4.53-1.65,2.63-.91,4.47-1.58,4.38-1.59-.37-.03-8.94-.25-9.4-.23-.86.02-2.81-.95-3.78-1.89-.11-.1-.28-5.38-.18-5.47,1.35-1.23,2.18-1.82,3.64-2.61l1.47-.8,2.03.08c1.77.07,2.05.07,2.2,0,.09-.04,1.08-.46,2.2-.92l2.03-.83-1.93-.12c-1.06-.07-1.97-.12-2.02-.12-.13,0-1.35-1.71-1.41-1.96-.02-.11-.18-1.1-.34-2.18l-.3-1.98.87-1.47c.67-1.15.89-1.47.98-1.48.06,0,1.21-.09,2.54-.19,1.29-.1,2.15-.16,2.8-.16Zm16.12,12.37l.97.03c.53.02,1.22.05,1.53.08.6.06,1,.16,1.19.32.12.1.18.73.32,3.16v.24s-2.58,1.1-2.58,1.1c-1.43.6-2.63,1.11-2.69,1.13-.11.04-1.5-1.93-1.42-2,.03-.02.43-.19.89-.37.46-.18.86-.33.88-.34.02,0,0-.48-.04-1.05-.04-.57-.05-1.06-.03-1.09.02-.03.25-.32.5-.63l.47-.58Zm.14,1.86s-.03.12-.01.27c.02.15.06.62.1,1.06.04.43.08.8.09.81.02.03,2.16-.58,2.16-.61,0-.04-2.28-1.52-2.33-1.52Zm-13.96,3.06c-.1.05-.39.61-.98,1.73-.56,1.07-1.16,2.23-1.35,2.58l-.34.64,1.1-.85,1.1-.85.03-.38c.02-.21.14-.91.26-1.56.18-.91.27-1.36.17-1.31Zm-14.63,14.05c.17.01.52.12,1.3.36.72.21,1.9.53,2.62.71.73.18,1.35.34,1.39.36.04.02-.1.24-.42.61l-.49.57-.58,1.45-.58,1.45,1.76-.04c.97-.02,1.76-.04,1.77-.05,0,0,.06-.55.13-1.22.11-1.1.13-1.22.25-1.32.07-.06.54-.41,1.04-.78l.91-.66.95.68.95.68.1,1.28c.05.71.1,1.28.11,1.28s.7,0,1.54-.02l1.53-.02-.92-1.9c-.5-1.04-.91-1.91-.9-1.92,0-.01.61-.08,1.33-.15,1.23-.12,1.38-.15,2.26-.42.52-.16.98-.29,1.02-.29s1.13,1.2,2.41,2.66c2.84,3.23,2.86,3.25,4.79,5.06,3.49,3.26,3.96,3.87,4.47,5.75.33,1.22.47,1.57,1.67,4.11.62,1.32,1.19,2.63,1.41,3.24.21.58.27.48-.57.97-.3.18-.55.35-.55.39,0,.22.73.52,3.16,1.32,3.14,1.02,3.67,1.4,2.93,2.15-.53.53-.89.59-3.93.59-3.11,0-3.95-.09-4.3-.46-.25-.26-.33-.09.95-2,.62-.93,1.12-1.7,1.11-1.71,0,0-1.05.08-2.3.2l-2.28.22-1.75-.15c-.96-.08-1.77-.17-1.8-.19-.03-.02-1.11-2.2-2.39-4.83l-2.34-4.78-3.53-2.24-3.53-2.24-1.47.03c-.81.02-1.66.05-1.91.07l-.44.03-2.95,3.25-2.95,3.25-3.67,3.52-3.67,3.52-1.1.14-1.1.14-2.28-.33c-1.26-.18-2.29-.32-2.3-.31,0,0,.53.75,1.19,1.65.66.9,1.2,1.66,1.19,1.69,0,.03-.21.36-.44.72l-.42.66h-2.23c-3.38,0-3.45-.04-2.96-1.23.24-.57.31-.65,1.21-1.34,1.56-1.19,2.12-1.67,2.26-1.93.04-.08-.07-.2-.64-.67-.38-.32-.69-.62-.69-.67.01-.28,7.75-10.84,9.08-12.39.74-.86,1.99-2.41,2.78-3.44l1.44-1.87.52-1.31c.28-.72.56-1.45.61-1.61.06-.18.05-.27.22-.26Z"/></svg>