<?xml version="1.0" encoding="UTF-8"?><svg id="Layer_1" xmlns="http://www.w3.org/2000/svg" viewBox="0 0 245 204"><defs><style>.cls-1{stroke:#fff;stroke-miterlimit:10;stroke-width:2.08px;}.cls-1,.cls-2{fill:#fff;}.cls-3{fill:#326de6;}.cls-3,.cls-2{stroke-width:0px;}</style></defs><g id="Layer_2"><g id="Layer_1-2"><path class="cls-1" d="m51.41,92.22c-.21-.67-.71-1.21-1.33-1.54l-12.72-6.09c-.33-.17-.71-.21-1.04-.21s-.71,0-1.04.08l-12.72,6.13c-.63.29-1.08.83-1.25,1.54l-3.13,13.72c-.13.71.04,1.42.46,2l8.8,10.88c.5.5,1.21.83,1.92.88h14.01c.75.08,1.46-.25,1.92-.88l8.8-10.88c.42-.58.58-1.29.5-2l-3.17-13.63Z"/><path class="cls-3" d="m51.41,92.22c-.21-.67-.71-1.21-1.33-1.54l-12.72-6.09c-.33-.17-.71-.21-1.04-.21s-.71,0-1.04.08l-12.72,6.13c-.63.29-1.08.83-1.25,1.54l-3.13,13.72c-.13.71.04,1.42.46,2l8.8,10.88c.5.5,1.21.83,1.92.88h14.01c.75.08,1.46-.25,1.92-.88l8.8-10.88c.42-.58.58-1.29.5-2l-3.17-13.63Z"/><path class="cls-2" d="m49.45,105.31h0s-.08,0-.08-.04-.08-.04-.17-.04c-.17-.04-.33-.04-.5-.04-.08,0-.17,0-.25-.04h-.04c-.46-.04-.96-.13-1.42-.25-.13-.04-.25-.17-.29-.29.04,0,0,0,0,0h0l-.33-.08c.17-1.21.08-2.46-.17-3.67-.29-1.21-.79-2.38-1.46-3.42l.25-.25h0v-.04c0-.13.04-.29.13-.38.38-.33.75-.58,1.17-.83h0c.08-.04.17-.08.25-.13.17-.08.29-.17.46-.25.04-.04.08-.04.13-.08s0-.04,0-.08h0c.38-.29.46-.79.17-1.17-.13-.17-.38-.29-.58-.29s-.42.08-.58.21h0l-.04.04s-.08.08-.13.08c-.13.13-.25.25-.33.38-.04.08-.13.13-.17.17h0c-.29.33-.67.67-1.04.92-.08.04-.17.08-.25.08-.04,0-.13,0-.17-.04h-.04l-.33.21c-.33-.33-.71-.67-1.04-1-1.54-1.21-3.46-1.96-5.42-2.17l-.04-.33h0v.04c-.13-.08-.17-.21-.21-.33,0-.46,0-.92.08-1.42v-.04c0-.08.04-.17.04-.25.04-.17.04-.33.08-.5v-.25h0c.04-.42-.29-.83-.71-.88-.25-.04-.5.08-.71.29-.17.17-.25.38-.25.58h0v.21c0,.17.04.33.08.5.04.08.04.17.04.25v.04c.08.46.08.92.08,1.42-.04.13-.08.25-.21.33v.08h0l-.04.33c-.46.04-.92.13-1.42.21-1.96.42-3.75,1.46-5.13,2.92l-.25-.17h-.04s-.08.04-.17.04-.17-.04-.25-.08c-.38-.29-.75-.63-1.04-.96h0c-.04-.08-.13-.13-.17-.17-.13-.13-.21-.25-.33-.38-.04-.04-.08-.04-.13-.08s-.04-.04-.04-.04h0c-.17-.13-.38-.21-.58-.21-.25,0-.46.08-.58.29-.25.38-.17.88.17,1.17h0s.04.04.04.04c0,0,.08.08.13.08.13.08.29.17.46.25.08.04.17.08.25.13h0c.42.25.83.5,1.17.83.08.08.17.25.13.38v-.04h0l.25.25c-.04.08-.08.13-.13.21-1.29,2.04-1.83,4.46-1.46,6.84l-.33.08h0s-.04.04-.04.04c-.04.13-.17.21-.29.29-.46.13-.92.21-1.42.25h0c-.08,0-.17,0-.25.04-.17,0-.33.04-.5.04-.04,0-.08.04-.17.04t-.08.04h0c-.46.08-.75.5-.67.96h0c.08.38.46.63.83.58.08,0,.13,0,.21-.04h0s.04,0,.04-.04.13,0,.17,0c.17-.04.33-.13.46-.17.08-.04.17-.08.25-.08h.04c.46-.17.88-.29,1.38-.38h.04c.13,0,.25.04.33.13.04,0,.04.04.04.04h0l.38-.04c.63,1.92,1.79,3.63,3.42,4.88.38.29.71.54,1.13.75l-.21.29h0s.04.04.04.04c.08.13.08.29.04.42-.17.42-.42.83-.67,1.21v.04c-.04.08-.08.13-.17.21s-.17.25-.29.42c-.04.04-.04.08-.08.13,0,0,0,.04-.04.04h0c-.21.42-.04.92.33,1.13.08.04.21.08.29.08.33,0,.63-.21.79-.5h0s0-.04.04-.04c0-.04.04-.08.08-.13.04-.17.13-.29.17-.46l.08-.25h0c.13-.46.33-.88.54-1.29.08-.13.21-.21.33-.25t.04-.04h0l.17-.33c1.17.46,2.38.67,3.63.67.75,0,1.5-.08,2.25-.29.46-.08.92-.25,1.33-.38l.17.29h0s.04,0,.04.04c.13.04.25.13.33.25.21.42.42.83.54,1.29v.04l.08.25c.04.17.08.33.17.46.04.04.04.08.08.13,0,0,0,.04.04.04h0c.17.29.46.5.79.5.13,0,.21-.04.33-.08.17-.08.33-.25.38-.46.04-.21.04-.42-.04-.63h0s-.04-.04-.04-.04c0-.04-.04-.08-.08-.13-.08-.17-.17-.29-.29-.42-.04-.08-.08-.13-.17-.21v-.08c-.29-.38-.5-.79-.67-1.21-.04-.13-.04-.29.04-.42,0-.04.04-.04.04-.04h0l-.13-.33c2.13-1.29,3.75-3.29,4.5-5.67l.33.04h0s.04-.04.04-.04c.08-.08.21-.13.33-.13h.04c.46.08.92.21,1.33.38h.04c.08.04.17.08.25.08.17.08.29.17.46.21.04,0,.08.04.17.04t.08.04h0c.08.04.13.04.21.04.38,0,.71-.25.83-.58-.04-.46-.38-.79-.75-.88Zm-12.05-1.29l-1.13.54-1.13-.54-.29-1.21.79-1h1.25l.79,1-.29,1.21Zm6.8-2.71c.21.88.25,1.75.17,2.63l-3.96-1.13h0c-.38-.08-.58-.46-.5-.83.04-.13.08-.21.17-.29l3.13-2.84c.46.75.79,1.58,1,2.46Zm-2.25-4l-3.42,2.42c-.29.17-.71.13-.92-.17-.08-.08-.13-.17-.13-.29l-.25-4.21c1.83.21,3.46,1,4.71,2.25h0Zm-7.55-2.13l.83-.17-.21,4.17h0c0,.38-.33.67-.71.67-.13,0-.21-.04-.33-.08l-3.46-2.46c1.08-1.04,2.42-1.79,3.88-2.13Zm-5.09,3.67l3.09,2.75h0c.29.25.33.67.08.96-.08.13-.17.17-.33.21l-4.04,1.17c-.13-1.75.29-3.54,1.21-5.09Zm-.71,7.05l4.13-.71c.33,0,.67.21.71.54.04.13.04.29-.04.42h0l-1.58,3.84c-1.46-.96-2.63-2.42-3.21-4.09Zm9.46,5.17c-.58.13-1.17.21-1.79.21-.88,0-1.79-.17-2.63-.42l2.04-3.71c.21-.25.54-.33.83-.17.13.08.21.17.33.29h0l2,3.63c-.25.04-.5.08-.79.17Zm5.09-3.63c-.63,1-1.5,1.88-2.5,2.5l-1.63-3.92c-.08-.33.08-.67.38-.79.13-.04.25-.08.38-.08l4.17.71c-.21.58-.46,1.13-.79,1.58Z"/><g id="layer1"><g id="text4373"><path id="path2985" class="cls-2" d="m70.51,103.52c.46-.5.88-1,1.38-1.5.46-.54.92-1.04,1.38-1.54.46-.54.88-1,1.25-1.46s.75-.88,1.04-1.21h5.34c-1.08,1.21-2.13,2.42-3.13,3.54-1.04,1.13-2.13,2.29-3.34,3.46.67.63,1.29,1.25,1.88,1.96.63.75,1.25,1.5,1.88,2.33.58.79,1.17,1.63,1.67,2.42s.92,1.54,1.25,2.21h-5.17c-.33-.54-.71-1.08-1.13-1.71s-.88-1.25-1.29-1.92c-.46-.63-.96-1.25-1.5-1.83-.46-.54-.96-1.04-1.5-1.46v6.96h-4.5v-22.85l4.5-.71v13.3"/><path id="path2987" class="cls-2" d="m96.77,113.1c-.96.25-1.96.46-2.96.58-1.25.21-2.54.29-3.79.29-1.17.04-2.29-.17-3.38-.54-.83-.33-1.54-.83-2.13-1.5-.54-.71-.92-1.5-1.13-2.38-.25-.96-.33-2-.33-3v-8.8h4.5v8.3c0,1.46.21,2.5.58,3.13s1.08.96,2.13.96c.33,0,.67,0,1.04-.04s.67-.04.96-.13v-12.22h4.5v15.34"/><path id="path2989" class="cls-2" d="m111.2,105.6c0-2.92-1.08-4.34-3.21-4.34-.46,0-.92.04-1.38.17-.38.08-.75.25-1.08.46v8.17c.21.04.5.08.83.13.33.04.71.04,1.13.04,1.08.08,2.13-.38,2.79-1.25.63-1,.96-2.17.92-3.38m4.59.17c0,1.17-.17,2.33-.58,3.46-.33,1-.88,1.88-1.58,2.63-.75.75-1.63,1.33-2.58,1.71-1.13.42-2.29.58-3.5.58-.54,0-1.13-.04-1.71-.08-.58-.04-1.17-.13-1.75-.17-.54-.08-1.08-.17-1.63-.29-.54-.08-1-.21-1.38-.38v-22.3l4.5-.71v7.92c.5-.21,1.04-.38,1.58-.5.58-.13,1.17-.17,1.75-.17,1.04,0,2.04.17,3,.63.83.38,1.58.96,2.17,1.67.63.79,1.08,1.67,1.33,2.63.25,1.04.38,2.21.38,3.38"/><path id="path2991" class="cls-2" d="m118.49,105.85c-.04-1.25.21-2.5.63-3.67.38-1,.96-1.88,1.71-2.67.71-.71,1.5-1.25,2.42-1.58.92-.38,1.88-.54,2.83-.54,2.25,0,4.04.71,5.34,2.08,1.29,1.38,1.96,3.42,1.96,6.05,0,.25,0,.54-.04.88s-.04.58-.04.83h-10.21c.08.88.54,1.71,1.29,2.21.92.58,2,.88,3.09.83.79,0,1.63-.08,2.42-.21.67-.13,1.33-.33,1.96-.58l.63,3.67c-.29.17-.63.25-.96.38-.46.13-.92.25-1.38.29-.5.08-1,.17-1.58.25-.54.04-1.13.08-1.71.08-1.29.04-2.54-.17-3.75-.63-1-.38-1.88-.96-2.63-1.71-.71-.75-1.21-1.67-1.54-2.63-.25-1.13-.42-2.21-.42-3.34m10.59-1.71c0-.38-.08-.75-.21-1.13-.08-.38-.29-.67-.5-.96-.25-.29-.54-.54-.88-.71-.42-.21-.83-.29-1.29-.29s-.88.08-1.29.29c-.33.17-.67.38-.92.67-.25.29-.46.63-.58,1-.13.38-.21.75-.25,1.13h5.92"/><path id="path2993" class="cls-2" d="m146.47,101.76c-.42-.08-.88-.21-1.42-.29-.58-.13-1.17-.17-1.75-.17-.33,0-.67.04-1.04.08-.29.04-.58.08-.88.17v12.13h-4.5v-15.09c.92-.33,1.88-.58,2.83-.79,1.21-.29,2.46-.42,3.67-.38.29,0,.58.04.88.04.33,0,.67.04,1.04.13.33.04.67.08,1.04.17.29.04.58.13.88.25l-.75,3.75"/><path id="path2995" class="cls-2" d="m149.64,98.3c.96-.25,1.96-.46,2.96-.63,1.25-.21,2.54-.29,3.79-.29,1.13-.04,2.25.17,3.34.54.83.29,1.58.79,2.13,1.46.54.67.92,1.46,1.13,2.29.25.96.33,1.96.33,2.96v8.96h-4.46v-8.38c0-1.46-.21-2.46-.58-3.09-.38-.58-1.08-.92-2.13-.92-.33,0-.67,0-1.04.04-.38,0-.67.04-.96.08v12.26h-4.5v-15.3"/><path id="path2997" class="cls-2" d="m166.73,105.85c-.04-1.25.21-2.5.63-3.67.38-1,.96-1.88,1.71-2.67.71-.71,1.5-1.25,2.42-1.58.92-.38,1.88-.54,2.83-.54,2.25,0,4.04.71,5.34,2.08,1.29,1.38,1.96,3.42,1.96,6.09,0,.25,0,.54-.04.88s-.04.58-.04.83h-10.21c.08.88.54,1.71,1.29,2.21.92.58,2,.88,3.09.83.79,0,1.63-.08,2.42-.21.67-.13,1.33-.33,2-.63l.63,3.67c-.29.17-.63.25-.96.38-.46.13-.92.25-1.38.29-.5.08-1,.17-1.58.25-.54.04-1.13.08-1.71.08-1.29.04-2.54-.17-3.75-.63-1-.38-1.88-.96-2.63-1.71-.71-.75-1.21-1.67-1.54-2.63-.33-1.13-.5-2.25-.46-3.34m10.55-1.71c0-.38-.08-.75-.21-1.13-.08-.38-.29-.67-.5-.96-.25-.29-.54-.54-.88-.71-.42-.21-.83-.29-1.29-.29s-.88.08-1.29.29c-.33.17-.63.38-.88.67-.25.29-.46.63-.58,1s-.21.75-.25,1.13h5.88"/><path id="path2999" class="cls-2" d="m184.95,93.8l4.5-.71v4.67h5.42v3.75h-5.42v5.59c-.04.79.13,1.58.5,2.25.33.54,1,.83,2.04.83.5,0,1-.04,1.46-.13.5-.08.96-.21,1.42-.38l.63,3.5c-.58.25-1.21.42-1.83.58-.79.17-1.63.25-2.46.25-1.04.04-2.08-.13-3.04-.5-.75-.29-1.42-.79-1.92-1.38-.5-.63-.83-1.38-1.04-2.17-.21-.92-.29-1.88-.25-2.79v-13.38"/><path id="path3001" class="cls-2" d="m197.16,105.85c-.04-1.25.21-2.5.63-3.67.38-1,.96-1.88,1.71-2.67.71-.71,1.5-1.25,2.42-1.58.92-.38,1.88-.54,2.83-.54,2.25,0,4.04.71,5.34,2.08s1.96,3.42,1.96,6.09c0,.25,0,.54-.04.88,0,.33-.04.58-.04.83h-10.17c.08.88.54,1.71,1.29,2.21.92.58,2,.88,3.09.83.79,0,1.63-.08,2.42-.21.67-.13,1.33-.33,1.96-.63l.63,3.67c-.29.17-.63.25-.96.38-.46.13-.92.25-1.38.29-.5.08-1,.17-1.58.25-.54.04-1.13.08-1.71.08-1.29.04-2.54-.17-3.75-.63-1-.38-1.88-.96-2.63-1.71-.71-.75-1.21-1.67-1.54-2.63-.29-1.13-.46-2.25-.46-3.34m10.55-1.71c0-.38-.08-.75-.21-1.13-.08-.38-.29-.67-.5-.96-.25-.29-.54-.54-.88-.71-.42-.21-.83-.29-1.29-.29s-.88.08-1.29.29c-.33.17-.67.38-.92.67-.25.29-.46.63-.58,1s-.21.75-.25,1.13h5.92"/><path id="path3003" class="cls-2" d="m220.14,110.44c.58.04,1.21-.04,1.75-.25.33-.17.54-.54.5-.92-.04-.42-.29-.79-.67-.92-.63-.38-1.33-.71-2.04-.92-.71-.25-1.33-.54-1.92-.83-.54-.25-1-.58-1.46-1-.42-.42-.71-.88-.92-1.42-.25-.63-.33-1.29-.33-1.96-.04-1.38.58-2.71,1.67-3.54,1.13-.88,2.63-1.29,4.54-1.29.92,0,1.88.08,2.79.29.71.13,1.42.29,2.13.54l-.79,3.54c-.58-.21-1.13-.33-1.71-.5-.67-.17-1.38-.21-2.04-.21-1.42,0-2.13.38-2.13,1.17,0,.17.04.33.08.5.08.17.21.29.38.42s.42.25.71.42.71.33,1.21.5c.83.29,1.67.67,2.42,1.08.58.29,1.08.67,1.5,1.17.38.38.63.83.79,1.38.17.58.25,1.17.25,1.75.08,1.42-.58,2.79-1.79,3.59-1.17.79-2.83,1.21-5,1.21-1.21.04-2.38-.08-3.54-.38-.67-.17-1.29-.38-1.92-.58l.75-3.67c.75.29,1.54.54,2.33.71.83.04,1.63.13,2.46.13"/></g></g></g></g></svg>